<svg width="2000" height="1160" viewBox="0 0 2000 1160" fill="none" xmlns="http://www.w3.org/2000/svg">
<rect width="1920" height="1080" transform="translate(40 40)" fill="#EBCD94"/>
<rect x="74" y="67.1294" width="1849.15" height="1031.17" transform="rotate(-0.158935 74 67.1294)" fill="#7B5E27"/>
<rect x="1698.77" y="890.217" width="118.191" height="18.8317" transform="rotate(18.5991 1698.77 890.217)" fill="#F5BC4D" stroke="black" stroke-width="0.8"/>
<rect x="1708.83" y="912.16" width="13.0981" height="32.3556" transform="rotate(18.5991 1708.83 912.16)" fill="#F5BC4D" stroke="black" stroke-width="0.8"/>
<rect x="1740.81" y="922.796" width="10.8621" height="18.8317" transform="rotate(18.5991 1740.81 922.796)" fill="#F5BC4D" stroke="black" stroke-width="0.8"/>
<rect x="1813.23" y="906.886" width="63.4087" height="60.5302" transform="rotate(18.5991 1813.23 906.886)" fill="#F5BC4D" stroke="black" stroke-width="0.8"/>
<rect x="1810.09" y="928.729" width="16.8409" height="20.6557" transform="rotate(108.599 1810.09 928.729)" fill="#F5BC4D"/>
<rect x="1753.29" y="916.537" width="16.8409" height="8.83067" transform="rotate(108.599 1753.29 916.537)" fill="#F5BC4D"/>
<rect x="1724.33" y="904.048" width="16.8409" height="11.1194" transform="rotate(108.599 1724.33 904.048)" fill="#F5BC4D"/>
<rect x="1825.15" y="927.545" width="28.7503" height="28.9746" transform="rotate(18.5991 1825.15 927.545)" fill="#7B5E27" stroke="black" stroke-width="0.8"/>
<rect x="159.01" y="390.36" width="543.376" height="326.868" rx="28.5" transform="rotate(-26.3288 159.01 390.36)" fill="white" stroke="black" stroke-width="3"/>
<text transform="translate(288.755 343.989) rotate(-26.3288)" fill="black" xml:space="preserve" style="white-space: pre" font-family="Another Typewriter" font-size="45" letter-spacing="0.02em"><tspan x="7.65927" y="47.7465">JOIN LOBBY</tspan></text>
<rect x="250.055" y="577.726" width="546.376" height="62.9429" transform="rotate(-26.3288 250.055 577.726)" fill="black"/>
<path d="M293.079 442.607C299.756 440.336 314.981 442.597 317.135 433.612C317.656 431.438 317.491 428.311 319.392 426.784C323.341 423.61 329.564 422.021 334.338 420.735C337.324 419.93 351.137 418.836 351.647 414.971C352.586 407.852 361.887 405.953 367.379 408.102C369.464 408.918 375.58 413.834 377.957 413.05C379.912 412.406 379.579 407.554 380.107 406.005C383.781 395.238 398.641 404.584 405.339 406.396C408.465 407.242 413.506 409.295 416.596 407.022C420.344 404.265 418.989 399.755 421.373 396.522C428.416 386.97 439.546 378.884 444.32 367.764C447.454 360.466 454.559 367.216 458.715 369.692C462.111 371.715 464.562 354.184 467.446 351.632C469.96 349.408 475.187 349.809 478.241 350.008C486.099 350.52 492.444 351.588 500.186 348.685C509.879 345.05 514.504 335.966 521.986 329.546C525.447 326.577 533.944 334.799 536.952 337.01C542.133 340.818 547.647 322.918 549.501 319.217C552.246 313.734 559.476 311.748 564.602 309.212C568.404 307.33 572.206 305.449 576.008 303.567C588.869 297.203 599.238 288.659 610.489 279.716" stroke="black" stroke-width="3" stroke-linecap="round"/>
<path d="M290.208 508.184C301.634 502.53 313.123 493.271 325.36 494.086C331.581 494.5 345.445 486.379 350.239 482.153C355.369 477.63 355.645 470.914 364.496 471.53C371.55 472.022 379.878 480.025 388.052 475.114C398.204 469.015 401.888 458.017 410.815 450.501C418.82 443.761 432.508 437.411 442.218 438.149C453.963 439.043 469.816 437.847 480.834 428.606C488.496 422.181 492.695 411.432 498.946 403.916C502.94 399.114 511.653 392.494 518.089 391.092C527.554 389.031 537.164 391.389 546.792 387.806C558.906 383.297 561.906 375.884 569.838 368.348C573.517 364.852 577.893 361.93 582.602 359.6C588.487 356.688 596.344 351.295 602.616 349.912C607.981 348.729 613.363 348.488 618.874 347.001C624.496 345.484 629.573 343.014 635.152 341.378C647.154 337.858 657.56 332.705 668.347 325.924" stroke="black" stroke-width="3" stroke-linecap="round"/>
<rect x="378.729" y="924.386" width="118.191" height="18.8317" transform="rotate(-132.651 378.729 924.386)" fill="#F5BC4D" stroke="black" stroke-width="0.8"/>
<rect x="380.465" y="900.31" width="13.0981" height="32.3556" transform="rotate(-132.651 380.465 900.31)" fill="#F5BC4D" stroke="black" stroke-width="0.8"/>
<rect x="357.537" y="875.6" width="10.8621" height="18.8317" transform="rotate(-132.651 357.537 875.6)" fill="#F5BC4D" stroke="black" stroke-width="0.8"/>
<rect x="286.396" y="854.718" width="63.4087" height="60.5302" transform="rotate(-132.651 286.396 854.718)" fill="#F5BC4D" stroke="black" stroke-width="0.8"/>
<rect x="299.654" y="837.077" width="16.8409" height="20.6557" transform="rotate(-42.651 299.654 837.077)" fill="#F5BC4D"/>
<rect x="343.584" y="875.085" width="16.8409" height="8.83067" transform="rotate(-42.651 343.584 875.085)" fill="#F5BC4D"/>
<rect x="362.973" y="899.967" width="16.8409" height="11.1194" transform="rotate(-42.651 362.973 899.967)" fill="#F5BC4D"/>
<rect x="285.88" y="830.872" width="28.7503" height="28.9746" transform="rotate(-132.651 285.88 830.872)" fill="#7B5E27" stroke="black" stroke-width="0.8"/>
<rect x="861.798" y="358.246" width="118.191" height="18.8317" transform="rotate(-51.036 861.798 358.246)" fill="#F5BC4D" stroke="black" stroke-width="0.8"/>
<rect x="885.87" y="356.452" width="13.0981" height="32.3556" transform="rotate(-51.036 885.87 356.452)" fill="#F5BC4D" stroke="black" stroke-width="0.8"/>
<rect x="906.973" y="330.166" width="10.8621" height="18.8317" transform="rotate(-51.036 906.973 330.166)" fill="#F5BC4D" stroke="black" stroke-width="0.8"/>
<rect x="917.257" y="256.74" width="63.4087" height="60.5302" transform="rotate(-51.036 917.257 256.74)" fill="#F5BC4D" stroke="black" stroke-width="0.8"/>
<rect x="936.643" y="267.284" width="16.8409" height="20.6557" transform="rotate(38.964 936.643 267.284)" fill="#F5BC4D"/>
<rect x="905.447" y="316.288" width="16.8409" height="8.83067" transform="rotate(38.964 905.447 316.288)" fill="#F5BC4D"/>
<rect x="883.659" y="339.097" width="16.8409" height="11.1194" transform="rotate(38.964 883.659 339.097)" fill="#F5BC4D"/>
<rect x="940.773" y="252.753" width="28.7503" height="28.9746" transform="rotate(-51.036 940.773 252.753)" fill="#7B5E27" stroke="black" stroke-width="0.8"/>
<mask id="path-31-inside-1_3_34" fill="white">
<path fill-rule="evenodd" clip-rule="evenodd" d="M723.137 770.794L712.772 764.363L602.872 953.574C601.705 954.055 600.863 954.751 600.401 955.671C597.442 961.564 611.163 974.435 631.047 984.418C650.931 994.401 669.449 997.717 672.408 991.823C672.666 991.308 672.798 990.741 672.809 990.126L757.706 787.58L734.489 777.719L723.137 770.794Z"/>
</mask>
<path fill-rule="evenodd" clip-rule="evenodd" d="M723.137 770.794L712.772 764.363L602.872 953.574C601.705 954.055 600.863 954.751 600.401 955.671C597.442 961.564 611.163 974.435 631.047 984.418C650.931 994.401 669.449 997.717 672.408 991.823C672.666 991.308 672.798 990.741 672.809 990.126L757.706 787.58L734.489 777.719L723.137 770.794Z" fill="#323232"/>
<path d="M712.772 764.363L713.299 763.513L712.424 762.97L711.907 763.86L712.772 764.363ZM723.137 770.794L722.609 771.644L722.616 771.648L723.137 770.794ZM602.872 953.574L603.253 954.498L603.567 954.369L603.737 954.076L602.872 953.574ZM600.401 955.671L601.295 956.12H601.295L600.401 955.671ZM631.047 984.418L631.496 983.524L631.047 984.418ZM672.408 991.823L673.302 992.272H673.302L672.408 991.823ZM672.809 990.126L671.886 989.739L671.812 989.916L671.809 990.108L672.809 990.126ZM757.706 787.58L758.628 787.966L759.013 787.048L758.097 786.659L757.706 787.58ZM734.489 777.719L733.968 778.573L734.03 778.611L734.098 778.64L734.489 777.719ZM712.244 765.212L722.609 771.644L723.664 769.944L713.299 763.513L712.244 765.212ZM603.737 954.076L713.636 764.865L711.907 763.86L602.008 953.072L603.737 954.076ZM601.295 956.12C601.621 955.471 602.242 954.915 603.253 954.498L602.491 952.649C601.168 953.194 600.106 954.03 599.508 955.222L601.295 956.12ZM631.496 983.524C621.615 978.564 613.3 972.901 607.842 967.782C605.108 965.217 603.135 962.829 602.026 960.771C600.9 958.683 600.775 957.155 601.295 956.12L599.508 955.222C598.548 957.134 599.028 959.425 600.265 961.72C601.518 964.044 603.662 966.603 606.474 969.24C612.108 974.525 620.595 980.29 630.598 985.312L631.496 983.524ZM671.514 991.374C670.995 992.41 669.695 993.222 667.348 993.567C665.035 993.907 661.94 993.751 658.251 993.09C650.884 991.771 641.377 988.485 631.496 983.524L630.598 985.312C640.602 990.334 650.295 993.697 657.898 995.059C661.693 995.738 665.026 995.93 667.639 995.546C670.217 995.167 672.342 994.184 673.302 992.272L671.514 991.374ZM671.809 990.108C671.8 990.588 671.699 991.007 671.514 991.374L673.302 992.272C673.634 991.61 673.795 990.893 673.808 990.144L671.809 990.108ZM756.783 787.193L671.886 989.739L673.731 990.512L758.628 787.966L756.783 787.193ZM734.098 778.64L757.315 788.5L758.097 786.659L734.879 776.799L734.098 778.64ZM722.616 771.648L733.968 778.573L735.009 776.866L723.658 769.94L722.616 771.648Z" fill="black" mask="url(#path-31-inside-1_3_34)"/>
<path d="M908.544 686C908.544 750.87 853.275 803.5 785.044 803.5C716.813 803.5 661.544 750.87 661.544 686C661.544 621.13 716.813 568.5 785.044 568.5C853.275 568.5 908.544 621.13 908.544 686Z" fill="#323232" stroke="black"/>
<path d="M883.544 686C883.544 737.612 839.247 779.5 784.544 779.5C729.841 779.5 685.544 737.612 685.544 686C685.544 634.388 729.841 592.5 784.544 592.5C839.247 592.5 883.544 634.388 883.544 686Z" fill="#CCCCCC" stroke="black"/>
<ellipse cx="812.544" cy="686" rx="54.5" ry="65" fill="#EDEDED"/>
<ellipse cx="791.544" cy="694" rx="62.5" ry="73" fill="#CCCCCC"/>
<path d="M194.741 1012.89H338.518V1036.96H194.741V1012.89Z" fill="#93702D" stroke="#7B5E27" stroke-width="3"/>
<path d="M194.114 1053.86L144 1024.93L194.114 995.992L194.114 1053.86Z" fill="#93702D" stroke="#7B5E27" stroke-width="3"/>
<rect x="190.984" y="1014.42" width="14" height="21.0262" fill="#93702D"/>
<text fill="white" xml:space="preserve" style="white-space: pre" font-family="Another Typewriter" font-size="48" letter-spacing="0.02em"><tspan x="213.835" y="997.678">Back</tspan></text>
<rect x="565" y="115" width="917" height="917" fill="#1880BB" stroke="black" stroke-width="6"/>
<text transform="translate(681 137)" fill="white" xml:space="preserve" style="white-space: pre" font-family="Another Typewriter" font-size="66" letter-spacing="0.02em"><tspan x="108.593" y="68.103">CREATE LOBBY</tspan></text>
<rect x="837.5" y="811.5" width="373" height="87" rx="9.5" fill="#87C6E9" stroke="black"/>
<text fill="white" xml:space="preserve" style="white-space: pre" font-family="Another Typewriter" font-size="45" letter-spacing="0.02em"><tspan x="897.135" y="872.798">Create Code</tspan></text>
<text fill="white" xml:space="preserve" style="white-space: pre" font-family="Another Typewriter" font-size="37" letter-spacing="0.02em"><tspan x="662.34" y="397.133">Number of players</tspan></text>
<text fill="white" xml:space="preserve" style="white-space: pre" font-family="Another Typewriter" font-size="37" letter-spacing="0.02em"><tspan x="665.602" y="663.133">Private Lobby</tspan></text>
<text fill="white" xml:space="preserve" style="white-space: pre" font-family="Another Typewriter" font-size="37" letter-spacing="0.02em"><tspan x="1052.98" y="663.133">Public Lobby</tspan></text>
<text fill="white" xml:space="preserve" style="white-space: pre" font-family="Another Typewriter" font-size="37" letter-spacing="0.02em"><tspan x="660.429" y="530.133">Time limit for activities</tspan></text>
<rect x="1215.5" y="359.5" width="154" height="46" fill="#FCFCFC" stroke="black"/>
<rect x="1211.5" y="492.5" width="154" height="46" fill="#FCFCFC" stroke="black"/>
<rect x="948.5" y="625.5" width="45" height="46" fill="#FCFCFC" stroke="black"/>
<rect x="1324.5" y="625.5" width="45" height="46" fill="#FCFCFC" stroke="black"/>
<rect x="40" y="8" width="114.961" height="26" rx="2" fill="#EBCD94"/>
<rect x="40.5" y="8.5" width="113.961" height="25" rx="1.5" stroke="black" stroke-opacity="0.14902"/>
<text fill="black" xml:space="preserve" style="white-space: pre" font-family="Inter" font-size="11" letter-spacing="0em"><tspan x="44" y="23.5">ChooseCreateLobby</tspan></text>
</svg>
