<svg width="2000" height="1160" viewBox="0 0 2000 1160" fill="none" xmlns="http://www.w3.org/2000/svg">
<rect width="1920" height="1080" transform="translate(40 40)" fill="#EBCD94"/>
<rect x="74" y="67.1294" width="1849.15" height="1031.17" transform="rotate(-0.158935 74 67.1294)" fill="#7B5E27"/>
<mask id="path-2-inside-1_3_34" fill="white">
<rect width="698.415" height="771.676" rx="2" transform="matrix(0.946249 0.323439 -0.460201 0.887815 1225.13 124)"/>
</mask>
<rect width="698.415" height="771.676" rx="2" transform="matrix(0.946249 0.323439 -0.460201 0.887815 1225.13 124)" fill="#1880BB" stroke="black" stroke-width="12" mask="url(#path-2-inside-1_3_34)"/>
<path d="M1502 508L1594 536" stroke="#811D1D" stroke-width="3" stroke-linecap="round"/>
<path d="M1196 448L1177 441" stroke="white"/>
<path d="M1196 448L1177 441" stroke="white"/>
<path d="M1294 482.5L1213 454" stroke="white"/>
<path d="M1294 482.5L1213 454" stroke="white"/>
<text transform="matrix(0.949147 0.314832 -0.449368 0.893347 1268.58 105)" fill="white" xml:space="preserve" style="white-space: pre" font-family="Another Typewriter" font-size="66" letter-spacing="0.02em"><tspan x="92.8762" y="157.618">CREATE LOBBY</tspan></text>
<path d="M1230.44 337.23L1012.44 757.23" stroke="white"/>
<path d="M1230.44 337.23L1012.44 757.23" stroke="white"/>
<path d="M1686 491L1468 913" stroke="white"/>
<path d="M1686 491L1468 913" stroke="white"/>
<path d="M1385 804L1156 726" stroke="white"/>
<path d="M1385 804L1156 726" stroke="white"/>
<path d="M1210 645L1091 605" stroke="white"/>
<path d="M1210 645L1091 605" stroke="white"/>
<path d="M1614 632L1495 592" stroke="white"/>
<path d="M1614 632L1495 592" stroke="white"/>
<path d="M1661 540L1620 526" stroke="white"/>
<path d="M1661 540L1620 526" stroke="white"/>
<path d="M1509 658L1488.5 651L1468 644" stroke="white"/>
<path d="M1509 658L1488.5 651L1468 644" stroke="white"/>
<path d="M1586 684L1565.5 677L1545 670" stroke="white"/>
<path d="M1586 684L1565.5 677L1545 670" stroke="white"/>
<path d="M1278 416L1259 409" stroke="white"/>
<path d="M1278 416L1259 409" stroke="white"/>
<path d="M1320 431L1295 422" stroke="white"/>
<path d="M1320 431L1295 422" stroke="white"/>
<path d="M1113 679L1062 662" stroke="white"/>
<path d="M1113 679L1062 662" stroke="white"/>
<path d="M1337 726L1286 709" stroke="white"/>
<path d="M1337 726L1286 709" stroke="white"/>
<path d="M1210 712L1148 691" stroke="white"/>
<path d="M1210 712L1148 691" stroke="white"/>
<path d="M1420 599L1379 585" stroke="white"/>
<path d="M1420 599L1379 585" stroke="white"/>
<path d="M1250 568L1131 528" stroke="white"/>
<path d="M1250 568L1131 528" stroke="white"/>
<path d="M1476 775L1374 739" stroke="white"/>
<path d="M1476 775L1374 739" stroke="white"/>
<path d="M1331 543L1154 483" stroke="white"/>
<path d="M1331 543L1154 483" stroke="white"/>
<path d="M1594 498L1331 410" stroke="white"/>
<path d="M1594 498L1331 410" stroke="white"/>
<path d="M1418 694L1311 655" stroke="white"/>
<path d="M1418 694L1311 655" stroke="white"/>
<path d="M1557 741L1448 705" stroke="white"/>
<path d="M1557 741L1448 705" stroke="white"/>
<path d="M1565 553L1522 538" stroke="white"/>
<path d="M1565 553L1522 538" stroke="white"/>
<path d="M1687 491L1568 451" stroke="white"/>
<path d="M1687 491L1568 451" stroke="white"/>
<path d="M1348 377L1229 337" stroke="white"/>
<path d="M1348 377L1229 337" stroke="white"/>
<path d="M1348 377L1294 483" stroke="white"/>
<path d="M1348 377L1294 483" stroke="white"/>
<path d="M1312 655L1259 761" stroke="white"/>
<path d="M1312 655L1259 761" stroke="white"/>
<path d="M1332 542L1279 647" stroke="white"/>
<path d="M1332 542L1279 647" stroke="white"/>
<path d="M1209 712L1195 740" stroke="white"/>
<path d="M1209 712L1195 740" stroke="white"/>
<path d="M1573 538L1565 554" stroke="white"/>
<path d="M1573 538L1565 554" stroke="white"/>
<path d="M1611 465L1603 481" stroke="white"/>
<path d="M1611 465L1603 481" stroke="white"/>
<path d="M1223 618L1209 646" stroke="white"/>
<path d="M1223 618L1209 646" stroke="white"/>
<path d="M1250 567L1236 595" stroke="white"/>
<path d="M1250 567L1236 595" stroke="white"/>
<path d="M1502 723L1475 775" stroke="white"/>
<path d="M1502 723L1475 775" stroke="white"/>
<path d="M1568 450L1549.92 483.954" stroke="white"/>
<path d="M1568 450L1549.92 483.954" stroke="white"/>
<path d="M1259 408L1232 461" stroke="white"/>
<path d="M1259 408L1232 461" stroke="white"/>
<path d="M1255 699L1228 751" stroke="white"/>
<path d="M1255 699L1228 751" stroke="white"/>
<path d="M1597 491L1581 524" stroke="white"/>
<path d="M1597 491L1581 524" stroke="white"/>
<path d="M1522 538L1468 645" stroke="white"/>
<path d="M1522 538L1468 645" stroke="white"/>
<path d="M1468 455L1399 592" stroke="white"/>
<path d="M1468 455L1399 592" stroke="white"/>
<path d="M1121 794L1012 757" stroke="white"/>
<path d="M1121 794L1012 757" stroke="white"/>
<path d="M1468 913L1350 872" stroke="white"/>
<path d="M1468 913L1350 872" stroke="white"/>
<path d="M1230.44 337.23L1012.44 757.23" stroke="white"/>
<path d="M1230.44 337.23L1012.44 757.23" stroke="white"/>
<path d="M1156 726L1121 794" stroke="white"/>
<path d="M1156 726L1121 794" stroke="white"/>
<path d="M1385 804L1350 872" stroke="white"/>
<path d="M1385 804L1350 872" stroke="white"/>
<path d="M1250 667L1213 742.612" stroke="#851F1F" stroke-width="3" stroke-linecap="round"/>
<path d="M1317 606L1279 677" stroke="#811D1D" stroke-width="3" stroke-linecap="round"/>
<path d="M1250 666L1279 677" stroke="#811D1D" stroke-width="3" stroke-linecap="round"/>
<path d="M1317 606L1432 647" stroke="#811D1D" stroke-width="3" stroke-linecap="round"/>
<path d="M1617 491L1594 536" stroke="#811D1D" stroke-width="3" stroke-linecap="round"/>
<path d="M1617 491L1580 477" stroke="#811D1D" stroke-width="3" stroke-linecap="round"/>
<path d="M1576 464L1581 487" stroke="#811D1D" stroke-width="3" stroke-linecap="round"/>
<path d="M1588 470L1568 482" stroke="#811D1D" stroke-width="3" stroke-linecap="round"/>
<path d="M1502 508L1431.5 647" stroke="#811D1D" stroke-width="3" stroke-linecap="round"/>
<path d="M1216.95 733.223L1221.03 748.084L1204.64 742.501L1216.95 733.223Z" fill="#811D1D"/>
<rect x="1698.77" y="890.217" width="118.191" height="18.8317" transform="rotate(18.5991 1698.77 890.217)" fill="#F5BC4D" stroke="black" stroke-width="0.8"/>
<rect x="1708.83" y="912.16" width="13.0981" height="32.3556" transform="rotate(18.5991 1708.83 912.16)" fill="#F5BC4D" stroke="black" stroke-width="0.8"/>
<rect x="1740.81" y="922.796" width="10.8621" height="18.8317" transform="rotate(18.5991 1740.81 922.796)" fill="#F5BC4D" stroke="black" stroke-width="0.8"/>
<rect x="1813.23" y="906.886" width="63.4087" height="60.5302" transform="rotate(18.5991 1813.23 906.886)" fill="#F5BC4D" stroke="black" stroke-width="0.8"/>
<rect x="1810.09" y="928.729" width="16.8409" height="20.6557" transform="rotate(108.599 1810.09 928.729)" fill="#F5BC4D"/>
<rect x="1753.29" y="916.537" width="16.8409" height="8.83067" transform="rotate(108.599 1753.29 916.537)" fill="#F5BC4D"/>
<rect x="1724.33" y="904.048" width="16.8409" height="11.1194" transform="rotate(108.599 1724.33 904.048)" fill="#F5BC4D"/>
<rect x="1825.15" y="927.545" width="28.7503" height="28.9746" transform="rotate(18.5991 1825.15 927.545)" fill="#7B5E27" stroke="black" stroke-width="0.8"/>
<rect x="345.729" y="978.386" width="118.191" height="18.8317" transform="rotate(-132.651 345.729 978.386)" fill="#F5BC4D" stroke="black" stroke-width="0.8"/>
<rect x="347.465" y="954.31" width="13.0981" height="32.3556" transform="rotate(-132.651 347.465 954.31)" fill="#F5BC4D" stroke="black" stroke-width="0.8"/>
<rect x="324.537" y="929.6" width="10.8621" height="18.8317" transform="rotate(-132.651 324.537 929.6)" fill="#F5BC4D" stroke="black" stroke-width="0.8"/>
<rect x="253.396" y="908.718" width="63.4087" height="60.5302" transform="rotate(-132.651 253.396 908.718)" fill="#F5BC4D" stroke="black" stroke-width="0.8"/>
<rect x="266.654" y="891.077" width="16.8409" height="20.6557" transform="rotate(-42.651 266.654 891.077)" fill="#F5BC4D"/>
<rect x="310.584" y="929.085" width="16.8409" height="8.83067" transform="rotate(-42.651 310.584 929.085)" fill="#F5BC4D"/>
<rect x="329.973" y="953.967" width="16.8409" height="11.1194" transform="rotate(-42.651 329.973 953.967)" fill="#F5BC4D"/>
<rect x="252.88" y="884.872" width="28.7503" height="28.9746" transform="rotate(-132.651 252.88 884.872)" fill="#7B5E27" stroke="black" stroke-width="0.8"/>
<rect x="861.798" y="358.246" width="118.191" height="18.8317" transform="rotate(-51.036 861.798 358.246)" fill="#F5BC4D" stroke="black" stroke-width="0.8"/>
<rect x="885.87" y="356.452" width="13.0981" height="32.3556" transform="rotate(-51.036 885.87 356.452)" fill="#F5BC4D" stroke="black" stroke-width="0.8"/>
<rect x="906.972" y="330.166" width="10.8621" height="18.8317" transform="rotate(-51.036 906.972 330.166)" fill="#F5BC4D" stroke="black" stroke-width="0.8"/>
<rect x="917.257" y="256.74" width="63.4087" height="60.5302" transform="rotate(-51.036 917.257 256.74)" fill="#F5BC4D" stroke="black" stroke-width="0.8"/>
<rect x="936.643" y="267.284" width="16.8409" height="20.6557" transform="rotate(38.964 936.643 267.284)" fill="#F5BC4D"/>
<rect x="905.447" y="316.288" width="16.8409" height="8.83067" transform="rotate(38.964 905.447 316.288)" fill="#F5BC4D"/>
<rect x="883.659" y="339.097" width="16.8409" height="11.1194" transform="rotate(38.964 883.659 339.097)" fill="#F5BC4D"/>
<rect x="940.773" y="252.753" width="28.7503" height="28.9746" transform="rotate(-51.036 940.773 252.753)" fill="#7B5E27" stroke="black" stroke-width="0.8"/>
<mask id="path-84-inside-2_3_34" fill="white">
<path fill-rule="evenodd" clip-rule="evenodd" d="M671.093 774.794L660.728 768.363L550.828 957.574C549.661 958.055 548.82 958.751 548.357 959.671C545.398 965.564 559.119 978.435 579.003 988.418C598.887 998.401 617.405 1001.72 620.364 995.823C620.622 995.308 620.754 994.741 620.765 994.126L705.662 791.58L682.445 781.719L671.093 774.794Z"/>
</mask>
<path fill-rule="evenodd" clip-rule="evenodd" d="M671.093 774.794L660.728 768.363L550.828 957.574C549.661 958.055 548.82 958.751 548.357 959.671C545.398 965.564 559.119 978.435 579.003 988.418C598.887 998.401 617.405 1001.72 620.364 995.823C620.622 995.308 620.754 994.741 620.765 994.126L705.662 791.58L682.445 781.719L671.093 774.794Z" fill="#323232"/>
<path d="M660.728 768.363L661.255 767.513L660.38 766.97L659.863 767.86L660.728 768.363ZM671.093 774.794L670.566 775.644L670.572 775.648L671.093 774.794ZM550.828 957.574L551.209 958.498L551.523 958.369L551.693 958.076L550.828 957.574ZM548.357 959.671L549.251 960.12H549.251L548.357 959.671ZM579.003 988.418L579.452 987.524L579.003 988.418ZM620.364 995.823L621.258 996.272H621.258L620.364 995.823ZM620.765 994.126L619.842 993.739L619.768 993.916L619.765 994.108L620.765 994.126ZM705.662 791.58L706.584 791.966L706.969 791.048L706.053 790.659L705.662 791.58ZM682.445 781.719L681.924 782.573L681.986 782.611L682.054 782.64L682.445 781.719ZM660.2 769.212L670.566 775.644L671.62 773.944L661.255 767.513L660.2 769.212ZM551.693 958.076L661.592 768.865L659.863 767.86L549.964 957.072L551.693 958.076ZM549.251 960.12C549.577 959.471 550.198 958.915 551.209 958.498L550.447 956.649C549.124 957.194 548.062 958.03 547.464 959.222L549.251 960.12ZM579.452 987.524C569.571 982.564 561.256 976.901 555.798 971.782C553.064 969.217 551.091 966.829 549.982 964.771C548.856 962.683 548.731 961.155 549.251 960.12L547.464 959.222C546.504 961.134 546.985 963.425 548.221 965.72C549.474 968.044 551.618 970.603 554.43 973.24C560.064 978.525 568.551 984.29 578.554 989.312L579.452 987.524ZM619.47 995.374C618.951 996.41 617.651 997.222 615.304 997.567C612.991 997.907 609.896 997.751 606.207 997.09C598.841 995.771 589.333 992.485 579.452 987.524L578.554 989.312C588.558 994.334 598.251 997.697 605.854 999.059C609.649 999.738 612.982 999.93 615.595 999.546C618.173 999.167 620.298 998.184 621.258 996.272L619.47 995.374ZM619.765 994.108C619.756 994.588 619.655 995.007 619.47 995.374L621.258 996.272C621.59 995.61 621.751 994.893 621.764 994.144L619.765 994.108ZM704.739 791.193L619.842 993.739L621.687 994.512L706.584 791.966L704.739 791.193ZM682.054 782.64L705.271 792.5L706.053 790.659L682.836 780.799L682.054 782.64ZM670.572 775.648L681.924 782.573L682.965 780.866L671.614 773.94L670.572 775.648Z" fill="black" mask="url(#path-84-inside-2_3_34)"/>
<path d="M856.5 690C856.5 754.87 801.231 807.5 733 807.5C664.769 807.5 609.5 754.87 609.5 690C609.5 625.13 664.769 572.5 733 572.5C801.231 572.5 856.5 625.13 856.5 690Z" fill="#323232" stroke="black"/>
<path d="M831.5 690C831.5 741.612 787.203 783.5 732.5 783.5C677.797 783.5 633.5 741.612 633.5 690C633.5 638.388 677.797 596.5 732.5 596.5C787.203 596.5 831.5 638.388 831.5 690Z" fill="#CCCCCC" stroke="black"/>
<ellipse cx="760.5" cy="690" rx="54.5" ry="65" fill="#EDEDED"/>
<ellipse cx="739.5" cy="698" rx="62.5" ry="73" fill="#CCCCCC"/>
<rect x="360.5" y="178.5" width="1292" height="778.84" rx="28.5" fill="white" stroke="black" stroke-width="3"/>
<rect x="359" y="674.283" width="1295" height="149.185" fill="black"/>
<path d="M559.5 439.5H1440.5V553.5H559.5V439.5Z" fill="#CDCDCD" stroke="black" stroke-width="5"/>
<path d="M559.5 439.5H1440.5V553.5H559.5V439.5Z" fill="#CDCDCD" stroke="black" stroke-width="5"/>
<text transform="translate(872 690)" fill="white" xml:space="preserve" style="white-space: pre" font-family="Another Typewriter" font-size="68" letter-spacing="0.02em"><tspan x="51.6827" y="85.894">JOIN</tspan></text>
<text fill="black" xml:space="preserve" style="white-space: pre" font-family="Another Typewriter" font-size="71" letter-spacing="0.02em"><tspan x="792.405" y="351.08">ENTER CODE:</tspan></text>
<path d="M164.14 1010.03H307.917V1034.1H164.14V1010.03Z" fill="#93702D" stroke="#7B5E27" stroke-width="3"/>
<path d="M163.513 1051L113.398 1022.06L163.513 993.13L163.513 1051Z" fill="#93702D" stroke="#7B5E27" stroke-width="3"/>
<rect x="160.383" y="1011.56" width="14" height="21.0262" fill="#93702D"/>
<text fill="white" xml:space="preserve" style="white-space: pre" font-family="Another Typewriter" font-size="48" letter-spacing="0.02em"><tspan x="183.234" y="994.816">Back</tspan></text>
<rect x="40" y="8" width="101.68" height="26" rx="2" fill="#EBCD94"/>
<rect x="40.5" y="8.5" width="100.68" height="25" rx="1.5" stroke="black" stroke-opacity="0.14902"/>
<text fill="black" xml:space="preserve" style="white-space: pre" font-family="Inter" font-size="11" letter-spacing="0em"><tspan x="44" y="23.5">ChooseJoinLobby</tspan></text>
</svg>
