<svg width="407" height="165" viewBox="0 0 407 165" fill="none" xmlns="http://www.w3.org/2000/svg">
<rect x="2.08708" y="-2.08708" width="266.348" height="44.3012" transform="matrix(-1 0 0 1 403.151 51.083)" fill="#F5BC4D" stroke="black" stroke-width="4.17417"/>
<rect x="2.08708" y="-2.08708" width="31.64" height="74.3964" transform="matrix(-1 0 0 1 366.23 90.2246)" fill="#F5BC4D" stroke="black" stroke-width="4.17417"/>
<rect x="2.08708" y="-2.08708" width="26.6462" height="44.3012" transform="matrix(-1 0 0 1 290.948 89.9546)" fill="#F5BC4D" stroke="black" stroke-width="4.17417"/>
<rect x="2.08708" y="-2.08708" width="144" height="137.095" transform="matrix(-1 0 0 1 149 5)" fill="#F5BC4D" stroke="black" stroke-width="4.17417"/>
<rect width="37.4769" height="46.1312" transform="matrix(0 1 1 0 136.803 52.4077)" fill="#F5BC4D"/>
<rect width="37.4769" height="19.7218" transform="matrix(0 1 1 0 265.71 67.0037)" fill="#F5BC4D"/>
<rect width="37.4769" height="24.8334" transform="matrix(0 1 1 0 335.918 61.2241)" fill="#F5BC4D"/>
<rect x="2.08708" y="-2.08708" width="66.5965" height="66.8726" transform="matrix(-1 0 0 1 109.05 40.1113)" fill="#8B444E" stroke="black" stroke-width="4.17417"/>
<path d="M155.813 80.7566C156.511 81.936 157.462 82.7878 158.663 83.312C159.864 83.8362 161.12 84.0983 162.43 84.0983C163.304 84.0983 164.134 83.858 164.92 83.3775C165.707 82.897 166.405 82.2964 167.017 81.5756C167.629 80.833 168.109 80.0249 168.459 79.1513C168.83 78.2558 169.015 77.404 169.015 76.5958C169.015 76.3774 169.005 76.1481 168.983 75.9078C168.983 75.6676 168.939 75.4492 168.852 75.2526C168.764 75.056 168.633 74.9032 168.459 74.7939C168.306 74.6629 168.087 74.5974 167.803 74.5974C167.345 74.5974 166.984 74.8158 166.722 75.2526C166.504 75.8642 166.264 76.5085 166.001 77.1856C165.761 77.8408 165.455 78.4523 165.084 79.0202C164.713 79.5662 164.254 80.0249 163.708 80.3962C163.162 80.7457 162.496 80.9204 161.71 80.9204C161.622 80.9204 161.491 80.9204 161.316 80.9204C161.164 80.8986 161.076 80.8876 161.054 80.8876C160.334 80.7129 159.722 80.418 159.22 80.0031C158.739 79.5662 158.346 79.0748 158.04 78.5288C157.735 77.9609 157.494 77.3494 157.32 76.6941C157.167 76.0389 157.047 75.3837 156.959 74.7284C156.937 74.6847 156.915 74.5755 156.894 74.4008C156.872 74.2261 156.85 74.1169 156.828 74.0732V69.978C156.828 69.3883 156.905 68.7985 157.057 68.2088C157.21 67.5973 157.429 67.0185 157.713 66.4725C157.997 65.9046 158.335 65.3804 158.728 64.8999C159.121 64.4194 159.558 64.0153 160.039 63.6877C160.082 63.6659 160.126 63.644 160.17 63.6222C160.235 63.5785 160.279 63.5567 160.301 63.5567H162.463C162.485 63.5567 162.54 63.5785 162.627 63.6222C162.736 63.644 162.813 63.6659 162.856 63.6877C163.315 63.9061 163.697 64.1245 164.003 64.3429C164.309 64.5614 164.56 64.8125 164.756 65.0965C164.975 65.3586 165.15 65.6643 165.281 66.0138C165.412 66.3633 165.543 66.7892 165.674 67.2915C165.739 67.4881 165.783 67.772 165.805 68.1433C165.849 68.4928 165.914 68.8422 166.001 69.1917C166.111 69.5411 166.264 69.8469 166.46 70.109C166.657 70.3711 166.93 70.5022 167.279 70.5022C167.476 70.5022 167.661 70.4257 167.836 70.2728C168.033 70.1199 168.196 69.9343 168.327 69.7159C168.459 69.4975 168.557 69.2791 168.622 69.0606C168.71 68.8204 168.753 68.6129 168.753 68.4382V64.474C168.753 64.4085 168.732 64.2774 168.688 64.0809C168.666 63.8843 168.644 63.7532 168.622 63.6877V63.6222C168.622 63.3819 168.644 63.1526 168.688 62.9342C168.753 62.6939 168.786 62.4537 168.786 62.2134C168.786 61.995 168.764 61.7766 168.721 61.5582C168.699 61.3179 168.633 61.0995 168.524 60.903C168.437 60.7064 168.306 60.5426 168.131 60.4115C167.956 60.2805 167.738 60.215 167.476 60.215C167.214 60.215 166.995 60.2914 166.82 60.4443C166.646 60.5972 166.493 60.761 166.362 60.9357C166.253 61.1105 166.143 61.2743 166.034 61.4272C165.925 61.58 165.805 61.6565 165.674 61.6565H165.543C164.778 61.2197 164.079 60.8702 163.446 60.6081C162.813 60.346 162.081 60.215 161.251 60.215C161.033 60.215 160.792 60.215 160.53 60.215C160.268 60.1931 160.017 60.2368 159.777 60.346C159.689 60.3897 159.547 60.4661 159.351 60.5753C159.154 60.6627 158.947 60.761 158.728 60.8702C158.532 60.9794 158.335 61.0886 158.139 61.1978C157.942 61.2852 157.8 61.3507 157.713 61.3944C157.56 61.5254 157.363 61.7329 157.123 62.0169C156.883 62.279 156.642 62.5629 156.402 62.8687C156.162 63.1744 155.944 63.4802 155.747 63.786C155.572 64.0699 155.463 64.2993 155.419 64.474L154.011 69.0934C153.989 69.3555 153.956 69.6504 153.912 69.978C153.869 70.3056 153.814 70.6114 153.749 70.8953V74.3353C153.901 74.9032 153.989 75.4601 154.011 76.0061C154.032 76.5522 154.163 77.1091 154.404 77.677C154.447 77.808 154.535 78.0155 154.666 78.2995C154.797 78.5834 154.928 78.8892 155.059 79.2168C155.212 79.5444 155.354 79.8611 155.485 80.1669C155.638 80.4508 155.747 80.6474 155.813 80.7566ZM170.63 82.1326C170.63 82.6786 170.838 83.1264 171.253 83.4758C171.689 83.8253 172.17 84 172.694 84H176.429C176.647 83.9345 176.811 83.9017 176.92 83.9017C177.051 83.8799 177.204 83.869 177.379 83.869C177.75 83.869 178.111 83.8908 178.46 83.9345C178.831 83.9782 179.203 84 179.574 84C179.902 84 180.251 83.9891 180.622 83.9672C180.994 83.9236 181.332 83.8471 181.638 83.7379C181.966 83.6069 182.228 83.4212 182.424 83.181C182.621 82.9189 182.719 82.5694 182.719 82.1326C182.719 81.6084 182.512 81.2153 182.097 80.9532C181.682 80.6692 181.223 80.5273 180.721 80.5273C180.48 80.5273 180.229 80.5491 179.967 80.5928C179.727 80.6365 179.487 80.6583 179.246 80.6583C179.006 80.6583 178.799 80.6365 178.624 80.5928C178.449 80.5491 178.318 80.4071 178.231 80.1669C178.231 80.0795 178.22 79.9375 178.198 79.741C178.198 79.5444 178.187 79.3369 178.165 79.1185C178.165 78.9001 178.154 78.6926 178.132 78.496C178.111 78.2995 178.1 78.1684 178.1 78.1029C178.1 78.0592 178.078 77.95 178.034 77.7753C178.012 77.6005 177.991 77.4913 177.969 77.4477V73.7456C177.969 73.6364 178.023 73.4726 178.132 73.2541C178.242 73.0139 178.373 72.7736 178.526 72.5334C178.679 72.2931 178.831 72.0747 178.984 71.8782C179.159 71.6597 179.29 71.5069 179.377 71.4195C179.443 71.354 179.574 71.2229 179.771 71.0263C179.967 70.8298 180.175 70.6223 180.393 70.4039C180.611 70.1855 180.819 69.978 181.016 69.7814C181.212 69.5848 181.354 69.4538 181.441 69.3883C181.529 69.3009 181.616 69.2572 181.704 69.2572C181.813 69.2354 181.922 69.2244 182.031 69.2244C182.075 69.2244 182.151 69.2244 182.26 69.2244C182.37 69.2244 182.435 69.2791 182.457 69.3883C182.479 69.694 182.512 70.0653 182.555 70.5022C182.621 70.9171 182.73 71.3212 182.883 71.7143C183.036 72.1075 183.243 72.446 183.505 72.73C183.767 72.9921 184.117 73.1231 184.554 73.1231C185.471 73.1231 186.115 72.8392 186.487 72.2713C186.88 71.7034 187.076 71.0154 187.076 70.2073C187.076 69.6394 186.956 69.1262 186.716 68.6675C186.498 68.187 186.203 67.7829 185.831 67.4553C185.46 67.1277 185.012 66.8765 184.488 66.7018C183.986 66.5052 183.462 66.4069 182.916 66.4069C182.02 66.4069 181.179 66.6363 180.393 67.0949C179.629 67.5536 178.908 68.0559 178.231 68.602H178.165C178.078 68.602 177.991 68.5474 177.903 68.4382C177.838 68.329 177.772 68.1979 177.707 68.045C177.663 67.8921 177.619 67.7502 177.576 67.6191C177.532 67.4662 177.488 67.368 177.444 67.3243C177.204 66.9967 176.855 66.7782 176.396 66.669C175.937 66.538 175.446 66.4615 174.922 66.4397C174.398 66.4179 173.873 66.4288 173.349 66.4725C172.847 66.4943 172.421 66.4834 172.072 66.4397C172.072 66.4179 172.039 66.4069 171.973 66.4069C171.93 66.4069 171.897 66.4069 171.875 66.4069C171.416 66.4069 171.056 66.5707 170.794 66.8984C170.532 67.2041 170.401 67.5754 170.401 68.0123C170.401 68.4491 170.543 68.8204 170.827 69.1262C171.132 69.4101 171.504 69.5739 171.941 69.6176C172.05 69.6176 172.235 69.6285 172.497 69.6504C172.76 69.6722 173.043 69.694 173.349 69.7159C173.655 69.7159 173.939 69.7268 174.201 69.7486C174.463 69.7486 174.649 69.7486 174.758 69.7486L175.02 70.0107L175.217 73.8766V74.4991L175.282 77.7097C175.26 77.7534 175.228 77.8626 175.184 78.0374C175.162 78.2121 175.151 78.3213 175.151 78.365C175.151 78.4523 175.14 78.6052 175.118 78.8236C175.097 79.0202 175.075 79.2386 175.053 79.4789C175.053 79.6973 175.042 79.9048 175.02 80.1014C175.02 80.2979 175.02 80.4399 175.02 80.5273L174.889 80.6583C174.867 80.6583 174.769 80.6692 174.594 80.6911C174.441 80.6911 174.321 80.6911 174.234 80.6911C173.906 80.6911 173.59 80.6692 173.284 80.6255C173 80.56 172.705 80.5273 172.399 80.5273C171.897 80.5273 171.471 80.6692 171.121 80.9532C170.794 81.2371 170.63 81.6302 170.63 82.1326ZM188.461 75.9406C188.461 77.0108 188.624 78.0374 188.952 79.0202C189.28 79.9812 189.749 80.833 190.361 81.5756C190.972 82.3182 191.726 82.9079 192.621 83.3448C193.517 83.7816 194.522 84 195.635 84C196.771 84 197.874 83.7925 198.944 83.3775C200.015 82.9625 200.877 82.2745 201.533 81.3135C201.795 80.9204 202.035 80.5273 202.253 80.1341C202.472 79.7191 202.581 79.2605 202.581 78.7581C202.581 78.4523 202.472 78.2012 202.253 78.0046C202.057 77.808 201.795 77.7097 201.467 77.7097C201.118 77.7097 200.823 77.7971 200.582 77.9718C200.342 78.1466 200.113 78.365 199.894 78.6271C199.698 78.8892 199.501 79.1622 199.305 79.4461C199.13 79.7301 198.933 79.9703 198.715 80.1669C198.431 80.4071 198.093 80.5819 197.699 80.6911C197.306 80.7784 196.957 80.9422 196.651 81.1825C196.586 81.1825 196.433 81.1934 196.192 81.2153C195.974 81.2153 195.832 81.2153 195.766 81.2153C195.111 81.2153 194.511 81.0951 193.965 80.8549C193.419 80.5928 192.938 80.2542 192.523 79.8393C192.13 79.4024 191.813 78.9001 191.573 78.3322C191.355 77.7643 191.245 77.1637 191.245 76.5303C191.245 76.4866 191.245 76.3993 191.245 76.2682C191.267 76.1372 191.278 76.0607 191.278 76.0389L191.409 75.9406C191.409 75.9406 191.529 75.9297 191.77 75.9078C192.01 75.886 192.294 75.8751 192.621 75.8751C192.949 75.8532 193.277 75.8423 193.604 75.8423C193.954 75.8205 194.249 75.8096 194.489 75.8096C194.729 75.8096 195.155 75.8096 195.766 75.8096C196.4 75.7877 197.055 75.7768 197.732 75.7768C198.431 75.7768 199.086 75.7877 199.698 75.8096C200.331 75.8096 200.768 75.8096 201.008 75.8096C201.358 75.744 201.696 75.6567 202.024 75.5475C202.352 75.4383 202.614 75.2199 202.81 74.8922C202.81 74.8486 202.81 74.7612 202.81 74.6301C202.832 74.4773 202.843 74.379 202.843 74.3353C202.843 74.1387 202.799 73.8439 202.712 73.4507C202.625 73.0357 202.515 72.6208 202.384 72.2058C202.275 71.7689 202.144 71.3758 201.991 71.0263C201.86 70.655 201.751 70.4039 201.664 70.2728C200.834 69.2245 199.938 68.3726 198.977 67.7174C198.016 67.0403 196.837 66.7018 195.439 66.7018C195.199 66.7018 194.947 66.7018 194.685 66.7018C194.445 66.68 194.205 66.7236 193.965 66.8328C193.899 66.8547 193.779 66.9093 193.604 66.9967C193.451 67.0622 193.277 67.1495 193.08 67.2587C192.883 67.3461 192.698 67.4335 192.523 67.5208C192.348 67.6082 192.228 67.6737 192.163 67.7174C191.442 68.1106 190.841 68.6238 190.361 69.2572C189.902 69.8688 189.531 70.5458 189.247 71.2884C188.963 72.0092 188.755 72.7736 188.624 73.5818C188.515 74.3899 188.461 75.1762 188.461 75.9406ZM191.54 72.9265C191.54 72.3805 191.671 71.9109 191.933 71.5178C192.195 71.1028 192.523 70.7643 192.916 70.5022C193.309 70.2401 193.746 70.0544 194.227 69.9452C194.707 69.8142 195.177 69.7486 195.635 69.7486C196.05 69.7486 196.487 69.8032 196.946 69.9124C197.426 69.9998 197.863 70.1527 198.256 70.3711C198.65 70.5677 198.977 70.8516 199.239 71.2229C199.501 71.5724 199.632 72.0092 199.632 72.5334C199.632 72.5771 199.632 72.6535 199.632 72.7627C199.632 72.8719 199.621 72.9484 199.6 72.9921C199.556 73.0357 199.49 73.0903 199.403 73.1559C199.338 73.1995 199.283 73.2214 199.239 73.2214H191.671C191.584 73.2214 191.54 73.1886 191.54 73.1231C191.54 73.0357 191.54 72.9702 191.54 72.9265ZM204.185 78.7254C204.185 79.7519 204.382 80.6583 204.775 81.4446C205.19 82.209 205.845 82.8533 206.74 83.3775C206.915 83.4867 207.09 83.6069 207.265 83.7379C207.439 83.8471 207.647 83.9017 207.887 83.9017H210.836C211.207 83.9017 211.567 83.8362 211.917 83.7051C212.266 83.5523 212.605 83.3775 212.932 83.181C213.26 82.9625 213.577 82.7441 213.882 82.5257C214.21 82.3073 214.527 82.1217 214.833 81.9688H214.996C215.149 81.9688 215.28 82.0234 215.389 82.1326C215.521 82.2418 215.63 82.3728 215.717 82.5257C215.826 82.6568 215.925 82.7987 216.012 82.9516C216.121 83.0827 216.241 83.181 216.372 83.2465C216.744 83.4867 217.082 83.6615 217.388 83.7707C217.694 83.858 218.054 83.9017 218.469 83.9017C218.993 83.9017 219.452 83.7816 219.845 83.5413C220.26 83.3011 220.599 82.9953 220.861 82.624C221.145 82.2309 221.363 81.794 221.516 81.3135C221.669 80.833 221.745 80.3525 221.745 79.872C221.745 79.6536 221.723 79.4352 221.68 79.2168C221.636 78.9765 221.56 78.7581 221.45 78.5615C221.341 78.365 221.199 78.2012 221.025 78.0701C220.85 77.9391 220.642 77.8736 220.402 77.8736C219.943 77.8736 219.638 78.0264 219.485 78.3322C219.354 78.638 219.255 78.9875 219.19 79.3806C219.124 79.7519 219.048 80.0904 218.961 80.3962C218.873 80.702 218.655 80.8549 218.305 80.8549C217.781 80.8549 217.519 80.5491 217.519 79.9375V74.4008C217.628 74.1387 217.672 73.8439 217.65 73.5162C217.65 73.1668 217.65 72.861 217.65 72.5989V71.5833C217.65 71.5178 217.628 71.4086 217.585 71.2557C217.563 71.0809 217.53 70.9062 217.486 70.7315C217.443 70.5349 217.399 70.3493 217.355 70.1745C217.312 69.9998 217.279 69.8797 217.257 69.8142C217.191 69.5521 217.017 69.2354 216.733 68.8641C216.471 68.4928 216.154 68.1433 215.783 67.8157C215.433 67.4881 215.062 67.2041 214.669 66.9639C214.297 66.7236 213.97 66.6035 213.686 66.6035H208.673C208.324 66.6035 208.018 66.7127 207.756 66.9311C207.494 67.1277 207.243 67.3133 207.002 67.4881C206.719 67.6846 206.435 67.9031 206.151 68.1433C205.867 68.3617 205.616 68.602 205.397 68.8641C205.179 69.1262 205.004 69.4101 204.873 69.7159C204.742 70.0217 204.676 70.3711 204.676 70.7643C204.676 71.4413 204.895 72.0092 205.332 72.4679C205.79 72.9265 206.369 73.1559 207.068 73.1559C207.527 73.1559 207.887 73.0685 208.149 72.8938C208.433 72.6972 208.641 72.4679 208.772 72.2058C208.925 71.9218 209.034 71.6161 209.099 71.2884C209.165 70.9608 209.219 70.666 209.263 70.4039C209.329 70.1199 209.394 69.8906 209.46 69.7159C209.525 69.5193 209.645 69.421 209.82 69.421H212.9C212.921 69.421 213.063 69.4865 213.326 69.6176C213.588 69.7486 213.784 69.8469 213.915 69.9124C214.265 70.109 214.505 70.3711 214.636 70.6987C214.767 71.0263 214.833 71.3758 214.833 71.7471C214.833 72.2713 214.57 72.6208 214.046 72.7955C213.522 72.9702 212.867 73.0903 212.081 73.1559C211.294 73.2214 210.432 73.2978 209.492 73.3852C208.575 73.4507 207.723 73.6582 206.937 74.0077C206.151 74.3353 205.495 74.8704 204.971 75.613C204.447 76.3338 204.185 77.3712 204.185 78.7254ZM206.74 78.6926C206.74 78.4523 206.817 78.1684 206.97 77.8408C207.144 77.5132 207.286 77.2729 207.396 77.12C207.614 76.7924 207.865 76.6177 208.149 76.5958C208.695 76.5085 209.23 76.443 209.754 76.3993C210.301 76.3556 210.836 76.2901 211.36 76.2027C211.425 76.2027 211.6 76.1809 211.884 76.1372C212.19 76.0717 212.506 76.0171 212.834 75.9734C213.162 75.9078 213.467 75.8532 213.751 75.8096C214.057 75.744 214.243 75.7113 214.308 75.7113L214.374 75.6785C214.396 75.6785 214.407 75.6894 214.407 75.7113C214.428 75.7113 214.439 75.7113 214.439 75.7113C214.461 75.7113 214.505 75.7331 214.57 75.7768C214.636 75.7986 214.68 75.8096 214.702 75.8096V76.2027C214.702 77.1419 214.56 77.9063 214.276 78.496C213.992 79.0857 213.446 79.6536 212.638 80.1996C212.594 80.2215 212.485 80.2761 212.31 80.3634C212.157 80.4508 212.059 80.5163 212.015 80.56C211.928 80.6037 211.818 80.6583 211.687 80.7238C211.578 80.7893 211.513 80.8221 211.491 80.8221H208.149C207.931 80.8221 207.734 80.7457 207.559 80.5928C207.385 80.4399 207.232 80.2542 207.101 80.0358C206.992 79.7956 206.904 79.5553 206.839 79.3151C206.773 79.0748 206.74 78.8673 206.74 78.6926ZM227.99 77.3166C227.99 78.4087 228.121 79.3697 228.383 80.1996C228.667 81.0296 229.257 81.794 230.152 82.493C230.174 82.5148 230.24 82.5476 230.349 82.5912C230.458 82.6349 230.567 82.6895 230.677 82.7551C230.786 82.7987 230.895 82.8533 231.004 82.9189C231.114 82.9625 231.179 82.9844 231.201 82.9844C231.441 83.1591 231.627 83.3011 231.758 83.4103C231.911 83.4977 232.053 83.5741 232.184 83.6396C232.337 83.6833 232.5 83.7161 232.675 83.7379C232.85 83.7597 233.101 83.7707 233.429 83.7707C234.259 83.7707 234.99 83.5741 235.624 83.181C236.257 82.766 236.781 82.2527 237.196 81.6412C237.633 81.0078 237.961 80.3088 238.179 79.5444C238.398 78.78 238.507 78.0264 238.507 77.2838C238.507 76.8252 238.398 76.3993 238.179 76.0061C237.961 75.613 237.578 75.4164 237.032 75.4164C236.661 75.4164 236.377 75.5475 236.181 75.8096C235.984 76.0498 235.831 76.3556 235.722 76.7269C235.613 77.0982 235.504 77.5023 235.394 77.9391C235.307 78.3541 235.176 78.7472 235.001 79.1185C234.848 79.4898 234.619 79.8065 234.313 80.0686C234.007 80.3088 233.592 80.429 233.068 80.429C232.872 80.429 232.664 80.3634 232.446 80.2324C232.227 80.0795 232.02 79.9048 231.823 79.7082C231.649 79.5116 231.496 79.3041 231.365 79.0857C231.255 78.8673 231.201 78.6708 231.201 78.496V69.3883L231.594 69.0279C231.616 69.006 231.747 68.9951 231.987 68.9951C232.249 68.9733 232.446 68.9624 232.577 68.9624C233.21 68.9624 233.756 69.0388 234.215 69.1917C234.695 69.3227 235.209 69.3883 235.755 69.3883C236.192 69.3883 236.541 69.2354 236.803 68.9296C237.087 68.602 237.229 68.2198 237.229 67.7829C237.229 67.3243 237.065 66.8984 236.738 66.5052C236.41 66.1121 235.995 65.9155 235.493 65.9155C235.056 65.9155 234.619 65.9483 234.182 66.0138C233.767 66.0575 233.33 66.0793 232.872 66.0793C232.697 66.0793 232.457 66.0793 232.151 66.0793C231.867 66.0793 231.714 66.0684 231.692 66.0466L231.463 65.8172C231.441 65.7954 231.43 65.6534 231.43 65.3913C231.43 65.1292 231.43 64.9327 231.43 64.8016C231.43 64.2774 231.452 63.7751 231.496 63.2946C231.561 62.8141 231.594 62.3226 231.594 61.8203C231.594 61.2961 231.518 60.8484 231.365 60.4771C231.234 60.0839 230.851 59.8874 230.218 59.8874C229.585 59.8874 229.17 60.0839 228.973 60.4771C228.777 60.8484 228.656 61.307 228.613 61.8531C228.591 62.3772 228.58 62.9124 228.58 63.4584C228.58 64.0044 228.471 64.4412 228.252 64.7689C228.012 65.1183 227.717 65.3367 227.368 65.4241C227.04 65.4896 226.68 65.5224 226.287 65.5224C225.915 65.5224 225.544 65.5333 225.173 65.5551C224.823 65.577 224.517 65.6971 224.255 65.9155C223.993 66.1558 223.731 66.4069 223.469 66.669C223.229 66.9311 223.109 67.2587 223.109 67.6519C223.109 67.914 223.196 68.1979 223.371 68.5037C223.567 68.8095 223.819 68.9624 224.124 68.9624H228.252V72.5989C227.99 73.3197 227.881 74.095 227.925 74.925C227.968 75.755 227.99 76.5522 227.99 77.3166ZM239.889 75.9406C239.889 77.0108 240.053 78.0374 240.38 79.0202C240.708 79.9812 241.178 80.833 241.789 81.5756C242.401 82.3182 243.154 82.9079 244.05 83.3448C244.945 83.7816 245.95 84 247.064 84C248.199 84 249.302 83.7925 250.373 83.3775C251.443 82.9625 252.306 82.2745 252.961 81.3135C253.223 80.9204 253.463 80.5273 253.682 80.1341C253.9 79.7191 254.009 79.2605 254.009 78.7581C254.009 78.4523 253.9 78.2012 253.682 78.0046C253.485 77.808 253.223 77.7097 252.895 77.7097C252.546 77.7097 252.251 77.7971 252.011 77.9718C251.77 78.1466 251.541 78.365 251.323 78.6271C251.126 78.8892 250.93 79.1622 250.733 79.4461C250.558 79.7301 250.362 79.9703 250.143 80.1669C249.859 80.4071 249.521 80.5819 249.128 80.6911C248.735 80.7784 248.385 80.9422 248.079 81.1825C248.014 81.1825 247.861 81.1934 247.621 81.2153C247.402 81.2153 247.26 81.2153 247.195 81.2153C246.54 81.2153 245.939 81.0951 245.393 80.8549C244.847 80.5928 244.366 80.2542 243.951 79.8393C243.558 79.4024 243.242 78.9001 243.001 78.3322C242.783 77.7643 242.674 77.1637 242.674 76.5303C242.674 76.4866 242.674 76.3993 242.674 76.2682C242.695 76.1372 242.706 76.0607 242.706 76.0389L242.837 75.9406C242.837 75.9406 242.958 75.9297 243.198 75.9078C243.438 75.886 243.722 75.8751 244.05 75.8751C244.377 75.8532 244.705 75.8423 245.032 75.8423C245.382 75.8205 245.677 75.8096 245.917 75.8096C246.157 75.8096 246.583 75.8096 247.195 75.8096C247.828 75.7877 248.483 75.7768 249.16 75.7768C249.859 75.7768 250.515 75.7877 251.126 75.8096C251.76 75.8096 252.196 75.8096 252.437 75.8096C252.786 75.744 253.125 75.6567 253.452 75.5475C253.78 75.4383 254.042 75.2199 254.239 74.8922C254.239 74.8486 254.239 74.7612 254.239 74.6301C254.26 74.4773 254.271 74.379 254.271 74.3353C254.271 74.1387 254.228 73.8439 254.14 73.4507C254.053 73.0357 253.944 72.6208 253.813 72.2058C253.703 71.7689 253.572 71.3758 253.419 71.0263C253.288 70.655 253.179 70.4039 253.092 70.2728C252.262 69.2245 251.366 68.3726 250.405 67.7174C249.444 67.0403 248.265 66.7018 246.867 66.7018C246.627 66.7018 246.376 66.7018 246.114 66.7018C245.873 66.68 245.633 66.7236 245.393 66.8328C245.327 66.8547 245.207 66.9093 245.032 66.9967C244.88 67.0622 244.705 67.1495 244.508 67.2587C244.312 67.3461 244.126 67.4335 243.951 67.5208C243.777 67.6082 243.656 67.6737 243.591 67.7174C242.87 68.1106 242.27 68.6238 241.789 69.2572C241.33 69.8688 240.959 70.5458 240.675 71.2884C240.391 72.0092 240.184 72.7736 240.053 73.5818C239.943 74.3899 239.889 75.1762 239.889 75.9406ZM242.968 72.9265C242.968 72.3805 243.1 71.9109 243.362 71.5178C243.624 71.1028 243.951 70.7643 244.344 70.5022C244.738 70.2401 245.174 70.0544 245.655 69.9452C246.135 69.8142 246.605 69.7486 247.064 69.7486C247.479 69.7486 247.916 69.8032 248.374 69.9124C248.855 69.9998 249.292 70.1527 249.685 70.3711C250.078 70.5677 250.405 70.8516 250.667 71.2229C250.93 71.5724 251.061 72.0092 251.061 72.5334C251.061 72.5771 251.061 72.6535 251.061 72.7627C251.061 72.8719 251.05 72.9484 251.028 72.9921C250.984 73.0357 250.919 73.0903 250.831 73.1559C250.766 73.1995 250.711 73.2214 250.667 73.2214H243.1C243.012 73.2214 242.968 73.1886 242.968 73.1231C242.968 73.0357 242.968 72.9702 242.968 72.9265Z" fill="white"/>
</svg>
