<svg width="902" height="994" viewBox="0 0 902 994" fill="none" xmlns="http://www.w3.org/2000/svg">
<rect x="1.59306" y="3.90931" width="617.292" height="781.981" transform="matrix(0.92359 0.38338 -0.392571 0.919722 319.388 19.8017)" fill="#1880BB" stroke="black" stroke-width="6"/>
<path d="M353.949 165.861C354.346 168.582 355.465 170.883 357.305 172.762C359.146 174.642 361.291 176.075 363.739 177.062C365.372 177.719 367.108 177.897 368.948 177.595C370.787 177.292 372.557 176.7 374.255 175.819C375.97 174.897 377.491 173.755 378.818 172.392C380.202 171.005 381.205 169.559 381.828 168.055C381.997 167.649 382.153 167.213 382.298 166.75C382.483 166.303 382.57 165.863 382.558 165.432C382.546 165 382.419 164.617 382.177 164.282C381.992 163.923 381.635 163.637 381.104 163.423C380.247 163.078 379.405 163.213 378.579 163.829C377.699 164.803 376.753 165.821 375.742 166.884C374.787 167.923 373.745 168.831 372.613 169.608C371.498 170.345 370.288 170.853 368.981 171.133C367.691 171.373 366.312 171.196 364.843 170.605C364.679 170.539 364.434 170.44 364.108 170.309C363.839 170.153 363.684 170.067 363.643 170.05C362.431 169.183 361.516 168.174 360.897 167.023C360.336 165.848 359.98 164.638 359.83 163.391C359.696 162.104 359.719 160.785 359.897 159.434C360.117 158.1 360.397 156.79 360.739 155.504C360.732 155.407 360.775 155.187 360.869 154.845C360.963 154.504 361.007 154.284 360.999 154.186L364.157 146.564C364.611 145.467 365.209 144.427 365.949 143.444C366.706 142.421 367.56 141.508 368.512 140.706C369.48 139.862 370.517 139.142 371.622 138.543C372.727 137.945 373.855 137.522 375.005 137.273C375.104 137.266 375.202 137.258 375.301 137.25C375.457 137.218 375.555 137.21 375.596 137.227L379.637 138.854C379.678 138.871 379.763 138.953 379.892 139.1C380.08 139.223 380.206 139.321 380.27 139.394C380.959 140.146 381.505 140.84 381.908 141.477C382.311 142.114 382.587 142.77 382.735 143.447C382.941 144.099 383.032 144.799 383.007 145.548C382.983 146.297 382.899 147.189 382.757 148.222C382.728 148.638 382.591 149.199 382.345 149.906C382.157 150.59 382.01 151.289 381.904 152.006C381.839 152.738 381.889 153.422 382.054 154.058C382.219 154.694 382.629 155.143 383.282 155.406C383.649 155.554 384.055 155.552 384.499 155.399C384.984 155.262 385.433 155.04 385.847 154.732C386.26 154.424 386.612 154.092 386.903 153.735C387.251 153.353 387.493 153 387.628 152.675L390.684 145.297C390.734 145.175 390.794 144.914 390.864 144.516C390.975 144.133 391.035 143.873 391.045 143.734L391.096 143.613C391.281 143.165 391.498 142.755 391.748 142.381C392.056 141.984 392.302 141.561 392.488 141.114C392.656 140.707 392.784 140.284 392.87 139.845C393.015 139.381 393.061 138.926 393.008 138.478C392.996 138.046 392.878 137.642 392.652 137.267C392.427 136.892 392.069 136.605 391.58 136.408C391.09 136.211 390.623 136.188 390.178 136.342C389.734 136.495 389.322 136.684 388.942 136.911C388.604 137.154 388.273 137.377 387.951 137.579C387.629 137.781 387.346 137.833 387.101 137.735L386.856 137.636C385.765 136.247 384.728 135.071 383.746 134.106C382.765 133.142 381.499 132.347 379.948 131.722C379.54 131.558 379.091 131.377 378.601 131.18C378.128 130.942 377.625 130.834 377.092 130.857C376.895 130.872 376.571 130.908 376.119 130.963C375.685 130.977 375.221 131.004 374.729 131.043C374.277 131.098 373.826 131.154 373.374 131.209C372.94 131.224 372.624 131.239 372.427 131.254C372.04 131.383 371.513 131.621 370.845 131.969C370.194 132.276 369.526 132.623 368.841 133.012C368.157 133.4 367.513 133.805 366.91 134.226C366.364 134.623 365.984 134.967 365.767 135.26L359.574 142.797C359.331 143.268 359.042 143.792 358.708 144.369C358.374 144.946 358.036 145.474 357.695 145.953L355.043 152.356C354.891 153.528 354.625 154.63 354.244 155.663C353.864 156.696 353.68 157.831 353.691 159.069C353.672 159.345 353.675 159.797 353.701 160.425C353.727 161.052 353.736 161.719 353.728 162.428C353.761 163.153 353.782 163.849 353.792 164.517C353.858 165.16 353.911 165.608 353.949 165.861ZM405.158 189.904C404.917 190.945 405.019 191.793 405.463 192.446C405.947 193.115 406.573 193.675 407.338 194.126C408.121 194.536 408.961 194.922 409.859 195.284C410.774 195.605 411.573 195.974 412.257 196.392L412.38 196.442C413.196 196.77 413.963 196.7 414.682 196.23C415.4 195.761 415.902 195.18 416.189 194.489C416.407 193.961 416.518 193.579 416.521 193.343C416.523 193.106 416.459 192.63 416.327 191.913C416.244 191.31 416.04 190.825 415.716 190.457C415.392 190.089 415.051 189.762 414.693 189.476C414.336 189.19 413.987 188.883 413.646 188.556C413.305 188.229 413.084 187.784 412.984 187.222C412.86 186.603 412.937 185.899 413.216 185.11C413.553 184.297 413.761 183.622 413.841 183.085C414.07 181.612 414.259 180.004 414.409 178.262C414.617 176.496 414.574 174.818 414.28 173.229L414.507 172.68C414.709 172.193 415 171.835 415.379 171.609C415.776 171.342 416.217 171.14 416.702 171.003C417.187 170.867 417.672 170.73 418.157 170.593C418.683 170.473 419.136 170.3 419.516 170.073C420.638 169.434 421.562 168.526 422.288 167.348C423.03 166.129 423.638 164.951 424.109 163.813C425.204 161.17 425.549 158.843 425.144 156.83C424.756 154.776 423.882 152.978 422.522 151.433C421.161 149.889 419.458 148.539 417.413 147.383C415.409 146.244 413.345 145.247 411.223 144.392C410.774 144.211 410.358 144.067 409.973 143.96C409.606 143.812 409.147 143.769 408.597 143.832L399.231 140.059C398.455 139.747 397.77 139.85 397.174 140.369C396.595 140.847 396.17 141.412 395.901 142.062C395.733 142.468 395.592 142.981 395.479 143.599C395.382 144.177 395.565 144.654 396.029 145.031L399.507 147.499L399.794 148.184L394.226 162.661L393.721 163.881L388.211 177.528C388.178 177.609 388.066 177.706 387.876 177.82C387.686 177.933 387.534 178.014 387.419 178.062C386.806 177.816 386.145 177.573 385.434 177.334C384.764 177.112 384.102 176.987 383.446 176.96C382.791 176.933 382.186 177.069 381.634 177.368C381.098 177.627 380.67 178.142 380.351 178.915C380.199 179.281 380.1 179.692 380.054 180.147C380.049 180.62 380.093 181.088 380.187 181.553C380.321 182.033 380.501 182.462 380.726 182.837C381.009 183.188 381.363 183.426 381.788 183.55C382.156 183.697 382.78 183.973 383.661 184.375C384.542 184.777 385.484 185.204 386.488 185.656C387.508 186.067 388.459 186.474 389.34 186.876C390.278 187.254 390.931 187.517 391.299 187.665L391.972 187.936C392.462 188.134 393.001 188.327 393.589 188.517C394.235 188.682 394.845 188.762 395.419 188.756C396.034 188.766 396.58 188.654 397.058 188.42C397.577 188.202 397.971 187.768 398.24 187.117C398.661 186.101 398.597 185.221 398.048 184.478C397.515 183.695 396.871 183.008 396.115 182.419C395.359 181.83 394.647 181.306 393.98 180.847C393.329 180.348 393.08 179.916 393.231 179.55L397.98 168.086L398.326 167.941C398.383 167.917 398.665 167.983 399.172 168.14C399.695 168.256 400.08 168.363 400.324 168.462L402.59 169.374C403.12 169.588 403.569 169.769 403.936 169.917C404.345 170.081 404.724 170.258 405.074 170.446C405.482 170.611 405.874 170.816 406.248 171.061C406.623 171.307 407.07 171.606 407.591 171.958C407.905 172.464 408.067 173.051 408.076 173.719C408.126 174.403 408.201 175.026 408.302 175.588C408.469 176.794 408.489 178.012 408.361 179.241C408.273 180.486 408.067 181.731 407.742 182.976C407.434 184.18 407.036 185.371 406.547 186.55C406.117 187.705 405.654 188.823 405.158 189.904ZM407.091 150.056C407.312 150.097 407.688 150.225 408.218 150.439C408.749 150.652 409.116 150.8 409.32 150.883C411.034 151.573 412.698 152.386 414.311 153.32C415.941 154.214 417.388 155.318 418.653 156.634C419.217 157.573 419.427 158.559 419.285 159.593C419.16 160.585 418.903 161.549 418.516 162.484C417.859 164.07 416.839 165.153 415.455 165.734C414.129 166.291 412.639 166.497 410.985 166.352L408.964 165.538C408.311 165.275 407.716 164.988 407.178 164.677C406.641 164.365 406.066 164.086 405.453 163.84C404.964 163.642 404.457 163.486 403.934 163.37C403.41 163.254 402.883 163.089 402.353 162.875L400.945 162.308C400.914 162.153 400.896 161.909 400.891 161.575C400.887 161.241 400.909 161.013 400.96 160.891L405.304 150.403C405.439 150.078 405.715 149.928 406.133 149.954C406.551 149.98 406.87 150.014 407.091 150.056ZM421.494 196.911C421.208 197.602 421.112 198.18 421.205 198.645C421.298 199.109 421.507 199.525 421.831 199.893C422.213 200.236 422.66 200.535 423.174 200.79C423.705 201.003 424.256 201.225 424.827 201.455C425.317 201.653 425.888 201.883 426.541 202.146C427.177 202.45 427.803 202.607 428.417 202.617L448.804 210.829C449.185 211.173 449.56 211.418 449.927 211.566C450.335 211.731 450.764 211.903 451.213 212.084C452.682 212.676 454.034 212.746 455.269 212.295C456.503 211.844 457.432 210.866 458.055 209.362C458.24 208.915 458.371 208.541 458.448 208.24C458.583 207.914 458.641 207.487 458.622 206.958L462.082 198.604C462.402 197.832 462.457 196.952 462.246 195.966C462.053 194.94 461.527 194.254 460.67 193.908C459.976 193.629 459.275 193.655 458.566 193.986C457.858 194.317 457.36 194.828 457.074 195.519L454.599 201.495C454.548 201.617 454.403 201.795 454.163 202.031C453.939 202.225 453.761 202.367 453.629 202.456C452.694 203.218 451.874 203.646 451.168 203.742C450.479 203.796 449.779 203.704 449.068 203.465C448.398 203.242 447.655 202.967 446.839 202.638C446.08 202.285 445.152 202.054 444.055 201.944L437.872 199.453L437.584 198.768L443.115 185.414C443.115 185.414 443.161 185.361 443.252 185.256C443.344 185.15 443.447 185.073 443.562 185.025C443.63 184.862 443.745 184.814 443.908 184.88L446.541 185.94C446.785 186.039 447.004 186.316 447.196 186.773C447.445 187.206 447.649 187.691 447.807 188.229C448.023 188.743 448.169 189.252 448.245 189.757C448.322 190.262 448.359 190.633 448.356 190.869C448.154 191.357 447.893 191.987 447.573 192.759C447.253 193.532 447.024 194.317 446.884 195.114C446.761 195.871 446.794 196.596 446.983 197.289C447.189 197.941 447.7 198.431 448.517 198.76C449.782 199.27 450.684 198.874 451.223 197.573L459.507 177.573C459.793 176.882 459.825 176.231 459.602 175.619C459.396 174.967 458.966 174.51 458.313 174.247C457.497 173.918 456.837 173.96 456.332 174.373C455.827 174.787 455.383 175.343 454.998 176.042C454.613 176.741 454.241 177.468 453.88 178.224C453.536 178.939 453.129 179.463 452.658 179.795C452.112 180.192 451.512 180.377 450.856 180.35C450.241 180.339 449.642 180.406 449.059 180.551L445.936 179.293L445.793 178.95C445.793 178.95 445.814 178.841 445.858 178.621C445.901 178.401 445.932 178.153 445.952 177.876C446.029 177.575 446.106 177.274 446.183 176.973C446.277 176.632 446.345 176.351 446.389 176.131L446.414 176.07L446.465 175.948C446.498 175.867 446.64 175.64 446.89 175.266C447.14 174.892 447.282 174.665 447.316 174.584C447.417 174.34 447.602 173.892 447.871 173.242C448.181 172.608 448.509 171.933 448.852 171.218C449.196 170.503 449.503 169.82 449.772 169.17C450.099 168.495 450.313 168.036 450.415 167.792L450.76 167.647L462.453 172.357C462.78 172.488 463.075 172.868 463.339 173.496C463.66 174.1 463.872 174.565 463.975 174.891C464.038 175.201 464.09 175.649 464.133 176.235C464.217 176.838 464.25 177.16 464.233 177.2L461.556 183.664C461.287 184.314 461.333 184.95 461.695 185.57C462.098 186.206 462.585 186.64 463.157 186.87C463.851 187.15 464.555 187.173 465.271 186.939C465.987 186.706 466.496 186.223 466.799 185.491L472.129 172.625C472.381 172.016 472.447 171.283 472.325 170.428C472.203 169.572 471.853 168.98 471.274 168.653C466.278 166.687 461.328 164.67 456.423 162.599C451.535 160.488 446.601 158.429 441.622 156.424C440.561 155.996 439.602 156.013 438.744 156.474C437.903 156.894 437.281 157.592 436.877 158.568C436.388 159.747 436.39 160.72 436.882 161.487C437.374 162.254 438.171 162.86 439.273 163.304C439.966 163.583 440.636 163.806 441.282 163.971C441.986 164.112 442.684 164.322 443.378 164.602C443.541 164.667 443.766 164.758 444.051 164.873C444.337 164.988 444.492 165.074 444.516 165.131L444.829 165.755L444.198 167.28C443.995 167.768 443.751 168.357 443.465 169.048C443.236 169.715 442.911 170.271 442.488 170.718L439.15 179.121L438.67 180.279L432.857 194.658C432.756 194.902 432.552 195.223 432.244 195.621C431.953 195.978 431.652 196.188 431.34 196.252C431.136 196.17 430.853 196.104 430.493 196.054C430.15 195.963 429.778 195.884 429.377 195.817C428.993 195.71 428.608 195.603 428.224 195.496C427.881 195.405 427.607 195.318 427.403 195.236L427.281 195.187C427.199 195.154 426.963 195.035 426.571 194.83C426.238 194.6 426.038 194.449 425.974 194.375L425.606 194.228C425.076 194.014 424.597 193.963 424.169 194.076C423.759 194.147 423.375 194.325 423.02 194.609C422.705 194.909 422.414 195.266 422.147 195.68C421.88 196.094 421.663 196.505 421.494 196.911ZM460.001 211.782C460.035 211.701 460.102 211.538 460.203 211.294C460.362 211.026 460.458 210.852 460.492 210.77C461.102 210.447 461.621 210.229 462.049 210.117C462.476 210.004 462.899 209.961 463.317 209.987C463.751 209.972 464.198 209.986 464.657 210.029C465.115 210.071 465.681 210.086 466.353 210.072C466.689 210.065 467.027 209.94 467.366 209.697C467.745 209.47 468.072 209.199 468.346 208.882C468.661 208.582 468.935 208.266 469.168 207.933C469.459 207.576 469.704 207.271 469.903 207.019C470.194 206.662 470.673 206.025 471.338 205.107C472.045 204.206 472.777 203.244 473.534 202.221C474.332 201.214 475.064 200.252 475.73 199.334C476.436 198.433 476.935 197.804 477.226 197.447C477.964 196.7 478.571 195.925 479.047 195.121C479.523 194.316 480.109 193.533 480.806 192.77C482.267 191.082 483.729 189.394 485.19 187.705C486.692 186.034 488.133 184.337 489.512 182.616C489.803 182.259 490.136 181.8 490.511 181.24C490.927 180.696 491.367 180.209 491.83 179.779C492.311 179.309 492.831 178.973 493.391 178.771C493.967 178.529 494.582 178.539 495.235 178.802C495.97 179.098 496.46 179.581 496.707 180.249C496.954 180.918 497.057 181.647 497.016 182.437C497.032 183.202 496.95 183.976 496.769 184.757C496.646 185.514 496.562 186.12 496.516 186.576C496.351 188.122 496.089 189.676 495.727 191.239C495.383 192.76 495.288 194.311 495.443 195.891L492.206 219.917C492.16 220.373 492.25 220.788 492.476 221.164C492.742 221.555 493.066 221.923 493.447 222.267C493.846 222.569 494.232 222.844 494.607 223.089C495.022 223.351 495.376 223.589 495.669 223.802C496.242 224.602 496.319 225.51 495.898 226.526C495.493 227.502 494.876 228.131 494.045 228.413C493.231 228.654 492.354 228.585 491.415 228.207C490.395 227.796 489.342 227.349 488.257 226.864C487.189 226.339 486.173 225.859 485.211 225.423C484.558 225.16 483.954 224.893 483.399 224.623C482.845 224.352 482.377 224.045 481.995 223.701C481.63 223.317 481.389 222.864 481.272 222.343C481.196 221.838 481.309 221.219 481.612 220.487L482.041 219.451C482.479 219.2 482.915 219.067 483.349 219.053C483.842 219.014 484.305 218.987 484.74 218.972C485.215 218.974 485.629 218.951 485.982 218.904C486.393 218.832 486.727 218.658 486.984 218.382C487.018 218.301 487.065 218.13 487.125 217.87C487.202 217.569 487.259 217.26 487.295 216.942C487.372 216.641 487.441 216.361 487.501 216.1C487.561 215.84 487.588 215.661 487.581 215.563C487.59 215.425 487.622 215.177 487.675 214.818C487.728 214.46 487.748 214.065 487.737 213.634C487.725 213.202 487.676 212.803 487.59 212.436C487.544 212.086 487.42 211.87 487.216 211.788L477.604 207.916C477.523 207.883 477.26 207.943 476.815 208.096C476.388 208.208 476.137 208.297 476.062 208.362L472.858 211.269C472.841 211.31 472.77 211.423 472.645 211.61C472.561 211.813 472.502 211.956 472.468 212.037C472.182 212.728 472.172 213.27 472.438 213.661C472.745 214.07 473.081 214.466 473.446 214.85C473.811 215.234 474.101 215.683 474.317 216.197C474.59 216.687 474.55 217.358 474.197 218.212C473.809 219.147 473.205 219.686 472.384 219.83C471.603 219.989 470.764 219.889 469.866 219.527C469.295 219.297 468.74 219.026 468.202 218.714C467.705 218.419 467.151 218.149 466.539 217.902C465.722 217.573 464.893 217.334 464.05 217.184C463.224 216.994 462.403 216.734 461.587 216.405C460.648 216.027 460.057 215.386 459.812 214.481C459.585 213.535 459.648 212.636 460.001 211.782ZM480.367 202.625C480.698 203.091 481.059 203.426 481.451 203.631C481.859 203.795 482.348 203.993 482.92 204.223C483.736 204.552 484.557 204.811 485.383 205.002C486.25 205.208 487.129 205.444 488.02 205.708L488.365 205.563C488.382 205.522 488.424 205.42 488.492 205.258C488.617 205.071 488.696 204.937 488.73 204.856C488.864 204.53 489.01 203.949 489.167 203.111C489.34 202.232 489.478 201.267 489.579 200.217C489.739 199.143 489.865 198.032 489.96 196.884C490.054 195.736 490.127 194.698 490.178 193.77C490.246 192.802 490.287 192.012 490.302 191.401C490.334 190.75 490.329 190.416 490.289 190.4C490.125 190.334 489.961 190.386 489.795 190.557C489.629 190.727 489.509 190.845 489.434 190.909C489.177 191.185 488.792 191.599 488.277 192.151C487.821 192.678 487.335 193.218 486.821 193.77C486.324 194.281 485.863 194.76 485.44 195.206C485.075 195.628 484.847 195.892 484.755 195.997C483.991 196.923 483.218 197.868 482.437 198.834C481.656 199.8 481.047 200.812 480.609 201.869C480.575 201.95 480.525 202.072 480.457 202.235C480.431 202.414 480.401 202.544 480.367 202.625ZM502.835 228.467C502.633 228.955 502.664 229.513 502.928 230.141C503.249 230.745 503.678 231.321 504.213 231.868C504.789 232.432 505.369 232.927 505.955 233.353C506.582 233.795 507.119 234.106 507.568 234.287C508.874 234.813 510.203 235.111 511.555 235.182C512.907 235.252 514.236 235.55 515.542 236.076C516.318 236.388 516.993 236.827 517.569 237.391C518.203 237.931 518.907 238.357 519.683 238.669C520.213 238.883 520.74 239.048 521.264 239.164C521.845 239.255 522.382 239.282 522.874 239.243C523.383 239.163 523.836 238.99 524.232 238.723C524.646 238.415 524.97 237.977 525.206 237.407C525.61 236.432 525.627 235.585 525.258 234.867C524.929 234.165 524.399 233.549 523.667 233.017C522.993 232.46 522.215 231.981 521.334 231.579C520.453 231.176 519.686 230.844 519.033 230.581L518.745 229.896L526.546 210.199L527.052 208.979L529.404 202.954C529.803 202.451 530.175 201.842 530.519 201.126C530.903 200.428 531.197 199.834 531.399 199.346L531.745 199.201C531.786 199.218 531.928 199.275 532.173 199.374C532.435 199.432 532.607 199.477 532.688 199.51C533.26 199.74 533.818 200.06 534.363 200.469C534.948 200.895 535.431 201.397 535.81 201.977C536.246 202.532 536.518 203.14 536.626 203.8C536.791 204.436 536.731 205.099 536.445 205.79L533.767 212.254C533.464 212.986 533.493 213.78 533.852 214.636C534.212 215.492 534.739 216.06 535.432 216.34C536.289 216.685 537.114 216.59 537.907 216.056C538.7 215.521 539.265 214.848 539.602 214.035L544.628 201.9C544.948 201.128 544.924 200.265 544.558 199.311C544.232 198.373 543.66 197.74 542.844 197.411L529.192 191.912C528.909 191.561 528.645 191.336 528.4 191.237C528.172 191.098 527.895 190.962 527.568 190.831C527.201 190.683 526.886 190.58 526.625 190.522C526.421 190.44 526.073 190.418 525.58 190.457L518.173 187.473C517.805 187.325 517.399 187.328 516.955 187.481C516.552 187.65 516.143 187.889 515.73 188.197C515.333 188.464 514.969 188.768 514.638 189.108C514.347 189.466 514.143 189.787 514.025 190.071L509.175 201.779C508.872 202.51 508.765 203.344 508.853 204.281C508.941 205.218 509.394 205.851 510.21 206.18C511.23 206.591 512.054 206.614 512.681 206.25C513.325 205.845 513.856 205.253 514.274 204.473C514.709 203.652 515.117 202.725 515.497 201.693C515.918 200.676 516.424 199.742 517.016 198.889C517.624 197.996 518.374 197.278 519.265 196.736C520.214 196.169 521.429 195.995 522.911 196.212C523.009 196.204 523.201 196.258 523.487 196.373C523.83 196.464 524.063 196.534 524.186 196.583C524.267 196.616 524.422 196.702 524.65 196.841C524.895 196.94 525.05 197.026 525.115 197.1L525.258 197.442L512.706 227.747L511.643 228.244L505.888 225.926C505.521 225.778 505.164 225.777 504.818 225.922C504.513 226.084 504.224 226.323 503.95 226.639C503.693 226.915 503.468 227.228 503.275 227.577C503.083 227.927 502.936 228.223 502.835 228.467ZM531.764 241.33C531.478 242.021 531.382 242.599 531.475 243.063C531.568 243.528 531.777 243.944 532.101 244.312C532.482 244.655 532.93 244.954 533.444 245.208C533.974 245.422 534.525 245.644 535.097 245.874C535.586 246.071 536.158 246.302 536.811 246.565C537.447 246.868 538.073 247.025 538.687 247.036L559.073 255.248C559.455 255.591 559.83 255.837 560.197 255.985C560.605 256.149 561.034 256.322 561.482 256.503C562.952 257.095 564.304 257.165 565.538 256.713C566.773 256.262 567.702 255.284 568.325 253.78C568.51 253.333 568.641 252.959 568.718 252.658C568.853 252.333 568.911 251.906 568.892 251.376L572.352 243.023C572.672 242.25 572.727 241.371 572.516 240.385C572.322 239.358 571.797 238.672 570.94 238.327C570.246 238.047 569.545 238.073 568.836 238.404C568.127 238.736 567.63 239.247 567.344 239.938L564.869 245.913C564.818 246.035 564.673 246.214 564.432 246.449C564.209 246.644 564.031 246.786 563.899 246.875C562.964 247.637 562.144 248.065 561.438 248.16C560.748 248.215 560.049 248.122 559.338 247.883C558.668 247.661 557.925 247.385 557.109 247.057C556.35 246.704 555.422 246.472 554.325 246.362L548.142 243.871L547.854 243.186L553.385 229.833C553.385 229.833 553.431 229.78 553.522 229.674C553.613 229.569 553.717 229.492 553.832 229.443C553.899 229.281 554.015 229.232 554.178 229.298L556.81 230.359C557.055 230.457 557.274 230.735 557.465 231.192C557.715 231.624 557.919 232.109 558.077 232.647C558.293 233.161 558.439 233.671 558.515 234.176C558.592 234.681 558.629 235.052 558.626 235.288C558.424 235.776 558.163 236.406 557.843 237.178C557.523 237.95 557.293 238.735 557.153 239.533C557.03 240.29 557.064 241.014 557.253 241.707C557.459 242.36 557.97 242.85 558.786 243.179C560.052 243.689 560.954 243.293 561.492 241.992L569.777 221.992C570.063 221.301 570.095 220.65 569.872 220.038C569.666 219.386 569.236 218.928 568.583 218.665C567.767 218.336 567.106 218.379 566.602 218.792C566.097 219.205 565.653 219.761 565.268 220.46C564.883 221.159 564.51 221.886 564.15 222.642C563.806 223.358 563.398 223.881 562.927 224.213C562.382 224.61 561.782 224.795 561.126 224.768C560.511 224.758 559.912 224.825 559.328 224.969L556.206 223.712L556.062 223.369C556.062 223.369 556.084 223.259 556.127 223.04C556.171 222.82 556.202 222.572 556.222 222.295C556.299 221.994 556.376 221.693 556.453 221.392C556.547 221.05 556.615 220.77 556.659 220.55L556.684 220.489L556.734 220.367C556.768 220.286 556.91 220.058 557.16 219.685C557.41 219.311 557.552 219.083 557.585 219.002C557.686 218.758 557.872 218.311 558.141 217.661C558.451 217.027 558.778 216.352 559.122 215.637C559.466 214.921 559.773 214.239 560.042 213.588C560.369 212.914 560.583 212.454 560.684 212.21L561.03 212.065L572.723 216.775C573.05 216.907 573.345 217.287 573.609 217.915C573.93 218.518 574.142 218.983 574.245 219.309C574.307 219.619 574.36 220.067 574.403 220.654C574.486 221.257 574.52 221.578 574.503 221.619L571.826 228.082C571.556 228.733 571.603 229.368 571.965 229.988C572.368 230.625 572.855 231.058 573.426 231.289C574.12 231.568 574.825 231.591 575.541 231.358C576.257 231.124 576.766 230.642 577.069 229.91L582.398 217.044C582.651 216.434 582.716 215.702 582.594 214.846C582.473 213.991 582.122 213.399 581.544 213.071C576.548 211.106 571.597 209.088 566.693 207.018C561.805 204.906 556.871 202.848 551.892 200.842C550.831 200.415 549.871 200.432 549.014 200.892C548.173 201.313 547.551 202.011 547.146 202.986C546.658 204.165 546.66 205.138 547.152 205.905C547.643 206.673 548.44 207.278 549.542 207.722C550.236 208.002 550.906 208.224 551.552 208.389C552.255 208.531 552.954 208.741 553.648 209.02C553.811 209.086 554.036 209.176 554.321 209.292C554.607 209.407 554.762 209.493 554.786 209.55L555.099 210.174L554.467 211.698C554.265 212.186 554.021 212.776 553.735 213.467C553.506 214.134 553.181 214.69 552.758 215.136L549.42 223.539L548.94 224.698L543.127 239.077C543.026 239.321 542.822 239.641 542.514 240.039C542.223 240.396 541.922 240.607 541.609 240.671C541.405 240.589 541.123 240.523 540.763 240.472C540.42 240.381 540.048 240.303 539.647 240.236C539.262 240.129 538.878 240.021 538.494 239.914C538.151 239.823 537.877 239.737 537.673 239.654L537.55 239.605C537.469 239.572 537.232 239.453 536.841 239.248C536.507 239.019 536.308 238.868 536.243 238.794L535.876 238.646C535.346 238.432 534.867 238.382 534.439 238.494C534.028 238.566 533.645 238.744 533.29 239.027C532.975 239.327 532.684 239.684 532.417 240.099C532.15 240.513 531.933 240.923 531.764 241.33ZM612.799 276.32C613.656 276.665 614.442 277.124 615.157 277.697C615.873 278.27 616.638 278.72 617.455 279.049L617.577 279.099C617.675 279.091 617.884 279.104 618.204 279.138C618.564 279.188 618.793 279.209 618.892 279.201L633.034 284.898C633.482 285.079 633.95 285.101 634.435 284.964C634.978 284.803 635.464 284.549 635.894 284.2C636.365 283.868 636.783 283.491 637.148 283.069C637.531 282.606 637.797 282.192 637.949 281.826C638.084 281.501 638.173 281.229 638.216 281.009C638.317 280.765 638.35 280.399 638.314 279.91L642.759 269.178C643.079 268.406 643.133 267.645 642.919 266.895C642.747 266.161 642.293 265.646 641.559 265.35C640.702 265.005 639.943 265.055 639.282 265.501C638.679 265.922 638.111 266.547 637.577 267.375C637.084 268.22 636.598 269.163 636.12 270.203C635.682 271.26 635.179 272.244 634.612 273.154C634.102 274.039 633.512 274.774 632.842 275.358C632.229 275.917 631.473 276.134 630.572 276.009C630.368 275.926 630.013 275.807 629.506 275.65C629.057 275.47 628.559 275.293 628.012 275.12C627.481 274.906 626.962 274.721 626.456 274.564C625.949 274.407 625.614 274.296 625.451 274.23C624.985 274.09 624.539 274.076 624.111 274.189C623.7 274.26 623.291 274.214 622.883 274.05C622.679 273.967 622.556 273.918 622.516 273.902C622.492 273.845 622.447 273.779 622.382 273.706C622.358 273.649 622.294 273.575 622.188 273.485C622.14 273.371 621.999 273.195 621.763 272.958C621.658 272.868 621.45 272.737 621.14 272.565C620.831 272.393 620.521 272.221 620.211 272.049C619.902 271.876 619.633 271.721 619.405 271.581C619.194 271.401 619.113 271.251 619.164 271.129L628.963 247.47C629.038 247.405 629.155 247.239 629.313 246.97C629.53 246.678 629.655 246.491 629.688 246.41C629.772 246.207 629.936 245.869 630.179 245.398C630.422 244.927 630.661 244.406 630.897 243.837C631.173 243.285 631.413 242.764 631.615 242.277C631.857 241.805 632.021 241.468 632.105 241.265L632.451 241.119L639.43 243.931C640.165 244.227 640.837 244.213 641.447 243.889C642.115 243.542 642.592 243.022 642.879 242.331C643.182 241.6 643.242 240.936 643.06 240.341C642.919 239.762 642.633 239.244 642.204 238.787C641.774 238.329 641.25 237.928 640.63 237.584C640.052 237.256 639.477 236.977 638.906 236.747C638.212 236.467 637.542 236.245 636.896 236.079C636.25 235.914 635.601 235.7 634.948 235.437C634.336 235.19 633.761 234.911 633.223 234.6C632.685 234.288 632.09 234.001 631.437 233.738C630.784 233.475 630.134 233.261 629.488 233.096C628.843 232.93 628.193 232.716 627.54 232.453C626.724 232.124 625.941 231.714 625.192 231.223C624.443 230.731 623.661 230.321 622.845 229.992C621.824 229.581 620.817 229.484 619.823 229.7C618.828 229.916 618.104 230.573 617.649 231.671C617.363 232.362 617.301 233.143 617.464 234.015C617.667 234.903 618.177 235.512 618.993 235.841L625.483 238.455L625.803 239.58C625.843 239.596 625.754 239.869 625.535 240.397C625.333 240.885 625.173 241.271 625.056 241.556C624.887 241.962 624.609 242.633 624.222 243.568C623.852 244.462 623.447 245.153 623.007 245.64L615.404 263.993C615.406 264.563 615.298 265.113 615.079 265.641C614.86 266.17 614.658 266.657 614.473 267.105C614.406 267.267 614.259 267.564 614.033 267.995C613.848 268.442 613.721 268.747 613.654 268.909C613.315 269.152 612.912 269.322 612.443 269.418C611.975 269.514 611.557 269.488 611.19 269.34C610.496 269.06 609.873 268.667 609.321 268.16C608.786 267.612 608.172 267.199 607.478 266.919C606.417 266.492 605.45 266.411 604.578 266.676C603.706 266.942 603.043 267.623 602.588 268.721C602.151 269.778 602.164 270.779 602.63 271.726C603.152 272.648 603.944 273.323 605.006 273.75C606.312 274.276 607.61 274.704 608.902 275.035C610.235 275.382 611.534 275.81 612.799 276.32ZM672.962 248.117C670.921 247.295 668.949 246.999 667.044 247.228C665.156 247.416 663.363 247.951 661.665 248.832C659.967 249.713 658.376 250.851 656.893 252.246C655.428 253.6 654.076 255.024 652.838 256.518C652.639 256.769 652.348 257.127 651.966 257.589C651.641 258.028 651.308 258.487 650.967 258.966C650.642 259.404 650.335 259.802 650.044 260.159C649.794 260.533 649.66 260.74 649.644 260.781L645.577 270.598C645.56 270.638 645.522 270.789 645.462 271.049C645.442 271.326 645.386 271.635 645.292 271.977C645.255 272.294 645.211 272.632 645.158 272.99C645.121 273.308 645.111 273.564 645.125 273.76C645.05 274.631 645.026 275.665 645.054 276.862C645.082 278.059 645.163 279.301 645.297 280.588C645.488 281.851 645.745 283.069 646.069 284.243C646.392 285.417 646.82 286.396 647.353 287.179C647.4 287.294 647.554 287.498 647.813 287.792C648.113 288.102 648.405 288.433 648.688 288.785C648.988 289.095 649.267 289.397 649.527 289.692C649.786 289.986 649.948 290.17 650.012 290.243C650.725 291.052 651.381 291.767 651.981 292.388C652.622 293.026 653.473 293.558 654.534 293.986C655.146 294.232 655.653 294.389 656.054 294.455C656.472 294.481 656.857 294.471 657.21 294.423C657.604 294.392 657.998 294.361 658.392 294.33C658.803 294.258 659.295 294.219 659.869 294.213C662.426 294.247 664.748 293.76 666.833 292.75C668.976 291.715 670.888 290.375 672.57 288.728C674.269 287.041 675.745 285.145 676.998 283.041C678.308 280.913 679.409 278.771 680.302 276.617C681.211 274.421 681.809 272.172 682.096 269.869C682.384 267.565 682.479 265.208 682.382 262.798C682.023 261.941 681.79 261.065 681.685 260.169C681.597 259.232 681.46 258.299 681.273 257.37C681.18 256.906 680.959 256.461 680.611 256.037C680.304 255.628 680.038 255.236 679.812 254.861C679.337 254.053 678.857 253.314 678.373 252.645C677.946 251.951 677.465 251.33 676.93 250.783C676.394 250.235 675.814 249.74 675.187 249.298C674.561 248.856 673.819 248.462 672.962 248.117ZM653.317 266.743C653.873 265.401 654.759 263.837 655.975 262.05C657.232 260.28 658.66 258.673 660.258 257.23C661.856 255.786 663.569 254.698 665.397 253.964C667.225 253.23 669.037 253.224 670.833 253.948C671.975 254.408 672.776 255.062 673.234 255.911C673.709 256.719 674.252 257.649 674.864 258.702C675.499 259.812 675.934 260.888 676.169 261.931C676.421 262.934 676.553 263.936 676.567 264.938C676.581 265.939 676.487 266.969 676.287 268.027C676.145 269.06 675.977 270.155 675.784 271.311L672.526 279.177C672.24 279.868 671.89 280.367 671.477 280.675C671.105 280.999 670.698 281.405 670.259 281.892C669.752 282.541 669.104 283.3 668.316 284.169C667.544 284.996 666.688 285.742 665.746 286.406C664.821 287.03 663.836 287.511 662.791 287.849C661.763 288.146 660.759 288.097 659.78 287.703L653.78 285.286C653.331 285.105 652.93 284.636 652.578 283.877C652.225 283.118 651.907 282.278 651.621 281.357C651.377 280.452 651.182 279.544 651.036 278.631C650.931 277.735 650.893 277.079 650.922 276.664C651.039 275.003 651.303 273.331 651.715 271.647C652.143 269.922 652.677 268.288 653.317 266.743ZM674.334 298.261C673.964 299.156 673.929 300.043 674.231 300.924C674.55 301.764 675.179 302.373 676.118 302.751L676.852 303.047C677.628 303.359 678.942 303.865 680.796 304.564C682.673 305.32 684.714 306.142 686.918 307.03C689.121 307.918 691.142 308.732 692.978 309.472C694.873 310.187 696.228 310.709 697.044 311.038C698.271 311.295 699.475 311.377 700.657 311.284C701.879 311.207 703.118 311.09 704.375 310.932C705.379 310.577 706.352 310.068 707.293 309.404C708.235 308.739 709.1 307.973 709.888 307.105C710.718 306.253 711.445 305.36 712.07 304.426C712.711 303.451 713.226 302.496 713.613 301.561C714.152 300.261 714.46 299.057 714.538 297.949C714.632 296.802 714.597 295.507 714.433 294.065C714.37 293.755 714.247 293.421 714.062 293.062C713.878 292.703 713.701 292.324 713.533 291.924C713.366 291.524 713.21 291.153 713.066 290.811C712.98 290.444 712.987 290.139 713.088 289.895C713.273 289.448 713.717 289.01 714.418 288.581C715.12 288.152 715.623 287.856 715.928 287.695C716.721 287.16 717.442 286.455 718.091 285.578C718.74 284.701 719.25 283.815 719.62 282.921C720.378 281.091 720.749 279.391 720.733 277.819C720.775 276.223 720.479 274.752 719.846 273.407C719.213 272.061 718.28 270.807 717.046 269.646C715.87 268.461 714.444 267.364 712.766 266.356L711.541 265.863C709.827 265.173 708.083 264.612 706.308 264.182C704.534 263.752 702.79 263.192 701.076 262.501L697.341 260.997C696.691 260.498 696.129 260.129 695.656 259.891C695.2 259.613 694.646 259.342 693.993 259.079C693.095 258.717 692.263 258.714 691.496 259.07C690.747 259.384 690.187 259.989 689.816 260.883C689.345 262.021 689.388 263.011 689.944 263.852C690.558 264.668 691.396 265.29 692.457 265.718C692.947 265.915 693.433 266.063 693.916 266.163C694.439 266.279 694.946 266.436 695.436 266.633L695.864 266.806C696.191 266.937 696.512 267.138 696.829 267.408C697.146 267.678 697.254 267.934 697.153 268.178L684.398 298.971L684.052 299.117C684.011 299.1 683.84 299.055 683.537 298.98C683.292 298.882 683.108 298.808 682.986 298.758C682.251 298.462 681.554 298.134 680.894 297.773C680.251 297.372 679.582 297.031 678.888 296.752L677.419 296.16C675.935 296.179 674.907 296.879 674.334 298.261ZM696.862 286.987C697.148 287.102 697.376 287.242 697.547 287.405C697.758 287.585 698.006 287.733 698.292 287.848C698.578 287.963 698.81 288.033 698.991 288.058C699.171 288.083 699.474 288.04 699.902 287.927L706.82 290.714C706.901 290.747 707.043 290.922 707.245 291.241C707.504 291.535 707.669 291.767 707.741 291.939L709.431 295.964C709.63 296.518 709.566 297.133 709.239 297.807C708.953 298.498 708.7 299.108 708.482 299.637C708.044 300.693 707.575 301.596 707.075 302.343C706.616 303.107 706.047 303.731 705.37 304.217C704.709 304.663 703.931 304.99 703.035 305.198C702.18 305.423 701.138 305.525 699.908 305.504C698.463 304.969 697.013 304.503 695.558 304.107C694.16 303.686 692.768 303.197 691.38 302.638C691.135 302.539 690.793 302.33 690.354 302.011C689.972 301.667 689.857 301.313 690.009 300.947L695.641 287.349C695.675 287.268 695.807 287.179 696.037 287.082C696.309 287.002 696.523 286.945 696.679 286.913L696.862 286.987ZM702.966 269.666L710.618 272.749C711.35 273.281 711.944 273.686 712.4 273.965C712.914 274.219 713.341 274.51 713.682 274.837C714.04 275.123 714.306 275.515 714.481 276.012C714.714 276.485 714.915 277.207 715.085 278.177C715.18 278.405 715.195 278.6 715.127 278.763L713.46 282.787C713.292 283.194 713.01 283.531 712.613 283.798C712.258 284.082 711.849 284.32 711.388 284.514C710.944 284.667 710.487 284.792 710.019 284.887C709.591 285 709.201 285.08 708.848 285.127C707.712 284.765 706.422 284.316 704.977 283.781C703.531 283.247 702.156 282.716 700.85 282.19L700.115 281.894C699.707 281.73 699.295 281.516 698.88 281.254C698.522 280.968 698.436 280.601 698.621 280.154L702.966 269.666ZM711.669 313.3C711.298 314.195 711.264 315.082 711.566 315.963C711.885 316.803 712.513 317.412 713.452 317.79L714.187 318.086C714.962 318.398 716.277 318.904 718.13 319.603C720.007 320.359 722.048 321.181 724.252 322.069C726.456 322.957 728.476 323.771 730.313 324.511C732.207 325.226 733.562 325.748 734.379 326.077C735.606 326.334 736.81 326.416 737.991 326.323C739.214 326.246 740.453 326.129 741.709 325.971C742.713 325.616 743.686 325.107 744.628 324.443C745.57 323.778 746.435 323.012 747.223 322.144C748.052 321.292 748.779 320.399 749.404 319.465C750.046 318.49 750.561 317.535 750.948 316.6C751.487 315.3 751.795 314.096 751.872 312.988C751.967 311.841 751.932 310.546 751.767 309.104C751.705 308.794 751.581 308.46 751.397 308.101C751.212 307.742 751.036 307.363 750.868 306.963C750.7 306.563 750.544 306.192 750.4 305.85C750.314 305.483 750.322 305.178 750.423 304.934C750.608 304.487 751.051 304.049 751.753 303.62C752.454 303.191 752.958 302.895 753.263 302.734C754.056 302.199 754.776 301.494 755.425 300.617C756.074 299.74 756.584 298.854 756.955 297.96C757.712 296.13 758.083 294.43 758.068 292.858C758.109 291.262 757.814 289.791 757.181 288.446C756.548 287.1 755.614 285.846 754.381 284.685C753.205 283.5 751.778 282.403 750.1 281.395L748.876 280.902C747.162 280.212 745.417 279.651 743.643 279.221C741.869 278.791 740.124 278.231 738.41 277.54L734.676 276.036C734.025 275.537 733.464 275.168 732.991 274.93C732.535 274.652 731.98 274.381 731.327 274.118C730.429 273.756 729.597 273.753 728.831 274.108C728.081 274.423 727.521 275.028 727.151 275.922C726.68 277.06 726.722 278.05 727.279 278.891C727.893 279.707 728.731 280.329 729.792 280.757C730.281 280.954 730.768 281.102 731.25 281.202C731.774 281.318 732.28 281.475 732.77 281.672L733.199 281.844C733.525 281.976 733.847 282.177 734.164 282.447C734.48 282.717 734.588 282.973 734.487 283.217L721.732 314.01L721.387 314.156C721.346 314.139 721.174 314.094 720.872 314.019C720.627 313.921 720.443 313.847 720.321 313.797C719.586 313.501 718.889 313.173 718.228 312.812C717.585 312.411 716.917 312.07 716.223 311.791L714.753 311.199C713.269 311.218 712.241 311.918 711.669 313.3ZM734.197 302.026C734.483 302.141 734.711 302.281 734.881 302.444C735.092 302.624 735.341 302.772 735.626 302.887C735.912 303.002 736.145 303.072 736.325 303.097C736.505 303.122 736.809 303.079 737.237 302.966L744.154 305.753C744.236 305.786 744.378 305.961 744.579 306.28C744.838 306.574 745.004 306.806 745.076 306.978L746.766 311.003C746.965 311.557 746.901 312.172 746.574 312.846C746.288 313.537 746.035 314.147 745.816 314.676C745.378 315.732 744.909 316.635 744.409 317.382C743.95 318.146 743.382 318.77 742.704 319.256C742.044 319.702 741.265 320.029 740.369 320.237C739.514 320.462 738.472 320.564 737.243 320.543C735.797 320.008 734.347 319.542 732.892 319.146C731.495 318.725 730.102 318.236 728.715 317.677C728.47 317.578 728.128 317.369 727.688 317.05C727.307 316.706 727.192 316.352 727.343 315.986L732.976 302.388C733.009 302.307 733.141 302.218 733.372 302.121C733.643 302.041 733.857 301.984 734.013 301.952L734.197 302.026ZM740.3 284.705L747.953 287.788C748.685 288.32 749.279 288.725 749.735 289.004C750.249 289.258 750.676 289.549 751.017 289.876C751.374 290.162 751.64 290.554 751.815 291.051C752.048 291.524 752.249 292.246 752.419 293.216C752.515 293.444 752.529 293.639 752.462 293.802L750.795 297.826C750.627 298.233 750.344 298.57 749.948 298.837C749.592 299.121 749.184 299.359 748.723 299.553C748.278 299.706 747.822 299.831 747.353 299.926C746.926 300.039 746.536 300.119 746.183 300.166C745.047 299.804 743.757 299.355 742.311 298.82C740.866 298.286 739.49 297.755 738.184 297.229L737.45 296.933C737.041 296.769 736.63 296.555 736.214 296.293C735.857 296.007 735.771 295.64 735.956 295.193L740.3 284.705ZM755.827 330.662C755.44 331.597 755.479 332.537 755.944 333.484C756.41 334.43 757.112 335.092 758.05 335.47L766.009 338.676L767.324 338.779L775.711 342.157C776.486 342.47 777.23 342.342 777.941 341.775C778.693 341.224 779.203 340.623 779.473 339.973C779.81 339.16 779.666 338.414 779.042 337.736C778.418 337.058 777.756 336.53 777.055 336.153C776.851 336.071 776.512 335.911 776.039 335.673C775.607 335.451 775.126 335.234 774.595 335.02C774.082 334.765 773.58 334.54 773.09 334.342C772.658 334.121 772.34 333.969 772.136 333.887L771.992 333.544L772.487 330.969L776.15 322.127C776.166 322.087 776.229 321.993 776.337 321.847C776.486 321.717 776.598 321.62 776.672 321.555C779.015 319.463 781.329 317.383 783.614 315.316C785.916 313.207 788.239 311.107 790.582 309.015C790.747 308.845 790.979 308.63 791.277 308.37C791.633 308.087 791.968 307.795 792.283 307.495C792.598 307.194 792.867 306.947 793.09 306.753C793.371 306.534 793.549 306.392 793.624 306.327C793.739 306.279 793.912 306.206 794.142 306.109C794.39 305.972 794.554 305.919 794.636 305.952L798.003 307.309C798.289 307.424 798.567 307.441 798.839 307.361C799.168 307.256 799.444 307.106 799.668 306.912C799.908 306.677 800.107 306.425 800.266 306.157C800.466 305.905 800.616 305.657 800.717 305.413C800.969 304.804 801.025 304.209 800.884 303.631C800.783 303.068 800.547 302.546 800.175 302.065C799.82 301.542 799.391 301.084 798.887 300.692C798.383 300.299 797.865 299.996 797.335 299.782C796.723 299.535 796.114 299.338 795.509 299.189C794.904 299.04 794.275 298.834 793.622 298.571C792.928 298.291 792.292 297.988 791.713 297.66C791.175 297.348 790.56 297.053 789.866 296.773C789.05 296.445 788.251 296.36 787.471 296.52C786.748 296.656 786.201 297.171 785.831 298.065C785.528 298.797 785.431 299.375 785.541 299.798C785.651 300.222 785.84 300.63 786.106 301.022C786.389 301.373 786.672 301.724 786.955 302.076C787.279 302.443 787.479 302.88 787.556 303.385C787.563 303.483 787.525 303.633 787.44 303.836C787.373 303.999 787.323 304.121 787.289 304.202C787.053 304.771 786.732 305.259 786.326 305.664C785.961 306.086 785.555 306.492 785.108 306.881C784.678 307.23 784.219 307.59 783.731 307.963C783.26 308.295 782.822 308.664 782.415 309.07C782.341 309.134 782.212 309.272 782.03 309.483C781.847 309.694 781.627 309.938 781.37 310.214C781.171 310.465 780.951 310.709 780.71 310.944C780.528 311.155 780.428 311.281 780.411 311.322C780.279 311.411 780.064 311.585 779.766 311.844C779.509 312.12 779.202 312.4 778.847 312.684C778.532 312.984 778.226 313.264 777.928 313.523C777.647 313.742 777.44 313.896 777.308 313.985C777.2 314.131 777.064 314.171 776.901 314.105C776.778 314.056 776.676 314.015 776.595 313.982C776.35 313.883 776.167 313.691 776.047 313.406C775.928 313.12 775.836 312.823 775.774 312.513C775.729 312.163 775.704 311.821 775.699 311.487C775.712 311.112 775.699 310.799 775.66 310.546L775.029 301.896C775.014 301.701 775.011 301.249 775.019 300.54C775.067 299.848 775.093 299.384 775.095 299.148C775.095 299.148 775.083 299.12 775.059 299.063C775.093 298.981 775.118 298.92 775.135 298.88C775.27 298.554 775.546 298.405 775.964 298.431C776.423 298.473 776.91 298.504 777.426 298.522C777.943 298.54 778.452 298.461 778.954 298.283C779.514 298.082 779.945 297.615 780.248 296.884C780.652 295.908 780.661 295.082 780.275 294.404C779.889 293.727 779.313 293.163 778.547 292.712C777.798 292.221 776.966 291.814 776.052 291.493C775.178 291.189 774.443 290.893 773.848 290.606C773.766 290.573 773.579 290.45 773.286 290.237C773.034 290.041 772.867 289.926 772.786 289.893L772.418 289.745C771.765 289.482 771.046 289.264 770.261 289.09C769.493 288.875 768.723 288.779 767.952 288.8C767.222 288.838 766.523 289.031 765.855 289.378C765.245 289.702 764.772 290.27 764.435 291.083C764.132 291.815 764.08 292.458 764.279 293.012C764.535 293.543 764.895 293.996 765.358 294.372C765.879 294.724 766.437 295.044 767.033 295.331C767.686 295.594 768.278 295.833 768.808 296.046C769.082 296.536 769.248 297.054 769.308 297.599C769.425 298.121 769.485 298.667 769.487 299.237C769.489 299.807 769.491 300.377 769.493 300.947C769.536 301.533 769.616 302.087 769.733 302.609C769.757 302.666 769.821 302.858 769.924 303.184C770.027 303.51 770.082 303.722 770.089 303.82C770.11 304.919 770.057 305.965 769.932 306.958C769.806 307.951 769.93 308.973 770.304 310.025L770.64 319.908L765.992 331.128L765.708 331.297C765.626 331.265 765.373 331.186 764.948 331.063C764.54 330.898 764.234 330.775 764.03 330.693C763.336 330.413 762.7 330.109 762.121 329.782C761.6 329.429 761.013 329.122 760.36 328.859C759.544 328.53 758.654 328.551 757.691 328.922C756.785 329.269 756.164 329.849 755.827 330.662Z" fill="white"/>
<path d="M558.908 426.305L639.046 455.924" stroke="#811D1D" stroke-width="3" stroke-linecap="round"/>
<path d="M292.361 362.835L275.811 355.43" stroke="white"/>
<path d="M292.361 362.835L275.811 355.43" stroke="white"/>
<path d="M377.726 399.33L307.17 369.182" stroke="white"/>
<path d="M377.726 399.33L307.17 369.182" stroke="white"/>
<path d="M322.364 245.66L132.471 689.948" stroke="white"/>
<path d="M322.364 245.66L132.471 689.948" stroke="white"/>
<path d="M719.185 408.322L529.292 854.725" stroke="white"/>
<path d="M719.185 408.322L529.292 854.725" stroke="white"/>
<path d="M456.993 739.422L257.519 656.911" stroke="white"/>
<path d="M456.993 739.422L257.519 656.911" stroke="white"/>
<path d="M304.557 571.227L200.9 528.914" stroke="white"/>
<path d="M304.557 571.227L200.9 528.914" stroke="white"/>
<path d="M656.468 557.475L552.811 515.162" stroke="white"/>
<path d="M656.468 557.475L552.811 515.162" stroke="white"/>
<path d="M697.408 460.155L661.694 445.345" stroke="white"/>
<path d="M697.408 460.155L661.694 445.345" stroke="white"/>
<path d="M565.006 584.979L547.149 577.574L529.292 570.169" stroke="white"/>
<path d="M565.006 584.979L547.149 577.574L529.292 570.169" stroke="white"/>
<path d="M632.078 612.482L614.221 605.078L596.364 597.673" stroke="white"/>
<path d="M632.078 612.482L614.221 605.078L596.364 597.673" stroke="white"/>
<path d="M363.789 328.984L347.239 321.58" stroke="white"/>
<path d="M363.789 328.984L347.239 321.58" stroke="white"/>
<path d="M400.374 344.852L378.597 335.331" stroke="white"/>
<path d="M400.374 344.852L378.597 335.331" stroke="white"/>
<path d="M220.063 607.193L175.639 589.21" stroke="white"/>
<path d="M220.063 607.193L175.639 589.21" stroke="white"/>
<path d="M415.182 656.911L370.758 638.928" stroke="white"/>
<path d="M415.182 656.911L370.758 638.928" stroke="white"/>
<path d="M304.557 642.102L250.55 619.887" stroke="white"/>
<path d="M304.557 642.102L250.55 619.887" stroke="white"/>
<path d="M487.481 522.567L451.767 507.757" stroke="white"/>
<path d="M487.481 522.567L451.767 507.757" stroke="white"/>
<path d="M339.399 489.774L235.742 447.461" stroke="white"/>
<path d="M339.399 489.774L235.742 447.461" stroke="white"/>
<path d="M536.261 708.745L447.412 670.663" stroke="white"/>
<path d="M536.261 708.745L447.412 670.663" stroke="white"/>
<path d="M409.956 463.329L255.777 399.859" stroke="white"/>
<path d="M409.956 463.329L255.777 399.859" stroke="white"/>
<path d="M639.046 415.726L409.956 322.637" stroke="white"/>
<path d="M639.046 415.726L409.956 322.637" stroke="white"/>
<path d="M485.738 623.061L392.534 581.805" stroke="white"/>
<path d="M485.738 623.061L392.534 581.805" stroke="white"/>
<path d="M606.817 672.779L511.871 634.697" stroke="white"/>
<path d="M606.817 672.779L511.871 634.697" stroke="white"/>
<path d="M613.786 473.907L576.33 458.04" stroke="white"/>
<path d="M613.786 473.907L576.33 458.04" stroke="white"/>
<path d="M720.056 408.322L616.399 366.008" stroke="white"/>
<path d="M720.056 408.322L616.399 366.008" stroke="white"/>
<path d="M424.764 287.729L321.107 245.416" stroke="white"/>
<path d="M424.764 287.729L321.107 245.416" stroke="white"/>
<path d="M424.764 287.729L377.726 399.859" stroke="white"/>
<path d="M424.764 287.729L377.726 399.859" stroke="white"/>
<path d="M393.406 581.805L347.239 693.935" stroke="white"/>
<path d="M393.406 581.805L347.239 693.935" stroke="white"/>
<path d="M410.827 462.271L364.661 573.343" stroke="white"/>
<path d="M410.827 462.271L364.661 573.343" stroke="white"/>
<path d="M303.686 642.102L291.491 671.721" stroke="white"/>
<path d="M303.686 642.102L291.491 671.721" stroke="white"/>
<path d="M620.754 458.04L613.785 474.965" stroke="white"/>
<path d="M620.754 458.04L613.785 474.965" stroke="white"/>
<path d="M653.854 380.818L646.886 397.743" stroke="white"/>
<path d="M653.854 380.818L646.886 397.743" stroke="white"/>
<path d="M315.88 542.666L303.685 572.285" stroke="white"/>
<path d="M315.88 542.666L303.685 572.285" stroke="white"/>
<path d="M339.399 488.717L327.204 518.336" stroke="white"/>
<path d="M339.399 488.717L327.204 518.336" stroke="white"/>
<path d="M558.908 653.738L535.389 708.745" stroke="white"/>
<path d="M558.908 653.738L535.389 708.745" stroke="white"/>
<path d="M616.399 364.951L600.647 400.868" stroke="white"/>
<path d="M616.399 364.951L600.647 400.868" stroke="white"/>
<path d="M347.239 320.522L323.72 376.587" stroke="white"/>
<path d="M347.239 320.522L323.72 376.587" stroke="white"/>
<path d="M343.755 628.35L320.236 683.357" stroke="white"/>
<path d="M343.755 628.35L320.236 683.357" stroke="white"/>
<path d="M641.66 408.322L627.723 443.23" stroke="white"/>
<path d="M641.66 408.322L627.723 443.23" stroke="white"/>
<path d="M576.33 458.04L529.292 571.227" stroke="white"/>
<path d="M576.33 458.04L529.292 571.227" stroke="white"/>
<path d="M529.292 370.24L469.188 515.162" stroke="white"/>
<path d="M529.292 370.24L469.188 515.162" stroke="white"/>
<path d="M227.031 728.844L132.085 689.704" stroke="white"/>
<path d="M227.031 728.844L132.085 689.704" stroke="white"/>
<path d="M529.292 854.725L426.506 811.354" stroke="white"/>
<path d="M529.292 854.725L426.506 811.354" stroke="white"/>
<path d="M322.364 245.66L132.471 689.948" stroke="white"/>
<path d="M322.364 245.66L132.471 689.948" stroke="white"/>
<path d="M257.519 656.911L227.032 728.843" stroke="white"/>
<path d="M257.519 656.911L227.032 728.843" stroke="white"/>
<path d="M456.993 739.422L426.506 811.354" stroke="white"/>
<path d="M456.993 739.422L426.506 811.354" stroke="white"/>
<path d="M339.399 594.499L307.17 674.484" stroke="#851F1F" stroke-width="3" stroke-linecap="round"/>
<path d="M397.761 529.972L364.66 605.078" stroke="#811D1D" stroke-width="3" stroke-linecap="round"/>
<path d="M339.399 593.441L364.66 605.078" stroke="#811D1D" stroke-width="3" stroke-linecap="round"/>
<path d="M397.761 529.972L497.934 573.343" stroke="#811D1D" stroke-width="3" stroke-linecap="round"/>
<path d="M659.081 408.322L639.047 455.924" stroke="#811D1D" stroke-width="3" stroke-linecap="round"/>
<path d="M659.081 408.322L626.852 393.512" stroke="#811D1D" stroke-width="3" stroke-linecap="round"/>
<path d="M623.368 379.76L627.723 404.09" stroke="#811D1D" stroke-width="3" stroke-linecap="round"/>
<path d="M633.82 386.107L616.399 398.801" stroke="#811D1D" stroke-width="3" stroke-linecap="round"/>
<path d="M558.908 426.305L497.498 573.343" stroke="#811D1D" stroke-width="3" stroke-linecap="round"/>
<path d="M310.606 664.552L314.168 680.272L299.886 674.367L310.606 664.552Z" fill="#811D1D"/>
</svg>
