<svg width="1920" height="1080" viewBox="0 0 1920 1080" fill="none" xmlns="http://www.w3.org/2000/svg">
<rect width="1920" height="1080" fill="#EBCD94"/>
<rect x="34" y="27.1294" width="1849.15" height="1031.17" transform="rotate(-0.158935 34 27.1294)" fill="#7B5E27"/>
<rect x="1658.77" y="850.217" width="118.191" height="18.8317" transform="rotate(18.5991 1658.77 850.217)" fill="#F5BC4D" stroke="black" stroke-width="0.8"/>
<rect x="1668.83" y="872.16" width="13.0981" height="32.3556" transform="rotate(18.5991 1668.83 872.16)" fill="#F5BC4D" stroke="black" stroke-width="0.8"/>
<rect x="1700.81" y="882.796" width="10.8621" height="18.8317" transform="rotate(18.5991 1700.81 882.796)" fill="#F5BC4D" stroke="black" stroke-width="0.8"/>
<rect x="1773.23" y="866.886" width="63.4087" height="60.5302" transform="rotate(18.5991 1773.23 866.886)" fill="#F5BC4D" stroke="black" stroke-width="0.8"/>
<rect x="1770.09" y="888.729" width="16.8409" height="20.6557" transform="rotate(108.599 1770.09 888.729)" fill="#F5BC4D"/>
<rect x="1713.29" y="876.537" width="16.8409" height="8.83067" transform="rotate(108.599 1713.29 876.537)" fill="#F5BC4D"/>
<rect x="1684.33" y="864.048" width="16.8409" height="11.1194" transform="rotate(108.599 1684.33 864.048)" fill="#F5BC4D"/>
<rect x="1785.15" y="887.545" width="28.7503" height="28.9746" transform="rotate(18.5991 1785.15 887.545)" fill="#7B5E27" stroke="black" stroke-width="0.8"/>
<rect x="119.01" y="350.36" width="543.376" height="326.868" rx="28.5" transform="rotate(-26.3288 119.01 350.36)" fill="white" stroke="black" stroke-width="3"/>
<path d="M274.378 337.484C274.897 338.533 275.564 339.374 276.38 340.008C277.21 340.602 278.1 341.015 279.052 341.247C280.017 341.439 281.023 341.443 282.07 341.259C283.131 341.103 284.145 340.785 285.113 340.306C286.511 339.614 287.514 338.8 288.122 337.863C288.716 336.899 289.062 335.874 289.161 334.788C289.273 333.662 289.197 332.494 288.934 331.285C288.697 330.064 288.441 328.835 288.164 327.599L283.473 318.323L283.074 317.516L280.039 311.587L280.202 311.105C280.202 311.105 280.31 311.051 280.525 310.945C280.754 310.798 280.935 310.692 281.07 310.625C281.58 310.372 282.084 310.173 282.581 310.028C283.092 309.842 283.616 309.616 284.154 309.35C284.692 309.084 285.156 308.77 285.546 308.41C285.937 308.049 286.201 307.534 286.338 306.863L285.998 306.178C285.613 305.398 285.078 304.96 284.394 304.863C283.737 304.753 283.019 304.79 282.24 304.975L280.506 305.833C280.21 305.979 279.807 306.179 279.296 306.432C278.772 306.658 278.368 306.924 278.085 307.232L271.309 310.585C270.947 310.664 270.658 310.757 270.443 310.863C270.241 310.929 269.993 311.036 269.697 311.182C268.998 311.528 268.446 312.035 268.04 312.705C267.662 313.36 267.666 314.078 268.052 314.858C268.411 315.584 269.033 316.029 269.918 316.194C270.307 316.169 270.622 316.13 270.864 316.077C271.133 316.011 271.374 315.958 271.589 315.919C271.818 315.84 272.039 315.747 272.254 315.64C272.47 315.534 272.725 315.407 273.021 315.261C273.478 315.035 273.895 314.795 274.271 314.542C274.662 314.248 275.085 313.988 275.543 313.762C275.623 313.722 275.737 313.682 275.885 313.643C276.02 313.576 276.087 313.543 276.087 313.543L276.569 313.706L276.988 314.553C277.148 314.875 277.328 315.238 277.527 315.642C277.74 316.005 277.859 316.381 277.885 316.77L280.221 321.288L280.62 322.094L283.594 327.903C283.594 327.97 283.62 328.124 283.673 328.366C283.739 328.567 283.786 328.695 283.812 328.749C283.866 328.856 283.952 329.065 284.071 329.374C284.191 329.683 284.317 330.005 284.45 330.341C284.609 330.664 284.749 330.98 284.868 331.289C285.002 331.558 285.095 331.746 285.148 331.853C285.174 332.041 285.186 332.337 285.185 332.739C285.17 333.115 285.114 333.51 285.019 333.926C284.91 334.314 284.774 334.683 284.612 335.031C284.476 335.366 284.301 335.586 284.086 335.693L280.94 337.25C280.805 337.316 280.617 337.309 280.376 337.227C280.162 337.132 280.022 337.018 279.955 336.883L279.915 336.803C279.915 336.736 279.889 336.615 279.836 336.44C279.81 336.252 279.784 336.131 279.757 336.078C279.906 335.703 280.028 335.374 280.123 335.093C280.245 334.798 280.327 334.524 280.368 334.269C280.396 333.987 280.384 333.726 280.331 333.484C280.292 333.202 280.186 332.886 280.013 332.537C279.827 332.16 279.547 331.797 279.173 331.446C278.798 331.096 278.377 330.819 277.908 330.616C277.466 330.4 277.004 330.277 276.521 330.248C276.025 330.192 275.562 330.271 275.131 330.484C274.997 330.55 274.836 330.664 274.647 330.824C274.459 330.984 274.337 331.145 274.283 331.306C273.849 332.391 273.623 333.423 273.606 334.402C273.588 335.381 273.846 336.409 274.378 337.484ZM296.021 296.549C294.677 297.214 293.633 298.082 292.891 299.152C292.135 300.195 291.601 301.347 291.287 302.607C290.973 303.867 290.84 305.188 290.888 306.57C290.923 307.925 291.045 309.254 291.254 310.556C291.293 310.771 291.346 311.08 291.411 311.482C291.49 311.845 291.576 312.221 291.668 312.61C291.747 312.973 291.813 313.309 291.865 313.617C291.945 313.913 291.991 314.074 292.004 314.101L295.217 320.594C295.231 320.621 295.291 320.709 295.397 320.857C295.531 320.992 295.665 321.16 295.798 321.362C295.945 321.523 296.098 321.698 296.259 321.887C296.406 322.048 296.532 322.17 296.639 322.251C297.054 322.682 297.575 323.16 298.203 323.686C298.832 324.212 299.507 324.731 300.229 325.244C300.965 325.716 301.708 326.135 302.458 326.501C303.208 326.866 303.905 327.09 304.548 327.173C304.629 327.201 304.803 327.215 305.071 327.216C305.367 327.204 305.668 327.205 305.977 327.22C306.272 327.207 306.554 327.202 306.822 327.203C307.091 327.204 307.258 327.205 307.325 327.205C308.063 327.208 308.727 327.197 309.318 327.173C309.935 327.135 310.593 326.944 311.293 326.598C311.696 326.398 312.005 326.211 312.221 326.038C312.423 325.837 312.591 325.637 312.726 325.436C312.888 325.222 313.05 325.008 313.212 324.794C313.36 324.553 313.563 324.286 313.819 323.992C314.991 322.709 315.789 321.31 316.211 319.796C316.647 318.241 316.821 316.665 316.733 315.068C316.633 313.445 316.324 311.84 315.807 310.255C315.304 308.629 314.7 307.104 313.995 305.679C313.276 304.227 312.39 302.909 311.335 301.724C310.28 300.539 309.11 299.427 307.827 298.388C307.224 298.185 306.668 297.907 306.16 297.556C305.638 297.179 305.096 296.828 304.534 296.503C304.253 296.341 303.925 296.253 303.549 296.238C303.2 296.209 302.878 296.168 302.583 296.113C301.953 295.99 301.357 295.9 300.793 295.844C300.244 295.748 299.707 295.712 299.184 295.737C298.661 295.761 298.144 295.833 297.633 295.952C297.123 296.07 296.586 296.269 296.021 296.549ZM296.73 314.926C296.291 314.038 295.887 312.883 295.517 311.459C295.174 310.022 294.992 308.572 294.971 307.11C294.95 305.647 295.164 304.286 295.612 303.027C296.06 301.768 296.875 300.845 298.058 300.26C298.811 299.887 299.509 299.776 300.153 299.927C300.783 300.05 301.507 300.194 302.324 300.358C303.182 300.536 303.933 300.801 304.575 301.152C305.204 301.477 305.78 301.862 306.301 302.306C306.823 302.751 307.31 303.263 307.764 303.842C308.231 304.381 308.719 304.96 309.226 305.579L311.8 310.782C312.027 311.239 312.126 311.642 312.097 311.99C312.096 312.326 312.121 312.715 312.173 313.158C312.278 313.708 312.376 314.38 312.467 315.172C312.544 315.937 312.541 316.708 312.457 317.486C312.36 318.237 312.163 318.954 311.865 319.637C311.553 320.293 311.075 320.781 310.43 321.1L306.477 323.056C306.181 323.202 305.759 323.194 305.209 323.031C304.66 322.867 304.084 322.65 303.481 322.379C302.906 322.095 302.35 321.784 301.815 321.447C301.306 321.096 300.952 320.819 300.752 320.617C299.95 319.809 299.209 318.92 298.529 317.952C297.835 316.956 297.236 315.947 296.73 314.926ZM322.474 318.554C322.7 319.011 322.967 319.348 323.274 319.564C323.609 319.766 323.971 319.889 324.36 319.93C324.735 319.945 325.111 319.893 325.487 319.774C325.904 319.668 326.3 319.522 326.676 319.336C327.295 319.03 327.86 318.717 328.371 318.397C328.882 318.077 329.447 317.764 330.065 317.458C330.361 317.312 330.744 317.106 331.215 316.839C331.726 316.587 332.189 316.441 332.605 316.402L338.131 313.668C338.83 313.322 339.375 312.801 339.767 312.105C340.173 311.369 340.183 310.611 339.797 309.831C339.677 309.589 339.477 309.387 339.195 309.225C338.941 309.049 338.667 308.934 338.372 308.879C338.064 308.798 337.748 308.769 337.426 308.795C337.104 308.82 336.822 308.893 336.58 309.013L332.668 310.949L331.924 310.664L326.695 300.097C326.643 299.788 326.57 299.54 326.477 299.351C326.411 299.15 326.318 298.928 326.198 298.686C326.065 298.417 325.945 298.209 325.838 298.061C325.745 297.873 325.585 297.651 325.358 297.395L322.005 290.619L322.087 290.378L322.893 289.979C323.404 289.726 323.908 289.527 324.405 289.381C324.889 289.209 325.386 288.996 325.897 288.743C326.596 288.397 327.121 288.004 327.472 287.562C327.836 287.081 327.825 286.45 327.439 285.671C327.027 284.837 326.485 284.419 325.814 284.416C325.17 284.4 324.472 284.545 323.719 284.85C322.967 285.156 322.221 285.508 321.481 285.908C320.742 286.307 320.097 286.492 319.547 286.463L313.094 289.657C312.758 289.655 312.51 289.694 312.349 289.774C312.201 289.814 312.02 289.887 311.804 289.993C311.509 290.14 311.226 290.346 310.957 290.614C310.674 290.854 310.445 291.135 310.269 291.456C310.12 291.764 310.032 292.092 310.003 292.441C309.975 292.79 310.041 293.126 310.2 293.448C310.347 293.744 310.574 294 310.881 294.216C311.189 294.432 311.524 294.601 311.886 294.723C312.247 294.845 312.616 294.914 312.992 294.929C313.354 294.917 313.683 294.838 313.979 294.691L318.254 292.576L318.535 292.738C318.548 292.765 318.588 292.845 318.655 292.98C318.735 293.074 318.788 293.148 318.815 293.202C318.948 293.471 319.054 293.719 319.134 293.948C319.2 294.149 319.232 294.418 319.231 294.753L328.053 312.58C328.093 312.661 328.038 312.788 327.89 312.962C327.728 313.109 327.553 313.262 327.365 313.422C327.163 313.556 326.961 313.689 326.76 313.822C326.544 313.929 326.423 313.989 326.397 314.002C326.02 314.188 325.63 314.348 325.227 314.48C324.838 314.572 324.455 314.712 324.078 314.898C323.379 315.244 322.841 315.745 322.462 316.401C322.084 317.057 322.088 317.774 322.474 318.554ZM353.358 297.346L357.426 301.609C357.786 302 358.282 302.257 358.912 302.38C359.542 302.504 360.099 302.445 360.583 302.206C361.121 301.94 361.505 301.499 361.735 300.883C361.993 300.253 361.982 299.656 361.702 299.091L355.135 286.023L354.756 285.257L350.225 276.303L350.306 276.062C350.575 275.929 350.884 275.776 351.234 275.603C351.583 275.43 351.913 275.25 352.222 275.063C352.545 274.837 352.821 274.583 353.05 274.302C353.28 274.021 353.415 273.686 353.457 273.298C353.43 273.244 353.371 273.123 353.277 272.935C353.211 272.733 353.165 272.605 353.138 272.552C352.712 271.691 352.084 271.232 351.252 271.175C350.407 271.091 349.581 271.249 348.775 271.648C348.506 271.781 348.284 271.908 348.109 272.028C347.961 272.134 347.786 272.322 347.584 272.589L341.453 275.623C341.077 275.809 340.841 276.11 340.745 276.525C340.636 276.914 340.661 277.27 340.821 277.592C341.101 278.157 341.455 278.534 341.883 278.724C342.312 278.913 342.774 279.002 343.271 278.991C343.781 278.94 344.291 278.821 344.802 278.635C345.312 278.449 345.776 278.27 346.192 278.098L346.735 278.18L352.364 289.554C352.444 289.581 352.564 289.689 352.725 289.877C352.885 290.066 352.978 290.187 353.005 290.241C353.071 290.375 353.184 290.604 353.344 290.926C353.504 291.249 353.657 291.592 353.803 291.955C353.976 292.304 354.129 292.647 354.261 292.983C354.421 293.306 354.534 293.534 354.601 293.669C354.574 293.682 354.574 293.715 354.6 293.769C354.614 293.796 354.6 293.803 354.56 293.789C354.52 293.776 354.433 293.735 354.299 293.667C354.152 293.573 354.051 293.505 353.998 293.465C352.807 292.548 351.611 291.55 350.408 290.472C349.232 289.38 348.129 288.369 347.1 287.439C347.086 287.412 347.026 287.358 346.919 287.277C346.839 287.183 346.759 287.089 346.679 286.995C346.585 286.874 346.485 286.773 346.378 286.692C346.298 286.597 346.251 286.537 346.238 286.51C346.171 286.443 345.977 286.287 345.656 286.045C345.335 285.802 344.988 285.539 344.613 285.255C344.266 284.959 343.931 284.689 343.61 284.446C343.289 284.203 343.095 284.048 343.029 283.981C342.908 283.873 342.628 283.61 342.187 283.193C341.746 282.775 341.271 282.324 340.763 281.838C340.282 281.34 339.828 280.895 339.4 280.505C338.959 280.087 338.679 279.824 338.558 279.716C338.171 279.339 337.662 279.022 337.033 278.764C336.43 278.493 335.86 278.491 335.322 278.757L330.765 281.012C330.119 281.332 329.681 281.799 329.451 282.416C329.22 283.032 329.251 283.636 329.544 284.227C329.611 284.362 329.71 284.53 329.844 284.732C329.964 284.907 330.097 285.075 330.244 285.236C330.405 285.358 330.572 285.459 330.746 285.54C330.934 285.581 331.135 285.549 331.35 285.442L334.214 284.025L334.676 284.148C336.047 286.917 337.464 289.647 338.929 292.336C340.38 294.999 341.785 297.701 343.142 300.444C343.421 301.008 343.654 301.579 343.839 302.157C344.011 302.708 344.271 303.266 344.617 303.831L344.454 304.313C344.347 304.366 344.165 304.473 343.909 304.633C343.667 304.752 343.405 304.899 343.123 305.072C342.854 305.205 342.592 305.352 342.336 305.512C342.094 305.631 341.919 305.718 341.812 305.771C341.354 306.064 341.124 306.513 341.122 307.117C341.133 307.68 341.178 308.177 341.257 308.606L341.456 309.01C341.682 309.467 342.023 309.784 342.479 309.96C342.948 310.096 343.431 310.125 343.927 310.046C344.089 309.967 344.364 309.847 344.754 309.688C345.171 309.515 345.601 309.335 346.044 309.149C346.474 308.937 346.884 308.75 347.274 308.591C347.677 308.391 347.96 308.252 348.121 308.172L348.726 307.873C349.748 307.367 350.682 306.821 351.53 306.234C352.378 305.647 353.339 305.121 354.414 304.656C354.886 304.255 355.102 303.813 355.064 303.33C355.012 302.82 354.88 302.35 354.667 301.92L354.388 301.355L353.423 301.029C353.383 301.016 353.269 301.022 353.081 301.048C352.92 301.061 352.719 301.094 352.477 301.146C352.249 301.159 352.014 301.191 351.772 301.244C351.517 301.27 351.329 301.296 351.208 301.322L350.805 301.522C350.563 301.641 350.381 301.815 350.259 302.043C350.151 302.23 349.976 302.384 349.734 302.503C349.546 302.597 349.251 302.609 348.849 302.54C348.446 302.471 348.192 302.329 348.086 302.114L346.05 298C346.011 297.651 345.932 297.356 345.812 297.114C345.679 296.845 345.539 296.563 345.393 296.267C345.247 295.971 345.114 295.702 344.994 295.46C344.861 295.191 344.667 294.936 344.413 294.693L340.422 286.627L340.583 286.547C340.583 286.547 340.904 286.823 341.546 287.376C342.214 287.915 343.003 288.563 343.912 289.318C344.848 290.06 345.804 290.842 346.78 291.664C347.756 292.486 348.559 293.161 349.187 293.686C349.922 294.293 350.604 294.927 351.232 295.587C351.887 296.233 352.595 296.82 353.358 297.346ZM396.492 283.834C397.057 283.554 397.648 283.362 398.265 283.257C398.883 283.153 399.461 282.967 399.998 282.701L400.079 282.661C400.119 282.608 400.221 282.507 400.382 282.36C400.571 282.2 400.685 282.093 400.726 282.04L410.042 277.429C410.338 277.283 410.56 277.056 410.709 276.748C410.872 276.4 410.96 276.038 410.975 275.662C411.017 275.273 411.012 274.891 410.96 274.515C410.894 274.112 410.802 273.79 410.682 273.548C410.576 273.333 410.476 273.165 410.382 273.044C410.302 272.882 410.129 272.7 409.861 272.498L406.349 265.4C406.096 264.889 405.728 264.518 405.246 264.288C404.791 264.045 404.322 264.043 403.838 264.282C403.273 264.562 402.956 264.97 402.887 265.506C402.831 266.002 402.896 266.573 403.081 267.218C403.293 267.849 403.559 268.521 403.878 269.233C404.224 269.932 404.502 270.631 404.714 271.33C404.94 271.988 405.051 272.619 405.049 273.223C405.06 273.786 404.83 274.268 404.358 274.669C404.224 274.736 404.002 274.862 403.693 275.049C403.397 275.195 403.081 275.368 402.745 275.568C402.395 275.741 402.066 275.921 401.756 276.107C401.447 276.294 401.238 276.414 401.131 276.467C400.848 276.64 400.64 276.861 400.504 277.128C400.356 277.369 400.147 277.556 399.878 277.689C399.744 277.756 399.663 277.796 399.636 277.809C399.596 277.796 399.542 277.789 399.475 277.788C399.435 277.775 399.368 277.774 399.274 277.788C399.194 277.76 399.039 277.753 398.811 277.765C398.717 277.779 398.556 277.825 398.328 277.904C398.099 277.984 397.871 278.063 397.642 278.143C397.414 278.223 397.212 278.289 397.038 278.342C396.85 278.368 396.736 278.341 396.696 278.26L388.952 262.611C388.952 262.544 388.919 262.41 388.853 262.208C388.801 261.967 388.761 261.819 388.734 261.765C388.668 261.631 388.568 261.395 388.435 261.059C388.303 260.723 388.143 260.367 387.957 259.991C387.797 259.601 387.638 259.245 387.478 258.922C387.345 258.586 387.246 258.351 387.179 258.217L387.261 257.975L391.859 255.7C392.343 255.461 392.639 255.113 392.748 254.657C392.871 254.161 392.819 253.685 392.593 253.228C392.354 252.744 392.04 252.414 391.651 252.238C391.29 252.049 390.895 251.96 390.465 251.971C390.036 251.983 389.593 252.068 389.136 252.227C388.706 252.373 388.303 252.539 387.926 252.726C387.469 252.952 387.052 253.192 386.676 253.445C386.299 253.698 385.895 253.931 385.465 254.144C385.062 254.344 384.659 254.51 384.256 254.642C383.853 254.775 383.436 254.948 383.006 255.161C382.576 255.373 382.172 255.607 381.795 255.86C381.419 256.113 381.015 256.346 380.585 256.559C380.047 256.825 379.483 257.038 378.892 257.196C378.301 257.355 377.737 257.567 377.199 257.833C376.527 258.166 376.022 258.633 375.684 259.236C375.346 259.838 375.357 260.502 375.716 261.228C375.942 261.685 376.316 262.069 376.838 262.38C377.387 262.677 377.93 262.693 378.468 262.427L382.743 260.311L383.466 260.657C383.493 260.643 383.593 260.811 383.766 261.161C383.926 261.484 384.052 261.739 384.145 261.927C384.278 262.196 384.498 262.64 384.804 263.258C385.097 263.85 385.269 264.367 385.321 264.81L391.328 276.95C391.622 277.206 391.856 277.509 392.029 277.858C392.202 278.208 392.361 278.53 392.508 278.826C392.561 278.934 392.647 279.142 392.767 279.451C392.913 279.747 393.013 279.949 393.066 280.056C393.038 280.338 392.943 280.619 392.781 280.9C392.619 281.181 392.417 281.382 392.175 281.501C391.718 281.728 391.234 281.867 390.724 281.918C390.201 281.943 389.71 282.068 389.253 282.294C388.554 282.64 388.076 283.095 387.819 283.657C387.562 284.219 387.613 284.864 387.972 285.59C388.318 286.289 388.839 286.734 389.536 286.924C390.247 287.075 390.951 286.977 391.65 286.631C392.511 286.205 393.318 285.739 394.071 285.232C394.852 284.712 395.658 284.246 396.492 283.834ZM409.155 240.564C407.811 241.229 406.767 242.097 406.025 243.167C405.269 244.21 404.735 245.362 404.421 246.622C404.107 247.882 403.974 249.203 404.022 250.585C404.057 251.94 404.179 253.269 404.388 254.571C404.427 254.786 404.48 255.095 404.545 255.497C404.624 255.86 404.71 256.236 404.802 256.625C404.881 256.988 404.947 257.324 404.999 257.632C405.079 257.928 405.125 258.089 405.138 258.116L408.351 264.609C408.365 264.636 408.425 264.724 408.532 264.872C408.665 265.007 408.799 265.175 408.932 265.377C409.079 265.538 409.232 265.713 409.393 265.902C409.54 266.063 409.667 266.185 409.774 266.266C410.188 266.697 410.709 267.175 411.337 267.701C411.966 268.227 412.641 268.746 413.363 269.259C414.099 269.731 414.842 270.15 415.592 270.516C416.342 270.881 417.039 271.105 417.682 271.188C417.763 271.216 417.937 271.23 418.205 271.231C418.501 271.219 418.803 271.22 419.111 271.235C419.406 271.222 419.688 271.217 419.956 271.218C420.225 271.219 420.392 271.22 420.459 271.22C421.197 271.223 421.862 271.212 422.452 271.188C423.069 271.15 423.727 270.958 424.427 270.613C424.83 270.413 425.139 270.226 425.355 270.053C425.557 269.852 425.725 269.652 425.86 269.451C426.022 269.237 426.184 269.023 426.346 268.809C426.494 268.568 426.697 268.301 426.953 268.007C428.125 266.724 428.923 265.325 429.345 263.811C429.781 262.256 429.955 260.68 429.868 259.083C429.767 257.46 429.458 255.855 428.942 254.27C428.438 252.644 427.834 251.119 427.129 249.694C426.411 248.242 425.524 246.923 424.469 245.738C423.414 244.553 422.244 243.442 420.961 242.403C420.358 242.2 419.802 241.922 419.294 241.571C418.772 241.194 418.23 240.843 417.668 240.518C417.387 240.356 417.059 240.268 416.683 240.253C416.334 240.224 416.012 240.183 415.717 240.128C415.087 240.004 414.491 239.915 413.927 239.859C413.378 239.763 412.841 239.727 412.318 239.752C411.795 239.776 411.278 239.848 410.767 239.967C410.257 240.085 409.72 240.284 409.155 240.564ZM409.864 258.94C409.425 258.053 409.021 256.898 408.651 255.474C408.308 254.037 408.126 252.587 408.105 251.125C408.084 249.662 408.298 248.301 408.746 247.042C409.194 245.783 410.009 244.86 411.192 244.275C411.945 243.902 412.643 243.791 413.287 243.942C413.917 244.065 414.641 244.209 415.458 244.373C416.316 244.551 417.067 244.816 417.709 245.167C418.338 245.492 418.914 245.877 419.435 246.321C419.957 246.766 420.444 247.278 420.898 247.857C421.365 248.396 421.853 248.974 422.36 249.594L424.935 254.797C425.161 255.254 425.26 255.657 425.231 256.005C425.23 256.341 425.255 256.73 425.307 257.173C425.412 257.723 425.51 258.395 425.601 259.186C425.678 259.952 425.675 260.723 425.591 261.501C425.494 262.252 425.297 262.969 424.999 263.652C424.687 264.308 424.209 264.796 423.564 265.115L419.611 267.071C419.315 267.217 418.893 267.209 418.343 267.045C417.794 266.882 417.218 266.665 416.615 266.394C416.04 266.11 415.484 265.799 414.949 265.462C414.441 265.111 414.086 264.834 413.886 264.632C413.084 263.824 412.343 262.935 411.663 261.967C410.969 260.971 410.37 259.962 409.864 258.94ZM435.568 262.488C435.86 263.08 436.301 263.498 436.891 263.742C437.467 263.959 438.064 263.914 438.682 263.608L439.166 263.369C439.677 263.116 440.531 262.677 441.728 262.051C442.965 261.439 444.309 260.774 445.761 260.055C447.213 259.337 448.544 258.678 449.754 258.079C450.977 257.44 451.858 256.988 452.396 256.722C453.082 256.215 453.668 255.64 454.154 254.998C454.666 254.343 455.165 253.661 455.651 252.952C455.922 252.282 456.1 251.558 456.183 250.78C456.267 250.003 456.264 249.218 456.173 248.426C456.109 247.62 455.978 246.848 455.78 246.11C455.569 245.344 455.31 244.652 455.004 244.034C454.578 243.173 454.098 242.474 453.563 241.935C453.016 241.369 452.334 240.803 451.518 240.236C451.33 240.128 451.103 240.04 450.835 239.971C450.567 239.903 450.292 239.822 450.011 239.726C449.729 239.631 449.468 239.543 449.227 239.462C448.999 239.34 448.845 239.198 448.766 239.037C448.619 238.741 448.594 238.319 448.69 237.769C448.787 237.219 448.862 236.83 448.917 236.603C449 235.959 448.962 235.275 448.804 234.549C448.646 233.824 448.421 233.166 448.128 232.574C447.529 231.364 446.822 230.409 446.007 229.708C445.205 228.967 444.315 228.453 443.336 228.167C442.358 227.882 441.292 227.79 440.138 227.893C438.997 227.955 437.789 228.185 436.512 228.582L435.706 228.981C434.577 229.54 433.501 230.173 432.478 230.88C431.455 231.587 430.38 232.219 429.25 232.778L426.79 233.996C426.24 234.101 425.796 234.22 425.46 234.353C425.111 234.458 424.721 234.618 424.291 234.831C423.7 235.123 423.322 235.545 423.159 236.094C422.982 236.616 423.04 237.173 423.333 237.765C423.706 238.518 424.234 238.943 424.918 239.039C425.615 239.096 426.313 238.951 427.013 238.605C427.335 238.446 427.631 238.266 427.9 238.066C428.196 237.852 428.506 237.666 428.828 237.506L429.111 237.366C429.326 237.26 429.574 237.187 429.856 237.148C430.138 237.109 430.319 237.17 430.399 237.331L440.478 257.699L440.396 257.94C440.369 257.953 440.268 258.02 440.094 258.14C439.932 258.22 439.811 258.28 439.731 258.32C439.247 258.559 438.763 258.765 438.279 258.938C437.782 259.083 437.305 259.269 436.848 259.495L435.88 259.974C435.219 260.736 435.115 261.574 435.568 262.488ZM439.943 245.964C440.131 245.871 440.305 245.818 440.466 245.805C440.654 245.779 440.842 245.719 441.031 245.626C441.219 245.533 441.36 245.447 441.454 245.366C441.549 245.286 441.663 245.112 441.799 244.845L446.356 242.589C446.41 242.563 446.564 242.57 446.819 242.611C447.087 242.612 447.282 242.633 447.402 242.674L450.236 243.632C450.611 243.781 450.898 244.091 451.097 244.561C451.324 245.018 451.523 245.421 451.696 245.771C452.042 246.47 452.294 247.115 452.453 247.706C452.638 248.284 452.703 248.854 452.647 249.417C452.578 249.954 452.394 250.496 452.097 251.045C451.827 251.581 451.408 252.156 450.842 252.771C449.914 253.263 449.02 253.79 448.159 254.35C447.312 254.869 446.431 255.355 445.517 255.808C445.355 255.888 445.093 255.967 444.731 256.046C444.382 256.085 444.148 255.983 444.028 255.741L439.577 246.747C439.55 246.693 439.564 246.586 439.619 246.425C439.7 246.251 439.767 246.117 439.822 246.024L439.943 245.964ZM433.789 235.051L438.831 232.556C439.435 232.425 439.912 232.306 440.261 232.2C440.624 232.054 440.966 231.968 441.288 231.942C441.597 231.89 441.919 231.932 442.254 232.067C442.602 232.163 443.064 232.386 443.64 232.737C443.8 232.791 443.907 232.872 443.961 232.98L445.278 235.642C445.411 235.911 445.457 236.206 445.415 236.528C445.4 236.836 445.339 237.151 445.23 237.473C445.108 237.768 444.966 238.055 444.804 238.337C444.669 238.604 444.534 238.839 444.399 239.039C443.699 239.452 442.886 239.905 441.958 240.398C441.03 240.89 440.136 241.349 439.276 241.775L438.792 242.015C438.523 242.148 438.227 242.261 437.905 242.353C437.596 242.406 437.368 242.284 437.222 241.988L433.789 235.051ZM460.164 250.317C460.457 250.908 460.898 251.326 461.487 251.57C462.063 251.787 462.66 251.743 463.279 251.437L463.763 251.197C464.273 250.944 465.127 250.505 466.324 249.879C467.561 249.267 468.905 248.602 470.357 247.884C471.809 247.165 473.14 246.506 474.35 245.908C475.573 245.269 476.454 244.816 476.992 244.55C477.678 244.043 478.264 243.469 478.75 242.827C479.262 242.171 479.761 241.489 480.247 240.78C480.519 240.11 480.696 239.387 480.78 238.609C480.863 237.831 480.86 237.046 480.769 236.254C480.705 235.449 480.574 234.677 480.376 233.938C480.165 233.173 479.906 232.481 479.6 231.862C479.174 231.002 478.694 230.302 478.16 229.763C477.612 229.197 476.93 228.631 476.114 228.064C475.927 227.956 475.699 227.868 475.431 227.8C475.163 227.732 474.888 227.65 474.607 227.555C474.325 227.46 474.064 227.372 473.823 227.29C473.595 227.168 473.442 227.027 473.362 226.866C473.215 226.57 473.19 226.147 473.286 225.597C473.383 225.048 473.458 224.659 473.513 224.431C473.596 223.787 473.558 223.103 473.4 222.378C473.242 221.653 473.017 220.994 472.724 220.403C472.126 219.193 471.418 218.237 470.603 217.536C469.801 216.795 468.911 216.282 467.933 215.996C466.954 215.71 465.888 215.619 464.734 215.721C463.593 215.783 462.385 216.013 461.109 216.411L460.302 216.81C459.173 217.369 458.097 218.001 457.074 218.708C456.052 219.415 454.976 220.048 453.846 220.607L451.386 221.824C450.836 221.929 450.392 222.048 450.056 222.181C449.707 222.287 449.317 222.446 448.887 222.659C448.296 222.952 447.918 223.373 447.755 223.922C447.578 224.445 447.637 225.002 447.929 225.593C448.302 226.346 448.83 226.771 449.514 226.868C450.211 226.924 450.91 226.78 451.609 226.434C451.931 226.274 452.227 226.094 452.496 225.894C452.792 225.681 453.102 225.494 453.424 225.334L453.707 225.195C453.922 225.088 454.17 225.015 454.452 224.976C454.734 224.937 454.915 224.998 454.995 225.16L465.074 245.527L464.992 245.768C464.965 245.782 464.865 245.848 464.69 245.968C464.528 246.048 464.407 246.108 464.327 246.148C463.843 246.388 463.359 246.594 462.875 246.766C462.378 246.912 461.901 247.097 461.444 247.324L460.476 247.803C459.815 248.565 459.711 249.403 460.164 250.317ZM464.539 233.792C464.727 233.699 464.902 233.646 465.063 233.634C465.25 233.607 465.439 233.548 465.627 233.455C465.815 233.362 465.956 233.275 466.05 233.195C466.145 233.115 466.259 232.941 466.395 232.673L470.952 230.418C471.006 230.391 471.16 230.398 471.415 230.44C471.683 230.441 471.878 230.462 471.998 230.503L474.832 231.46C475.207 231.609 475.494 231.919 475.694 232.389C475.92 232.846 476.119 233.25 476.292 233.599C476.638 234.298 476.891 234.943 477.049 235.534C477.235 236.112 477.299 236.683 477.243 237.246C477.174 237.782 476.991 238.325 476.693 238.874C476.423 239.409 476.004 239.984 475.438 240.599C474.511 241.092 473.616 241.618 472.755 242.178C471.908 242.698 471.027 243.184 470.113 243.636C469.952 243.716 469.69 243.796 469.327 243.875C468.978 243.913 468.744 243.812 468.624 243.57L464.173 234.576C464.147 234.522 464.16 234.415 464.215 234.254C464.296 234.08 464.364 233.946 464.418 233.852L464.539 233.792ZM458.385 222.879L463.427 220.385C464.031 220.253 464.508 220.134 464.857 220.028C465.22 219.882 465.562 219.796 465.884 219.771C466.193 219.719 466.515 219.76 466.85 219.896C467.198 219.991 467.66 220.214 468.236 220.566C468.397 220.62 468.504 220.701 468.557 220.808L469.874 223.47C470.007 223.739 470.053 224.034 470.011 224.356C469.997 224.665 469.935 224.98 469.826 225.301C469.704 225.596 469.562 225.884 469.4 226.165C469.265 226.433 469.13 226.667 468.995 226.868C468.295 227.281 467.482 227.734 466.554 228.226C465.626 228.719 464.732 229.178 463.872 229.604L463.388 229.843C463.119 229.976 462.823 230.089 462.501 230.182C462.192 230.234 461.964 230.112 461.818 229.817L458.385 222.879ZM489.036 235.728C489.342 236.346 489.844 236.751 490.541 236.942C491.238 237.132 491.895 237.075 492.514 236.769L497.757 234.174L498.403 233.553L503.929 230.818C504.44 230.566 504.71 230.131 504.739 229.514C504.795 228.883 504.717 228.353 504.504 227.923C504.238 227.385 503.79 227.122 503.159 227.132C502.529 227.143 501.958 227.242 501.447 227.427C501.313 227.494 501.078 227.593 500.742 227.726C500.433 227.846 500.103 227.992 499.754 228.165C499.391 228.311 499.048 228.464 498.726 228.624C498.416 228.743 498.195 228.836 498.06 228.903L497.819 228.821L496.718 227.408L493.824 221.56C493.811 221.533 493.791 221.459 493.765 221.338C493.765 221.204 493.766 221.103 493.766 221.036C493.748 218.903 493.723 216.79 493.691 214.697C493.647 212.577 493.615 210.45 493.597 208.317C493.584 208.156 493.578 207.941 493.58 207.673C493.594 207.364 493.595 207.062 493.583 206.767C493.571 206.472 493.565 206.224 493.566 206.022C493.581 205.781 493.588 205.627 493.588 205.559C493.615 205.479 493.656 205.359 493.71 205.198C493.752 205.01 493.799 204.903 493.853 204.876L496.071 203.779C496.259 203.685 496.394 203.552 496.475 203.378C496.57 203.164 496.618 202.956 496.619 202.755C496.606 202.526 496.567 202.312 496.5 202.11C496.461 201.895 496.401 201.707 496.322 201.546C496.122 201.142 495.842 200.846 495.48 200.657C495.145 200.454 494.77 200.339 494.355 200.31C493.925 200.255 493.496 200.266 493.066 200.345C492.637 200.424 492.247 200.55 491.898 200.723C491.494 200.922 491.118 201.142 490.768 201.382C490.418 201.622 490.028 201.849 489.598 202.061C489.141 202.288 488.697 202.474 488.267 202.619C487.864 202.752 487.434 202.931 486.977 203.157C486.439 203.424 486.035 203.791 485.765 204.259C485.508 204.688 485.526 205.198 485.819 205.789C486.059 206.273 486.312 206.583 486.58 206.718C486.848 206.853 487.143 206.942 487.464 206.983C487.773 206.998 488.081 207.013 488.39 207.027C488.725 207.029 489.04 207.124 489.335 207.313C489.388 207.353 489.448 207.441 489.515 207.575C489.568 207.683 489.608 207.764 489.634 207.817C489.821 208.194 489.927 208.577 489.952 208.966C490.004 209.342 490.029 209.731 490.027 210.133C490.012 210.509 489.991 210.905 489.962 211.32C489.92 211.709 489.912 212.098 489.937 212.487C489.937 212.555 489.95 212.682 489.976 212.87C490.002 213.058 490.028 213.279 490.054 213.534C490.093 213.749 490.119 213.971 490.131 214.199C490.157 214.387 490.177 214.494 490.19 214.521C490.177 214.628 490.169 214.816 490.168 215.085C490.194 215.34 490.199 215.621 490.185 215.93C490.197 216.225 490.202 216.507 490.201 216.775C490.187 217.017 490.173 217.191 490.159 217.298C490.185 217.419 490.145 217.506 490.037 217.559C489.956 217.599 489.889 217.633 489.835 217.659C489.674 217.739 489.493 217.745 489.292 217.677C489.091 217.609 488.897 217.521 488.709 217.413C488.509 217.278 488.321 217.136 488.148 216.988C487.961 216.813 487.793 216.678 487.646 216.583L482.912 213.002C482.805 212.921 482.571 212.719 482.21 212.395C481.876 212.058 481.648 211.836 481.528 211.728C481.528 211.728 481.508 211.722 481.468 211.708C481.441 211.654 481.421 211.614 481.408 211.587C481.302 211.372 481.349 211.164 481.551 210.964C481.78 210.75 482.016 210.516 482.259 210.262C482.501 210.008 482.69 209.714 482.826 209.379C482.975 209.004 482.93 208.574 482.69 208.091C482.371 207.445 481.95 207.068 481.427 206.958C480.904 206.849 480.354 206.887 479.776 207.072C479.185 207.231 478.601 207.47 478.023 207.79C477.471 208.096 476.987 208.335 476.571 208.508C476.517 208.535 476.369 208.574 476.127 208.627C475.913 208.666 475.778 208.699 475.724 208.726L475.483 208.846C475.052 209.059 474.615 209.325 474.171 209.645C473.714 209.939 473.317 210.286 472.979 210.687C472.669 211.075 472.453 211.516 472.33 212.012C472.221 212.468 472.299 212.965 472.565 213.503C472.805 213.987 473.112 214.303 473.487 214.452C473.876 214.561 474.271 214.583 474.674 214.518C475.091 214.412 475.507 214.273 475.924 214.1C476.354 213.887 476.744 213.694 477.093 213.521C477.469 213.603 477.81 213.752 478.118 213.968C478.439 214.144 478.747 214.36 479.041 214.616C479.335 214.872 479.629 215.128 479.923 215.384C480.244 215.627 480.565 215.837 480.887 216.012C480.927 216.026 481.054 216.08 481.268 216.175C481.483 216.27 481.617 216.337 481.67 216.378C482.245 216.863 482.759 217.362 483.213 217.873C483.667 218.385 484.249 218.783 484.959 219.068L490.194 223.356L493.867 230.777L493.825 230.998C493.772 231.025 493.617 231.118 493.361 231.278C493.093 231.411 492.891 231.511 492.756 231.577C492.299 231.804 491.856 231.99 491.426 232.135C491.01 232.241 490.586 232.4 490.156 232.613C489.618 232.879 489.227 233.341 488.983 233.997C488.753 234.613 488.77 235.19 489.036 235.728Z" fill="black"/>
<rect x="210.055" y="537.726" width="546.376" height="62.9429" transform="rotate(-26.3288 210.055 537.726)" fill="black"/>
<path d="M253.079 402.607C259.756 400.336 274.981 402.597 277.135 393.612C277.656 391.438 277.491 388.311 279.392 386.784C283.341 383.61 289.564 382.021 294.338 380.735C297.324 379.93 311.137 378.836 311.647 374.971C312.586 367.852 321.887 365.953 327.379 368.102C329.464 368.918 335.58 373.834 337.957 373.05C339.912 372.406 339.579 367.554 340.107 366.005C343.781 355.238 358.641 364.584 365.339 366.396C368.465 367.242 373.506 369.295 376.596 367.022C380.344 364.265 378.989 359.755 381.373 356.522C388.416 346.97 399.546 338.884 404.32 327.764C407.454 320.466 414.559 327.216 418.715 329.692C422.111 331.715 424.562 314.184 427.446 311.632C429.96 309.408 435.187 309.809 438.241 310.008C446.099 310.52 452.444 311.588 460.186 308.685C469.879 305.05 474.504 295.966 481.986 289.546C485.447 286.577 493.944 294.799 496.952 297.01C502.133 300.818 507.647 282.918 509.501 279.217C512.246 273.734 519.476 271.748 524.602 269.212C528.404 267.33 532.206 265.449 536.008 263.567C548.869 257.203 559.238 248.659 570.489 239.716" stroke="black" stroke-width="3" stroke-linecap="round"/>
<path d="M250.208 468.184C261.634 462.53 273.123 453.271 285.36 454.086C291.581 454.5 305.445 446.379 310.239 442.153C315.369 437.63 315.645 430.914 324.496 431.53C331.55 432.022 339.878 440.025 348.052 435.114C358.204 429.015 361.888 418.017 370.815 410.501C378.82 403.761 392.508 397.411 402.218 398.149C413.963 399.043 429.816 397.847 440.834 388.606C448.496 382.181 452.695 371.432 458.946 363.916C462.94 359.114 471.653 352.494 478.089 351.092C487.554 349.031 497.164 351.389 506.792 347.806C518.906 343.297 521.906 335.884 529.838 328.348C533.517 324.852 537.893 321.93 542.602 319.6C548.487 316.688 556.344 311.295 562.616 309.912C567.981 308.729 573.363 308.488 578.874 307.001C584.496 305.484 589.573 303.014 595.152 301.378C607.154 297.858 617.56 292.705 628.347 285.924" stroke="black" stroke-width="3" stroke-linecap="round"/>
<rect x="338.729" y="884.386" width="118.191" height="18.8317" transform="rotate(-132.651 338.729 884.386)" fill="#F5BC4D" stroke="black" stroke-width="0.8"/>
<rect x="340.465" y="860.31" width="13.0981" height="32.3556" transform="rotate(-132.651 340.465 860.31)" fill="#F5BC4D" stroke="black" stroke-width="0.8"/>
<rect x="317.537" y="835.6" width="10.8621" height="18.8317" transform="rotate(-132.651 317.537 835.6)" fill="#F5BC4D" stroke="black" stroke-width="0.8"/>
<rect x="246.396" y="814.718" width="63.4087" height="60.5302" transform="rotate(-132.651 246.396 814.718)" fill="#F5BC4D" stroke="black" stroke-width="0.8"/>
<rect x="259.654" y="797.077" width="16.8409" height="20.6557" transform="rotate(-42.651 259.654 797.077)" fill="#F5BC4D"/>
<rect x="303.584" y="835.085" width="16.8409" height="8.83067" transform="rotate(-42.651 303.584 835.085)" fill="#F5BC4D"/>
<rect x="322.973" y="859.967" width="16.8409" height="11.1194" transform="rotate(-42.651 322.973 859.967)" fill="#F5BC4D"/>
<rect x="245.88" y="790.872" width="28.7503" height="28.9746" transform="rotate(-132.651 245.88 790.872)" fill="#7B5E27" stroke="black" stroke-width="0.8"/>
<mask id="path-24-inside-1_124_1014" fill="white">
<path fill-rule="evenodd" clip-rule="evenodd" d="M683.137 730.794L672.772 724.363L562.872 913.574C561.705 914.055 560.863 914.751 560.401 915.671C557.442 921.564 571.163 934.435 591.047 944.418C610.931 954.401 629.449 957.717 632.408 951.823C632.666 951.308 632.798 950.741 632.809 950.126L717.706 747.58L694.489 737.719L683.137 730.794Z"/>
</mask>
<path fill-rule="evenodd" clip-rule="evenodd" d="M683.137 730.794L672.772 724.363L562.872 913.574C561.705 914.055 560.863 914.751 560.401 915.671C557.442 921.564 571.163 934.435 591.047 944.418C610.931 954.401 629.449 957.717 632.408 951.823C632.666 951.308 632.798 950.741 632.809 950.126L717.706 747.58L694.489 737.719L683.137 730.794Z" fill="#323232"/>
<path d="M672.772 724.363L673.299 723.513L672.424 722.97L671.907 723.86L672.772 724.363ZM683.137 730.794L682.609 731.644L682.616 731.648L683.137 730.794ZM562.872 913.574L563.253 914.498L563.567 914.369L563.737 914.076L562.872 913.574ZM560.401 915.671L561.295 916.12H561.295L560.401 915.671ZM591.047 944.418L591.496 943.524L591.047 944.418ZM632.408 951.823L633.302 952.272H633.302L632.408 951.823ZM632.809 950.126L631.886 949.739L631.812 949.916L631.809 950.108L632.809 950.126ZM717.706 747.58L718.628 747.966L719.013 747.048L718.097 746.659L717.706 747.58ZM694.489 737.719L693.968 738.573L694.03 738.611L694.098 738.64L694.489 737.719ZM672.244 725.212L682.609 731.644L683.664 729.944L673.299 723.513L672.244 725.212ZM563.737 914.076L673.636 724.865L671.907 723.86L562.008 913.072L563.737 914.076ZM561.295 916.12C561.621 915.471 562.242 914.915 563.253 914.498L562.491 912.649C561.168 913.194 560.106 914.03 559.508 915.222L561.295 916.12ZM591.496 943.524C581.615 938.564 573.3 932.901 567.842 927.782C565.108 925.217 563.135 922.829 562.026 920.771C560.9 918.683 560.775 917.155 561.295 916.12L559.508 915.222C558.548 917.134 559.028 919.425 560.265 921.72C561.518 924.044 563.662 926.603 566.474 929.24C572.108 934.525 580.595 940.29 590.598 945.312L591.496 943.524ZM631.514 951.374C630.995 952.41 629.695 953.222 627.348 953.567C625.035 953.907 621.94 953.751 618.251 953.09C610.884 951.771 601.377 948.485 591.496 943.524L590.598 945.312C600.602 950.334 610.295 953.697 617.898 955.059C621.693 955.738 625.026 955.93 627.639 955.546C630.217 955.167 632.342 954.184 633.302 952.272L631.514 951.374ZM631.809 950.108C631.8 950.588 631.699 951.007 631.514 951.374L633.302 952.272C633.634 951.61 633.795 950.893 633.808 950.144L631.809 950.108ZM716.783 747.193L631.886 949.739L633.731 950.512L718.628 747.966L716.783 747.193ZM694.098 738.64L717.315 748.5L718.097 746.659L694.879 736.799L694.098 738.64ZM682.616 731.648L693.968 738.573L695.009 736.866L683.658 729.94L682.616 731.648Z" fill="black" mask="url(#path-24-inside-1_124_1014)"/>
<path d="M868.544 646C868.544 710.87 813.275 763.5 745.044 763.5C676.813 763.5 621.544 710.87 621.544 646C621.544 581.13 676.813 528.5 745.044 528.5C813.275 528.5 868.544 581.13 868.544 646Z" fill="#323232" stroke="black"/>
<path d="M843.544 646C843.544 697.612 799.247 739.5 744.544 739.5C689.841 739.5 645.544 697.612 645.544 646C645.544 594.388 689.841 552.5 744.544 552.5C799.247 552.5 843.544 594.388 843.544 646Z" fill="#CCCCCC" stroke="black"/>
<ellipse cx="772.544" cy="646" rx="54.5" ry="65" fill="#EDEDED"/>
<ellipse cx="751.544" cy="654" rx="62.5" ry="73" fill="#CCCCCC"/>
<rect x="525" y="75" width="917" height="917" fill="#1880BB" stroke="black" stroke-width="6"/>
<path d="M754.411 158.466C755.819 160.842 757.733 162.558 760.153 163.614C762.573 164.67 765.103 165.198 767.743 165.198C769.503 165.198 771.175 164.714 772.759 163.746C774.343 162.778 775.751 161.568 776.983 160.116C778.215 158.62 779.183 156.992 779.887 155.232C780.635 153.428 781.009 151.712 781.009 150.084C781.009 149.644 780.987 149.182 780.943 148.698C780.943 148.214 780.855 147.774 780.679 147.378C780.503 146.982 780.239 146.674 779.887 146.454C779.579 146.19 779.139 146.058 778.567 146.058C777.643 146.058 776.917 146.498 776.389 147.378C775.949 148.61 775.465 149.908 774.937 151.272C774.453 152.592 773.837 153.824 773.089 154.968C772.341 156.068 771.417 156.992 770.317 157.74C769.217 158.444 767.875 158.796 766.291 158.796C766.115 158.796 765.851 158.796 765.499 158.796C765.191 158.752 765.015 158.73 764.971 158.73C763.519 158.378 762.287 157.784 761.275 156.948C760.307 156.068 759.515 155.078 758.899 153.978C758.283 152.834 757.799 151.602 757.447 150.282C757.139 148.962 756.897 147.642 756.721 146.322C756.677 146.234 756.633 146.014 756.589 145.662C756.545 145.31 756.501 145.09 756.457 145.002V136.752C756.457 135.564 756.611 134.376 756.919 133.188C757.227 131.956 757.667 130.79 758.239 129.69C758.811 128.546 759.493 127.49 760.285 126.522C761.077 125.554 761.957 124.74 762.925 124.08C763.013 124.036 763.101 123.992 763.189 123.948C763.321 123.86 763.409 123.816 763.453 123.816H767.809C767.853 123.816 767.963 123.86 768.139 123.948C768.359 123.992 768.513 124.036 768.601 124.08C769.525 124.52 770.295 124.96 770.911 125.4C771.527 125.84 772.033 126.346 772.429 126.918C772.869 127.446 773.221 128.062 773.485 128.766C773.749 129.47 774.013 130.328 774.277 131.34C774.409 131.736 774.497 132.308 774.541 133.056C774.629 133.76 774.761 134.464 774.937 135.168C775.157 135.872 775.465 136.488 775.861 137.016C776.257 137.544 776.807 137.808 777.511 137.808C777.907 137.808 778.281 137.654 778.633 137.346C779.029 137.038 779.359 136.664 779.623 136.224C779.887 135.784 780.085 135.344 780.217 134.904C780.393 134.42 780.481 134.002 780.481 133.65V125.664C780.481 125.532 780.437 125.268 780.349 124.872C780.305 124.476 780.261 124.212 780.217 124.08V123.948C780.217 123.464 780.261 123.002 780.349 122.562C780.481 122.078 780.547 121.594 780.547 121.11C780.547 120.67 780.503 120.23 780.415 119.79C780.371 119.306 780.239 118.866 780.019 118.47C779.843 118.074 779.579 117.744 779.227 117.48C778.875 117.216 778.435 117.084 777.907 117.084C777.379 117.084 776.939 117.238 776.587 117.546C776.235 117.854 775.927 118.184 775.663 118.536C775.443 118.888 775.223 119.218 775.003 119.526C774.783 119.834 774.541 119.988 774.277 119.988H774.013C772.473 119.108 771.065 118.404 769.789 117.876C768.513 117.348 767.039 117.084 765.367 117.084C764.927 117.084 764.443 117.084 763.915 117.084C763.387 117.04 762.881 117.128 762.397 117.348C762.221 117.436 761.935 117.59 761.539 117.81C761.143 117.986 760.725 118.184 760.285 118.404C759.889 118.624 759.493 118.844 759.097 119.064C758.701 119.24 758.415 119.372 758.239 119.46C757.931 119.724 757.535 120.142 757.051 120.714C756.567 121.242 756.083 121.814 755.599 122.43C755.115 123.046 754.675 123.662 754.279 124.278C753.927 124.85 753.707 125.312 753.619 125.664L750.781 134.97C750.737 135.498 750.671 136.092 750.583 136.752C750.495 137.412 750.385 138.028 750.253 138.6V145.53C750.561 146.674 750.737 147.796 750.781 148.896C750.825 149.996 751.089 151.118 751.573 152.262C751.661 152.526 751.837 152.944 752.101 153.516C752.365 154.088 752.629 154.704 752.893 155.364C753.201 156.024 753.487 156.662 753.751 157.278C754.059 157.85 754.279 158.246 754.411 158.466ZM810.925 161.634C811.101 162.69 811.519 163.438 812.179 163.878C812.883 164.318 813.675 164.604 814.555 164.736C815.435 164.824 816.359 164.868 817.327 164.868C818.295 164.824 819.175 164.868 819.967 165H820.099C820.979 165 821.661 164.648 822.145 163.944C822.629 163.24 822.871 162.514 822.871 161.766C822.871 161.194 822.827 160.798 822.739 160.578C822.651 160.358 822.409 159.94 822.013 159.324C821.705 158.796 821.331 158.422 820.891 158.202C820.451 157.982 820.011 157.806 819.571 157.674C819.131 157.542 818.691 157.388 818.251 157.212C817.811 157.036 817.437 156.706 817.129 156.222C816.777 155.694 816.579 155.012 816.535 154.176C816.535 153.296 816.469 152.592 816.337 152.064C815.985 150.612 815.545 149.05 815.017 147.378C814.533 145.662 813.851 144.122 812.971 142.758V142.164C812.971 141.636 813.103 141.196 813.367 140.844C813.631 140.448 813.961 140.096 814.357 139.788C814.753 139.48 815.149 139.172 815.545 138.864C815.985 138.556 816.337 138.226 816.601 137.874C817.393 136.862 817.899 135.674 818.119 134.31C818.339 132.902 818.449 131.582 818.449 130.35C818.449 127.49 817.877 125.202 816.733 123.486C815.589 121.726 814.093 120.384 812.245 119.46C810.397 118.536 808.307 117.92 805.975 117.612C803.687 117.304 801.399 117.15 799.111 117.15C798.627 117.15 798.187 117.172 797.791 117.216C797.395 117.216 796.955 117.348 796.471 117.612H786.373C785.537 117.612 784.943 117.964 784.591 118.668C784.239 119.328 784.063 120.01 784.063 120.714C784.063 121.154 784.129 121.682 784.261 122.298C784.393 122.87 784.745 123.244 785.317 123.42L789.475 124.41L790.003 124.938L790.399 140.448V141.768L790.531 156.486C790.531 156.574 790.465 156.706 790.333 156.882C790.201 157.058 790.091 157.19 790.003 157.278C789.343 157.278 788.639 157.3 787.891 157.344C787.187 157.388 786.527 157.52 785.911 157.74C785.295 157.96 784.789 158.312 784.393 158.796C783.997 159.236 783.799 159.874 783.799 160.71C783.799 161.106 783.865 161.524 783.997 161.964C784.173 162.404 784.393 162.822 784.657 163.218C784.965 163.614 785.295 163.944 785.647 164.208C786.043 164.428 786.461 164.516 786.901 164.472C787.297 164.472 787.979 164.494 788.947 164.538C789.915 164.582 790.949 164.626 792.049 164.67C793.149 164.67 794.183 164.692 795.151 164.736C796.163 164.736 796.867 164.736 797.263 164.736H797.989C798.517 164.736 799.089 164.714 799.705 164.67C800.365 164.582 800.959 164.428 801.487 164.208C802.059 163.988 802.521 163.68 802.873 163.284C803.269 162.888 803.467 162.338 803.467 161.634C803.467 160.534 803.071 159.742 802.279 159.258C801.487 158.73 800.629 158.334 799.705 158.07C798.781 157.806 797.923 157.586 797.131 157.41C796.339 157.19 795.943 156.882 795.943 156.486V144.078L796.207 143.814C796.251 143.77 796.537 143.726 797.065 143.682C797.593 143.594 797.989 143.55 798.253 143.55H800.695C801.267 143.55 801.751 143.55 802.147 143.55C802.587 143.55 803.005 143.572 803.401 143.616C803.841 143.616 804.281 143.66 804.721 143.748C805.161 143.836 805.689 143.946 806.305 144.078C806.789 144.43 807.163 144.914 807.427 145.53C807.735 146.146 808.043 146.696 808.351 147.18C808.967 148.236 809.451 149.358 809.803 150.546C810.199 151.734 810.485 152.966 810.661 154.242C810.837 155.474 810.925 156.728 810.925 158.004C810.969 159.236 810.969 160.446 810.925 161.634ZM797.461 123.948C797.681 123.904 798.077 123.882 798.649 123.882C799.221 123.882 799.617 123.882 799.837 123.882C801.685 123.882 803.533 124.014 805.381 124.278C807.229 124.498 808.989 124.982 810.661 125.73C811.541 126.39 812.113 127.226 812.377 128.238C812.641 129.206 812.773 130.196 812.773 131.208C812.773 132.924 812.245 134.31 811.189 135.366C810.177 136.378 808.879 137.126 807.295 137.61H805.117C804.413 137.61 803.753 137.566 803.137 137.478C802.521 137.39 801.883 137.346 801.223 137.346C800.695 137.346 800.167 137.39 799.639 137.478C799.111 137.566 798.561 137.61 797.989 137.61H796.471C796.383 137.478 796.273 137.258 796.141 136.95C796.009 136.642 795.943 136.422 795.943 136.29V124.938C795.943 124.586 796.141 124.344 796.537 124.212C796.933 124.08 797.241 123.992 797.461 123.948ZM828.7 162.03C828.7 162.778 828.832 163.35 829.096 163.746C829.36 164.142 829.712 164.45 830.152 164.67C830.636 164.846 831.164 164.956 831.736 165C832.308 165 832.902 165 833.518 165C834.046 165 834.662 165 835.366 165C836.07 165.044 836.708 164.956 837.28 164.736H859.258C859.742 164.912 860.182 165 860.578 165C861.018 165 861.48 165 861.964 165C863.548 165 864.824 164.56 865.792 163.68C866.76 162.8 867.244 161.546 867.244 159.918C867.244 159.434 867.222 159.038 867.178 158.73C867.178 158.378 867.068 157.96 866.848 157.476V148.434C866.848 147.598 866.562 146.762 865.99 145.926C865.418 145.046 864.67 144.606 863.746 144.606C862.998 144.606 862.36 144.892 861.832 145.464C861.304 146.036 861.04 146.696 861.04 147.444V153.912C861.04 154.044 860.974 154.264 860.842 154.572C860.71 154.836 860.6 155.034 860.512 155.166C859.94 156.222 859.346 156.926 858.73 157.278C858.114 157.586 857.432 157.762 856.684 157.806C855.98 157.85 855.188 157.872 854.308 157.872C853.472 157.828 852.526 157.96 851.47 158.268H844.804L844.276 157.74V143.286C844.276 143.286 844.298 143.22 844.342 143.088C844.386 142.956 844.452 142.846 844.54 142.758C844.54 142.582 844.628 142.494 844.804 142.494H847.642C847.906 142.494 848.214 142.67 848.566 143.022C848.962 143.33 849.336 143.704 849.688 144.144C850.084 144.54 850.414 144.958 850.678 145.398C850.942 145.838 851.118 146.168 851.206 146.388C851.206 146.916 851.206 147.598 851.206 148.434C851.206 149.27 851.294 150.084 851.47 150.876C851.646 151.624 851.954 152.284 852.394 152.856C852.834 153.384 853.494 153.648 854.374 153.648C855.738 153.648 856.42 152.944 856.42 151.536V129.888C856.42 129.14 856.2 128.524 855.76 128.04C855.32 127.512 854.748 127.248 854.044 127.248C853.164 127.248 852.57 127.534 852.262 128.106C851.954 128.678 851.756 129.36 851.668 130.152C851.58 130.944 851.514 131.758 851.47 132.594C851.426 133.386 851.25 134.024 850.942 134.508C850.59 135.08 850.106 135.476 849.49 135.696C848.918 135.916 848.39 136.202 847.906 136.554H844.54L844.276 136.29C844.276 136.29 844.254 136.18 844.21 135.96C844.166 135.74 844.1 135.498 844.012 135.234C843.968 134.926 843.924 134.618 843.88 134.31C843.836 133.958 843.792 133.672 843.748 133.452V133.386V133.254C843.748 133.166 843.792 132.902 843.88 132.462C843.968 132.022 844.012 131.758 844.012 131.67C844.012 131.406 844.012 130.922 844.012 130.218C844.056 129.514 844.1 128.766 844.144 127.974C844.188 127.182 844.21 126.434 844.21 125.73C844.254 124.982 844.276 124.476 844.276 124.212L844.54 123.948H857.146C857.498 123.948 857.916 124.19 858.4 124.674C858.928 125.114 859.302 125.466 859.522 125.73C859.698 125.994 859.918 126.39 860.182 126.918C860.49 127.446 860.644 127.732 860.644 127.776V134.772C860.644 135.476 860.93 136.048 861.502 136.488C862.118 136.928 862.734 137.148 863.35 137.148C864.098 137.148 864.758 136.906 865.33 136.422C865.902 135.938 866.188 135.3 866.188 134.508V120.582C866.188 119.922 865.968 119.218 865.528 118.47C865.088 117.722 864.538 117.304 863.878 117.216C858.51 117.26 853.164 117.238 847.84 117.15C842.516 117.018 837.17 116.952 831.802 116.952C830.658 116.952 829.778 117.326 829.162 118.074C828.546 118.778 828.238 119.658 828.238 120.714C828.238 121.99 828.612 122.892 829.36 123.42C830.108 123.948 831.076 124.212 832.264 124.212C833.012 124.212 833.716 124.168 834.376 124.08C835.08 123.948 835.806 123.882 836.554 123.882C836.73 123.882 836.972 123.882 837.28 123.882C837.588 123.882 837.764 123.904 837.808 123.948L838.336 124.41V126.06C838.336 126.588 838.336 127.226 838.336 127.974C838.38 128.678 838.292 129.316 838.072 129.888L838.204 138.93V140.184L838.336 155.694C838.336 155.958 838.27 156.332 838.138 156.816C838.006 157.256 837.808 157.564 837.544 157.74C837.324 157.74 837.038 157.784 836.686 157.872C836.334 157.916 835.96 157.982 835.564 158.07C835.168 158.114 834.772 158.158 834.376 158.202C834.024 158.246 833.738 158.268 833.518 158.268H833.386C833.298 158.268 833.034 158.246 832.594 158.202C832.198 158.114 831.956 158.048 831.868 158.004H831.472C830.9 158.004 830.438 158.136 830.086 158.4C829.734 158.62 829.448 158.928 829.228 159.324C829.052 159.72 828.92 160.16 828.832 160.644C828.744 161.128 828.7 161.59 828.7 162.03ZM869.969 161.436C869.969 161.348 869.969 161.172 869.969 160.908C870.013 160.6 870.035 160.402 870.035 160.314C870.475 159.786 870.871 159.39 871.223 159.126C871.575 158.862 871.949 158.664 872.345 158.532C872.741 158.356 873.159 158.202 873.599 158.07C874.039 157.938 874.567 157.74 875.183 157.476C875.491 157.344 875.755 157.102 875.975 156.75C876.239 156.398 876.437 156.024 876.569 155.628C876.745 155.232 876.877 154.836 876.965 154.44C877.097 154 877.207 153.626 877.295 153.318C877.427 152.878 877.625 152.108 877.889 151.008C878.197 149.908 878.505 148.742 878.813 147.51C879.165 146.278 879.473 145.112 879.737 144.012C880.045 142.912 880.265 142.142 880.397 141.702C880.793 140.734 881.057 139.788 881.189 138.864C881.321 137.94 881.563 136.994 881.915 136.026C882.619 133.914 883.323 131.802 884.027 129.69C884.775 127.578 885.457 125.466 886.073 123.354C886.205 122.914 886.337 122.364 886.469 121.704C886.645 121.044 886.865 120.428 887.129 119.856C887.393 119.24 887.745 118.734 888.185 118.338C888.625 117.898 889.197 117.678 889.901 117.678C890.693 117.678 891.331 117.942 891.815 118.47C892.299 118.998 892.673 119.636 892.937 120.384C893.245 121.088 893.465 121.836 893.597 122.628C893.773 123.376 893.927 123.97 894.059 124.41C894.499 125.906 894.851 127.446 895.115 129.03C895.379 130.57 895.885 132.044 896.633 133.452L902.837 156.948C902.969 157.388 903.211 157.74 903.563 158.004C903.959 158.268 904.399 158.488 904.883 158.664C905.367 158.796 905.829 158.906 906.269 158.994C906.753 159.082 907.171 159.17 907.523 159.258C908.359 159.786 908.777 160.6 908.777 161.7C908.777 162.756 908.447 163.57 907.787 164.142C907.127 164.67 906.291 164.934 905.279 164.934C904.179 164.934 903.035 164.912 901.847 164.868C900.659 164.78 899.537 164.714 898.481 164.67C897.777 164.67 897.117 164.648 896.501 164.604C895.885 164.56 895.335 164.45 894.851 164.274C894.367 164.054 893.971 163.724 893.663 163.284C893.399 162.844 893.267 162.228 893.267 161.436V160.314C893.575 159.918 893.927 159.632 894.323 159.456C894.763 159.236 895.181 159.038 895.577 158.862C896.017 158.686 896.391 158.51 896.699 158.334C897.051 158.114 897.293 157.828 897.425 157.476C897.425 157.388 897.403 157.212 897.359 156.948C897.315 156.64 897.249 156.332 897.161 156.024C897.117 155.716 897.073 155.43 897.029 155.166C896.985 154.902 896.941 154.726 896.897 154.638C896.853 154.506 896.787 154.264 896.699 153.912C896.611 153.56 896.479 153.186 896.303 152.79C896.127 152.394 895.929 152.042 895.709 151.734C895.533 151.426 895.335 151.272 895.115 151.272H884.753C884.665 151.272 884.445 151.426 884.093 151.734C883.741 151.998 883.543 152.174 883.499 152.262L881.651 156.156C881.651 156.2 881.629 156.332 881.585 156.552C881.585 156.772 881.585 156.926 881.585 157.014C881.585 157.762 881.783 158.268 882.179 158.532C882.619 158.796 883.081 159.038 883.565 159.258C884.049 159.478 884.489 159.786 884.885 160.182C885.325 160.534 885.545 161.172 885.545 162.096C885.545 163.108 885.193 163.834 884.489 164.274C883.829 164.714 883.015 164.934 882.047 164.934C881.431 164.934 880.815 164.89 880.199 164.802C879.627 164.714 879.011 164.67 878.351 164.67C877.471 164.67 876.613 164.758 875.777 164.934C874.941 165.066 874.083 165.132 873.203 165.132C872.191 165.132 871.399 164.758 870.827 164.01C870.255 163.218 869.969 162.36 869.969 161.436ZM885.281 145.332C885.765 145.64 886.227 145.816 886.667 145.86C887.107 145.86 887.635 145.86 888.251 145.86C889.131 145.86 889.989 145.794 890.825 145.662C891.705 145.53 892.607 145.42 893.531 145.332L893.795 145.068C893.795 145.024 893.795 144.914 893.795 144.738C893.839 144.518 893.861 144.364 893.861 144.276C893.861 143.924 893.773 143.33 893.597 142.494C893.421 141.614 893.179 140.668 892.871 139.656C892.607 138.6 892.299 137.522 891.947 136.422C891.595 135.322 891.265 134.332 890.957 133.452C890.649 132.528 890.385 131.78 890.165 131.208C889.945 130.592 889.813 130.284 889.769 130.284C889.593 130.284 889.461 130.394 889.373 130.614C889.285 130.834 889.219 130.988 889.175 131.076C889.043 131.428 888.845 131.956 888.581 132.66C888.361 133.32 888.119 134.002 887.855 134.706C887.591 135.366 887.349 135.982 887.129 136.554C886.953 137.082 886.843 137.412 886.799 137.544C886.447 138.688 886.095 139.854 885.743 141.042C885.391 142.23 885.215 143.396 885.215 144.54C885.215 144.628 885.215 144.76 885.215 144.936C885.259 145.112 885.281 145.244 885.281 145.332ZM915.93 160.908C915.93 161.436 916.172 161.942 916.656 162.426C917.184 162.866 917.8 163.24 918.504 163.548C919.252 163.856 919.978 164.098 920.682 164.274C921.43 164.45 922.046 164.538 922.53 164.538C923.938 164.538 925.28 164.318 926.556 163.878C927.832 163.438 929.174 163.218 930.582 163.218C931.418 163.218 932.21 163.372 932.958 163.68C933.75 163.944 934.564 164.076 935.4 164.076C935.972 164.076 936.522 164.032 937.05 163.944C937.622 163.812 938.128 163.636 938.568 163.416C939.008 163.152 939.36 162.822 939.624 162.426C939.888 161.986 940.02 161.458 940.02 160.842C940.02 159.786 939.712 158.994 939.096 158.466C938.524 157.938 937.798 157.564 936.918 157.344C936.082 157.08 935.18 156.926 934.212 156.882C933.244 156.838 932.408 156.816 931.704 156.816L931.176 156.288L930.846 135.102V133.782L930.714 127.314C930.89 126.698 931 125.994 931.044 125.202C931.132 124.41 931.176 123.75 931.176 123.222L931.44 122.958C931.484 122.958 931.638 122.958 931.902 122.958C932.166 122.914 932.342 122.892 932.43 122.892C933.046 122.892 933.684 122.98 934.344 123.156C935.048 123.332 935.686 123.618 936.258 124.014C936.874 124.366 937.358 124.828 937.71 125.4C938.106 125.928 938.304 126.566 938.304 127.314V134.31C938.304 135.102 938.634 135.828 939.294 136.488C939.954 137.148 940.658 137.478 941.406 137.478C942.33 137.478 943.056 137.082 943.584 136.29C944.112 135.498 944.376 134.662 944.376 133.782V120.648C944.376 119.812 944.024 119.02 943.32 118.272C942.66 117.524 941.89 117.15 941.01 117.15H926.292C925.896 116.93 925.566 116.82 925.302 116.82C925.038 116.776 924.73 116.754 924.378 116.754C923.982 116.754 923.652 116.776 923.388 116.82C923.168 116.82 922.838 116.93 922.398 117.15H914.412C914.016 117.15 913.642 117.304 913.29 117.612C912.982 117.92 912.696 118.294 912.432 118.734C912.168 119.13 911.948 119.548 911.772 119.988C911.64 120.428 911.574 120.802 911.574 121.11V133.782C911.574 134.574 911.794 135.388 912.234 136.224C912.674 137.06 913.334 137.478 914.214 137.478C915.314 137.478 916.084 137.192 916.524 136.62C916.964 136.004 917.228 135.256 917.316 134.376C917.404 133.452 917.426 132.44 917.382 131.34C917.382 130.24 917.492 129.184 917.712 128.172C917.932 127.116 918.35 126.17 918.966 125.334C919.626 124.454 920.682 123.838 922.134 123.486C922.222 123.442 922.42 123.42 922.728 123.42C923.08 123.376 923.322 123.354 923.454 123.354C923.542 123.354 923.718 123.376 923.982 123.42C924.246 123.42 924.422 123.442 924.51 123.486L924.774 123.75V156.552L923.982 157.41H917.778C917.382 157.41 917.052 157.542 916.788 157.806C916.568 158.07 916.392 158.4 916.26 158.796C916.128 159.148 916.04 159.522 915.996 159.918C915.952 160.314 915.93 160.644 915.93 160.908ZM947.58 162.03C947.58 162.778 947.712 163.35 947.976 163.746C948.24 164.142 948.592 164.45 949.032 164.67C949.516 164.846 950.044 164.956 950.616 165C951.188 165 951.782 165 952.398 165C952.926 165 953.542 165 954.246 165C954.95 165.044 955.588 164.956 956.16 164.736H978.138C978.622 164.912 979.062 165 979.458 165C979.898 165 980.36 165 980.844 165C982.428 165 983.704 164.56 984.672 163.68C985.64 162.8 986.124 161.546 986.124 159.918C986.124 159.434 986.102 159.038 986.058 158.73C986.058 158.378 985.948 157.96 985.728 157.476V148.434C985.728 147.598 985.442 146.762 984.87 145.926C984.298 145.046 983.55 144.606 982.626 144.606C981.878 144.606 981.24 144.892 980.712 145.464C980.184 146.036 979.92 146.696 979.92 147.444V153.912C979.92 154.044 979.854 154.264 979.722 154.572C979.59 154.836 979.48 155.034 979.392 155.166C978.82 156.222 978.226 156.926 977.61 157.278C976.994 157.586 976.312 157.762 975.564 157.806C974.86 157.85 974.068 157.872 973.188 157.872C972.352 157.828 971.406 157.96 970.35 158.268H963.684L963.156 157.74V143.286C963.156 143.286 963.178 143.22 963.222 143.088C963.266 142.956 963.332 142.846 963.42 142.758C963.42 142.582 963.508 142.494 963.684 142.494H966.522C966.786 142.494 967.094 142.67 967.446 143.022C967.842 143.33 968.216 143.704 968.568 144.144C968.964 144.54 969.294 144.958 969.558 145.398C969.822 145.838 969.998 146.168 970.086 146.388C970.086 146.916 970.086 147.598 970.086 148.434C970.086 149.27 970.174 150.084 970.35 150.876C970.526 151.624 970.834 152.284 971.274 152.856C971.714 153.384 972.374 153.648 973.254 153.648C974.618 153.648 975.3 152.944 975.3 151.536V129.888C975.3 129.14 975.08 128.524 974.64 128.04C974.2 127.512 973.628 127.248 972.924 127.248C972.044 127.248 971.45 127.534 971.142 128.106C970.834 128.678 970.636 129.36 970.548 130.152C970.46 130.944 970.394 131.758 970.35 132.594C970.306 133.386 970.13 134.024 969.822 134.508C969.47 135.08 968.986 135.476 968.37 135.696C967.798 135.916 967.27 136.202 966.786 136.554H963.42L963.156 136.29C963.156 136.29 963.134 136.18 963.09 135.96C963.046 135.74 962.98 135.498 962.892 135.234C962.848 134.926 962.804 134.618 962.76 134.31C962.716 133.958 962.672 133.672 962.628 133.452V133.386V133.254C962.628 133.166 962.672 132.902 962.76 132.462C962.848 132.022 962.892 131.758 962.892 131.67C962.892 131.406 962.892 130.922 962.892 130.218C962.936 129.514 962.98 128.766 963.024 127.974C963.068 127.182 963.09 126.434 963.09 125.73C963.134 124.982 963.156 124.476 963.156 124.212L963.42 123.948H976.026C976.378 123.948 976.796 124.19 977.28 124.674C977.808 125.114 978.182 125.466 978.402 125.73C978.578 125.994 978.798 126.39 979.062 126.918C979.37 127.446 979.524 127.732 979.524 127.776V134.772C979.524 135.476 979.81 136.048 980.382 136.488C980.998 136.928 981.614 137.148 982.23 137.148C982.978 137.148 983.638 136.906 984.21 136.422C984.782 135.938 985.068 135.3 985.068 134.508V120.582C985.068 119.922 984.848 119.218 984.408 118.47C983.968 117.722 983.418 117.304 982.758 117.216C977.39 117.26 972.044 117.238 966.72 117.15C961.396 117.018 956.05 116.952 950.682 116.952C949.538 116.952 948.658 117.326 948.042 118.074C947.426 118.778 947.118 119.658 947.118 120.714C947.118 121.99 947.492 122.892 948.24 123.42C948.988 123.948 949.956 124.212 951.144 124.212C951.892 124.212 952.596 124.168 953.256 124.08C953.96 123.948 954.686 123.882 955.434 123.882C955.61 123.882 955.852 123.882 956.16 123.882C956.468 123.882 956.644 123.904 956.688 123.948L957.216 124.41V126.06C957.216 126.588 957.216 127.226 957.216 127.974C957.26 128.678 957.172 129.316 956.952 129.888L957.084 138.93V140.184L957.216 155.694C957.216 155.958 957.15 156.332 957.018 156.816C956.886 157.256 956.688 157.564 956.424 157.74C956.204 157.74 955.918 157.784 955.566 157.872C955.214 157.916 954.84 157.982 954.444 158.07C954.048 158.114 953.652 158.158 953.256 158.202C952.904 158.246 952.618 158.268 952.398 158.268H952.266C952.178 158.268 951.914 158.246 951.474 158.202C951.078 158.114 950.836 158.048 950.748 158.004H950.352C949.78 158.004 949.318 158.136 948.966 158.4C948.614 158.62 948.328 158.928 948.108 159.324C947.932 159.72 947.8 160.16 947.712 160.644C947.624 161.128 947.58 161.59 947.58 162.03ZM1035.84 164.208C1036.76 164.208 1037.67 164.34 1038.55 164.604C1039.43 164.868 1040.31 165 1041.19 165H1041.32C1041.41 164.956 1041.6 164.89 1041.91 164.802C1042.26 164.714 1042.48 164.648 1042.57 164.604H1057.82C1058.3 164.604 1058.74 164.45 1059.14 164.142C1059.58 163.79 1059.93 163.372 1060.19 162.888C1060.5 162.404 1060.74 161.898 1060.92 161.37C1061.1 160.798 1061.18 160.314 1061.18 159.918C1061.18 159.566 1061.16 159.28 1061.12 159.06C1061.12 158.796 1061.01 158.444 1060.79 158.004V146.388C1060.79 145.552 1060.55 144.826 1060.06 144.21C1059.62 143.594 1059.01 143.286 1058.21 143.286C1057.29 143.286 1056.61 143.616 1056.17 144.276C1055.77 144.892 1055.49 145.684 1055.31 146.652C1055.18 147.62 1055.09 148.676 1055.05 149.82C1055.05 150.964 1054.96 152.064 1054.78 153.12C1054.65 154.132 1054.39 155.034 1053.99 155.826C1053.64 156.574 1053.02 157.058 1052.14 157.278C1051.92 157.278 1051.55 157.3 1051.02 157.344C1050.54 157.344 1050.01 157.366 1049.44 157.41C1048.86 157.41 1048.31 157.432 1047.79 157.476C1047.26 157.52 1046.91 157.542 1046.73 157.542C1046.25 157.586 1045.83 157.74 1045.48 158.004C1045.12 158.224 1044.73 158.334 1044.29 158.334C1044.07 158.334 1043.94 158.334 1043.89 158.334C1043.85 158.29 1043.78 158.246 1043.69 158.202C1043.65 158.158 1043.56 158.114 1043.43 158.07C1043.34 157.982 1043.14 157.872 1042.84 157.74C1042.7 157.696 1042.46 157.652 1042.11 157.608C1041.76 157.564 1041.41 157.52 1041.05 157.476C1040.7 157.432 1040.39 157.388 1040.13 157.344C1039.87 157.256 1039.73 157.146 1039.73 157.014V131.406C1039.78 131.318 1039.82 131.12 1039.87 130.812C1039.95 130.46 1040 130.24 1040 130.152C1040 129.932 1040.02 129.558 1040.06 129.03C1040.11 128.502 1040.13 127.93 1040.13 127.314C1040.17 126.698 1040.2 126.126 1040.2 125.598C1040.24 125.07 1040.26 124.696 1040.26 124.476L1040.53 124.212H1048.05C1048.84 124.212 1049.46 123.948 1049.9 123.42C1050.38 122.848 1050.62 122.188 1050.62 121.44C1050.62 120.648 1050.43 120.01 1050.03 119.526C1049.68 119.042 1049.22 118.668 1048.64 118.404C1048.07 118.14 1047.43 117.964 1046.73 117.876C1046.07 117.788 1045.43 117.744 1044.82 117.744C1044.07 117.744 1043.36 117.788 1042.7 117.876C1042.04 117.964 1041.36 118.008 1040.66 118.008C1040 118.008 1039.36 117.964 1038.74 117.876C1038.13 117.788 1037.47 117.744 1036.76 117.744C1036.06 117.744 1035.38 117.788 1034.72 117.876C1034.06 117.964 1033.38 118.008 1032.67 118.008C1031.79 118.008 1030.91 117.92 1030.03 117.744C1029.15 117.568 1028.27 117.48 1027.39 117.48C1026.29 117.48 1025.32 117.766 1024.49 118.338C1023.65 118.91 1023.23 119.79 1023.23 120.978C1023.23 121.726 1023.48 122.474 1023.96 123.222C1024.49 123.97 1025.19 124.344 1026.07 124.344H1033.07L1033.79 125.268C1033.84 125.268 1033.86 125.554 1033.86 126.126C1033.86 126.654 1033.86 127.072 1033.86 127.38C1033.86 127.82 1033.86 128.546 1033.86 129.558C1033.86 130.526 1033.75 131.318 1033.53 131.934V151.8C1033.75 152.328 1033.86 152.878 1033.86 153.45C1033.86 154.022 1033.86 154.55 1033.86 155.034C1033.86 155.21 1033.84 155.54 1033.79 156.024C1033.79 156.508 1033.79 156.838 1033.79 157.014C1033.57 157.366 1033.27 157.674 1032.87 157.938C1032.47 158.202 1032.08 158.334 1031.68 158.334C1030.93 158.334 1030.21 158.202 1029.5 157.938C1028.8 157.63 1028.07 157.476 1027.33 157.476C1026.18 157.476 1025.26 157.762 1024.55 158.334C1023.85 158.906 1023.5 159.786 1023.5 160.974C1023.5 162.118 1023.89 163.042 1024.69 163.746C1025.52 164.406 1026.51 164.736 1027.66 164.736C1029.06 164.736 1030.43 164.648 1031.75 164.472C1033.11 164.296 1034.48 164.208 1035.84 164.208ZM1080.63 115.566C1078.43 115.566 1076.5 116.028 1074.83 116.952C1073.15 117.832 1071.7 118.998 1070.47 120.45C1069.24 121.902 1068.2 123.552 1067.37 125.4C1066.53 127.204 1065.83 129.03 1065.26 130.878C1065.17 131.186 1065.04 131.626 1064.86 132.198C1064.73 132.726 1064.6 133.276 1064.46 133.848C1064.33 134.376 1064.2 134.86 1064.07 135.3C1063.98 135.74 1063.94 135.982 1063.94 136.026V146.652C1063.94 146.696 1063.96 146.85 1064 147.114C1064.09 147.378 1064.16 147.686 1064.2 148.038C1064.29 148.346 1064.38 148.676 1064.46 149.028C1064.55 149.336 1064.64 149.578 1064.73 149.754C1064.99 150.59 1065.37 151.558 1065.85 152.658C1066.33 153.758 1066.88 154.88 1067.5 156.024C1068.16 157.124 1068.86 158.158 1069.61 159.126C1070.36 160.094 1071.13 160.842 1071.92 161.37C1072.01 161.458 1072.23 161.59 1072.58 161.766C1072.98 161.942 1073.37 162.14 1073.77 162.36C1074.17 162.536 1074.54 162.712 1074.89 162.888C1075.24 163.064 1075.46 163.174 1075.55 163.218C1076.52 163.702 1077.4 164.12 1078.19 164.472C1079.03 164.824 1080.02 165 1081.16 165C1081.82 165 1082.35 164.956 1082.75 164.868C1083.14 164.736 1083.49 164.582 1083.8 164.406C1084.15 164.23 1084.51 164.054 1084.86 163.878C1085.21 163.658 1085.65 163.438 1086.18 163.218C1088.55 162.294 1090.51 160.974 1092.05 159.258C1093.64 157.498 1094.89 155.54 1095.81 153.384C1096.74 151.184 1097.38 148.874 1097.73 146.454C1098.12 143.99 1098.32 141.592 1098.32 139.26C1098.32 136.884 1098.01 134.574 1097.4 132.33C1096.78 130.086 1095.97 127.864 1094.96 125.664C1094.3 125.004 1093.75 124.278 1093.31 123.486C1092.87 122.65 1092.38 121.836 1091.85 121.044C1091.59 120.648 1091.22 120.318 1090.73 120.054C1090.29 119.79 1089.9 119.526 1089.54 119.262C1088.8 118.69 1088.07 118.184 1087.37 117.744C1086.71 117.26 1086.02 116.864 1085.32 116.556C1084.62 116.248 1083.89 116.006 1083.14 115.83C1082.39 115.654 1081.56 115.566 1080.63 115.566ZM1069.61 140.184C1069.61 138.732 1069.83 136.95 1070.27 134.838C1070.76 132.726 1071.46 130.702 1072.38 128.766C1073.31 126.83 1074.47 125.18 1075.88 123.816C1077.29 122.452 1078.96 121.77 1080.9 121.77C1082.13 121.77 1083.12 122.078 1083.87 122.694C1084.62 123.266 1085.47 123.926 1086.44 124.674C1087.45 125.466 1088.27 126.302 1088.88 127.182C1089.5 128.018 1090.01 128.898 1090.4 129.822C1090.8 130.746 1091.11 131.736 1091.33 132.792C1091.59 133.804 1091.85 134.882 1092.12 136.026V144.54C1092.12 145.288 1091.99 145.882 1091.72 146.322C1091.5 146.762 1091.28 147.29 1091.06 147.906C1090.84 148.698 1090.53 149.644 1090.14 150.744C1089.74 151.8 1089.24 152.812 1088.62 153.78C1088 154.704 1087.28 155.518 1086.44 156.222C1085.61 156.882 1084.66 157.212 1083.6 157.212H1077.14C1076.65 157.212 1076.1 156.926 1075.49 156.354C1074.87 155.782 1074.25 155.122 1073.64 154.374C1073.07 153.626 1072.54 152.856 1072.05 152.064C1071.61 151.272 1071.33 150.678 1071.2 150.282C1070.67 148.698 1070.27 147.048 1070.01 145.332C1069.74 143.572 1069.61 141.856 1069.61 140.184ZM1101.09 161.568C1101.09 162.536 1101.4 163.372 1102.02 164.076C1102.63 164.736 1103.45 165.066 1104.46 165.066H1105.25C1106.09 165.066 1107.49 165.044 1109.47 165C1111.5 165 1113.7 165 1116.07 165C1118.45 165 1120.63 165 1122.61 165C1124.63 164.956 1126.08 164.934 1126.96 164.934C1128.2 164.714 1129.34 164.34 1130.4 163.812C1131.5 163.284 1132.6 162.712 1133.7 162.096C1134.49 161.392 1135.19 160.556 1135.81 159.588C1136.42 158.62 1136.93 157.586 1137.33 156.486C1137.77 155.386 1138.1 154.286 1138.32 153.186C1138.54 152.042 1138.65 150.964 1138.65 149.952C1138.65 148.544 1138.47 147.312 1138.12 146.256C1137.77 145.156 1137.24 143.968 1136.53 142.692C1136.36 142.428 1136.12 142.164 1135.81 141.9C1135.5 141.636 1135.19 141.35 1134.88 141.042C1134.58 140.734 1134.29 140.448 1134.03 140.184C1133.81 139.876 1133.7 139.59 1133.7 139.326C1133.7 138.842 1133.94 138.27 1134.42 137.61C1134.91 136.95 1135.26 136.488 1135.48 136.224C1136.01 135.432 1136.4 134.508 1136.67 133.452C1136.93 132.396 1137.06 131.384 1137.06 130.416C1137.06 128.436 1136.75 126.72 1136.14 125.268C1135.57 123.772 1134.73 122.518 1133.63 121.506C1132.53 120.494 1131.19 119.68 1129.6 119.064C1128.06 118.404 1126.33 117.92 1124.39 117.612H1123.07C1121.22 117.612 1119.4 117.744 1117.59 118.008C1115.79 118.272 1113.96 118.404 1112.11 118.404H1108.09C1107.3 118.184 1106.64 118.052 1106.11 118.008C1105.58 117.92 1104.96 117.876 1104.26 117.876C1103.29 117.876 1102.52 118.184 1101.95 118.8C1101.38 119.372 1101.09 120.142 1101.09 121.11C1101.09 122.342 1101.51 123.244 1102.35 123.816C1103.23 124.344 1104.24 124.608 1105.38 124.608C1105.91 124.608 1106.42 124.564 1106.9 124.476C1107.43 124.388 1107.96 124.344 1108.48 124.344H1108.95C1109.3 124.344 1109.67 124.41 1110.07 124.542C1110.46 124.674 1110.66 124.872 1110.66 125.136V158.466L1110.4 158.73C1110.35 158.73 1110.18 158.752 1109.87 158.796C1109.61 158.796 1109.41 158.796 1109.28 158.796C1108.48 158.796 1107.71 158.752 1106.97 158.664C1106.22 158.532 1105.47 158.466 1104.72 158.466H1103.14C1101.77 159.038 1101.09 160.072 1101.09 161.568ZM1117.59 142.692C1117.9 142.692 1118.16 142.736 1118.38 142.824C1118.65 142.912 1118.93 142.956 1119.24 142.956C1119.55 142.956 1119.79 142.934 1119.97 142.89C1120.14 142.846 1120.41 142.692 1120.76 142.428H1128.22C1128.31 142.428 1128.5 142.538 1128.81 142.758C1129.16 142.934 1129.41 143.088 1129.54 143.22L1132.64 146.322C1133.04 146.762 1133.21 147.356 1133.17 148.104C1133.17 148.852 1133.17 149.512 1133.17 150.084C1133.17 151.228 1133.08 152.24 1132.9 153.12C1132.77 154 1132.49 154.792 1132.05 155.496C1131.61 156.156 1131.01 156.75 1130.26 157.278C1129.56 157.806 1128.64 158.29 1127.49 158.73C1125.95 158.774 1124.43 158.884 1122.94 159.06C1121.49 159.192 1120.01 159.258 1118.52 159.258C1118.25 159.258 1117.86 159.192 1117.33 159.06C1116.84 158.884 1116.6 158.598 1116.6 158.202V143.484C1116.6 143.396 1116.69 143.264 1116.87 143.088C1117.09 142.912 1117.26 142.78 1117.39 142.692H1117.59ZM1116.6 124.344H1124.85C1125.73 124.564 1126.44 124.718 1126.96 124.806C1127.54 124.85 1128.04 124.96 1128.48 125.136C1128.92 125.268 1129.32 125.532 1129.67 125.928C1130.07 126.28 1130.53 126.874 1131.06 127.71C1131.23 127.886 1131.32 128.062 1131.32 128.238V132.594C1131.32 133.034 1131.19 133.452 1130.92 133.848C1130.7 134.244 1130.42 134.618 1130.07 134.97C1129.71 135.278 1129.34 135.564 1128.94 135.828C1128.59 136.092 1128.26 136.312 1127.95 136.488C1126.77 136.576 1125.4 136.642 1123.86 136.686C1122.32 136.73 1120.85 136.752 1119.44 136.752H1118.65C1118.21 136.752 1117.75 136.708 1117.26 136.62C1116.82 136.488 1116.6 136.18 1116.6 135.696V124.344ZM1141.34 161.568C1141.34 162.536 1141.65 163.372 1142.27 164.076C1142.88 164.736 1143.7 165.066 1144.71 165.066H1145.5C1146.34 165.066 1147.74 165.044 1149.72 165C1151.75 165 1153.95 165 1156.32 165C1158.7 165 1160.88 165 1162.86 165C1164.88 164.956 1166.33 164.934 1167.21 164.934C1168.45 164.714 1169.59 164.34 1170.65 163.812C1171.75 163.284 1172.85 162.712 1173.95 162.096C1174.74 161.392 1175.44 160.556 1176.06 159.588C1176.67 158.62 1177.18 157.586 1177.58 156.486C1178.02 155.386 1178.35 154.286 1178.57 153.186C1178.79 152.042 1178.9 150.964 1178.9 149.952C1178.9 148.544 1178.72 147.312 1178.37 146.256C1178.02 145.156 1177.49 143.968 1176.78 142.692C1176.61 142.428 1176.37 142.164 1176.06 141.9C1175.75 141.636 1175.44 141.35 1175.13 141.042C1174.83 140.734 1174.54 140.448 1174.28 140.184C1174.06 139.876 1173.95 139.59 1173.95 139.326C1173.95 138.842 1174.19 138.27 1174.67 137.61C1175.16 136.95 1175.51 136.488 1175.73 136.224C1176.26 135.432 1176.65 134.508 1176.92 133.452C1177.18 132.396 1177.31 131.384 1177.31 130.416C1177.31 128.436 1177 126.72 1176.39 125.268C1175.82 123.772 1174.98 122.518 1173.88 121.506C1172.78 120.494 1171.44 119.68 1169.85 119.064C1168.31 118.404 1166.58 117.92 1164.64 117.612H1163.32C1161.47 117.612 1159.65 117.744 1157.84 118.008C1156.04 118.272 1154.21 118.404 1152.36 118.404H1148.34C1147.55 118.184 1146.89 118.052 1146.36 118.008C1145.83 117.92 1145.21 117.876 1144.51 117.876C1143.54 117.876 1142.77 118.184 1142.2 118.8C1141.63 119.372 1141.34 120.142 1141.34 121.11C1141.34 122.342 1141.76 123.244 1142.6 123.816C1143.48 124.344 1144.49 124.608 1145.63 124.608C1146.16 124.608 1146.67 124.564 1147.15 124.476C1147.68 124.388 1148.21 124.344 1148.73 124.344H1149.2C1149.55 124.344 1149.92 124.41 1150.32 124.542C1150.71 124.674 1150.91 124.872 1150.91 125.136V158.466L1150.65 158.73C1150.6 158.73 1150.43 158.752 1150.12 158.796C1149.86 158.796 1149.66 158.796 1149.53 158.796C1148.73 158.796 1147.96 158.752 1147.22 158.664C1146.47 158.532 1145.72 158.466 1144.97 158.466H1143.39C1142.02 159.038 1141.34 160.072 1141.34 161.568ZM1157.84 142.692C1158.15 142.692 1158.41 142.736 1158.63 142.824C1158.9 142.912 1159.18 142.956 1159.49 142.956C1159.8 142.956 1160.04 142.934 1160.22 142.89C1160.39 142.846 1160.66 142.692 1161.01 142.428H1168.47C1168.56 142.428 1168.75 142.538 1169.06 142.758C1169.41 142.934 1169.66 143.088 1169.79 143.22L1172.89 146.322C1173.29 146.762 1173.46 147.356 1173.42 148.104C1173.42 148.852 1173.42 149.512 1173.42 150.084C1173.42 151.228 1173.33 152.24 1173.15 153.12C1173.02 154 1172.74 154.792 1172.3 155.496C1171.86 156.156 1171.26 156.75 1170.51 157.278C1169.81 157.806 1168.89 158.29 1167.74 158.73C1166.2 158.774 1164.68 158.884 1163.19 159.06C1161.74 159.192 1160.26 159.258 1158.77 159.258C1158.5 159.258 1158.11 159.192 1157.58 159.06C1157.09 158.884 1156.85 158.598 1156.85 158.202V143.484C1156.85 143.396 1156.94 143.264 1157.12 143.088C1157.34 142.912 1157.51 142.78 1157.64 142.692H1157.84ZM1156.85 124.344H1165.1C1165.98 124.564 1166.69 124.718 1167.21 124.806C1167.79 124.85 1168.29 124.96 1168.73 125.136C1169.17 125.268 1169.57 125.532 1169.92 125.928C1170.32 126.28 1170.78 126.874 1171.31 127.71C1171.48 127.886 1171.57 128.062 1171.57 128.238V132.594C1171.57 133.034 1171.44 133.452 1171.17 133.848C1170.95 134.244 1170.67 134.618 1170.32 134.97C1169.96 135.278 1169.59 135.564 1169.19 135.828C1168.84 136.092 1168.51 136.312 1168.2 136.488C1167.02 136.576 1165.65 136.642 1164.11 136.686C1162.57 136.73 1161.1 136.752 1159.69 136.752H1158.9C1158.46 136.752 1158 136.708 1157.51 136.62C1157.07 136.488 1156.85 136.18 1156.85 135.696V124.344ZM1188.78 161.172C1188.78 162.184 1189.18 163.042 1189.97 163.746C1190.76 164.45 1191.67 164.802 1192.68 164.802H1201.26L1202.51 164.406H1211.55C1212.39 164.406 1213.03 164.01 1213.47 163.218C1213.95 162.426 1214.19 161.678 1214.19 160.974C1214.19 160.094 1213.78 159.456 1212.94 159.06C1212.1 158.664 1211.29 158.422 1210.5 158.334C1210.28 158.334 1209.9 158.312 1209.38 158.268C1208.89 158.224 1208.36 158.202 1207.79 158.202C1207.22 158.158 1206.67 158.136 1206.14 158.136C1205.66 158.092 1205.31 158.07 1205.09 158.07L1204.82 157.806L1204.29 155.232V145.662C1204.29 145.618 1204.32 145.508 1204.36 145.332C1204.45 145.156 1204.51 145.024 1204.56 144.936C1205.92 142.12 1207.26 139.326 1208.58 136.554C1209.9 133.738 1211.25 130.922 1212.61 128.106C1212.7 127.886 1212.83 127.6 1213.01 127.248C1213.23 126.852 1213.42 126.456 1213.6 126.06C1213.78 125.664 1213.93 125.334 1214.06 125.07C1214.24 124.762 1214.35 124.564 1214.39 124.476C1214.48 124.388 1214.61 124.256 1214.79 124.08C1214.96 123.86 1215.1 123.75 1215.18 123.75H1218.81C1219.12 123.75 1219.39 123.662 1219.61 123.486C1219.87 123.266 1220.07 123.024 1220.2 122.76C1220.33 122.452 1220.42 122.144 1220.46 121.836C1220.55 121.528 1220.6 121.242 1220.6 120.978C1220.6 120.318 1220.42 119.746 1220.07 119.262C1219.76 118.778 1219.34 118.382 1218.81 118.074C1218.29 117.722 1217.71 117.458 1217.1 117.282C1216.48 117.106 1215.89 117.018 1215.32 117.018C1214.66 117.018 1214.02 117.062 1213.4 117.15C1212.79 117.238 1212.13 117.282 1211.42 117.282C1210.67 117.282 1209.97 117.238 1209.31 117.15C1208.69 117.062 1208.01 117.018 1207.26 117.018C1206.38 117.018 1205.61 117.238 1204.95 117.678C1204.34 118.074 1204.03 118.756 1204.03 119.724C1204.03 120.516 1204.16 121.088 1204.43 121.44C1204.69 121.792 1205.02 122.1 1205.42 122.364C1205.81 122.584 1206.21 122.804 1206.6 123.024C1207.04 123.244 1207.4 123.574 1207.66 124.014C1207.7 124.102 1207.73 124.256 1207.73 124.476C1207.73 124.652 1207.73 124.784 1207.73 124.872C1207.73 125.488 1207.62 126.06 1207.4 126.588C1207.22 127.116 1207 127.644 1206.74 128.172C1206.47 128.656 1206.19 129.162 1205.88 129.69C1205.57 130.174 1205.31 130.68 1205.09 131.208C1205.04 131.296 1204.98 131.472 1204.89 131.736C1204.8 132 1204.69 132.308 1204.56 132.66C1204.47 132.968 1204.36 133.276 1204.23 133.584C1204.14 133.848 1204.1 134.002 1204.1 134.046C1204.01 134.178 1203.88 134.42 1203.7 134.772C1203.57 135.124 1203.39 135.498 1203.17 135.894C1203 136.29 1202.82 136.664 1202.64 137.016C1202.47 137.324 1202.34 137.544 1202.25 137.676C1202.2 137.852 1202.09 137.94 1201.92 137.94C1201.79 137.94 1201.68 137.94 1201.59 137.94C1201.32 137.94 1201.08 137.83 1200.86 137.61C1200.64 137.39 1200.44 137.148 1200.27 136.884C1200.09 136.576 1199.94 136.268 1199.81 135.96C1199.67 135.608 1199.54 135.322 1199.41 135.102L1195.52 127.314C1195.43 127.138 1195.25 126.72 1194.99 126.06C1194.77 125.4 1194.61 124.96 1194.53 124.74C1194.53 124.74 1194.5 124.718 1194.46 124.674C1194.46 124.586 1194.46 124.52 1194.46 124.476C1194.46 124.124 1194.66 123.882 1195.05 123.75C1195.49 123.618 1195.96 123.464 1196.44 123.288C1196.92 123.112 1197.36 122.848 1197.76 122.496C1198.2 122.1 1198.42 121.506 1198.42 120.714C1198.42 119.658 1198.11 118.888 1197.5 118.404C1196.88 117.92 1196.13 117.612 1195.25 117.48C1194.37 117.304 1193.45 117.238 1192.48 117.282C1191.56 117.326 1190.76 117.326 1190.1 117.282C1190.02 117.282 1189.8 117.238 1189.44 117.15C1189.14 117.062 1188.94 117.018 1188.85 117.018H1188.45C1187.75 117.018 1187 117.084 1186.21 117.216C1185.42 117.304 1184.67 117.502 1183.97 117.81C1183.31 118.118 1182.73 118.558 1182.25 119.13C1181.81 119.658 1181.59 120.362 1181.59 121.242C1181.59 122.034 1181.79 122.65 1182.18 123.09C1182.62 123.486 1183.13 123.772 1183.7 123.948C1184.32 124.08 1184.96 124.168 1185.62 124.212C1186.32 124.212 1186.96 124.212 1187.53 124.212C1187.97 124.564 1188.32 124.982 1188.59 125.466C1188.89 125.906 1189.16 126.39 1189.38 126.918C1189.6 127.446 1189.82 127.974 1190.04 128.502C1190.3 129.03 1190.59 129.514 1190.9 129.954C1190.94 129.998 1191.07 130.152 1191.29 130.416C1191.51 130.68 1191.64 130.856 1191.69 130.944C1192.13 131.956 1192.48 132.946 1192.74 133.914C1193.01 134.882 1193.51 135.784 1194.26 136.62L1198.35 145.662V157.806L1198.16 158.07C1198.07 158.07 1197.8 158.092 1197.36 158.136C1196.92 158.136 1196.59 158.136 1196.37 158.136C1195.63 158.136 1194.92 158.092 1194.26 158.004C1193.65 157.872 1192.99 157.806 1192.28 157.806C1191.4 157.806 1190.59 158.158 1189.84 158.862C1189.14 159.522 1188.78 160.292 1188.78 161.172Z" fill="white"/>
</svg>
