<svg width="407" height="165" viewBox="0 0 407 165" fill="none" xmlns="http://www.w3.org/2000/svg">
<rect x="2.08708" y="-2.08708" width="266.348" height="44.3012" transform="matrix(-1 0 0 1 403.151 51.0829)" fill="#F5BC4D" stroke="black" stroke-width="4.17417"/>
<rect x="2.08708" y="-2.08708" width="31.64" height="74.3964" transform="matrix(-1 0 0 1 366.23 90.2247)" fill="#F5BC4D" stroke="black" stroke-width="4.17417"/>
<rect x="2.08708" y="-2.08708" width="26.6462" height="44.3012" transform="matrix(-1 0 0 1 290.948 89.9546)" fill="#F5BC4D" stroke="black" stroke-width="4.17417"/>
<rect x="2.08708" y="-2.08708" width="144" height="137.095" transform="matrix(-1 0 0 1 149 5)" fill="#F5BC4D" stroke="black" stroke-width="4.17417"/>
<rect width="37.4769" height="46.1312" transform="matrix(0 1 1 0 136.803 52.4078)" fill="#F5BC4D"/>
<rect width="37.4769" height="19.7218" transform="matrix(0 1 1 0 265.71 67.0036)" fill="#F5BC4D"/>
<rect width="37.4769" height="24.8334" transform="matrix(0 1 1 0 335.918 61.2241)" fill="#F5BC4D"/>
<rect x="2.08708" y="-2.08708" width="66.5965" height="66.8726" transform="matrix(-1 0 0 1 109.05 40.1112)" fill="#8B444E" stroke="black" stroke-width="4.17417"/>
</svg>
