<svg width="923" height="952" viewBox="0 0 923 952" fill="none" xmlns="http://www.w3.org/2000/svg">
<rect x="3" y="32" width="917" height="917" fill="#1880BB" stroke="black" stroke-width="6"/>
<path d="M232.411 115.466C233.819 117.842 235.733 119.558 238.153 120.614C240.573 121.67 243.103 122.198 245.743 122.198C247.503 122.198 249.175 121.714 250.759 120.746C252.343 119.778 253.751 118.568 254.983 117.116C256.215 115.62 257.183 113.992 257.887 112.232C258.635 110.428 259.009 108.712 259.009 107.084C259.009 106.644 258.987 106.182 258.943 105.698C258.943 105.214 258.855 104.774 258.679 104.378C258.503 103.982 258.239 103.674 257.887 103.454C257.579 103.19 257.139 103.058 256.567 103.058C255.643 103.058 254.917 103.498 254.389 104.378C253.949 105.61 253.465 106.908 252.937 108.272C252.453 109.592 251.837 110.824 251.089 111.968C250.341 113.068 249.417 113.992 248.317 114.74C247.217 115.444 245.875 115.796 244.291 115.796C244.115 115.796 243.851 115.796 243.499 115.796C243.191 115.752 243.015 115.73 242.971 115.73C241.519 115.378 240.287 114.784 239.275 113.948C238.307 113.068 237.515 112.078 236.899 110.978C236.283 109.834 235.799 108.602 235.447 107.282C235.139 105.962 234.897 104.642 234.721 103.322C234.677 103.234 234.633 103.014 234.589 102.662C234.545 102.31 234.501 102.09 234.457 102.002V93.752C234.457 92.564 234.611 91.376 234.919 90.188C235.227 88.956 235.667 87.79 236.239 86.69C236.811 85.546 237.493 84.49 238.285 83.522C239.077 82.554 239.957 81.74 240.925 81.08C241.013 81.036 241.101 80.992 241.189 80.948C241.321 80.86 241.409 80.816 241.453 80.816H245.809C245.853 80.816 245.963 80.86 246.139 80.948C246.359 80.992 246.513 81.036 246.601 81.08C247.525 81.52 248.295 81.96 248.911 82.4C249.527 82.84 250.033 83.346 250.429 83.918C250.869 84.446 251.221 85.062 251.485 85.766C251.749 86.47 252.013 87.328 252.277 88.34C252.409 88.736 252.497 89.308 252.541 90.056C252.629 90.76 252.761 91.464 252.937 92.168C253.157 92.872 253.465 93.488 253.861 94.016C254.257 94.544 254.807 94.808 255.511 94.808C255.907 94.808 256.281 94.654 256.633 94.346C257.029 94.038 257.359 93.664 257.623 93.224C257.887 92.784 258.085 92.344 258.217 91.904C258.393 91.42 258.481 91.002 258.481 90.65V82.664C258.481 82.532 258.437 82.268 258.349 81.872C258.305 81.476 258.261 81.212 258.217 81.08V80.948C258.217 80.464 258.261 80.002 258.349 79.562C258.481 79.078 258.547 78.594 258.547 78.11C258.547 77.67 258.503 77.23 258.415 76.79C258.371 76.306 258.239 75.866 258.019 75.47C257.843 75.074 257.579 74.744 257.227 74.48C256.875 74.216 256.435 74.084 255.907 74.084C255.379 74.084 254.939 74.238 254.587 74.546C254.235 74.854 253.927 75.184 253.663 75.536C253.443 75.888 253.223 76.218 253.003 76.526C252.783 76.834 252.541 76.988 252.277 76.988H252.013C250.473 76.108 249.065 75.404 247.789 74.876C246.513 74.348 245.039 74.084 243.367 74.084C242.927 74.084 242.443 74.084 241.915 74.084C241.387 74.04 240.881 74.128 240.397 74.348C240.221 74.436 239.935 74.59 239.539 74.81C239.143 74.986 238.725 75.184 238.285 75.404C237.889 75.624 237.493 75.844 237.097 76.064C236.701 76.24 236.415 76.372 236.239 76.46C235.931 76.724 235.535 77.142 235.051 77.714C234.567 78.242 234.083 78.814 233.599 79.43C233.115 80.046 232.675 80.662 232.279 81.278C231.927 81.85 231.707 82.312 231.619 82.664L228.781 91.97C228.737 92.498 228.671 93.092 228.583 93.752C228.495 94.412 228.385 95.028 228.253 95.6V102.53C228.561 103.674 228.737 104.796 228.781 105.896C228.825 106.996 229.089 108.118 229.573 109.262C229.661 109.526 229.837 109.944 230.101 110.516C230.365 111.088 230.629 111.704 230.893 112.364C231.201 113.024 231.487 113.662 231.751 114.278C232.059 114.85 232.279 115.246 232.411 115.466ZM288.925 118.634C289.101 119.69 289.519 120.438 290.179 120.878C290.883 121.318 291.675 121.604 292.555 121.736C293.435 121.824 294.359 121.868 295.327 121.868C296.295 121.824 297.175 121.868 297.967 122H298.099C298.979 122 299.661 121.648 300.145 120.944C300.629 120.24 300.871 119.514 300.871 118.766C300.871 118.194 300.827 117.798 300.739 117.578C300.651 117.358 300.409 116.94 300.013 116.324C299.705 115.796 299.331 115.422 298.891 115.202C298.451 114.982 298.011 114.806 297.571 114.674C297.131 114.542 296.691 114.388 296.251 114.212C295.811 114.036 295.437 113.706 295.129 113.222C294.777 112.694 294.579 112.012 294.535 111.176C294.535 110.296 294.469 109.592 294.337 109.064C293.985 107.612 293.545 106.05 293.017 104.378C292.533 102.662 291.851 101.122 290.971 99.758V99.164C290.971 98.636 291.103 98.196 291.367 97.844C291.631 97.448 291.961 97.096 292.357 96.788C292.753 96.48 293.149 96.172 293.545 95.864C293.985 95.556 294.337 95.226 294.601 94.874C295.393 93.862 295.899 92.674 296.119 91.31C296.339 89.902 296.449 88.582 296.449 87.35C296.449 84.49 295.877 82.202 294.733 80.486C293.589 78.726 292.093 77.384 290.245 76.46C288.397 75.536 286.307 74.92 283.975 74.612C281.687 74.304 279.399 74.15 277.111 74.15C276.627 74.15 276.187 74.172 275.791 74.216C275.395 74.216 274.955 74.348 274.471 74.612H264.373C263.537 74.612 262.943 74.964 262.591 75.668C262.239 76.328 262.063 77.01 262.063 77.714C262.063 78.154 262.129 78.682 262.261 79.298C262.393 79.87 262.745 80.244 263.317 80.42L267.475 81.41L268.003 81.938L268.399 97.448V98.768L268.531 113.486C268.531 113.574 268.465 113.706 268.333 113.882C268.201 114.058 268.091 114.19 268.003 114.278C267.343 114.278 266.639 114.3 265.891 114.344C265.187 114.388 264.527 114.52 263.911 114.74C263.295 114.96 262.789 115.312 262.393 115.796C261.997 116.236 261.799 116.874 261.799 117.71C261.799 118.106 261.865 118.524 261.997 118.964C262.173 119.404 262.393 119.822 262.657 120.218C262.965 120.614 263.295 120.944 263.647 121.208C264.043 121.428 264.461 121.516 264.901 121.472C265.297 121.472 265.979 121.494 266.947 121.538C267.915 121.582 268.949 121.626 270.049 121.67C271.149 121.67 272.183 121.692 273.151 121.736C274.163 121.736 274.867 121.736 275.263 121.736H275.989C276.517 121.736 277.089 121.714 277.705 121.67C278.365 121.582 278.959 121.428 279.487 121.208C280.059 120.988 280.521 120.68 280.873 120.284C281.269 119.888 281.467 119.338 281.467 118.634C281.467 117.534 281.071 116.742 280.279 116.258C279.487 115.73 278.629 115.334 277.705 115.07C276.781 114.806 275.923 114.586 275.131 114.41C274.339 114.19 273.943 113.882 273.943 113.486V101.078L274.207 100.814C274.251 100.77 274.537 100.726 275.065 100.682C275.593 100.594 275.989 100.55 276.253 100.55H278.695C279.267 100.55 279.751 100.55 280.147 100.55C280.587 100.55 281.005 100.572 281.401 100.616C281.841 100.616 282.281 100.66 282.721 100.748C283.161 100.836 283.689 100.946 284.305 101.078C284.789 101.43 285.163 101.914 285.427 102.53C285.735 103.146 286.043 103.696 286.351 104.18C286.967 105.236 287.451 106.358 287.803 107.546C288.199 108.734 288.485 109.966 288.661 111.242C288.837 112.474 288.925 113.728 288.925 115.004C288.969 116.236 288.969 117.446 288.925 118.634ZM275.461 80.948C275.681 80.904 276.077 80.882 276.649 80.882C277.221 80.882 277.617 80.882 277.837 80.882C279.685 80.882 281.533 81.014 283.381 81.278C285.229 81.498 286.989 81.982 288.661 82.73C289.541 83.39 290.113 84.226 290.377 85.238C290.641 86.206 290.773 87.196 290.773 88.208C290.773 89.924 290.245 91.31 289.189 92.366C288.177 93.378 286.879 94.126 285.295 94.61H283.117C282.413 94.61 281.753 94.566 281.137 94.478C280.521 94.39 279.883 94.346 279.223 94.346C278.695 94.346 278.167 94.39 277.639 94.478C277.111 94.566 276.561 94.61 275.989 94.61H274.471C274.383 94.478 274.273 94.258 274.141 93.95C274.009 93.642 273.943 93.422 273.943 93.29V81.938C273.943 81.586 274.141 81.344 274.537 81.212C274.933 81.08 275.241 80.992 275.461 80.948ZM306.7 119.03C306.7 119.778 306.832 120.35 307.096 120.746C307.36 121.142 307.712 121.45 308.152 121.67C308.636 121.846 309.164 121.956 309.736 122C310.308 122 310.902 122 311.518 122C312.046 122 312.662 122 313.366 122C314.07 122.044 314.708 121.956 315.28 121.736H337.258C337.742 121.912 338.182 122 338.578 122C339.018 122 339.48 122 339.964 122C341.548 122 342.824 121.56 343.792 120.68C344.76 119.8 345.244 118.546 345.244 116.918C345.244 116.434 345.222 116.038 345.178 115.73C345.178 115.378 345.068 114.96 344.848 114.476V105.434C344.848 104.598 344.562 103.762 343.99 102.926C343.418 102.046 342.67 101.606 341.746 101.606C340.998 101.606 340.36 101.892 339.832 102.464C339.304 103.036 339.04 103.696 339.04 104.444V110.912C339.04 111.044 338.974 111.264 338.842 111.572C338.71 111.836 338.6 112.034 338.512 112.166C337.94 113.222 337.346 113.926 336.73 114.278C336.114 114.586 335.432 114.762 334.684 114.806C333.98 114.85 333.188 114.872 332.308 114.872C331.472 114.828 330.526 114.96 329.47 115.268H322.804L322.276 114.74V100.286C322.276 100.286 322.298 100.22 322.342 100.088C322.386 99.956 322.452 99.846 322.54 99.758C322.54 99.582 322.628 99.494 322.804 99.494H325.642C325.906 99.494 326.214 99.67 326.566 100.022C326.962 100.33 327.336 100.704 327.688 101.144C328.084 101.54 328.414 101.958 328.678 102.398C328.942 102.838 329.118 103.168 329.206 103.388C329.206 103.916 329.206 104.598 329.206 105.434C329.206 106.27 329.294 107.084 329.47 107.876C329.646 108.624 329.954 109.284 330.394 109.856C330.834 110.384 331.494 110.648 332.374 110.648C333.738 110.648 334.42 109.944 334.42 108.536V86.888C334.42 86.14 334.2 85.524 333.76 85.04C333.32 84.512 332.748 84.248 332.044 84.248C331.164 84.248 330.57 84.534 330.262 85.106C329.954 85.678 329.756 86.36 329.668 87.152C329.58 87.944 329.514 88.758 329.47 89.594C329.426 90.386 329.25 91.024 328.942 91.508C328.59 92.08 328.106 92.476 327.49 92.696C326.918 92.916 326.39 93.202 325.906 93.554H322.54L322.276 93.29C322.276 93.29 322.254 93.18 322.21 92.96C322.166 92.74 322.1 92.498 322.012 92.234C321.968 91.926 321.924 91.618 321.88 91.31C321.836 90.958 321.792 90.672 321.748 90.452V90.386V90.254C321.748 90.166 321.792 89.902 321.88 89.462C321.968 89.022 322.012 88.758 322.012 88.67C322.012 88.406 322.012 87.922 322.012 87.218C322.056 86.514 322.1 85.766 322.144 84.974C322.188 84.182 322.21 83.434 322.21 82.73C322.254 81.982 322.276 81.476 322.276 81.212L322.54 80.948H335.146C335.498 80.948 335.916 81.19 336.4 81.674C336.928 82.114 337.302 82.466 337.522 82.73C337.698 82.994 337.918 83.39 338.182 83.918C338.49 84.446 338.644 84.732 338.644 84.776V91.772C338.644 92.476 338.93 93.048 339.502 93.488C340.118 93.928 340.734 94.148 341.35 94.148C342.098 94.148 342.758 93.906 343.33 93.422C343.902 92.938 344.188 92.3 344.188 91.508V77.582C344.188 76.922 343.968 76.218 343.528 75.47C343.088 74.722 342.538 74.304 341.878 74.216C336.51 74.26 331.164 74.238 325.84 74.15C320.516 74.018 315.17 73.952 309.802 73.952C308.658 73.952 307.778 74.326 307.162 75.074C306.546 75.778 306.238 76.658 306.238 77.714C306.238 78.99 306.612 79.892 307.36 80.42C308.108 80.948 309.076 81.212 310.264 81.212C311.012 81.212 311.716 81.168 312.376 81.08C313.08 80.948 313.806 80.882 314.554 80.882C314.73 80.882 314.972 80.882 315.28 80.882C315.588 80.882 315.764 80.904 315.808 80.948L316.336 81.41V83.06C316.336 83.588 316.336 84.226 316.336 84.974C316.38 85.678 316.292 86.316 316.072 86.888L316.204 95.93V97.184L316.336 112.694C316.336 112.958 316.27 113.332 316.138 113.816C316.006 114.256 315.808 114.564 315.544 114.74C315.324 114.74 315.038 114.784 314.686 114.872C314.334 114.916 313.96 114.982 313.564 115.07C313.168 115.114 312.772 115.158 312.376 115.202C312.024 115.246 311.738 115.268 311.518 115.268H311.386C311.298 115.268 311.034 115.246 310.594 115.202C310.198 115.114 309.956 115.048 309.868 115.004H309.472C308.9 115.004 308.438 115.136 308.086 115.4C307.734 115.62 307.448 115.928 307.228 116.324C307.052 116.72 306.92 117.16 306.832 117.644C306.744 118.128 306.7 118.59 306.7 119.03ZM347.969 118.436C347.969 118.348 347.969 118.172 347.969 117.908C348.013 117.6 348.035 117.402 348.035 117.314C348.475 116.786 348.871 116.39 349.223 116.126C349.575 115.862 349.949 115.664 350.345 115.532C350.741 115.356 351.159 115.202 351.599 115.07C352.039 114.938 352.567 114.74 353.183 114.476C353.491 114.344 353.755 114.102 353.975 113.75C354.239 113.398 354.437 113.024 354.569 112.628C354.745 112.232 354.877 111.836 354.965 111.44C355.097 111 355.207 110.626 355.295 110.318C355.427 109.878 355.625 109.108 355.889 108.008C356.197 106.908 356.505 105.742 356.813 104.51C357.165 103.278 357.473 102.112 357.737 101.012C358.045 99.912 358.265 99.142 358.397 98.702C358.793 97.734 359.057 96.788 359.189 95.864C359.321 94.94 359.563 93.994 359.915 93.026C360.619 90.914 361.323 88.802 362.027 86.69C362.775 84.578 363.457 82.466 364.073 80.354C364.205 79.914 364.337 79.364 364.469 78.704C364.645 78.044 364.865 77.428 365.129 76.856C365.393 76.24 365.745 75.734 366.185 75.338C366.625 74.898 367.197 74.678 367.901 74.678C368.693 74.678 369.331 74.942 369.815 75.47C370.299 75.998 370.673 76.636 370.937 77.384C371.245 78.088 371.465 78.836 371.597 79.628C371.773 80.376 371.927 80.97 372.059 81.41C372.499 82.906 372.851 84.446 373.115 86.03C373.379 87.57 373.885 89.044 374.633 90.452L380.837 113.948C380.969 114.388 381.211 114.74 381.563 115.004C381.959 115.268 382.399 115.488 382.883 115.664C383.367 115.796 383.829 115.906 384.269 115.994C384.753 116.082 385.171 116.17 385.523 116.258C386.359 116.786 386.777 117.6 386.777 118.7C386.777 119.756 386.447 120.57 385.787 121.142C385.127 121.67 384.291 121.934 383.279 121.934C382.179 121.934 381.035 121.912 379.847 121.868C378.659 121.78 377.537 121.714 376.481 121.67C375.777 121.67 375.117 121.648 374.501 121.604C373.885 121.56 373.335 121.45 372.851 121.274C372.367 121.054 371.971 120.724 371.663 120.284C371.399 119.844 371.267 119.228 371.267 118.436V117.314C371.575 116.918 371.927 116.632 372.323 116.456C372.763 116.236 373.181 116.038 373.577 115.862C374.017 115.686 374.391 115.51 374.699 115.334C375.051 115.114 375.293 114.828 375.425 114.476C375.425 114.388 375.403 114.212 375.359 113.948C375.315 113.64 375.249 113.332 375.161 113.024C375.117 112.716 375.073 112.43 375.029 112.166C374.985 111.902 374.941 111.726 374.897 111.638C374.853 111.506 374.787 111.264 374.699 110.912C374.611 110.56 374.479 110.186 374.303 109.79C374.127 109.394 373.929 109.042 373.709 108.734C373.533 108.426 373.335 108.272 373.115 108.272H362.753C362.665 108.272 362.445 108.426 362.093 108.734C361.741 108.998 361.543 109.174 361.499 109.262L359.651 113.156C359.651 113.2 359.629 113.332 359.585 113.552C359.585 113.772 359.585 113.926 359.585 114.014C359.585 114.762 359.783 115.268 360.179 115.532C360.619 115.796 361.081 116.038 361.565 116.258C362.049 116.478 362.489 116.786 362.885 117.182C363.325 117.534 363.545 118.172 363.545 119.096C363.545 120.108 363.193 120.834 362.489 121.274C361.829 121.714 361.015 121.934 360.047 121.934C359.431 121.934 358.815 121.89 358.199 121.802C357.627 121.714 357.011 121.67 356.351 121.67C355.471 121.67 354.613 121.758 353.777 121.934C352.941 122.066 352.083 122.132 351.203 122.132C350.191 122.132 349.399 121.758 348.827 121.01C348.255 120.218 347.969 119.36 347.969 118.436ZM363.281 102.332C363.765 102.64 364.227 102.816 364.667 102.86C365.107 102.86 365.635 102.86 366.251 102.86C367.131 102.86 367.989 102.794 368.825 102.662C369.705 102.53 370.607 102.42 371.531 102.332L371.795 102.068C371.795 102.024 371.795 101.914 371.795 101.738C371.839 101.518 371.861 101.364 371.861 101.276C371.861 100.924 371.773 100.33 371.597 99.494C371.421 98.614 371.179 97.668 370.871 96.656C370.607 95.6 370.299 94.522 369.947 93.422C369.595 92.322 369.265 91.332 368.957 90.452C368.649 89.528 368.385 88.78 368.165 88.208C367.945 87.592 367.813 87.284 367.769 87.284C367.593 87.284 367.461 87.394 367.373 87.614C367.285 87.834 367.219 87.988 367.175 88.076C367.043 88.428 366.845 88.956 366.581 89.66C366.361 90.32 366.119 91.002 365.855 91.706C365.591 92.366 365.349 92.982 365.129 93.554C364.953 94.082 364.843 94.412 364.799 94.544C364.447 95.688 364.095 96.854 363.743 98.042C363.391 99.23 363.215 100.396 363.215 101.54C363.215 101.628 363.215 101.76 363.215 101.936C363.259 102.112 363.281 102.244 363.281 102.332ZM393.93 117.908C393.93 118.436 394.172 118.942 394.656 119.426C395.184 119.866 395.8 120.24 396.504 120.548C397.252 120.856 397.978 121.098 398.682 121.274C399.43 121.45 400.046 121.538 400.53 121.538C401.938 121.538 403.28 121.318 404.556 120.878C405.832 120.438 407.174 120.218 408.582 120.218C409.418 120.218 410.21 120.372 410.958 120.68C411.75 120.944 412.564 121.076 413.4 121.076C413.972 121.076 414.522 121.032 415.05 120.944C415.622 120.812 416.128 120.636 416.568 120.416C417.008 120.152 417.36 119.822 417.624 119.426C417.888 118.986 418.02 118.458 418.02 117.842C418.02 116.786 417.712 115.994 417.096 115.466C416.524 114.938 415.798 114.564 414.918 114.344C414.082 114.08 413.18 113.926 412.212 113.882C411.244 113.838 410.408 113.816 409.704 113.816L409.176 113.288L408.846 92.102V90.782L408.714 84.314C408.89 83.698 409 82.994 409.044 82.202C409.132 81.41 409.176 80.75 409.176 80.222L409.44 79.958C409.484 79.958 409.638 79.958 409.902 79.958C410.166 79.914 410.342 79.892 410.43 79.892C411.046 79.892 411.684 79.98 412.344 80.156C413.048 80.332 413.686 80.618 414.258 81.014C414.874 81.366 415.358 81.828 415.71 82.4C416.106 82.928 416.304 83.566 416.304 84.314V91.31C416.304 92.102 416.634 92.828 417.294 93.488C417.954 94.148 418.658 94.478 419.406 94.478C420.33 94.478 421.056 94.082 421.584 93.29C422.112 92.498 422.376 91.662 422.376 90.782V77.648C422.376 76.812 422.024 76.02 421.32 75.272C420.66 74.524 419.89 74.15 419.01 74.15H404.292C403.896 73.93 403.566 73.82 403.302 73.82C403.038 73.776 402.73 73.754 402.378 73.754C401.982 73.754 401.652 73.776 401.388 73.82C401.168 73.82 400.838 73.93 400.398 74.15H392.412C392.016 74.15 391.642 74.304 391.29 74.612C390.982 74.92 390.696 75.294 390.432 75.734C390.168 76.13 389.948 76.548 389.772 76.988C389.64 77.428 389.574 77.802 389.574 78.11V90.782C389.574 91.574 389.794 92.388 390.234 93.224C390.674 94.06 391.334 94.478 392.214 94.478C393.314 94.478 394.084 94.192 394.524 93.62C394.964 93.004 395.228 92.256 395.316 91.376C395.404 90.452 395.426 89.44 395.382 88.34C395.382 87.24 395.492 86.184 395.712 85.172C395.932 84.116 396.35 83.17 396.966 82.334C397.626 81.454 398.682 80.838 400.134 80.486C400.222 80.442 400.42 80.42 400.728 80.42C401.08 80.376 401.322 80.354 401.454 80.354C401.542 80.354 401.718 80.376 401.982 80.42C402.246 80.42 402.422 80.442 402.51 80.486L402.774 80.75V113.552L401.982 114.41H395.778C395.382 114.41 395.052 114.542 394.788 114.806C394.568 115.07 394.392 115.4 394.26 115.796C394.128 116.148 394.04 116.522 393.996 116.918C393.952 117.314 393.93 117.644 393.93 117.908ZM425.58 119.03C425.58 119.778 425.712 120.35 425.976 120.746C426.24 121.142 426.592 121.45 427.032 121.67C427.516 121.846 428.044 121.956 428.616 122C429.188 122 429.782 122 430.398 122C430.926 122 431.542 122 432.246 122C432.95 122.044 433.588 121.956 434.16 121.736H456.138C456.622 121.912 457.062 122 457.458 122C457.898 122 458.36 122 458.844 122C460.428 122 461.704 121.56 462.672 120.68C463.64 119.8 464.124 118.546 464.124 116.918C464.124 116.434 464.102 116.038 464.058 115.73C464.058 115.378 463.948 114.96 463.728 114.476V105.434C463.728 104.598 463.442 103.762 462.87 102.926C462.298 102.046 461.55 101.606 460.626 101.606C459.878 101.606 459.24 101.892 458.712 102.464C458.184 103.036 457.92 103.696 457.92 104.444V110.912C457.92 111.044 457.854 111.264 457.722 111.572C457.59 111.836 457.48 112.034 457.392 112.166C456.82 113.222 456.226 113.926 455.61 114.278C454.994 114.586 454.312 114.762 453.564 114.806C452.86 114.85 452.068 114.872 451.188 114.872C450.352 114.828 449.406 114.96 448.35 115.268H441.684L441.156 114.74V100.286C441.156 100.286 441.178 100.22 441.222 100.088C441.266 99.956 441.332 99.846 441.42 99.758C441.42 99.582 441.508 99.494 441.684 99.494H444.522C444.786 99.494 445.094 99.67 445.446 100.022C445.842 100.33 446.216 100.704 446.568 101.144C446.964 101.54 447.294 101.958 447.558 102.398C447.822 102.838 447.998 103.168 448.086 103.388C448.086 103.916 448.086 104.598 448.086 105.434C448.086 106.27 448.174 107.084 448.35 107.876C448.526 108.624 448.834 109.284 449.274 109.856C449.714 110.384 450.374 110.648 451.254 110.648C452.618 110.648 453.3 109.944 453.3 108.536V86.888C453.3 86.14 453.08 85.524 452.64 85.04C452.2 84.512 451.628 84.248 450.924 84.248C450.044 84.248 449.45 84.534 449.142 85.106C448.834 85.678 448.636 86.36 448.548 87.152C448.46 87.944 448.394 88.758 448.35 89.594C448.306 90.386 448.13 91.024 447.822 91.508C447.47 92.08 446.986 92.476 446.37 92.696C445.798 92.916 445.27 93.202 444.786 93.554H441.42L441.156 93.29C441.156 93.29 441.134 93.18 441.09 92.96C441.046 92.74 440.98 92.498 440.892 92.234C440.848 91.926 440.804 91.618 440.76 91.31C440.716 90.958 440.672 90.672 440.628 90.452V90.386V90.254C440.628 90.166 440.672 89.902 440.76 89.462C440.848 89.022 440.892 88.758 440.892 88.67C440.892 88.406 440.892 87.922 440.892 87.218C440.936 86.514 440.98 85.766 441.024 84.974C441.068 84.182 441.09 83.434 441.09 82.73C441.134 81.982 441.156 81.476 441.156 81.212L441.42 80.948H454.026C454.378 80.948 454.796 81.19 455.28 81.674C455.808 82.114 456.182 82.466 456.402 82.73C456.578 82.994 456.798 83.39 457.062 83.918C457.37 84.446 457.524 84.732 457.524 84.776V91.772C457.524 92.476 457.81 93.048 458.382 93.488C458.998 93.928 459.614 94.148 460.23 94.148C460.978 94.148 461.638 93.906 462.21 93.422C462.782 92.938 463.068 92.3 463.068 91.508V77.582C463.068 76.922 462.848 76.218 462.408 75.47C461.968 74.722 461.418 74.304 460.758 74.216C455.39 74.26 450.044 74.238 444.72 74.15C439.396 74.018 434.05 73.952 428.682 73.952C427.538 73.952 426.658 74.326 426.042 75.074C425.426 75.778 425.118 76.658 425.118 77.714C425.118 78.99 425.492 79.892 426.24 80.42C426.988 80.948 427.956 81.212 429.144 81.212C429.892 81.212 430.596 81.168 431.256 81.08C431.96 80.948 432.686 80.882 433.434 80.882C433.61 80.882 433.852 80.882 434.16 80.882C434.468 80.882 434.644 80.904 434.688 80.948L435.216 81.41V83.06C435.216 83.588 435.216 84.226 435.216 84.974C435.26 85.678 435.172 86.316 434.952 86.888L435.084 95.93V97.184L435.216 112.694C435.216 112.958 435.15 113.332 435.018 113.816C434.886 114.256 434.688 114.564 434.424 114.74C434.204 114.74 433.918 114.784 433.566 114.872C433.214 114.916 432.84 114.982 432.444 115.07C432.048 115.114 431.652 115.158 431.256 115.202C430.904 115.246 430.618 115.268 430.398 115.268H430.266C430.178 115.268 429.914 115.246 429.474 115.202C429.078 115.114 428.836 115.048 428.748 115.004H428.352C427.78 115.004 427.318 115.136 426.966 115.4C426.614 115.62 426.328 115.928 426.108 116.324C425.932 116.72 425.8 117.16 425.712 117.644C425.624 118.128 425.58 118.59 425.58 119.03ZM513.841 121.208C514.765 121.208 515.667 121.34 516.547 121.604C517.427 121.868 518.307 122 519.187 122H519.319C519.407 121.956 519.605 121.89 519.913 121.802C520.265 121.714 520.485 121.648 520.573 121.604H535.819C536.303 121.604 536.743 121.45 537.139 121.142C537.579 120.79 537.931 120.372 538.195 119.888C538.503 119.404 538.745 118.898 538.921 118.37C539.097 117.798 539.185 117.314 539.185 116.918C539.185 116.566 539.163 116.28 539.119 116.06C539.119 115.796 539.009 115.444 538.789 115.004V103.388C538.789 102.552 538.547 101.826 538.063 101.21C537.623 100.594 537.007 100.286 536.215 100.286C535.291 100.286 534.609 100.616 534.169 101.276C533.773 101.892 533.487 102.684 533.311 103.652C533.179 104.62 533.091 105.676 533.047 106.82C533.047 107.964 532.959 109.064 532.783 110.12C532.651 111.132 532.387 112.034 531.991 112.826C531.639 113.574 531.023 114.058 530.143 114.278C529.923 114.278 529.549 114.3 529.021 114.344C528.537 114.344 528.009 114.366 527.437 114.41C526.865 114.41 526.315 114.432 525.787 114.476C525.259 114.52 524.907 114.542 524.731 114.542C524.247 114.586 523.829 114.74 523.477 115.004C523.125 115.224 522.729 115.334 522.289 115.334C522.069 115.334 521.937 115.334 521.893 115.334C521.849 115.29 521.783 115.246 521.695 115.202C521.651 115.158 521.563 115.114 521.431 115.07C521.343 114.982 521.145 114.872 520.837 114.74C520.705 114.696 520.463 114.652 520.111 114.608C519.759 114.564 519.407 114.52 519.055 114.476C518.703 114.432 518.395 114.388 518.131 114.344C517.867 114.256 517.735 114.146 517.735 114.014V88.406C517.779 88.318 517.823 88.12 517.867 87.812C517.955 87.46 517.999 87.24 517.999 87.152C517.999 86.932 518.021 86.558 518.065 86.03C518.109 85.502 518.131 84.93 518.131 84.314C518.175 83.698 518.197 83.126 518.197 82.598C518.241 82.07 518.263 81.696 518.263 81.476L518.527 81.212H526.051C526.843 81.212 527.459 80.948 527.899 80.42C528.383 79.848 528.625 79.188 528.625 78.44C528.625 77.648 528.427 77.01 528.031 76.526C527.679 76.042 527.217 75.668 526.645 75.404C526.073 75.14 525.435 74.964 524.731 74.876C524.071 74.788 523.433 74.744 522.817 74.744C522.069 74.744 521.365 74.788 520.705 74.876C520.045 74.964 519.363 75.008 518.659 75.008C517.999 75.008 517.361 74.964 516.745 74.876C516.129 74.788 515.469 74.744 514.765 74.744C514.061 74.744 513.379 74.788 512.719 74.876C512.059 74.964 511.377 75.008 510.673 75.008C509.793 75.008 508.913 74.92 508.033 74.744C507.153 74.568 506.273 74.48 505.393 74.48C504.293 74.48 503.325 74.766 502.489 75.338C501.653 75.91 501.235 76.79 501.235 77.978C501.235 78.726 501.477 79.474 501.961 80.222C502.489 80.97 503.193 81.344 504.073 81.344H511.069L511.795 82.268C511.839 82.268 511.861 82.554 511.861 83.126C511.861 83.654 511.861 84.072 511.861 84.38C511.861 84.82 511.861 85.546 511.861 86.558C511.861 87.526 511.751 88.318 511.531 88.934V108.8C511.751 109.328 511.861 109.878 511.861 110.45C511.861 111.022 511.861 111.55 511.861 112.034C511.861 112.21 511.839 112.54 511.795 113.024C511.795 113.508 511.795 113.838 511.795 114.014C511.575 114.366 511.267 114.674 510.871 114.938C510.475 115.202 510.079 115.334 509.683 115.334C508.935 115.334 508.209 115.202 507.505 114.938C506.801 114.63 506.075 114.476 505.327 114.476C504.183 114.476 503.259 114.762 502.555 115.334C501.851 115.906 501.499 116.786 501.499 117.974C501.499 119.118 501.895 120.042 502.687 120.746C503.523 121.406 504.513 121.736 505.657 121.736C507.065 121.736 508.429 121.648 509.749 121.472C511.113 121.296 512.477 121.208 513.841 121.208ZM558.634 72.566C556.434 72.566 554.498 73.028 552.826 73.952C551.154 74.832 549.702 75.998 548.47 77.45C547.238 78.902 546.204 80.552 545.368 82.4C544.532 84.204 543.828 86.03 543.256 87.878C543.168 88.186 543.036 88.626 542.86 89.198C542.728 89.726 542.596 90.276 542.464 90.848C542.332 91.376 542.2 91.86 542.068 92.3C541.98 92.74 541.936 92.982 541.936 93.026V103.652C541.936 103.696 541.958 103.85 542.002 104.114C542.09 104.378 542.156 104.686 542.2 105.038C542.288 105.346 542.376 105.676 542.464 106.028C542.552 106.336 542.64 106.578 542.728 106.754C542.992 107.59 543.366 108.558 543.85 109.658C544.334 110.758 544.884 111.88 545.5 113.024C546.16 114.124 546.864 115.158 547.612 116.126C548.36 117.094 549.13 117.842 549.922 118.37C550.01 118.458 550.23 118.59 550.582 118.766C550.978 118.942 551.374 119.14 551.77 119.36C552.166 119.536 552.54 119.712 552.892 119.888C553.244 120.064 553.464 120.174 553.552 120.218C554.52 120.702 555.4 121.12 556.192 121.472C557.028 121.824 558.018 122 559.162 122C559.822 122 560.35 121.956 560.746 121.868C561.142 121.736 561.494 121.582 561.802 121.406C562.154 121.23 562.506 121.054 562.858 120.878C563.21 120.658 563.65 120.438 564.178 120.218C566.554 119.294 568.512 117.974 570.052 116.258C571.636 114.498 572.89 112.54 573.814 110.384C574.738 108.184 575.376 105.874 575.728 103.454C576.124 100.99 576.322 98.592 576.322 96.26C576.322 93.884 576.014 91.574 575.398 89.33C574.782 87.086 573.968 84.864 572.956 82.664C572.296 82.004 571.746 81.278 571.306 80.486C570.866 79.65 570.382 78.836 569.854 78.044C569.59 77.648 569.216 77.318 568.732 77.054C568.292 76.79 567.896 76.526 567.544 76.262C566.796 75.69 566.07 75.184 565.366 74.744C564.706 74.26 564.024 73.864 563.32 73.556C562.616 73.248 561.89 73.006 561.142 72.83C560.394 72.654 559.558 72.566 558.634 72.566ZM547.612 97.184C547.612 95.732 547.832 93.95 548.272 91.838C548.756 89.726 549.46 87.702 550.384 85.766C551.308 83.83 552.474 82.18 553.882 80.816C555.29 79.452 556.962 78.77 558.898 78.77C560.13 78.77 561.12 79.078 561.868 79.694C562.616 80.266 563.474 80.926 564.442 81.674C565.454 82.466 566.268 83.302 566.884 84.182C567.5 85.018 568.006 85.898 568.402 86.822C568.798 87.746 569.106 88.736 569.326 89.792C569.59 90.804 569.854 91.882 570.118 93.026V101.54C570.118 102.288 569.986 102.882 569.722 103.322C569.502 103.762 569.282 104.29 569.062 104.906C568.842 105.698 568.534 106.644 568.138 107.744C567.742 108.8 567.236 109.812 566.62 110.78C566.004 111.704 565.278 112.518 564.442 113.222C563.606 113.882 562.66 114.212 561.604 114.212H555.136C554.652 114.212 554.102 113.926 553.486 113.354C552.87 112.782 552.254 112.122 551.638 111.374C551.066 110.626 550.538 109.856 550.054 109.064C549.614 108.272 549.328 107.678 549.196 107.282C548.668 105.698 548.272 104.048 548.008 102.332C547.744 100.572 547.612 98.856 547.612 97.184ZM579.092 118.568C579.092 119.536 579.4 120.372 580.016 121.076C580.632 121.736 581.446 122.066 582.458 122.066H583.25C584.086 122.066 585.494 122.044 587.474 122C589.498 122 591.698 122 594.074 122C596.45 122 598.628 122 600.608 122C602.632 121.956 604.084 121.934 604.964 121.934C606.196 121.714 607.34 121.34 608.396 120.812C609.496 120.284 610.596 119.712 611.696 119.096C612.488 118.392 613.192 117.556 613.808 116.588C614.424 115.62 614.93 114.586 615.326 113.486C615.766 112.386 616.096 111.286 616.316 110.186C616.536 109.042 616.646 107.964 616.646 106.952C616.646 105.544 616.47 104.312 616.118 103.256C615.766 102.156 615.238 100.968 614.534 99.692C614.358 99.428 614.116 99.164 613.808 98.9C613.5 98.636 613.192 98.35 612.884 98.042C612.576 97.734 612.29 97.448 612.026 97.184C611.806 96.876 611.696 96.59 611.696 96.326C611.696 95.842 611.938 95.27 612.422 94.61C612.906 93.95 613.258 93.488 613.478 93.224C614.006 92.432 614.402 91.508 614.666 90.452C614.93 89.396 615.062 88.384 615.062 87.416C615.062 85.436 614.754 83.72 614.138 82.268C613.566 80.772 612.73 79.518 611.63 78.506C610.53 77.494 609.188 76.68 607.604 76.064C606.064 75.404 604.326 74.92 602.39 74.612H601.07C599.222 74.612 597.396 74.744 595.592 75.008C593.788 75.272 591.962 75.404 590.114 75.404H586.088C585.296 75.184 584.636 75.052 584.108 75.008C583.58 74.92 582.964 74.876 582.26 74.876C581.292 74.876 580.522 75.184 579.95 75.8C579.378 76.372 579.092 77.142 579.092 78.11C579.092 79.342 579.51 80.244 580.346 80.816C581.226 81.344 582.238 81.608 583.382 81.608C583.91 81.608 584.416 81.564 584.9 81.476C585.428 81.388 585.956 81.344 586.484 81.344H586.946C587.298 81.344 587.672 81.41 588.068 81.542C588.464 81.674 588.662 81.872 588.662 82.136V115.466L588.398 115.73C588.354 115.73 588.178 115.752 587.87 115.796C587.606 115.796 587.408 115.796 587.276 115.796C586.484 115.796 585.714 115.752 584.966 115.664C584.218 115.532 583.47 115.466 582.722 115.466H581.138C579.774 116.038 579.092 117.072 579.092 118.568ZM595.592 99.692C595.9 99.692 596.164 99.736 596.384 99.824C596.648 99.912 596.934 99.956 597.242 99.956C597.55 99.956 597.792 99.934 597.968 99.89C598.144 99.846 598.408 99.692 598.76 99.428H606.218C606.306 99.428 606.504 99.538 606.812 99.758C607.164 99.934 607.406 100.088 607.538 100.22L610.64 103.322C611.036 103.762 611.212 104.356 611.168 105.104C611.168 105.852 611.168 106.512 611.168 107.084C611.168 108.228 611.08 109.24 610.904 110.12C610.772 111 610.486 111.792 610.046 112.496C609.606 113.156 609.012 113.75 608.264 114.278C607.56 114.806 606.636 115.29 605.492 115.73C603.952 115.774 602.434 115.884 600.938 116.06C599.486 116.192 598.012 116.258 596.516 116.258C596.252 116.258 595.856 116.192 595.328 116.06C594.844 115.884 594.602 115.598 594.602 115.202V100.484C594.602 100.396 594.69 100.264 594.866 100.088C595.086 99.912 595.262 99.78 595.394 99.692H595.592ZM594.602 81.344H602.852C603.732 81.564 604.436 81.718 604.964 81.806C605.536 81.85 606.042 81.96 606.482 82.136C606.922 82.268 607.318 82.532 607.67 82.928C608.066 83.28 608.528 83.874 609.056 84.71C609.232 84.886 609.32 85.062 609.32 85.238V89.594C609.32 90.034 609.188 90.452 608.924 90.848C608.704 91.244 608.418 91.618 608.066 91.97C607.714 92.278 607.34 92.564 606.944 92.828C606.592 93.092 606.262 93.312 605.954 93.488C604.766 93.576 603.402 93.642 601.862 93.686C600.322 93.73 598.848 93.752 597.44 93.752H596.648C596.208 93.752 595.746 93.708 595.262 93.62C594.822 93.488 594.602 93.18 594.602 92.696V81.344ZM619.341 118.568C619.341 119.536 619.649 120.372 620.265 121.076C620.881 121.736 621.695 122.066 622.707 122.066H623.499C624.335 122.066 625.743 122.044 627.723 122C629.747 122 631.947 122 634.323 122C636.699 122 638.877 122 640.857 122C642.881 121.956 644.333 121.934 645.213 121.934C646.445 121.714 647.589 121.34 648.645 120.812C649.745 120.284 650.845 119.712 651.945 119.096C652.737 118.392 653.441 117.556 654.057 116.588C654.673 115.62 655.179 114.586 655.575 113.486C656.015 112.386 656.345 111.286 656.565 110.186C656.785 109.042 656.895 107.964 656.895 106.952C656.895 105.544 656.719 104.312 656.367 103.256C656.015 102.156 655.487 100.968 654.783 99.692C654.607 99.428 654.365 99.164 654.057 98.9C653.749 98.636 653.441 98.35 653.133 98.042C652.825 97.734 652.539 97.448 652.275 97.184C652.055 96.876 651.945 96.59 651.945 96.326C651.945 95.842 652.187 95.27 652.671 94.61C653.155 93.95 653.507 93.488 653.727 93.224C654.255 92.432 654.651 91.508 654.915 90.452C655.179 89.396 655.311 88.384 655.311 87.416C655.311 85.436 655.003 83.72 654.387 82.268C653.815 80.772 652.979 79.518 651.879 78.506C650.779 77.494 649.437 76.68 647.853 76.064C646.313 75.404 644.575 74.92 642.639 74.612H641.319C639.471 74.612 637.645 74.744 635.841 75.008C634.037 75.272 632.211 75.404 630.363 75.404H626.337C625.545 75.184 624.885 75.052 624.357 75.008C623.829 74.92 623.213 74.876 622.509 74.876C621.541 74.876 620.771 75.184 620.199 75.8C619.627 76.372 619.341 77.142 619.341 78.11C619.341 79.342 619.759 80.244 620.595 80.816C621.475 81.344 622.487 81.608 623.631 81.608C624.159 81.608 624.665 81.564 625.149 81.476C625.677 81.388 626.205 81.344 626.733 81.344H627.195C627.547 81.344 627.921 81.41 628.317 81.542C628.713 81.674 628.911 81.872 628.911 82.136V115.466L628.647 115.73C628.603 115.73 628.427 115.752 628.119 115.796C627.855 115.796 627.657 115.796 627.525 115.796C626.733 115.796 625.963 115.752 625.215 115.664C624.467 115.532 623.719 115.466 622.971 115.466H621.387C620.023 116.038 619.341 117.072 619.341 118.568ZM635.841 99.692C636.149 99.692 636.413 99.736 636.633 99.824C636.897 99.912 637.183 99.956 637.491 99.956C637.799 99.956 638.041 99.934 638.217 99.89C638.393 99.846 638.657 99.692 639.009 99.428H646.467C646.555 99.428 646.753 99.538 647.061 99.758C647.413 99.934 647.655 100.088 647.787 100.22L650.889 103.322C651.285 103.762 651.461 104.356 651.417 105.104C651.417 105.852 651.417 106.512 651.417 107.084C651.417 108.228 651.329 109.24 651.153 110.12C651.021 111 650.735 111.792 650.295 112.496C649.855 113.156 649.261 113.75 648.513 114.278C647.809 114.806 646.885 115.29 645.741 115.73C644.201 115.774 642.683 115.884 641.187 116.06C639.735 116.192 638.261 116.258 636.765 116.258C636.501 116.258 636.105 116.192 635.577 116.06C635.093 115.884 634.851 115.598 634.851 115.202V100.484C634.851 100.396 634.939 100.264 635.115 100.088C635.335 99.912 635.511 99.78 635.643 99.692H635.841ZM634.851 81.344H643.101C643.981 81.564 644.685 81.718 645.213 81.806C645.785 81.85 646.291 81.96 646.731 82.136C647.171 82.268 647.567 82.532 647.919 82.928C648.315 83.28 648.777 83.874 649.305 84.71C649.481 84.886 649.569 85.062 649.569 85.238V89.594C649.569 90.034 649.437 90.452 649.173 90.848C648.953 91.244 648.667 91.618 648.315 91.97C647.963 92.278 647.589 92.564 647.193 92.828C646.841 93.092 646.511 93.312 646.203 93.488C645.015 93.576 643.651 93.642 642.111 93.686C640.571 93.73 639.097 93.752 637.689 93.752H636.897C636.457 93.752 635.995 93.708 635.511 93.62C635.071 93.488 634.851 93.18 634.851 92.696V81.344ZM666.785 118.172C666.785 119.184 667.181 120.042 667.973 120.746C668.765 121.45 669.667 121.802 670.679 121.802H679.259L680.513 121.406H689.555C690.391 121.406 691.029 121.01 691.469 120.218C691.953 119.426 692.195 118.678 692.195 117.974C692.195 117.094 691.777 116.456 690.941 116.06C690.105 115.664 689.291 115.422 688.499 115.334C688.279 115.334 687.905 115.312 687.377 115.268C686.893 115.224 686.365 115.202 685.793 115.202C685.221 115.158 684.671 115.136 684.143 115.136C683.659 115.092 683.307 115.07 683.087 115.07L682.823 114.806L682.295 112.232V102.662C682.295 102.618 682.317 102.508 682.361 102.332C682.449 102.156 682.515 102.024 682.559 101.936C683.923 99.12 685.265 96.326 686.585 93.554C687.905 90.738 689.247 87.922 690.611 85.106C690.699 84.886 690.831 84.6 691.007 84.248C691.227 83.852 691.425 83.456 691.601 83.06C691.777 82.664 691.931 82.334 692.063 82.07C692.239 81.762 692.349 81.564 692.393 81.476C692.481 81.388 692.613 81.256 692.789 81.08C692.965 80.86 693.097 80.75 693.185 80.75H696.815C697.123 80.75 697.387 80.662 697.607 80.486C697.871 80.266 698.069 80.024 698.201 79.76C698.333 79.452 698.421 79.144 698.465 78.836C698.553 78.528 698.597 78.242 698.597 77.978C698.597 77.318 698.421 76.746 698.069 76.262C697.761 75.778 697.343 75.382 696.815 75.074C696.287 74.722 695.715 74.458 695.099 74.282C694.483 74.106 693.889 74.018 693.317 74.018C692.657 74.018 692.019 74.062 691.403 74.15C690.787 74.238 690.127 74.282 689.423 74.282C688.675 74.282 687.971 74.238 687.311 74.15C686.695 74.062 686.013 74.018 685.265 74.018C684.385 74.018 683.615 74.238 682.955 74.678C682.339 75.074 682.031 75.756 682.031 76.724C682.031 77.516 682.163 78.088 682.427 78.44C682.691 78.792 683.021 79.1 683.417 79.364C683.813 79.584 684.209 79.804 684.605 80.024C685.045 80.244 685.397 80.574 685.661 81.014C685.705 81.102 685.727 81.256 685.727 81.476C685.727 81.652 685.727 81.784 685.727 81.872C685.727 82.488 685.617 83.06 685.397 83.588C685.221 84.116 685.001 84.644 684.737 85.172C684.473 85.656 684.187 86.162 683.879 86.69C683.571 87.174 683.307 87.68 683.087 88.208C683.043 88.296 682.977 88.472 682.889 88.736C682.801 89 682.691 89.308 682.559 89.66C682.471 89.968 682.361 90.276 682.229 90.584C682.141 90.848 682.097 91.002 682.097 91.046C682.009 91.178 681.877 91.42 681.701 91.772C681.569 92.124 681.393 92.498 681.173 92.894C680.997 93.29 680.821 93.664 680.645 94.016C680.469 94.324 680.337 94.544 680.249 94.676C680.205 94.852 680.095 94.94 679.919 94.94C679.787 94.94 679.677 94.94 679.589 94.94C679.325 94.94 679.083 94.83 678.863 94.61C678.643 94.39 678.445 94.148 678.269 93.884C678.093 93.576 677.939 93.268 677.807 92.96C677.675 92.608 677.543 92.322 677.411 92.102L673.517 84.314C673.429 84.138 673.253 83.72 672.989 83.06C672.769 82.4 672.615 81.96 672.527 81.74C672.527 81.74 672.505 81.718 672.461 81.674C672.461 81.586 672.461 81.52 672.461 81.476C672.461 81.124 672.659 80.882 673.055 80.75C673.495 80.618 673.957 80.464 674.441 80.288C674.925 80.112 675.365 79.848 675.761 79.496C676.201 79.1 676.421 78.506 676.421 77.714C676.421 76.658 676.113 75.888 675.497 75.404C674.881 74.92 674.133 74.612 673.253 74.48C672.373 74.304 671.449 74.238 670.481 74.282C669.557 74.326 668.765 74.326 668.105 74.282C668.017 74.282 667.797 74.238 667.445 74.15C667.137 74.062 666.939 74.018 666.851 74.018H666.455C665.751 74.018 665.003 74.084 664.211 74.216C663.419 74.304 662.671 74.502 661.967 74.81C661.307 75.118 660.735 75.558 660.251 76.13C659.811 76.658 659.591 77.362 659.591 78.242C659.591 79.034 659.789 79.65 660.185 80.09C660.625 80.486 661.131 80.772 661.703 80.948C662.319 81.08 662.957 81.168 663.617 81.212C664.321 81.212 664.959 81.212 665.531 81.212C665.971 81.564 666.323 81.982 666.587 82.466C666.895 82.906 667.159 83.39 667.379 83.918C667.599 84.446 667.819 84.974 668.039 85.502C668.303 86.03 668.589 86.514 668.897 86.954C668.941 86.998 669.073 87.152 669.293 87.416C669.513 87.68 669.645 87.856 669.689 87.944C670.129 88.956 670.481 89.946 670.745 90.914C671.009 91.882 671.515 92.784 672.263 93.62L676.355 102.662V114.806L676.157 115.07C676.069 115.07 675.805 115.092 675.365 115.136C674.925 115.136 674.595 115.136 674.375 115.136C673.627 115.136 672.923 115.092 672.263 115.004C671.647 114.872 670.987 114.806 670.283 114.806C669.403 114.806 668.589 115.158 667.841 115.862C667.137 116.522 666.785 117.292 666.785 118.172Z" fill="white"/>
</svg>
