<svg width="1920" height="1080" viewBox="0 0 1920 1080" fill="none" xmlns="http://www.w3.org/2000/svg">
<rect width="1920" height="1080" fill="#420C14"/>
<path d="M143.714 952.642C143.714 953.346 143.938 953.954 144.386 954.466C144.834 954.946 145.426 955.186 146.162 955.186H146.738C147.346 955.186 148.37 955.17 149.81 955.138C151.282 955.138 152.882 955.138 154.61 955.138C156.338 955.138 157.922 955.138 159.362 955.138C160.834 955.106 161.89 955.09 162.53 955.09C163.426 954.93 164.258 954.658 165.026 954.274C165.826 953.89 166.626 953.474 167.426 953.026C168.002 952.514 168.514 951.906 168.962 951.202C169.41 950.498 169.778 949.746 170.066 948.946C170.386 948.146 170.626 947.346 170.786 946.546C170.946 945.714 171.026 944.93 171.026 944.194C171.026 943.17 170.898 942.274 170.642 941.506C170.386 940.706 170.002 939.842 169.49 938.914C169.362 938.722 169.186 938.53 168.962 938.338C168.738 938.146 168.514 937.938 168.29 937.714C168.066 937.49 167.858 937.282 167.666 937.09C167.506 936.866 167.426 936.658 167.426 936.466C167.426 936.114 167.602 935.698 167.954 935.218C168.306 934.738 168.562 934.402 168.722 934.21C169.106 933.634 169.394 932.962 169.586 932.194C169.778 931.426 169.874 930.69 169.874 929.986C169.874 928.546 169.65 927.298 169.202 926.242C168.786 925.154 168.178 924.242 167.378 923.506C166.578 922.77 165.602 922.178 164.45 921.73C163.33 921.25 162.066 920.898 160.658 920.674H159.698C158.354 920.674 157.026 920.77 155.714 920.962C154.402 921.154 153.074 921.25 151.73 921.25H148.802C148.226 921.09 147.746 920.994 147.362 920.962C146.978 920.898 146.53 920.866 146.018 920.866C145.314 920.866 144.754 921.09 144.338 921.538C143.922 921.954 143.714 922.514 143.714 923.218C143.714 924.114 144.018 924.77 144.626 925.186C145.266 925.57 146.002 925.762 146.834 925.762C147.218 925.762 147.586 925.73 147.938 925.666C148.322 925.602 148.706 925.57 149.09 925.57H149.426C149.682 925.57 149.954 925.618 150.242 925.714C150.53 925.81 150.674 925.954 150.674 926.146V950.386L150.482 950.578C150.45 950.578 150.322 950.594 150.098 950.626C149.906 950.626 149.762 950.626 149.666 950.626C149.09 950.626 148.53 950.594 147.986 950.53C147.442 950.434 146.898 950.386 146.354 950.386H145.202C144.21 950.802 143.714 951.554 143.714 952.642ZM155.714 938.914C155.938 938.914 156.13 938.946 156.29 939.01C156.482 939.074 156.69 939.106 156.914 939.106C157.138 939.106 157.314 939.09 157.442 939.058C157.57 939.026 157.762 938.914 158.018 938.722H163.442C163.506 938.722 163.65 938.802 163.874 938.962C164.13 939.09 164.306 939.202 164.402 939.298L166.658 941.554C166.946 941.874 167.074 942.306 167.042 942.85C167.042 943.394 167.042 943.874 167.042 944.29C167.042 945.122 166.978 945.858 166.85 946.498C166.754 947.138 166.546 947.714 166.226 948.226C165.906 948.706 165.474 949.138 164.93 949.522C164.418 949.906 163.746 950.258 162.914 950.578C161.794 950.61 160.69 950.69 159.602 950.818C158.546 950.914 157.474 950.962 156.386 950.962C156.194 950.962 155.906 950.914 155.522 950.818C155.17 950.69 154.994 950.482 154.994 950.194V939.49C154.994 939.426 155.058 939.33 155.186 939.202C155.346 939.074 155.474 938.978 155.57 938.914H155.714ZM154.994 925.57H160.994C161.634 925.73 162.146 925.842 162.53 925.906C162.946 925.938 163.314 926.018 163.634 926.146C163.954 926.242 164.242 926.434 164.498 926.722C164.786 926.978 165.122 927.41 165.506 928.018C165.634 928.146 165.698 928.274 165.698 928.402V931.57C165.698 931.89 165.602 932.194 165.41 932.482C165.25 932.77 165.042 933.042 164.786 933.298C164.53 933.522 164.258 933.73 163.97 933.922C163.714 934.114 163.474 934.274 163.25 934.402C162.386 934.466 161.394 934.514 160.274 934.546C159.154 934.578 158.082 934.594 157.058 934.594H156.482C156.162 934.594 155.826 934.562 155.474 934.498C155.154 934.402 154.994 934.178 154.994 933.826V925.57ZM172.986 947.41C172.986 948.914 173.274 950.242 173.85 951.394C174.458 952.514 175.418 953.458 176.73 954.226C176.986 954.386 177.242 954.562 177.498 954.754C177.754 954.914 178.058 954.994 178.41 954.994H182.73C183.274 954.994 183.802 954.898 184.314 954.706C184.826 954.482 185.322 954.226 185.802 953.938C186.282 953.618 186.746 953.298 187.194 952.978C187.674 952.658 188.138 952.386 188.586 952.162H188.826C189.05 952.162 189.242 952.242 189.402 952.402C189.594 952.562 189.754 952.754 189.882 952.978C190.042 953.17 190.186 953.378 190.314 953.602C190.474 953.794 190.65 953.938 190.842 954.034C191.386 954.386 191.882 954.642 192.33 954.802C192.778 954.93 193.306 954.994 193.914 954.994C194.682 954.994 195.354 954.818 195.93 954.466C196.538 954.114 197.034 953.666 197.418 953.122C197.834 952.546 198.154 951.906 198.378 951.202C198.602 950.498 198.714 949.794 198.714 949.09C198.714 948.77 198.682 948.45 198.618 948.13C198.554 947.778 198.442 947.458 198.282 947.17C198.122 946.882 197.914 946.642 197.658 946.45C197.402 946.258 197.098 946.162 196.746 946.162C196.074 946.162 195.626 946.386 195.402 946.834C195.21 947.282 195.066 947.794 194.97 948.37C194.874 948.914 194.762 949.41 194.634 949.858C194.506 950.306 194.186 950.53 193.674 950.53C192.906 950.53 192.522 950.082 192.522 949.186V941.074C192.682 940.69 192.746 940.258 192.714 939.778C192.714 939.266 192.714 938.818 192.714 938.434V936.946C192.714 936.85 192.682 936.69 192.618 936.466C192.586 936.21 192.538 935.954 192.474 935.698C192.41 935.41 192.346 935.138 192.282 934.882C192.218 934.626 192.17 934.45 192.138 934.354C192.042 933.97 191.786 933.506 191.37 932.962C190.986 932.418 190.522 931.906 189.978 931.426C189.466 930.946 188.922 930.53 188.346 930.178C187.802 929.826 187.322 929.65 186.906 929.65H179.562C179.05 929.65 178.602 929.81 178.218 930.13C177.834 930.418 177.466 930.69 177.114 930.946C176.698 931.234 176.282 931.554 175.866 931.906C175.45 932.226 175.082 932.578 174.762 932.962C174.442 933.346 174.186 933.762 173.994 934.21C173.802 934.658 173.706 935.17 173.706 935.746C173.706 936.738 174.026 937.57 174.666 938.242C175.338 938.914 176.186 939.25 177.21 939.25C177.882 939.25 178.41 939.122 178.794 938.866C179.21 938.578 179.514 938.242 179.706 937.858C179.93 937.442 180.09 936.994 180.186 936.514C180.282 936.034 180.362 935.602 180.426 935.218C180.522 934.802 180.618 934.466 180.714 934.21C180.81 933.922 180.986 933.778 181.242 933.778H185.754C185.786 933.778 185.994 933.874 186.378 934.066C186.762 934.258 187.05 934.402 187.242 934.498C187.754 934.786 188.106 935.17 188.298 935.65C188.49 936.13 188.586 936.642 188.586 937.186C188.586 937.954 188.202 938.466 187.434 938.722C186.666 938.978 185.706 939.154 184.554 939.25C183.402 939.346 182.138 939.458 180.762 939.586C179.418 939.682 178.17 939.986 177.018 940.498C175.866 940.978 174.906 941.762 174.138 942.85C173.37 943.906 172.986 945.426 172.986 947.41ZM176.73 947.362C176.73 947.01 176.842 946.594 177.066 946.114C177.322 945.634 177.53 945.282 177.69 945.058C178.01 944.578 178.378 944.322 178.794 944.29C179.594 944.162 180.378 944.066 181.146 944.002C181.946 943.938 182.73 943.842 183.498 943.714C183.594 943.714 183.85 943.682 184.266 943.618C184.714 943.522 185.178 943.442 185.658 943.378C186.138 943.282 186.586 943.202 187.002 943.138C187.45 943.042 187.722 942.994 187.818 942.994L187.914 942.946C187.946 942.946 187.962 942.962 187.962 942.994C187.994 942.994 188.01 942.994 188.01 942.994C188.042 942.994 188.106 943.026 188.202 943.09C188.298 943.122 188.362 943.138 188.394 943.138V943.714C188.394 945.09 188.186 946.21 187.77 947.074C187.354 947.938 186.554 948.77 185.37 949.57C185.306 949.602 185.146 949.682 184.89 949.81C184.666 949.938 184.522 950.034 184.458 950.098C184.33 950.162 184.17 950.242 183.978 950.338C183.818 950.434 183.722 950.482 183.69 950.482H178.794C178.474 950.482 178.186 950.37 177.93 950.146C177.674 949.922 177.45 949.65 177.258 949.33C177.098 948.978 176.97 948.626 176.874 948.274C176.778 947.922 176.73 947.618 176.73 947.362ZM200.664 942.658C200.664 944.13 200.936 945.602 201.48 947.074C202.056 948.546 202.84 949.874 203.832 951.058C204.824 952.21 205.992 953.154 207.336 953.89C208.68 954.626 210.136 954.994 211.704 954.994C212.76 954.994 213.832 954.77 214.92 954.322C216.008 953.874 216.984 953.282 217.848 952.546C218.744 951.778 219.464 950.898 220.008 949.906C220.584 948.914 220.872 947.858 220.872 946.738C220.872 946.194 220.744 945.714 220.488 945.298C220.232 944.85 219.816 944.626 219.24 944.626C218.856 944.626 218.52 944.77 218.232 945.058C217.944 945.314 217.672 945.65 217.416 946.066C217.16 946.45 216.904 946.882 216.648 947.362C216.424 947.842 216.152 948.29 215.832 948.706C215.544 949.09 215.208 949.426 214.824 949.714C214.44 949.97 213.992 950.098 213.48 950.098H209.352C209.288 950.098 209.144 950.034 208.92 949.906C208.696 949.746 208.536 949.618 208.44 949.522C208.344 949.426 208.168 949.266 207.912 949.042C207.688 948.818 207.448 948.578 207.192 948.322C206.936 948.066 206.696 947.826 206.472 947.602C206.248 947.346 206.088 947.17 205.992 947.074C205.544 946.402 205.24 945.586 205.08 944.626C204.92 943.634 204.84 942.738 204.84 941.938C204.84 941.042 204.904 940.178 205.032 939.346C205.16 938.514 205.384 937.746 205.704 937.042C206.024 936.338 206.456 935.714 207 935.17C207.576 934.594 208.296 934.114 209.16 933.73C209.32 933.666 209.528 933.602 209.784 933.538C210.072 933.442 210.248 933.394 210.312 933.394H213.48C213.64 933.394 213.832 933.506 214.056 933.73C214.28 933.954 214.408 934.082 214.44 934.114V934.882C214.44 935.33 214.376 935.73 214.248 936.082C214.12 936.402 214.056 936.77 214.056 937.186C214.056 938.146 214.392 938.978 215.064 939.682C215.736 940.386 216.568 940.738 217.56 940.738C218.104 940.738 218.568 940.626 218.952 940.402C219.368 940.146 219.704 939.826 219.96 939.442C220.248 939.058 220.456 938.626 220.584 938.146C220.744 937.634 220.824 937.138 220.824 936.658C220.824 935.922 220.68 935.234 220.392 934.594C220.104 933.922 219.72 933.314 219.24 932.77C218.792 932.194 218.28 931.666 217.704 931.186C217.16 930.706 216.632 930.242 216.12 929.794C215.992 929.762 215.752 929.698 215.4 929.602C215.048 929.474 214.664 929.362 214.248 929.266C213.864 929.17 213.48 929.09 213.096 929.026C212.744 928.93 212.504 928.882 212.376 928.882C212.344 928.85 212.184 928.834 211.896 928.834C211.64 928.834 211.432 928.834 211.272 928.834C209.48 928.834 207.912 929.266 206.568 930.13C205.256 930.962 204.152 932.05 203.256 933.394C202.392 934.706 201.736 936.194 201.288 937.858C200.872 939.49 200.664 941.09 200.664 942.658ZM222.859 952.786C222.859 953.618 223.147 954.194 223.723 954.514C224.331 954.802 224.987 955.01 225.691 955.138H227.851C228.619 955.138 229.371 955.106 230.107 955.042C230.843 954.978 231.595 954.946 232.363 954.946C232.811 954.946 233.243 954.978 233.659 955.042C234.107 955.106 234.555 955.138 235.003 955.138C235.547 955.138 236.043 954.978 236.491 954.658C236.971 954.338 237.435 954.178 237.883 954.178C238.139 954.178 238.395 954.258 238.651 954.418C238.907 954.578 239.163 954.69 239.419 954.754C239.707 954.818 240.123 954.898 240.667 954.994C241.211 955.09 241.611 955.138 241.867 955.138H244.747H247.675C247.963 955.074 248.267 955.01 248.587 954.946C248.907 954.85 249.195 954.738 249.451 954.61C249.707 954.45 249.915 954.258 250.075 954.034C250.267 953.81 250.363 953.522 250.363 953.17C250.363 953.106 250.347 952.994 250.315 952.834C250.315 952.642 250.315 952.53 250.315 952.498C250.123 951.762 249.835 951.218 249.451 950.866C249.099 950.514 248.667 950.274 248.155 950.146C247.675 949.986 247.131 949.906 246.523 949.906C245.947 949.874 245.339 949.858 244.699 949.858C244.155 949.442 243.755 948.946 243.499 948.37C243.275 947.794 242.971 947.234 242.587 946.69C242.555 946.626 242.443 946.482 242.251 946.258C242.091 946.034 241.899 945.794 241.675 945.538C241.451 945.282 241.243 945.058 241.051 944.866C240.859 944.642 240.747 944.498 240.715 944.434C240.299 943.89 239.851 943.298 239.371 942.658C238.891 942.018 238.651 941.362 238.651 940.69C238.651 940.306 238.715 940.002 238.843 939.778C239.003 939.554 239.195 939.362 239.419 939.202C239.643 939.042 239.883 938.882 240.139 938.722C240.427 938.562 240.683 938.386 240.907 938.194C241.195 937.97 241.499 937.666 241.819 937.282C242.171 936.898 242.555 936.514 242.971 936.13C243.387 935.746 243.803 935.41 244.219 935.122C244.667 934.834 245.131 934.674 245.611 934.642C246.027 934.61 246.427 934.594 246.811 934.594C247.227 934.594 247.595 934.546 247.915 934.45C248.235 934.354 248.491 934.194 248.683 933.97C248.907 933.714 249.019 933.314 249.019 932.77C249.019 931.97 248.715 931.394 248.107 931.042C247.499 930.658 246.779 930.402 245.947 930.274C245.147 930.114 244.315 930.05 243.451 930.082C242.619 930.082 241.963 930.082 241.483 930.082C241.387 930.082 241.227 930.082 241.003 930.082C240.779 930.082 240.523 930.098 240.235 930.13C239.979 930.13 239.739 930.13 239.515 930.13C239.291 930.13 239.131 930.13 239.035 930.13C238.587 930.258 238.187 930.466 237.835 930.754C237.483 931.01 237.307 931.394 237.307 931.906C237.307 932.45 237.499 932.93 237.883 933.346C238.299 933.73 238.683 934.098 239.035 934.45C238.971 934.514 238.843 934.674 238.651 934.93C238.459 935.186 238.331 935.346 238.267 935.41C238.075 935.602 237.739 935.938 237.259 936.418C236.811 936.898 236.315 937.41 235.771 937.954C235.227 938.498 234.715 939.01 234.235 939.49C233.755 939.938 233.419 940.258 233.227 940.45C233.195 940.45 233.147 940.466 233.083 940.498C233.051 940.498 233.035 940.498 233.035 940.498C232.971 940.498 232.891 940.498 232.795 940.498C232.699 940.466 232.651 940.386 232.651 940.258V929.554C232.747 929.266 232.795 929.026 232.795 928.834C232.827 928.642 232.843 928.418 232.843 928.162C232.843 927.266 232.795 926.466 232.699 925.762C232.603 925.058 232.587 924.194 232.651 923.17C232.555 922.402 232.187 921.81 231.547 921.394C230.939 920.946 230.267 920.722 229.531 920.722H229.435C229.371 920.722 229.179 920.754 228.859 920.818C228.571 920.882 228.395 920.914 228.331 920.914H228.235H228.139C228.075 920.914 227.883 920.882 227.563 920.818C227.243 920.754 227.051 920.722 226.987 920.722H226.699C225.963 920.722 225.259 920.93 224.587 921.346C223.915 921.762 223.579 922.37 223.579 923.17C223.579 923.778 223.707 924.226 223.963 924.514C224.251 924.802 224.603 924.994 225.019 925.09C225.435 925.186 225.899 925.234 226.411 925.234C226.955 925.234 227.467 925.234 227.947 925.234C228.107 925.362 228.267 925.554 228.427 925.81C228.587 926.066 228.667 926.306 228.667 926.53V942.178L228.427 943.09V949.858C228.427 949.858 228.363 949.89 228.235 949.954C228.107 949.986 228.011 950.018 227.947 950.05L227.371 950.242H224.155C223.995 950.242 223.835 950.354 223.675 950.578C223.515 950.77 223.371 951.01 223.243 951.298C223.115 951.586 223.019 951.874 222.955 952.162C222.891 952.45 222.859 952.658 222.859 952.786ZM235.483 943.474C235.611 943.474 235.899 943.794 236.347 944.434C236.795 945.042 237.259 945.746 237.739 946.546C238.219 947.314 238.651 948.066 239.035 948.802C239.419 949.538 239.611 950.018 239.611 950.242C239.611 950.626 239.403 951.01 238.987 951.394C238.571 951.778 238.187 951.97 237.835 951.97C237.771 951.97 237.707 951.97 237.643 951.97C237.579 951.97 237.547 951.954 237.547 951.922C237.483 951.922 237.355 951.842 237.163 951.682C236.971 951.522 236.843 951.426 236.779 951.394C236.651 951.33 236.363 951.266 235.915 951.202C235.467 951.106 235.003 950.994 234.523 950.866C234.043 950.738 233.611 950.594 233.227 950.434C232.843 950.274 232.651 950.082 232.651 949.858V945.922C232.683 945.89 232.747 945.81 232.843 945.682C232.971 945.522 233.131 945.33 233.323 945.106C233.515 944.882 233.659 944.722 233.755 944.626C233.979 944.37 234.235 944.114 234.523 943.858C234.811 943.602 235.131 943.474 235.483 943.474Z" fill="white"/>
<mask id="path-3-inside-1_114_479" fill="white">
<path fill-rule="evenodd" clip-rule="evenodd" d="M466 0C549.59 186.012 739.279 315.868 959.9 315.868L959.9 0H466ZM962.9 0L962.9 315.86C1182.24 314.689 1370.59 185.169 1453.8 0H962.9Z"/>
</mask>
<path fill-rule="evenodd" clip-rule="evenodd" d="M466 0C549.59 186.012 739.279 315.868 959.9 315.868L959.9 0H466ZM962.9 0L962.9 315.86C1182.24 314.689 1370.59 185.169 1453.8 0H962.9Z" fill="white"/>
<path d="M466 0V-3H461.363L463.264 1.22968L466 0ZM959.9 315.868V318.868H962.9V315.868H959.9ZM959.9 0L962.9 2.89845e-07V-3H959.9V0ZM962.9 315.86H959.9V318.876L962.916 318.86L962.9 315.86ZM962.9 0V-3H959.9V-2.89852e-07L962.9 0ZM1453.8 0L1456.54 1.22968L1458.44 -3H1453.8V0ZM463.264 1.22968C547.331 188.303 738.08 318.868 959.9 318.868V312.868C740.477 312.868 551.849 183.72 468.736 -1.22968L463.264 1.22968ZM962.9 315.868L962.9 2.89845e-07L956.9 -2.89845e-07L956.9 315.868H962.9ZM959.9 -3H466V3H959.9V-3ZM965.9 315.86L965.9 2.89852e-07L959.9 -2.89852e-07L959.9 315.86H965.9ZM1451.07 -1.22968C1368.33 182.882 1181.03 311.696 962.884 312.86L962.916 318.86C1183.45 317.683 1372.85 187.455 1456.54 1.22968L1451.07 -1.22968ZM1453.8 -3H962.9V3H1453.8V-3Z" fill="black" mask="url(#path-3-inside-1_114_479)"/>
</svg>
