<svg width="1920" height="1080" viewBox="0 0 1920 1080" fill="none" xmlns="http://www.w3.org/2000/svg">
<rect width="1920" height="1080" fill="#71363F"/>
<path d="M143.714 952.642C143.714 953.346 143.938 953.954 144.386 954.466C144.834 954.946 145.426 955.186 146.162 955.186H146.738C147.346 955.186 148.37 955.17 149.81 955.138C151.282 955.138 152.882 955.138 154.61 955.138C156.338 955.138 157.922 955.138 159.362 955.138C160.834 955.106 161.89 955.09 162.53 955.09C163.426 954.93 164.258 954.658 165.026 954.274C165.826 953.89 166.626 953.474 167.426 953.026C168.002 952.514 168.514 951.906 168.962 951.202C169.41 950.498 169.778 949.746 170.066 948.946C170.386 948.146 170.626 947.346 170.786 946.546C170.946 945.714 171.026 944.93 171.026 944.194C171.026 943.17 170.898 942.274 170.642 941.506C170.386 940.706 170.002 939.842 169.49 938.914C169.362 938.722 169.186 938.53 168.962 938.338C168.738 938.146 168.514 937.938 168.29 937.714C168.066 937.49 167.858 937.282 167.666 937.09C167.506 936.866 167.426 936.658 167.426 936.466C167.426 936.114 167.602 935.698 167.954 935.218C168.306 934.738 168.562 934.402 168.722 934.21C169.106 933.634 169.394 932.962 169.586 932.194C169.778 931.426 169.874 930.69 169.874 929.986C169.874 928.546 169.65 927.298 169.202 926.242C168.786 925.154 168.178 924.242 167.378 923.506C166.578 922.77 165.602 922.178 164.45 921.73C163.33 921.25 162.066 920.898 160.658 920.674H159.698C158.354 920.674 157.026 920.77 155.714 920.962C154.402 921.154 153.074 921.25 151.73 921.25H148.802C148.226 921.09 147.746 920.994 147.362 920.962C146.978 920.898 146.53 920.866 146.018 920.866C145.314 920.866 144.754 921.09 144.338 921.538C143.922 921.954 143.714 922.514 143.714 923.218C143.714 924.114 144.018 924.77 144.626 925.186C145.266 925.57 146.002 925.762 146.834 925.762C147.218 925.762 147.586 925.73 147.938 925.666C148.322 925.602 148.706 925.57 149.09 925.57H149.426C149.682 925.57 149.954 925.618 150.242 925.714C150.53 925.81 150.674 925.954 150.674 926.146V950.386L150.482 950.578C150.45 950.578 150.322 950.594 150.098 950.626C149.906 950.626 149.762 950.626 149.666 950.626C149.09 950.626 148.53 950.594 147.986 950.53C147.442 950.434 146.898 950.386 146.354 950.386H145.202C144.21 950.802 143.714 951.554 143.714 952.642ZM155.714 938.914C155.938 938.914 156.13 938.946 156.29 939.01C156.482 939.074 156.69 939.106 156.914 939.106C157.138 939.106 157.314 939.09 157.442 939.058C157.57 939.026 157.762 938.914 158.018 938.722H163.442C163.506 938.722 163.65 938.802 163.874 938.962C164.13 939.09 164.306 939.202 164.402 939.298L166.658 941.554C166.946 941.874 167.074 942.306 167.042 942.85C167.042 943.394 167.042 943.874 167.042 944.29C167.042 945.122 166.978 945.858 166.85 946.498C166.754 947.138 166.546 947.714 166.226 948.226C165.906 948.706 165.474 949.138 164.93 949.522C164.418 949.906 163.746 950.258 162.914 950.578C161.794 950.61 160.69 950.69 159.602 950.818C158.546 950.914 157.474 950.962 156.386 950.962C156.194 950.962 155.906 950.914 155.522 950.818C155.17 950.69 154.994 950.482 154.994 950.194V939.49C154.994 939.426 155.058 939.33 155.186 939.202C155.346 939.074 155.474 938.978 155.57 938.914H155.714ZM154.994 925.57H160.994C161.634 925.73 162.146 925.842 162.53 925.906C162.946 925.938 163.314 926.018 163.634 926.146C163.954 926.242 164.242 926.434 164.498 926.722C164.786 926.978 165.122 927.41 165.506 928.018C165.634 928.146 165.698 928.274 165.698 928.402V931.57C165.698 931.89 165.602 932.194 165.41 932.482C165.25 932.77 165.042 933.042 164.786 933.298C164.53 933.522 164.258 933.73 163.97 933.922C163.714 934.114 163.474 934.274 163.25 934.402C162.386 934.466 161.394 934.514 160.274 934.546C159.154 934.578 158.082 934.594 157.058 934.594H156.482C156.162 934.594 155.826 934.562 155.474 934.498C155.154 934.402 154.994 934.178 154.994 933.826V925.57ZM172.986 947.41C172.986 948.914 173.274 950.242 173.85 951.394C174.458 952.514 175.418 953.458 176.73 954.226C176.986 954.386 177.242 954.562 177.498 954.754C177.754 954.914 178.058 954.994 178.41 954.994H182.73C183.274 954.994 183.802 954.898 184.314 954.706C184.826 954.482 185.322 954.226 185.802 953.938C186.282 953.618 186.746 953.298 187.194 952.978C187.674 952.658 188.138 952.386 188.586 952.162H188.826C189.05 952.162 189.242 952.242 189.402 952.402C189.594 952.562 189.754 952.754 189.882 952.978C190.042 953.17 190.186 953.378 190.314 953.602C190.474 953.794 190.65 953.938 190.842 954.034C191.386 954.386 191.882 954.642 192.33 954.802C192.778 954.93 193.306 954.994 193.914 954.994C194.682 954.994 195.354 954.818 195.93 954.466C196.538 954.114 197.034 953.666 197.418 953.122C197.834 952.546 198.154 951.906 198.378 951.202C198.602 950.498 198.714 949.794 198.714 949.09C198.714 948.77 198.682 948.45 198.618 948.13C198.554 947.778 198.442 947.458 198.282 947.17C198.122 946.882 197.914 946.642 197.658 946.45C197.402 946.258 197.098 946.162 196.746 946.162C196.074 946.162 195.626 946.386 195.402 946.834C195.21 947.282 195.066 947.794 194.97 948.37C194.874 948.914 194.762 949.41 194.634 949.858C194.506 950.306 194.186 950.53 193.674 950.53C192.906 950.53 192.522 950.082 192.522 949.186V941.074C192.682 940.69 192.746 940.258 192.714 939.778C192.714 939.266 192.714 938.818 192.714 938.434V936.946C192.714 936.85 192.682 936.69 192.618 936.466C192.586 936.21 192.538 935.954 192.474 935.698C192.41 935.41 192.346 935.138 192.282 934.882C192.218 934.626 192.17 934.45 192.138 934.354C192.042 933.97 191.786 933.506 191.37 932.962C190.986 932.418 190.522 931.906 189.978 931.426C189.466 930.946 188.922 930.53 188.346 930.178C187.802 929.826 187.322 929.65 186.906 929.65H179.562C179.05 929.65 178.602 929.81 178.218 930.13C177.834 930.418 177.466 930.69 177.114 930.946C176.698 931.234 176.282 931.554 175.866 931.906C175.45 932.226 175.082 932.578 174.762 932.962C174.442 933.346 174.186 933.762 173.994 934.21C173.802 934.658 173.706 935.17 173.706 935.746C173.706 936.738 174.026 937.57 174.666 938.242C175.338 938.914 176.186 939.25 177.21 939.25C177.882 939.25 178.41 939.122 178.794 938.866C179.21 938.578 179.514 938.242 179.706 937.858C179.93 937.442 180.09 936.994 180.186 936.514C180.282 936.034 180.362 935.602 180.426 935.218C180.522 934.802 180.618 934.466 180.714 934.21C180.81 933.922 180.986 933.778 181.242 933.778H185.754C185.786 933.778 185.994 933.874 186.378 934.066C186.762 934.258 187.05 934.402 187.242 934.498C187.754 934.786 188.106 935.17 188.298 935.65C188.49 936.13 188.586 936.642 188.586 937.186C188.586 937.954 188.202 938.466 187.434 938.722C186.666 938.978 185.706 939.154 184.554 939.25C183.402 939.346 182.138 939.458 180.762 939.586C179.418 939.682 178.17 939.986 177.018 940.498C175.866 940.978 174.906 941.762 174.138 942.85C173.37 943.906 172.986 945.426 172.986 947.41ZM176.73 947.362C176.73 947.01 176.842 946.594 177.066 946.114C177.322 945.634 177.53 945.282 177.69 945.058C178.01 944.578 178.378 944.322 178.794 944.29C179.594 944.162 180.378 944.066 181.146 944.002C181.946 943.938 182.73 943.842 183.498 943.714C183.594 943.714 183.85 943.682 184.266 943.618C184.714 943.522 185.178 943.442 185.658 943.378C186.138 943.282 186.586 943.202 187.002 943.138C187.45 943.042 187.722 942.994 187.818 942.994L187.914 942.946C187.946 942.946 187.962 942.962 187.962 942.994C187.994 942.994 188.01 942.994 188.01 942.994C188.042 942.994 188.106 943.026 188.202 943.09C188.298 943.122 188.362 943.138 188.394 943.138V943.714C188.394 945.09 188.186 946.21 187.77 947.074C187.354 947.938 186.554 948.77 185.37 949.57C185.306 949.602 185.146 949.682 184.89 949.81C184.666 949.938 184.522 950.034 184.458 950.098C184.33 950.162 184.17 950.242 183.978 950.338C183.818 950.434 183.722 950.482 183.69 950.482H178.794C178.474 950.482 178.186 950.37 177.93 950.146C177.674 949.922 177.45 949.65 177.258 949.33C177.098 948.978 176.97 948.626 176.874 948.274C176.778 947.922 176.73 947.618 176.73 947.362ZM200.664 942.658C200.664 944.13 200.936 945.602 201.48 947.074C202.056 948.546 202.84 949.874 203.832 951.058C204.824 952.21 205.992 953.154 207.336 953.89C208.68 954.626 210.136 954.994 211.704 954.994C212.76 954.994 213.832 954.77 214.92 954.322C216.008 953.874 216.984 953.282 217.848 952.546C218.744 951.778 219.464 950.898 220.008 949.906C220.584 948.914 220.872 947.858 220.872 946.738C220.872 946.194 220.744 945.714 220.488 945.298C220.232 944.85 219.816 944.626 219.24 944.626C218.856 944.626 218.52 944.77 218.232 945.058C217.944 945.314 217.672 945.65 217.416 946.066C217.16 946.45 216.904 946.882 216.648 947.362C216.424 947.842 216.152 948.29 215.832 948.706C215.544 949.09 215.208 949.426 214.824 949.714C214.44 949.97 213.992 950.098 213.48 950.098H209.352C209.288 950.098 209.144 950.034 208.92 949.906C208.696 949.746 208.536 949.618 208.44 949.522C208.344 949.426 208.168 949.266 207.912 949.042C207.688 948.818 207.448 948.578 207.192 948.322C206.936 948.066 206.696 947.826 206.472 947.602C206.248 947.346 206.088 947.17 205.992 947.074C205.544 946.402 205.24 945.586 205.08 944.626C204.92 943.634 204.84 942.738 204.84 941.938C204.84 941.042 204.904 940.178 205.032 939.346C205.16 938.514 205.384 937.746 205.704 937.042C206.024 936.338 206.456 935.714 207 935.17C207.576 934.594 208.296 934.114 209.16 933.73C209.32 933.666 209.528 933.602 209.784 933.538C210.072 933.442 210.248 933.394 210.312 933.394H213.48C213.64 933.394 213.832 933.506 214.056 933.73C214.28 933.954 214.408 934.082 214.44 934.114V934.882C214.44 935.33 214.376 935.73 214.248 936.082C214.12 936.402 214.056 936.77 214.056 937.186C214.056 938.146 214.392 938.978 215.064 939.682C215.736 940.386 216.568 940.738 217.56 940.738C218.104 940.738 218.568 940.626 218.952 940.402C219.368 940.146 219.704 939.826 219.96 939.442C220.248 939.058 220.456 938.626 220.584 938.146C220.744 937.634 220.824 937.138 220.824 936.658C220.824 935.922 220.68 935.234 220.392 934.594C220.104 933.922 219.72 933.314 219.24 932.77C218.792 932.194 218.28 931.666 217.704 931.186C217.16 930.706 216.632 930.242 216.12 929.794C215.992 929.762 215.752 929.698 215.4 929.602C215.048 929.474 214.664 929.362 214.248 929.266C213.864 929.17 213.48 929.09 213.096 929.026C212.744 928.93 212.504 928.882 212.376 928.882C212.344 928.85 212.184 928.834 211.896 928.834C211.64 928.834 211.432 928.834 211.272 928.834C209.48 928.834 207.912 929.266 206.568 930.13C205.256 930.962 204.152 932.05 203.256 933.394C202.392 934.706 201.736 936.194 201.288 937.858C200.872 939.49 200.664 941.09 200.664 942.658ZM222.859 952.786C222.859 953.618 223.147 954.194 223.723 954.514C224.331 954.802 224.987 955.01 225.691 955.138H227.851C228.619 955.138 229.371 955.106 230.107 955.042C230.843 954.978 231.595 954.946 232.363 954.946C232.811 954.946 233.243 954.978 233.659 955.042C234.107 955.106 234.555 955.138 235.003 955.138C235.547 955.138 236.043 954.978 236.491 954.658C236.971 954.338 237.435 954.178 237.883 954.178C238.139 954.178 238.395 954.258 238.651 954.418C238.907 954.578 239.163 954.69 239.419 954.754C239.707 954.818 240.123 954.898 240.667 954.994C241.211 955.09 241.611 955.138 241.867 955.138H244.747H247.675C247.963 955.074 248.267 955.01 248.587 954.946C248.907 954.85 249.195 954.738 249.451 954.61C249.707 954.45 249.915 954.258 250.075 954.034C250.267 953.81 250.363 953.522 250.363 953.17C250.363 953.106 250.347 952.994 250.315 952.834C250.315 952.642 250.315 952.53 250.315 952.498C250.123 951.762 249.835 951.218 249.451 950.866C249.099 950.514 248.667 950.274 248.155 950.146C247.675 949.986 247.131 949.906 246.523 949.906C245.947 949.874 245.339 949.858 244.699 949.858C244.155 949.442 243.755 948.946 243.499 948.37C243.275 947.794 242.971 947.234 242.587 946.69C242.555 946.626 242.443 946.482 242.251 946.258C242.091 946.034 241.899 945.794 241.675 945.538C241.451 945.282 241.243 945.058 241.051 944.866C240.859 944.642 240.747 944.498 240.715 944.434C240.299 943.89 239.851 943.298 239.371 942.658C238.891 942.018 238.651 941.362 238.651 940.69C238.651 940.306 238.715 940.002 238.843 939.778C239.003 939.554 239.195 939.362 239.419 939.202C239.643 939.042 239.883 938.882 240.139 938.722C240.427 938.562 240.683 938.386 240.907 938.194C241.195 937.97 241.499 937.666 241.819 937.282C242.171 936.898 242.555 936.514 242.971 936.13C243.387 935.746 243.803 935.41 244.219 935.122C244.667 934.834 245.131 934.674 245.611 934.642C246.027 934.61 246.427 934.594 246.811 934.594C247.227 934.594 247.595 934.546 247.915 934.45C248.235 934.354 248.491 934.194 248.683 933.97C248.907 933.714 249.019 933.314 249.019 932.77C249.019 931.97 248.715 931.394 248.107 931.042C247.499 930.658 246.779 930.402 245.947 930.274C245.147 930.114 244.315 930.05 243.451 930.082C242.619 930.082 241.963 930.082 241.483 930.082C241.387 930.082 241.227 930.082 241.003 930.082C240.779 930.082 240.523 930.098 240.235 930.13C239.979 930.13 239.739 930.13 239.515 930.13C239.291 930.13 239.131 930.13 239.035 930.13C238.587 930.258 238.187 930.466 237.835 930.754C237.483 931.01 237.307 931.394 237.307 931.906C237.307 932.45 237.499 932.93 237.883 933.346C238.299 933.73 238.683 934.098 239.035 934.45C238.971 934.514 238.843 934.674 238.651 934.93C238.459 935.186 238.331 935.346 238.267 935.41C238.075 935.602 237.739 935.938 237.259 936.418C236.811 936.898 236.315 937.41 235.771 937.954C235.227 938.498 234.715 939.01 234.235 939.49C233.755 939.938 233.419 940.258 233.227 940.45C233.195 940.45 233.147 940.466 233.083 940.498C233.051 940.498 233.035 940.498 233.035 940.498C232.971 940.498 232.891 940.498 232.795 940.498C232.699 940.466 232.651 940.386 232.651 940.258V929.554C232.747 929.266 232.795 929.026 232.795 928.834C232.827 928.642 232.843 928.418 232.843 928.162C232.843 927.266 232.795 926.466 232.699 925.762C232.603 925.058 232.587 924.194 232.651 923.17C232.555 922.402 232.187 921.81 231.547 921.394C230.939 920.946 230.267 920.722 229.531 920.722H229.435C229.371 920.722 229.179 920.754 228.859 920.818C228.571 920.882 228.395 920.914 228.331 920.914H228.235H228.139C228.075 920.914 227.883 920.882 227.563 920.818C227.243 920.754 227.051 920.722 226.987 920.722H226.699C225.963 920.722 225.259 920.93 224.587 921.346C223.915 921.762 223.579 922.37 223.579 923.17C223.579 923.778 223.707 924.226 223.963 924.514C224.251 924.802 224.603 924.994 225.019 925.09C225.435 925.186 225.899 925.234 226.411 925.234C226.955 925.234 227.467 925.234 227.947 925.234C228.107 925.362 228.267 925.554 228.427 925.81C228.587 926.066 228.667 926.306 228.667 926.53V942.178L228.427 943.09V949.858C228.427 949.858 228.363 949.89 228.235 949.954C228.107 949.986 228.011 950.018 227.947 950.05L227.371 950.242H224.155C223.995 950.242 223.835 950.354 223.675 950.578C223.515 950.77 223.371 951.01 223.243 951.298C223.115 951.586 223.019 951.874 222.955 952.162C222.891 952.45 222.859 952.658 222.859 952.786ZM235.483 943.474C235.611 943.474 235.899 943.794 236.347 944.434C236.795 945.042 237.259 945.746 237.739 946.546C238.219 947.314 238.651 948.066 239.035 948.802C239.419 949.538 239.611 950.018 239.611 950.242C239.611 950.626 239.403 951.01 238.987 951.394C238.571 951.778 238.187 951.97 237.835 951.97C237.771 951.97 237.707 951.97 237.643 951.97C237.579 951.97 237.547 951.954 237.547 951.922C237.483 951.922 237.355 951.842 237.163 951.682C236.971 951.522 236.843 951.426 236.779 951.394C236.651 951.33 236.363 951.266 235.915 951.202C235.467 951.106 235.003 950.994 234.523 950.866C234.043 950.738 233.611 950.594 233.227 950.434C232.843 950.274 232.651 950.082 232.651 949.858V945.922C232.683 945.89 232.747 945.81 232.843 945.682C232.971 945.522 233.131 945.33 233.323 945.106C233.515 944.882 233.659 944.722 233.755 944.626C233.979 944.37 234.235 944.114 234.523 943.858C234.811 943.602 235.131 943.474 235.483 943.474Z" fill="white"/>
<rect x="310.225" y="326.269" width="135.8" height="21.3714" transform="rotate(-90 310.225 326.269)" fill="#F5BC4D" stroke="black" stroke-width="0.8"/>
<rect x="330.291" y="307.257" width="14.9429" height="36.8" transform="rotate(-90 330.291 307.257)" fill="#F5BC4D" stroke="black" stroke-width="0.8"/>
<rect x="330.152" y="268.493" width="12.3714" height="21.3714" transform="rotate(-90 330.152 268.493)" fill="#F5BC4D" stroke="black" stroke-width="0.8"/>
<rect x="286.6" y="195.4" width="72.8" height="68.9429" transform="rotate(-90 286.6 195.4)" fill="#F5BC4D" stroke="black" stroke-width="0.8"/>
<rect x="311.304" y="190.869" width="19.2128" height="23.7541" fill="#F5BC4D"/>
<rect x="318.787" y="257.246" width="19.2128" height="10.1553" fill="#F5BC4D"/>
<rect x="315.823" y="293.398" width="19.2128" height="12.7873" fill="#F5BC4D"/>
<rect x="304.6" y="174.828" width="32.9429" height="32.9429" transform="rotate(-90 304.6 174.828)" fill="#8B444E" stroke="black" stroke-width="0.8"/>
<rect x="94.225" y="302.269" width="135.8" height="21.3714" transform="rotate(-90 94.225 302.269)" fill="#F5BC4D" stroke="black" stroke-width="0.8"/>
<rect x="114.291" y="283.257" width="14.9429" height="36.8" transform="rotate(-90 114.291 283.257)" fill="#F5BC4D" stroke="black" stroke-width="0.8"/>
<rect x="114.152" y="244.493" width="12.3714" height="21.3714" transform="rotate(-90 114.152 244.493)" fill="#F5BC4D" stroke="black" stroke-width="0.8"/>
<rect x="70.6" y="171.4" width="72.8" height="68.9429" transform="rotate(-90 70.6 171.4)" fill="#F5BC4D" stroke="black" stroke-width="0.8"/>
<rect x="95.3042" y="166.869" width="19.2128" height="23.7541" fill="#F5BC4D"/>
<rect x="102.787" y="233.246" width="19.2128" height="10.1553" fill="#F5BC4D"/>
<rect x="99.8235" y="269.398" width="19.2128" height="12.7873" fill="#F5BC4D"/>
<rect x="88.5999" y="150.828" width="32.9429" height="32.9429" transform="rotate(-90 88.5999 150.828)" fill="#8B444E" stroke="black" stroke-width="0.8"/>
<rect x="202.225" y="441.269" width="135.8" height="21.3714" transform="rotate(-90 202.225 441.269)" fill="#F5BC4D" stroke="black" stroke-width="0.8"/>
<rect x="222.291" y="422.257" width="14.9429" height="36.8" transform="rotate(-90 222.291 422.257)" fill="#F5BC4D" stroke="black" stroke-width="0.8"/>
<rect x="222.152" y="383.493" width="12.3714" height="21.3714" transform="rotate(-90 222.152 383.493)" fill="#F5BC4D" stroke="black" stroke-width="0.8"/>
<rect x="178.6" y="310.4" width="72.8" height="68.9429" transform="rotate(-90 178.6 310.4)" fill="#F5BC4D" stroke="black" stroke-width="0.8"/>
<rect x="203.304" y="305.869" width="19.2128" height="23.7541" fill="#F5BC4D"/>
<rect x="210.787" y="372.246" width="19.2128" height="10.1553" fill="#F5BC4D"/>
<rect x="207.823" y="408.398" width="19.2128" height="12.7873" fill="#F5BC4D"/>
<rect x="196.6" y="289.828" width="32.9429" height="32.9429" transform="rotate(-90 196.6 289.828)" fill="#8B444E" stroke="black" stroke-width="0.8"/>
<path d="M801.134 236.104C801.39 237.64 801.998 238.728 802.958 239.368C803.982 240.008 805.134 240.424 806.413 240.616C807.694 240.744 809.038 240.808 810.445 240.808C811.854 240.744 813.134 240.808 814.286 241H814.477C815.758 241 816.75 240.488 817.454 239.464C818.158 238.44 818.51 237.384 818.51 236.296C818.51 235.464 818.446 234.888 818.318 234.568C818.19 234.248 817.838 233.64 817.262 232.744C816.814 231.976 816.27 231.432 815.63 231.112C814.99 230.792 814.35 230.536 813.71 230.344C813.07 230.152 812.43 229.928 811.789 229.672C811.149 229.416 810.606 228.936 810.158 228.232C809.646 227.464 809.358 226.472 809.294 225.256C809.294 223.976 809.198 222.952 809.006 222.184C808.494 220.072 807.854 217.8 807.085 215.368C806.382 212.872 805.39 210.632 804.11 208.648V207.784C804.11 207.016 804.302 206.376 804.686 205.864C805.07 205.288 805.55 204.776 806.126 204.328C806.702 203.88 807.278 203.432 807.854 202.984C808.494 202.536 809.006 202.056 809.39 201.544C810.542 200.072 811.278 198.344 811.598 196.36C811.918 194.312 812.078 192.392 812.078 190.6C812.078 186.44 811.246 183.112 809.581 180.616C807.917 178.056 805.741 176.104 803.054 174.76C800.366 173.416 797.326 172.52 793.934 172.072C790.605 171.624 787.277 171.4 783.95 171.4C783.245 171.4 782.605 171.432 782.03 171.496C781.454 171.496 780.813 171.688 780.109 172.072H765.421C764.205 172.072 763.341 172.584 762.829 173.608C762.317 174.568 762.061 175.56 762.061 176.584C762.061 177.224 762.157 177.992 762.349 178.888C762.541 179.72 763.053 180.264 763.885 180.52L769.933 181.96L770.701 182.728L771.277 205.288V207.208L771.469 228.616C771.469 228.744 771.373 228.936 771.181 229.192C770.989 229.448 770.829 229.64 770.701 229.768C769.741 229.768 768.717 229.8 767.629 229.864C766.605 229.928 765.645 230.12 764.749 230.44C763.853 230.76 763.117 231.272 762.541 231.976C761.965 232.616 761.677 233.544 761.677 234.76C761.677 235.336 761.773 235.944 761.965 236.584C762.221 237.224 762.541 237.832 762.925 238.408C763.373 238.984 763.853 239.464 764.365 239.848C764.941 240.168 765.549 240.296 766.189 240.232C766.765 240.232 767.757 240.264 769.165 240.328C770.573 240.392 772.077 240.456 773.677 240.52C775.277 240.52 776.781 240.552 778.189 240.616C779.661 240.616 780.686 240.616 781.262 240.616H782.317C783.086 240.616 783.918 240.584 784.814 240.52C785.773 240.392 786.637 240.168 787.406 239.848C788.238 239.528 788.91 239.08 789.422 238.504C789.998 237.928 790.286 237.128 790.286 236.104C790.286 234.504 789.71 233.352 788.558 232.648C787.406 231.88 786.158 231.304 784.814 230.92C783.469 230.536 782.221 230.216 781.069 229.96C779.917 229.64 779.341 229.192 779.341 228.616V210.568L779.726 210.184C779.79 210.12 780.206 210.056 780.973 209.992C781.741 209.864 782.317 209.8 782.702 209.8H786.253C787.085 209.8 787.79 209.8 788.366 209.8C789.005 209.8 789.613 209.832 790.189 209.896C790.829 209.896 791.469 209.96 792.11 210.088C792.75 210.216 793.517 210.376 794.413 210.568C795.118 211.08 795.662 211.784 796.046 212.68C796.494 213.576 796.942 214.376 797.39 215.08C798.286 216.616 798.99 218.248 799.502 219.976C800.078 221.704 800.494 223.496 800.75 225.352C801.006 227.144 801.134 228.968 801.134 230.824C801.198 232.616 801.198 234.376 801.134 236.104ZM781.549 181.288C781.87 181.224 782.446 181.192 783.278 181.192C784.109 181.192 784.686 181.192 785.006 181.192C787.694 181.192 790.382 181.384 793.069 181.768C795.757 182.088 798.318 182.792 800.75 183.88C802.03 184.84 802.861 186.056 803.246 187.528C803.63 188.936 803.822 190.376 803.822 191.848C803.822 194.344 803.054 196.36 801.517 197.896C800.045 199.368 798.158 200.456 795.854 201.16H792.685C791.661 201.16 790.701 201.096 789.805 200.968C788.909 200.84 787.981 200.776 787.022 200.776C786.254 200.776 785.486 200.84 784.717 200.968C783.949 201.096 783.149 201.16 782.317 201.16H780.109C779.981 200.968 779.821 200.648 779.629 200.2C779.437 199.752 779.341 199.432 779.341 199.24V182.728C779.341 182.216 779.629 181.864 780.205 181.672C780.781 181.48 781.229 181.352 781.549 181.288ZM822.472 217.384C822.472 220.52 822.952 223.528 823.912 226.408C824.872 229.224 826.248 231.72 828.04 233.896C829.832 236.072 832.04 237.8 834.664 239.08C837.288 240.36 840.232 241 843.496 241C846.824 241 850.056 240.392 853.192 239.176C856.328 237.96 858.856 235.944 860.776 233.128C861.544 231.976 862.248 230.824 862.888 229.672C863.528 228.456 863.848 227.112 863.848 225.64C863.848 224.744 863.528 224.008 862.888 223.432C862.312 222.856 861.544 222.568 860.584 222.568C859.56 222.568 858.696 222.824 857.992 223.336C857.288 223.848 856.616 224.488 855.976 225.256C855.4 226.024 854.824 226.824 854.248 227.656C853.736 228.488 853.16 229.192 852.52 229.768C851.688 230.472 850.696 230.984 849.544 231.304C848.392 231.56 847.368 232.04 846.472 232.744C846.28 232.744 845.832 232.776 845.128 232.84C844.488 232.84 844.072 232.84 843.88 232.84C841.96 232.84 840.2 232.488 838.6 231.784C837 231.016 835.592 230.024 834.376 228.808C833.224 227.528 832.296 226.056 831.592 224.392C830.952 222.728 830.632 220.968 830.632 219.112C830.632 218.984 830.632 218.728 830.632 218.344C830.696 217.96 830.728 217.736 830.728 217.672L831.112 217.384C831.112 217.384 831.464 217.352 832.168 217.288C832.872 217.224 833.704 217.192 834.664 217.192C835.624 217.128 836.584 217.096 837.544 217.096C838.568 217.032 839.432 217 840.136 217C840.84 217 842.088 217 843.88 217C845.736 216.936 847.656 216.904 849.64 216.904C851.688 216.904 853.608 216.936 855.4 217C857.256 217 858.536 217 859.24 217C860.264 216.808 861.256 216.552 862.216 216.232C863.176 215.912 863.944 215.272 864.52 214.312C864.52 214.184 864.52 213.928 864.52 213.544C864.584 213.096 864.616 212.808 864.616 212.68C864.616 212.104 864.488 211.24 864.232 210.088C863.976 208.872 863.656 207.656 863.273 206.44C862.952 205.16 862.568 204.008 862.12 202.984C861.736 201.896 861.416 201.16 861.16 200.776C858.728 197.704 856.104 195.208 853.288 193.288C850.472 191.304 847.016 190.312 842.92 190.312C842.216 190.312 841.48 190.312 840.712 190.312C840.008 190.248 839.304 190.376 838.6 190.696C838.408 190.76 838.056 190.92 837.544 191.176C837.096 191.368 836.584 191.624 836.008 191.944C835.432 192.2 834.888 192.456 834.376 192.712C833.864 192.968 833.512 193.16 833.32 193.288C831.208 194.44 829.448 195.944 828.04 197.8C826.696 199.592 825.608 201.576 824.776 203.752C823.944 205.864 823.336 208.104 822.952 210.472C822.632 212.84 822.472 215.144 822.472 217.384ZM831.496 208.552C831.496 206.952 831.88 205.576 832.648 204.424C833.416 203.208 834.376 202.216 835.528 201.448C836.68 200.68 837.96 200.136 839.368 199.816C840.776 199.432 842.152 199.24 843.496 199.24C844.712 199.24 845.992 199.4 847.336 199.72C848.744 199.976 850.024 200.424 851.176 201.064C852.328 201.64 853.288 202.472 854.056 203.56C854.824 204.584 855.208 205.864 855.208 207.4C855.208 207.528 855.208 207.752 855.208 208.072C855.208 208.392 855.176 208.616 855.112 208.744C854.984 208.872 854.792 209.032 854.536 209.224C854.344 209.352 854.184 209.416 854.056 209.416H831.88C831.624 209.416 831.496 209.32 831.496 209.128C831.496 208.872 831.496 208.68 831.496 208.552ZM868.549 245.416C868.549 248.36 869.253 250.696 870.661 252.424C872.133 254.216 874.181 255.56 876.805 256.456C877.317 256.584 877.733 256.808 878.053 257.128C878.437 257.512 878.885 257.8 879.397 257.992C882.085 258.952 884.709 259.56 887.269 259.816C889.829 260.072 892.549 260.2 895.429 260.2C897.989 260.2 900.581 259.912 903.205 259.336C905.893 258.824 908.325 257.928 910.501 256.648C912.677 255.432 914.437 253.768 915.781 251.656C917.125 249.608 917.797 247.048 917.797 243.976C917.797 242.76 917.637 241.672 917.317 240.712C916.997 239.752 916.549 238.888 915.973 238.12C915.397 237.288 914.725 236.52 913.957 235.816C913.189 235.112 912.325 234.344 911.365 233.512C910.917 233.128 910.597 232.84 910.405 232.648C910.213 232.456 910.053 232.296 909.925 232.168C909.797 232.04 909.605 231.912 909.349 231.784C909.157 231.656 908.837 231.496 908.389 231.304C907.301 230.92 906.021 230.728 904.549 230.728C903.141 230.728 902.021 230.664 901.189 230.536C901.061 230.536 900.709 230.472 900.133 230.344C899.621 230.216 899.045 230.088 898.405 229.96C897.765 229.832 897.157 229.704 896.581 229.576C896.069 229.448 895.749 229.384 895.621 229.384H892.261C890.021 229.384 887.845 229.704 885.733 230.344C883.621 230.984 881.445 231.304 879.205 231.304C878.885 231.304 878.565 231.176 878.245 230.92C877.925 230.664 877.701 230.408 877.573 230.152V228.808C877.573 227.784 877.765 226.888 878.149 226.12C878.597 225.288 879.429 224.872 880.645 224.872C881.669 224.872 882.629 225.032 883.525 225.352C884.421 225.608 885.285 225.896 886.117 226.216C887.013 226.536 887.909 226.856 888.805 227.176C889.701 227.432 890.661 227.56 891.685 227.56C892.453 227.56 893.061 227.528 893.509 227.464C894.021 227.336 894.469 227.176 894.853 226.984C895.301 226.792 895.749 226.6 896.197 226.408C896.645 226.152 897.189 225.896 897.829 225.64C899.493 225 900.901 224.136 902.053 223.048C903.269 221.896 904.261 220.616 905.029 219.208C905.797 217.736 906.341 216.168 906.661 214.504C907.045 212.84 907.237 211.144 907.237 209.416C907.237 207.816 907.013 206.312 906.565 204.904C906.117 203.432 905.893 201.896 905.893 200.296C906.277 200.296 906.629 200.616 906.949 201.256C907.333 201.896 907.781 202.632 908.293 203.464C908.805 204.232 909.477 204.936 910.309 205.576C911.141 206.216 912.261 206.536 913.669 206.536C915.653 206.536 917.029 205.832 917.797 204.424C918.565 202.952 918.949 201.32 918.949 199.528C918.949 198.12 918.597 196.84 917.893 195.688C917.253 194.536 916.389 193.576 915.301 192.808C914.277 191.976 913.093 191.368 911.749 190.984C910.405 190.536 909.093 190.312 907.813 190.312C905.317 190.312 903.109 191.208 901.189 193H899.365C898.469 193 897.605 192.872 896.773 192.616C895.941 192.296 895.109 191.976 894.277 191.656C893.509 191.336 892.709 191.048 891.877 190.792C891.045 190.472 890.213 190.312 889.381 190.312C889.189 190.312 888.901 190.376 888.517 190.504C888.133 190.568 887.749 190.664 887.365 190.792C886.981 190.92 886.597 191.048 886.213 191.176C885.893 191.304 885.637 191.4 885.445 191.464C881.797 193.064 878.917 195.368 876.805 198.376C874.757 201.384 873.733 204.904 873.733 208.936C873.733 210.408 873.925 211.816 874.309 213.16C874.757 214.504 874.981 215.912 874.981 217.384C874.981 217.512 874.981 217.704 874.981 217.96C874.981 218.216 874.949 218.408 874.885 218.536C873.349 220.008 872.069 221.576 871.045 223.24C870.085 224.84 869.605 226.728 869.605 228.904C869.605 229.608 869.733 230.312 869.989 231.016C870.245 231.656 870.501 232.296 870.757 232.936C871.077 233.576 871.365 234.216 871.621 234.856C871.877 235.496 872.005 236.136 872.005 236.776L871.909 237.256C870.821 238.472 869.989 239.688 869.413 240.904C868.837 242.12 868.549 243.624 868.549 245.416ZM876.805 245.896V244.264C876.805 242.664 877.317 241.448 878.341 240.616C879.429 239.72 880.709 239.048 882.181 238.6C883.717 238.152 885.317 237.896 886.981 237.832C888.645 237.704 890.085 237.64 891.301 237.64C892.197 237.64 893.669 237.704 895.717 237.832C897.829 237.96 899.941 238.28 902.053 238.792C904.229 239.24 906.117 239.912 907.717 240.808C909.381 241.704 910.213 242.92 910.213 244.456C910.213 245.416 909.893 246.248 909.253 246.952C908.613 247.656 907.845 248.264 906.949 248.776C906.053 249.288 905.093 249.704 904.069 250.024C903.109 250.344 902.277 250.6 901.573 250.792C899.717 250.92 897.701 251.016 895.525 251.08C893.413 251.144 891.333 251.176 889.285 251.176C886.789 251.176 884.485 250.76 882.373 249.928C880.325 249.096 878.469 247.752 876.805 245.896ZM880.549 209.32C880.549 207.912 880.837 206.6 881.413 205.384C881.989 204.168 882.757 203.112 883.717 202.216C884.677 201.32 885.765 200.616 886.981 200.104C888.261 199.592 889.573 199.336 890.917 199.336C893.861 199.336 896.069 200.328 897.541 202.312C899.013 204.232 899.749 206.632 899.749 209.512C899.749 210.92 899.525 212.264 899.077 213.544C898.629 214.824 897.989 215.944 897.157 216.904C896.325 217.864 895.301 218.632 894.085 219.208C892.933 219.784 891.621 220.072 890.149 220.072C888.805 220.072 887.525 219.752 886.309 219.112C885.157 218.472 884.133 217.672 883.237 216.712C882.405 215.688 881.733 214.536 881.221 213.256C880.773 211.976 880.549 210.664 880.549 209.32ZM922.875 236.392C922.875 237.48 923.195 238.408 923.835 239.176C924.539 239.944 925.467 240.328 926.619 240.328H959.355C960.443 240.328 961.211 239.88 961.659 238.984C962.171 238.088 962.427 237.192 962.427 236.296C962.427 235.848 962.331 235.304 962.139 234.664C962.011 234.024 961.755 233.416 961.371 232.84C961.051 232.264 960.635 231.784 960.123 231.4C959.675 230.952 959.163 230.728 958.587 230.728H948.411L947.835 230.152V194.44C947.835 193.096 947.227 192.072 946.011 191.368C944.859 190.664 943.739 190.312 942.651 190.312C941.883 190.312 941.115 190.376 940.347 190.504C939.643 190.632 938.907 190.696 938.139 190.696C937.051 190.696 935.963 190.632 934.875 190.504C933.851 190.376 932.795 190.312 931.707 190.312C931.003 190.312 930.203 190.376 929.307 190.504C928.475 190.568 927.675 190.76 926.907 191.08C926.203 191.336 925.595 191.752 925.083 192.328C924.571 192.904 924.315 193.704 924.315 194.728C924.315 195.24 924.379 195.816 924.507 196.456C924.699 197.032 924.955 197.576 925.275 198.088C925.595 198.6 925.979 199.048 926.427 199.432C926.939 199.752 927.515 199.912 928.155 199.912H939.387V221.128C939.323 221.256 939.259 221.576 939.195 222.088C939.131 222.6 939.067 222.92 939.003 223.048C939.003 223.304 938.971 223.752 938.907 224.392C938.907 225.032 938.875 225.704 938.811 226.408C938.747 227.112 938.683 227.784 938.619 228.424C938.619 229.064 938.619 229.512 938.619 229.768L937.947 230.728H927.387C925.851 230.728 924.699 231.368 923.931 232.648C923.227 233.864 922.875 235.112 922.875 236.392ZM935.643 178.504C935.643 180.616 936.187 182.44 937.275 183.976C938.427 185.512 940.091 186.28 942.267 186.28C944.059 186.28 945.659 185.736 947.067 184.648C948.475 183.496 949.179 181.96 949.179 180.04C949.179 179.08 948.987 178.12 948.603 177.16C948.283 176.2 947.803 175.336 947.163 174.568C946.587 173.736 945.851 173.096 944.955 172.648C944.123 172.136 943.195 171.88 942.171 171.88C940.251 171.88 938.683 172.52 937.467 173.8C936.251 175.08 935.643 176.648 935.643 178.504ZM966.326 236.2C966.326 237.352 966.55 238.504 966.998 239.656C967.51 240.744 968.47 241.288 969.878 241.288C971.03 241.288 971.862 241.032 972.374 240.52C972.95 240.008 973.334 239.432 973.526 238.792C973.782 238.088 973.974 237.448 974.102 236.872C974.294 236.232 974.582 235.816 974.966 235.624C976.054 236.2 977.046 236.968 977.942 237.928C978.838 238.824 979.862 239.432 981.014 239.752C981.206 239.816 981.526 239.912 981.974 240.04C982.422 240.168 982.87 240.296 983.318 240.424C983.83 240.552 984.278 240.68 984.662 240.808C985.11 240.872 985.398 240.904 985.526 240.904C985.59 240.904 985.942 240.936 986.582 241C987.222 241 987.734 241 988.118 241C990.422 241 992.63 240.584 994.742 239.752C996.918 238.92 998.838 237.768 1000.5 236.296C1002.23 234.76 1003.61 232.968 1004.63 230.92C1005.65 228.872 1006.17 226.632 1006.17 224.2C1006.17 221.832 1005.56 219.656 1004.34 217.672C1003.19 215.624 1001.78 213.832 1000.12 212.296C996.854 210.952 993.366 209.96 989.654 209.32C985.942 208.68 982.294 208.424 978.71 208.552C977.43 208.232 976.406 207.688 975.638 206.92C974.934 206.152 974.582 205.032 974.582 203.56C974.582 202.984 974.71 202.376 974.966 201.736C975.286 201.096 975.67 200.52 976.118 200.008C976.63 199.432 977.174 198.952 977.75 198.568C978.326 198.184 978.902 197.896 979.478 197.704C979.798 197.704 980.406 197.704 981.302 197.704C982.198 197.64 982.774 197.608 983.03 197.608C983.926 197.608 984.63 197.608 985.142 197.608C985.654 197.608 986.134 197.64 986.582 197.704C987.03 197.768 987.478 197.864 987.926 197.992C988.438 198.056 989.142 198.216 990.038 198.472C991.446 198.856 992.534 199.656 993.302 200.872C994.07 202.088 994.742 203.368 995.318 204.712C995.894 205.992 996.502 207.144 997.142 208.168C997.846 209.192 998.774 209.704 999.926 209.704C1001.27 209.704 1002.26 209.128 1002.9 207.976C1003.61 206.76 1003.96 205.576 1003.96 204.424V203.272C1003.96 202.888 1003.93 202.216 1003.86 201.256C1003.8 200.232 1003.73 199.176 1003.67 198.088C1003.67 196.936 1003.64 195.88 1003.57 194.92C1003.57 193.896 1003.57 193.192 1003.57 192.808C1003.64 191.912 1003.29 191.144 1002.52 190.504C1001.81 189.8 1001.01 189.448 1000.12 189.448C999.478 189.448 998.966 189.576 998.582 189.832C998.198 190.088 997.846 190.408 997.526 190.792C997.27 191.176 996.982 191.592 996.662 192.04C996.406 192.488 996.054 192.872 995.606 193.192C993.686 191.848 991.51 190.856 989.078 190.216C986.71 189.512 984.374 189 982.07 188.68H981.206C980.374 188.68 979.542 188.808 978.71 189.064C977.942 189.256 977.206 189.512 976.502 189.832C973.43 191.112 971.062 192.744 969.398 194.728C967.798 196.712 966.998 199.4 966.998 202.792C966.998 205.736 967.414 208.104 968.246 209.896C969.142 211.688 970.294 213.096 971.702 214.12C973.174 215.144 974.87 215.88 976.79 216.328C978.774 216.776 980.822 217.128 982.934 217.384C985.046 217.64 987.19 217.896 989.366 218.152C991.542 218.408 993.622 218.856 995.606 219.496C996.694 219.944 997.398 220.488 997.718 221.128C998.102 221.768 998.294 222.632 998.294 223.72C998.294 225.256 997.91 226.568 997.142 227.656C996.438 228.68 995.51 229.512 994.358 230.152C993.27 230.792 992.022 231.272 990.614 231.592C989.27 231.848 987.926 231.976 986.582 231.976C985.046 231.976 983.67 231.752 982.454 231.304C981.302 230.792 980.246 230.152 979.286 229.384C978.326 228.552 977.43 227.624 976.598 226.6C975.83 225.512 975.03 224.392 974.198 223.24C973.814 222.728 973.59 222.12 973.526 221.416C973.462 220.648 973.206 220.008 972.758 219.496C972.438 219.176 972.022 218.984 971.51 218.92C971.062 218.792 970.646 218.728 970.262 218.728C969.43 218.728 968.662 219.016 967.958 219.592C967.254 220.104 966.902 220.808 966.902 221.704V233.032C966.582 233.672 966.39 234.216 966.326 234.664C966.326 235.048 966.326 235.56 966.326 236.2ZM1028.3 221.416C1028.3 224.616 1028.68 227.432 1029.45 229.864C1030.28 232.296 1032.01 234.536 1034.64 236.584C1034.7 236.648 1034.89 236.744 1035.21 236.872C1035.53 237 1035.85 237.16 1036.17 237.352C1036.49 237.48 1036.81 237.64 1037.13 237.832C1037.45 237.96 1037.64 238.024 1037.71 238.024C1038.41 238.536 1038.96 238.952 1039.34 239.272C1039.79 239.528 1040.2 239.752 1040.59 239.944C1041.04 240.072 1041.52 240.168 1042.03 240.232C1042.54 240.296 1043.28 240.328 1044.24 240.328C1046.67 240.328 1048.81 239.752 1050.67 238.6C1052.52 237.384 1054.06 235.88 1055.28 234.088C1056.56 232.232 1057.52 230.184 1058.16 227.944C1058.8 225.704 1059.12 223.496 1059.12 221.32C1059.12 219.976 1058.8 218.728 1058.16 217.576C1057.52 216.424 1056.4 215.848 1054.8 215.848C1053.71 215.848 1052.88 216.232 1052.3 217C1051.72 217.704 1051.28 218.6 1050.96 219.688C1050.64 220.776 1050.32 221.96 1050 223.24C1049.74 224.456 1049.36 225.608 1048.84 226.696C1048.4 227.784 1047.72 228.712 1046.83 229.48C1045.93 230.184 1044.72 230.536 1043.18 230.536C1042.6 230.536 1042 230.344 1041.36 229.96C1040.72 229.512 1040.11 229 1039.53 228.424C1039.02 227.848 1038.57 227.24 1038.19 226.6C1037.87 225.96 1037.71 225.384 1037.71 224.872V198.184L1038.86 197.128C1038.92 197.064 1039.31 197.032 1040.01 197.032C1040.78 196.968 1041.36 196.936 1041.74 196.936C1043.6 196.936 1045.2 197.16 1046.54 197.608C1047.95 197.992 1049.45 198.184 1051.05 198.184C1052.33 198.184 1053.36 197.736 1054.12 196.84C1054.96 195.88 1055.37 194.76 1055.37 193.48C1055.37 192.136 1054.89 190.888 1053.93 189.736C1052.97 188.584 1051.76 188.008 1050.28 188.008C1049 188.008 1047.72 188.104 1046.44 188.296C1045.23 188.424 1043.95 188.488 1042.6 188.488C1042.09 188.488 1041.39 188.488 1040.49 188.488C1039.66 188.488 1039.21 188.456 1039.15 188.392L1038.48 187.72C1038.41 187.656 1038.38 187.24 1038.38 186.472C1038.38 185.704 1038.38 185.128 1038.38 184.744C1038.38 183.208 1038.44 181.736 1038.57 180.328C1038.76 178.92 1038.86 177.48 1038.86 176.008C1038.86 174.472 1038.64 173.16 1038.19 172.072C1037.8 170.92 1036.68 170.344 1034.83 170.344C1032.97 170.344 1031.76 170.92 1031.18 172.072C1030.6 173.16 1030.25 174.504 1030.12 176.104C1030.06 177.64 1030.03 179.208 1030.03 180.808C1030.03 182.408 1029.71 183.688 1029.07 184.648C1028.36 185.672 1027.5 186.312 1026.48 186.568C1025.52 186.76 1024.46 186.856 1023.31 186.856C1022.22 186.856 1021.13 186.888 1020.04 186.952C1019.02 187.016 1018.12 187.368 1017.36 188.008C1016.59 188.712 1015.82 189.448 1015.05 190.216C1014.35 190.984 1014 191.944 1014 193.096C1014 193.864 1014.25 194.696 1014.76 195.592C1015.34 196.488 1016.08 196.936 1016.97 196.936H1029.07V207.592C1028.3 209.704 1027.98 211.976 1028.11 214.408C1028.24 216.84 1028.3 219.176 1028.3 221.416ZM1063.17 217.384C1063.17 220.52 1063.65 223.528 1064.61 226.408C1065.57 229.224 1066.94 231.72 1068.73 233.896C1070.53 236.072 1072.73 237.8 1075.36 239.08C1077.98 240.36 1080.93 241 1084.19 241C1087.52 241 1090.75 240.392 1093.89 239.176C1097.02 237.96 1099.55 235.944 1101.47 233.128C1102.24 231.976 1102.94 230.824 1103.58 229.672C1104.22 228.456 1104.54 227.112 1104.54 225.64C1104.54 224.744 1104.22 224.008 1103.58 223.432C1103.01 222.856 1102.24 222.568 1101.28 222.568C1100.25 222.568 1099.39 222.824 1098.69 223.336C1097.98 223.848 1097.31 224.488 1096.67 225.256C1096.09 226.024 1095.52 226.824 1094.94 227.656C1094.43 228.488 1093.85 229.192 1093.21 229.768C1092.38 230.472 1091.39 230.984 1090.24 231.304C1089.09 231.56 1088.06 232.04 1087.17 232.744C1086.97 232.744 1086.53 232.776 1085.82 232.84C1085.18 232.84 1084.77 232.84 1084.57 232.84C1082.65 232.84 1080.89 232.488 1079.29 231.784C1077.69 231.016 1076.29 230.024 1075.07 228.808C1073.92 227.528 1072.99 226.056 1072.29 224.392C1071.65 222.728 1071.33 220.968 1071.33 219.112C1071.33 218.984 1071.33 218.728 1071.33 218.344C1071.39 217.96 1071.42 217.736 1071.42 217.672L1071.81 217.384C1071.81 217.384 1072.16 217.352 1072.86 217.288C1073.57 217.224 1074.4 217.192 1075.36 217.192C1076.32 217.128 1077.28 217.096 1078.24 217.096C1079.26 217.032 1080.13 217 1080.83 217C1081.53 217 1082.78 217 1084.57 217C1086.43 216.936 1088.35 216.904 1090.33 216.904C1092.38 216.904 1094.3 216.936 1096.09 217C1097.95 217 1099.23 217 1099.93 217C1100.96 216.808 1101.95 216.552 1102.91 216.232C1103.87 215.912 1104.64 215.272 1105.21 214.312C1105.21 214.184 1105.21 213.928 1105.21 213.544C1105.28 213.096 1105.31 212.808 1105.31 212.68C1105.31 212.104 1105.18 211.24 1104.93 210.088C1104.67 208.872 1104.35 207.656 1103.97 206.44C1103.65 205.16 1103.26 204.008 1102.81 202.984C1102.43 201.896 1102.11 201.16 1101.85 200.776C1099.42 197.704 1096.8 195.208 1093.98 193.288C1091.17 191.304 1087.71 190.312 1083.61 190.312C1082.91 190.312 1082.17 190.312 1081.41 190.312C1080.7 190.248 1080 190.376 1079.29 190.696C1079.1 190.76 1078.75 190.92 1078.24 191.176C1077.79 191.368 1077.28 191.624 1076.7 191.944C1076.13 192.2 1075.58 192.456 1075.07 192.712C1074.56 192.968 1074.21 193.16 1074.01 193.288C1071.9 194.44 1070.14 195.944 1068.73 197.8C1067.39 199.592 1066.3 201.576 1065.47 203.752C1064.64 205.864 1064.03 208.104 1063.65 210.472C1063.33 212.84 1063.17 215.144 1063.17 217.384ZM1072.19 208.552C1072.19 206.952 1072.57 205.576 1073.34 204.424C1074.11 203.208 1075.07 202.216 1076.22 201.448C1077.37 200.68 1078.65 200.136 1080.06 199.816C1081.47 199.432 1082.85 199.24 1084.19 199.24C1085.41 199.24 1086.69 199.4 1088.03 199.72C1089.44 199.976 1090.72 200.424 1091.87 201.064C1093.02 201.64 1093.98 202.472 1094.75 203.56C1095.52 204.584 1095.9 205.864 1095.9 207.4C1095.9 207.528 1095.9 207.752 1095.9 208.072C1095.9 208.392 1095.87 208.616 1095.81 208.744C1095.68 208.872 1095.49 209.032 1095.23 209.224C1095.04 209.352 1094.88 209.416 1094.75 209.416H1072.57C1072.32 209.416 1072.19 209.32 1072.19 209.128C1072.19 208.872 1072.19 208.68 1072.19 208.552ZM1109.91 235.528C1109.91 237.128 1110.52 238.44 1111.74 239.464C1113.02 240.488 1114.43 241 1115.96 241H1126.91C1127.55 240.808 1128.03 240.712 1128.35 240.712C1128.73 240.648 1129.18 240.616 1129.69 240.616C1130.78 240.616 1131.83 240.68 1132.86 240.808C1133.95 240.936 1135.03 241 1136.12 241C1137.08 241 1138.11 240.968 1139.19 240.904C1140.28 240.776 1141.27 240.552 1142.17 240.232C1143.13 239.848 1143.9 239.304 1144.47 238.6C1145.05 237.832 1145.34 236.808 1145.34 235.528C1145.34 233.992 1144.73 232.84 1143.51 232.072C1142.3 231.24 1140.95 230.824 1139.48 230.824C1138.78 230.824 1138.04 230.888 1137.27 231.016C1136.57 231.144 1135.87 231.208 1135.16 231.208C1134.46 231.208 1133.85 231.144 1133.34 231.016C1132.83 230.888 1132.44 230.472 1132.19 229.768C1132.19 229.512 1132.15 229.096 1132.09 228.52C1132.09 227.944 1132.06 227.336 1131.99 226.696C1131.99 226.056 1131.96 225.448 1131.9 224.872C1131.83 224.296 1131.8 223.912 1131.8 223.72C1131.8 223.592 1131.74 223.272 1131.61 222.76C1131.55 222.248 1131.48 221.928 1131.42 221.8V210.952C1131.42 210.632 1131.58 210.152 1131.9 209.512C1132.22 208.808 1132.6 208.104 1133.05 207.4C1133.5 206.696 1133.95 206.056 1134.39 205.48C1134.91 204.84 1135.29 204.392 1135.55 204.136C1135.74 203.944 1136.12 203.56 1136.7 202.984C1137.27 202.408 1137.88 201.8 1138.52 201.16C1139.16 200.52 1139.77 199.912 1140.35 199.336C1140.92 198.76 1141.34 198.376 1141.59 198.184C1141.85 197.928 1142.11 197.8 1142.36 197.8C1142.68 197.736 1143 197.704 1143.32 197.704C1143.45 197.704 1143.67 197.704 1143.99 197.704C1144.31 197.704 1144.51 197.864 1144.57 198.184C1144.63 199.08 1144.73 200.168 1144.86 201.448C1145.05 202.664 1145.37 203.848 1145.82 205C1146.27 206.152 1146.87 207.144 1147.64 207.976C1148.41 208.744 1149.43 209.128 1150.71 209.128C1153.4 209.128 1155.29 208.296 1156.38 206.632C1157.53 204.968 1158.11 202.952 1158.11 200.584C1158.11 198.92 1157.75 197.416 1157.05 196.072C1156.41 194.664 1155.55 193.48 1154.46 192.52C1153.37 191.56 1152.06 190.824 1150.52 190.312C1149.05 189.736 1147.51 189.448 1145.91 189.448C1143.29 189.448 1140.83 190.12 1138.52 191.464C1136.28 192.808 1134.17 194.28 1132.19 195.88H1131.99C1131.74 195.88 1131.48 195.72 1131.23 195.4C1131.03 195.08 1130.84 194.696 1130.65 194.248C1130.52 193.8 1130.39 193.384 1130.27 193C1130.14 192.552 1130.01 192.264 1129.88 192.136C1129.18 191.176 1128.15 190.536 1126.81 190.216C1125.47 189.832 1124.03 189.608 1122.49 189.544C1120.95 189.48 1119.42 189.512 1117.88 189.64C1116.41 189.704 1115.16 189.672 1114.14 189.544C1114.14 189.48 1114.04 189.448 1113.85 189.448C1113.72 189.448 1113.63 189.448 1113.56 189.448C1112.22 189.448 1111.16 189.928 1110.39 190.888C1109.63 191.784 1109.24 192.872 1109.24 194.152C1109.24 195.432 1109.66 196.52 1110.49 197.416C1111.39 198.248 1112.47 198.728 1113.75 198.856C1114.07 198.856 1114.62 198.888 1115.39 198.952C1116.15 199.016 1116.99 199.08 1117.88 199.144C1118.78 199.144 1119.61 199.176 1120.38 199.24C1121.15 199.24 1121.69 199.24 1122.01 199.24L1122.78 200.008L1123.35 211.336V213.16L1123.55 222.568C1123.48 222.696 1123.39 223.016 1123.26 223.528C1123.19 224.04 1123.16 224.36 1123.16 224.488C1123.16 224.744 1123.13 225.192 1123.07 225.832C1123 226.408 1122.94 227.048 1122.87 227.752C1122.87 228.392 1122.84 229 1122.78 229.576C1122.78 230.152 1122.78 230.568 1122.78 230.824L1122.39 231.208C1122.33 231.208 1122.04 231.24 1121.53 231.304C1121.08 231.304 1120.73 231.304 1120.47 231.304C1119.51 231.304 1118.59 231.24 1117.69 231.112C1116.86 230.92 1115.99 230.824 1115.1 230.824C1113.63 230.824 1112.38 231.24 1111.35 232.072C1110.39 232.904 1109.91 234.056 1109.91 235.528Z" fill="white"/>
</svg>
