<svg width="2000" height="1160" viewBox="0 0 2000 1160" fill="none" xmlns="http://www.w3.org/2000/svg">
<rect width="1920" height="1080" transform="translate(40 40)" fill="#420C14"/>
<rect x="40" y="40" width="1920" height="1080" fill="#420C14"/>
<mask id="path-2-inside-1_3_34" fill="white">
<path fill-rule="evenodd" clip-rule="evenodd" d="M506 40C589.59 226.012 779.279 355.868 999.9 355.868L999.9 40H506ZM1002.9 40L1002.9 355.86C1222.24 354.689 1410.59 225.169 1493.8 40H1002.9Z"/>
</mask>
<path fill-rule="evenodd" clip-rule="evenodd" d="M506 40C589.59 226.012 779.279 355.868 999.9 355.868L999.9 40H506ZM1002.9 40L1002.9 355.86C1222.24 354.689 1410.59 225.169 1493.8 40H1002.9Z" fill="white"/>
<path d="M506 40V37H501.363L503.264 41.2297L506 40ZM999.9 355.868V358.868H1002.9V355.868H999.9ZM999.9 40L1002.9 40V37H999.9V40ZM1002.9 355.86H999.9V358.876L1002.92 358.86L1002.9 355.86ZM1002.9 40V37H999.9V40L1002.9 40ZM1493.8 40L1496.54 41.2297L1498.44 37H1493.8V40ZM503.264 41.2297C587.331 228.303 778.08 358.868 999.9 358.868V352.868C780.477 352.868 591.849 223.72 508.736 38.7703L503.264 41.2297ZM1002.9 355.868L1002.9 40L996.9 40L996.9 355.868H1002.9ZM999.9 37H506V43H999.9V37ZM1005.9 355.86L1005.9 40L999.9 40L999.9 355.86H1005.9ZM1491.07 38.7703C1408.33 222.882 1221.03 351.696 1002.88 352.86L1002.92 358.86C1223.45 357.683 1412.85 227.455 1496.54 41.2297L1491.07 38.7703ZM1493.8 37H1002.9V43H1493.8V37Z" fill="black" mask="url(#path-2-inside-1_3_34)"/>
<rect x="40" y="8" width="36.5" height="26" rx="2" fill="#420C14"/>
<rect x="40.5" y="8.5" width="35.5" height="25" rx="1.5" stroke="black" stroke-opacity="0.14902"/>
<path d="M44.9688 24V16H45.9375V23.1406H49.6563V24H44.9688ZM53.4688 24.125C52.9271 24.125 52.4518 23.9961 52.043 23.7383C51.6367 23.4805 51.319 23.1198 51.0898 22.6562C50.8633 22.1927 50.75 21.651 50.75 21.0312C50.75 20.4062 50.8633 19.8607 51.0898 19.3945C51.319 18.9284 51.6367 18.5664 52.043 18.3086C52.4518 18.0508 52.9271 17.9219 53.4688 17.9219C54.0104 17.9219 54.4844 18.0508 54.8906 18.3086C55.2995 18.5664 55.6172 18.9284 55.8438 19.3945C56.0729 19.8607 56.1875 20.4062 56.1875 21.0312C56.1875 21.651 56.0729 22.1927 55.8438 22.6562C55.6172 23.1198 55.2995 23.4805 54.8906 23.7383C54.4844 23.9961 54.0104 24.125 53.4688 24.125ZM53.4688 23.2969C53.8802 23.2969 54.2187 23.1914 54.4844 22.9805C54.75 22.7695 54.9466 22.4922 55.0742 22.1484C55.2018 21.8047 55.2656 21.4323 55.2656 21.0312C55.2656 20.6302 55.2018 20.2565 55.0742 19.9102C54.9466 19.5638 54.75 19.2839 54.4844 19.0703C54.2187 18.8568 53.8802 18.75 53.4688 18.75C53.0573 18.75 52.7188 18.8568 52.4531 19.0703C52.1875 19.2839 51.9909 19.5638 51.8633 19.9102C51.7357 20.2565 51.6719 20.6302 51.6719 21.0312C51.6719 21.4323 51.7357 21.8047 51.8633 22.1484C51.9909 22.4922 52.1875 22.7695 52.4531 22.9805C52.7188 23.1914 53.0573 23.2969 53.4688 23.2969ZM60.0166 26.375C59.5713 26.375 59.1885 26.3177 58.8682 26.2031C58.5479 26.0911 58.2809 25.9427 58.0674 25.7578C57.8564 25.5755 57.6885 25.3802 57.5635 25.1719L58.2979 24.6563C58.3812 24.7656 58.4867 24.8906 58.6143 25.0312C58.7419 25.1745 58.9163 25.2982 59.1377 25.4023C59.3617 25.5091 59.6546 25.5625 60.0166 25.5625C60.501 25.5625 60.9007 25.4453 61.2158 25.2109C61.5309 24.9766 61.6885 24.6094 61.6885 24.1094V22.8906H61.6104C61.5426 23 61.4463 23.1354 61.3213 23.2969C61.1989 23.4557 61.0218 23.5977 60.79 23.7227C60.5609 23.8451 60.251 23.9062 59.8604 23.9062C59.376 23.9062 58.9411 23.7917 58.5557 23.5625C58.1729 23.3333 57.8695 23 57.6455 22.5625C57.4242 22.125 57.3135 21.5937 57.3135 20.9687C57.3135 20.3542 57.4215 19.819 57.6377 19.3633C57.8538 18.9049 58.1546 18.5508 58.54 18.3008C58.9255 18.0482 59.3708 17.9219 59.876 17.9219C60.2666 17.9219 60.5765 17.987 60.8057 18.1172C61.0374 18.2448 61.2145 18.3906 61.3369 18.5547C61.4619 18.7161 61.5583 18.849 61.626 18.9531H61.7197V18H62.6104V24.1719C62.6104 24.6875 62.4932 25.1068 62.2588 25.4297C62.027 25.7552 61.7145 25.9935 61.3213 26.1445C60.9307 26.2982 60.4958 26.375 60.0166 26.375ZM59.9854 23.0781C60.3551 23.0781 60.6676 22.9935 60.9229 22.8242C61.1781 22.6549 61.3721 22.4115 61.5049 22.0938C61.6377 21.776 61.7041 21.3958 61.7041 20.9531C61.7041 20.5208 61.639 20.1393 61.5088 19.8086C61.3786 19.4779 61.1859 19.2187 60.9307 19.0312C60.6755 18.8437 60.3604 18.75 59.9854 18.75C59.5947 18.75 59.2692 18.849 59.0088 19.0469C58.751 19.2448 58.557 19.5104 58.4268 19.8438C58.2992 20.1771 58.2354 20.5469 58.2354 20.9531C58.2354 21.3698 58.3005 21.7383 58.4307 22.0586C58.5635 22.3763 58.7588 22.6263 59.0166 22.8086C59.277 22.9883 59.5999 23.0781 59.9854 23.0781ZM64.2979 24V18H65.2197V24H64.2979ZM64.7666 17C64.5869 17 64.432 16.9388 64.3018 16.8164C64.1742 16.694 64.1104 16.5469 64.1104 16.375C64.1104 16.2031 64.1742 16.056 64.3018 15.9336C64.432 15.8112 64.5869 15.75 64.7666 15.75C64.9463 15.75 65.0999 15.8112 65.2275 15.9336C65.3577 16.056 65.4229 16.2031 65.4229 16.375C65.4229 16.5469 65.3577 16.694 65.2275 16.8164C65.0999 16.9388 64.9463 17 64.7666 17ZM67.8301 20.3906V24H66.9082V18H67.7988V18.9375H67.877C68.0176 18.6328 68.2311 18.388 68.5176 18.2031C68.804 18.0156 69.1738 17.9219 69.627 17.9219C70.0332 17.9219 70.3887 18.0052 70.6934 18.1719C70.998 18.3359 71.235 18.5859 71.4043 18.9219C71.5736 19.2552 71.6582 19.6771 71.6582 20.1875V24H70.7363V20.25C70.7363 19.7786 70.6139 19.4115 70.3691 19.1484C70.1243 18.8828 69.7884 18.75 69.3613 18.75C69.0671 18.75 68.804 18.8138 68.5723 18.9414C68.3431 19.069 68.1621 19.2552 68.0293 19.5C67.8965 19.7448 67.8301 20.0417 67.8301 20.3906Z" fill="white"/>
</svg>
