<svg width="1920" height="1080" viewBox="0 0 1920 1080" fill="none" xmlns="http://www.w3.org/2000/svg">
<rect width="1920" height="1080" fill="#420C14"/>
<mask id="path-2-inside-1_157_636" fill="white">
<path fill-rule="evenodd" clip-rule="evenodd" d="M466 0C549.59 186.012 739.279 315.868 959.9 315.868L959.9 0H466ZM962.9 0L962.9 315.86C1182.24 314.689 1370.59 185.169 1453.8 0H962.9Z"/>
</mask>
<path fill-rule="evenodd" clip-rule="evenodd" d="M466 0C549.59 186.012 739.279 315.868 959.9 315.868L959.9 0H466ZM962.9 0L962.9 315.86C1182.24 314.689 1370.59 185.169 1453.8 0H962.9Z" fill="white"/>
<path d="M466 0V-3H461.363L463.264 1.22968L466 0ZM959.9 315.868V318.868H962.9V315.868H959.9ZM959.9 0L962.9 2.89845e-07V-3H959.9V0ZM962.9 315.86H959.9V318.876L962.916 318.86L962.9 315.86ZM962.9 0V-3H959.9V-2.89852e-07L962.9 0ZM1453.8 0L1456.54 1.22968L1458.44 -3H1453.8V0ZM463.264 1.22968C547.331 188.303 738.08 318.868 959.9 318.868V312.868C740.477 312.868 551.849 183.72 468.736 -1.22968L463.264 1.22968ZM962.9 315.868L962.9 2.89845e-07L956.9 -2.89845e-07L956.9 315.868H962.9ZM959.9 -3H466V3H959.9V-3ZM965.9 315.86L965.9 2.89852e-07L959.9 -2.89852e-07L959.9 315.86H965.9ZM1451.06 -1.22968C1368.33 182.882 1181.03 311.696 962.884 312.86L962.916 318.86C1183.45 317.683 1372.85 187.455 1456.54 1.22968L1451.06 -1.22968ZM1453.8 -3H962.9V3H1453.8V-3Z" fill="black" mask="url(#path-2-inside-1_157_636)"/>
</svg>
