<svg width="1921" height="1080" viewBox="0 0 1921 1080" fill="none" xmlns="http://www.w3.org/2000/svg">
<rect width="1920" height="1080" fill="#DEE7B9"/>
<rect x="0.5" y="646.693" width="1919" height="432.807" fill="#5A2B32" stroke="#974D58"/>
<rect x="0.5" y="1005.38" width="79" height="74.1181" fill="#813B45" stroke="#974D58"/>
<rect x="160.5" y="1005.38" width="79" height="74.1181" fill="#813B45" stroke="#974D58"/>
<rect x="320.5" y="1005.38" width="79" height="74.1181" fill="#813B45" stroke="#974D58"/>
<rect x="640.5" y="1005.38" width="79" height="74.1181" fill="#813B45" stroke="#974D58"/>
<rect x="800.5" y="1005.38" width="79" height="74.1181" fill="#813B45" stroke="#974D58"/>
<rect x="960.5" y="1005.38" width="79" height="74.1181" fill="#813B45" stroke="#974D58"/>
<rect x="1120.5" y="1005.38" width="79" height="74.1181" fill="#813B45" stroke="#974D58"/>
<rect x="1280.5" y="1005.38" width="79" height="74.1181" fill="#813B45" stroke="#974D58"/>
<rect x="1440.5" y="1005.38" width="79" height="74.1181" fill="#813B45" stroke="#974D58"/>
<rect x="1600.5" y="1005.38" width="79" height="74.1181" fill="#813B45" stroke="#974D58"/>
<rect x="1760.5" y="1005.38" width="79" height="74.1181" fill="#813B45" stroke="#974D58"/>
<rect x="480.5" y="1005.38" width="79" height="74.1181" fill="#813B45" stroke="#974D58"/>
<rect x="0.5" y="704.909" width="79" height="74.1181" fill="#813B45" stroke="#974D58"/>
<rect x="160.5" y="704.909" width="79" height="74.1181" fill="#813B45" stroke="#974D58"/>
<rect x="320.5" y="704.909" width="79" height="74.1181" fill="#813B45" stroke="#974D58"/>
<rect x="640.5" y="704.909" width="79" height="74.1181" fill="#813B45" stroke="#974D58"/>
<rect x="800.5" y="704.909" width="79" height="74.1181" fill="#813B45" stroke="#974D58"/>
<rect x="960.5" y="704.909" width="79" height="74.1181" fill="#813B45" stroke="#974D58"/>
<rect x="1120.5" y="704.909" width="79" height="74.1181" fill="#813B45" stroke="#974D58"/>
<rect x="1280.5" y="704.909" width="79" height="74.1181" fill="#813B45" stroke="#974D58"/>
<rect x="1440.5" y="704.909" width="79" height="74.1181" fill="#813B45" stroke="#974D58"/>
<rect x="1600.5" y="704.909" width="79" height="74.1181" fill="#813B45" stroke="#974D58"/>
<rect x="1760.5" y="704.909" width="79" height="74.1181" fill="#813B45" stroke="#974D58"/>
<rect x="480.5" y="704.909" width="79" height="74.1181" fill="#813B45" stroke="#974D58"/>
<rect x="80.5" y="780.028" width="79" height="74.1181" fill="#813B45" stroke="#974D58"/>
<rect x="240.5" y="780.028" width="79" height="74.1181" fill="#813B45" stroke="#974D58"/>
<rect x="400.5" y="780.028" width="79" height="74.1181" fill="#813B45" stroke="#974D58"/>
<rect x="720.5" y="780.028" width="79" height="74.1181" fill="#813B45" stroke="#974D58"/>
<rect x="880.5" y="780.028" width="79" height="74.1181" fill="#813B45" stroke="#974D58"/>
<rect x="1040.5" y="780.028" width="79" height="74.1181" fill="#813B45" stroke="#974D58"/>
<rect x="1200.5" y="780.028" width="79" height="74.1181" fill="#813B45" stroke="#974D58"/>
<rect x="1360.5" y="780.028" width="79" height="74.1181" fill="#813B45" stroke="#974D58"/>
<rect x="1520.5" y="780.028" width="79" height="74.1181" fill="#813B45" stroke="#974D58"/>
<rect x="1680.5" y="780.028" width="79" height="74.1181" fill="#813B45" stroke="#974D58"/>
<rect x="1840.5" y="780.028" width="79" height="74.1181" fill="#813B45" stroke="#974D58"/>
<rect x="560.5" y="780.028" width="79" height="74.1181" fill="#813B45" stroke="#974D58"/>
<rect x="0.5" y="855.146" width="79" height="74.1181" fill="#813B45" stroke="#974D58"/>
<rect x="160.5" y="855.146" width="79" height="74.1181" fill="#813B45" stroke="#974D58"/>
<rect x="320.5" y="855.146" width="79" height="74.1181" fill="#813B45" stroke="#974D58"/>
<rect x="640.5" y="855.146" width="79" height="74.1181" fill="#813B45" stroke="#974D58"/>
<rect x="800.5" y="855.146" width="79" height="74.1181" fill="#813B45" stroke="#974D58"/>
<rect x="960.5" y="855.146" width="79" height="74.1181" fill="#813B45" stroke="#974D58"/>
<rect x="1120.5" y="855.146" width="79" height="74.1181" fill="#813B45" stroke="#974D58"/>
<rect x="1280.5" y="855.146" width="79" height="74.1181" fill="#813B45" stroke="#974D58"/>
<rect x="1440.5" y="855.146" width="79" height="74.1181" fill="#813B45" stroke="#974D58"/>
<rect x="1600.5" y="855.146" width="79" height="74.1181" fill="#813B45" stroke="#974D58"/>
<rect x="1760.5" y="855.146" width="79" height="74.1181" fill="#813B45" stroke="#974D58"/>
<rect x="480.5" y="855.146" width="79" height="74.1181" fill="#813B45" stroke="#974D58"/>
<rect x="80.5" y="930.264" width="79" height="74.1181" fill="#813B45" stroke="#974D58"/>
<rect x="240.5" y="930.264" width="79" height="74.1181" fill="#813B45" stroke="#974D58"/>
<rect x="400.5" y="930.264" width="79" height="74.1181" fill="#813B45" stroke="#974D58"/>
<rect x="720.5" y="930.264" width="79" height="74.1181" fill="#813B45" stroke="#974D58"/>
<rect x="880.5" y="930.264" width="79" height="74.1181" fill="#813B45" stroke="#974D58"/>
<rect x="1040.5" y="930.264" width="79" height="74.1181" fill="#813B45" stroke="#974D58"/>
<rect x="1200.5" y="930.264" width="79" height="74.1181" fill="#813B45" stroke="#974D58"/>
<rect x="1360.5" y="930.264" width="79" height="74.1181" fill="#813B45" stroke="#974D58"/>
<rect x="1520.5" y="930.264" width="79" height="74.1181" fill="#813B45" stroke="#974D58"/>
<rect x="1680.5" y="930.264" width="79" height="74.1181" fill="#813B45" stroke="#974D58"/>
<rect x="1840.5" y="930.264" width="79" height="74.1181" fill="#813B45" stroke="#974D58"/>
<rect x="560.5" y="930.264" width="79" height="74.1181" fill="#813B45" stroke="#974D58"/>
<rect x="0.5" y="604.5" width="1919" height="10.2677" fill="#401F24" stroke="#974D58"/>
<rect x="0.5" y="692.703" width="1919" height="11.2067" fill="#401F24" stroke="#974D58"/>
<rect x="0.5" y="639.5" width="1919" height="4.63386" fill="#401F24" stroke="#974D58"/>
<mask id="path-66-inside-1_14_479" fill="white">
<path d="M280 750H1480V1080H280V750Z"/>
</mask>
<path d="M280 750H1480V1080H280V750Z" fill="#524F3B"/>
<path d="M1480 1080V1090H1490V1080H1480ZM280 1080H270V1090H280V1080ZM1470 750V1080H1490V750H1470ZM1480 1070H280V1090H1480V1070ZM290 1080V750H270V1080H290Z" fill="black" mask="url(#path-66-inside-1_14_479)"/>
<mask id="path-68-inside-2_14_479" fill="white">
<path d="M236 697H1523V750H236V697Z"/>
</mask>
<path d="M236 697H1523V750H236V697Z" fill="#787558"/>
<path d="M236 697V687H226V697H236ZM1523 697H1533V687H1523V697ZM1523 750V760H1533V750H1523ZM236 750H226V760H236V750ZM236 707H1523V687H236V707ZM1513 697V750H1533V697H1513ZM1523 740H236V760H1523V740ZM246 750V697H226V750H246Z" fill="black" mask="url(#path-68-inside-2_14_479)"/>
<rect y="615" width="1920" height="24" fill="#8D434E"/>
<rect x="0.415957" y="651.416" width="15.8064" height="39.516" fill="#AF8127" stroke="#974D58" stroke-width="0.831915"/>
<rect x="33.6926" y="651.416" width="15.8064" height="39.516" fill="#AF8127" stroke="#974D58" stroke-width="0.831915"/>
<rect x="66.9692" y="651.416" width="15.8064" height="39.516" fill="#AF8127" stroke="#974D58" stroke-width="0.831915"/>
<rect x="100.246" y="651.416" width="15.8064" height="39.516" fill="#AF8127" stroke="#974D58" stroke-width="0.831915"/>
<rect x="133.522" y="651.416" width="15.8064" height="39.516" fill="#AF8127" stroke="#974D58" stroke-width="0.831915"/>
<rect x="166.799" y="651.416" width="15.8064" height="39.516" fill="#AF8127" stroke="#974D58" stroke-width="0.831915"/>
<rect x="200.076" y="651.416" width="15.8064" height="39.516" fill="#AF8127" stroke="#974D58" stroke-width="0.831915"/>
<rect x="233.352" y="651.416" width="15.8064" height="39.516" fill="#AF8127" stroke="#974D58" stroke-width="0.831915"/>
<rect x="266.629" y="651.416" width="15.8064" height="39.516" fill="#AF8127" stroke="#974D58" stroke-width="0.831915"/>
<rect x="299.905" y="651.416" width="15.8064" height="39.516" fill="#AF8127" stroke="#974D58" stroke-width="0.831915"/>
<rect x="333.182" y="651.416" width="15.8064" height="39.516" fill="#AF8127" stroke="#974D58" stroke-width="0.831915"/>
<rect x="366.459" y="651.416" width="15.8064" height="39.516" fill="#AF8127" stroke="#974D58" stroke-width="0.831915"/>
<rect x="399.735" y="651.416" width="15.8064" height="39.516" fill="#AF8127" stroke="#974D58" stroke-width="0.831915"/>
<rect x="433.012" y="651.416" width="15.8064" height="39.516" fill="#AF8127" stroke="#974D58" stroke-width="0.831915"/>
<rect x="466.288" y="651.416" width="15.8064" height="39.516" fill="#AF8127" stroke="#974D58" stroke-width="0.831915"/>
<rect x="499.565" y="651.416" width="15.8064" height="39.516" fill="#AF8127" stroke="#974D58" stroke-width="0.831915"/>
<rect x="532.841" y="651.416" width="15.8064" height="39.516" fill="#AF8127" stroke="#974D58" stroke-width="0.831915"/>
<rect x="566.118" y="651.416" width="15.8064" height="39.516" fill="#AF8127" stroke="#974D58" stroke-width="0.831915"/>
<rect x="599.395" y="651.416" width="15.8064" height="39.516" fill="#AF8127" stroke="#974D58" stroke-width="0.831915"/>
<rect x="632.671" y="651.416" width="15.8064" height="39.516" fill="#AF8127" stroke="#974D58" stroke-width="0.831915"/>
<rect x="665.948" y="651.416" width="15.8064" height="39.516" fill="#AF8127" stroke="#974D58" stroke-width="0.831915"/>
<rect x="699.224" y="651.416" width="15.8064" height="39.516" fill="#AF8127" stroke="#974D58" stroke-width="0.831915"/>
<rect x="732.501" y="651.416" width="15.8064" height="39.516" fill="#AF8127" stroke="#974D58" stroke-width="0.831915"/>
<rect x="765.778" y="651.416" width="15.8064" height="39.516" fill="#AF8127" stroke="#974D58" stroke-width="0.831915"/>
<rect x="799.416" y="652.416" width="15.8064" height="39.516" fill="#AF8127" stroke="#974D58" stroke-width="0.831915"/>
<rect x="832.693" y="652.416" width="15.8064" height="39.516" fill="#AF8127" stroke="#974D58" stroke-width="0.831915"/>
<rect x="865.969" y="652.416" width="15.8064" height="39.516" fill="#AF8127" stroke="#974D58" stroke-width="0.831915"/>
<rect x="899.246" y="652.416" width="15.8064" height="39.516" fill="#AF8127" stroke="#974D58" stroke-width="0.831915"/>
<rect x="932.522" y="652.416" width="15.8064" height="39.516" fill="#AF8127" stroke="#974D58" stroke-width="0.831915"/>
<rect x="965.799" y="652.416" width="15.8064" height="39.516" fill="#AF8127" stroke="#974D58" stroke-width="0.831915"/>
<rect x="999.076" y="652.416" width="15.8064" height="39.516" fill="#AF8127" stroke="#974D58" stroke-width="0.831915"/>
<rect x="1032.35" y="652.416" width="15.8064" height="39.516" fill="#AF8127" stroke="#974D58" stroke-width="0.831915"/>
<rect x="1065.63" y="652.416" width="15.8064" height="39.516" fill="#AF8127" stroke="#974D58" stroke-width="0.831915"/>
<rect x="1098.91" y="652.416" width="15.8064" height="39.516" fill="#AF8127" stroke="#974D58" stroke-width="0.831915"/>
<rect x="1132.18" y="652.416" width="15.8064" height="39.516" fill="#AF8127" stroke="#974D58" stroke-width="0.831915"/>
<rect x="1165.46" y="652.416" width="15.8064" height="39.516" fill="#AF8127" stroke="#974D58" stroke-width="0.831915"/>
<rect x="1198.74" y="652.416" width="15.8064" height="39.516" fill="#AF8127" stroke="#974D58" stroke-width="0.831915"/>
<rect x="1232.01" y="652.416" width="15.8064" height="39.516" fill="#AF8127" stroke="#974D58" stroke-width="0.831915"/>
<rect x="1265.29" y="652.416" width="15.8064" height="39.516" fill="#AF8127" stroke="#974D58" stroke-width="0.831915"/>
<rect x="1298.56" y="652.416" width="15.8064" height="39.516" fill="#AF8127" stroke="#974D58" stroke-width="0.831915"/>
<rect x="1331.84" y="652.416" width="15.8064" height="39.516" fill="#AF8127" stroke="#974D58" stroke-width="0.831915"/>
<rect x="1365.12" y="652.416" width="15.8064" height="39.516" fill="#AF8127" stroke="#974D58" stroke-width="0.831915"/>
<rect x="1398.39" y="652.416" width="15.8064" height="39.516" fill="#AF8127" stroke="#974D58" stroke-width="0.831915"/>
<rect x="1431.67" y="652.416" width="15.8064" height="39.516" fill="#AF8127" stroke="#974D58" stroke-width="0.831915"/>
<rect x="1464.95" y="652.416" width="15.8064" height="39.516" fill="#AF8127" stroke="#974D58" stroke-width="0.831915"/>
<rect x="1498.22" y="652.416" width="15.8064" height="39.516" fill="#AF8127" stroke="#974D58" stroke-width="0.831915"/>
<rect x="1531.5" y="652.416" width="15.8064" height="39.516" fill="#AF8127" stroke="#974D58" stroke-width="0.831915"/>
<rect x="1564.78" y="652.416" width="15.8064" height="39.516" fill="#AF8127" stroke="#974D58" stroke-width="0.831915"/>
<rect x="1743.42" y="651.416" width="15.8064" height="39.516" fill="#AF8127" stroke="#974D58" stroke-width="0.831915"/>
<rect x="1776.69" y="651.416" width="15.8064" height="39.516" fill="#AF8127" stroke="#974D58" stroke-width="0.831915"/>
<rect x="1809.97" y="651.416" width="15.8064" height="39.516" fill="#AF8127" stroke="#974D58" stroke-width="0.831915"/>
<rect x="1843.25" y="651.416" width="15.8064" height="39.516" fill="#AF8127" stroke="#974D58" stroke-width="0.831915"/>
<rect x="1876.52" y="651.416" width="15.8064" height="39.516" fill="#AF8127" stroke="#974D58" stroke-width="0.831915"/>
<rect x="1909.42" y="651.416" width="10.1681" height="39.1681" fill="#AF8127" stroke="#974D58" stroke-width="0.831915"/>
<rect x="0.5" y="644.5" width="1919" height="7" fill="#AF8127" stroke="#974D58"/>
<rect x="0.5" y="690.5" width="1919" height="7" fill="#AF8127" stroke="#974D58"/>
</svg>
