<svg width="1295" height="782" viewBox="0 0 1295 782" fill="none" xmlns="http://www.w3.org/2000/svg">
<rect x="1.5" y="1.5" width="1292" height="778.84" rx="28.5" fill="white" stroke="black" stroke-width="3"/>
<rect y="497.283" width="1295" height="149.185" fill="black"/>
<path d="M434.612 170.805C434.612 171.61 434.754 172.225 435.038 172.651C435.322 173.077 435.701 173.408 436.174 173.645C436.695 173.834 437.263 173.953 437.878 174C438.494 174 439.133 174 439.795 174C440.363 174 441.026 174 441.783 174C442.541 174.047 443.227 173.953 443.842 173.716H467.485C468.006 173.905 468.479 174 468.905 174C469.379 174 469.876 174 470.396 174C472.1 174 473.473 173.527 474.514 172.58C475.556 171.633 476.076 170.284 476.076 168.533C476.076 168.012 476.053 167.586 476.005 167.255C476.005 166.876 475.887 166.427 475.65 165.906V156.179C475.65 155.28 475.343 154.38 474.727 153.481C474.112 152.534 473.307 152.061 472.313 152.061C471.509 152.061 470.822 152.369 470.254 152.984C469.686 153.599 469.402 154.309 469.402 155.114V162.072C469.402 162.214 469.331 162.451 469.189 162.782C469.047 163.066 468.929 163.279 468.834 163.421C468.219 164.557 467.58 165.314 466.917 165.693C466.255 166.024 465.521 166.214 464.716 166.261C463.959 166.308 463.107 166.332 462.16 166.332C461.261 166.285 460.243 166.427 459.107 166.758H451.936L451.368 166.19V150.641C451.368 150.641 451.392 150.57 451.439 150.428C451.487 150.286 451.558 150.168 451.652 150.073C451.652 149.884 451.747 149.789 451.936 149.789H454.989C455.273 149.789 455.605 149.978 455.983 150.357C456.409 150.688 456.812 151.091 457.19 151.564C457.616 151.99 457.971 152.44 458.255 152.913C458.539 153.386 458.729 153.741 458.823 153.978C458.823 154.546 458.823 155.28 458.823 156.179C458.823 157.078 458.918 157.954 459.107 158.806C459.297 159.611 459.628 160.321 460.101 160.936C460.575 161.504 461.285 161.788 462.231 161.788C463.699 161.788 464.432 161.031 464.432 159.516V136.228C464.432 135.423 464.196 134.761 463.722 134.24C463.249 133.672 462.634 133.388 461.876 133.388C460.93 133.388 460.291 133.696 459.959 134.311C459.628 134.926 459.415 135.66 459.32 136.512C459.226 137.364 459.155 138.24 459.107 139.139C459.06 139.991 458.871 140.677 458.539 141.198C458.161 141.813 457.64 142.239 456.977 142.476C456.362 142.713 455.794 143.02 455.273 143.399H451.652L451.368 143.115C451.368 143.115 451.345 142.997 451.297 142.76C451.25 142.523 451.179 142.263 451.084 141.979C451.037 141.648 450.99 141.316 450.942 140.985C450.895 140.606 450.848 140.299 450.8 140.062V139.991V139.849C450.8 139.754 450.848 139.47 450.942 138.997C451.037 138.524 451.084 138.24 451.084 138.145C451.084 137.861 451.084 137.34 451.084 136.583C451.132 135.826 451.179 135.021 451.226 134.169C451.274 133.317 451.297 132.512 451.297 131.755C451.345 130.95 451.368 130.406 451.368 130.122L451.652 129.838H465.213C465.592 129.838 466.042 130.098 466.562 130.619C467.13 131.092 467.533 131.471 467.769 131.755C467.959 132.039 468.195 132.465 468.479 133.033C468.811 133.601 468.976 133.909 468.976 133.956V141.482C468.976 142.239 469.284 142.855 469.899 143.328C470.562 143.801 471.225 144.038 471.887 144.038C472.692 144.038 473.402 143.778 474.017 143.257C474.633 142.736 474.94 142.05 474.94 141.198V126.217C474.94 125.507 474.704 124.75 474.23 123.945C473.757 123.14 473.165 122.691 472.455 122.596C466.681 122.643 460.93 122.62 455.202 122.525C449.475 122.383 443.724 122.312 437.949 122.312C436.719 122.312 435.772 122.714 435.109 123.519C434.447 124.276 434.115 125.223 434.115 126.359C434.115 127.732 434.518 128.702 435.322 129.27C436.127 129.838 437.168 130.122 438.446 130.122C439.251 130.122 440.008 130.075 440.718 129.98C441.476 129.838 442.257 129.767 443.061 129.767C443.251 129.767 443.511 129.767 443.842 129.767C444.174 129.767 444.363 129.791 444.41 129.838L444.978 130.335V132.11C444.978 132.678 444.978 133.364 444.978 134.169C445.026 134.926 444.931 135.613 444.694 136.228L444.836 145.955V147.304L444.978 163.989C444.978 164.273 444.907 164.675 444.765 165.196C444.623 165.669 444.41 166.001 444.126 166.19C443.89 166.19 443.582 166.237 443.203 166.332C442.825 166.379 442.422 166.45 441.996 166.545C441.57 166.592 441.144 166.64 440.718 166.687C440.34 166.734 440.032 166.758 439.795 166.758H439.653C439.559 166.758 439.275 166.734 438.801 166.687C438.375 166.592 438.115 166.521 438.02 166.474H437.594C436.979 166.474 436.482 166.616 436.103 166.9C435.725 167.137 435.417 167.468 435.18 167.894C434.991 168.32 434.849 168.793 434.754 169.314C434.66 169.835 434.612 170.332 434.612 170.805ZM504.07 162.072L506.839 170.947C507.076 171.752 507.597 172.462 508.401 173.077C509.206 173.692 510.034 174 510.886 174C511.833 174 512.685 173.645 513.442 172.935C514.247 172.225 514.649 171.373 514.649 170.379L514.507 147.304V145.955L514.365 130.122L514.649 129.838C515.123 129.838 515.667 129.838 516.282 129.838C516.898 129.838 517.489 129.814 518.057 129.767C518.673 129.672 519.241 129.507 519.761 129.27C520.282 129.033 520.708 128.655 521.039 128.134C521.039 128.039 521.039 127.826 521.039 127.495C521.087 127.164 521.11 126.951 521.11 126.856C521.11 125.341 520.542 124.253 519.406 123.59C518.27 122.88 516.992 122.525 515.572 122.525C515.099 122.525 514.697 122.549 514.365 122.596C514.081 122.643 513.703 122.785 513.229 123.022H502.437C501.775 123.022 501.23 123.282 500.804 123.803C500.378 124.276 500.165 124.797 500.165 125.365C500.165 126.359 500.402 127.14 500.875 127.708C501.349 128.276 501.94 128.726 502.65 129.057C503.408 129.341 504.212 129.53 505.064 129.625C505.916 129.72 506.697 129.791 507.407 129.838L508.117 130.335V150.357C508.212 150.452 508.307 150.688 508.401 151.067C508.496 151.446 508.543 151.682 508.543 151.777C508.543 152.014 508.543 152.416 508.543 152.984C508.543 153.552 508.52 154.144 508.472 154.759C508.472 155.374 508.449 155.966 508.401 156.534C508.401 157.102 508.401 157.504 508.401 157.741C508.354 157.741 508.33 157.788 508.33 157.883C508.33 157.93 508.307 157.93 508.259 157.883C508.212 157.836 508.117 157.717 507.975 157.528C507.833 157.291 507.739 157.126 507.691 157.031C506.65 154.901 505.656 152.653 504.709 150.286C503.81 147.919 502.958 145.718 502.153 143.683C502.153 143.636 502.106 143.517 502.011 143.328C501.964 143.139 501.917 142.949 501.869 142.76C501.822 142.523 501.751 142.31 501.656 142.121C501.609 141.932 501.585 141.813 501.585 141.766C501.538 141.624 501.372 141.269 501.088 140.701C500.804 140.133 500.497 139.518 500.165 138.855C499.881 138.192 499.597 137.577 499.313 137.009C499.029 136.441 498.864 136.086 498.816 135.944C498.722 135.707 498.509 135.139 498.177 134.24C497.846 133.341 497.491 132.37 497.112 131.329C496.781 130.288 496.45 129.341 496.118 128.489C495.787 127.59 495.574 127.022 495.479 126.785C495.195 125.98 494.698 125.176 493.988 124.371C493.326 123.566 492.521 123.164 491.574 123.164H483.551C482.415 123.164 481.469 123.519 480.711 124.229C479.954 124.939 479.575 125.815 479.575 126.856C479.575 127.093 479.599 127.4 479.646 127.779C479.694 128.11 479.765 128.442 479.859 128.773C480.001 129.057 480.167 129.317 480.356 129.554C480.593 129.743 480.901 129.838 481.279 129.838H486.32L486.888 130.335C486.888 135.21 486.983 140.062 487.172 144.89C487.362 149.671 487.456 154.475 487.456 159.303C487.456 160.297 487.385 161.267 487.243 162.214C487.101 163.113 487.078 164.084 487.172 165.125L486.604 165.693C486.415 165.693 486.084 165.717 485.61 165.764C485.184 165.764 484.711 165.788 484.19 165.835C483.717 165.835 483.244 165.859 482.77 165.906C482.344 165.906 482.037 165.906 481.847 165.906C480.995 166.001 480.356 166.474 479.93 167.326C479.552 168.131 479.268 168.864 479.078 169.527V170.237C479.078 171.042 479.339 171.728 479.859 172.296C480.427 172.817 481.09 173.195 481.847 173.432C482.131 173.432 482.605 173.456 483.267 173.503C483.977 173.55 484.711 173.598 485.468 173.645C486.226 173.645 486.936 173.669 487.598 173.716C488.308 173.716 488.805 173.716 489.089 173.716H490.154C491.953 173.716 493.657 173.598 495.266 173.361C496.876 173.124 498.603 173.053 500.449 173.148C501.396 172.911 502.011 172.438 502.295 171.728C502.579 170.971 502.721 170.213 502.721 169.456V168.462L501.585 167.326C501.538 167.279 501.372 167.208 501.088 167.113C500.852 167.018 500.544 166.924 500.165 166.829C499.834 166.687 499.479 166.569 499.1 166.474C498.722 166.332 498.438 166.237 498.248 166.19H497.538C497.112 166.19 496.734 166.308 496.402 166.545C496.118 166.734 495.763 166.829 495.337 166.829C495.006 166.829 494.58 166.64 494.059 166.261C493.539 165.882 493.278 165.504 493.278 165.125V157.883C493.468 157.362 493.562 156.889 493.562 156.463C493.562 155.99 493.562 155.493 493.562 154.972C493.562 154.451 493.562 153.978 493.562 153.552C493.562 153.079 493.468 152.582 493.278 152.061V137.861H493.562C493.562 137.861 493.823 138.476 494.343 139.707C494.911 140.938 495.574 142.405 496.331 144.109C497.136 145.813 497.941 147.588 498.745 149.434C499.55 151.28 500.213 152.795 500.733 153.978C501.349 155.351 501.869 156.723 502.295 158.096C502.769 159.469 503.36 160.794 504.07 162.072ZM528.727 169.598C528.727 170.166 528.988 170.71 529.508 171.231C530.076 171.704 530.739 172.107 531.496 172.438C532.301 172.769 533.082 173.03 533.839 173.219C534.644 173.408 535.307 173.503 535.827 173.503C537.342 173.503 538.786 173.266 540.158 172.793C541.531 172.32 542.975 172.083 544.489 172.083C545.389 172.083 546.241 172.249 547.045 172.58C547.897 172.864 548.773 173.006 549.672 173.006C550.288 173.006 550.879 172.959 551.447 172.864C552.063 172.722 552.607 172.533 553.08 172.296C553.554 172.012 553.932 171.657 554.216 171.231C554.5 170.758 554.642 170.19 554.642 169.527C554.642 168.391 554.311 167.539 553.648 166.971C553.033 166.403 552.252 166.001 551.305 165.764C550.406 165.48 549.436 165.314 548.394 165.267C547.353 165.22 546.454 165.196 545.696 165.196L545.128 164.628L544.773 141.837V140.417L544.631 133.459C544.821 132.796 544.939 132.039 544.986 131.187C545.081 130.335 545.128 129.625 545.128 129.057L545.412 128.773C545.46 128.773 545.625 128.773 545.909 128.773C546.193 128.726 546.383 128.702 546.477 128.702C547.14 128.702 547.826 128.797 548.536 128.986C549.294 129.175 549.98 129.483 550.595 129.909C551.258 130.288 551.779 130.785 552.157 131.4C552.583 131.968 552.796 132.654 552.796 133.459V140.985C552.796 141.837 553.151 142.618 553.861 143.328C554.571 144.038 555.329 144.393 556.133 144.393C557.127 144.393 557.908 143.967 558.476 143.115C559.044 142.263 559.328 141.364 559.328 140.417V126.288C559.328 125.389 558.95 124.537 558.192 123.732C557.482 122.927 556.654 122.525 555.707 122.525H539.874C539.448 122.288 539.093 122.17 538.809 122.17C538.525 122.123 538.194 122.099 537.815 122.099C537.389 122.099 537.034 122.123 536.75 122.17C536.514 122.17 536.159 122.288 535.685 122.525H527.094C526.668 122.525 526.266 122.691 525.887 123.022C525.556 123.353 525.248 123.756 524.964 124.229C524.68 124.655 524.444 125.105 524.254 125.578C524.112 126.051 524.041 126.454 524.041 126.785V140.417C524.041 141.269 524.278 142.145 524.751 143.044C525.225 143.943 525.935 144.393 526.881 144.393C528.065 144.393 528.893 144.085 529.366 143.47C529.84 142.807 530.124 142.003 530.218 141.056C530.313 140.062 530.337 138.973 530.289 137.79C530.289 136.607 530.408 135.471 530.644 134.382C530.881 133.246 531.331 132.228 531.993 131.329C532.703 130.382 533.839 129.72 535.401 129.341C535.496 129.294 535.709 129.27 536.04 129.27C536.419 129.223 536.679 129.199 536.821 129.199C536.916 129.199 537.105 129.223 537.389 129.27C537.673 129.27 537.863 129.294 537.957 129.341L538.241 129.625V164.912L537.389 165.835H530.715C530.289 165.835 529.934 165.977 529.65 166.261C529.414 166.545 529.224 166.9 529.082 167.326C528.94 167.705 528.846 168.107 528.798 168.533C528.751 168.959 528.727 169.314 528.727 169.598ZM562.776 170.805C562.776 171.61 562.918 172.225 563.202 172.651C563.486 173.077 563.864 173.408 564.338 173.645C564.858 173.834 565.426 173.953 566.042 174C566.657 174 567.296 174 567.959 174C568.527 174 569.189 174 569.947 174C570.704 174.047 571.39 173.953 572.006 173.716H595.649C596.169 173.905 596.643 174 597.069 174C597.542 174 598.039 174 598.56 174C600.264 174 601.636 173.527 602.678 172.58C603.719 171.633 604.24 170.284 604.24 168.533C604.24 168.012 604.216 167.586 604.169 167.255C604.169 166.876 604.05 166.427 603.814 165.906V156.179C603.814 155.28 603.506 154.38 602.891 153.481C602.275 152.534 601.471 152.061 600.477 152.061C599.672 152.061 598.986 152.369 598.418 152.984C597.85 153.599 597.566 154.309 597.566 155.114V162.072C597.566 162.214 597.495 162.451 597.353 162.782C597.211 163.066 597.092 163.279 596.998 163.421C596.382 164.557 595.743 165.314 595.081 165.693C594.418 166.024 593.684 166.214 592.88 166.261C592.122 166.308 591.27 166.332 590.324 166.332C589.424 166.285 588.407 166.427 587.271 166.758H580.1L579.532 166.19V150.641C579.532 150.641 579.555 150.57 579.603 150.428C579.65 150.286 579.721 150.168 579.816 150.073C579.816 149.884 579.91 149.789 580.1 149.789H583.153C583.437 149.789 583.768 149.978 584.147 150.357C584.573 150.688 584.975 151.091 585.354 151.564C585.78 151.99 586.135 152.44 586.419 152.913C586.703 153.386 586.892 153.741 586.987 153.978C586.987 154.546 586.987 155.28 586.987 156.179C586.987 157.078 587.081 157.954 587.271 158.806C587.46 159.611 587.791 160.321 588.265 160.936C588.738 161.504 589.448 161.788 590.395 161.788C591.862 161.788 592.596 161.031 592.596 159.516V136.228C592.596 135.423 592.359 134.761 591.886 134.24C591.412 133.672 590.797 133.388 590.04 133.388C589.093 133.388 588.454 133.696 588.123 134.311C587.791 134.926 587.578 135.66 587.484 136.512C587.389 137.364 587.318 138.24 587.271 139.139C587.223 139.991 587.034 140.677 586.703 141.198C586.324 141.813 585.803 142.239 585.141 142.476C584.525 142.713 583.957 143.02 583.437 143.399H579.816L579.532 143.115C579.532 143.115 579.508 142.997 579.461 142.76C579.413 142.523 579.342 142.263 579.248 141.979C579.2 141.648 579.153 141.316 579.106 140.985C579.058 140.606 579.011 140.299 578.964 140.062V139.991V139.849C578.964 139.754 579.011 139.47 579.106 138.997C579.2 138.524 579.248 138.24 579.248 138.145C579.248 137.861 579.248 137.34 579.248 136.583C579.295 135.826 579.342 135.021 579.39 134.169C579.437 133.317 579.461 132.512 579.461 131.755C579.508 130.95 579.532 130.406 579.532 130.122L579.816 129.838H593.377C593.755 129.838 594.205 130.098 594.726 130.619C595.294 131.092 595.696 131.471 595.933 131.755C596.122 132.039 596.359 132.465 596.643 133.033C596.974 133.601 597.14 133.909 597.14 133.956V141.482C597.14 142.239 597.447 142.855 598.063 143.328C598.725 143.801 599.388 144.038 600.051 144.038C600.855 144.038 601.565 143.778 602.181 143.257C602.796 142.736 603.104 142.05 603.104 141.198V126.217C603.104 125.507 602.867 124.75 602.394 123.945C601.92 123.14 601.329 122.691 600.619 122.596C594.844 122.643 589.093 122.62 583.366 122.525C577.638 122.383 571.887 122.312 566.113 122.312C564.882 122.312 563.935 122.714 563.273 123.519C562.61 124.276 562.279 125.223 562.279 126.359C562.279 127.732 562.681 128.702 563.486 129.27C564.29 129.838 565.332 130.122 566.61 130.122C567.414 130.122 568.172 130.075 568.882 129.98C569.639 129.838 570.42 129.767 571.225 129.767C571.414 129.767 571.674 129.767 572.006 129.767C572.337 129.767 572.526 129.791 572.574 129.838L573.142 130.335V132.11C573.142 132.678 573.142 133.364 573.142 134.169C573.189 134.926 573.094 135.613 572.858 136.228L573 145.955V147.304L573.142 163.989C573.142 164.273 573.071 164.675 572.929 165.196C572.787 165.669 572.574 166.001 572.29 166.19C572.053 166.19 571.745 166.237 571.367 166.332C570.988 166.379 570.586 166.45 570.16 166.545C569.734 166.592 569.308 166.64 568.882 166.687C568.503 166.734 568.195 166.758 567.959 166.758H567.817C567.722 166.758 567.438 166.734 566.965 166.687C566.539 166.592 566.278 166.521 566.184 166.474H565.758C565.142 166.474 564.645 166.616 564.267 166.9C563.888 167.137 563.58 167.468 563.344 167.894C563.154 168.32 563.012 168.793 562.918 169.314C562.823 169.835 562.776 170.332 562.776 170.805ZM639.265 170.379C639.455 171.515 639.904 172.32 640.614 172.793C641.372 173.266 642.224 173.574 643.17 173.716C644.117 173.811 645.111 173.858 646.152 173.858C647.194 173.811 648.14 173.858 648.992 174H649.134C650.081 174 650.815 173.621 651.335 172.864C651.856 172.107 652.116 171.326 652.116 170.521C652.116 169.906 652.069 169.48 651.974 169.243C651.88 169.006 651.619 168.557 651.193 167.894C650.862 167.326 650.46 166.924 649.986 166.687C649.513 166.45 649.04 166.261 648.566 166.119C648.093 165.977 647.62 165.811 647.146 165.622C646.673 165.433 646.271 165.078 645.939 164.557C645.561 163.989 645.348 163.255 645.3 162.356C645.3 161.409 645.229 160.652 645.087 160.084C644.709 158.522 644.235 156.842 643.667 155.043C643.147 153.197 642.413 151.54 641.466 150.073V149.434C641.466 148.866 641.608 148.393 641.892 148.014C642.176 147.588 642.531 147.209 642.957 146.878C643.383 146.547 643.809 146.215 644.235 145.884C644.709 145.553 645.087 145.198 645.371 144.819C646.223 143.73 646.768 142.452 647.004 140.985C647.241 139.47 647.359 138.05 647.359 136.725C647.359 133.648 646.744 131.187 645.513 129.341C644.283 127.448 642.673 126.004 640.685 125.01C638.697 124.016 636.449 123.353 633.94 123.022C631.479 122.691 629.018 122.525 626.556 122.525C626.036 122.525 625.562 122.549 625.136 122.596C624.71 122.596 624.237 122.738 623.716 123.022H612.853C611.954 123.022 611.315 123.401 610.936 124.158C610.558 124.868 610.368 125.602 610.368 126.359C610.368 126.832 610.439 127.4 610.581 128.063C610.723 128.678 611.102 129.081 611.717 129.27L616.19 130.335L616.758 130.903L617.184 147.588V149.008L617.326 164.841C617.326 164.936 617.255 165.078 617.113 165.267C616.971 165.456 616.853 165.598 616.758 165.693C616.048 165.693 615.291 165.717 614.486 165.764C613.729 165.811 613.019 165.953 612.356 166.19C611.694 166.427 611.149 166.805 610.723 167.326C610.297 167.799 610.084 168.486 610.084 169.385C610.084 169.811 610.155 170.261 610.297 170.734C610.487 171.207 610.723 171.657 611.007 172.083C611.339 172.509 611.694 172.864 612.072 173.148C612.498 173.385 612.948 173.479 613.421 173.432C613.847 173.432 614.581 173.456 615.622 173.503C616.664 173.55 617.776 173.598 618.959 173.645C620.143 173.645 621.255 173.669 622.296 173.716C623.385 173.716 624.142 173.716 624.568 173.716H625.349C625.917 173.716 626.533 173.692 627.195 173.645C627.905 173.55 628.544 173.385 629.112 173.148C629.728 172.911 630.225 172.58 630.603 172.154C631.029 171.728 631.242 171.136 631.242 170.379C631.242 169.196 630.816 168.344 629.964 167.823C629.112 167.255 628.189 166.829 627.195 166.545C626.201 166.261 625.278 166.024 624.426 165.835C623.574 165.598 623.148 165.267 623.148 164.841V151.493L623.432 151.209C623.48 151.162 623.787 151.114 624.355 151.067C624.923 150.972 625.349 150.925 625.633 150.925H628.26C628.876 150.925 629.396 150.925 629.822 150.925C630.296 150.925 630.745 150.949 631.171 150.996C631.645 150.996 632.118 151.043 632.591 151.138C633.065 151.233 633.633 151.351 634.295 151.493C634.816 151.872 635.218 152.392 635.502 153.055C635.834 153.718 636.165 154.309 636.496 154.83C637.159 155.966 637.68 157.173 638.058 158.451C638.484 159.729 638.792 161.054 638.981 162.427C639.171 163.752 639.265 165.101 639.265 166.474C639.313 167.799 639.313 169.101 639.265 170.379ZM624.781 129.838C625.018 129.791 625.444 129.767 626.059 129.767C626.675 129.767 627.101 129.767 627.337 129.767C629.325 129.767 631.313 129.909 633.301 130.193C635.289 130.43 637.183 130.95 638.981 131.755C639.928 132.465 640.543 133.364 640.827 134.453C641.111 135.494 641.253 136.559 641.253 137.648C641.253 139.494 640.685 140.985 639.549 142.121C638.461 143.21 637.064 144.014 635.36 144.535H633.017C632.26 144.535 631.55 144.488 630.887 144.393C630.225 144.298 629.538 144.251 628.828 144.251C628.26 144.251 627.692 144.298 627.124 144.393C626.556 144.488 625.965 144.535 625.349 144.535H623.716C623.622 144.393 623.503 144.156 623.361 143.825C623.219 143.494 623.148 143.257 623.148 143.115V130.903C623.148 130.524 623.361 130.264 623.787 130.122C624.213 129.98 624.545 129.885 624.781 129.838ZM696.44 166.971C697.955 169.527 700.014 171.373 702.617 172.509C705.221 173.645 707.942 174.213 710.782 174.213C712.676 174.213 714.474 173.692 716.178 172.651C717.882 171.61 719.397 170.308 720.722 168.746C722.048 167.137 723.089 165.385 723.846 163.492C724.651 161.551 725.053 159.705 725.053 157.954C725.053 157.481 725.03 156.984 724.982 156.463C724.982 155.942 724.888 155.469 724.698 155.043C724.509 154.617 724.225 154.286 723.846 154.049C723.515 153.765 723.042 153.623 722.426 153.623C721.432 153.623 720.651 154.096 720.083 155.043C719.61 156.368 719.089 157.765 718.521 159.232C718.001 160.652 717.338 161.977 716.533 163.208C715.729 164.391 714.735 165.385 713.551 166.19C712.368 166.947 710.924 167.326 709.22 167.326C709.031 167.326 708.747 167.326 708.368 167.326C708.037 167.279 707.848 167.255 707.8 167.255C706.238 166.876 704.913 166.237 703.824 165.338C702.783 164.391 701.931 163.326 701.268 162.143C700.606 160.912 700.085 159.587 699.706 158.167C699.375 156.747 699.115 155.327 698.925 153.907C698.878 153.812 698.831 153.576 698.783 153.197C698.736 152.818 698.689 152.582 698.641 152.487V143.612C698.641 142.334 698.807 141.056 699.138 139.778C699.47 138.453 699.943 137.198 700.558 136.015C701.174 134.784 701.907 133.648 702.759 132.607C703.611 131.566 704.558 130.69 705.599 129.98C705.694 129.933 705.789 129.885 705.883 129.838C706.025 129.743 706.12 129.696 706.167 129.696H710.853C710.901 129.696 711.019 129.743 711.208 129.838C711.445 129.885 711.611 129.933 711.705 129.98C712.699 130.453 713.528 130.927 714.19 131.4C714.853 131.873 715.397 132.418 715.823 133.033C716.297 133.601 716.675 134.264 716.959 135.021C717.243 135.778 717.527 136.701 717.811 137.79C717.953 138.216 718.048 138.831 718.095 139.636C718.19 140.393 718.332 141.151 718.521 141.908C718.758 142.665 719.089 143.328 719.515 143.896C719.941 144.464 720.533 144.748 721.29 144.748C721.716 144.748 722.119 144.582 722.497 144.251C722.923 143.92 723.278 143.517 723.562 143.044C723.846 142.571 724.059 142.097 724.201 141.624C724.391 141.103 724.485 140.654 724.485 140.275V131.684C724.485 131.542 724.438 131.258 724.343 130.832C724.296 130.406 724.249 130.122 724.201 129.98V129.838C724.201 129.317 724.249 128.82 724.343 128.347C724.485 127.826 724.556 127.306 724.556 126.785C724.556 126.312 724.509 125.838 724.414 125.365C724.367 124.844 724.225 124.371 723.988 123.945C723.799 123.519 723.515 123.164 723.136 122.88C722.758 122.596 722.284 122.454 721.716 122.454C721.148 122.454 720.675 122.62 720.296 122.951C719.918 123.282 719.586 123.637 719.302 124.016C719.066 124.395 718.829 124.75 718.592 125.081C718.356 125.412 718.095 125.578 717.811 125.578H717.527C715.871 124.631 714.356 123.874 712.983 123.306C711.611 122.738 710.025 122.454 708.226 122.454C707.753 122.454 707.232 122.454 706.664 122.454C706.096 122.407 705.552 122.501 705.031 122.738C704.842 122.833 704.534 122.998 704.108 123.235C703.682 123.424 703.233 123.637 702.759 123.874C702.333 124.111 701.907 124.347 701.481 124.584C701.055 124.773 700.748 124.915 700.558 125.01C700.227 125.294 699.801 125.744 699.28 126.359C698.76 126.927 698.239 127.542 697.718 128.205C697.198 128.868 696.724 129.53 696.298 130.193C695.92 130.808 695.683 131.305 695.588 131.684L692.535 141.695C692.488 142.263 692.417 142.902 692.322 143.612C692.228 144.322 692.109 144.985 691.967 145.6V153.055C692.299 154.286 692.488 155.493 692.535 156.676C692.583 157.859 692.867 159.066 693.387 160.297C693.482 160.581 693.671 161.031 693.955 161.646C694.239 162.261 694.523 162.924 694.807 163.634C695.139 164.344 695.446 165.03 695.73 165.693C696.062 166.308 696.298 166.734 696.44 166.971ZM746.018 120.821C743.652 120.821 741.569 121.318 739.77 122.312C737.972 123.259 736.41 124.513 735.084 126.075C733.759 127.637 732.647 129.412 731.747 131.4C730.848 133.341 730.091 135.305 729.475 137.293C729.381 137.624 729.239 138.098 729.049 138.713C728.907 139.281 728.765 139.873 728.623 140.488C728.481 141.056 728.339 141.577 728.197 142.05C728.103 142.523 728.055 142.784 728.055 142.831V154.262C728.055 154.309 728.079 154.475 728.126 154.759C728.221 155.043 728.292 155.374 728.339 155.753C728.434 156.084 728.529 156.439 728.623 156.818C728.718 157.149 728.813 157.41 728.907 157.599C729.191 158.498 729.594 159.54 730.114 160.723C730.635 161.906 731.227 163.113 731.889 164.344C732.599 165.527 733.357 166.64 734.161 167.681C734.966 168.722 735.794 169.527 736.646 170.095C736.741 170.19 736.978 170.332 737.356 170.521C737.782 170.71 738.208 170.923 738.634 171.16C739.06 171.349 739.463 171.539 739.841 171.728C740.22 171.917 740.457 172.036 740.551 172.083C741.593 172.604 742.539 173.053 743.391 173.432C744.291 173.811 745.356 174 746.586 174C747.296 174 747.864 173.953 748.29 173.858C748.716 173.716 749.095 173.55 749.426 173.361C749.805 173.172 750.184 172.982 750.562 172.793C750.941 172.556 751.414 172.32 751.982 172.083C754.538 171.089 756.645 169.669 758.301 167.823C760.005 165.93 761.354 163.823 762.348 161.504C763.342 159.137 764.029 156.652 764.407 154.049C764.833 151.398 765.046 148.819 765.046 146.31C765.046 143.754 764.715 141.269 764.052 138.855C763.39 136.441 762.514 134.051 761.425 131.684C760.715 130.974 760.124 130.193 759.65 129.341C759.177 128.442 758.656 127.566 758.088 126.714C757.804 126.288 757.402 125.933 756.881 125.649C756.408 125.365 755.982 125.081 755.603 124.797C754.799 124.182 754.018 123.637 753.26 123.164C752.55 122.643 751.817 122.217 751.059 121.886C750.302 121.555 749.521 121.294 748.716 121.105C747.912 120.916 747.012 120.821 746.018 120.821ZM734.161 147.304C734.161 145.742 734.398 143.825 734.871 141.553C735.392 139.281 736.149 137.104 737.143 135.021C738.137 132.938 739.392 131.163 740.906 129.696C742.421 128.229 744.22 127.495 746.302 127.495C747.628 127.495 748.693 127.826 749.497 128.489C750.302 129.104 751.225 129.814 752.266 130.619C753.355 131.471 754.231 132.37 754.893 133.317C755.556 134.216 756.1 135.163 756.526 136.157C756.952 137.151 757.284 138.216 757.52 139.352C757.804 140.441 758.088 141.6 758.372 142.831V151.99C758.372 152.795 758.23 153.434 757.946 153.907C757.71 154.38 757.473 154.948 757.236 155.611C757 156.463 756.668 157.481 756.242 158.664C755.816 159.8 755.272 160.889 754.609 161.93C753.947 162.924 753.166 163.8 752.266 164.557C751.367 165.267 750.349 165.622 749.213 165.622H742.255C741.735 165.622 741.143 165.314 740.48 164.699C739.818 164.084 739.155 163.374 738.492 162.569C737.877 161.764 737.309 160.936 736.788 160.084C736.315 159.232 736.007 158.593 735.865 158.167C735.297 156.463 734.871 154.688 734.587 152.842C734.303 150.949 734.161 149.103 734.161 147.304ZM768.026 169.172C768.026 170.071 768.215 170.829 768.594 171.444C769.02 172.059 769.541 172.556 770.156 172.935C770.819 173.314 771.529 173.598 772.286 173.787C773.091 173.929 773.872 174 774.629 174H775.836C775.931 174 776.167 173.953 776.546 173.858C776.972 173.763 777.398 173.669 777.824 173.574C778.297 173.479 778.747 173.385 779.173 173.29C779.599 173.195 779.859 173.148 779.954 173.148C780.096 173.148 780.404 173.148 780.877 173.148C781.35 173.101 781.871 173.077 782.439 173.077C783.054 173.03 783.646 172.982 784.214 172.935C784.829 172.888 785.279 172.864 785.563 172.864C787.409 172.817 789.042 172.793 790.462 172.793C791.929 172.746 793.302 172.604 794.58 172.367C795.905 172.083 797.183 171.657 798.414 171.089C799.692 170.474 801.041 169.598 802.461 168.462C802.65 168.32 802.982 168.012 803.455 167.539C803.976 167.018 804.307 166.663 804.449 166.474C806.295 163.019 807.597 159.445 808.354 155.753C809.111 152.061 809.49 148.251 809.49 144.322C809.49 142.713 809.277 140.938 808.851 138.997C808.472 137.056 807.881 135.187 807.076 133.388C806.271 131.542 805.254 129.885 804.023 128.418C802.792 126.903 801.349 125.791 799.692 125.081C798.319 124.513 796.923 124.111 795.503 123.874C794.13 123.59 792.758 123.164 791.385 122.596H781.658C781.043 122.833 780.356 122.951 779.599 122.951C778.842 122.904 778.179 122.88 777.611 122.88C776.664 122.88 775.765 122.833 774.913 122.738C774.108 122.643 773.256 122.596 772.357 122.596C771.079 122.596 770.038 122.88 769.233 123.448C768.428 124.016 768.026 124.986 768.026 126.359C768.026 127.353 768.357 128.229 769.02 128.986C769.683 129.743 770.558 130.122 771.647 130.122H777.469C777.658 130.122 777.848 130.217 778.037 130.406C778.226 130.406 778.321 130.501 778.321 130.69L778.179 142.618V143.967V156.463V157.883L778.321 165.693L777.753 166.19C777.753 166.237 777.611 166.261 777.327 166.261C777.043 166.261 776.806 166.261 776.617 166.261C775.812 166.261 775.055 166.214 774.345 166.119C773.635 165.977 772.878 165.906 772.073 165.906C770.89 165.906 769.919 166.119 769.162 166.545C768.405 166.924 768.026 167.799 768.026 169.172ZM784.711 165.125L784.853 142.902L784.924 141.482V130.406L785.279 129.838C785.279 129.838 785.445 129.838 785.776 129.838C786.107 129.791 786.368 129.767 786.557 129.767C789.586 129.767 792.142 130.051 794.225 130.619C796.355 131.14 798.083 132.015 799.408 133.246C800.781 134.477 801.775 136.133 802.39 138.216C803.005 140.251 803.313 142.784 803.313 145.813C803.313 147.328 803.242 149.055 803.1 150.996C803.005 152.937 802.698 154.854 802.177 156.747C801.704 158.593 800.97 160.297 799.976 161.859C799.029 163.374 797.728 164.462 796.071 165.125C794.746 165.646 793.302 165.977 791.74 166.119C790.225 166.214 788.758 166.261 787.338 166.261C787.196 166.261 786.983 166.237 786.699 166.19C786.415 166.143 786.131 166.072 785.847 165.977C785.563 165.882 785.303 165.764 785.066 165.622C784.829 165.48 784.711 165.314 784.711 165.125ZM815.774 170.805C815.774 171.61 815.916 172.225 816.2 172.651C816.484 173.077 816.863 173.408 817.336 173.645C817.857 173.834 818.425 173.953 819.04 174C819.656 174 820.295 174 820.957 174C821.525 174 822.188 174 822.945 174C823.703 174.047 824.389 173.953 825.004 173.716H848.647C849.168 173.905 849.641 174 850.067 174C850.541 174 851.038 174 851.558 174C853.262 174 854.635 173.527 855.676 172.58C856.718 171.633 857.238 170.284 857.238 168.533C857.238 168.012 857.215 167.586 857.167 167.255C857.167 166.876 857.049 166.427 856.812 165.906V156.179C856.812 155.28 856.505 154.38 855.889 153.481C855.274 152.534 854.469 152.061 853.475 152.061C852.671 152.061 851.984 152.369 851.416 152.984C850.848 153.599 850.564 154.309 850.564 155.114V162.072C850.564 162.214 850.493 162.451 850.351 162.782C850.209 163.066 850.091 163.279 849.996 163.421C849.381 164.557 848.742 165.314 848.079 165.693C847.417 166.024 846.683 166.214 845.878 166.261C845.121 166.308 844.269 166.332 843.322 166.332C842.423 166.285 841.405 166.427 840.269 166.758H833.098L832.53 166.19V150.641C832.53 150.641 832.554 150.57 832.601 150.428C832.649 150.286 832.72 150.168 832.814 150.073C832.814 149.884 832.909 149.789 833.098 149.789H836.151C836.435 149.789 836.767 149.978 837.145 150.357C837.571 150.688 837.974 151.091 838.352 151.564C838.778 151.99 839.133 152.44 839.417 152.913C839.701 153.386 839.891 153.741 839.985 153.978C839.985 154.546 839.985 155.28 839.985 156.179C839.985 157.078 840.08 157.954 840.269 158.806C840.459 159.611 840.79 160.321 841.263 160.936C841.737 161.504 842.447 161.788 843.393 161.788C844.861 161.788 845.594 161.031 845.594 159.516V136.228C845.594 135.423 845.358 134.761 844.884 134.24C844.411 133.672 843.796 133.388 843.038 133.388C842.092 133.388 841.453 133.696 841.121 134.311C840.79 134.926 840.577 135.66 840.482 136.512C840.388 137.364 840.317 138.24 840.269 139.139C840.222 139.991 840.033 140.677 839.701 141.198C839.323 141.813 838.802 142.239 838.139 142.476C837.524 142.713 836.956 143.02 836.435 143.399H832.814L832.53 143.115C832.53 143.115 832.507 142.997 832.459 142.76C832.412 142.523 832.341 142.263 832.246 141.979C832.199 141.648 832.152 141.316 832.104 140.985C832.057 140.606 832.01 140.299 831.962 140.062V139.991V139.849C831.962 139.754 832.01 139.47 832.104 138.997C832.199 138.524 832.246 138.24 832.246 138.145C832.246 137.861 832.246 137.34 832.246 136.583C832.294 135.826 832.341 135.021 832.388 134.169C832.436 133.317 832.459 132.512 832.459 131.755C832.507 130.95 832.53 130.406 832.53 130.122L832.814 129.838H846.375C846.754 129.838 847.204 130.098 847.724 130.619C848.292 131.092 848.695 131.471 848.931 131.755C849.121 132.039 849.357 132.465 849.641 133.033C849.973 133.601 850.138 133.909 850.138 133.956V141.482C850.138 142.239 850.446 142.855 851.061 143.328C851.724 143.801 852.387 144.038 853.049 144.038C853.854 144.038 854.564 143.778 855.179 143.257C855.795 142.736 856.102 142.05 856.102 141.198V126.217C856.102 125.507 855.866 124.75 855.392 123.945C854.919 123.14 854.327 122.691 853.617 122.596C847.843 122.643 842.092 122.62 836.364 122.525C830.637 122.383 824.886 122.312 819.111 122.312C817.881 122.312 816.934 122.714 816.271 123.519C815.609 124.276 815.277 125.223 815.277 126.359C815.277 127.732 815.68 128.702 816.484 129.27C817.289 129.838 818.33 130.122 819.608 130.122C820.413 130.122 821.17 130.075 821.88 129.98C822.638 129.838 823.419 129.767 824.223 129.767C824.413 129.767 824.673 129.767 825.004 129.767C825.336 129.767 825.525 129.791 825.572 129.838L826.14 130.335V132.11C826.14 132.678 826.14 133.364 826.14 134.169C826.188 134.926 826.093 135.613 825.856 136.228L825.998 145.955V147.304L826.14 163.989C826.14 164.273 826.069 164.675 825.927 165.196C825.785 165.669 825.572 166.001 825.288 166.19C825.052 166.19 824.744 166.237 824.365 166.332C823.987 166.379 823.584 166.45 823.158 166.545C822.732 166.592 822.306 166.64 821.88 166.687C821.502 166.734 821.194 166.758 820.957 166.758H820.815C820.721 166.758 820.437 166.734 819.963 166.687C819.537 166.592 819.277 166.521 819.182 166.474H818.756C818.141 166.474 817.644 166.616 817.265 166.9C816.887 167.137 816.579 167.468 816.342 167.894C816.153 168.32 816.011 168.793 815.916 169.314C815.822 169.835 815.774 170.332 815.774 170.805ZM860.24 168.817C860.24 170.379 860.666 171.681 861.518 172.722C862.417 173.716 863.695 174.213 865.352 174.213C867.103 174.213 868.429 173.645 869.328 172.509C870.275 171.326 870.748 169.906 870.748 168.249C870.748 166.592 870.322 165.243 869.47 164.202C868.618 163.113 867.316 162.569 865.565 162.569H864.642C862.985 163.09 861.826 163.847 861.163 164.841C860.548 165.835 860.24 167.16 860.24 168.817ZM860.24 142.263C860.24 143.825 860.666 145.127 861.518 146.168C862.417 147.162 863.695 147.659 865.352 147.659C867.103 147.659 868.429 147.091 869.328 145.955C870.275 144.772 870.748 143.352 870.748 141.695C870.748 140.038 870.322 138.689 869.47 137.648C868.618 136.559 867.316 136.015 865.565 136.015H864.642C862.985 136.536 861.826 137.293 861.163 138.287C860.548 139.281 860.24 140.606 860.24 142.263Z" fill="black"/>
</svg>
