<svg width="400" height="770" viewBox="0 0 400 770" fill="none" xmlns="http://www.w3.org/2000/svg">
<mask id="path-1-inside-1_70_468" fill="white">
<path d="M400 0H0V770H400V0Z"/>
</mask>
<path d="M400 0H0V770H400V0Z" fill="#601822"/>
<path d="M400 0V-2H402V0H400ZM0 0H-2V-2H0V0ZM400 2H0V-2H400V2ZM2 0V770H-2V0H2ZM398 770V0H402V770H398Z" fill="black" mask="url(#path-1-inside-1_70_468)"/>
<path d="M303.439 391.119L358.453 392.689L358.453 380.725L303.468 383.084L303.439 391.119Z" fill="#D9AC55" stroke="black"/>
<path d="M296.5 387C296.5 390.558 299.601 393.5 303.5 393.5C307.399 393.5 310.5 390.558 310.5 387C310.5 383.442 307.399 380.5 303.5 380.5C299.601 380.5 296.5 383.442 296.5 387Z" fill="#D9AC55" stroke="black"/>
<path d="M351.5 387C351.5 393.332 356.853 398.5 363.5 398.5C370.147 398.5 375.5 393.332 375.5 387C375.5 380.668 370.147 375.5 363.5 375.5C356.853 375.5 351.5 380.668 351.5 387Z" fill="#D9AC55" stroke="black"/>
<path d="M308.509 383.376L354.409 381.404L354.495 392.087L307.925 390.747L308.509 383.376Z" fill="#D9AC55"/>
<path d="M210.4 194.5C210.4 200.029 205.939 204.5 200.45 204.5C194.961 204.5 190.5 200.029 190.5 194.5C190.5 188.971 194.961 184.5 200.45 184.5C205.939 184.5 210.4 188.971 210.4 194.5Z" fill="#686161" stroke="black" stroke-width="3"/>
</svg>
