<svg width="335" height="335" viewBox="0 0 335 335" fill="none" xmlns="http://www.w3.org/2000/svg">
<circle cx="167.27" cy="167.27" r="162.572" fill="#F5BC4D" stroke="black" stroke-width="9.39624"/>
<path d="M220.685 74.6184L166.071 106.15L166.071 43.0869L220.685 74.6184Z" fill="#93702D"/>
<path d="M79.7372 226.716C68.9613 210.795 62.7157 192.244 61.6686 173.047C60.6214 153.85 64.812 134.73 73.7922 117.731C82.7723 100.732 96.2043 86.4932 112.652 76.5383C129.099 66.5833 147.943 61.2863 167.168 61.2137L167.27 88.2667C152.949 88.3207 138.912 92.2666 126.66 99.6822C114.408 107.098 104.402 117.704 97.7126 130.367C91.0231 143.03 87.9015 157.273 88.6815 171.573C89.4616 185.873 94.114 199.692 102.141 211.552L79.7372 226.716Z" fill="#93702D"/>
<path d="M50.5972 173.493C51.108 173.512 51.502 173.437 51.7794 173.267C52.0567 173.097 52.2763 172.865 52.4381 172.57C52.571 172.245 52.66 171.887 52.7051 171.497C52.7201 171.107 52.7357 170.701 52.7519 170.281C52.7658 169.92 52.782 169.499 52.8005 169.019C52.849 168.539 52.8057 168.101 52.6705 167.705L53.2481 152.697C53.381 152.371 53.4526 152.073 53.463 151.802C53.4746 151.502 53.4867 151.187 53.4994 150.856C53.5411 149.774 53.2741 148.891 52.6987 148.207C52.1232 147.523 51.2796 147.16 50.1679 147.117C49.8374 147.104 49.5664 147.109 49.355 147.131C49.1146 147.122 48.8263 147.186 48.49 147.323L42.3156 147.086C41.7447 147.064 41.1663 147.237 40.5804 147.606C39.9645 147.973 39.6444 148.472 39.6201 149.103C39.6004 149.614 39.779 150.057 40.1557 150.433C40.5324 150.808 40.9761 151.006 41.4869 151.026L45.9036 151.196C45.9938 151.199 46.1423 151.25 46.3491 151.348C46.5259 151.445 46.6582 151.526 46.7461 151.589C47.4521 152.007 47.9173 152.432 48.1414 152.861C48.3356 153.29 48.4378 153.761 48.4482 154.272C48.4598 154.754 48.454 155.296 48.4308 155.897C48.3788 156.466 48.4441 157.116 48.6267 157.845L48.4515 162.397L48.0771 162.744L38.2071 162.364C38.2071 162.364 38.1626 162.347 38.0736 162.313C37.9846 162.28 37.9112 162.232 37.8534 162.17C37.7333 162.165 37.6755 162.103 37.6801 161.982L37.7547 160.044C37.7616 159.864 37.8899 159.658 38.1395 159.427C38.3602 159.165 38.6255 158.919 38.9352 158.691C39.216 158.431 39.5101 158.216 39.8175 158.048C40.1249 157.879 40.3549 157.767 40.5074 157.713C40.8679 157.727 41.3336 157.745 41.9045 157.767C42.4754 157.789 43.0335 157.75 43.579 157.651C44.0944 157.55 44.5532 157.357 44.9553 157.072C45.3274 156.785 45.5251 156.341 45.5482 155.741C45.584 154.809 45.1212 154.325 44.1598 154.288L29.3773 153.719C28.8665 153.699 28.4401 153.833 28.098 154.121C27.7259 154.408 27.5306 154.791 27.5121 155.272C27.489 155.873 27.6686 156.286 28.0511 156.512C28.4336 156.737 28.8942 156.89 29.4327 156.971C29.9712 157.052 30.5253 157.118 31.095 157.17C31.6347 157.221 32.0657 157.358 32.3881 157.581C32.7695 157.837 33.0271 158.177 33.1612 158.604C33.2964 159 33.4778 159.368 33.7055 159.708L33.617 162.007L33.4298 162.18C33.4298 162.18 33.3541 162.192 33.2027 162.216C33.0513 162.241 32.8843 162.279 32.7017 162.332C32.4903 162.354 32.2788 162.376 32.0673 162.398C31.8258 162.419 31.6293 162.442 31.478 162.466L31.4329 162.464L31.3428 162.461C31.2827 162.458 31.1035 162.421 30.8054 162.35C30.5073 162.278 30.3281 162.241 30.268 162.239C30.0878 162.232 29.7573 162.219 29.2765 162.201C28.797 162.152 28.2873 162.102 27.7477 162.052C27.208 162.001 26.6978 161.966 26.2171 161.947C25.7075 161.898 25.3625 161.869 25.1822 161.863L25.0089 161.675L25.3402 153.067C25.3494 152.827 25.5257 152.548 25.8689 152.23C26.1832 151.881 26.4334 151.635 26.6195 151.492C26.8044 151.378 27.0806 151.238 27.448 151.072C27.8167 150.876 28.016 150.778 28.0461 150.779L32.8233 150.963C33.3041 150.982 33.7022 150.801 34.0177 150.422C34.3343 150.013 34.5007 149.598 34.5169 149.178C34.5366 148.667 34.3887 148.21 34.0732 147.807C33.7577 147.403 33.3296 147.191 32.7888 147.17L23.2793 146.804C22.8286 146.787 22.3421 146.919 21.8198 147.2C21.2974 147.48 20.9975 147.845 20.9201 148.293C20.8091 151.96 20.6536 155.61 20.4536 159.243C20.2235 162.875 20.0379 166.524 19.8969 170.19C19.8668 170.971 20.0991 171.582 20.5937 172.022C21.0582 172.461 21.651 172.694 22.3721 172.722C23.2435 172.756 23.8692 172.524 24.2494 172.027C24.6296 171.53 24.8353 170.876 24.8666 170.065C24.8862 169.554 24.8747 169.072 24.8319 168.619C24.7603 168.135 24.7343 167.638 24.754 167.127C24.7586 167.007 24.7649 166.841 24.773 166.631C24.7811 166.421 24.8008 166.301 24.832 166.272L25.1613 165.924L26.2881 165.967C26.6486 165.981 27.0843 165.998 27.595 166.018C28.0769 166.006 28.5103 166.083 28.8951 166.248L35.073 166.396L35.9293 166.429L46.5238 166.746C46.7041 166.753 46.9578 166.808 47.2848 166.911C47.5818 167.012 47.7869 167.156 47.9002 167.341C47.8944 167.491 47.9169 167.687 47.9677 167.93C47.9885 168.171 48.0238 168.429 48.0735 168.701C48.0931 168.973 48.1127 169.244 48.1324 169.516C48.1532 169.758 48.1607 169.953 48.1549 170.104L48.1514 170.194C48.1491 170.254 48.1272 170.434 48.0856 170.733C48.0151 171.001 47.9636 171.165 47.9313 171.223L47.9209 171.494C47.9058 171.884 47.9838 172.203 48.1549 172.451C48.2958 172.697 48.4986 172.9 48.7633 173.061C49.029 173.191 49.326 173.293 49.6542 173.366C49.9824 173.439 50.2967 173.481 50.5972 173.493Z" fill="white"/>
<path d="M52.9412 138.674C53.572 138.873 54.067 138.904 54.4261 138.765C54.7853 138.626 55.081 138.388 55.3133 138.051C55.5546 137.686 55.7665 137.264 55.949 136.786C56.1028 136.298 56.2852 135.82 56.4964 135.351C56.5145 135.293 56.5884 135.159 56.7181 134.948C56.8478 134.736 56.9217 134.602 56.9398 134.545L57.4962 132.781L58.0525 131.018C58.1761 130.426 58.1623 129.87 58.0113 129.349C57.8406 128.791 57.4542 128.417 56.852 128.227C56.1065 127.992 55.5406 127.987 55.1543 128.211C54.7771 128.408 54.4633 128.703 54.2129 129.097C53.9715 129.462 53.7732 129.841 53.6179 130.233C53.4429 130.588 53.1993 130.811 52.8869 130.901L52.2418 130.698C51.9263 130.598 51.6683 130.517 51.4675 130.453C51.2759 130.361 51.0593 130.199 50.8177 129.965L45.9143 128.418C45.9143 128.418 45.8079 128.305 45.5951 128.081C45.3913 127.827 45.2313 127.635 45.115 127.504C45.0667 127.457 44.9988 127.372 44.9112 127.25C44.795 127.119 44.7271 127.034 44.7074 126.997C44.2621 126.509 43.8017 125.97 43.3262 125.379C42.831 124.749 42.4068 124.095 42.0535 123.416C41.7002 122.737 41.4465 122.043 41.2923 121.332C41.1472 120.592 41.1878 119.864 41.4139 119.147C41.5496 118.717 41.7238 118.315 41.9365 117.941C42.1205 117.557 42.4683 117.305 42.9798 117.182C43.0658 117.209 43.2235 117.259 43.4529 117.331C43.6914 117.375 43.9396 117.438 44.1977 117.519C44.4362 117.563 44.6701 117.621 44.8995 117.693C45.1379 117.737 45.3002 117.772 45.3862 117.799C45.4526 117.789 45.6337 117.814 45.9295 117.876C46.2056 117.9 46.3724 117.921 46.4297 117.939L46.5158 117.967L46.6018 117.994C46.6878 118.021 46.8463 118.118 47.0772 118.286C47.3172 118.424 47.4757 118.522 47.5527 118.577L54.0905 120.64L55.6459 121.556L55.7637 121.783C55.5315 122.718 55.4737 123.551 55.5901 124.282C55.6868 124.974 56.2801 125.493 57.3697 125.836C58.2873 126.126 59.0199 125.852 59.5674 125.016C59.6398 124.787 59.7808 124.39 59.9904 123.826C60.2 123.261 60.4186 122.668 60.6463 122.046C60.8544 121.387 61.0632 120.775 61.2728 120.21C61.4537 119.637 61.5804 119.235 61.6528 119.006L61.8563 118.361C62.0734 117.672 62.1351 117.077 62.0414 116.575C61.9281 116.034 61.4986 115.647 60.7531 115.411C59.8355 115.122 59.0908 115.234 58.519 115.747C57.9563 116.232 57.4811 116.838 57.0935 117.567L56.8671 117.685C56.8671 117.685 56.7909 117.677 56.6385 117.66C56.4665 117.606 56.3374 117.565 56.2514 117.538C55.936 117.439 55.6492 117.348 55.3912 117.267C55.1421 117.157 54.878 116.995 54.5988 116.78L43.9747 113.429C43.3152 113.221 42.6203 113.175 41.8899 113.291C41.1596 113.408 40.4692 113.647 39.8189 114.009C39.1777 114.343 38.6096 114.795 38.1148 115.364C37.6004 115.895 37.2436 116.476 37.0446 117.107C36.719 118.139 36.6981 119.205 36.9821 120.303C37.2465 121.364 37.5388 122.386 37.859 123.37C37.9194 123.578 38.0372 123.805 38.2123 124.049C38.3875 124.293 38.5626 124.538 38.7377 124.782C38.9128 125.027 39.0593 125.262 39.177 125.488C39.3039 125.686 39.3401 125.871 39.2858 126.043C39.2858 126.043 39.2768 126.072 39.2587 126.129C39.2497 126.158 39.2263 126.182 39.1886 126.201C38.4249 126.024 37.7813 125.915 37.2576 125.876C36.734 125.837 36.2835 125.915 35.9063 126.112C35.5004 126.299 35.13 126.624 34.7952 127.085C34.4693 127.519 34.1179 128.133 33.7408 128.928C33.7122 128.919 33.6662 129.015 33.6028 129.216C33.5486 129.388 33.5078 129.517 33.4807 129.603C33.2817 130.234 33.2396 130.867 33.3545 131.502C33.4497 132.1 33.8701 132.516 34.6157 132.751C35.3039 132.968 35.8743 132.959 36.3269 132.724C36.76 132.45 37.1258 132.14 37.4245 131.793C37.7323 131.417 37.9978 131.075 38.221 130.767C38.4246 130.422 38.6268 130.281 38.8275 130.344L48.7634 133.478C49.1664 133.7 49.6312 133.926 50.158 134.155C50.6651 134.346 51.1103 134.534 51.4936 134.718L51.6114 134.944C51.3974 135.823 51.3289 136.589 51.4061 137.244C51.4545 137.89 51.9663 138.367 52.9412 138.674Z" fill="white"/>
<path d="M60.2782 103.584C61.5604 104.369 62.7829 104.906 63.9458 105.195C65.1244 105.458 66.4458 105.315 67.9101 104.766C67.9514 104.756 68.037 104.703 68.1667 104.606C68.2965 104.509 68.4391 104.42 68.5946 104.339C68.7243 104.242 68.8669 104.153 69.0224 104.072C69.1522 103.975 69.2249 103.914 69.2406 103.889C69.6184 103.732 69.9186 103.616 70.141 103.541C70.3535 103.424 70.5452 103.312 70.7164 103.206C70.8776 103.057 71.0338 102.889 71.185 102.699C71.3362 102.51 71.5296 102.223 71.7651 101.838C72.3616 100.863 72.6567 99.8631 72.6504 98.8369C72.6184 97.7949 72.3926 96.8105 71.9728 95.8837C71.5431 94.9155 70.9579 94.0285 70.2174 93.2226C69.4768 92.4167 68.6706 91.7469 67.7987 91.2131C67.2601 90.8835 66.6816 90.7056 66.063 90.6794C65.4444 90.6533 64.9389 90.9608 64.5464 91.6019C64.2795 92.0378 64.2293 92.4654 64.3958 92.8846C64.5366 93.2881 64.7857 93.6874 65.1432 94.0825C65.5006 94.4776 65.8965 94.8962 66.3309 95.3384C66.7554 95.7393 67.1228 96.1757 67.4331 96.6477C67.7592 97.0941 67.9662 97.591 68.0542 98.1384C68.1165 98.6701 67.9592 99.2437 67.5825 99.8592C67.4412 100.09 67.2151 100.287 66.9042 100.449C66.5677 100.595 66.2135 100.713 65.8414 100.803C65.485 100.867 65.1315 100.897 64.7808 100.894C64.4459 100.865 64.1758 100.788 63.9707 100.662L53.277 94.116L53.1365 93.3954C53.1265 93.3541 53.2079 93.1924 53.3806 92.9103C53.5433 92.5868 53.6718 92.3482 53.766 92.1943C54.2212 91.4506 54.7035 90.8645 55.2126 90.4358C55.7119 89.9659 56.1577 89.4103 56.5502 88.7692C56.8642 88.2563 56.9359 87.7361 56.7652 87.2086C56.5846 86.6397 56.2379 86.1983 55.725 85.8844C55.1865 85.5547 54.5687 85.4409 53.8716 85.543C53.1745 85.6451 52.6455 85.991 52.2844 86.5808C51.9704 87.0937 51.6949 87.6302 51.4579 88.1901C51.2109 88.7088 50.9225 89.2374 50.5929 89.7759C50.4673 89.981 50.2946 90.2631 50.0748 90.6222C49.8707 90.9555 49.748 91.1272 49.7067 91.1371L49.2726 91.2416C49.2312 91.2515 49.0567 91.1623 48.7489 90.9739C48.4412 90.7855 48.2104 90.6442 48.0565 90.55C47.4411 90.1733 46.867 89.7866 46.3342 89.3899C45.8171 88.9676 45.2637 88.5759 44.6738 88.2148C44.0584 87.8381 43.4777 87.606 42.9319 87.5186C42.3761 87.3899 41.8706 87.6974 41.4153 88.4411C40.96 89.1848 40.8926 89.8133 41.2129 90.3267C41.5075 90.8243 41.9597 91.2951 42.5694 91.7388C43.1692 92.1412 43.7896 92.5387 44.4307 92.9311C45.0718 93.3236 45.5062 93.7658 45.7339 94.2577C45.9715 94.791 46.016 95.2942 45.8674 95.7673C45.7089 96.1991 45.4883 96.6457 45.2057 97.1073C44.9389 97.5433 44.6848 97.9871 44.4436 98.4387C44.218 98.8647 44.1393 99.3101 44.2074 99.7748C44.3011 100.255 44.4076 100.744 44.5269 101.24C44.662 101.71 44.9603 102.087 45.4219 102.369C45.7296 102.558 46.1258 102.659 46.6104 102.674C47.1107 102.663 47.4708 102.478 47.6905 102.119L50.6576 97.2719L54.9274 99.8857C55.5853 100.712 56.4172 101.397 57.423 101.942C58.4289 102.488 59.3806 103.035 60.2782 103.584Z" fill="white"/>
<path d="M70.6246 84.7365C71.6846 85.7598 72.8579 86.5791 74.1446 87.1944C75.4097 87.7888 76.7024 88.1382 78.0226 88.2426C79.3428 88.347 80.6474 88.1645 81.9363 87.6953C83.2252 87.2261 84.4021 86.4398 85.4672 85.3366C86.5532 84.2117 87.4023 82.9209 88.0146 81.4642C88.627 80.0074 88.7705 78.4951 88.4452 76.9273C88.3064 76.2918 88.1468 75.6779 87.9662 75.0857C87.7641 74.4725 87.4142 73.9258 86.9167 73.4455C86.6138 73.1531 86.2607 73.0211 85.8571 73.0495C85.4745 73.0562 85.1265 73.2218 84.8133 73.5463C84.4791 73.8924 84.2837 74.268 84.227 74.673C84.1704 75.078 84.1674 75.514 84.2182 75.9809C84.2898 76.4262 84.3722 76.8819 84.4655 77.3481C84.5796 77.7927 84.6296 78.2171 84.6155 78.6214C84.5819 79.1323 84.4313 79.6347 84.1635 80.1285C83.8741 80.6014 83.7022 81.1041 83.6478 81.6367C83.5852 81.7016 83.4498 81.8634 83.2417 82.1223C83.0329 82.3386 82.8971 82.4792 82.8345 82.5441C82.2079 83.1931 81.5147 83.6731 80.7546 83.9842C79.9729 84.2743 79.1782 84.4265 78.3704 84.4407C77.5618 84.4124 76.7615 84.2458 75.9693 83.9407C75.198 83.6141 74.4987 83.1479 73.8714 82.5423C73.8282 82.5005 73.7416 82.417 73.6118 82.2917C73.5029 82.1447 73.4377 82.0608 73.416 82.0399L73.444 81.8162C73.444 81.8162 73.548 81.6868 73.7561 81.4279C73.9642 81.1691 74.2249 80.8774 74.5382 80.553C74.8298 80.2076 75.1322 79.8727 75.4455 79.5482C75.758 79.1812 76.0291 78.8787 76.2588 78.6408C76.4886 78.4028 76.8958 77.981 77.4806 77.3753C78.0646 76.7271 78.6803 76.0677 79.3277 75.3971C79.996 74.7049 80.6333 74.0664 81.2397 73.4816C81.8453 72.8542 82.263 72.4216 82.4927 72.1836C82.762 71.7749 82.9992 71.3561 83.2043 70.9272C83.4094 70.4983 83.4436 70.0298 83.3071 69.5219C83.2639 69.4801 83.1773 69.3966 83.0475 69.2713C82.917 69.1035 82.8301 68.9987 82.7868 68.9569C82.5921 68.7689 82.2583 68.5303 81.7854 68.2409C81.2909 67.9306 80.7755 67.642 80.2392 67.375C79.7021 67.0655 79.1874 66.8193 78.6951 66.6366C78.2021 66.4114 77.8489 66.2794 77.6356 66.2406C75.8036 66.0602 74.1037 66.1326 72.5359 66.4579C70.9464 66.7623 69.4834 67.6067 68.1468 68.9911C67.9171 69.2291 67.6769 69.4779 67.4263 69.7374C67.1749 69.9545 66.9885 70.2342 66.8669 70.5766C66.8259 70.6624 66.7651 70.8336 66.6846 71.0902C66.6033 71.3042 66.5227 71.5608 66.4429 71.8599C66.3415 72.1382 66.2505 72.4056 66.17 72.6622C66.0894 72.9188 66.0395 73.1004 66.0201 73.207C65.7203 74.2968 65.6543 75.3825 65.8222 76.464C65.9893 77.503 66.3049 78.5182 66.7689 79.5094C67.2112 80.4798 67.77 81.4163 68.445 82.3188C69.141 83.1996 69.8675 84.0055 70.6246 84.7365ZM70.5841 78.8044C70.0433 78.2823 69.7035 77.7035 69.5647 77.068C69.4043 76.4116 69.3823 75.7634 69.4986 75.1235C69.615 74.4835 69.8488 73.8733 70.2001 73.293C70.5297 72.6918 70.9138 72.1641 71.3524 71.7098C71.7492 71.2988 72.221 70.9183 72.7677 70.5685C73.3137 70.1761 73.8828 69.8897 74.475 69.7091C75.0456 69.5077 75.6401 69.4547 76.2584 69.5502C76.8551 69.6247 77.4131 69.9126 77.9322 70.4139C77.9755 70.4556 78.0512 70.5287 78.1594 70.6331C78.2675 70.7376 78.3328 70.8215 78.3552 70.8849C78.3567 70.9699 78.3481 71.087 78.3295 71.2362C78.3101 71.3428 78.2795 71.4178 78.2377 71.4611L71.0014 78.9565C70.9179 79.0431 70.8437 79.055 70.7788 78.9923C70.6922 78.9088 70.6274 78.8462 70.5841 78.8044Z" fill="white"/>
<path d="M93.8483 74.3504C94.2597 74.9795 94.8362 75.339 95.5776 75.4289C96.3442 75.5024 97.0295 75.3416 97.6334 74.9466L101.936 72.1324C102.139 71.8923 102.303 71.7311 102.429 71.6488C102.563 71.5249 102.731 71.3971 102.932 71.2655C103.36 70.9857 103.792 70.7393 104.227 70.5263C104.688 70.2968 105.132 70.0422 105.56 69.7625C105.938 69.5156 106.332 69.2397 106.743 68.9347C107.138 68.6046 107.471 68.2615 107.741 67.9052C108.019 67.5074 108.181 67.096 108.227 66.6711C108.256 66.221 108.106 65.7443 107.777 65.241C107.382 64.6371 106.846 64.3405 106.171 64.3512C105.479 64.3368 104.843 64.5188 104.264 64.8973C103.988 65.0784 103.715 65.2928 103.446 65.5406C103.202 65.772 102.941 65.9782 102.665 66.1592C102.388 66.3403 102.132 66.4714 101.898 66.5528C101.664 66.6341 101.406 66.5693 101.124 66.3583C101.058 66.2577 100.939 66.1023 100.765 65.8923C100.617 65.6658 100.448 65.435 100.259 65.1998C100.094 64.9482 99.9252 64.7174 99.7519 64.5073C99.5786 64.2973 99.4673 64.1546 99.4179 64.0791C99.385 64.0287 99.2776 63.9194 99.0956 63.751C98.9387 63.5661 98.8313 63.4568 98.7732 63.4229L95.9836 59.1576C95.9013 59.0318 95.8408 58.8019 95.8021 58.468C95.7468 58.1089 95.7168 57.7333 95.7119 57.3413C95.707 56.9493 95.7186 56.5825 95.7466 56.2408C95.7834 55.8575 95.8191 55.5826 95.854 55.4161C95.8801 55.2912 95.9323 55.0415 96.0107 54.6669C96.089 54.2923 96.1717 53.8969 96.2588 53.4807C96.3459 53.0645 96.4286 52.6691 96.5069 52.2945C96.5853 51.9199 96.6501 51.6619 96.7014 51.5206C96.7362 51.3541 96.804 51.238 96.9046 51.1721C97.014 51.0647 97.1316 50.9698 97.2574 50.8875C97.3077 50.8546 97.3958 50.797 97.5216 50.7147C97.6474 50.6324 97.7641 50.646 97.8715 50.7553C98.1271 51.0912 98.4446 51.4943 98.8241 51.9646C99.2123 52.3934 99.6426 52.7766 100.115 53.1144C100.587 53.4521 101.082 53.6858 101.597 53.8154C102.097 53.9199 102.598 53.8076 103.102 53.4784C104.158 52.7872 104.687 51.9746 104.687 51.0405C104.712 50.09 104.42 49.1492 103.811 48.2182C103.383 47.5639 102.858 47.0631 102.235 46.7157C101.622 46.3266 100.978 46.0833 100.303 45.9856C99.6282 45.8879 98.9231 45.9359 98.1875 46.1296C97.4606 46.2816 96.7826 46.5634 96.1535 46.9748C95.1218 47.6496 94.3258 48.5474 93.7655 49.6684C93.2303 50.7728 92.7785 51.8947 92.4098 53.034L92.3343 53.0834C92.2337 53.1492 92.0919 53.1521 91.9089 53.0921C91.7511 53.0157 91.5769 52.9141 91.3862 52.7873C91.2207 52.6441 91.0634 52.5134 90.9143 52.3953C90.7488 52.2521 90.6244 52.1718 90.5411 52.1544C90.0175 51.9579 89.4503 51.9696 88.8395 52.1894C88.2123 52.384 87.5885 52.6663 86.9682 53.0361C86.3478 53.4059 85.7521 53.8135 85.181 54.2588C84.6187 54.6625 84.1198 54.9708 83.6843 55.1838C83.6678 55.1587 83.6218 55.1708 83.5463 55.2201C83.496 55.2531 83.4583 55.2777 83.4331 55.2942C82.9046 55.6398 82.6129 56.1001 82.5578 56.675C82.4862 57.2248 82.615 57.7514 82.9442 58.2546C83.2733 58.7579 83.7167 59.0787 84.2742 59.2171C84.8404 59.3138 85.3917 59.2228 85.9279 58.9439C86.0537 58.8616 86.2758 58.7343 86.5942 58.562C86.9127 58.3897 87.2562 58.2009 87.625 57.9956C87.9773 57.7652 88.3127 57.5639 88.6311 57.3915C88.9331 57.194 89.1469 57.0542 89.2728 56.9719L89.7722 57.0763L92.9117 61.3823L93.3808 62.0994L95.8755 65.7492C95.8833 65.8159 95.9278 65.9665 96.0092 66.2007C96.1157 66.4184 96.1854 66.5525 96.2183 66.6028C96.2841 66.7035 96.3867 66.8879 96.5261 67.156C96.6491 67.3989 96.7885 67.667 96.9444 67.9602C97.109 68.2119 97.2527 68.4592 97.3757 68.7021C97.5238 68.9286 97.6308 69.0922 97.6966 69.1928L97.6444 69.4425C97.6192 69.459 97.5142 69.5456 97.3293 69.7025C97.1532 69.8177 97.0148 69.9082 96.9141 69.974C96.5367 70.2209 96.1553 70.4344 95.7701 70.6144C95.3936 70.7529 95.0292 70.9373 94.6769 71.1677C94.0982 71.5463 93.7144 72.0307 93.5258 72.6212C93.3623 73.1952 93.4698 73.7716 93.8483 74.3504Z" fill="white"/>
</svg>
