<svg width="2001" height="1160" viewBox="0 0 2001 1160" fill="none" xmlns="http://www.w3.org/2000/svg">
<rect width="1920" height="1080" transform="translate(40 40)" fill="#DEE7B9"/>
<rect x="40" y="40" width="1920" height="1080" fill="#DEE7B9"/>
<rect x="40.5" y="686.693" width="1919" height="432.807" fill="#5A2B32" stroke="#974D58"/>
<rect x="40.5" y="1045.38" width="79" height="74.1181" fill="#813B45" stroke="#974D58"/>
<rect x="200.5" y="1045.38" width="79" height="74.1181" fill="#813B45" stroke="#974D58"/>
<rect x="360.5" y="1045.38" width="79" height="74.1181" fill="#813B45" stroke="#974D58"/>
<rect x="680.5" y="1045.38" width="79" height="74.1181" fill="#813B45" stroke="#974D58"/>
<rect x="840.5" y="1045.38" width="79" height="74.1181" fill="#813B45" stroke="#974D58"/>
<rect x="1000.5" y="1045.38" width="79" height="74.1181" fill="#813B45" stroke="#974D58"/>
<rect x="1160.5" y="1045.38" width="79" height="74.1181" fill="#813B45" stroke="#974D58"/>
<rect x="1320.5" y="1045.38" width="79" height="74.1181" fill="#813B45" stroke="#974D58"/>
<rect x="1480.5" y="1045.38" width="79" height="74.1181" fill="#813B45" stroke="#974D58"/>
<rect x="1640.5" y="1045.38" width="79" height="74.1181" fill="#813B45" stroke="#974D58"/>
<rect x="1800.5" y="1045.38" width="79" height="74.1181" fill="#813B45" stroke="#974D58"/>
<rect x="520.5" y="1045.38" width="79" height="74.1181" fill="#813B45" stroke="#974D58"/>
<rect x="40.5" y="744.909" width="79" height="74.1181" fill="#813B45" stroke="#974D58"/>
<rect x="200.5" y="744.909" width="79" height="74.1181" fill="#813B45" stroke="#974D58"/>
<rect x="360.5" y="744.909" width="79" height="74.1181" fill="#813B45" stroke="#974D58"/>
<rect x="680.5" y="744.909" width="79" height="74.1181" fill="#813B45" stroke="#974D58"/>
<rect x="840.5" y="744.909" width="79" height="74.1181" fill="#813B45" stroke="#974D58"/>
<rect x="1000.5" y="744.909" width="79" height="74.1181" fill="#813B45" stroke="#974D58"/>
<rect x="1160.5" y="744.909" width="79" height="74.1181" fill="#813B45" stroke="#974D58"/>
<rect x="1320.5" y="744.909" width="79" height="74.1181" fill="#813B45" stroke="#974D58"/>
<rect x="1480.5" y="744.909" width="79" height="74.1181" fill="#813B45" stroke="#974D58"/>
<rect x="1640.5" y="744.909" width="79" height="74.1181" fill="#813B45" stroke="#974D58"/>
<rect x="1800.5" y="744.909" width="79" height="74.1181" fill="#813B45" stroke="#974D58"/>
<rect x="520.5" y="744.909" width="79" height="74.1181" fill="#813B45" stroke="#974D58"/>
<rect x="120.5" y="820.028" width="79" height="74.1181" fill="#813B45" stroke="#974D58"/>
<rect x="280.5" y="820.028" width="79" height="74.1181" fill="#813B45" stroke="#974D58"/>
<rect x="440.5" y="820.028" width="79" height="74.1181" fill="#813B45" stroke="#974D58"/>
<rect x="760.5" y="820.028" width="79" height="74.1181" fill="#813B45" stroke="#974D58"/>
<rect x="920.5" y="820.028" width="79" height="74.1181" fill="#813B45" stroke="#974D58"/>
<rect x="1080.5" y="820.028" width="79" height="74.1181" fill="#813B45" stroke="#974D58"/>
<rect x="1240.5" y="820.028" width="79" height="74.1181" fill="#813B45" stroke="#974D58"/>
<rect x="1400.5" y="820.028" width="79" height="74.1181" fill="#813B45" stroke="#974D58"/>
<rect x="1560.5" y="820.028" width="79" height="74.1181" fill="#813B45" stroke="#974D58"/>
<rect x="1720.5" y="820.028" width="79" height="74.1181" fill="#813B45" stroke="#974D58"/>
<rect x="1880.5" y="820.028" width="79" height="74.1181" fill="#813B45" stroke="#974D58"/>
<rect x="600.5" y="820.028" width="79" height="74.1181" fill="#813B45" stroke="#974D58"/>
<rect x="40.5" y="895.146" width="79" height="74.1181" fill="#813B45" stroke="#974D58"/>
<rect x="200.5" y="895.146" width="79" height="74.1181" fill="#813B45" stroke="#974D58"/>
<rect x="360.5" y="895.146" width="79" height="74.1181" fill="#813B45" stroke="#974D58"/>
<rect x="680.5" y="895.146" width="79" height="74.1181" fill="#813B45" stroke="#974D58"/>
<rect x="840.5" y="895.146" width="79" height="74.1181" fill="#813B45" stroke="#974D58"/>
<rect x="1000.5" y="895.146" width="79" height="74.1181" fill="#813B45" stroke="#974D58"/>
<rect x="1160.5" y="895.146" width="79" height="74.1181" fill="#813B45" stroke="#974D58"/>
<rect x="1320.5" y="895.146" width="79" height="74.1181" fill="#813B45" stroke="#974D58"/>
<rect x="1480.5" y="895.146" width="79" height="74.1181" fill="#813B45" stroke="#974D58"/>
<rect x="1640.5" y="895.146" width="79" height="74.1181" fill="#813B45" stroke="#974D58"/>
<rect x="1800.5" y="895.146" width="79" height="74.1181" fill="#813B45" stroke="#974D58"/>
<rect x="520.5" y="895.146" width="79" height="74.1181" fill="#813B45" stroke="#974D58"/>
<rect x="120.5" y="970.264" width="79" height="74.1181" fill="#813B45" stroke="#974D58"/>
<rect x="280.5" y="970.264" width="79" height="74.1181" fill="#813B45" stroke="#974D58"/>
<rect x="440.5" y="970.264" width="79" height="74.1181" fill="#813B45" stroke="#974D58"/>
<rect x="760.5" y="970.264" width="79" height="74.1181" fill="#813B45" stroke="#974D58"/>
<rect x="920.5" y="970.264" width="79" height="74.1181" fill="#813B45" stroke="#974D58"/>
<rect x="1080.5" y="970.264" width="79" height="74.1181" fill="#813B45" stroke="#974D58"/>
<rect x="1240.5" y="970.264" width="79" height="74.1181" fill="#813B45" stroke="#974D58"/>
<rect x="1400.5" y="970.264" width="79" height="74.1181" fill="#813B45" stroke="#974D58"/>
<rect x="1560.5" y="970.264" width="79" height="74.1181" fill="#813B45" stroke="#974D58"/>
<rect x="1720.5" y="970.264" width="79" height="74.1181" fill="#813B45" stroke="#974D58"/>
<rect x="1880.5" y="970.264" width="79" height="74.1181" fill="#813B45" stroke="#974D58"/>
<rect x="600.5" y="970.264" width="79" height="74.1181" fill="#813B45" stroke="#974D58"/>
<rect x="40.5" y="644.5" width="1919" height="10.2677" fill="#401F24" stroke="#974D58"/>
<rect x="40.5" y="732.703" width="1919" height="11.2067" fill="#401F24" stroke="#974D58"/>
<rect x="40.5" y="679.5" width="1919" height="4.63386" fill="#401F24" stroke="#974D58"/>
<mask id="path-66-inside-1_3_34" fill="white">
<path d="M320 790H1520V1120H320V790Z"/>
</mask>
<path d="M320 790H1520V1120H320V790Z" fill="#524F3B"/>
<path d="M1520 1120V1130H1530V1120H1520ZM320 1120H310V1130H320V1120ZM1510 790V1120H1530V790H1510ZM1520 1110H320V1130H1520V1110ZM330 1120V790H310V1120H330Z" fill="black" mask="url(#path-66-inside-1_3_34)"/>
<mask id="path-68-inside-2_3_34" fill="white">
<path d="M276 737H1563V790H276V737Z"/>
</mask>
<path d="M276 737H1563V790H276V737Z" fill="#787558"/>
<path d="M276 737V727H266V737H276ZM1563 737H1573V727H1563V737ZM1563 790V800H1573V790H1563ZM276 790H266V800H276V790ZM276 747H1563V727H276V747ZM1553 737V790H1573V737H1553ZM1563 780H276V800H1563V780ZM286 790V737H266V790H286Z" fill="black" mask="url(#path-68-inside-2_3_34)"/>
<rect x="40" y="655" width="1920" height="24" fill="#8D434E"/>
<rect x="40.416" y="691.416" width="15.8064" height="39.516" fill="#AF8127" stroke="#974D58" stroke-width="0.831915"/>
<rect x="73.6926" y="691.416" width="15.8064" height="39.516" fill="#AF8127" stroke="#974D58" stroke-width="0.831915"/>
<rect x="106.969" y="691.416" width="15.8064" height="39.516" fill="#AF8127" stroke="#974D58" stroke-width="0.831915"/>
<rect x="140.246" y="691.416" width="15.8064" height="39.516" fill="#AF8127" stroke="#974D58" stroke-width="0.831915"/>
<rect x="173.522" y="691.416" width="15.8064" height="39.516" fill="#AF8127" stroke="#974D58" stroke-width="0.831915"/>
<rect x="206.799" y="691.416" width="15.8064" height="39.516" fill="#AF8127" stroke="#974D58" stroke-width="0.831915"/>
<rect x="240.076" y="691.416" width="15.8064" height="39.516" fill="#AF8127" stroke="#974D58" stroke-width="0.831915"/>
<rect x="273.352" y="691.416" width="15.8064" height="39.516" fill="#AF8127" stroke="#974D58" stroke-width="0.831915"/>
<rect x="306.629" y="691.416" width="15.8064" height="39.516" fill="#AF8127" stroke="#974D58" stroke-width="0.831915"/>
<rect x="339.905" y="691.416" width="15.8064" height="39.516" fill="#AF8127" stroke="#974D58" stroke-width="0.831915"/>
<rect x="373.182" y="691.416" width="15.8064" height="39.516" fill="#AF8127" stroke="#974D58" stroke-width="0.831915"/>
<rect x="406.459" y="691.416" width="15.8064" height="39.516" fill="#AF8127" stroke="#974D58" stroke-width="0.831915"/>
<rect x="439.735" y="691.416" width="15.8064" height="39.516" fill="#AF8127" stroke="#974D58" stroke-width="0.831915"/>
<rect x="473.012" y="691.416" width="15.8064" height="39.516" fill="#AF8127" stroke="#974D58" stroke-width="0.831915"/>
<rect x="506.288" y="691.416" width="15.8064" height="39.516" fill="#AF8127" stroke="#974D58" stroke-width="0.831915"/>
<rect x="539.565" y="691.416" width="15.8064" height="39.516" fill="#AF8127" stroke="#974D58" stroke-width="0.831915"/>
<rect x="572.841" y="691.416" width="15.8064" height="39.516" fill="#AF8127" stroke="#974D58" stroke-width="0.831915"/>
<rect x="606.118" y="691.416" width="15.8064" height="39.516" fill="#AF8127" stroke="#974D58" stroke-width="0.831915"/>
<rect x="639.395" y="691.416" width="15.8064" height="39.516" fill="#AF8127" stroke="#974D58" stroke-width="0.831915"/>
<rect x="672.671" y="691.416" width="15.8064" height="39.516" fill="#AF8127" stroke="#974D58" stroke-width="0.831915"/>
<rect x="705.948" y="691.416" width="15.8064" height="39.516" fill="#AF8127" stroke="#974D58" stroke-width="0.831915"/>
<rect x="739.224" y="691.416" width="15.8064" height="39.516" fill="#AF8127" stroke="#974D58" stroke-width="0.831915"/>
<rect x="772.501" y="691.416" width="15.8064" height="39.516" fill="#AF8127" stroke="#974D58" stroke-width="0.831915"/>
<rect x="805.778" y="691.416" width="15.8064" height="39.516" fill="#AF8127" stroke="#974D58" stroke-width="0.831915"/>
<rect x="839.416" y="692.416" width="15.8064" height="39.516" fill="#AF8127" stroke="#974D58" stroke-width="0.831915"/>
<rect x="872.693" y="692.416" width="15.8064" height="39.516" fill="#AF8127" stroke="#974D58" stroke-width="0.831915"/>
<rect x="905.969" y="692.416" width="15.8064" height="39.516" fill="#AF8127" stroke="#974D58" stroke-width="0.831915"/>
<rect x="939.246" y="692.416" width="15.8064" height="39.516" fill="#AF8127" stroke="#974D58" stroke-width="0.831915"/>
<rect x="972.522" y="692.416" width="15.8064" height="39.516" fill="#AF8127" stroke="#974D58" stroke-width="0.831915"/>
<rect x="1005.8" y="692.416" width="15.8064" height="39.516" fill="#AF8127" stroke="#974D58" stroke-width="0.831915"/>
<rect x="1039.08" y="692.416" width="15.8064" height="39.516" fill="#AF8127" stroke="#974D58" stroke-width="0.831915"/>
<rect x="1072.35" y="692.416" width="15.8064" height="39.516" fill="#AF8127" stroke="#974D58" stroke-width="0.831915"/>
<rect x="1105.63" y="692.416" width="15.8064" height="39.516" fill="#AF8127" stroke="#974D58" stroke-width="0.831915"/>
<rect x="1138.91" y="692.416" width="15.8064" height="39.516" fill="#AF8127" stroke="#974D58" stroke-width="0.831915"/>
<rect x="1172.18" y="692.416" width="15.8064" height="39.516" fill="#AF8127" stroke="#974D58" stroke-width="0.831915"/>
<rect x="1205.46" y="692.416" width="15.8064" height="39.516" fill="#AF8127" stroke="#974D58" stroke-width="0.831915"/>
<rect x="1238.74" y="692.416" width="15.8064" height="39.516" fill="#AF8127" stroke="#974D58" stroke-width="0.831915"/>
<rect x="1272.01" y="692.416" width="15.8064" height="39.516" fill="#AF8127" stroke="#974D58" stroke-width="0.831915"/>
<rect x="1305.29" y="692.416" width="15.8064" height="39.516" fill="#AF8127" stroke="#974D58" stroke-width="0.831915"/>
<rect x="1338.56" y="692.416" width="15.8064" height="39.516" fill="#AF8127" stroke="#974D58" stroke-width="0.831915"/>
<rect x="1371.84" y="692.416" width="15.8064" height="39.516" fill="#AF8127" stroke="#974D58" stroke-width="0.831915"/>
<rect x="1405.12" y="692.416" width="15.8064" height="39.516" fill="#AF8127" stroke="#974D58" stroke-width="0.831915"/>
<rect x="1438.39" y="692.416" width="15.8064" height="39.516" fill="#AF8127" stroke="#974D58" stroke-width="0.831915"/>
<rect x="1471.67" y="692.416" width="15.8064" height="39.516" fill="#AF8127" stroke="#974D58" stroke-width="0.831915"/>
<rect x="1504.95" y="692.416" width="15.8064" height="39.516" fill="#AF8127" stroke="#974D58" stroke-width="0.831915"/>
<rect x="1538.22" y="692.416" width="15.8064" height="39.516" fill="#AF8127" stroke="#974D58" stroke-width="0.831915"/>
<rect x="1571.5" y="692.416" width="15.8064" height="39.516" fill="#AF8127" stroke="#974D58" stroke-width="0.831915"/>
<rect x="1604.78" y="692.416" width="15.8064" height="39.516" fill="#AF8127" stroke="#974D58" stroke-width="0.831915"/>
<rect x="1783.42" y="691.416" width="15.8064" height="39.516" fill="#AF8127" stroke="#974D58" stroke-width="0.831915"/>
<rect x="1816.69" y="691.416" width="15.8064" height="39.516" fill="#AF8127" stroke="#974D58" stroke-width="0.831915"/>
<rect x="1849.97" y="691.416" width="15.8064" height="39.516" fill="#AF8127" stroke="#974D58" stroke-width="0.831915"/>
<rect x="1883.25" y="691.416" width="15.8064" height="39.516" fill="#AF8127" stroke="#974D58" stroke-width="0.831915"/>
<rect x="1916.52" y="691.416" width="15.8064" height="39.516" fill="#AF8127" stroke="#974D58" stroke-width="0.831915"/>
<rect x="1949.42" y="691.416" width="10.1681" height="39.1681" fill="#AF8127" stroke="#974D58" stroke-width="0.831915"/>
<rect x="40.5" y="684.5" width="1919" height="7" fill="#AF8127" stroke="#974D58"/>
<rect x="40.5" y="730.5" width="1919" height="7" fill="#AF8127" stroke="#974D58"/>
<rect x="40" y="8" width="61.7266" height="26" rx="2" fill="#DEE7B9"/>
<rect x="40.5" y="8.5" width="60.7266" height="25" rx="1.5" stroke="black" stroke-opacity="0.14902"/>
<text fill="black" xml:space="preserve" style="white-space: pre" font-family="Inter" font-size="11" letter-spacing="0em"><tspan x="44" y="23.5">EntryPage</tspan></text>
</svg>
