<svg width="299" height="76" viewBox="0 0 299 76" fill="none" xmlns="http://www.w3.org/2000/svg">
<rect x="1" y="1" width="297" height="74" fill="#89721E" stroke="black" stroke-width="2"/>
<path d="M41.8994 52.2535C41.8994 52.6934 41.9771 53.0297 42.1323 53.2626C42.2875 53.4955 42.4945 53.6766 42.7533 53.8059C43.0379 53.9094 43.3483 53.9741 43.6847 54C44.0211 54 44.3703 54 44.7326 54C45.0431 54 45.4053 54 45.8193 54C46.2332 54.0259 46.6084 53.9741 46.9447 53.8448H59.8685C60.1531 53.9483 60.4118 54 60.6447 54C60.9034 54 61.1751 54 61.4597 54C62.3911 54 63.1415 53.7413 63.7107 53.2238C64.2799 52.7063 64.5645 51.9689 64.5645 51.0116C64.5645 50.727 64.5516 50.4942 64.5257 50.313C64.5257 50.1061 64.461 49.8603 64.3316 49.5757V44.2587C64.3316 43.7671 64.1635 43.2755 63.8271 42.7839C63.4908 42.2664 63.0509 42.0077 62.5076 42.0077C62.0677 42.0077 61.6926 42.1759 61.3821 42.5122C61.0716 42.8486 60.9164 43.2367 60.9164 43.6765V47.4799C60.9164 47.5575 60.8775 47.6869 60.7999 47.868C60.7223 48.0233 60.6576 48.1397 60.6059 48.2173C60.2695 48.8383 59.9202 49.2522 59.558 49.4592C59.1958 49.6403 58.7947 49.7438 58.3549 49.7697C57.9409 49.7956 57.4752 49.8085 56.9577 49.8085C56.4661 49.7826 55.9099 49.8603 55.2889 50.0414H51.3691L51.0586 49.7309V41.2315C51.0586 41.2315 51.0715 41.1927 51.0974 41.1151C51.1233 41.0375 51.1621 40.9728 51.2138 40.921C51.2138 40.8175 51.2656 40.7658 51.3691 40.7658H53.0379C53.1932 40.7658 53.3743 40.8693 53.5813 41.0763C53.8141 41.2574 54.034 41.4773 54.241 41.736C54.4739 41.9689 54.6679 42.2147 54.8232 42.4734C54.9784 42.7322 55.0819 42.9262 55.1337 43.0556C55.1337 43.3661 55.1337 43.7671 55.1337 44.2587C55.1337 44.7503 55.1854 45.2289 55.2889 45.6947C55.3924 46.1345 55.5735 46.5226 55.8322 46.859C56.091 47.1694 56.4791 47.3247 56.9965 47.3247C57.7986 47.3247 58.1997 46.9107 58.1997 46.0828V33.3531C58.1997 32.9132 58.0703 32.551 57.8116 32.2664C57.5528 31.9559 57.2165 31.8007 56.8025 31.8007C56.285 31.8007 55.9357 31.9688 55.7546 32.3052C55.5735 32.6415 55.4571 33.0426 55.4053 33.5083C55.3536 33.974 55.3148 34.4527 55.2889 34.9443C55.263 35.41 55.1595 35.7852 54.9784 36.0698C54.7714 36.4061 54.4868 36.639 54.1246 36.7683C53.7882 36.8977 53.4778 37.0659 53.1932 37.2729H51.2138L51.0586 37.1176C51.0586 37.1176 51.0457 37.053 51.0198 36.9236C50.9939 36.7942 50.9551 36.6519 50.9034 36.4967C50.8775 36.3156 50.8516 36.1345 50.8257 35.9533C50.7999 35.7464 50.774 35.5782 50.7481 35.4488V35.41V35.3324C50.7481 35.2806 50.774 35.1254 50.8257 34.8667C50.8775 34.6079 50.9034 34.4527 50.9034 34.4009C50.9034 34.2457 50.9034 33.9611 50.9034 33.5471C50.9292 33.1331 50.9551 32.6933 50.981 32.2276C51.0069 31.7619 51.0198 31.322 51.0198 30.908C51.0457 30.4682 51.0586 30.1706 51.0586 30.0154L51.2138 29.8602H58.6266C58.8335 29.8602 59.0793 30.0025 59.364 30.2871C59.6744 30.5458 59.8944 30.7528 60.0237 30.908C60.1272 31.0633 60.2566 31.2961 60.4118 31.6066C60.5929 31.9171 60.6835 32.0853 60.6835 32.1111V36.225C60.6835 36.639 60.8517 36.9753 61.188 37.2341C61.5502 37.4928 61.9125 37.6222 62.2747 37.6222C62.7146 37.6222 63.1027 37.4799 63.439 37.1953C63.7754 36.9107 63.9435 36.5355 63.9435 36.0698V27.8809C63.9435 27.4928 63.8142 27.0788 63.5554 26.6389C63.2967 26.1991 62.9733 25.9533 62.5852 25.9015C59.4286 25.9274 56.285 25.9145 53.1543 25.8627C50.0237 25.7851 46.8801 25.7463 43.7235 25.7463C43.0508 25.7463 42.5333 25.9662 42.1711 26.4061C41.8089 26.82 41.6278 27.3375 41.6278 27.9585C41.6278 28.7088 41.8477 29.2392 42.2875 29.5497C42.7274 29.8602 43.2966 30.0154 43.9952 30.0154C44.435 30.0154 44.849 29.9895 45.2371 29.9378C45.6511 29.8602 46.078 29.8214 46.5178 29.8214C46.6213 29.8214 46.7636 29.8214 46.9447 29.8214C47.1259 29.8214 47.2294 29.8343 47.2552 29.8602L47.5657 30.1318V31.1021C47.5657 31.4126 47.5657 31.7877 47.5657 32.2276C47.5916 32.6415 47.5398 33.0167 47.4105 33.3531L47.4881 38.67V39.4074L47.5657 48.5278C47.5657 48.683 47.5269 48.9029 47.4493 49.1876C47.3717 49.4463 47.2552 49.6274 47.1 49.7309C46.9706 49.7309 46.8024 49.7568 46.5955 49.8085C46.3885 49.8344 46.1685 49.8732 45.9357 49.9249C45.7028 49.9508 45.47 49.9767 45.2371 50.0026C45.0301 50.0284 44.8619 50.0414 44.7326 50.0414H44.655C44.6032 50.0414 44.448 50.0284 44.1892 50.0026C43.9564 49.9508 43.8141 49.912 43.7623 49.8861H43.5295C43.1931 49.8861 42.9214 49.9638 42.7145 50.119C42.5075 50.2484 42.3393 50.4295 42.2099 50.6623C42.1064 50.8952 42.0288 51.1539 41.9771 51.4385C41.9253 51.7231 41.8994 51.9948 41.8994 52.2535ZM69.5431 37.1176C69.6466 37.1176 69.6983 37.1694 69.6983 37.2729C70.0606 37.9456 70.3581 38.6442 70.591 39.3686C70.8497 40.0672 71.1084 40.7787 71.3672 41.5032C71.393 41.5808 71.4448 41.7619 71.5224 42.0465C71.6259 42.3311 71.7165 42.6416 71.7941 42.978C71.8976 43.2884 71.9881 43.586 72.0657 43.8706C72.1692 44.1552 72.2339 44.3363 72.2598 44.4139C72.2857 44.4398 72.3245 44.5174 72.3762 44.6468C72.4538 44.7762 72.5185 44.9185 72.5703 45.0737C72.6479 45.2289 72.7126 45.3842 72.7643 45.5394C72.8419 45.6688 72.8808 45.7464 72.8808 45.7723C72.9066 45.8758 72.9713 46.0439 73.0748 46.2768C73.1783 46.5097 73.2689 46.7555 73.3465 47.0142C73.45 47.2729 73.5405 47.5187 73.6181 47.7516C73.7216 47.9844 73.7863 48.1397 73.8122 48.2173C74.0451 48.9159 74.2909 49.7438 74.5496 50.7011C74.8342 51.6585 75.1964 52.4993 75.6363 53.2238C75.8433 53.5602 76.1667 53.8189 76.6065 54C77.0464 54.1811 77.4474 54.2717 77.8096 54.2717C78.1719 54.2717 78.56 54.1423 78.9739 53.8836C79.3879 53.599 79.6337 53.2755 79.7113 52.9133C80.384 50.7141 81.0955 48.5407 81.8459 46.3932C82.5962 44.2199 83.3077 42.0336 83.9804 39.8343C84.0839 39.6532 84.1874 39.4204 84.2909 39.1358C84.3944 38.8253 84.4979 38.5148 84.6014 38.2043C84.7049 37.8938 84.8084 37.6092 84.9119 37.3505C85.0412 37.0918 85.1835 36.9107 85.3388 36.8072C85.5716 36.8072 85.8692 36.8072 86.2314 36.8072C86.6195 36.8072 86.9817 36.7683 87.3181 36.6907C87.6544 36.6131 87.939 36.4837 88.1719 36.3026C88.4306 36.1215 88.56 35.8369 88.56 35.4488C88.56 35.0607 88.4694 34.7502 88.2883 34.5174C88.1331 34.2845 87.9261 34.1034 87.6674 33.974C87.4086 33.8447 87.1111 33.7541 86.7747 33.7024C86.4643 33.6247 86.1408 33.5471 85.8045 33.4695C85.6234 33.4695 85.3129 33.4695 84.8731 33.4695C84.4591 33.4436 84.0063 33.4177 83.5147 33.3919C83.0231 33.366 82.5574 33.3531 82.1175 33.3531C81.7036 33.3272 81.406 33.3143 81.2249 33.3143H80.798C80.2547 33.3143 79.7501 33.4436 79.2844 33.7024C78.8446 33.9611 78.6246 34.388 78.6246 34.9831C78.6246 35.4229 78.7411 35.7205 78.9739 35.8757C79.2327 36.031 79.5302 36.1474 79.8666 36.225C80.2029 36.2768 80.5393 36.3414 80.8756 36.4191C81.2378 36.4967 81.5095 36.6778 81.6906 36.9624C81.6906 37.0141 81.6906 37.1047 81.6906 37.2341C81.7165 37.3634 81.7294 37.454 81.7294 37.5057C81.7294 37.6351 81.6389 37.9973 81.4578 38.5924C81.2767 39.1875 81.0438 39.899 80.7592 40.727C80.4746 41.5549 80.1641 42.4346 79.8277 43.3661C79.4914 44.2975 79.168 45.1643 78.8575 45.9663C78.5729 46.7425 78.3012 47.4023 78.0425 47.9456C77.8096 48.4631 77.6544 48.7477 77.5768 48.7995L77.4215 48.6442C77.4215 48.6442 77.3698 48.5666 77.2663 48.4114C77.1887 48.2302 77.0852 48.0233 76.9558 47.7904C76.8523 47.5575 76.7488 47.3247 76.6453 47.0918C76.5418 46.859 76.4513 46.6649 76.3737 46.5097C76.089 45.8628 75.8691 45.2419 75.7139 44.6468C75.5586 44.0517 75.3775 43.4178 75.1705 42.7451C75.0412 42.4087 74.873 42.0077 74.666 41.542C74.459 41.0504 74.252 40.5588 74.0451 40.0672C73.8639 39.5756 73.6958 39.0969 73.5405 38.6312C73.3853 38.1396 73.3077 37.7127 73.3077 37.3505C73.3077 37.04 73.4758 36.846 73.8122 36.7683C74.1744 36.6649 74.5625 36.5743 74.9765 36.4967C75.4163 36.4191 75.8044 36.3026 76.1408 36.1474C76.503 35.9663 76.6841 35.6299 76.6841 35.1383C76.6841 34.7502 76.5936 34.4527 76.4125 34.2457C76.2572 34.0128 76.0502 33.8447 75.7915 33.7412C75.5328 33.6118 75.2482 33.5342 74.9377 33.5083C74.6272 33.4824 74.3297 33.4695 74.0451 33.4695C73.6828 33.4695 73.3206 33.4954 72.9584 33.5471C72.622 33.5989 72.2727 33.6247 71.9105 33.6247H71.8329C71.7811 33.6247 71.6388 33.5989 71.406 33.5471C71.199 33.4954 70.9791 33.4436 70.7462 33.3919C70.5133 33.3401 70.2934 33.2884 70.0864 33.2366C69.8794 33.1849 69.7501 33.159 69.6983 33.159H69.3102C68.9221 33.159 68.547 33.1849 68.1847 33.2366C67.8225 33.2884 67.4862 33.3919 67.1757 33.5471C66.8911 33.7024 66.6582 33.9223 66.4771 34.2069C66.296 34.4656 66.2054 34.802 66.2054 35.2159V35.9145C66.6194 36.4579 67.1239 36.7813 67.719 36.8848C68.3141 36.9883 68.9221 37.0659 69.5431 37.1176ZM90.1388 44.4527C90.1388 45.7205 90.3328 46.9366 90.7209 48.1009C91.109 49.2393 91.6653 50.2484 92.3898 51.1281C93.1142 52.0078 94.0069 52.7063 95.0677 53.2238C96.1285 53.7413 97.3186 54 98.6382 54C99.9836 54 101.29 53.7542 102.558 53.2626C103.826 52.771 104.848 51.956 105.624 50.8176C105.934 50.3519 106.219 49.8861 106.478 49.4204C106.737 48.9288 106.866 48.3855 106.866 47.7904C106.866 47.4282 106.737 47.1306 106.478 46.8978C106.245 46.6649 105.934 46.5485 105.546 46.5485C105.132 46.5485 104.783 46.652 104.498 46.859C104.214 47.0659 103.942 47.3247 103.683 47.6352C103.451 47.9456 103.218 48.2691 102.985 48.6054C102.778 48.9418 102.545 49.2264 102.286 49.4592C101.95 49.7438 101.549 49.9508 101.083 50.0802C100.617 50.1837 100.204 50.3777 99.8413 50.6623C99.7637 50.6623 99.5826 50.6753 99.298 50.7011C99.0392 50.7011 98.871 50.7011 98.7934 50.7011C98.0172 50.7011 97.3057 50.5588 96.6589 50.2742C96.012 49.9638 95.4428 49.5627 94.9512 49.0711C94.4855 48.5537 94.1103 47.9586 93.8257 47.2859C93.567 46.6132 93.4376 45.9016 93.4376 45.1513C93.4376 45.0996 93.4376 44.9961 93.4376 44.8408C93.4635 44.6856 93.4764 44.595 93.4764 44.5692L93.6317 44.4527C93.6317 44.4527 93.774 44.4398 94.0586 44.4139C94.3432 44.3881 94.6796 44.3751 95.0677 44.3751C95.4558 44.3492 95.8439 44.3363 96.232 44.3363C96.6459 44.3104 96.9952 44.2975 97.2798 44.2975C97.5644 44.2975 98.069 44.2975 98.7934 44.2975C99.5438 44.2716 100.32 44.2587 101.122 44.2587C101.95 44.2587 102.726 44.2716 103.451 44.2975C104.201 44.2975 104.718 44.2975 105.003 44.2975C105.417 44.2199 105.818 44.1164 106.206 43.987C106.594 43.8576 106.905 43.5989 107.138 43.2108C107.138 43.1591 107.138 43.0556 107.138 42.9003C107.163 42.7192 107.176 42.6028 107.176 42.551C107.176 42.3182 107.125 41.9689 107.021 41.5032C106.918 41.0116 106.788 40.52 106.633 40.0284C106.504 39.5109 106.348 39.0452 106.167 38.6312C106.012 38.1914 105.883 37.8938 105.779 37.7386C104.796 36.4967 103.735 35.4876 102.597 34.7114C101.458 33.9093 100.061 33.5083 98.4053 33.5083C98.1207 33.5083 97.8232 33.5083 97.5127 33.5083C97.2281 33.4824 96.9435 33.5342 96.6589 33.6635C96.5813 33.6894 96.4389 33.7541 96.232 33.8576C96.0508 33.9352 95.8439 34.0387 95.611 34.1681C95.3781 34.2716 95.1582 34.3751 94.9512 34.4786C94.7442 34.5821 94.6019 34.6597 94.5243 34.7114C93.6705 35.1771 92.959 35.7852 92.3898 36.5355C91.8464 37.2599 91.4066 38.062 91.0702 38.9417C90.7339 39.7955 90.4881 40.7011 90.3328 41.6584C90.2035 42.6157 90.1388 43.5472 90.1388 44.4527ZM93.7869 40.8822C93.7869 40.2354 93.9422 39.6791 94.2526 39.2134C94.5631 38.7218 94.9512 38.3207 95.417 38.0103C95.8827 37.6998 96.4001 37.4799 96.9694 37.3505C97.5386 37.1953 98.0948 37.1176 98.6382 37.1176C99.1298 37.1176 99.6472 37.1823 100.191 37.3117C100.76 37.4152 101.277 37.5963 101.743 37.855C102.209 38.0879 102.597 38.4242 102.907 38.8641C103.218 39.2781 103.373 39.7955 103.373 40.4165C103.373 40.4682 103.373 40.5588 103.373 40.6882C103.373 40.8175 103.36 40.9081 103.334 40.9598C103.282 41.0116 103.205 41.0763 103.101 41.1539C103.024 41.2056 102.959 41.2315 102.907 41.2315H93.9422C93.8387 41.2315 93.7869 41.1927 93.7869 41.1151C93.7869 41.0116 93.7869 40.934 93.7869 40.8822ZM108.766 51.7878C108.766 52.357 108.87 52.771 109.077 53.0297C109.284 53.2885 109.555 53.4696 109.892 53.5731C110.254 53.6766 110.655 53.7413 111.095 53.7671C111.535 53.7671 111.974 53.793 112.414 53.8448C112.466 53.8448 112.595 53.8706 112.802 53.9224C113.009 53.9741 113.139 54 113.19 54H114.782H116.373C116.89 53.9483 117.343 53.793 117.731 53.5343C118.145 53.2497 118.352 52.8357 118.352 52.2924C118.352 51.6197 118.21 51.1539 117.925 50.8952C117.667 50.6365 117.343 50.4554 116.955 50.3519C116.593 50.2484 116.231 50.1837 115.868 50.1578C115.532 50.1061 115.286 49.9638 115.131 49.7309V49.1487C115.131 48.8641 115.131 48.6313 115.131 48.4502C115.157 48.2691 115.234 48.0491 115.364 47.7904V43.3661C115.364 43.3661 115.428 43.2496 115.558 43.0168C115.713 42.7839 115.83 42.6028 115.907 42.4734C115.933 42.4217 115.985 42.3441 116.062 42.2406C116.14 42.1112 116.192 42.0336 116.218 42.0077C116.502 41.5161 116.826 40.9986 117.188 40.4553C117.576 39.8861 118.003 39.3686 118.469 38.9029C118.934 38.4372 119.439 38.0491 119.982 37.7386C120.551 37.4281 121.159 37.2729 121.806 37.2729C122.194 37.2729 122.57 37.3117 122.932 37.3893C123.294 37.4411 123.592 37.661 123.824 38.0491C123.824 38.1267 123.824 38.269 123.824 38.476C123.85 38.683 123.863 38.9029 123.863 39.1358C123.889 39.3427 123.902 39.5497 123.902 39.7567C123.928 39.9637 123.941 40.106 123.941 40.1836C123.967 40.2354 123.993 40.3906 124.018 40.6494C124.07 40.8822 124.096 41.0245 124.096 41.0763V41.1539V41.2315C124.096 41.3091 124.057 41.4644 123.98 41.6972C123.928 41.9301 123.889 42.0853 123.863 42.1629V48.0621L123.514 49.5757L123.359 49.7309C122.531 49.7826 121.832 49.9508 121.263 50.2354C120.72 50.4942 120.448 51.1151 120.448 52.0983C120.448 52.9263 120.862 53.4567 121.69 53.6895C121.897 53.6895 122.259 53.7025 122.777 53.7283C123.294 53.7542 123.837 53.7801 124.407 53.8059C125.002 53.8059 125.558 53.8189 126.075 53.8448C126.593 53.8448 126.955 53.8448 127.162 53.8448H127.744C128.365 53.8448 128.87 53.7413 129.258 53.5343C129.672 53.3014 129.879 52.8486 129.879 52.1759C129.879 51.348 129.594 50.7658 129.025 50.4295C128.482 50.0931 127.861 49.8603 127.162 49.7309L127.007 49.5757C127.007 49.5757 126.994 49.511 126.968 49.3816C126.968 49.2264 126.968 49.1099 126.968 49.0323C126.968 48.7477 126.968 48.489 126.968 48.2561C126.994 48.0233 127.059 47.7645 127.162 47.4799V37.8938C127.162 37.2988 127.02 36.7166 126.735 36.1474C126.451 35.5782 126.075 35.0736 125.61 34.6338C125.17 34.1939 124.652 33.8447 124.057 33.5859C123.488 33.3013 122.919 33.159 122.35 33.159C121.418 33.159 120.538 33.4178 119.711 33.9352C118.908 34.4268 118.145 34.9313 117.421 35.4488C117.265 35.5523 117.11 35.7075 116.955 35.9145C116.8 36.1215 116.645 36.3285 116.489 36.5355C116.334 36.7425 116.179 36.9236 116.024 37.0788C115.894 37.2341 115.752 37.3117 115.597 37.3117C115.597 37.3117 115.571 37.3117 115.519 37.3117C115.493 37.3117 115.467 37.2988 115.441 37.2729C115.39 36.6002 115.312 36.0439 115.209 35.604C115.105 35.1642 114.924 34.8149 114.665 34.5562C114.406 34.2716 114.044 34.0516 113.579 33.8964C113.139 33.7412 112.544 33.6118 111.793 33.5083C111.793 33.4824 111.703 33.4695 111.522 33.4695C111.366 33.4695 111.25 33.4695 111.172 33.4695C110.603 33.4695 110.073 33.5989 109.581 33.8576C109.115 34.0905 108.883 34.5432 108.883 35.2159C108.883 35.8369 109.038 36.3026 109.348 36.6131C109.685 36.8977 110.034 37.1176 110.396 37.2729C110.784 37.4281 111.133 37.5575 111.444 37.661C111.78 37.7386 111.949 37.868 111.949 38.0491V47.0142C111.871 47.4023 111.806 47.8421 111.754 48.3337C111.729 48.7995 111.69 49.2134 111.638 49.5757L111.483 49.7309C110.707 49.7826 110.06 49.9249 109.542 50.1578C109.025 50.3648 108.766 50.9081 108.766 51.7878ZM137.307 46.0828C137.307 47.3764 137.462 48.5148 137.773 49.498C138.109 50.4812 138.808 51.3868 139.869 52.2147C139.895 52.2406 139.972 52.2794 140.102 52.3312C140.231 52.3829 140.36 52.4476 140.49 52.5252C140.619 52.577 140.748 52.6416 140.878 52.7193C141.007 52.771 141.085 52.7969 141.111 52.7969C141.395 53.0039 141.615 53.1721 141.77 53.3014C141.951 53.4049 142.12 53.4955 142.275 53.5731C142.456 53.6248 142.65 53.6636 142.857 53.6895C143.064 53.7154 143.362 53.7283 143.75 53.7283C144.733 53.7283 145.6 53.4955 146.35 53.0297C147.1 52.5382 147.721 51.9301 148.213 51.2057C148.73 50.4554 149.118 49.6274 149.377 48.7218C149.636 47.8163 149.765 46.9236 149.765 46.0439C149.765 45.5006 149.636 44.9961 149.377 44.5304C149.118 44.0646 148.666 43.8318 148.019 43.8318C147.579 43.8318 147.243 43.987 147.01 44.2975C146.777 44.5821 146.596 44.9443 146.466 45.3842C146.337 45.824 146.208 46.3027 146.078 46.8201C145.975 47.3117 145.82 47.7775 145.613 48.2173C145.431 48.6572 145.16 49.0323 144.798 49.3428C144.435 49.6274 143.944 49.7697 143.323 49.7697C143.09 49.7697 142.844 49.6921 142.585 49.5368C142.327 49.3557 142.081 49.1487 141.848 48.9159C141.641 48.683 141.46 48.4372 141.305 48.1785C141.175 47.9198 141.111 47.6869 141.111 47.4799V36.6907L141.576 36.2638C141.602 36.2379 141.757 36.225 142.042 36.225C142.353 36.1991 142.585 36.1862 142.741 36.1862C143.491 36.1862 144.138 36.2768 144.681 36.4579C145.25 36.6131 145.858 36.6907 146.505 36.6907C147.023 36.6907 147.437 36.5096 147.747 36.1474C148.083 35.7593 148.252 35.3065 148.252 34.789C148.252 34.2457 148.058 33.7412 147.669 33.2754C147.281 32.8097 146.79 32.5769 146.195 32.5769C145.677 32.5769 145.16 32.6157 144.642 32.6933C144.151 32.745 143.633 32.7709 143.09 32.7709C142.883 32.7709 142.598 32.7709 142.236 32.7709C141.9 32.7709 141.719 32.758 141.693 32.7321L141.421 32.4604C141.395 32.4346 141.382 32.2664 141.382 31.9559C141.382 31.6454 141.382 31.4126 141.382 31.2573C141.382 30.6364 141.408 30.0413 141.46 29.4721C141.538 28.9028 141.576 28.3207 141.576 27.7256C141.576 27.1047 141.486 26.5742 141.305 26.1344C141.149 25.6687 140.697 25.4358 139.946 25.4358C139.196 25.4358 138.704 25.6687 138.472 26.1344C138.239 26.5742 138.096 27.1176 138.045 27.7644C138.019 28.3854 138.006 29.0193 138.006 29.6661C138.006 30.3129 137.876 30.8304 137.618 31.2185C137.333 31.6325 136.984 31.8912 136.57 31.9947C136.182 32.0723 135.755 32.1111 135.289 32.1111C134.849 32.1111 134.409 32.1241 133.97 32.15C133.556 32.1758 133.193 32.3181 132.883 32.5769C132.572 32.8615 132.262 33.159 131.951 33.4695C131.667 33.78 131.525 34.1681 131.525 34.6338C131.525 34.9443 131.628 35.2806 131.835 35.6429C132.068 36.0051 132.365 36.1862 132.728 36.1862H137.618V40.4941C137.307 41.3479 137.178 42.2664 137.23 43.2496C137.281 44.2328 137.307 45.1772 137.307 46.0828ZM185.245 47.4799L186.758 52.3312C186.888 52.771 187.172 53.1591 187.612 53.4955C188.052 53.8318 188.505 54 188.971 54C189.488 54 189.954 53.8059 190.368 53.4178C190.808 53.0297 191.028 52.564 191.028 52.0207L190.95 39.4074V38.67L190.872 30.0154L191.028 29.8602C191.286 29.8602 191.584 29.8602 191.92 29.8602C192.257 29.8602 192.58 29.8472 192.89 29.8214C193.227 29.7696 193.537 29.6791 193.822 29.5497C194.107 29.4203 194.339 29.2133 194.52 28.9287C194.52 28.877 194.52 28.7605 194.52 28.5794C194.546 28.3983 194.559 28.2819 194.559 28.2301C194.559 27.4022 194.249 26.8071 193.628 26.4449C193.007 26.0568 192.308 25.8627 191.532 25.8627C191.273 25.8627 191.053 25.8757 190.872 25.9015C190.717 25.9274 190.51 26.005 190.251 26.1344H184.352C183.99 26.1344 183.692 26.2767 183.46 26.5613C183.227 26.82 183.11 27.1047 183.11 27.4151C183.11 27.9585 183.24 28.3854 183.498 28.6959C183.757 29.0063 184.081 29.2521 184.469 29.4333C184.883 29.5885 185.322 29.692 185.788 29.7437C186.254 29.7955 186.681 29.8343 187.069 29.8602L187.457 30.1318V41.0763C187.509 41.128 187.561 41.2574 187.612 41.4644C187.664 41.6713 187.69 41.8007 187.69 41.8525C187.69 41.9818 187.69 42.2018 187.69 42.5122C187.69 42.8227 187.677 43.1461 187.651 43.4825C187.651 43.8188 187.638 44.1423 187.612 44.4527C187.612 44.7632 187.612 44.9831 187.612 45.1125C187.586 45.1125 187.573 45.1384 187.573 45.1901C187.573 45.216 187.561 45.216 187.535 45.1901C187.509 45.1643 187.457 45.0996 187.379 44.9961C187.302 44.8667 187.25 44.7762 187.224 44.7244C186.655 43.5601 186.112 42.3311 185.594 41.0375C185.103 39.7438 184.637 38.5407 184.197 37.4281C184.197 37.4022 184.171 37.3376 184.119 37.2341C184.094 37.1306 184.068 37.0271 184.042 36.9236C184.016 36.7942 183.977 36.6778 183.925 36.5743C183.899 36.4708 183.887 36.4061 183.887 36.3802C183.861 36.3026 183.77 36.1086 183.615 35.7981C183.46 35.4876 183.291 35.1513 183.11 34.789C182.955 34.4268 182.8 34.0905 182.645 33.78C182.489 33.4695 182.399 33.2754 182.373 33.1978C182.321 33.0685 182.205 32.758 182.024 32.2664C181.843 31.7748 181.648 31.2444 181.441 30.6752C181.26 30.106 181.079 29.5885 180.898 29.1228C180.717 28.6312 180.601 28.3207 180.549 28.1913C180.394 27.7515 180.122 27.3116 179.734 26.8718C179.372 26.4319 178.932 26.212 178.414 26.212H174.029C173.408 26.212 172.89 26.4061 172.476 26.7942C172.062 27.1823 171.855 27.6609 171.855 28.2301C171.855 28.3595 171.868 28.5277 171.894 28.7347C171.92 28.9158 171.959 29.0969 172.011 29.278C172.088 29.4333 172.179 29.5756 172.282 29.7049C172.412 29.8084 172.58 29.8602 172.787 29.8602H175.542L175.853 30.1318C175.853 32.7968 175.905 35.4488 176.008 38.0879C176.112 40.7011 176.163 43.3272 176.163 45.9663C176.163 46.5097 176.125 47.0401 176.047 47.5575C175.969 48.0491 175.956 48.5795 176.008 49.1487L175.698 49.4592C175.594 49.4592 175.413 49.4722 175.154 49.498C174.921 49.498 174.663 49.511 174.378 49.5368C174.119 49.5368 173.861 49.5498 173.602 49.5757C173.369 49.5757 173.201 49.5757 173.097 49.5757C172.632 49.6274 172.282 49.8861 172.049 50.3519C171.842 50.7917 171.687 51.1927 171.584 51.555V51.9431C171.584 52.3829 171.726 52.7581 172.011 53.0686C172.321 53.3532 172.683 53.5602 173.097 53.6895C173.253 53.6895 173.511 53.7025 173.874 53.7283C174.262 53.7542 174.663 53.7801 175.077 53.8059C175.491 53.8059 175.879 53.8189 176.241 53.8448C176.629 53.8448 176.901 53.8448 177.056 53.8448H177.638C178.621 53.8448 179.553 53.7801 180.432 53.6507C181.312 53.5213 182.257 53.4825 183.266 53.5343C183.783 53.4049 184.119 53.1462 184.275 52.7581C184.43 52.3441 184.507 51.9301 184.507 51.5162V50.9728L183.887 50.3519C183.861 50.326 183.77 50.2872 183.615 50.2354C183.485 50.1837 183.317 50.1319 183.11 50.0802C182.929 50.0026 182.735 49.9379 182.528 49.8861C182.321 49.8085 182.166 49.7568 182.062 49.7309H181.674C181.441 49.7309 181.235 49.7956 181.053 49.9249C180.898 50.0284 180.704 50.0802 180.471 50.0802C180.29 50.0802 180.057 49.9767 179.773 49.7697C179.488 49.5627 179.346 49.3557 179.346 49.1487V45.1901C179.449 44.9055 179.501 44.6468 179.501 44.4139C179.501 44.1552 179.501 43.8835 179.501 43.5989C179.501 43.3143 179.501 43.0556 179.501 42.8227C179.501 42.564 179.449 42.2923 179.346 42.0077V34.2457H179.501C179.501 34.2457 179.643 34.5821 179.928 35.2548C180.238 35.9275 180.601 36.7295 181.015 37.661C181.454 38.5924 181.894 39.5627 182.334 40.5717C182.774 41.5808 183.136 42.4087 183.421 43.0556C183.757 43.8059 184.042 44.5562 184.275 45.3066C184.533 46.0569 184.857 46.7813 185.245 47.4799ZM196.161 47.7516C196.161 48.9676 196.394 50.0414 196.86 50.9728C197.352 51.8784 198.128 52.6416 199.189 53.2626C199.396 53.392 199.603 53.5343 199.81 53.6895C200.017 53.8189 200.262 53.8836 200.547 53.8836H204.04C204.48 53.8836 204.907 53.8059 205.321 53.6507C205.735 53.4696 206.136 53.2626 206.524 53.0297C206.912 52.771 207.287 52.5123 207.649 52.2535C208.037 51.9948 208.412 51.7749 208.775 51.5938H208.969C209.15 51.5938 209.305 51.6585 209.434 51.7878C209.59 51.9172 209.719 52.0724 209.823 52.2535C209.952 52.4088 210.068 52.577 210.172 52.7581C210.301 52.9133 210.443 53.0297 210.599 53.1074C211.039 53.392 211.44 53.599 211.802 53.7283C212.164 53.8318 212.591 53.8836 213.083 53.8836C213.704 53.8836 214.247 53.7413 214.713 53.4567C215.204 53.1721 215.605 52.8098 215.916 52.37C216.252 51.9043 216.511 51.3868 216.692 50.8176C216.873 50.2484 216.964 49.6792 216.964 49.1099C216.964 48.8512 216.938 48.5925 216.886 48.3337C216.834 48.0491 216.744 47.7904 216.614 47.5575C216.485 47.3247 216.317 47.1306 216.11 46.9754C215.903 46.8201 215.657 46.7425 215.372 46.7425C214.829 46.7425 214.467 46.9236 214.286 47.2859C214.13 47.6481 214.014 48.0621 213.936 48.5278C213.859 48.9676 213.768 49.3687 213.665 49.7309C213.561 50.0931 213.302 50.2742 212.889 50.2742C212.268 50.2742 211.957 49.912 211.957 49.1876V42.6287C212.086 42.3182 212.138 41.9689 212.112 41.5808C212.112 41.1668 212.112 40.8046 212.112 40.4941V39.291C212.112 39.2134 212.086 39.084 212.035 38.9029C212.009 38.6959 211.97 38.4889 211.918 38.2819C211.867 38.0491 211.815 37.8292 211.763 37.6222C211.711 37.4152 211.672 37.2729 211.647 37.1953C211.569 36.8848 211.362 36.5096 211.026 36.0698C210.715 35.6299 210.34 35.2159 209.9 34.8278C209.486 34.4397 209.046 34.1034 208.581 33.8188C208.141 33.5342 207.753 33.3919 207.416 33.3919H201.478C201.064 33.3919 200.702 33.5212 200.392 33.78C200.081 34.0128 199.784 34.2328 199.499 34.4397C199.163 34.6726 198.826 34.9313 198.49 35.2159C198.154 35.4747 197.856 35.7593 197.597 36.0698C197.339 36.3802 197.132 36.7166 196.976 37.0788C196.821 37.4411 196.744 37.855 196.744 38.3207C196.744 39.1228 197.002 39.7955 197.52 40.3389C198.063 40.8822 198.749 41.1539 199.577 41.1539C200.12 41.1539 200.547 41.0504 200.857 40.8434C201.194 40.6105 201.44 40.3389 201.595 40.0284C201.776 39.692 201.905 39.3298 201.983 38.9417C202.061 38.5536 202.125 38.2043 202.177 37.8938C202.255 37.5575 202.332 37.2858 202.41 37.0788C202.487 36.846 202.63 36.7295 202.837 36.7295H206.485C206.511 36.7295 206.679 36.8072 206.989 36.9624C207.3 37.1176 207.533 37.2341 207.688 37.3117C208.102 37.5445 208.387 37.855 208.542 38.2431C208.697 38.6312 208.775 39.0452 208.775 39.4851C208.775 40.106 208.464 40.52 207.843 40.727C207.222 40.934 206.446 41.0763 205.515 41.1539C204.583 41.2315 203.561 41.3221 202.449 41.4256C201.362 41.5032 200.353 41.749 199.421 42.1629C198.49 42.551 197.714 43.1849 197.093 44.0646C196.472 44.9185 196.161 46.1474 196.161 47.7516ZM199.189 47.7128C199.189 47.4282 199.279 47.0918 199.46 46.7037C199.667 46.3156 199.835 46.031 199.965 45.8499C200.224 45.4618 200.521 45.2548 200.857 45.2289C201.504 45.1254 202.138 45.0478 202.759 44.9961C203.406 44.9443 204.04 44.8667 204.661 44.7632C204.738 44.7632 204.945 44.7373 205.282 44.6856C205.644 44.608 206.019 44.5433 206.407 44.4915C206.795 44.4139 207.158 44.3492 207.494 44.2975C207.856 44.2199 208.076 44.1811 208.154 44.1811L208.231 44.1423C208.257 44.1423 208.27 44.1552 208.27 44.1811C208.296 44.1811 208.309 44.1811 208.309 44.1811C208.335 44.1811 208.387 44.2069 208.464 44.2587C208.542 44.2846 208.594 44.2975 208.619 44.2975V44.7632C208.619 45.8758 208.451 46.7813 208.115 47.4799C207.779 48.1785 207.132 48.8512 206.174 49.498C206.123 49.5239 205.993 49.5886 205.786 49.6921C205.605 49.7956 205.489 49.8732 205.437 49.9249C205.334 49.9767 205.204 50.0414 205.049 50.119C204.92 50.1966 204.842 50.2354 204.816 50.2354H200.857C200.599 50.2354 200.366 50.1449 200.159 49.9638C199.952 49.7826 199.771 49.5627 199.615 49.304C199.486 49.0194 199.383 48.7348 199.305 48.4502C199.227 48.1656 199.189 47.9198 199.189 47.7128ZM235.618 53.4955C235.851 53.4955 236.071 53.5731 236.278 53.7283C236.51 53.8577 236.743 53.9353 236.976 53.9612C237.727 54.0906 238.438 54.2458 239.111 54.4269C239.783 54.6339 240.495 54.7374 241.245 54.7374C241.737 54.7374 242.138 54.5045 242.448 54.0388C242.759 53.5731 242.914 53.1203 242.914 52.6805C242.914 52.37 242.849 52.1371 242.72 51.9819C242.617 51.8008 242.474 51.6455 242.293 51.5162C242.138 51.3609 241.97 51.2186 241.789 51.0892C241.633 50.934 241.504 50.727 241.401 50.4683V48.7218C241.401 48.4372 241.388 48.0491 241.362 47.5575C241.362 47.0401 241.426 46.6002 241.556 46.238V37.5834C241.556 37.5316 241.53 37.4281 241.478 37.2729C241.452 37.1176 241.426 37.0141 241.401 36.9624C241.219 36.5484 241.025 36.1603 240.818 35.7981C240.611 35.41 240.366 35.0736 240.081 34.789C239.796 34.4786 239.46 34.2328 239.072 34.0516C238.71 33.8705 238.296 33.78 237.83 33.78C237.183 33.78 236.666 33.8576 236.278 34.0128C235.915 34.1681 235.592 34.3621 235.307 34.595C235.023 34.8278 234.738 35.0995 234.454 35.41C234.195 35.7205 233.871 36.031 233.483 36.3414C233.147 36.0827 232.849 35.7981 232.591 35.4876C232.332 35.1771 232.06 34.8925 231.776 34.6338C231.517 34.3492 231.206 34.1163 230.844 33.9352C230.482 33.7282 230.029 33.6247 229.486 33.6247C229.201 33.6247 228.891 33.7024 228.554 33.8576C228.218 34.0128 227.895 34.194 227.584 34.4009C227.274 34.6079 226.989 34.8408 226.73 35.0995C226.472 35.3583 226.252 35.5782 226.071 35.7593H225.993H225.915C225.838 35.7334 225.734 35.6558 225.605 35.5264C225.501 35.3712 225.385 35.2289 225.256 35.0995C225.126 34.9443 225.01 34.802 224.906 34.6726C224.803 34.5432 224.725 34.4527 224.673 34.4009C224.466 34.194 224.195 34.0905 223.858 34.0905C223.522 34.0646 223.212 34.0516 222.927 34.0516C222.254 34.0516 221.672 34.1681 221.181 34.4009C220.689 34.6338 220.443 35.1383 220.443 35.9145C220.443 36.4061 220.56 36.7683 220.792 37.0012C221.025 37.2341 221.284 37.4022 221.569 37.5057C221.879 37.6092 222.151 37.6869 222.384 37.7386C222.616 37.7903 222.733 37.8809 222.733 38.0103V48.2173L222.422 50.313C222.397 50.4942 222.254 50.6235 221.996 50.7011C221.763 50.7529 221.504 50.8305 221.219 50.934C220.961 51.0375 220.715 51.1927 220.482 51.3997C220.249 51.6067 220.133 51.9431 220.133 52.4088C220.133 52.6934 220.21 52.978 220.366 53.2626C220.547 53.5213 220.754 53.7542 220.986 53.9612C221.245 54.1423 221.53 54.2846 221.84 54.3881C222.151 54.5175 222.448 54.5822 222.733 54.5822H225.915C226.122 54.5822 226.329 54.5304 226.536 54.4269C226.769 54.3234 226.976 54.1941 227.157 54.0388C227.364 53.9094 227.545 53.7671 227.701 53.6119C227.882 53.4567 228.037 53.3273 228.166 53.2238H228.244C228.373 53.2238 228.58 53.3014 228.865 53.4567C229.15 53.586 229.46 53.7413 229.796 53.9224C230.133 54.0776 230.456 54.2199 230.767 54.3493C231.077 54.5045 231.336 54.5822 231.543 54.5822H233.794C234.001 54.5822 234.169 54.5175 234.298 54.3881C234.454 54.2846 234.596 54.1682 234.725 54.0388C234.855 53.9094 234.984 53.793 235.113 53.6895C235.269 53.5602 235.437 53.4955 235.618 53.4955ZM229.253 37.4281C229.305 37.4281 229.382 37.4281 229.486 37.4281C229.589 37.4022 229.667 37.3893 229.719 37.3893C229.848 37.3893 230.029 37.4152 230.262 37.4669C230.495 37.4928 230.611 37.6351 230.611 37.8938V49.8861C230.611 50.0155 230.495 50.1837 230.262 50.3907C230.055 50.5977 229.809 50.8176 229.525 51.0504C229.24 51.2833 228.955 51.5032 228.671 51.7102C228.412 51.8913 228.244 52.0336 228.166 52.1371H228.05C227.998 52.0595 227.843 51.9043 227.584 51.6714C227.351 51.4385 227.196 51.2962 227.118 51.2445C227.067 51.2186 226.911 51.1669 226.653 51.0892C226.42 51.0116 226.278 50.9599 226.226 50.934C226.174 50.9081 226.109 50.8564 226.032 50.7788C225.954 50.7011 225.915 50.6494 225.915 50.6235V43.3272C225.915 42.8098 226.006 42.2664 226.187 41.6972C226.368 41.1021 226.614 40.5329 226.924 39.9896C227.235 39.4462 227.584 38.9546 227.972 38.5148C228.386 38.0491 228.813 37.6869 229.253 37.4281ZM233.483 48.1397C233.483 46.9236 233.535 45.7076 233.639 44.4915C233.742 43.2755 234.001 42.0853 234.415 40.921C234.415 40.8951 234.454 40.8175 234.531 40.6882C234.635 40.5588 234.699 40.4812 234.725 40.4553C234.777 40.3777 234.855 40.2354 234.958 40.0284C235.087 39.7955 235.217 39.5627 235.346 39.3298C235.476 39.0711 235.592 38.8382 235.695 38.6312C235.799 38.3984 235.877 38.2431 235.928 38.1655C236.135 37.9585 236.342 37.7774 236.549 37.6222C236.756 37.4669 237.002 37.3893 237.287 37.3893C237.416 37.3893 237.597 37.4152 237.83 37.4669C238.089 37.4928 238.218 37.6351 238.218 37.8938V50.1966C238.218 50.4295 238.141 50.6106 237.985 50.74C237.856 50.8435 237.688 50.934 237.481 51.0116C237.274 51.0634 237.067 51.1151 236.86 51.1669C236.653 51.1927 236.498 51.2186 236.394 51.2445L235.773 51.555H235.618H235.463C234.997 51.3997 234.622 51.2316 234.337 51.0504C234.078 50.8435 233.884 50.6106 233.755 50.3519C233.626 50.0673 233.548 49.7568 233.522 49.4204C233.496 49.0582 233.483 48.6313 233.483 48.1397ZM244.559 44.4527C244.559 45.7205 244.753 46.9366 245.141 48.1009C245.529 49.2393 246.085 50.2484 246.81 51.1281C247.534 52.0078 248.427 52.7063 249.488 53.2238C250.548 53.7413 251.739 54 253.058 54C254.404 54 255.71 53.7542 256.978 53.2626C258.246 52.771 259.268 51.956 260.044 50.8176C260.354 50.3519 260.639 49.8861 260.898 49.4204C261.156 48.9288 261.286 48.3855 261.286 47.7904C261.286 47.4282 261.156 47.1306 260.898 46.8978C260.665 46.6649 260.354 46.5485 259.966 46.5485C259.552 46.5485 259.203 46.652 258.918 46.859C258.634 47.0659 258.362 47.3247 258.103 47.6352C257.871 47.9456 257.638 48.2691 257.405 48.6054C257.198 48.9418 256.965 49.2264 256.706 49.4592C256.37 49.7438 255.969 49.9508 255.503 50.0802C255.037 50.1837 254.623 50.3777 254.261 50.6623C254.184 50.6623 254.002 50.6753 253.718 50.7011C253.459 50.7011 253.291 50.7011 253.213 50.7011C252.437 50.7011 251.726 50.5588 251.079 50.2742C250.432 49.9638 249.863 49.5627 249.371 49.0711C248.905 48.5537 248.53 47.9586 248.246 47.2859C247.987 46.6132 247.858 45.9016 247.858 45.1513C247.858 45.0996 247.858 44.9961 247.858 44.8408C247.883 44.6856 247.896 44.595 247.896 44.5692L248.052 44.4527C248.052 44.4527 248.194 44.4398 248.479 44.4139C248.763 44.3881 249.099 44.3751 249.488 44.3751C249.876 44.3492 250.264 44.3363 250.652 44.3363C251.066 44.3104 251.415 44.2975 251.7 44.2975C251.984 44.2975 252.489 44.2975 253.213 44.2975C253.964 44.2716 254.74 44.2587 255.542 44.2587C256.37 44.2587 257.146 44.2716 257.871 44.2975C258.621 44.2975 259.138 44.2975 259.423 44.2975C259.837 44.2199 260.238 44.1164 260.626 43.987C261.014 43.8576 261.325 43.5989 261.558 43.2108C261.558 43.1591 261.558 43.0556 261.558 42.9003C261.583 42.7192 261.596 42.6028 261.596 42.551C261.596 42.3182 261.545 41.9689 261.441 41.5032C261.338 41.0116 261.208 40.52 261.053 40.0284C260.924 39.5109 260.768 39.0452 260.587 38.6312C260.432 38.1914 260.303 37.8938 260.199 37.7386C259.216 36.4967 258.155 35.4876 257.017 34.7114C255.878 33.9093 254.481 33.5083 252.825 33.5083C252.541 33.5083 252.243 33.5083 251.933 33.5083C251.648 33.4824 251.363 33.5342 251.079 33.6635C251.001 33.6894 250.859 33.7541 250.652 33.8576C250.471 33.9352 250.264 34.0387 250.031 34.1681C249.798 34.2716 249.578 34.3751 249.371 34.4786C249.164 34.5821 249.022 34.6597 248.944 34.7114C248.09 35.1771 247.379 35.7852 246.81 36.5355C246.266 37.2599 245.827 38.062 245.49 38.9417C245.154 39.7955 244.908 40.7011 244.753 41.6584C244.623 42.6157 244.559 43.5472 244.559 44.4527ZM248.207 40.8822C248.207 40.2354 248.362 39.6791 248.673 39.2134C248.983 38.7218 249.371 38.3207 249.837 38.0103C250.303 37.6998 250.82 37.4799 251.389 37.3505C251.959 37.1953 252.515 37.1176 253.058 37.1176C253.55 37.1176 254.067 37.1823 254.611 37.3117C255.18 37.4152 255.697 37.5963 256.163 37.855C256.629 38.0879 257.017 38.4242 257.327 38.8641C257.638 39.2781 257.793 39.7955 257.793 40.4165C257.793 40.4682 257.793 40.5588 257.793 40.6882C257.793 40.8175 257.78 40.9081 257.754 40.9598C257.702 41.0116 257.625 41.0763 257.521 41.1539C257.444 41.2056 257.379 41.2315 257.327 41.2315H248.362C248.259 41.2315 248.207 41.1927 248.207 41.1151C248.207 41.0116 248.207 40.934 248.207 40.8822Z" fill="white"/>
</svg>
