<svg width="400" height="770" viewBox="0 0 400 770" fill="none" xmlns="http://www.w3.org/2000/svg">
<mask id="path-1-inside-1_70_496" fill="white">
<path d="M400 0H0V770H400V0Z"/>
</mask>
<path d="M400 0H0V770H400V0Z" fill="#601822"/>
<path d="M400 0V-2H402V0H400ZM0 0H-2V-2H0V0ZM400 2H0V-2H400V2ZM2 0V770H-2V0H2ZM398 770V0H402V770H398Z" fill="black" mask="url(#path-1-inside-1_70_496)"/>
<path d="M122.5 243C122.5 285.808 157.051 320.5 199.658 320.5C242.265 320.5 276.816 285.808 276.816 243C276.816 200.192 242.265 165.5 199.658 165.5C157.051 165.5 122.5 200.192 122.5 243Z" fill="#686161" stroke="black" stroke-width="3"/>
<path d="M303.439 391.119L358.453 392.689L358.453 380.725L303.468 383.084L303.439 391.119Z" fill="#D9AC55" stroke="black"/>
<path d="M296.5 387C296.5 390.558 299.601 393.5 303.5 393.5C307.399 393.5 310.5 390.558 310.5 387C310.5 383.442 307.399 380.5 303.5 380.5C299.601 380.5 296.5 383.442 296.5 387Z" fill="#D9AC55" stroke="black"/>
<path d="M351.5 387C351.5 393.332 356.853 398.5 363.5 398.5C370.147 398.5 375.5 393.332 375.5 387C375.5 380.668 370.147 375.5 363.5 375.5C356.853 375.5 351.5 380.668 351.5 387Z" fill="#D9AC55" stroke="black"/>
<path d="M308.509 383.376L354.409 381.404L354.495 392.087L307.925 390.747L308.509 383.376Z" fill="#D9AC55"/>
<rect x="51" y="60" width="297" height="74" fill="#89721E" stroke="black" stroke-width="2"/>
<path d="M91.8994 111.254C91.8994 111.693 91.9771 112.03 92.1323 112.263C92.2875 112.495 92.4945 112.677 92.7533 112.806C93.0379 112.909 93.3483 112.974 93.6847 113C94.0211 113 94.3703 113 94.7326 113C95.0431 113 95.4053 113 95.8193 113C96.2332 113.026 96.6084 112.974 96.9447 112.845H109.868C110.153 112.948 110.412 113 110.645 113C110.903 113 111.175 113 111.46 113C112.391 113 113.141 112.741 113.711 112.224C114.28 111.706 114.564 110.969 114.564 110.012C114.564 109.727 114.552 109.494 114.526 109.313C114.526 109.106 114.461 108.86 114.332 108.576V103.259C114.332 102.767 114.163 102.275 113.827 101.784C113.491 101.266 113.051 101.008 112.508 101.008C112.068 101.008 111.693 101.176 111.382 101.512C111.072 101.849 110.916 102.237 110.916 102.677V106.48C110.916 106.558 110.878 106.687 110.8 106.868C110.722 107.023 110.658 107.14 110.606 107.217C110.27 107.838 109.92 108.252 109.558 108.459C109.196 108.64 108.795 108.744 108.355 108.77C107.941 108.796 107.475 108.809 106.958 108.809C106.466 108.783 105.91 108.86 105.289 109.041H101.369L101.059 108.731V100.232C101.059 100.232 101.072 100.193 101.097 100.115C101.123 100.037 101.162 99.9728 101.214 99.921C101.214 99.8175 101.266 99.7658 101.369 99.7658H103.038C103.193 99.7658 103.374 99.8693 103.581 100.076C103.814 100.257 104.034 100.477 104.241 100.736C104.474 100.969 104.668 101.215 104.823 101.473C104.978 101.732 105.082 101.926 105.134 102.056C105.134 102.366 105.134 102.767 105.134 103.259C105.134 103.75 105.185 104.229 105.289 104.695C105.392 105.135 105.574 105.523 105.832 105.859C106.091 106.169 106.479 106.325 106.997 106.325C107.799 106.325 108.2 105.911 108.2 105.083V92.3531C108.2 91.9132 108.07 91.551 107.812 91.2664C107.553 90.9559 107.216 90.8007 106.802 90.8007C106.285 90.8007 105.936 90.9688 105.755 91.3052C105.574 91.6415 105.457 92.0426 105.405 92.5083C105.354 92.974 105.315 93.4527 105.289 93.9443C105.263 94.41 105.16 94.7852 104.978 95.0698C104.771 95.4061 104.487 95.639 104.125 95.7683C103.788 95.8977 103.478 96.0659 103.193 96.2729H101.214L101.059 96.1176C101.059 96.1176 101.046 96.053 101.02 95.9236C100.994 95.7942 100.955 95.6519 100.903 95.4967C100.877 95.3156 100.852 95.1345 100.826 94.9533C100.8 94.7464 100.774 94.5782 100.748 94.4488V94.41V94.3324C100.748 94.2806 100.774 94.1254 100.826 93.8667C100.877 93.6079 100.903 93.4527 100.903 93.4009C100.903 93.2457 100.903 92.9611 100.903 92.5471C100.929 92.1331 100.955 91.6933 100.981 91.2276C101.007 90.7619 101.02 90.322 101.02 89.908C101.046 89.4682 101.059 89.1706 101.059 89.0154L101.214 88.8602H108.627C108.834 88.8602 109.079 89.0025 109.364 89.2871C109.674 89.5458 109.894 89.7528 110.024 89.908C110.127 90.0633 110.257 90.2961 110.412 90.6066C110.593 90.9171 110.683 91.0853 110.683 91.1111V95.225C110.683 95.639 110.852 95.9753 111.188 96.2341C111.55 96.4928 111.912 96.6222 112.275 96.6222C112.715 96.6222 113.103 96.4799 113.439 96.1953C113.775 95.9107 113.944 95.5355 113.944 95.0698V86.8809C113.944 86.4928 113.814 86.0788 113.555 85.6389C113.297 85.1991 112.973 84.9533 112.585 84.9015C109.429 84.9274 106.285 84.9145 103.154 84.8627C100.024 84.7851 96.8801 84.7463 93.7235 84.7463C93.0508 84.7463 92.5333 84.9662 92.1711 85.4061C91.8089 85.82 91.6278 86.3375 91.6278 86.9585C91.6278 87.7088 91.8477 88.2392 92.2875 88.5497C92.7274 88.8602 93.2966 89.0154 93.9952 89.0154C94.435 89.0154 94.849 88.9895 95.2371 88.9378C95.6511 88.8602 96.078 88.8214 96.5178 88.8214C96.6213 88.8214 96.7636 88.8214 96.9447 88.8214C97.1259 88.8214 97.2294 88.8343 97.2552 88.8602L97.5657 89.1318V90.1021C97.5657 90.4126 97.5657 90.7877 97.5657 91.2276C97.5916 91.6415 97.5398 92.0167 97.4105 92.3531L97.4881 97.67V98.4074L97.5657 107.528C97.5657 107.683 97.5269 107.903 97.4493 108.188C97.3717 108.446 97.2552 108.627 97.1 108.731C96.9706 108.731 96.8024 108.757 96.5955 108.809C96.3885 108.834 96.1685 108.873 95.9357 108.925C95.7028 108.951 95.47 108.977 95.2371 109.003C95.0301 109.028 94.8619 109.041 94.7326 109.041H94.655C94.6032 109.041 94.448 109.028 94.1892 109.003C93.9564 108.951 93.8141 108.912 93.7623 108.886H93.5295C93.1931 108.886 92.9214 108.964 92.7145 109.119C92.5075 109.248 92.3393 109.429 92.2099 109.662C92.1064 109.895 92.0288 110.154 91.9771 110.439C91.9253 110.723 91.8994 110.995 91.8994 111.254ZM119.543 96.1176C119.647 96.1176 119.698 96.1694 119.698 96.2729C120.061 96.9456 120.358 97.6442 120.591 98.3686C120.85 99.0672 121.108 99.7787 121.367 100.503C121.393 100.581 121.445 100.762 121.522 101.047C121.626 101.331 121.716 101.642 121.794 101.978C121.898 102.288 121.988 102.586 122.066 102.871C122.169 103.155 122.234 103.336 122.26 103.414C122.286 103.44 122.324 103.517 122.376 103.647C122.454 103.776 122.519 103.918 122.57 104.074C122.648 104.229 122.713 104.384 122.764 104.539C122.842 104.669 122.881 104.746 122.881 104.772C122.907 104.876 122.971 105.044 123.075 105.277C123.178 105.51 123.269 105.755 123.346 106.014C123.45 106.273 123.541 106.519 123.618 106.752C123.722 106.984 123.786 107.14 123.812 107.217C124.045 107.916 124.291 108.744 124.55 109.701C124.834 110.658 125.196 111.499 125.636 112.224C125.843 112.56 126.167 112.819 126.607 113C127.046 113.181 127.447 113.272 127.81 113.272C128.172 113.272 128.56 113.142 128.974 112.884C129.388 112.599 129.634 112.276 129.711 111.913C130.384 109.714 131.096 107.541 131.846 105.393C132.596 103.22 133.308 101.034 133.98 98.8343C134.084 98.6532 134.187 98.4204 134.291 98.1358C134.394 97.8253 134.498 97.5148 134.601 97.2043C134.705 96.8938 134.808 96.6092 134.912 96.3505C135.041 96.0918 135.184 95.9107 135.339 95.8072C135.572 95.8072 135.869 95.8072 136.231 95.8072C136.62 95.8072 136.982 95.7683 137.318 95.6907C137.654 95.6131 137.939 95.4837 138.172 95.3026C138.431 95.1215 138.56 94.8369 138.56 94.4488C138.56 94.0607 138.469 93.7502 138.288 93.5174C138.133 93.2845 137.926 93.1034 137.667 92.974C137.409 92.8447 137.111 92.7541 136.775 92.7024C136.464 92.6247 136.141 92.5471 135.804 92.4695C135.623 92.4695 135.313 92.4695 134.873 92.4695C134.459 92.4436 134.006 92.4177 133.515 92.3919C133.023 92.366 132.557 92.3531 132.118 92.3531C131.704 92.3272 131.406 92.3143 131.225 92.3143H130.798C130.255 92.3143 129.75 92.4436 129.284 92.7024C128.845 92.9611 128.625 93.388 128.625 93.9831C128.625 94.4229 128.741 94.7205 128.974 94.8757C129.233 95.031 129.53 95.1474 129.867 95.225C130.203 95.2768 130.539 95.3414 130.876 95.4191C131.238 95.4967 131.51 95.6778 131.691 95.9624C131.691 96.0141 131.691 96.1047 131.691 96.2341C131.717 96.3634 131.729 96.454 131.729 96.5057C131.729 96.6351 131.639 96.9973 131.458 97.5924C131.277 98.1875 131.044 98.899 130.759 99.727C130.475 100.555 130.164 101.435 129.828 102.366C129.491 103.297 129.168 104.164 128.857 104.966C128.573 105.743 128.301 106.402 128.042 106.946C127.81 107.463 127.654 107.748 127.577 107.799L127.422 107.644C127.422 107.644 127.37 107.567 127.266 107.411C127.189 107.23 127.085 107.023 126.956 106.79C126.852 106.558 126.749 106.325 126.645 106.092C126.542 105.859 126.451 105.665 126.374 105.51C126.089 104.863 125.869 104.242 125.714 103.647C125.559 103.052 125.378 102.418 125.171 101.745C125.041 101.409 124.873 101.008 124.666 100.542C124.459 100.05 124.252 99.5588 124.045 99.0672C123.864 98.5756 123.696 98.0969 123.541 97.6312C123.385 97.1396 123.308 96.7127 123.308 96.3505C123.308 96.04 123.476 95.846 123.812 95.7683C124.174 95.6649 124.563 95.5743 124.976 95.4967C125.416 95.4191 125.804 95.3026 126.141 95.1474C126.503 94.9663 126.684 94.6299 126.684 94.1383C126.684 93.7502 126.594 93.4527 126.412 93.2457C126.257 93.0128 126.05 92.8447 125.792 92.7412C125.533 92.6118 125.248 92.5342 124.938 92.5083C124.627 92.4824 124.33 92.4695 124.045 92.4695C123.683 92.4695 123.321 92.4954 122.958 92.5471C122.622 92.5989 122.273 92.6247 121.911 92.6247H121.833C121.781 92.6247 121.639 92.5989 121.406 92.5471C121.199 92.4954 120.979 92.4436 120.746 92.3919C120.513 92.3401 120.293 92.2884 120.086 92.2366C119.879 92.1849 119.75 92.159 119.698 92.159H119.31C118.922 92.159 118.547 92.1849 118.185 92.2366C117.823 92.2884 117.486 92.3919 117.176 92.5471C116.891 92.7024 116.658 92.9223 116.477 93.2069C116.296 93.4656 116.205 93.802 116.205 94.2159V94.9145C116.619 95.4579 117.124 95.7813 117.719 95.8848C118.314 95.9883 118.922 96.0659 119.543 96.1176ZM140.139 103.453C140.139 104.721 140.333 105.937 140.721 107.101C141.109 108.239 141.665 109.248 142.39 110.128C143.114 111.008 144.007 111.706 145.068 112.224C146.128 112.741 147.319 113 148.638 113C149.984 113 151.29 112.754 152.558 112.263C153.826 111.771 154.848 110.956 155.624 109.818C155.934 109.352 156.219 108.886 156.478 108.42C156.737 107.929 156.866 107.385 156.866 106.79C156.866 106.428 156.737 106.131 156.478 105.898C156.245 105.665 155.934 105.548 155.546 105.548C155.132 105.548 154.783 105.652 154.498 105.859C154.214 106.066 153.942 106.325 153.683 106.635C153.451 106.946 153.218 107.269 152.985 107.605C152.778 107.942 152.545 108.226 152.286 108.459C151.95 108.744 151.549 108.951 151.083 109.08C150.617 109.184 150.204 109.378 149.841 109.662C149.764 109.662 149.583 109.675 149.298 109.701C149.039 109.701 148.871 109.701 148.793 109.701C148.017 109.701 147.306 109.559 146.659 109.274C146.012 108.964 145.443 108.563 144.951 108.071C144.486 107.554 144.11 106.959 143.826 106.286C143.567 105.613 143.438 104.902 143.438 104.151C143.438 104.1 143.438 103.996 143.438 103.841C143.464 103.686 143.476 103.595 143.476 103.569L143.632 103.453C143.632 103.453 143.774 103.44 144.059 103.414C144.343 103.388 144.68 103.375 145.068 103.375C145.456 103.349 145.844 103.336 146.232 103.336C146.646 103.31 146.995 103.297 147.28 103.297C147.564 103.297 148.069 103.297 148.793 103.297C149.544 103.272 150.32 103.259 151.122 103.259C151.95 103.259 152.726 103.272 153.451 103.297C154.201 103.297 154.718 103.297 155.003 103.297C155.417 103.22 155.818 103.116 156.206 102.987C156.594 102.858 156.905 102.599 157.138 102.211C157.138 102.159 157.138 102.056 157.138 101.9C157.163 101.719 157.176 101.603 157.176 101.551C157.176 101.318 157.125 100.969 157.021 100.503C156.918 100.012 156.788 99.52 156.633 99.0284C156.504 98.5109 156.348 98.0452 156.167 97.6312C156.012 97.1914 155.883 96.8938 155.779 96.7386C154.796 95.4967 153.735 94.4876 152.597 93.7114C151.458 92.9093 150.061 92.5083 148.405 92.5083C148.121 92.5083 147.823 92.5083 147.513 92.5083C147.228 92.4824 146.943 92.5342 146.659 92.6635C146.581 92.6894 146.439 92.7541 146.232 92.8576C146.051 92.9352 145.844 93.0387 145.611 93.1681C145.378 93.2716 145.158 93.3751 144.951 93.4786C144.744 93.5821 144.602 93.6597 144.524 93.7114C143.67 94.1771 142.959 94.7852 142.39 95.5355C141.846 96.2599 141.407 97.062 141.07 97.9417C140.734 98.7955 140.488 99.7011 140.333 100.658C140.203 101.616 140.139 102.547 140.139 103.453ZM143.787 99.8822C143.787 99.2354 143.942 98.6791 144.253 98.2134C144.563 97.7218 144.951 97.3207 145.417 97.0103C145.883 96.6998 146.4 96.4799 146.969 96.3505C147.539 96.1953 148.095 96.1176 148.638 96.1176C149.13 96.1176 149.647 96.1823 150.191 96.3117C150.76 96.4152 151.277 96.5963 151.743 96.855C152.209 97.0879 152.597 97.4242 152.907 97.8641C153.218 98.2781 153.373 98.7955 153.373 99.4165C153.373 99.4682 153.373 99.5588 153.373 99.6882C153.373 99.8175 153.36 99.9081 153.334 99.9598C153.282 100.012 153.205 100.076 153.101 100.154C153.024 100.206 152.959 100.232 152.907 100.232H143.942C143.839 100.232 143.787 100.193 143.787 100.115C143.787 100.012 143.787 99.934 143.787 99.8822ZM158.766 110.788C158.766 111.357 158.87 111.771 159.077 112.03C159.284 112.288 159.555 112.47 159.892 112.573C160.254 112.677 160.655 112.741 161.095 112.767C161.535 112.767 161.974 112.793 162.414 112.845C162.466 112.845 162.595 112.871 162.802 112.922C163.009 112.974 163.139 113 163.19 113H164.782H166.373C166.89 112.948 167.343 112.793 167.731 112.534C168.145 112.25 168.352 111.836 168.352 111.292C168.352 110.62 168.21 110.154 167.925 109.895C167.667 109.636 167.343 109.455 166.955 109.352C166.593 109.248 166.231 109.184 165.868 109.158C165.532 109.106 165.286 108.964 165.131 108.731V108.149C165.131 107.864 165.131 107.631 165.131 107.45C165.157 107.269 165.234 107.049 165.364 106.79V102.366C165.364 102.366 165.428 102.25 165.558 102.017C165.713 101.784 165.83 101.603 165.907 101.473C165.933 101.422 165.985 101.344 166.062 101.241C166.14 101.111 166.192 101.034 166.218 101.008C166.502 100.516 166.826 99.9986 167.188 99.4553C167.576 98.8861 168.003 98.3686 168.469 97.9029C168.934 97.4372 169.439 97.0491 169.982 96.7386C170.551 96.4281 171.159 96.2729 171.806 96.2729C172.194 96.2729 172.57 96.3117 172.932 96.3893C173.294 96.4411 173.592 96.661 173.824 97.0491C173.824 97.1267 173.824 97.269 173.824 97.476C173.85 97.683 173.863 97.9029 173.863 98.1358C173.889 98.3427 173.902 98.5497 173.902 98.7567C173.928 98.9637 173.941 99.106 173.941 99.1836C173.967 99.2354 173.993 99.3906 174.018 99.6494C174.07 99.8822 174.096 100.025 174.096 100.076V100.154V100.232C174.096 100.309 174.057 100.464 173.98 100.697C173.928 100.93 173.889 101.085 173.863 101.163V107.062L173.514 108.576L173.359 108.731C172.531 108.783 171.832 108.951 171.263 109.235C170.72 109.494 170.448 110.115 170.448 111.098C170.448 111.926 170.862 112.457 171.69 112.69C171.897 112.69 172.259 112.702 172.777 112.728C173.294 112.754 173.837 112.78 174.407 112.806C175.002 112.806 175.558 112.819 176.075 112.845C176.593 112.845 176.955 112.845 177.162 112.845H177.744C178.365 112.845 178.87 112.741 179.258 112.534C179.672 112.301 179.879 111.849 179.879 111.176C179.879 110.348 179.594 109.766 179.025 109.429C178.482 109.093 177.861 108.86 177.162 108.731L177.007 108.576C177.007 108.576 176.994 108.511 176.968 108.382C176.968 108.226 176.968 108.11 176.968 108.032C176.968 107.748 176.968 107.489 176.968 107.256C176.994 107.023 177.059 106.765 177.162 106.48V96.8938C177.162 96.2988 177.02 95.7166 176.735 95.1474C176.451 94.5782 176.075 94.0736 175.61 93.6338C175.17 93.1939 174.652 92.8447 174.057 92.5859C173.488 92.3013 172.919 92.159 172.35 92.159C171.418 92.159 170.538 92.4178 169.711 92.9352C168.908 93.4268 168.145 93.9313 167.421 94.4488C167.265 94.5523 167.11 94.7075 166.955 94.9145C166.8 95.1215 166.645 95.3285 166.489 95.5355C166.334 95.7425 166.179 95.9236 166.024 96.0788C165.894 96.2341 165.752 96.3117 165.597 96.3117C165.597 96.3117 165.571 96.3117 165.519 96.3117C165.493 96.3117 165.467 96.2988 165.441 96.2729C165.39 95.6002 165.312 95.0439 165.209 94.604C165.105 94.1642 164.924 93.8149 164.665 93.5562C164.406 93.2716 164.044 93.0516 163.579 92.8964C163.139 92.7412 162.544 92.6118 161.793 92.5083C161.793 92.4824 161.703 92.4695 161.522 92.4695C161.366 92.4695 161.25 92.4695 161.172 92.4695C160.603 92.4695 160.073 92.5989 159.581 92.8576C159.115 93.0905 158.883 93.5432 158.883 94.2159C158.883 94.8369 159.038 95.3026 159.348 95.6131C159.685 95.8977 160.034 96.1176 160.396 96.2729C160.784 96.4281 161.133 96.5575 161.444 96.661C161.78 96.7386 161.949 96.868 161.949 97.0491V106.014C161.871 106.402 161.806 106.842 161.754 107.334C161.729 107.799 161.69 108.213 161.638 108.576L161.483 108.731C160.707 108.783 160.06 108.925 159.542 109.158C159.025 109.365 158.766 109.908 158.766 110.788ZM187.307 105.083C187.307 106.376 187.462 107.515 187.773 108.498C188.109 109.481 188.808 110.387 189.869 111.215C189.895 111.241 189.972 111.279 190.102 111.331C190.231 111.383 190.36 111.448 190.49 111.525C190.619 111.577 190.748 111.642 190.878 111.719C191.007 111.771 191.085 111.797 191.111 111.797C191.395 112.004 191.615 112.172 191.77 112.301C191.951 112.405 192.12 112.495 192.275 112.573C192.456 112.625 192.65 112.664 192.857 112.69C193.064 112.715 193.362 112.728 193.75 112.728C194.733 112.728 195.6 112.495 196.35 112.03C197.1 111.538 197.721 110.93 198.213 110.206C198.73 109.455 199.118 108.627 199.377 107.722C199.636 106.816 199.765 105.924 199.765 105.044C199.765 104.501 199.636 103.996 199.377 103.53C199.118 103.065 198.666 102.832 198.019 102.832C197.579 102.832 197.243 102.987 197.01 103.297C196.777 103.582 196.596 103.944 196.466 104.384C196.337 104.824 196.208 105.303 196.078 105.82C195.975 106.312 195.82 106.777 195.613 107.217C195.431 107.657 195.16 108.032 194.798 108.343C194.435 108.627 193.944 108.77 193.323 108.77C193.09 108.77 192.844 108.692 192.585 108.537C192.327 108.356 192.081 108.149 191.848 107.916C191.641 107.683 191.46 107.437 191.305 107.178C191.175 106.92 191.111 106.687 191.111 106.48V95.6907L191.576 95.2638C191.602 95.2379 191.757 95.225 192.042 95.225C192.353 95.1991 192.585 95.1862 192.741 95.1862C193.491 95.1862 194.138 95.2768 194.681 95.4579C195.25 95.6131 195.858 95.6907 196.505 95.6907C197.023 95.6907 197.437 95.5096 197.747 95.1474C198.083 94.7593 198.252 94.3065 198.252 93.789C198.252 93.2457 198.058 92.7412 197.669 92.2754C197.281 91.8097 196.79 91.5769 196.195 91.5769C195.677 91.5769 195.16 91.6157 194.642 91.6933C194.151 91.745 193.633 91.7709 193.09 91.7709C192.883 91.7709 192.598 91.7709 192.236 91.7709C191.9 91.7709 191.719 91.758 191.693 91.7321L191.421 91.4604C191.395 91.4346 191.382 91.2664 191.382 90.9559C191.382 90.6454 191.382 90.4126 191.382 90.2573C191.382 89.6364 191.408 89.0413 191.46 88.4721C191.538 87.9028 191.576 87.3207 191.576 86.7256C191.576 86.1047 191.486 85.5742 191.305 85.1344C191.149 84.6687 190.697 84.4358 189.946 84.4358C189.196 84.4358 188.704 84.6687 188.472 85.1344C188.239 85.5742 188.096 86.1176 188.045 86.7644C188.019 87.3854 188.006 88.0193 188.006 88.6661C188.006 89.3129 187.876 89.8304 187.618 90.2185C187.333 90.6325 186.984 90.8912 186.57 90.9947C186.182 91.0723 185.755 91.1111 185.289 91.1111C184.849 91.1111 184.409 91.1241 183.97 91.15C183.556 91.1758 183.193 91.3181 182.883 91.5769C182.572 91.8615 182.262 92.159 181.951 92.4695C181.667 92.78 181.525 93.1681 181.525 93.6338C181.525 93.9443 181.628 94.2806 181.835 94.6429C182.068 95.0051 182.365 95.1862 182.728 95.1862H187.618V99.4941C187.307 100.348 187.178 101.266 187.23 102.25C187.281 103.233 187.307 104.177 187.307 105.083ZM235.245 106.48L236.758 111.331C236.888 111.771 237.172 112.159 237.612 112.495C238.052 112.832 238.505 113 238.971 113C239.488 113 239.954 112.806 240.368 112.418C240.808 112.03 241.028 111.564 241.028 111.021L240.95 98.4074V97.67L240.872 89.0154L241.028 88.8602C241.286 88.8602 241.584 88.8602 241.92 88.8602C242.257 88.8602 242.58 88.8472 242.89 88.8214C243.227 88.7696 243.537 88.6791 243.822 88.5497C244.107 88.4203 244.339 88.2133 244.52 87.9287C244.52 87.877 244.52 87.7605 244.52 87.5794C244.546 87.3983 244.559 87.2819 244.559 87.2301C244.559 86.4022 244.249 85.8071 243.628 85.4449C243.007 85.0568 242.308 84.8627 241.532 84.8627C241.273 84.8627 241.053 84.8757 240.872 84.9015C240.717 84.9274 240.51 85.005 240.251 85.1344H234.352C233.99 85.1344 233.692 85.2767 233.46 85.5613C233.227 85.82 233.11 86.1047 233.11 86.4151C233.11 86.9585 233.24 87.3854 233.498 87.6959C233.757 88.0063 234.081 88.2521 234.469 88.4333C234.883 88.5885 235.322 88.692 235.788 88.7437C236.254 88.7955 236.681 88.8343 237.069 88.8602L237.457 89.1318V100.076C237.509 100.128 237.561 100.257 237.612 100.464C237.664 100.671 237.69 100.801 237.69 100.852C237.69 100.982 237.69 101.202 237.69 101.512C237.69 101.823 237.677 102.146 237.651 102.482C237.651 102.819 237.638 103.142 237.612 103.453C237.612 103.763 237.612 103.983 237.612 104.113C237.586 104.113 237.573 104.138 237.573 104.19C237.573 104.216 237.561 104.216 237.535 104.19C237.509 104.164 237.457 104.1 237.379 103.996C237.302 103.867 237.25 103.776 237.224 103.724C236.655 102.56 236.112 101.331 235.594 100.037C235.103 98.7438 234.637 97.5407 234.197 96.4281C234.197 96.4022 234.171 96.3376 234.119 96.2341C234.094 96.1306 234.068 96.0271 234.042 95.9236C234.016 95.7942 233.977 95.6778 233.925 95.5743C233.899 95.4708 233.887 95.4061 233.887 95.3802C233.861 95.3026 233.77 95.1086 233.615 94.7981C233.46 94.4876 233.291 94.1513 233.11 93.789C232.955 93.4268 232.8 93.0905 232.645 92.78C232.489 92.4695 232.399 92.2754 232.373 92.1978C232.321 92.0685 232.205 91.758 232.024 91.2664C231.843 90.7748 231.648 90.2444 231.441 89.6752C231.26 89.106 231.079 88.5885 230.898 88.1228C230.717 87.6312 230.601 87.3207 230.549 87.1913C230.394 86.7515 230.122 86.3116 229.734 85.8718C229.372 85.4319 228.932 85.212 228.414 85.212H224.029C223.408 85.212 222.89 85.4061 222.476 85.7942C222.062 86.1823 221.855 86.6609 221.855 87.2301C221.855 87.3595 221.868 87.5277 221.894 87.7347C221.92 87.9158 221.959 88.0969 222.011 88.278C222.088 88.4333 222.179 88.5756 222.282 88.7049C222.412 88.8084 222.58 88.8602 222.787 88.8602H225.542L225.853 89.1318C225.853 91.7968 225.905 94.4488 226.008 97.0879C226.112 99.7011 226.163 102.327 226.163 104.966C226.163 105.51 226.125 106.04 226.047 106.558C225.969 107.049 225.956 107.58 226.008 108.149L225.698 108.459C225.594 108.459 225.413 108.472 225.154 108.498C224.921 108.498 224.663 108.511 224.378 108.537C224.119 108.537 223.861 108.55 223.602 108.576C223.369 108.576 223.201 108.576 223.097 108.576C222.632 108.627 222.282 108.886 222.049 109.352C221.842 109.792 221.687 110.193 221.584 110.555V110.943C221.584 111.383 221.726 111.758 222.011 112.069C222.321 112.353 222.683 112.56 223.097 112.69C223.253 112.69 223.511 112.702 223.874 112.728C224.262 112.754 224.663 112.78 225.077 112.806C225.491 112.806 225.879 112.819 226.241 112.845C226.629 112.845 226.901 112.845 227.056 112.845H227.638C228.621 112.845 229.553 112.78 230.432 112.651C231.312 112.521 232.257 112.483 233.266 112.534C233.783 112.405 234.119 112.146 234.275 111.758C234.43 111.344 234.507 110.93 234.507 110.516V109.973L233.887 109.352C233.861 109.326 233.77 109.287 233.615 109.235C233.485 109.184 233.317 109.132 233.11 109.08C232.929 109.003 232.735 108.938 232.528 108.886C232.321 108.809 232.166 108.757 232.062 108.731H231.674C231.441 108.731 231.235 108.796 231.053 108.925C230.898 109.028 230.704 109.08 230.471 109.08C230.29 109.08 230.057 108.977 229.773 108.77C229.488 108.563 229.346 108.356 229.346 108.149V104.19C229.449 103.906 229.501 103.647 229.501 103.414C229.501 103.155 229.501 102.884 229.501 102.599C229.501 102.314 229.501 102.056 229.501 101.823C229.501 101.564 229.449 101.292 229.346 101.008V93.2457H229.501C229.501 93.2457 229.643 93.5821 229.928 94.2548C230.238 94.9275 230.601 95.7295 231.015 96.661C231.454 97.5924 231.894 98.5627 232.334 99.5717C232.774 100.581 233.136 101.409 233.421 102.056C233.757 102.806 234.042 103.556 234.275 104.307C234.533 105.057 234.857 105.781 235.245 106.48ZM246.161 106.752C246.161 107.968 246.394 109.041 246.86 109.973C247.352 110.878 248.128 111.642 249.189 112.263C249.396 112.392 249.603 112.534 249.81 112.69C250.017 112.819 250.262 112.884 250.547 112.884H254.04C254.48 112.884 254.907 112.806 255.321 112.651C255.735 112.47 256.136 112.263 256.524 112.03C256.912 111.771 257.287 111.512 257.649 111.254C258.037 110.995 258.412 110.775 258.775 110.594H258.969C259.15 110.594 259.305 110.658 259.434 110.788C259.59 110.917 259.719 111.072 259.823 111.254C259.952 111.409 260.068 111.577 260.172 111.758C260.301 111.913 260.443 112.03 260.599 112.107C261.039 112.392 261.44 112.599 261.802 112.728C262.164 112.832 262.591 112.884 263.083 112.884C263.704 112.884 264.247 112.741 264.713 112.457C265.204 112.172 265.605 111.81 265.916 111.37C266.252 110.904 266.511 110.387 266.692 109.818C266.873 109.248 266.964 108.679 266.964 108.11C266.964 107.851 266.938 107.592 266.886 107.334C266.834 107.049 266.744 106.79 266.614 106.558C266.485 106.325 266.317 106.131 266.11 105.975C265.903 105.82 265.657 105.743 265.372 105.743C264.829 105.743 264.467 105.924 264.286 106.286C264.13 106.648 264.014 107.062 263.936 107.528C263.859 107.968 263.768 108.369 263.665 108.731C263.561 109.093 263.302 109.274 262.889 109.274C262.268 109.274 261.957 108.912 261.957 108.188V101.629C262.086 101.318 262.138 100.969 262.112 100.581C262.112 100.167 262.112 99.8046 262.112 99.4941V98.291C262.112 98.2134 262.086 98.084 262.035 97.9029C262.009 97.6959 261.97 97.4889 261.918 97.2819C261.867 97.0491 261.815 96.8292 261.763 96.6222C261.711 96.4152 261.672 96.2729 261.647 96.1953C261.569 95.8848 261.362 95.5096 261.026 95.0698C260.715 94.6299 260.34 94.2159 259.9 93.8278C259.486 93.4397 259.046 93.1034 258.581 92.8188C258.141 92.5342 257.753 92.3919 257.416 92.3919H251.478C251.064 92.3919 250.702 92.5212 250.392 92.78C250.081 93.0128 249.784 93.2328 249.499 93.4397C249.163 93.6726 248.826 93.9313 248.49 94.2159C248.154 94.4747 247.856 94.7593 247.597 95.0698C247.339 95.3802 247.132 95.7166 246.976 96.0788C246.821 96.4411 246.744 96.855 246.744 97.3207C246.744 98.1228 247.002 98.7955 247.52 99.3389C248.063 99.8822 248.749 100.154 249.577 100.154C250.12 100.154 250.547 100.05 250.857 99.8434C251.194 99.6105 251.44 99.3389 251.595 99.0284C251.776 98.692 251.905 98.3298 251.983 97.9417C252.061 97.5536 252.125 97.2043 252.177 96.8938C252.255 96.5575 252.332 96.2858 252.41 96.0788C252.487 95.846 252.63 95.7295 252.837 95.7295H256.485C256.511 95.7295 256.679 95.8072 256.989 95.9624C257.3 96.1176 257.533 96.2341 257.688 96.3117C258.102 96.5445 258.387 96.855 258.542 97.2431C258.697 97.6312 258.775 98.0452 258.775 98.4851C258.775 99.106 258.464 99.52 257.843 99.727C257.222 99.934 256.446 100.076 255.515 100.154C254.583 100.232 253.561 100.322 252.449 100.426C251.362 100.503 250.353 100.749 249.421 101.163C248.49 101.551 247.714 102.185 247.093 103.065C246.472 103.918 246.161 105.147 246.161 106.752ZM249.189 106.713C249.189 106.428 249.279 106.092 249.46 105.704C249.667 105.316 249.835 105.031 249.965 104.85C250.224 104.462 250.521 104.255 250.857 104.229C251.504 104.125 252.138 104.048 252.759 103.996C253.406 103.944 254.04 103.867 254.661 103.763C254.738 103.763 254.945 103.737 255.282 103.686C255.644 103.608 256.019 103.543 256.407 103.492C256.795 103.414 257.158 103.349 257.494 103.297C257.856 103.22 258.076 103.181 258.154 103.181L258.231 103.142C258.257 103.142 258.27 103.155 258.27 103.181C258.296 103.181 258.309 103.181 258.309 103.181C258.335 103.181 258.387 103.207 258.464 103.259C258.542 103.285 258.594 103.297 258.619 103.297V103.763C258.619 104.876 258.451 105.781 258.115 106.48C257.779 107.178 257.132 107.851 256.174 108.498C256.123 108.524 255.993 108.589 255.786 108.692C255.605 108.796 255.489 108.873 255.437 108.925C255.334 108.977 255.204 109.041 255.049 109.119C254.92 109.197 254.842 109.235 254.816 109.235H250.857C250.599 109.235 250.366 109.145 250.159 108.964C249.952 108.783 249.771 108.563 249.615 108.304C249.486 108.019 249.383 107.735 249.305 107.45C249.227 107.166 249.189 106.92 249.189 106.713ZM285.618 112.495C285.851 112.495 286.071 112.573 286.278 112.728C286.51 112.858 286.743 112.935 286.976 112.961C287.727 113.091 288.438 113.246 289.111 113.427C289.783 113.634 290.495 113.737 291.245 113.737C291.737 113.737 292.138 113.505 292.448 113.039C292.759 112.573 292.914 112.12 292.914 111.68C292.914 111.37 292.849 111.137 292.72 110.982C292.617 110.801 292.474 110.646 292.293 110.516C292.138 110.361 291.97 110.219 291.789 110.089C291.633 109.934 291.504 109.727 291.401 109.468V107.722C291.401 107.437 291.388 107.049 291.362 106.558C291.362 106.04 291.426 105.6 291.556 105.238V96.5834C291.556 96.5316 291.53 96.4281 291.478 96.2729C291.452 96.1176 291.426 96.0141 291.401 95.9624C291.219 95.5484 291.025 95.1603 290.818 94.7981C290.611 94.41 290.366 94.0736 290.081 93.789C289.796 93.4786 289.46 93.2328 289.072 93.0516C288.71 92.8705 288.296 92.78 287.83 92.78C287.183 92.78 286.666 92.8576 286.278 93.0128C285.915 93.1681 285.592 93.3621 285.307 93.595C285.023 93.8278 284.738 94.0995 284.454 94.41C284.195 94.7205 283.871 95.031 283.483 95.3414C283.147 95.0827 282.849 94.7981 282.591 94.4876C282.332 94.1771 282.06 93.8925 281.776 93.6338C281.517 93.3492 281.206 93.1163 280.844 92.9352C280.482 92.7282 280.029 92.6247 279.486 92.6247C279.201 92.6247 278.891 92.7024 278.554 92.8576C278.218 93.0128 277.895 93.194 277.584 93.4009C277.274 93.6079 276.989 93.8408 276.73 94.0995C276.472 94.3583 276.252 94.5782 276.071 94.7593H275.993H275.915C275.838 94.7334 275.734 94.6558 275.605 94.5264C275.501 94.3712 275.385 94.2289 275.256 94.0995C275.126 93.9443 275.01 93.802 274.906 93.6726C274.803 93.5432 274.725 93.4527 274.673 93.4009C274.466 93.194 274.195 93.0905 273.858 93.0905C273.522 93.0646 273.212 93.0516 272.927 93.0516C272.254 93.0516 271.672 93.1681 271.181 93.4009C270.689 93.6338 270.443 94.1383 270.443 94.9145C270.443 95.4061 270.56 95.7683 270.792 96.0012C271.025 96.2341 271.284 96.4022 271.569 96.5057C271.879 96.6092 272.151 96.6869 272.384 96.7386C272.616 96.7903 272.733 96.8809 272.733 97.0103V107.217L272.422 109.313C272.397 109.494 272.254 109.624 271.996 109.701C271.763 109.753 271.504 109.831 271.219 109.934C270.961 110.038 270.715 110.193 270.482 110.4C270.249 110.607 270.133 110.943 270.133 111.409C270.133 111.693 270.21 111.978 270.366 112.263C270.547 112.521 270.754 112.754 270.986 112.961C271.245 113.142 271.53 113.285 271.84 113.388C272.151 113.517 272.448 113.582 272.733 113.582H275.915C276.122 113.582 276.329 113.53 276.536 113.427C276.769 113.323 276.976 113.194 277.157 113.039C277.364 112.909 277.545 112.767 277.701 112.612C277.882 112.457 278.037 112.327 278.166 112.224H278.244C278.373 112.224 278.58 112.301 278.865 112.457C279.15 112.586 279.46 112.741 279.796 112.922C280.133 113.078 280.456 113.22 280.767 113.349C281.077 113.505 281.336 113.582 281.543 113.582H283.794C284.001 113.582 284.169 113.517 284.298 113.388C284.454 113.285 284.596 113.168 284.725 113.039C284.855 112.909 284.984 112.793 285.113 112.69C285.269 112.56 285.437 112.495 285.618 112.495ZM279.253 96.4281C279.305 96.4281 279.382 96.4281 279.486 96.4281C279.589 96.4022 279.667 96.3893 279.719 96.3893C279.848 96.3893 280.029 96.4152 280.262 96.4669C280.495 96.4928 280.611 96.6351 280.611 96.8938V108.886C280.611 109.016 280.495 109.184 280.262 109.391C280.055 109.598 279.809 109.818 279.525 110.05C279.24 110.283 278.955 110.503 278.671 110.71C278.412 110.891 278.244 111.034 278.166 111.137H278.05C277.998 111.059 277.843 110.904 277.584 110.671C277.351 110.439 277.196 110.296 277.118 110.244C277.067 110.219 276.911 110.167 276.653 110.089C276.42 110.012 276.278 109.96 276.226 109.934C276.174 109.908 276.109 109.856 276.032 109.779C275.954 109.701 275.915 109.649 275.915 109.624V102.327C275.915 101.81 276.006 101.266 276.187 100.697C276.368 100.102 276.614 99.5329 276.924 98.9896C277.235 98.4462 277.584 97.9546 277.972 97.5148C278.386 97.0491 278.813 96.6869 279.253 96.4281ZM283.483 107.14C283.483 105.924 283.535 104.708 283.639 103.492C283.742 102.275 284.001 101.085 284.415 99.921C284.415 99.8951 284.454 99.8175 284.531 99.6882C284.635 99.5588 284.699 99.4812 284.725 99.4553C284.777 99.3777 284.855 99.2354 284.958 99.0284C285.087 98.7955 285.217 98.5627 285.346 98.3298C285.476 98.0711 285.592 97.8382 285.695 97.6312C285.799 97.3984 285.877 97.2431 285.928 97.1655C286.135 96.9585 286.342 96.7774 286.549 96.6222C286.756 96.4669 287.002 96.3893 287.287 96.3893C287.416 96.3893 287.597 96.4152 287.83 96.4669C288.089 96.4928 288.218 96.6351 288.218 96.8938V109.197C288.218 109.429 288.141 109.611 287.985 109.74C287.856 109.843 287.688 109.934 287.481 110.012C287.274 110.063 287.067 110.115 286.86 110.167C286.653 110.193 286.498 110.219 286.394 110.244L285.773 110.555H285.618H285.463C284.997 110.4 284.622 110.232 284.337 110.05C284.078 109.843 283.884 109.611 283.755 109.352C283.626 109.067 283.548 108.757 283.522 108.42C283.496 108.058 283.483 107.631 283.483 107.14ZM294.559 103.453C294.559 104.721 294.753 105.937 295.141 107.101C295.529 108.239 296.085 109.248 296.81 110.128C297.534 111.008 298.427 111.706 299.488 112.224C300.548 112.741 301.739 113 303.058 113C304.404 113 305.71 112.754 306.978 112.263C308.246 111.771 309.268 110.956 310.044 109.818C310.354 109.352 310.639 108.886 310.898 108.42C311.156 107.929 311.286 107.385 311.286 106.79C311.286 106.428 311.156 106.131 310.898 105.898C310.665 105.665 310.354 105.548 309.966 105.548C309.552 105.548 309.203 105.652 308.918 105.859C308.634 106.066 308.362 106.325 308.103 106.635C307.871 106.946 307.638 107.269 307.405 107.605C307.198 107.942 306.965 108.226 306.706 108.459C306.37 108.744 305.969 108.951 305.503 109.08C305.037 109.184 304.623 109.378 304.261 109.662C304.184 109.662 304.002 109.675 303.718 109.701C303.459 109.701 303.291 109.701 303.213 109.701C302.437 109.701 301.726 109.559 301.079 109.274C300.432 108.964 299.863 108.563 299.371 108.071C298.905 107.554 298.53 106.959 298.246 106.286C297.987 105.613 297.858 104.902 297.858 104.151C297.858 104.1 297.858 103.996 297.858 103.841C297.883 103.686 297.896 103.595 297.896 103.569L298.052 103.453C298.052 103.453 298.194 103.44 298.479 103.414C298.763 103.388 299.099 103.375 299.488 103.375C299.876 103.349 300.264 103.336 300.652 103.336C301.066 103.31 301.415 103.297 301.7 103.297C301.984 103.297 302.489 103.297 303.213 103.297C303.964 103.272 304.74 103.259 305.542 103.259C306.37 103.259 307.146 103.272 307.871 103.297C308.621 103.297 309.138 103.297 309.423 103.297C309.837 103.22 310.238 103.116 310.626 102.987C311.014 102.858 311.325 102.599 311.558 102.211C311.558 102.159 311.558 102.056 311.558 101.9C311.583 101.719 311.596 101.603 311.596 101.551C311.596 101.318 311.545 100.969 311.441 100.503C311.338 100.012 311.208 99.52 311.053 99.0284C310.924 98.5109 310.768 98.0452 310.587 97.6312C310.432 97.1914 310.303 96.8938 310.199 96.7386C309.216 95.4967 308.155 94.4876 307.017 93.7114C305.878 92.9093 304.481 92.5083 302.825 92.5083C302.541 92.5083 302.243 92.5083 301.933 92.5083C301.648 92.4824 301.363 92.5342 301.079 92.6635C301.001 92.6894 300.859 92.7541 300.652 92.8576C300.471 92.9352 300.264 93.0387 300.031 93.1681C299.798 93.2716 299.578 93.3751 299.371 93.4786C299.164 93.5821 299.022 93.6597 298.944 93.7114C298.09 94.1771 297.379 94.7852 296.81 95.5355C296.266 96.2599 295.827 97.062 295.49 97.9417C295.154 98.7955 294.908 99.7011 294.753 100.658C294.623 101.616 294.559 102.547 294.559 103.453ZM298.207 99.8822C298.207 99.2354 298.362 98.6791 298.673 98.2134C298.983 97.7218 299.371 97.3207 299.837 97.0103C300.303 96.6998 300.82 96.4799 301.389 96.3505C301.959 96.1953 302.515 96.1176 303.058 96.1176C303.55 96.1176 304.067 96.1823 304.611 96.3117C305.18 96.4152 305.697 96.5963 306.163 96.855C306.629 97.0879 307.017 97.4242 307.327 97.8641C307.638 98.2781 307.793 98.7955 307.793 99.4165C307.793 99.4682 307.793 99.5588 307.793 99.6882C307.793 99.8175 307.78 99.9081 307.754 99.9598C307.702 100.012 307.625 100.076 307.521 100.154C307.444 100.206 307.379 100.232 307.327 100.232H298.362C298.259 100.232 298.207 100.193 298.207 100.115C298.207 100.012 298.207 99.934 298.207 99.8822Z" fill="white"/>
</svg>
