<svg width="1920" height="1081" viewBox="0 0 1920 1081" fill="none" xmlns="http://www.w3.org/2000/svg">
<rect x="0.25" y="0.25" width="1919.5" height="1079.5" fill="#E7CFA0" stroke="black" stroke-width="0.5"/>
<rect y="1024" width="1920" height="57" fill="#A48750"/>
<mask id="path-3-inside-1_114_482" fill="white">
<path d="M108 310H508V1080H108V310Z"/>
</mask>
<path d="M108 310H508V1080H108V310Z" fill="#601822"/>
<path d="M108 310V308H106V310H108ZM508 310H510V308H508V310ZM108 312H508V308H108V312ZM506 310V1080H510V310H506ZM110 1080V310H106V1080H110Z" fill="black" mask="url(#path-3-inside-1_114_482)"/>
<path d="M318.4 504.5C318.4 510.029 313.939 514.5 308.45 514.5C302.961 514.5 298.5 510.029 298.5 504.5C298.5 498.971 302.961 494.5 308.45 494.5C313.939 494.5 318.4 498.971 318.4 504.5Z" fill="#686161" stroke="black" stroke-width="3"/>
<path d="M204.561 701.119L149.547 702.689L149.547 690.725L204.532 693.084L204.561 701.119Z" fill="#D9AC55" stroke="black"/>
<path d="M211.5 697C211.5 700.558 208.399 703.5 204.5 703.5C200.601 703.5 197.5 700.558 197.5 697C197.5 693.442 200.601 690.5 204.5 690.5C208.399 690.5 211.5 693.442 211.5 697Z" fill="#D9AC55" stroke="black"/>
<path d="M156.5 697C156.5 703.332 151.147 708.5 144.5 708.5C137.853 708.5 132.5 703.332 132.5 697C132.5 690.668 137.853 685.5 144.5 685.5C151.147 685.5 156.5 690.668 156.5 697Z" fill="#D9AC55" stroke="black"/>
<path d="M199.491 693.376L153.591 691.404L153.505 702.087L200.075 700.747L199.491 693.376Z" fill="#D9AC55"/>
<mask id="path-10-inside-2_114_482" fill="white">
<path d="M909.396 839.534H949.708V1081H909.396V839.534Z"/>
</mask>
<path d="M909.396 839.534H949.708V1081H909.396V839.534Z" fill="#5F4512"/>
<path d="M949.708 1081V1085H953.708V1081H949.708ZM909.396 1081H905.396V1085H909.396V1081ZM945.708 839.534V1081H953.708V839.534H945.708ZM949.708 1077H909.396V1085H949.708V1077ZM913.396 1081V839.534H905.396V1081H913.396Z" fill="black" mask="url(#path-10-inside-2_114_482)"/>
<mask id="path-12-inside-3_114_482" fill="white">
<path d="M1465.69 839.534H1506V1081H1465.69V839.534Z"/>
</mask>
<path d="M1465.69 839.534H1506V1081H1465.69V839.534Z" fill="#5F4512"/>
<path d="M1506 1081V1085H1510V1081H1506ZM1465.69 1081H1461.69V1085H1465.69V1081ZM1502 839.534V1081H1510V839.534H1502ZM1506 1077H1465.69V1085H1506V1077ZM1469.69 1081V839.534H1461.69V1081H1469.69Z" fill="black" mask="url(#path-12-inside-3_114_482)"/>
<rect x="837.341" y="794.916" width="742.993" height="42.1185" fill="#7B5A19" stroke="black" stroke-width="5"/>
<path fill-rule="evenodd" clip-rule="evenodd" d="M538.724 800.543C538.17 799.21 537.75 798.225 537.516 797.715C537.408 797.36 537.283 797.006 537.141 796.654C534.833 790.928 528.835 787.951 523.746 790.003C519.237 791.821 516.953 796.977 518.096 802.111C519.066 802.688 519.843 803.546 520.281 804.632C521.435 807.495 519.793 810.855 516.612 812.138C513.431 813.421 509.916 812.14 508.762 809.277C508.425 808.441 508.326 807.562 508.435 806.704C506.239 795.34 510.162 784.767 519.472 781.013C530.248 776.667 543.241 783.516 549.061 796.375L549.088 796.364L574.635 859.718L564.268 863.899L538.721 800.544L538.724 800.543Z" fill="#1C1717"/>
<path fill-rule="evenodd" clip-rule="evenodd" d="M531.125 863.208C533.333 865.862 536.423 867.092 539.019 866.045C542.037 864.828 543.401 860.934 542.486 856.826L542.754 856.721C544.93 860.28 549.421 861.851 553.418 860.239C556.812 858.87 558.87 855.603 558.863 852.155C561.25 854.643 564.999 855.569 568.393 854.2C571.786 852.832 573.845 849.564 573.838 846.115C576.224 848.604 579.974 849.53 583.368 848.162C586.761 846.793 588.82 843.526 588.813 840.078C591.2 842.566 594.949 843.491 598.342 842.123C601.408 840.887 603.385 838.099 603.732 835.03L652.247 1065.96L531.125 863.208Z" fill="#434040"/>
<path fill-rule="evenodd" clip-rule="evenodd" d="M647.233 1056.58L558.358 852.235L559.275 851.836L645.511 1050.11L573.32 846.164L574.263 845.83L650.385 1060.89L588.284 840.094L589.247 839.823L650.342 1057.04L603.57 834.455L604.548 834.249L652.489 1062.4L651.885 1062.52L651.98 1062.86L651.166 1063.09L651.204 1063.2L651.203 1063.2L651.206 1063.21L650.633 1063.46L650.313 1063.65L650.262 1063.56L649.631 1063.89L644.329 1053.69L530.167 863.674L531.024 863.159L636.856 1039.31L542.035 856.846L542.922 856.385L645.202 1053.2L647.233 1056.58Z" fill="black"/>
<rect x="649" y="1060.85" width="2.48926" height="20.4322" transform="rotate(-20.0181 649 1060.85)" fill="black"/>
<ellipse cx="1179.44" cy="764.219" rx="13.5" ry="23.5" transform="rotate(-5.91986 1179.44 764.219)" fill="#F8EA6D"/>
<rect x="984" y="774.933" width="170" height="20" rx="10" transform="rotate(-5.91986 984 774.933)" fill="black"/>
<path d="M1142.15 758.534L1184.85 734L1191.04 793.68L1144.21 778.428L1142.15 758.534Z" fill="black"/>
<circle cx="1130.68" cy="763.685" r="7" transform="rotate(-5.91986 1130.68 763.685)" fill="black"/>
<path fill-rule="evenodd" clip-rule="evenodd" d="M1319.8 770.416H1496.8C1494.04 770.416 1491.8 772.654 1491.8 775.416V787.416C1491.8 790.177 1494.04 792.416 1496.8 792.416H1319.8C1313.73 792.416 1308.8 787.491 1308.8 781.416C1308.8 775.34 1313.73 770.416 1319.8 770.416Z" fill="#773A3A"/>
<path fill-rule="evenodd" clip-rule="evenodd" d="M1491.9 774.416C1491.84 774.739 1491.8 775.073 1491.8 775.416V787.416C1491.8 787.758 1491.84 788.092 1491.9 788.416H1319.8C1315.94 788.416 1312.8 785.282 1312.8 781.416C1312.8 777.55 1315.94 774.416 1319.8 774.416H1491.9Z" fill="#D9D9D9"/>
<path fill-rule="evenodd" clip-rule="evenodd" d="M1306.33 748.416H1483.33C1480.57 748.416 1478.33 750.654 1478.33 753.416V765.416C1478.33 768.177 1480.57 770.416 1483.33 770.416H1306.33C1300.26 770.416 1295.33 765.491 1295.33 759.416C1295.33 753.34 1300.26 748.416 1306.33 748.416Z" fill="#4F5481"/>
<path fill-rule="evenodd" clip-rule="evenodd" d="M1478.43 752.416C1478.37 752.739 1478.33 753.073 1478.33 753.416V765.416C1478.33 765.758 1478.37 766.092 1478.43 766.416H1306.33C1302.47 766.416 1299.33 763.282 1299.33 759.416C1299.33 755.55 1302.47 752.416 1306.33 752.416H1478.43Z" fill="#D9D9D9"/>
<path fill-rule="evenodd" clip-rule="evenodd" d="M1327.2 726.416H1504.2C1501.44 726.416 1499.2 728.654 1499.2 731.416V743.416C1499.2 746.177 1501.44 748.416 1504.2 748.416H1327.2C1321.13 748.416 1316.2 743.491 1316.2 737.416C1316.2 731.34 1321.13 726.416 1327.2 726.416Z" fill="#849874"/>
<path fill-rule="evenodd" clip-rule="evenodd" d="M1499.3 730.416C1499.23 730.739 1499.2 731.073 1499.2 731.416V743.416C1499.2 743.758 1499.23 744.092 1499.3 744.416H1327.2C1323.33 744.416 1320.2 741.282 1320.2 737.416C1320.2 733.55 1323.33 730.416 1327.2 730.416H1499.3Z" fill="#D9D9D9"/>
<path fill-rule="evenodd" clip-rule="evenodd" d="M1315.8 704.416H1492.8C1490.04 704.416 1487.8 706.654 1487.8 709.416V721.416C1487.8 724.177 1490.04 726.416 1492.8 726.416H1315.8C1309.73 726.416 1304.8 721.491 1304.8 715.416C1304.8 709.34 1309.73 704.416 1315.8 704.416Z" fill="#8C6363"/>
<path fill-rule="evenodd" clip-rule="evenodd" d="M1487.9 708.416C1487.84 708.739 1487.8 709.073 1487.8 709.416V721.416C1487.8 721.758 1487.84 722.092 1487.9 722.416H1315.8C1311.94 722.416 1308.8 719.282 1308.8 715.416C1308.8 711.55 1311.94 708.416 1315.8 708.416H1487.9Z" fill="#D9D9D9"/>
</svg>
