<svg width="2000" height="1161" viewBox="0 0 2000 1161" fill="none" xmlns="http://www.w3.org/2000/svg">
<rect width="1920" height="1080" transform="translate(40 40)" fill="#D7BB87"/>
<rect x="40.25" y="40.25" width="1919.5" height="1079.5" fill="#E7CFA0" stroke="black" stroke-width="0.5"/>
<rect x="40" y="1064" width="1920" height="57" fill="#A48750"/>
<mask id="path-3-inside-1_3_34" fill="white">
<path d="M148 350H548V1120H148V350Z"/>
</mask>
<path d="M148 350H548V1120H148V350Z" fill="#601822"/>
<path d="M148 350V348H146V350H148ZM548 350H550V348H548V350ZM148 352H548V348H148V352ZM546 350V1120H550V350H546ZM150 1120V350H146V1120H150Z" fill="black" mask="url(#path-3-inside-1_3_34)"/>
<path d="M358.4 544.5C358.4 550.029 353.939 554.5 348.45 554.5C342.961 554.5 338.5 550.029 338.5 544.5C338.5 538.971 342.961 534.5 348.45 534.5C353.939 534.5 358.4 538.971 358.4 544.5Z" fill="#686161" stroke="black" stroke-width="3"/>
<path d="M244.561 741.119L189.547 742.689L189.547 730.725L244.532 733.084L244.561 741.119Z" fill="#D9AC55" stroke="black"/>
<path d="M251.5 737C251.5 740.558 248.399 743.5 244.5 743.5C240.601 743.5 237.5 740.558 237.5 737C237.5 733.442 240.601 730.5 244.5 730.5C248.399 730.5 251.5 733.442 251.5 737Z" fill="#D9AC55" stroke="black"/>
<path d="M196.5 737C196.5 743.332 191.147 748.5 184.5 748.5C177.853 748.5 172.5 743.332 172.5 737C172.5 730.668 177.853 725.5 184.5 725.5C191.147 725.5 196.5 730.668 196.5 737Z" fill="#D9AC55" stroke="black"/>
<path d="M239.491 733.376L193.591 731.404L193.505 742.087L240.075 740.747L239.491 733.376Z" fill="#D9AC55"/>
<mask id="path-10-inside-2_3_34" fill="white">
<path d="M949.396 879.534H989.708V1121H949.396V879.534Z"/>
</mask>
<path d="M949.396 879.534H989.708V1121H949.396V879.534Z" fill="#5F4512"/>
<path d="M989.708 1121V1125H993.708V1121H989.708ZM949.396 1121H945.396V1125H949.396V1121ZM985.708 879.534V1121H993.708V879.534H985.708ZM989.708 1117H949.396V1125H989.708V1117ZM953.396 1121V879.534H945.396V1121H953.396Z" fill="black" mask="url(#path-10-inside-2_3_34)"/>
<mask id="path-12-inside-3_3_34" fill="white">
<path d="M1505.69 879.534H1546V1121H1505.69V879.534Z"/>
</mask>
<path d="M1505.69 879.534H1546V1121H1505.69V879.534Z" fill="#5F4512"/>
<path d="M1546 1121V1125H1550V1121H1546ZM1505.69 1121H1501.69V1125H1505.69V1121ZM1542 879.534V1121H1550V879.534H1542ZM1546 1117H1505.69V1125H1546V1117ZM1509.69 1121V879.534H1501.69V1121H1509.69Z" fill="black" mask="url(#path-12-inside-3_3_34)"/>
<rect x="877.341" y="834.916" width="742.993" height="42.1185" fill="#7B5A19" stroke="black" stroke-width="5"/>
<path fill-rule="evenodd" clip-rule="evenodd" d="M578.724 840.543C578.17 839.21 577.75 838.225 577.516 837.715C577.408 837.36 577.283 837.006 577.141 836.654C574.833 830.928 568.835 827.951 563.746 830.003C559.237 831.821 556.953 836.977 558.096 842.111C559.066 842.688 559.843 843.546 560.281 844.632C561.435 847.495 559.793 850.855 556.612 852.138C553.431 853.421 549.916 852.14 548.762 849.277C548.425 848.441 548.326 847.562 548.435 846.704C546.239 835.34 550.162 824.767 559.472 821.013C570.248 816.667 583.241 823.516 589.061 836.375L589.088 836.364L614.635 899.718L604.268 903.899L578.721 840.544L578.724 840.543Z" fill="#1C1717"/>
<path fill-rule="evenodd" clip-rule="evenodd" d="M571.125 903.208C573.333 905.862 576.423 907.092 579.019 906.045C582.037 904.828 583.401 900.934 582.486 896.826L582.754 896.721C584.93 900.28 589.421 901.851 593.418 900.239C596.812 898.87 598.87 895.603 598.863 892.155C601.25 894.643 604.999 895.569 608.393 894.2C611.786 892.832 613.845 889.564 613.838 886.115C616.224 888.604 619.974 889.53 623.368 888.162C626.761 886.793 628.82 883.526 628.813 880.078C631.2 882.566 634.949 883.491 638.342 882.123C641.408 880.887 643.385 878.099 643.732 875.03L692.247 1105.96L571.125 903.208Z" fill="#434040"/>
<path fill-rule="evenodd" clip-rule="evenodd" d="M687.233 1096.58L598.358 892.235L599.275 891.836L685.511 1090.11L613.32 886.164L614.263 885.83L690.385 1100.89L628.284 880.094L629.247 879.823L690.342 1097.04L643.57 874.455L644.548 874.249L692.489 1102.4L691.885 1102.52L691.98 1102.86L691.166 1103.09L691.204 1103.2L691.203 1103.2L691.206 1103.21L690.633 1103.46L690.313 1103.65L690.262 1103.56L689.631 1103.89L684.329 1093.69L570.167 903.674L571.024 903.159L676.856 1079.31L582.035 896.846L582.922 896.385L685.202 1093.2L687.233 1096.58Z" fill="black"/>
<rect x="689" y="1100.85" width="2.48926" height="20.4322" transform="rotate(-20.0181 689 1100.85)" fill="black"/>
<ellipse cx="1219.44" cy="804.219" rx="13.5" ry="23.5" transform="rotate(-5.91986 1219.44 804.219)" fill="#F8EA6D"/>
<rect x="1024" y="814.933" width="170" height="20" rx="10" transform="rotate(-5.91986 1024 814.933)" fill="black"/>
<path d="M1182.15 798.534L1224.85 774L1231.04 833.68L1184.21 818.428L1182.15 798.534Z" fill="black"/>
<circle cx="1170.68" cy="803.685" r="7" transform="rotate(-5.91986 1170.68 803.685)" fill="black"/>
<path fill-rule="evenodd" clip-rule="evenodd" d="M1359.8 810.416H1536.8C1534.04 810.416 1531.8 812.654 1531.8 815.416V827.416C1531.8 830.177 1534.04 832.416 1536.8 832.416H1359.8C1353.73 832.416 1348.8 827.491 1348.8 821.416C1348.8 815.34 1353.73 810.416 1359.8 810.416Z" fill="#773A3A"/>
<path fill-rule="evenodd" clip-rule="evenodd" d="M1531.9 814.416C1531.84 814.739 1531.8 815.073 1531.8 815.416V827.416C1531.8 827.758 1531.84 828.092 1531.9 828.416H1359.8C1355.94 828.416 1352.8 825.282 1352.8 821.416C1352.8 817.55 1355.94 814.416 1359.8 814.416H1531.9Z" fill="#D9D9D9"/>
<path fill-rule="evenodd" clip-rule="evenodd" d="M1346.33 788.416H1523.33C1520.57 788.416 1518.33 790.654 1518.33 793.416V805.416C1518.33 808.177 1520.57 810.416 1523.33 810.416H1346.33C1340.26 810.416 1335.33 805.491 1335.33 799.416C1335.33 793.34 1340.26 788.416 1346.33 788.416Z" fill="#4F5481"/>
<path fill-rule="evenodd" clip-rule="evenodd" d="M1518.43 792.416C1518.37 792.739 1518.33 793.073 1518.33 793.416V805.416C1518.33 805.758 1518.37 806.092 1518.43 806.416H1346.33C1342.47 806.416 1339.33 803.282 1339.33 799.416C1339.33 795.55 1342.47 792.416 1346.33 792.416H1518.43Z" fill="#D9D9D9"/>
<path fill-rule="evenodd" clip-rule="evenodd" d="M1367.2 766.416H1544.2C1541.44 766.416 1539.2 768.654 1539.2 771.416V783.416C1539.2 786.177 1541.44 788.416 1544.2 788.416H1367.2C1361.13 788.416 1356.2 783.491 1356.2 777.416C1356.2 771.34 1361.13 766.416 1367.2 766.416Z" fill="#849874"/>
<path fill-rule="evenodd" clip-rule="evenodd" d="M1539.3 770.416C1539.23 770.739 1539.2 771.073 1539.2 771.416V783.416C1539.2 783.758 1539.23 784.092 1539.3 784.416H1367.2C1363.33 784.416 1360.2 781.282 1360.2 777.416C1360.2 773.55 1363.33 770.416 1367.2 770.416H1539.3Z" fill="#D9D9D9"/>
<path fill-rule="evenodd" clip-rule="evenodd" d="M1355.8 744.416H1532.8C1530.04 744.416 1527.8 746.654 1527.8 749.416V761.416C1527.8 764.177 1530.04 766.416 1532.8 766.416H1355.8C1349.73 766.416 1344.8 761.491 1344.8 755.416C1344.8 749.34 1349.73 744.416 1355.8 744.416Z" fill="#8C6363"/>
<path fill-rule="evenodd" clip-rule="evenodd" d="M1527.9 748.416C1527.84 748.739 1527.8 749.073 1527.8 749.416V761.416C1527.8 761.758 1527.84 762.092 1527.9 762.416H1355.8C1351.94 762.416 1348.8 759.282 1348.8 755.416C1348.8 751.55 1351.94 748.416 1355.8 748.416H1527.9Z" fill="#D9D9D9"/>
<path d="M815.016 91.2756H1644.02V660.276H815.016V91.2756Z" fill="#856831" stroke="black"/>
<path d="M838.016 116.276H1617.02V635.276H838.016V116.276Z" fill="#B7A37E" stroke="black"/>
<rect x="1330.28" y="432.472" width="133" height="166.593" transform="rotate(9.13988 1330.28 432.472)" fill="white"/>
<rect x="1035" y="319" width="187" height="83" fill="white"/>
<rect x="1141.81" y="522.146" width="88" height="67" fill="white"/>
<rect x="919.495" y="164.596" width="107" height="122" transform="rotate(-8.38102 919.495 164.596)" fill="white"/>
<rect x="1487.81" y="485.975" width="74.2896" height="106.368" transform="rotate(-8.38102 1487.81 485.975)" fill="white"/>
<rect x="911" y="473.542" width="143" height="130" transform="rotate(-6.4149 911 473.542)" fill="white"/>
<line x1="1045.05" y1="328.569" x2="981.351" y2="475.94" stroke="#8D1D1D" stroke-width="4"/>
<line x1="984.074" y1="475.855" x2="1173.07" y2="530.855" stroke="#8D1D1D" stroke-width="4"/>
<line x1="1172.85" y1="528.395" x2="1340.55" y2="436.024" stroke="#8D1D1D" stroke-width="4"/>
<line x1="1534.99" y1="489.705" x2="1340.99" y2="436.705" stroke="#8D1D1D" stroke-width="4"/>
<line x1="1046.54" y1="330.092" x2="1018.54" y2="155.092" stroke="#8D1D1D" stroke-width="4"/>
<circle cx="1046.02" cy="329.276" r="4.25" fill="#EBC91A" stroke="black" stroke-width="0.5"/>
<circle cx="1020.02" cy="158.276" r="4.25" fill="#EBC91A" stroke="black" stroke-width="0.5"/>
<circle cx="984.016" cy="475.276" r="4.25" fill="#EBC91A" stroke="black" stroke-width="0.5"/>
<circle cx="1173.02" cy="529.276" r="4.25" fill="#EBC91A" stroke="black" stroke-width="0.5"/>
<circle cx="1340.02" cy="437.276" r="4.25" fill="#EBC91A" stroke="black" stroke-width="0.5"/>
<circle cx="1535.02" cy="488.276" r="4.25" fill="#EBC91A" stroke="black" stroke-width="0.5"/>
<rect width="64.4326" height="3.90607" transform="matrix(0.989314 -0.145802 -0.145802 -0.989314 993.085 562.034)" fill="#EFEBEB"/>
<rect x="1335.45" y="450.077" width="118.398" height="7.88236" transform="rotate(9.69008 1335.45 450.077)" fill="#EFEBEB"/>
<rect x="928.527" y="177.466" width="87.5146" height="34.6722" transform="rotate(-8.85104 928.527 177.466)" fill="#EFEBEB"/>
<rect x="921" y="494.732" width="54.6059" height="71.7792" transform="rotate(-7.0821 921 494.732)" fill="#EFEBEB"/>
<rect x="983.724" y="505.653" width="63.3735" height="11.246" transform="rotate(-7.0821 983.724 505.653)" fill="#EFEBEB"/>
<rect width="55.4156" height="3.90607" transform="matrix(0.989314 -0.145802 -0.145802 -0.989314 932.569 579.09)" fill="#EFEBEB"/>
<rect width="55.4156" height="3.90607" transform="matrix(0.989314 -0.145802 -0.145802 -0.989314 933.569 586.944)" fill="#EFEBEB"/>
<rect width="55.4156" height="3.90607" transform="matrix(0.989314 -0.145802 -0.145802 -0.989314 934.569 595.944)" fill="#EFEBEB"/>
<rect width="64.4326" height="3.90607" transform="matrix(0.989314 -0.145802 -0.145802 -0.989314 993.569 569.944)" fill="#EFEBEB"/>
<rect width="64.4326" height="3.90607" transform="matrix(0.989314 -0.145802 -0.145802 -0.989314 995.569 577.259)" fill="#EFEBEB"/>
<rect width="30.8157" height="2.81043" transform="matrix(0.999968 0.00801929 0.00801929 -0.999968 1194 565.81)" fill="#EFEBEB"/>
<rect width="30.8157" height="2.81043" transform="matrix(0.999968 0.00801929 0.00801929 -0.999968 1194 569.81)" fill="#EFEBEB"/>
<rect width="30.8157" height="2.81043" transform="matrix(0.999968 0.00801929 0.00801929 -0.999968 1194 573.81)" fill="#EFEBEB"/>
<rect width="30.8157" height="2.81043" transform="matrix(0.999968 0.00801929 0.00801929 -0.999968 1194 577.81)" fill="#EFEBEB"/>
<rect width="30.8157" height="2.81043" transform="matrix(0.999968 0.00801929 0.00801929 -0.999968 1194 581.81)" fill="#EFEBEB"/>
<rect width="64.4326" height="3.90607" transform="matrix(0.989314 -0.145802 -0.145802 -0.989314 996.569 586.259)" fill="#EFEBEB"/>
<rect width="64.4326" height="3.90607" transform="matrix(0.989314 -0.145802 -0.145802 -0.989314 987.569 527.259)" fill="#EFEBEB"/>
<rect width="64.4326" height="3.90607" transform="matrix(0.989314 -0.145802 -0.145802 -0.989314 988.569 535.944)" fill="#EFEBEB"/>
<rect width="64.4326" height="3.90607" transform="matrix(0.989314 -0.145802 -0.145802 -0.989314 990.569 543.259)" fill="#EFEBEB"/>
<rect width="64.4326" height="3.90607" transform="matrix(0.989314 -0.145802 -0.145802 -0.989314 991.569 552.259)" fill="#EFEBEB"/>
<rect x="938" y="222.248" width="40.6093" height="45.1668" transform="rotate(-8.85104 938 222.248)" fill="#EFEBEB"/>
<rect x="982" y="211.552" width="40.2321" height="51.6115" transform="rotate(-8.85104 982 211.552)" fill="#EFEBEB"/>
<rect x="1048.12" y="333" width="53.8884" height="59.2939" transform="rotate(1.08348 1048.12 333)" fill="#EFEBEB"/>
<rect x="1106.48" y="332.643" width="107.92" height="60.0277" transform="rotate(0.120464 1106.48 332.643)" fill="#EFEBEB"/>
<rect x="1149.59" y="535" width="40.4982" height="48.5495" transform="rotate(0.701631 1149.59 535)" fill="#EFEBEB"/>
<rect x="1496.6" y="499.91" width="59.6819" height="48.5495" transform="rotate(-8.12655 1496.6 499.91)" fill="#EFEBEB"/>
<rect x="1324.04" y="506.471" width="119.511" height="87.0703" transform="rotate(9.27588 1324.04 506.471)" fill="#EFEBEB"/>
<rect x="1194.59" y="535" width="30.7214" height="25.6257" transform="rotate(0.701631 1194.59 535)" fill="#EFEBEB"/>
<rect x="1395.99" y="471" width="55.0766" height="41.5509" transform="rotate(9.69008 1395.99 471)" fill="#EFEBEB"/>
<rect x="1333.31" y="460.542" width="57.8008" height="41.5509" transform="rotate(9.69008 1333.31 460.542)" fill="#EFEBEB"/>
<rect width="61.2378" height="4.06436" transform="matrix(0.987901 -0.155083 -0.155083 -0.987901 1504.42 558.306)" fill="#EFEBEB"/>
<rect width="61.2378" height="4.06436" transform="matrix(0.987901 -0.155083 -0.155083 -0.987901 1505.63 565.512)" fill="#EFEBEB"/>
<rect width="61.2378" height="4.06436" transform="matrix(0.987901 -0.155083 -0.155083 -0.987901 1506.63 572.512)" fill="#EFEBEB"/>
<rect width="61.2378" height="4.06436" transform="matrix(0.987901 -0.155083 -0.155083 -0.987901 1507.63 579.512)" fill="#EFEBEB"/>
<rect width="61.2378" height="4.06436" transform="matrix(0.987901 -0.155083 -0.155083 -0.987901 1508.63 586.512)" fill="#EFEBEB"/>
<rect x="1334" y="155" width="210" height="217" fill="#FCFCFC"/>
<rect width="87.1746" height="3.90607" transform="matrix(0.999995 0.0031288 0.0031288 -0.999995 1348 346.906)" fill="#EFEBEB"/>
<rect width="87.7434" height="3.90607" transform="matrix(0.999995 0.0031288 0.0031288 -0.999995 1348 337.906)" fill="#EFEBEB"/>
<rect width="87.1774" height="3.90607" transform="matrix(0.999995 0.0031288 0.0031288 -0.999995 1348 355.906)" fill="#EFEBEB"/>
<rect width="87.1749" height="3.90607" transform="matrix(0.999995 0.0031288 0.0031288 -0.999995 1348 364.906)" fill="#EFEBEB"/>
<rect width="83.9897" height="3.90607" transform="matrix(0.999993 0.00366625 0.00267013 -0.999996 1444 346.906)" fill="#EFEBEB"/>
<rect width="83.9897" height="3.90607" transform="matrix(0.999993 0.00366625 0.00267013 -0.999996 1444 337.906)" fill="#EFEBEB"/>
<rect width="83.9897" height="3.90607" transform="matrix(0.999993 0.00366625 0.00267013 -0.999996 1444 355.906)" fill="#EFEBEB"/>
<rect width="83.9897" height="3.90607" transform="matrix(0.999993 0.00366625 0.00267013 -0.999996 1444 364.906)" fill="#EFEBEB"/>
<rect x="1348.61" y="196.224" width="179.145" height="128.624" transform="rotate(0.120464 1348.61 196.224)" fill="#EFEBEB"/>
<rect x="1348.56" y="176.224" width="178.601" height="13.5116" transform="rotate(0.316789 1348.56 176.224)" fill="#EFEBEB"/>
<text fill="#9C1919" xml:space="preserve" style="white-space: pre" font-family="Another Typewriter" font-size="106" letter-spacing="0.02em"><tspan x="1442.88" y="300.147">?</tspan></text>
<path fill-rule="evenodd" clip-rule="evenodd" d="M1348.48 302.014L1348.61 238.278C1352.72 236.556 1356.95 235.574 1361.05 235.574C1363.52 235.574 1365.87 235.475 1368.07 235.383C1383.35 234.743 1391.72 234.393 1384.48 269.073C1374.7 290.615 1366.21 301.088 1348.48 302.014Z" fill="#D9D9D9"/>
<path fill-rule="evenodd" clip-rule="evenodd" d="M1370.67 196.289L1397.48 238.224H1348.48L1348.55 196.224L1370.67 196.289Z" fill="#737272"/>
<path fill-rule="evenodd" clip-rule="evenodd" d="M1348.49 251.207L1348.48 229.242C1349.7 229.23 1350.92 229.224 1352.15 229.224C1387.68 229.224 1416.48 234.149 1416.48 240.224C1416.48 246.299 1387.68 251.224 1352.15 251.224C1350.92 251.224 1349.7 251.218 1348.49 251.207Z" fill="#737272"/>
<path fill-rule="evenodd" clip-rule="evenodd" d="M1348.46 324.839L1348.5 306.219C1354.81 303.68 1362.07 302.215 1369.8 302.168C1390.01 302.046 1407.12 311.672 1412.56 324.947L1348.46 324.839Z" fill="#737272"/>
<path fill-rule="evenodd" clip-rule="evenodd" d="M1366.15 316.654L1387.54 287.222L1348.65 287.076L1348.59 316.633L1366.15 316.654Z" fill="#737272"/>
<circle cx="1438.5" cy="163.5" r="4.25" fill="#EBC91A" stroke="black" stroke-width="0.5"/>
<rect x="40" y="8" width="104.18" height="26" rx="2" fill="#D7BB87"/>
<rect x="40.5" y="8.5" width="103.18" height="25" rx="1.5" stroke="black" stroke-opacity="0.14902"/>
<text fill="black" xml:space="preserve" style="white-space: pre" font-family="Inter" font-size="11" letter-spacing="0em"><tspan x="44" y="23.5">InsideEvent/Player</tspan></text>
</svg>
