<svg width="2001" height="1160" viewBox="0 0 2001 1160" fill="none" xmlns="http://www.w3.org/2000/svg">
<rect width="1920" height="1080" transform="translate(40 40)" fill="#F7F7F7"/>
<rect x="40" y="40" width="1920" height="1080" fill="#DEE7B9"/>
<rect x="40.5" y="686.693" width="1919" height="432.807" fill="#5A2B32" stroke="#974D58"/>
<rect x="40.5" y="1045.38" width="79" height="74.1181" fill="#813B45" stroke="#974D58"/>
<rect x="200.5" y="1045.38" width="79" height="74.1181" fill="#813B45" stroke="#974D58"/>
<rect x="360.5" y="1045.38" width="79" height="74.1181" fill="#813B45" stroke="#974D58"/>
<rect x="680.5" y="1045.38" width="79" height="74.1181" fill="#813B45" stroke="#974D58"/>
<rect x="840.5" y="1045.38" width="79" height="74.1181" fill="#813B45" stroke="#974D58"/>
<rect x="1000.5" y="1045.38" width="79" height="74.1181" fill="#813B45" stroke="#974D58"/>
<rect x="1160.5" y="1045.38" width="79" height="74.1181" fill="#813B45" stroke="#974D58"/>
<rect x="1320.5" y="1045.38" width="79" height="74.1181" fill="#813B45" stroke="#974D58"/>
<rect x="1480.5" y="1045.38" width="79" height="74.1181" fill="#813B45" stroke="#974D58"/>
<rect x="1640.5" y="1045.38" width="79" height="74.1181" fill="#813B45" stroke="#974D58"/>
<rect x="1800.5" y="1045.38" width="79" height="74.1181" fill="#813B45" stroke="#974D58"/>
<rect x="520.5" y="1045.38" width="79" height="74.1181" fill="#813B45" stroke="#974D58"/>
<rect x="40.5" y="744.909" width="79" height="74.1181" fill="#813B45" stroke="#974D58"/>
<rect x="200.5" y="744.909" width="79" height="74.1181" fill="#813B45" stroke="#974D58"/>
<rect x="360.5" y="744.909" width="79" height="74.1181" fill="#813B45" stroke="#974D58"/>
<rect x="680.5" y="744.909" width="79" height="74.1181" fill="#813B45" stroke="#974D58"/>
<rect x="840.5" y="744.909" width="79" height="74.1181" fill="#813B45" stroke="#974D58"/>
<rect x="1000.5" y="744.909" width="79" height="74.1181" fill="#813B45" stroke="#974D58"/>
<rect x="1160.5" y="744.909" width="79" height="74.1181" fill="#813B45" stroke="#974D58"/>
<rect x="1320.5" y="744.909" width="79" height="74.1181" fill="#813B45" stroke="#974D58"/>
<rect x="1480.5" y="744.909" width="79" height="74.1181" fill="#813B45" stroke="#974D58"/>
<rect x="1640.5" y="744.909" width="79" height="74.1181" fill="#813B45" stroke="#974D58"/>
<rect x="1800.5" y="744.909" width="79" height="74.1181" fill="#813B45" stroke="#974D58"/>
<rect x="520.5" y="744.909" width="79" height="74.1181" fill="#813B45" stroke="#974D58"/>
<rect x="120.5" y="820.028" width="79" height="74.1181" fill="#813B45" stroke="#974D58"/>
<rect x="280.5" y="820.028" width="79" height="74.1181" fill="#813B45" stroke="#974D58"/>
<rect x="440.5" y="820.028" width="79" height="74.1181" fill="#813B45" stroke="#974D58"/>
<rect x="760.5" y="820.028" width="79" height="74.1181" fill="#813B45" stroke="#974D58"/>
<rect x="920.5" y="820.028" width="79" height="74.1181" fill="#813B45" stroke="#974D58"/>
<rect x="1080.5" y="820.028" width="79" height="74.1181" fill="#813B45" stroke="#974D58"/>
<rect x="1240.5" y="820.028" width="79" height="74.1181" fill="#813B45" stroke="#974D58"/>
<rect x="1400.5" y="820.028" width="79" height="74.1181" fill="#813B45" stroke="#974D58"/>
<rect x="1560.5" y="820.028" width="79" height="74.1181" fill="#813B45" stroke="#974D58"/>
<rect x="1720.5" y="820.028" width="79" height="74.1181" fill="#813B45" stroke="#974D58"/>
<rect x="1880.5" y="820.028" width="79" height="74.1181" fill="#813B45" stroke="#974D58"/>
<rect x="600.5" y="820.028" width="79" height="74.1181" fill="#813B45" stroke="#974D58"/>
<rect x="40.5" y="895.146" width="79" height="74.1181" fill="#813B45" stroke="#974D58"/>
<rect x="200.5" y="895.146" width="79" height="74.1181" fill="#813B45" stroke="#974D58"/>
<rect x="360.5" y="895.146" width="79" height="74.1181" fill="#813B45" stroke="#974D58"/>
<rect x="680.5" y="895.146" width="79" height="74.1181" fill="#813B45" stroke="#974D58"/>
<rect x="840.5" y="895.146" width="79" height="74.1181" fill="#813B45" stroke="#974D58"/>
<rect x="1000.5" y="895.146" width="79" height="74.1181" fill="#813B45" stroke="#974D58"/>
<rect x="1160.5" y="895.146" width="79" height="74.1181" fill="#813B45" stroke="#974D58"/>
<rect x="1320.5" y="895.146" width="79" height="74.1181" fill="#813B45" stroke="#974D58"/>
<rect x="1480.5" y="895.146" width="79" height="74.1181" fill="#813B45" stroke="#974D58"/>
<rect x="1640.5" y="895.146" width="79" height="74.1181" fill="#813B45" stroke="#974D58"/>
<rect x="1800.5" y="895.146" width="79" height="74.1181" fill="#813B45" stroke="#974D58"/>
<rect x="520.5" y="895.146" width="79" height="74.1181" fill="#813B45" stroke="#974D58"/>
<rect x="120.5" y="970.264" width="79" height="74.1181" fill="#813B45" stroke="#974D58"/>
<rect x="280.5" y="970.264" width="79" height="74.1181" fill="#813B45" stroke="#974D58"/>
<rect x="440.5" y="970.264" width="79" height="74.1181" fill="#813B45" stroke="#974D58"/>
<rect x="760.5" y="970.264" width="79" height="74.1181" fill="#813B45" stroke="#974D58"/>
<rect x="920.5" y="970.264" width="79" height="74.1181" fill="#813B45" stroke="#974D58"/>
<rect x="1080.5" y="970.264" width="79" height="74.1181" fill="#813B45" stroke="#974D58"/>
<rect x="1240.5" y="970.264" width="79" height="74.1181" fill="#813B45" stroke="#974D58"/>
<rect x="1400.5" y="970.264" width="79" height="74.1181" fill="#813B45" stroke="#974D58"/>
<rect x="1560.5" y="970.264" width="79" height="74.1181" fill="#813B45" stroke="#974D58"/>
<rect x="1720.5" y="970.264" width="79" height="74.1181" fill="#813B45" stroke="#974D58"/>
<rect x="1880.5" y="970.264" width="79" height="74.1181" fill="#813B45" stroke="#974D58"/>
<rect x="600.5" y="970.264" width="79" height="74.1181" fill="#813B45" stroke="#974D58"/>
<rect x="40.5" y="644.5" width="1919" height="10.2677" fill="#401F24" stroke="#974D58"/>
<rect x="40.5" y="732.703" width="1919" height="11.2067" fill="#401F24" stroke="#974D58"/>
<rect x="40.5" y="679.5" width="1919" height="4.63386" fill="#401F24" stroke="#974D58"/>
<rect x="40" y="655" width="1920" height="24" fill="#8D434E"/>
<rect x="40.416" y="691.416" width="15.8064" height="39.516" fill="#E3BD73" stroke="#974D58" stroke-width="0.831915"/>
<rect x="73.6923" y="691.416" width="15.8064" height="39.516" fill="#E3BD73" stroke="#974D58" stroke-width="0.831915"/>
<rect x="106.969" y="691.416" width="15.8064" height="39.516" fill="#E3BD73" stroke="#974D58" stroke-width="0.831915"/>
<rect x="140.246" y="691.416" width="15.8064" height="39.516" fill="#E3BD73" stroke="#974D58" stroke-width="0.831915"/>
<rect x="173.522" y="691.416" width="15.8064" height="39.516" fill="#E3BD73" stroke="#974D58" stroke-width="0.831915"/>
<rect x="206.799" y="691.416" width="15.8064" height="39.516" fill="#E3BD73" stroke="#974D58" stroke-width="0.831915"/>
<rect x="240.075" y="691.416" width="15.8064" height="39.516" fill="#E3BD73" stroke="#974D58" stroke-width="0.831915"/>
<rect x="273.352" y="691.416" width="15.8064" height="39.516" fill="#E3BD73" stroke="#974D58" stroke-width="0.831915"/>
<rect x="306.629" y="691.416" width="15.8064" height="39.516" fill="#E3BD73" stroke="#974D58" stroke-width="0.831915"/>
<rect x="339.905" y="691.416" width="15.8064" height="39.516" fill="#E3BD73" stroke="#974D58" stroke-width="0.831915"/>
<rect x="373.182" y="691.416" width="15.8064" height="39.516" fill="#E3BD73" stroke="#974D58" stroke-width="0.831915"/>
<rect x="406.459" y="691.416" width="15.8064" height="39.516" fill="#E3BD73" stroke="#974D58" stroke-width="0.831915"/>
<rect x="439.735" y="691.416" width="15.8064" height="39.516" fill="#E3BD73" stroke="#974D58" stroke-width="0.831915"/>
<rect x="473.012" y="691.416" width="15.8064" height="39.516" fill="#E3BD73" stroke="#974D58" stroke-width="0.831915"/>
<rect x="506.288" y="691.416" width="15.8064" height="39.516" fill="#E3BD73" stroke="#974D58" stroke-width="0.831915"/>
<rect x="539.564" y="691.416" width="15.8064" height="39.516" fill="#E3BD73" stroke="#974D58" stroke-width="0.831915"/>
<rect x="572.842" y="691.416" width="15.8064" height="39.516" fill="#E3BD73" stroke="#974D58" stroke-width="0.831915"/>
<rect x="606.118" y="691.416" width="15.8064" height="39.516" fill="#E3BD73" stroke="#974D58" stroke-width="0.831915"/>
<rect x="639.394" y="691.416" width="15.8064" height="39.516" fill="#E3BD73" stroke="#974D58" stroke-width="0.831915"/>
<rect x="672.671" y="691.416" width="15.8064" height="39.516" fill="#E3BD73" stroke="#974D58" stroke-width="0.831915"/>
<rect x="705.948" y="691.416" width="15.8064" height="39.516" fill="#E3BD73" stroke="#974D58" stroke-width="0.831915"/>
<rect x="739.225" y="691.416" width="15.8064" height="39.516" fill="#E3BD73" stroke="#974D58" stroke-width="0.831915"/>
<rect x="772.501" y="691.416" width="15.8064" height="39.516" fill="#E3BD73" stroke="#974D58" stroke-width="0.831915"/>
<rect x="805.777" y="691.416" width="15.8064" height="39.516" fill="#E3BD73" stroke="#974D58" stroke-width="0.831915"/>
<rect x="839.416" y="692.416" width="15.8064" height="39.516" fill="#E3BD73" stroke="#974D58" stroke-width="0.831915"/>
<rect x="872.692" y="692.416" width="15.8064" height="39.516" fill="#E3BD73" stroke="#974D58" stroke-width="0.831915"/>
<rect x="905.969" y="692.416" width="15.8064" height="39.516" fill="#E3BD73" stroke="#974D58" stroke-width="0.831915"/>
<rect x="939.246" y="692.416" width="15.8064" height="39.516" fill="#E3BD73" stroke="#974D58" stroke-width="0.831915"/>
<rect x="972.522" y="692.416" width="15.8064" height="39.516" fill="#E3BD73" stroke="#974D58" stroke-width="0.831915"/>
<rect x="1005.8" y="692.416" width="15.8064" height="39.516" fill="#E3BD73" stroke="#974D58" stroke-width="0.831915"/>
<rect x="1039.08" y="692.416" width="15.8064" height="39.516" fill="#E3BD73" stroke="#974D58" stroke-width="0.831915"/>
<rect x="1072.35" y="692.416" width="15.8064" height="39.516" fill="#E3BD73" stroke="#974D58" stroke-width="0.831915"/>
<rect x="1105.63" y="692.416" width="15.8064" height="39.516" fill="#E3BD73" stroke="#974D58" stroke-width="0.831915"/>
<rect x="1138.91" y="692.416" width="15.8064" height="39.516" fill="#E3BD73" stroke="#974D58" stroke-width="0.831915"/>
<rect x="1172.18" y="692.416" width="15.8064" height="39.516" fill="#E3BD73" stroke="#974D58" stroke-width="0.831915"/>
<rect x="1205.46" y="692.416" width="15.8064" height="39.516" fill="#E3BD73" stroke="#974D58" stroke-width="0.831915"/>
<rect x="1238.74" y="692.416" width="15.8064" height="39.516" fill="#E3BD73" stroke="#974D58" stroke-width="0.831915"/>
<rect x="1272.01" y="692.416" width="15.8064" height="39.516" fill="#E3BD73" stroke="#974D58" stroke-width="0.831915"/>
<rect x="1305.29" y="692.416" width="15.8064" height="39.516" fill="#E3BD73" stroke="#974D58" stroke-width="0.831915"/>
<rect x="1338.56" y="692.416" width="15.8064" height="39.516" fill="#E3BD73" stroke="#974D58" stroke-width="0.831915"/>
<rect x="1371.84" y="692.416" width="15.8064" height="39.516" fill="#E3BD73" stroke="#974D58" stroke-width="0.831915"/>
<rect x="1405.12" y="692.416" width="15.8064" height="39.516" fill="#E3BD73" stroke="#974D58" stroke-width="0.831915"/>
<rect x="1438.39" y="692.416" width="15.8064" height="39.516" fill="#E3BD73" stroke="#974D58" stroke-width="0.831915"/>
<rect x="1471.67" y="692.416" width="15.8064" height="39.516" fill="#E3BD73" stroke="#974D58" stroke-width="0.831915"/>
<rect x="1503.42" y="692.416" width="15.8064" height="39.516" fill="#E3BD73" stroke="#974D58" stroke-width="0.831915"/>
<rect x="1538.22" y="692.416" width="15.8064" height="39.516" fill="#E3BD73" stroke="#974D58" stroke-width="0.831915"/>
<rect x="1571.5" y="692.416" width="15.8064" height="39.516" fill="#E3BD73" stroke="#974D58" stroke-width="0.831915"/>
<rect x="1604.78" y="692.416" width="15.8064" height="39.516" fill="#E3BD73" stroke="#974D58" stroke-width="0.831915"/>
<rect x="1771.42" y="691.416" width="15.8064" height="39.516" fill="#E3BD73" stroke="#974D58" stroke-width="0.831915"/>
<rect x="1804.69" y="691.416" width="15.8064" height="39.516" fill="#E3BD73" stroke="#974D58" stroke-width="0.831915"/>
<rect x="1837.97" y="691.416" width="15.8064" height="39.516" fill="#E3BD73" stroke="#974D58" stroke-width="0.831915"/>
<rect x="1871.25" y="691.416" width="15.8064" height="39.516" fill="#E3BD73" stroke="#974D58" stroke-width="0.831915"/>
<rect x="1904.52" y="691.416" width="15.8064" height="39.516" fill="#E3BD73" stroke="#974D58" stroke-width="0.831915"/>
<rect x="1937.42" y="691.416" width="15.8064" height="39.516" fill="#E3BD73" stroke="#974D58" stroke-width="0.831915"/>
<rect x="1638.42" y="691.416" width="15.8064" height="39.516" fill="#E3BD73" stroke="#974D58" stroke-width="0.831915"/>
<rect x="1671.69" y="691.416" width="15.8064" height="39.516" fill="#E3BD73" stroke="#974D58" stroke-width="0.831915"/>
<rect x="1704.97" y="691.416" width="15.8064" height="39.516" fill="#E3BD73" stroke="#974D58" stroke-width="0.831915"/>
<rect x="1738.25" y="691.416" width="15.8064" height="39.516" fill="#E3BD73" stroke="#974D58" stroke-width="0.831915"/>
<rect x="40.5" y="684.5" width="1919" height="7" fill="#E3BD73" stroke="#974D58"/>
<rect x="40.5" y="730.5" width="1919" height="7" fill="#E3BD73" stroke="#974D58"/>
<mask id="path-127-inside-1_3_34" fill="white">
<path d="M640 345H240V1115H640V345Z"/>
</mask>
<path d="M640 345H240V1115H640V345Z" fill="#601822"/>
<path d="M640 345V343H642V345H640ZM240 345H238V343H240V345ZM640 347H240V343H640V347ZM242 345V1115H238V345H242ZM638 1115V345H642V1115H638Z" fill="black" mask="url(#path-127-inside-1_3_34)"/>
<path d="M362.5 588C362.5 630.808 397.051 665.5 439.658 665.5C482.265 665.5 516.816 630.808 516.816 588C516.816 545.192 482.265 510.5 439.658 510.5C397.051 510.5 362.5 545.192 362.5 588Z" fill="#686161" stroke="black" stroke-width="3"/>
<path d="M543.439 736.119L598.453 737.689L598.453 725.725L543.468 728.084L543.439 736.119Z" fill="#D9AC55" stroke="black"/>
<path d="M536.5 732C536.5 735.558 539.601 738.5 543.5 738.5C547.399 738.5 550.5 735.558 550.5 732C550.5 728.442 547.399 725.5 543.5 725.5C539.601 725.5 536.5 728.442 536.5 732Z" fill="#D9AC55" stroke="black"/>
<path d="M591.5 732C591.5 738.332 596.853 743.5 603.5 743.5C610.147 743.5 615.5 738.332 615.5 732C615.5 725.668 610.147 720.5 603.5 720.5C596.853 720.5 591.5 725.668 591.5 732Z" fill="#D9AC55" stroke="black"/>
<path d="M548.509 728.376L594.409 726.404L594.495 737.087L547.925 735.747L548.509 728.376Z" fill="#D9AC55"/>
<circle cx="188.5" cy="177.5" r="108.5" fill="white"/>
<rect x="291" y="405" width="297" height="74" fill="#89721E" stroke="black" stroke-width="2"/>
<rect x="1820.5" y="573.5" width="897" height="457" transform="rotate(-180 1820.5 573.5)" fill="#7B6437" stroke="#6B5730" stroke-width="3"/>
<rect x="1795.5" y="548.5" width="847" height="407" transform="rotate(-180 1795.5 548.5)" fill="#F4EFE4" stroke="#BFAA82" stroke-width="3"/>
<circle cx="1642" cy="409" r="67" transform="rotate(-180 1642 409)" fill="#CBA3A3"/>
<ellipse cx="1092.82" cy="273.953" rx="100.43" ry="95.0166" transform="rotate(177.058 1092.82 273.953)" fill="#D7BB87"/>
<circle cx="1243.5" cy="476.5" r="51.5" transform="rotate(-180 1243.5 476.5)" fill="#C68888"/>
<circle cx="1423.5" cy="209.5" r="51.5" transform="rotate(-180 1423.5 209.5)" fill="#C68888"/>
<ellipse cx="1517.49" cy="252.308" rx="105.432" ry="104.83" transform="rotate(-178.423 1517.49 252.308)" fill="#F3B947" fill-opacity="0.44"/>
<path d="M1423.1 327L1221 186.673L1227.9 176.739L1430 317.066L1423.1 327Z" fill="#A0C18E" fill-opacity="0.49"/>
<path d="M1450.68 526.915L1635.52 364.521L1643.5 373.606L1458.66 536L1450.68 526.915Z" fill="#A5C4D1"/>
<path d="M1076 393H988V304H1076V393Z" fill="#3B9BC4"/>
<path d="M1122.43 528L997.671 441.176L1010.24 423.119L1135 509.942L1122.43 528Z" fill="#8C9C83"/>
<rect x="1750" y="261" width="72" height="73" transform="rotate(-180 1750 261)" fill="#96B087"/>
<rect x="1402" y="463" width="136" height="140" transform="rotate(-180 1402 463)" fill="#947EA2"/>
<rect x="40" y="8" width="123.227" height="26" rx="2" fill="#F7F7F7"/>
<rect x="40.5" y="8.5" width="122.227" height="25" rx="1.5" stroke="black" stroke-opacity="0.14902"/>
<text fill="black" xml:space="preserve" style="white-space: pre" font-family="Inter" font-size="11" letter-spacing="0em"><tspan x="44" y="23.5">EventPlayerNonActive</tspan></text>
</svg>
