<svg width="400" height="770" viewBox="0 0 400 770" fill="none" xmlns="http://www.w3.org/2000/svg">
<mask id="path-1-inside-1_73_499" fill="white">
<path d="M0 0H400V770H0V0Z"/>
</mask>
<path d="M0 0H400V770H0V0Z" fill="#601822"/>
<path d="M0 0V-2H-2V0H0ZM400 0H402V-2H400V0ZM0 2H400V-2H0V2ZM398 0V770H402V0H398ZM2 770V0H-2V770H2Z" fill="black" mask="url(#path-1-inside-1_73_499)"/>
<path d="M210.4 194.5C210.4 200.029 205.939 204.5 200.45 204.5C194.961 204.5 190.5 200.029 190.5 194.5C190.5 188.971 194.961 184.5 200.45 184.5C205.939 184.5 210.4 188.971 210.4 194.5Z" fill="#686161" stroke="black" stroke-width="3"/>
<path d="M96.561 391.119L41.5469 392.689L41.5471 380.725L96.5319 383.084L96.561 391.119Z" fill="#D9AC55" stroke="black"/>
<path d="M103.5 387C103.5 390.558 100.399 393.5 96.5 393.5C92.601 393.5 89.5 390.558 89.5 387C89.5 383.442 92.601 380.5 96.5 380.5C100.399 380.5 103.5 383.442 103.5 387Z" fill="#D9AC55" stroke="black"/>
<path d="M48.5 387C48.5 393.332 43.1469 398.5 36.5 398.5C29.8531 398.5 24.5 393.332 24.5 387C24.5 380.668 29.8531 375.5 36.5 375.5C43.1469 375.5 48.5 380.668 48.5 387Z" fill="#D9AC55" stroke="black"/>
<path d="M91.4912 383.376L45.5912 381.404L45.5049 392.087L92.0752 390.747L91.4912 383.376Z" fill="#D9AC55"/>
</svg>
