<svg width="845" height="571" viewBox="0 0 845 571" fill="none" xmlns="http://www.w3.org/2000/svg">
<path d="M1.01562 1.27563H830.016V570.276H1.01562V1.27563Z" fill="#856831" stroke="black"/>
<path d="M24.0156 26.2756H803.016V545.276H24.0156V26.2756Z" fill="#B7A37E" stroke="black"/>
<rect x="516.277" y="342.472" width="133" height="166.593" transform="rotate(9.13988 516.277 342.472)" fill="white"/>
<rect x="221" y="229" width="187" height="83" fill="white"/>
<rect x="327.814" y="432.146" width="88" height="67" fill="white"/>
<rect x="105.495" y="74.5957" width="107" height="122" transform="rotate(-8.38102 105.495 74.5957)" fill="white"/>
<rect x="673.814" y="395.975" width="74.2896" height="106.368" transform="rotate(-8.38102 673.814 395.975)" fill="white"/>
<rect x="97" y="383.542" width="143" height="130" transform="rotate(-6.4149 97 383.542)" fill="white"/>
<line x1="231.053" y1="238.569" x2="167.351" y2="385.94" stroke="#8D1D1D" stroke-width="4"/>
<line x1="170.074" y1="385.855" x2="359.074" y2="440.855" stroke="#8D1D1D" stroke-width="4"/>
<line x1="358.85" y1="438.395" x2="526.551" y2="346.024" stroke="#8D1D1D" stroke-width="4"/>
<line x1="720.989" y1="399.705" x2="526.989" y2="346.705" stroke="#8D1D1D" stroke-width="4"/>
<line x1="232.541" y1="240.092" x2="204.541" y2="65.0917" stroke="#8D1D1D" stroke-width="4"/>
<circle cx="232.016" cy="239.276" r="4.25" fill="#EBC91A" stroke="black" stroke-width="0.5"/>
<circle cx="206.016" cy="68.2756" r="4.25" fill="#EBC91A" stroke="black" stroke-width="0.5"/>
<circle cx="170.016" cy="385.276" r="4.25" fill="#EBC91A" stroke="black" stroke-width="0.5"/>
<circle cx="359.016" cy="439.276" r="4.25" fill="#EBC91A" stroke="black" stroke-width="0.5"/>
<circle cx="526.016" cy="347.276" r="4.25" fill="#EBC91A" stroke="black" stroke-width="0.5"/>
<circle cx="721.016" cy="398.276" r="4.25" fill="#EBC91A" stroke="black" stroke-width="0.5"/>
<rect width="64.4326" height="3.90607" transform="matrix(0.989314 -0.145802 -0.145802 -0.989314 179.085 472.034)" fill="#EFEBEB"/>
<rect x="521.445" y="360.077" width="118.398" height="7.88236" transform="rotate(9.69008 521.445 360.077)" fill="#EFEBEB"/>
<rect x="114.527" y="87.4656" width="87.5146" height="34.6722" transform="rotate(-8.85104 114.527 87.4656)" fill="#EFEBEB"/>
<rect x="107" y="404.732" width="54.6059" height="71.7792" transform="rotate(-7.0821 107 404.732)" fill="#EFEBEB"/>
<rect x="169.724" y="415.653" width="63.3735" height="11.246" transform="rotate(-7.0821 169.724 415.653)" fill="#EFEBEB"/>
<rect width="55.4156" height="3.90607" transform="matrix(0.989314 -0.145802 -0.145802 -0.989314 118.569 489.09)" fill="#EFEBEB"/>
<rect width="55.4156" height="3.90607" transform="matrix(0.989314 -0.145802 -0.145802 -0.989314 119.569 496.944)" fill="#EFEBEB"/>
<rect width="55.4156" height="3.90607" transform="matrix(0.989314 -0.145802 -0.145802 -0.989314 120.569 505.944)" fill="#EFEBEB"/>
<rect width="64.4326" height="3.90607" transform="matrix(0.989314 -0.145802 -0.145802 -0.989314 179.569 479.944)" fill="#EFEBEB"/>
<rect width="64.4326" height="3.90607" transform="matrix(0.989314 -0.145802 -0.145802 -0.989314 181.569 487.259)" fill="#EFEBEB"/>
<rect width="30.8157" height="2.81043" transform="matrix(0.999968 0.00801929 0.00801929 -0.999968 380 475.81)" fill="#EFEBEB"/>
<rect width="30.8157" height="2.81043" transform="matrix(0.999968 0.00801929 0.00801929 -0.999968 380 479.81)" fill="#EFEBEB"/>
<rect width="30.8157" height="2.81043" transform="matrix(0.999968 0.00801929 0.00801929 -0.999968 380 483.81)" fill="#EFEBEB"/>
<rect width="30.8157" height="2.81043" transform="matrix(0.999968 0.00801929 0.00801929 -0.999968 380 487.81)" fill="#EFEBEB"/>
<rect width="30.8157" height="2.81043" transform="matrix(0.999968 0.00801929 0.00801929 -0.999968 380 491.81)" fill="#EFEBEB"/>
<rect width="64.4326" height="3.90607" transform="matrix(0.989314 -0.145802 -0.145802 -0.989314 182.569 496.259)" fill="#EFEBEB"/>
<rect width="64.4326" height="3.90607" transform="matrix(0.989314 -0.145802 -0.145802 -0.989314 173.569 437.259)" fill="#EFEBEB"/>
<rect width="64.4326" height="3.90607" transform="matrix(0.989314 -0.145802 -0.145802 -0.989314 174.569 445.944)" fill="#EFEBEB"/>
<rect width="64.4326" height="3.90607" transform="matrix(0.989314 -0.145802 -0.145802 -0.989314 176.569 453.259)" fill="#EFEBEB"/>
<rect width="64.4326" height="3.90607" transform="matrix(0.989314 -0.145802 -0.145802 -0.989314 177.569 462.259)" fill="#EFEBEB"/>
<rect x="124" y="132.248" width="40.6093" height="45.1668" transform="rotate(-8.85104 124 132.248)" fill="#EFEBEB"/>
<rect x="168" y="121.552" width="40.2321" height="51.6115" transform="rotate(-8.85104 168 121.552)" fill="#EFEBEB"/>
<rect x="234.121" y="243" width="53.8884" height="59.2939" transform="rotate(1.08348 234.121 243)" fill="#EFEBEB"/>
<rect x="292.48" y="242.643" width="107.92" height="60.0277" transform="rotate(0.120464 292.48 242.643)" fill="#EFEBEB"/>
<rect x="335.595" y="445" width="40.4982" height="48.5495" transform="rotate(0.701631 335.595 445)" fill="#EFEBEB"/>
<rect x="682.602" y="409.91" width="59.6819" height="48.5495" transform="rotate(-8.12655 682.602 409.91)" fill="#EFEBEB"/>
<rect x="510.035" y="416.471" width="119.511" height="87.0703" transform="rotate(9.27588 510.035 416.471)" fill="#EFEBEB"/>
<rect x="380.595" y="445" width="30.7214" height="25.6257" transform="rotate(0.701631 380.595 445)" fill="#EFEBEB"/>
<rect x="581.994" y="381" width="55.0766" height="41.5509" transform="rotate(9.69008 581.994 381)" fill="#EFEBEB"/>
<rect x="519.309" y="370.542" width="57.8008" height="41.5509" transform="rotate(9.69008 519.309 370.542)" fill="#EFEBEB"/>
<rect width="61.2378" height="4.06436" transform="matrix(0.987901 -0.155083 -0.155083 -0.987901 690.415 468.306)" fill="#EFEBEB"/>
<rect width="61.2378" height="4.06436" transform="matrix(0.987901 -0.155083 -0.155083 -0.987901 691.63 475.512)" fill="#EFEBEB"/>
<rect width="61.2378" height="4.06436" transform="matrix(0.987901 -0.155083 -0.155083 -0.987901 692.63 482.512)" fill="#EFEBEB"/>
<rect width="61.2378" height="4.06436" transform="matrix(0.987901 -0.155083 -0.155083 -0.987901 693.63 489.512)" fill="#EFEBEB"/>
<rect width="61.2378" height="4.06436" transform="matrix(0.987901 -0.155083 -0.155083 -0.987901 694.63 496.512)" fill="#EFEBEB"/>
</svg>
