<svg width="636" height="538" viewBox="0 0 636 538" fill="none" xmlns="http://www.w3.org/2000/svg">
<rect x="2.00968" y="243.008" width="543.376" height="326.868" rx="28.5" transform="rotate(-26.3288 2.00968 243.008)" fill="white" stroke="black" stroke-width="3"/>
<path d="M157.378 230.132C157.897 231.181 158.564 232.022 159.38 232.656C160.21 233.25 161.1 233.663 162.052 233.895C163.017 234.087 164.023 234.091 165.07 233.907C166.131 233.751 167.145 233.433 168.113 232.954C169.511 232.262 170.514 231.448 171.122 230.511C171.716 229.548 172.062 228.523 172.161 227.436C172.273 226.31 172.197 225.142 171.934 223.934C171.697 222.712 171.441 221.483 171.164 220.248L166.473 210.971L166.074 210.164L163.039 204.235L163.202 203.753C163.202 203.753 163.31 203.7 163.525 203.593C163.754 203.446 163.935 203.34 164.07 203.273C164.58 203.021 165.084 202.821 165.581 202.676C166.092 202.49 166.616 202.264 167.154 201.998C167.692 201.732 168.156 201.419 168.546 201.058C168.937 200.697 169.201 200.182 169.338 199.512L168.998 198.826C168.613 198.046 168.078 197.608 167.394 197.511C166.737 197.401 166.019 197.438 165.24 197.623L163.506 198.481C163.21 198.628 162.807 198.827 162.296 199.08C161.772 199.306 161.368 199.573 161.085 199.88L154.309 203.233C153.947 203.312 153.658 203.405 153.443 203.511C153.241 203.578 152.993 203.684 152.697 203.83C151.998 204.176 151.446 204.684 151.04 205.353C150.662 206.009 150.666 206.726 151.052 207.506C151.411 208.232 152.033 208.678 152.918 208.842C153.307 208.817 153.622 208.778 153.864 208.725C154.133 208.659 154.374 208.607 154.589 208.567C154.818 208.488 155.039 208.395 155.254 208.288C155.47 208.182 155.725 208.055 156.021 207.909C156.478 207.683 156.895 207.443 157.271 207.19C157.662 206.896 158.085 206.636 158.543 206.41C158.623 206.37 158.737 206.33 158.885 206.291C159.02 206.224 159.087 206.191 159.087 206.191L159.569 206.354L159.988 207.201C160.148 207.524 160.328 207.887 160.527 208.29C160.74 208.653 160.859 209.029 160.885 209.418L163.221 213.936L163.62 214.743L166.594 220.551C166.594 220.618 166.62 220.772 166.673 221.014C166.739 221.216 166.786 221.343 166.812 221.397C166.866 221.504 166.952 221.713 167.071 222.022C167.191 222.331 167.317 222.653 167.45 222.989C167.609 223.312 167.749 223.628 167.868 223.937C168.002 224.206 168.095 224.394 168.148 224.502C168.174 224.69 168.186 224.985 168.185 225.387C168.17 225.763 168.114 226.158 168.019 226.574C167.91 226.963 167.774 227.331 167.612 227.679C167.476 228.014 167.301 228.235 167.086 228.341L163.94 229.898C163.805 229.964 163.617 229.957 163.376 229.875C163.162 229.781 163.022 229.666 162.955 229.532L162.915 229.451C162.915 229.384 162.889 229.263 162.836 229.088C162.81 228.9 162.784 228.78 162.757 228.726C162.906 228.351 163.028 228.023 163.123 227.741C163.245 227.447 163.327 227.172 163.368 226.917C163.396 226.635 163.384 226.374 163.331 226.132C163.292 225.85 163.186 225.534 163.013 225.185C162.827 224.808 162.547 224.445 162.173 224.095C161.798 223.744 161.377 223.468 160.908 223.264C160.466 223.048 160.004 222.925 159.521 222.896C159.025 222.841 158.562 222.919 158.131 223.132C157.997 223.199 157.836 223.312 157.647 223.472C157.459 223.632 157.337 223.793 157.283 223.954C156.849 225.039 156.623 226.071 156.606 227.05C156.588 228.03 156.846 229.057 157.378 230.132ZM179.021 189.197C177.677 189.862 176.633 190.73 175.891 191.8C175.135 192.844 174.601 193.995 174.287 195.255C173.973 196.515 173.84 197.836 173.888 199.218C173.923 200.573 174.045 201.902 174.254 203.204C174.293 203.419 174.346 203.728 174.411 204.131C174.49 204.493 174.576 204.869 174.668 205.259C174.747 205.621 174.813 205.957 174.865 206.266C174.945 206.561 174.991 206.722 175.004 206.749L178.217 213.243C178.231 213.27 178.291 213.357 178.397 213.505C178.531 213.64 178.665 213.808 178.798 214.01C178.945 214.171 179.098 214.346 179.259 214.535C179.406 214.697 179.532 214.818 179.639 214.899C180.054 215.33 180.575 215.808 181.203 216.334C181.832 216.86 182.507 217.379 183.229 217.892C183.965 218.365 184.708 218.784 185.458 219.149C186.208 219.514 186.905 219.739 187.548 219.822C187.629 219.849 187.803 219.863 188.071 219.864C188.367 219.852 188.668 219.853 188.977 219.868C189.272 219.856 189.554 219.85 189.822 219.851C190.091 219.852 190.258 219.853 190.325 219.853C191.063 219.856 191.727 219.846 192.318 219.821C192.935 219.784 193.593 219.592 194.293 219.246C194.696 219.046 195.005 218.86 195.221 218.686C195.423 218.486 195.591 218.285 195.726 218.084C195.888 217.87 196.05 217.656 196.212 217.442C196.36 217.202 196.563 216.934 196.819 216.64C197.991 215.357 198.789 213.958 199.211 212.444C199.647 210.889 199.821 209.313 199.733 207.717C199.633 206.093 199.324 204.488 198.807 202.903C198.304 201.277 197.7 199.752 196.995 198.327C196.276 196.875 195.39 195.557 194.335 194.372C193.28 193.187 192.11 192.075 190.827 191.037C190.224 190.833 189.668 190.556 189.16 190.205C188.638 189.827 188.096 189.476 187.534 189.151C187.253 188.989 186.925 188.901 186.549 188.886C186.2 188.858 185.878 188.816 185.583 188.761C184.953 188.638 184.357 188.548 183.793 188.492C183.244 188.396 182.707 188.36 182.184 188.385C181.661 188.409 181.144 188.481 180.633 188.6C180.123 188.718 179.586 188.917 179.021 189.197ZM179.73 207.574C179.291 206.686 178.887 205.531 178.517 204.107C178.174 202.67 177.992 201.221 177.971 199.758C177.95 198.296 178.164 196.935 178.612 195.675C179.06 194.416 179.875 193.494 181.058 192.908C181.811 192.536 182.509 192.424 183.153 192.575C183.783 192.698 184.507 192.842 185.324 193.006C186.182 193.184 186.933 193.449 187.575 193.8C188.204 194.125 188.78 194.51 189.301 194.955C189.823 195.4 190.31 195.911 190.764 196.49C191.231 197.029 191.719 197.608 192.226 198.227L194.8 203.43C195.027 203.887 195.126 204.29 195.097 204.638C195.096 204.974 195.121 205.363 195.173 205.806C195.278 206.357 195.376 207.028 195.467 207.82C195.544 208.585 195.541 209.356 195.457 210.134C195.36 210.885 195.163 211.602 194.865 212.285C194.553 212.941 194.075 213.429 193.43 213.748L189.477 215.704C189.181 215.85 188.759 215.842 188.209 215.679C187.66 215.515 187.084 215.298 186.481 215.028C185.906 214.743 185.35 214.433 184.815 214.095C184.306 213.744 183.952 213.468 183.752 213.265C182.95 212.457 182.209 211.569 181.529 210.6C180.835 209.604 180.236 208.595 179.73 207.574ZM205.474 211.202C205.7 211.659 205.967 211.996 206.274 212.212C206.609 212.415 206.971 212.537 207.36 212.579C207.735 212.594 208.111 212.541 208.487 212.422C208.904 212.317 209.3 212.171 209.676 211.984C210.295 211.678 210.86 211.365 211.371 211.046C211.882 210.726 212.447 210.413 213.065 210.107C213.361 209.96 213.744 209.754 214.215 209.488C214.726 209.235 215.189 209.089 215.605 209.051L221.131 206.316C221.83 205.97 222.375 205.449 222.767 204.753C223.173 204.017 223.183 203.259 222.797 202.479C222.677 202.237 222.477 202.035 222.195 201.873C221.941 201.698 221.667 201.582 221.372 201.528C221.064 201.446 220.748 201.418 220.426 201.443C220.104 201.469 219.822 201.541 219.58 201.661L215.668 203.597L214.924 203.312L209.695 192.745C209.643 192.436 209.57 192.188 209.477 192C209.411 191.798 209.318 191.576 209.198 191.334C209.065 191.066 208.945 190.857 208.838 190.709C208.745 190.521 208.585 190.299 208.358 190.043L205.005 183.267L205.087 183.026L205.893 182.627C206.404 182.374 206.908 182.175 207.405 182.029C207.889 181.857 208.386 181.644 208.897 181.392C209.596 181.046 210.121 180.652 210.472 180.211C210.836 179.729 210.825 179.099 210.439 178.319C210.027 177.485 209.485 177.067 208.814 177.064C208.17 177.048 207.472 177.193 206.719 177.498C205.967 177.804 205.221 178.156 204.481 178.556C203.742 178.955 203.097 179.14 202.547 179.111L196.094 182.305C195.758 182.303 195.51 182.343 195.349 182.422C195.201 182.462 195.02 182.535 194.804 182.642C194.509 182.788 194.226 182.995 193.957 183.262C193.674 183.502 193.445 183.783 193.269 184.104C193.12 184.412 193.032 184.741 193.003 185.089C192.975 185.438 193.041 185.774 193.2 186.096C193.347 186.392 193.574 186.648 193.881 186.864C194.189 187.08 194.524 187.249 194.886 187.371C195.247 187.493 195.616 187.562 195.992 187.577C196.354 187.565 196.683 187.486 196.979 187.34L201.254 185.224L201.535 185.386C201.548 185.413 201.588 185.494 201.655 185.628C201.735 185.722 201.788 185.796 201.815 185.85C201.948 186.119 202.054 186.368 202.134 186.596C202.2 186.798 202.232 187.066 202.231 187.401L211.053 205.228C211.093 205.309 211.038 205.436 210.89 205.61C210.728 205.757 210.553 205.91 210.365 206.071C210.163 206.204 209.961 206.337 209.76 206.471C209.544 206.577 209.423 206.637 209.397 206.65C209.02 206.836 208.63 206.996 208.227 207.128C207.838 207.221 207.455 207.36 207.078 207.546C206.379 207.892 205.841 208.393 205.462 209.049C205.084 209.705 205.088 210.423 205.474 211.202ZM236.358 189.994L240.426 194.258C240.786 194.648 241.282 194.905 241.912 195.028C242.542 195.152 243.099 195.094 243.583 194.854C244.121 194.588 244.505 194.147 244.735 193.531C244.993 192.901 244.982 192.304 244.702 191.739L238.135 178.672L237.756 177.905L233.225 168.951L233.306 168.71C233.575 168.577 233.884 168.424 234.234 168.251C234.583 168.078 234.913 167.898 235.222 167.712C235.545 167.485 235.821 167.231 236.05 166.95C236.28 166.669 236.415 166.335 236.457 165.946C236.43 165.892 236.371 165.771 236.277 165.583C236.211 165.381 236.165 165.254 236.138 165.2C235.712 164.339 235.084 163.881 234.252 163.824C233.407 163.74 232.581 163.897 231.775 164.296C231.506 164.429 231.284 164.556 231.109 164.676C230.961 164.783 230.786 164.97 230.584 165.237L224.453 168.271C224.077 168.457 223.841 168.758 223.745 169.174C223.636 169.562 223.661 169.918 223.821 170.241C224.101 170.805 224.455 171.182 224.883 171.372C225.312 171.562 225.774 171.651 226.271 171.639C226.781 171.588 227.291 171.469 227.802 171.283C228.312 171.098 228.776 170.918 229.192 170.746L229.735 170.828L235.364 182.202C235.444 182.229 235.564 182.337 235.725 182.526C235.885 182.714 235.978 182.835 236.005 182.889C236.071 183.023 236.184 183.252 236.344 183.575C236.504 183.897 236.657 184.24 236.803 184.603C236.976 184.952 237.129 185.295 237.261 185.631C237.421 185.954 237.534 186.182 237.601 186.317C237.574 186.33 237.574 186.364 237.6 186.417C237.614 186.444 237.6 186.451 237.56 186.437C237.52 186.424 237.433 186.383 237.299 186.315C237.152 186.221 237.051 186.153 236.998 186.113C235.807 185.196 234.611 184.198 233.408 183.12C232.232 182.028 231.129 181.017 230.1 180.087C230.086 180.06 230.026 180.007 229.919 179.926C229.839 179.831 229.759 179.737 229.679 179.643C229.585 179.522 229.485 179.421 229.378 179.34C229.298 179.246 229.251 179.185 229.238 179.158C229.171 179.091 228.977 178.936 228.656 178.693C228.335 178.45 227.988 178.187 227.613 177.904C227.266 177.607 226.931 177.337 226.61 177.095C226.289 176.852 226.095 176.697 226.029 176.629C225.908 176.521 225.628 176.259 225.187 175.841C224.746 175.423 224.271 174.972 223.763 174.487C223.282 173.988 222.828 173.544 222.4 173.153C221.959 172.735 221.679 172.472 221.558 172.364C221.171 171.987 220.662 171.67 220.033 171.412C219.43 171.142 218.86 171.139 218.322 171.405L213.765 173.661C213.119 173.98 212.681 174.448 212.451 175.064C212.22 175.68 212.251 176.284 212.544 176.876C212.611 177.01 212.71 177.178 212.844 177.38C212.964 177.555 213.097 177.723 213.244 177.885C213.405 178.006 213.572 178.107 213.746 178.189C213.934 178.23 214.135 178.197 214.35 178.09L217.214 176.673L217.676 176.796C219.047 179.565 220.464 182.295 221.929 184.984C223.38 187.647 224.785 190.349 226.142 193.092C226.421 193.656 226.654 194.228 226.839 194.805C227.011 195.356 227.271 195.914 227.617 196.479L227.454 196.961C227.347 197.014 227.165 197.121 226.909 197.281C226.667 197.401 226.405 197.547 226.123 197.72C225.854 197.853 225.592 198 225.336 198.16C225.094 198.28 224.919 198.366 224.812 198.419C224.354 198.713 224.124 199.161 224.122 199.765C224.133 200.328 224.178 200.825 224.257 201.255L224.456 201.658C224.682 202.115 225.023 202.432 225.479 202.608C225.948 202.744 226.431 202.773 226.927 202.695C227.089 202.615 227.364 202.495 227.754 202.336C228.171 202.163 228.601 201.984 229.044 201.798C229.474 201.585 229.884 201.399 230.274 201.239C230.677 201.04 230.96 200.9 231.121 200.82L231.726 200.521C232.748 200.015 233.682 199.469 234.53 198.882C235.378 198.295 236.339 197.769 237.414 197.304C237.886 196.904 238.102 196.462 238.064 195.979C238.012 195.468 237.88 194.998 237.667 194.568L237.388 194.004L236.423 193.678C236.383 193.664 236.269 193.67 236.081 193.696C235.92 193.709 235.719 193.742 235.477 193.794C235.249 193.807 235.014 193.839 234.772 193.892C234.517 193.918 234.329 193.944 234.208 193.97L233.805 194.17C233.563 194.29 233.381 194.463 233.259 194.691C233.151 194.878 232.976 195.032 232.734 195.152C232.546 195.245 232.251 195.257 231.849 195.188C231.446 195.119 231.192 194.978 231.086 194.762L229.05 190.649C229.011 190.3 228.932 190.004 228.812 189.762C228.679 189.493 228.539 189.211 228.393 188.915C228.247 188.619 228.114 188.35 227.994 188.108C227.861 187.84 227.667 187.584 227.413 187.341L223.422 179.275L223.583 179.195C223.583 179.195 223.904 179.471 224.546 180.024C225.214 180.564 226.003 181.211 226.912 181.966C227.848 182.708 228.804 183.49 229.78 184.312C230.756 185.135 231.559 185.809 232.187 186.335C232.922 186.941 233.604 187.575 234.232 188.235C234.887 188.882 235.595 189.468 236.358 189.994ZM279.492 176.482C280.057 176.202 280.648 176.01 281.265 175.906C281.883 175.801 282.461 175.615 282.998 175.349L283.079 175.309C283.119 175.256 283.221 175.156 283.382 175.009C283.571 174.848 283.685 174.742 283.726 174.688L293.042 170.078C293.338 169.931 293.56 169.704 293.709 169.396C293.872 169.048 293.96 168.686 293.975 168.31C294.017 167.922 294.012 167.539 293.96 167.163C293.894 166.761 293.802 166.438 293.682 166.196C293.576 165.981 293.476 165.813 293.382 165.692C293.302 165.531 293.129 165.349 292.861 165.146L289.349 158.048C289.096 157.537 288.728 157.167 288.246 156.936C287.791 156.693 287.322 156.691 286.838 156.931C286.273 157.21 285.956 157.618 285.887 158.154C285.831 158.651 285.896 159.221 286.081 159.866C286.293 160.497 286.559 161.169 286.878 161.882C287.224 162.581 287.502 163.279 287.714 163.978C287.94 164.636 288.051 165.267 288.049 165.871C288.06 166.435 287.83 166.917 287.358 167.317C287.224 167.384 287.002 167.51 286.693 167.697C286.397 167.843 286.081 168.016 285.745 168.216C285.395 168.389 285.066 168.569 284.756 168.755C284.447 168.942 284.238 169.062 284.131 169.115C283.848 169.288 283.64 169.509 283.504 169.777C283.356 170.018 283.147 170.205 282.878 170.338C282.744 170.404 282.663 170.444 282.636 170.457C282.596 170.444 282.542 170.437 282.475 170.437C282.435 170.423 282.368 170.423 282.274 170.436C282.194 170.409 282.039 170.401 281.811 170.414C281.717 170.427 281.556 170.473 281.328 170.553C281.099 170.632 280.871 170.712 280.642 170.791C280.414 170.871 280.212 170.937 280.038 170.99C279.85 171.016 279.736 170.989 279.696 170.908L271.952 155.259C271.952 155.192 271.919 155.058 271.853 154.856C271.801 154.615 271.761 154.467 271.734 154.413C271.668 154.279 271.568 154.044 271.435 153.708C271.303 153.372 271.143 153.015 270.957 152.639C270.797 152.249 270.638 151.893 270.478 151.57C270.345 151.234 270.246 150.999 270.179 150.865L270.261 150.624L274.859 148.348C275.343 148.109 275.639 147.761 275.748 147.306C275.871 146.81 275.819 146.333 275.593 145.876C275.354 145.392 275.04 145.062 274.651 144.886C274.29 144.697 273.895 144.608 273.465 144.62C273.036 144.631 272.593 144.717 272.136 144.876C271.706 145.021 271.303 145.188 270.926 145.374C270.469 145.6 270.052 145.84 269.676 146.093C269.299 146.347 268.895 146.58 268.465 146.793C268.062 146.992 267.659 147.158 267.256 147.291C266.853 147.423 266.436 147.596 266.006 147.809C265.576 148.022 265.172 148.255 264.795 148.508C264.419 148.761 264.015 148.995 263.585 149.208C263.047 149.474 262.483 149.686 261.892 149.845C261.301 150.003 260.737 150.215 260.199 150.482C259.527 150.814 259.022 151.282 258.684 151.884C258.346 152.486 258.357 153.151 258.716 153.876C258.942 154.334 259.316 154.718 259.838 155.028C260.387 155.326 260.93 155.341 261.468 155.075L265.743 152.96L266.466 153.305C266.493 153.291 266.593 153.46 266.766 153.809C266.926 154.132 267.052 154.387 267.145 154.575C267.278 154.844 267.498 155.288 267.804 155.906C268.097 156.498 268.269 157.015 268.321 157.458L274.328 169.598C274.622 169.854 274.856 170.157 275.029 170.506C275.202 170.856 275.361 171.179 275.508 171.474C275.561 171.582 275.647 171.79 275.767 172.099C275.913 172.395 276.013 172.597 276.066 172.704C276.038 172.986 275.943 173.267 275.781 173.548C275.619 173.829 275.417 174.03 275.175 174.15C274.718 174.376 274.234 174.515 273.724 174.566C273.201 174.591 272.71 174.716 272.253 174.943C271.554 175.289 271.076 175.743 270.819 176.305C270.562 176.868 270.613 177.512 270.972 178.238C271.318 178.937 271.839 179.382 272.536 179.572C273.247 179.723 273.951 179.625 274.65 179.279C275.511 178.854 276.318 178.387 277.071 177.881C277.852 177.361 278.658 176.894 279.492 176.482ZM292.155 133.212C290.811 133.877 289.767 134.745 289.025 135.815C288.269 136.859 287.735 138.01 287.421 139.27C287.107 140.53 286.974 141.851 287.022 143.233C287.057 144.588 287.179 145.917 287.388 147.219C287.427 147.434 287.48 147.743 287.545 148.146C287.624 148.508 287.71 148.884 287.802 149.274C287.881 149.636 287.947 149.972 287.999 150.281C288.079 150.576 288.125 150.737 288.138 150.764L291.351 157.258C291.365 157.285 291.425 157.372 291.532 157.52C291.665 157.655 291.799 157.823 291.932 158.025C292.079 158.186 292.232 158.361 292.393 158.55C292.54 158.712 292.667 158.833 292.774 158.914C293.188 159.345 293.709 159.823 294.337 160.349C294.966 160.875 295.641 161.394 296.363 161.907C297.099 162.38 297.842 162.799 298.592 163.164C299.342 163.529 300.039 163.754 300.682 163.837C300.763 163.864 300.937 163.878 301.205 163.879C301.501 163.867 301.803 163.868 302.111 163.883C302.406 163.871 302.688 163.865 302.956 163.866C303.225 163.867 303.392 163.868 303.459 163.868C304.197 163.871 304.862 163.861 305.452 163.836C306.069 163.798 306.727 163.607 307.427 163.261C307.83 163.061 308.139 162.875 308.355 162.701C308.557 162.501 308.725 162.3 308.86 162.099C309.022 161.885 309.184 161.671 309.346 161.457C309.494 161.217 309.697 160.949 309.953 160.655C311.125 159.372 311.923 157.973 312.345 156.459C312.781 154.904 312.955 153.328 312.868 151.732C312.767 150.108 312.458 148.503 311.942 146.918C311.438 145.292 310.834 143.767 310.129 142.342C309.411 140.89 308.524 139.572 307.469 138.387C306.414 137.202 305.244 136.09 303.961 135.052C303.358 134.848 302.802 134.571 302.294 134.22C301.772 133.842 301.23 133.491 300.668 133.166C300.387 133.004 300.059 132.916 299.683 132.901C299.334 132.872 299.012 132.831 298.717 132.776C298.087 132.653 297.491 132.563 296.927 132.507C296.378 132.411 295.841 132.375 295.318 132.4C294.795 132.424 294.278 132.496 293.767 132.615C293.257 132.733 292.72 132.932 292.155 133.212ZM292.864 151.589C292.425 150.701 292.021 149.546 291.651 148.122C291.308 146.685 291.126 145.235 291.105 143.773C291.084 142.311 291.298 140.95 291.746 139.69C292.194 138.431 293.009 137.509 294.192 136.923C294.945 136.551 295.643 136.439 296.287 136.59C296.917 136.713 297.641 136.857 298.458 137.021C299.316 137.199 300.067 137.464 300.709 137.815C301.338 138.14 301.914 138.525 302.435 138.97C302.957 139.415 303.444 139.926 303.898 140.505C304.365 141.044 304.853 141.623 305.36 142.242L307.935 147.445C308.161 147.902 308.26 148.305 308.231 148.653C308.23 148.989 308.255 149.378 308.307 149.821C308.412 150.372 308.51 151.043 308.601 151.835C308.678 152.6 308.675 153.371 308.591 154.149C308.494 154.9 308.297 155.617 307.999 156.3C307.687 156.956 307.209 157.444 306.564 157.763L302.611 159.719C302.315 159.865 301.893 159.857 301.343 159.694C300.794 159.53 300.218 159.313 299.615 159.043C299.04 158.758 298.484 158.448 297.949 158.11C297.441 157.759 297.086 157.483 296.886 157.28C296.084 156.472 295.343 155.584 294.663 154.615C293.969 153.619 293.37 152.61 292.864 151.589ZM318.568 155.137C318.86 155.728 319.301 156.146 319.891 156.39C320.467 156.607 321.064 156.562 321.682 156.256L322.166 156.017C322.677 155.764 323.531 155.325 324.728 154.699C325.965 154.087 327.309 153.422 328.761 152.703C330.213 151.985 331.544 151.326 332.754 150.727C333.977 150.088 334.858 149.636 335.396 149.37C336.082 148.863 336.668 148.288 337.154 147.646C337.666 146.991 338.165 146.309 338.651 145.6C338.922 144.93 339.1 144.206 339.183 143.429C339.267 142.651 339.264 141.866 339.173 141.074C339.109 140.269 338.978 139.497 338.78 138.758C338.569 137.992 338.31 137.3 338.004 136.682C337.578 135.821 337.098 135.122 336.563 134.583C336.016 134.017 335.334 133.451 334.518 132.884C334.33 132.776 334.103 132.688 333.835 132.62C333.567 132.551 333.292 132.47 333.011 132.375C332.729 132.28 332.468 132.191 332.227 132.11C331.999 131.988 331.845 131.847 331.766 131.685C331.619 131.39 331.594 130.967 331.69 130.417C331.787 129.867 331.862 129.479 331.917 129.251C332 128.607 331.962 127.923 331.804 127.198C331.646 126.472 331.421 125.814 331.128 125.223C330.529 124.013 329.822 123.057 329.007 122.356C328.205 121.615 327.315 121.101 326.336 120.816C325.358 120.53 324.292 120.438 323.138 120.541C321.997 120.603 320.789 120.833 319.512 121.23L318.706 121.629C317.577 122.188 316.501 122.821 315.478 123.528C314.455 124.235 313.38 124.868 312.25 125.427L309.79 126.644C309.24 126.749 308.796 126.868 308.46 127.001C308.111 127.107 307.721 127.266 307.291 127.479C306.7 127.772 306.322 128.193 306.159 128.742C305.982 129.265 306.04 129.822 306.333 130.413C306.706 131.166 307.234 131.591 307.918 131.688C308.615 131.744 309.313 131.599 310.013 131.253C310.335 131.094 310.631 130.914 310.9 130.714C311.196 130.5 311.506 130.314 311.828 130.154L312.111 130.014C312.326 129.908 312.574 129.835 312.856 129.796C313.138 129.757 313.319 129.818 313.399 129.979L323.478 150.347L323.396 150.588C323.369 150.602 323.268 150.668 323.094 150.788C322.932 150.868 322.811 150.928 322.731 150.968C322.247 151.207 321.763 151.413 321.279 151.586C320.782 151.731 320.305 151.917 319.848 152.143L318.88 152.622C318.219 153.384 318.115 154.222 318.568 155.137ZM322.943 138.612C323.131 138.519 323.305 138.466 323.466 138.453C323.654 138.427 323.842 138.368 324.031 138.274C324.219 138.181 324.36 138.095 324.454 138.015C324.549 137.934 324.663 137.761 324.799 137.493L329.356 135.237C329.41 135.211 329.564 135.218 329.819 135.259C330.087 135.261 330.282 135.282 330.402 135.322L333.236 136.28C333.611 136.429 333.898 136.739 334.097 137.209C334.324 137.666 334.523 138.07 334.696 138.419C335.042 139.118 335.294 139.763 335.453 140.354C335.638 140.932 335.703 141.502 335.647 142.066C335.578 142.602 335.394 143.145 335.097 143.693C334.827 144.229 334.408 144.804 333.842 145.419C332.914 145.912 332.02 146.438 331.159 146.998C330.312 147.518 329.431 148.004 328.517 148.456C328.355 148.536 328.093 148.615 327.731 148.694C327.382 148.733 327.148 148.631 327.028 148.389L322.577 139.395C322.55 139.342 322.564 139.234 322.619 139.074C322.7 138.9 322.767 138.766 322.822 138.672L322.943 138.612ZM316.789 127.699L321.831 125.204C322.435 125.073 322.912 124.954 323.261 124.848C323.624 124.702 323.966 124.616 324.288 124.591C324.597 124.538 324.919 124.58 325.254 124.715C325.602 124.811 326.064 125.034 326.64 125.385C326.8 125.44 326.907 125.521 326.961 125.628L328.278 128.29C328.411 128.559 328.457 128.854 328.415 129.176C328.4 129.485 328.339 129.8 328.23 130.121C328.108 130.416 327.966 130.704 327.804 130.985C327.669 131.253 327.534 131.487 327.399 131.687C326.699 132.1 325.886 132.553 324.958 133.046C324.03 133.538 323.136 133.998 322.276 134.423L321.792 134.663C321.523 134.796 321.227 134.909 320.905 135.001C320.596 135.054 320.368 134.932 320.222 134.636L316.789 127.699ZM343.164 142.965C343.457 143.557 343.898 143.974 344.487 144.218C345.063 144.435 345.66 144.391 346.279 144.085L346.763 143.845C347.273 143.592 348.127 143.153 349.324 142.528C350.561 141.916 351.905 141.25 353.357 140.532C354.809 139.813 356.14 139.155 357.35 138.556C358.573 137.917 359.454 137.464 359.992 137.198C360.678 136.691 361.264 136.117 361.75 135.475C362.262 134.82 362.761 134.137 363.247 133.428C363.519 132.759 363.696 132.035 363.78 131.257C363.863 130.479 363.86 129.694 363.769 128.902C363.705 128.097 363.574 127.325 363.376 126.586C363.165 125.821 362.906 125.129 362.6 124.51C362.174 123.65 361.694 122.95 361.16 122.411C360.612 121.846 359.93 121.279 359.114 120.712C358.927 120.604 358.699 120.516 358.431 120.448C358.163 120.38 357.888 120.298 357.607 120.203C357.325 120.108 357.064 120.02 356.823 119.938C356.595 119.817 356.442 119.675 356.362 119.514C356.215 119.218 356.19 118.795 356.286 118.246C356.383 117.696 356.458 117.307 356.513 117.079C356.596 116.436 356.558 115.751 356.4 115.026C356.242 114.301 356.017 113.643 355.724 113.051C355.126 111.841 354.418 110.886 353.603 110.185C352.801 109.443 351.911 108.93 350.933 108.644C349.954 108.358 348.888 108.267 347.734 108.369C346.593 108.432 345.385 108.661 344.109 109.059L343.302 109.458C342.173 110.017 341.097 110.65 340.074 111.356C339.052 112.063 337.976 112.696 336.846 113.255L334.386 114.472C333.836 114.578 333.392 114.696 333.056 114.829C332.707 114.935 332.317 115.094 331.887 115.307C331.296 115.6 330.918 116.021 330.755 116.571C330.578 117.093 330.637 117.65 330.929 118.242C331.302 118.995 331.83 119.419 332.514 119.516C333.211 119.573 333.91 119.428 334.609 119.082C334.931 118.922 335.227 118.742 335.496 118.542C335.792 118.329 336.102 118.142 336.424 117.983L336.707 117.843C336.922 117.736 337.17 117.664 337.452 117.625C337.734 117.585 337.915 117.647 337.995 117.808L348.074 138.176L347.992 138.417C347.965 138.43 347.865 138.497 347.69 138.617C347.528 138.697 347.407 138.756 347.327 138.796C346.843 139.036 346.359 139.242 345.875 139.414C345.378 139.56 344.901 139.746 344.444 139.972L343.476 140.451C342.815 141.213 342.711 142.051 343.164 142.965ZM347.539 126.441C347.727 126.347 347.902 126.294 348.063 126.282C348.25 126.256 348.439 126.196 348.627 126.103C348.815 126.01 348.956 125.923 349.05 125.843C349.145 125.763 349.259 125.589 349.395 125.321L353.952 123.066C354.006 123.039 354.16 123.047 354.415 123.088C354.683 123.089 354.878 123.11 354.998 123.151L357.832 124.108C358.207 124.257 358.494 124.567 358.694 125.038C358.92 125.495 359.119 125.898 359.292 126.248C359.638 126.947 359.891 127.592 360.049 128.183C360.235 128.76 360.299 129.331 360.243 129.894C360.174 130.43 359.991 130.973 359.693 131.522C359.423 132.057 359.004 132.633 358.438 133.247C357.511 133.74 356.616 134.266 355.755 134.826C354.908 135.346 354.027 135.832 353.113 136.284C352.952 136.364 352.69 136.444 352.327 136.523C351.978 136.562 351.744 136.46 351.624 136.218L347.173 127.224C347.147 127.17 347.16 127.063 347.215 126.902C347.296 126.728 347.364 126.594 347.418 126.5L347.539 126.441ZM341.385 115.528L346.427 113.033C347.031 112.901 347.508 112.782 347.857 112.677C348.22 112.53 348.562 112.445 348.884 112.419C349.193 112.367 349.515 112.408 349.85 112.544C350.198 112.639 350.66 112.862 351.236 113.214C351.397 113.268 351.504 113.349 351.557 113.457L352.874 116.118C353.007 116.387 353.053 116.683 353.011 117.004C352.997 117.313 352.935 117.628 352.826 117.95C352.704 118.244 352.562 118.532 352.4 118.813C352.265 119.081 352.13 119.315 351.995 119.516C351.295 119.929 350.482 120.382 349.554 120.874C348.626 121.367 347.732 121.826 346.872 122.252L346.388 122.491C346.119 122.624 345.823 122.737 345.501 122.83C345.192 122.882 344.964 122.761 344.818 122.465L341.385 115.528ZM372.036 128.376C372.342 128.995 372.844 129.399 373.541 129.59C374.238 129.78 374.895 129.723 375.514 129.417L380.757 126.822L381.403 126.201L386.929 123.467C387.44 123.214 387.71 122.779 387.739 122.162C387.795 121.532 387.717 121.001 387.504 120.571C387.238 120.033 386.79 119.77 386.159 119.781C385.529 119.791 384.958 119.89 384.447 120.075C384.313 120.142 384.078 120.242 383.742 120.374C383.433 120.494 383.103 120.64 382.754 120.813C382.391 120.959 382.048 121.112 381.726 121.272C381.416 121.391 381.195 121.484 381.06 121.551L380.819 121.469L379.718 120.056L376.824 114.208C376.811 114.181 376.791 114.107 376.765 113.986C376.765 113.852 376.766 113.751 376.766 113.684C376.748 111.551 376.723 109.438 376.691 107.345C376.647 105.225 376.615 103.098 376.597 100.965C376.584 100.804 376.578 100.589 376.58 100.321C376.594 100.012 376.595 99.7104 376.583 99.4151C376.571 99.1199 376.565 98.8717 376.566 98.6705C376.581 98.429 376.588 98.2748 376.588 98.2077C376.615 98.1273 376.656 98.0067 376.71 97.8459C376.752 97.6583 376.799 97.5511 376.853 97.5245L379.071 96.4268C379.259 96.3337 379.394 96.2001 379.475 96.026C379.57 95.8117 379.618 95.6039 379.619 95.4027C379.606 95.1746 379.567 94.9597 379.5 94.7582C379.461 94.5434 379.401 94.3553 379.322 94.194C379.122 93.7907 378.842 93.4944 378.48 93.305C378.145 93.1024 377.77 92.9868 377.355 92.9583C376.925 92.9028 376.496 92.9145 376.066 92.9932C375.637 93.0719 375.247 93.1978 374.898 93.3708C374.494 93.5703 374.118 93.7902 373.768 94.0302C373.418 94.2703 373.028 94.4967 372.598 94.7096C372.141 94.9358 371.697 95.1218 371.267 95.2676C370.864 95.4001 370.434 95.5795 369.977 95.8057C369.439 96.0718 369.035 96.4391 368.765 96.9076C368.508 97.3358 368.526 97.8457 368.819 98.4373C369.059 98.9212 369.312 99.2309 369.58 99.3661C369.848 99.5014 370.143 99.5898 370.464 99.6314C370.773 99.6461 371.081 99.6608 371.39 99.6755C371.725 99.6769 372.04 99.7721 372.335 99.9611C372.388 100.002 372.448 100.089 372.515 100.223C372.568 100.331 372.608 100.412 372.634 100.465C372.821 100.842 372.927 101.225 372.952 101.614C373.004 101.99 373.029 102.379 373.027 102.781C373.012 103.157 372.991 103.553 372.962 103.969C372.92 104.357 372.912 104.746 372.937 105.136C372.937 105.203 372.95 105.33 372.976 105.518C373.002 105.706 373.028 105.928 373.054 106.183C373.093 106.397 373.119 106.619 373.131 106.847C373.157 107.035 373.177 107.142 373.19 107.169C373.177 107.277 373.169 107.464 373.168 107.733C373.194 107.988 373.199 108.27 373.185 108.578C373.197 108.873 373.202 109.155 373.201 109.423C373.187 109.665 373.173 109.839 373.159 109.946C373.185 110.067 373.145 110.154 373.037 110.208C372.956 110.247 372.889 110.281 372.835 110.307C372.674 110.387 372.493 110.393 372.292 110.325C372.091 110.257 371.897 110.169 371.709 110.061C371.509 109.926 371.321 109.785 371.148 109.636C370.961 109.461 370.793 109.326 370.646 109.232L365.912 105.65C365.805 105.569 365.571 105.367 365.21 105.043C364.876 104.707 364.648 104.484 364.528 104.377C364.528 104.377 364.508 104.37 364.468 104.356C364.441 104.302 364.421 104.262 364.408 104.235C364.302 104.02 364.349 103.812 364.551 103.612C364.78 103.398 365.016 103.164 365.259 102.91C365.501 102.656 365.69 102.362 365.826 102.027C365.975 101.652 365.93 101.223 365.69 100.739C365.371 100.093 364.95 99.716 364.427 99.6065C363.904 99.497 363.354 99.535 362.776 99.7205C362.185 99.879 361.601 100.118 361.023 100.438C360.471 100.744 359.987 100.984 359.571 101.156C359.517 101.183 359.369 101.222 359.127 101.275C358.913 101.315 358.778 101.347 358.724 101.374L358.483 101.494C358.052 101.707 357.615 101.973 357.171 102.293C356.714 102.587 356.317 102.934 355.979 103.335C355.669 103.723 355.453 104.165 355.33 104.661C355.221 105.116 355.299 105.613 355.565 106.151C355.805 106.635 356.112 106.951 356.487 107.1C356.876 107.209 357.271 107.231 357.674 107.166C358.091 107.06 358.507 106.921 358.924 106.748C359.354 106.535 359.744 106.342 360.093 106.169C360.469 106.251 360.81 106.4 361.118 106.616C361.439 106.792 361.747 107.008 362.041 107.264C362.335 107.52 362.629 107.776 362.923 108.033C363.244 108.275 363.565 108.485 363.887 108.66C363.927 108.674 364.054 108.728 364.268 108.823C364.483 108.918 364.617 108.985 364.67 109.026C365.245 109.511 365.759 110.01 366.213 110.522C366.667 111.033 367.249 111.431 367.959 111.716L373.194 116.004L376.867 123.425L376.825 123.646C376.772 123.673 376.617 123.766 376.361 123.926C376.093 124.059 375.891 124.159 375.756 124.226C375.299 124.452 374.856 124.638 374.426 124.784C374.01 124.889 373.586 125.048 373.156 125.261C372.618 125.527 372.227 125.989 371.983 126.645C371.753 127.261 371.77 127.838 372.036 128.376Z" fill="black"/>
<rect x="93.0553" y="430.374" width="546.376" height="62.9429" transform="rotate(-26.3288 93.0553 430.374)" fill="black"/>
<path d="M136.079 295.255C142.756 292.984 157.981 295.245 160.135 286.26C160.656 284.086 160.491 280.959 162.392 279.432C166.341 276.258 172.564 274.669 177.338 273.383C180.324 272.578 194.137 271.484 194.647 267.619C195.586 260.501 204.887 258.602 210.379 260.75C212.464 261.566 218.58 266.482 220.957 265.698C222.912 265.054 222.579 260.203 223.107 258.654C226.781 247.886 241.641 257.232 248.339 259.044C251.465 259.89 256.506 261.943 259.596 259.67C263.344 256.913 261.989 252.403 264.373 249.171C271.415 239.619 282.546 231.532 287.32 220.412C290.453 213.114 297.559 219.865 301.715 222.34C305.111 224.363 307.562 206.832 310.446 204.281C312.96 202.057 318.187 202.458 321.241 202.657C329.099 203.169 335.444 204.237 343.186 201.333C352.879 197.699 357.504 188.614 364.986 182.194C368.447 179.225 376.944 187.447 379.952 189.659C385.133 193.466 390.647 175.566 392.5 171.865C395.246 166.382 402.476 164.397 407.602 161.86C411.404 159.978 415.206 158.097 419.008 156.215C431.869 149.851 442.238 141.308 453.489 132.364" stroke="black" stroke-width="3" stroke-linecap="round"/>
<path d="M133.208 360.832C144.634 355.178 156.123 345.919 168.36 346.734C174.581 347.148 188.445 339.027 193.239 334.801C198.369 330.278 198.645 323.562 207.496 324.179C214.55 324.67 222.879 332.674 231.052 327.763C241.204 321.663 244.888 310.665 253.815 303.149C261.82 296.41 275.508 290.059 285.218 290.798C296.964 291.691 312.816 290.495 323.834 281.254C331.496 274.829 335.695 264.08 341.946 256.564C345.94 251.763 354.653 245.142 361.089 243.74C370.554 241.679 380.164 244.038 389.792 240.454C401.906 235.945 404.906 228.532 412.838 220.997C416.517 217.501 420.893 214.579 425.602 212.248C431.487 209.336 439.344 203.943 445.616 202.56C450.981 201.377 456.363 201.136 461.874 199.649C467.496 198.132 472.573 195.662 478.152 194.026C490.154 190.506 500.56 185.354 511.347 178.572" stroke="black" stroke-width="3" stroke-linecap="round"/>
</svg>
