<svg width="1920" height="1080" viewBox="0 0 1920 1080" fill="none" xmlns="http://www.w3.org/2000/svg">
<rect width="1920" height="1080" fill="#EBCD94"/>
<rect x="34" y="27.1294" width="1849.15" height="1031.17" transform="rotate(-0.158935 34 27.1294)" fill="#7B5E27"/>
<rect x="1.59306" y="3.90931" width="617.292" height="781.981" transform="matrix(0.92359 0.38338 -0.392571 0.919722 1220.39 62.8017)" fill="#1880BB" stroke="black" stroke-width="6"/>
<path d="M1254.95 208.861C1255.35 211.582 1256.46 213.883 1258.31 215.762C1260.15 217.642 1262.29 219.075 1264.74 220.062C1266.37 220.719 1268.11 220.897 1269.95 220.595C1271.79 220.292 1273.56 219.7 1275.25 218.819C1276.97 217.897 1278.49 216.755 1279.82 215.392C1281.2 214.005 1282.21 212.559 1282.83 211.055C1283 210.649 1283.15 210.213 1283.3 209.75C1283.48 209.303 1283.57 208.863 1283.56 208.432C1283.55 208 1283.42 207.617 1283.18 207.282C1282.99 206.923 1282.63 206.637 1282.1 206.423C1281.25 206.078 1280.41 206.213 1279.58 206.829C1278.7 207.803 1277.75 208.821 1276.74 209.884C1275.79 210.923 1274.74 211.831 1273.61 212.608C1272.5 213.345 1271.29 213.853 1269.98 214.133C1268.69 214.373 1267.31 214.196 1265.84 213.605C1265.68 213.539 1265.43 213.44 1265.11 213.309C1264.84 213.153 1264.68 213.067 1264.64 213.05C1263.43 212.183 1262.52 211.174 1261.9 210.023C1261.34 208.848 1260.98 207.638 1260.83 206.391C1260.7 205.104 1260.72 203.785 1260.9 202.434C1261.12 201.1 1261.4 199.79 1261.74 198.504C1261.73 198.407 1261.78 198.187 1261.87 197.845C1261.96 197.504 1262.01 197.284 1262 197.186L1265.16 189.564C1265.61 188.467 1266.21 187.427 1266.95 186.444C1267.71 185.421 1268.56 184.508 1269.51 183.706C1270.48 182.862 1271.52 182.142 1272.62 181.543C1273.73 180.945 1274.85 180.522 1276.01 180.273C1276.1 180.266 1276.2 180.258 1276.3 180.25C1276.46 180.218 1276.56 180.21 1276.6 180.227L1280.64 181.854C1280.68 181.871 1280.76 181.953 1280.89 182.1C1281.08 182.223 1281.21 182.321 1281.27 182.394C1281.96 183.146 1282.5 183.84 1282.91 184.477C1283.31 185.114 1283.59 185.77 1283.74 186.447C1283.94 187.099 1284.03 187.799 1284.01 188.548C1283.98 189.297 1283.9 190.189 1283.76 191.222C1283.73 191.638 1283.59 192.199 1283.35 192.906C1283.16 193.59 1283.01 194.289 1282.9 195.006C1282.84 195.738 1282.89 196.422 1283.05 197.058C1283.22 197.694 1283.63 198.143 1284.28 198.406C1284.65 198.554 1285.05 198.552 1285.5 198.399C1285.98 198.262 1286.43 198.04 1286.85 197.732C1287.26 197.424 1287.61 197.092 1287.9 196.735C1288.25 196.353 1288.49 196 1288.63 195.675L1291.68 188.297C1291.73 188.175 1291.79 187.914 1291.86 187.516C1291.98 187.133 1292.04 186.873 1292.04 186.734L1292.1 186.613C1292.28 186.165 1292.5 185.755 1292.75 185.381C1293.06 184.984 1293.3 184.561 1293.49 184.114C1293.66 183.707 1293.78 183.284 1293.87 182.845C1294.01 182.381 1294.06 181.926 1294.01 181.478C1294 181.046 1293.88 180.642 1293.65 180.267C1293.43 179.892 1293.07 179.605 1292.58 179.408C1292.09 179.211 1291.62 179.188 1291.18 179.342C1290.73 179.495 1290.32 179.684 1289.94 179.911C1289.6 180.154 1289.27 180.377 1288.95 180.579C1288.63 180.781 1288.35 180.833 1288.1 180.735L1287.86 180.636C1286.76 179.247 1285.73 178.071 1284.75 177.106C1283.76 176.142 1282.5 175.347 1280.95 174.722C1280.54 174.558 1280.09 174.377 1279.6 174.18C1279.13 173.942 1278.62 173.834 1278.09 173.857C1277.89 173.872 1277.57 173.908 1277.12 173.963C1276.68 173.977 1276.22 174.004 1275.73 174.043C1275.28 174.098 1274.83 174.154 1274.37 174.209C1273.94 174.224 1273.62 174.239 1273.43 174.254C1273.04 174.383 1272.51 174.621 1271.84 174.969C1271.19 175.276 1270.53 175.623 1269.84 176.012C1269.16 176.4 1268.51 176.805 1267.91 177.226C1267.36 177.623 1266.98 177.967 1266.77 178.26L1260.57 185.797C1260.33 186.268 1260.04 186.792 1259.71 187.369C1259.37 187.946 1259.04 188.474 1258.69 188.953L1256.04 195.356C1255.89 196.528 1255.62 197.63 1255.24 198.663C1254.86 199.696 1254.68 200.831 1254.69 202.069C1254.67 202.345 1254.67 202.797 1254.7 203.425C1254.73 204.052 1254.74 204.719 1254.73 205.428C1254.76 206.153 1254.78 206.849 1254.79 207.517C1254.86 208.16 1254.91 208.608 1254.95 208.861ZM1306.16 232.904C1305.92 233.945 1306.02 234.793 1306.46 235.446C1306.95 236.115 1307.57 236.675 1308.34 237.126C1309.12 237.536 1309.96 237.922 1310.86 238.284C1311.77 238.605 1312.57 238.974 1313.26 239.392L1313.38 239.442C1314.2 239.77 1314.96 239.7 1315.68 239.23C1316.4 238.761 1316.9 238.18 1317.19 237.489C1317.41 236.961 1317.52 236.579 1317.52 236.343C1317.52 236.106 1317.46 235.63 1317.33 234.913C1317.24 234.31 1317.04 233.825 1316.72 233.457C1316.39 233.089 1316.05 232.762 1315.69 232.476C1315.34 232.19 1314.99 231.883 1314.65 231.556C1314.31 231.229 1314.08 230.784 1313.98 230.222C1313.86 229.603 1313.94 228.899 1314.22 228.11C1314.55 227.297 1314.76 226.622 1314.84 226.085C1315.07 224.612 1315.26 223.004 1315.41 221.262C1315.62 219.496 1315.57 217.818 1315.28 216.229L1315.51 215.68C1315.71 215.193 1316 214.835 1316.38 214.609C1316.78 214.342 1317.22 214.14 1317.7 214.003C1318.19 213.867 1318.67 213.73 1319.16 213.593C1319.68 213.473 1320.14 213.3 1320.52 213.073C1321.64 212.434 1322.56 211.526 1323.29 210.348C1324.03 209.129 1324.64 207.951 1325.11 206.813C1326.2 204.17 1326.55 201.843 1326.14 199.83C1325.76 197.776 1324.88 195.978 1323.52 194.433C1322.16 192.889 1320.46 191.539 1318.41 190.383C1316.41 189.244 1314.35 188.247 1312.22 187.392C1311.77 187.211 1311.36 187.067 1310.97 186.96C1310.61 186.812 1310.15 186.769 1309.6 186.832L1300.23 183.059C1299.46 182.747 1298.77 182.85 1298.17 183.369C1297.59 183.847 1297.17 184.412 1296.9 185.062C1296.73 185.468 1296.59 185.981 1296.48 186.599C1296.38 187.177 1296.57 187.654 1297.03 188.031L1300.51 190.499L1300.79 191.184L1295.23 205.661L1294.72 206.881L1289.21 220.528C1289.18 220.609 1289.07 220.706 1288.88 220.82C1288.69 220.933 1288.53 221.014 1288.42 221.062C1287.81 220.816 1287.14 220.573 1286.43 220.334C1285.76 220.112 1285.1 219.987 1284.45 219.96C1283.79 219.933 1283.19 220.069 1282.63 220.368C1282.1 220.627 1281.67 221.142 1281.35 221.915C1281.2 222.281 1281.1 222.692 1281.05 223.147C1281.05 223.62 1281.09 224.088 1281.19 224.553C1281.32 225.033 1281.5 225.462 1281.73 225.837C1282.01 226.188 1282.36 226.426 1282.79 226.55C1283.16 226.697 1283.78 226.973 1284.66 227.375C1285.54 227.777 1286.48 228.204 1287.49 228.656C1288.51 229.067 1289.46 229.474 1290.34 229.876C1291.28 230.254 1291.93 230.517 1292.3 230.665L1292.97 230.936C1293.46 231.134 1294 231.327 1294.59 231.517C1295.23 231.682 1295.84 231.762 1296.42 231.756C1297.03 231.766 1297.58 231.654 1298.06 231.42C1298.58 231.202 1298.97 230.768 1299.24 230.117C1299.66 229.101 1299.6 228.221 1299.05 227.478C1298.52 226.695 1297.87 226.008 1297.11 225.419C1296.36 224.83 1295.65 224.306 1294.98 223.847C1294.33 223.348 1294.08 222.916 1294.23 222.55L1298.98 211.086L1299.33 210.941C1299.38 210.917 1299.67 210.983 1300.17 211.14C1300.7 211.256 1301.08 211.363 1301.32 211.462L1303.59 212.374C1304.12 212.588 1304.57 212.769 1304.94 212.917C1305.34 213.081 1305.72 213.258 1306.07 213.446C1306.48 213.611 1306.87 213.816 1307.25 214.061C1307.62 214.307 1308.07 214.606 1308.59 214.958C1308.91 215.464 1309.07 216.051 1309.08 216.719C1309.13 217.403 1309.2 218.026 1309.3 218.588C1309.47 219.794 1309.49 221.012 1309.36 222.241C1309.27 223.486 1309.07 224.731 1308.74 225.976C1308.43 227.18 1308.04 228.371 1307.55 229.55C1307.12 230.705 1306.65 231.823 1306.16 232.904ZM1308.09 193.056C1308.31 193.097 1308.69 193.225 1309.22 193.439C1309.75 193.652 1310.12 193.8 1310.32 193.883C1312.03 194.573 1313.7 195.386 1315.31 196.32C1316.94 197.214 1318.39 198.318 1319.65 199.634C1320.22 200.573 1320.43 201.559 1320.29 202.593C1320.16 203.585 1319.9 204.549 1319.52 205.484C1318.86 207.07 1317.84 208.153 1316.46 208.734C1315.13 209.291 1313.64 209.497 1311.98 209.352L1309.96 208.538C1309.31 208.275 1308.72 207.988 1308.18 207.677C1307.64 207.365 1307.07 207.086 1306.45 206.84C1305.96 206.642 1305.46 206.486 1304.93 206.37C1304.41 206.254 1303.88 206.089 1303.35 205.875L1301.94 205.308C1301.91 205.153 1301.9 204.909 1301.89 204.575C1301.89 204.241 1301.91 204.013 1301.96 203.891L1306.3 193.403C1306.44 193.078 1306.72 192.928 1307.13 192.954C1307.55 192.98 1307.87 193.014 1308.09 193.056ZM1322.49 239.911C1322.21 240.602 1322.11 241.18 1322.21 241.645C1322.3 242.109 1322.51 242.525 1322.83 242.893C1323.21 243.236 1323.66 243.535 1324.17 243.79C1324.7 244.003 1325.26 244.225 1325.83 244.455C1326.32 244.653 1326.89 244.883 1327.54 245.146C1328.18 245.45 1328.8 245.607 1329.42 245.617L1349.8 253.829C1350.19 254.173 1350.56 254.418 1350.93 254.566C1351.34 254.731 1351.76 254.903 1352.21 255.084C1353.68 255.676 1355.03 255.746 1356.27 255.295C1357.5 254.844 1358.43 253.866 1359.06 252.362C1359.24 251.915 1359.37 251.541 1359.45 251.24C1359.58 250.914 1359.64 250.487 1359.62 249.958L1363.08 241.604C1363.4 240.832 1363.46 239.952 1363.25 238.966C1363.05 237.94 1362.53 237.254 1361.67 236.908C1360.98 236.629 1360.27 236.655 1359.57 236.986C1358.86 237.317 1358.36 237.828 1358.07 238.519L1355.6 244.495C1355.55 244.617 1355.4 244.795 1355.16 245.031C1354.94 245.225 1354.76 245.367 1354.63 245.456C1353.69 246.218 1352.87 246.646 1352.17 246.742C1351.48 246.796 1350.78 246.704 1350.07 246.465C1349.4 246.242 1348.66 245.967 1347.84 245.638C1347.08 245.285 1346.15 245.054 1345.05 244.944L1338.87 242.453L1338.58 241.768L1344.12 228.414C1344.12 228.414 1344.16 228.361 1344.25 228.256C1344.34 228.15 1344.45 228.073 1344.56 228.025C1344.63 227.862 1344.74 227.814 1344.91 227.88L1347.54 228.94C1347.79 229.039 1348 229.316 1348.2 229.773C1348.45 230.206 1348.65 230.691 1348.81 231.229C1349.02 231.743 1349.17 232.252 1349.25 232.757C1349.32 233.262 1349.36 233.633 1349.36 233.869C1349.15 234.357 1348.89 234.987 1348.57 235.759C1348.25 236.532 1348.02 237.317 1347.88 238.114C1347.76 238.871 1347.79 239.596 1347.98 240.289C1348.19 240.941 1348.7 241.431 1349.52 241.76C1350.78 242.27 1351.68 241.874 1352.22 240.573L1360.51 220.573C1360.79 219.882 1360.82 219.231 1360.6 218.619C1360.4 217.967 1359.97 217.51 1359.31 217.247C1358.5 216.918 1357.84 216.96 1357.33 217.373C1356.83 217.787 1356.38 218.343 1356 219.042C1355.61 219.741 1355.24 220.468 1354.88 221.224C1354.54 221.939 1354.13 222.463 1353.66 222.795C1353.11 223.192 1352.51 223.377 1351.86 223.35C1351.24 223.339 1350.64 223.406 1350.06 223.551L1346.94 222.293L1346.79 221.95C1346.79 221.95 1346.81 221.841 1346.86 221.621C1346.9 221.401 1346.93 221.153 1346.95 220.876C1347.03 220.575 1347.11 220.274 1347.18 219.973C1347.28 219.632 1347.35 219.351 1347.39 219.131L1347.41 219.07L1347.46 218.948C1347.5 218.867 1347.64 218.64 1347.89 218.266C1348.14 217.892 1348.28 217.665 1348.32 217.584C1348.42 217.34 1348.6 216.892 1348.87 216.242C1349.18 215.608 1349.51 214.933 1349.85 214.218C1350.2 213.503 1350.5 212.82 1350.77 212.17C1351.1 211.495 1351.31 211.036 1351.41 210.792L1351.76 210.647L1363.45 215.357C1363.78 215.488 1364.08 215.868 1364.34 216.496C1364.66 217.1 1364.87 217.565 1364.98 217.891C1365.04 218.201 1365.09 218.649 1365.13 219.235C1365.22 219.838 1365.25 220.16 1365.23 220.2L1362.56 226.664C1362.29 227.314 1362.33 227.95 1362.7 228.57C1363.1 229.206 1363.59 229.64 1364.16 229.87C1364.85 230.15 1365.56 230.173 1366.27 229.939C1366.99 229.706 1367.5 229.223 1367.8 228.491L1373.13 215.625C1373.38 215.016 1373.45 214.283 1373.32 213.428C1373.2 212.572 1372.85 211.98 1372.27 211.653C1367.28 209.687 1362.33 207.67 1357.42 205.599C1352.53 203.488 1347.6 201.429 1342.62 199.424C1341.56 198.996 1340.6 199.013 1339.74 199.474C1338.9 199.894 1338.28 200.592 1337.88 201.568C1337.39 202.747 1337.39 203.72 1337.88 204.487C1338.37 205.254 1339.17 205.86 1340.27 206.304C1340.97 206.583 1341.64 206.806 1342.28 206.971C1342.99 207.112 1343.68 207.322 1344.38 207.602C1344.54 207.667 1344.77 207.758 1345.05 207.873C1345.34 207.988 1345.49 208.074 1345.52 208.131L1345.83 208.755L1345.2 210.28C1345 210.768 1344.75 211.357 1344.47 212.048C1344.24 212.715 1343.91 213.271 1343.49 213.718L1340.15 222.121L1339.67 223.279L1333.86 237.658C1333.76 237.902 1333.55 238.223 1333.24 238.621C1332.95 238.978 1332.65 239.188 1332.34 239.252C1332.14 239.17 1331.85 239.104 1331.49 239.054C1331.15 238.963 1330.78 238.884 1330.38 238.817C1329.99 238.71 1329.61 238.603 1329.22 238.496C1328.88 238.405 1328.61 238.318 1328.4 238.236L1328.28 238.187C1328.2 238.154 1327.96 238.035 1327.57 237.83C1327.24 237.6 1327.04 237.449 1326.97 237.375L1326.61 237.228C1326.08 237.014 1325.6 236.963 1325.17 237.076C1324.76 237.147 1324.38 237.325 1324.02 237.609C1323.7 237.909 1323.41 238.266 1323.15 238.68C1322.88 239.094 1322.66 239.505 1322.49 239.911ZM1361 254.782C1361.04 254.701 1361.1 254.538 1361.2 254.294C1361.36 254.026 1361.46 253.852 1361.49 253.77C1362.1 253.447 1362.62 253.229 1363.05 253.117C1363.48 253.004 1363.9 252.961 1364.32 252.987C1364.75 252.972 1365.2 252.986 1365.66 253.029C1366.12 253.071 1366.68 253.086 1367.35 253.072C1367.69 253.065 1368.03 252.94 1368.37 252.697C1368.75 252.47 1369.07 252.199 1369.35 251.882C1369.66 251.582 1369.93 251.266 1370.17 250.933C1370.46 250.576 1370.7 250.271 1370.9 250.019C1371.19 249.662 1371.67 249.025 1372.34 248.107C1373.04 247.206 1373.78 246.244 1374.53 245.221C1375.33 244.214 1376.06 243.252 1376.73 242.334C1377.44 241.433 1377.94 240.804 1378.23 240.447C1378.96 239.7 1379.57 238.925 1380.05 238.121C1380.52 237.316 1381.11 236.533 1381.81 235.77C1383.27 234.082 1384.73 232.394 1386.19 230.705C1387.69 229.034 1389.13 227.337 1390.51 225.616C1390.8 225.259 1391.14 224.8 1391.51 224.24C1391.93 223.696 1392.37 223.209 1392.83 222.779C1393.31 222.309 1393.83 221.973 1394.39 221.771C1394.97 221.529 1395.58 221.539 1396.24 221.802C1396.97 222.098 1397.46 222.581 1397.71 223.249C1397.95 223.918 1398.06 224.647 1398.02 225.437C1398.03 226.202 1397.95 226.976 1397.77 227.757C1397.65 228.514 1397.56 229.12 1397.52 229.576C1397.35 231.122 1397.09 232.676 1396.73 234.239C1396.38 235.76 1396.29 237.311 1396.44 238.891L1393.21 262.917C1393.16 263.373 1393.25 263.788 1393.48 264.164C1393.74 264.555 1394.07 264.923 1394.45 265.267C1394.85 265.569 1395.23 265.844 1395.61 266.089C1396.02 266.351 1396.38 266.589 1396.67 266.802C1397.24 267.602 1397.32 268.51 1396.9 269.526C1396.49 270.502 1395.88 271.131 1395.04 271.413C1394.23 271.654 1393.35 271.585 1392.42 271.207C1391.4 270.796 1390.34 270.349 1389.26 269.864C1388.19 269.339 1387.17 268.859 1386.21 268.423C1385.56 268.16 1384.95 267.893 1384.4 267.623C1383.84 267.352 1383.38 267.045 1383 266.701C1382.63 266.317 1382.39 265.864 1382.27 265.343C1382.2 264.838 1382.31 264.219 1382.61 263.487L1383.04 262.451C1383.48 262.2 1383.91 262.067 1384.35 262.053C1384.84 262.014 1385.31 261.987 1385.74 261.972C1386.22 261.974 1386.63 261.951 1386.98 261.904C1387.39 261.832 1387.73 261.658 1387.98 261.382C1388.02 261.301 1388.06 261.13 1388.13 260.87C1388.2 260.569 1388.26 260.26 1388.29 259.942C1388.37 259.641 1388.44 259.361 1388.5 259.1C1388.56 258.84 1388.59 258.661 1388.58 258.563C1388.59 258.425 1388.62 258.177 1388.67 257.818C1388.73 257.46 1388.75 257.065 1388.74 256.634C1388.73 256.202 1388.68 255.803 1388.59 255.436C1388.54 255.086 1388.42 254.87 1388.22 254.788L1378.6 250.916C1378.52 250.883 1378.26 250.943 1377.82 251.096C1377.39 251.208 1377.14 251.297 1377.06 251.362L1373.86 254.269C1373.84 254.31 1373.77 254.423 1373.65 254.61C1373.56 254.813 1373.5 254.956 1373.47 255.037C1373.18 255.728 1373.17 256.27 1373.44 256.661C1373.75 257.07 1374.08 257.466 1374.45 257.85C1374.81 258.234 1375.1 258.683 1375.32 259.197C1375.59 259.687 1375.55 260.358 1375.2 261.212C1374.81 262.147 1374.21 262.686 1373.38 262.83C1372.6 262.989 1371.76 262.889 1370.87 262.527C1370.29 262.297 1369.74 262.026 1369.2 261.714C1368.71 261.419 1368.15 261.149 1367.54 260.902C1366.72 260.573 1365.89 260.334 1365.05 260.184C1364.22 259.994 1363.4 259.734 1362.59 259.405C1361.65 259.027 1361.06 258.386 1360.81 257.481C1360.58 256.535 1360.65 255.636 1361 254.782ZM1381.37 245.625C1381.7 246.091 1382.06 246.426 1382.45 246.631C1382.86 246.795 1383.35 246.993 1383.92 247.223C1384.74 247.552 1385.56 247.811 1386.38 248.002C1387.25 248.208 1388.13 248.444 1389.02 248.708L1389.37 248.563C1389.38 248.522 1389.42 248.42 1389.49 248.258C1389.62 248.071 1389.7 247.937 1389.73 247.856C1389.86 247.53 1390.01 246.949 1390.17 246.111C1390.34 245.232 1390.48 244.267 1390.58 243.217C1390.74 242.143 1390.87 241.032 1390.96 239.884C1391.05 238.736 1391.13 237.698 1391.18 236.77C1391.25 235.802 1391.29 235.012 1391.3 234.401C1391.33 233.75 1391.33 233.416 1391.29 233.4C1391.13 233.334 1390.96 233.386 1390.79 233.557C1390.63 233.727 1390.51 233.845 1390.43 233.909C1390.18 234.185 1389.79 234.599 1389.28 235.151C1388.82 235.678 1388.34 236.218 1387.82 236.77C1387.32 237.281 1386.86 237.76 1386.44 238.206C1386.08 238.628 1385.85 238.892 1385.76 238.997C1384.99 239.923 1384.22 240.868 1383.44 241.834C1382.66 242.8 1382.05 243.812 1381.61 244.869C1381.58 244.95 1381.52 245.072 1381.46 245.235C1381.43 245.414 1381.4 245.544 1381.37 245.625ZM1403.84 271.467C1403.63 271.955 1403.66 272.513 1403.93 273.141C1404.25 273.745 1404.68 274.321 1405.21 274.868C1405.79 275.432 1406.37 275.927 1406.96 276.353C1407.58 276.795 1408.12 277.106 1408.57 277.287C1409.87 277.813 1411.2 278.111 1412.56 278.182C1413.91 278.252 1415.24 278.55 1416.54 279.076C1417.32 279.388 1417.99 279.827 1418.57 280.391C1419.2 280.931 1419.91 281.357 1420.68 281.669C1421.21 281.883 1421.74 282.048 1422.26 282.164C1422.84 282.255 1423.38 282.282 1423.87 282.243C1424.38 282.163 1424.84 281.99 1425.23 281.723C1425.65 281.415 1425.97 280.977 1426.21 280.407C1426.61 279.432 1426.63 278.585 1426.26 277.867C1425.93 277.165 1425.4 276.549 1424.67 276.017C1423.99 275.46 1423.21 274.981 1422.33 274.579C1421.45 274.176 1420.69 273.844 1420.03 273.581L1419.75 272.896L1427.55 253.199L1428.05 251.979L1430.4 245.954C1430.8 245.451 1431.17 244.842 1431.52 244.126C1431.9 243.428 1432.2 242.834 1432.4 242.346L1432.74 242.201C1432.79 242.218 1432.93 242.275 1433.17 242.374C1433.43 242.432 1433.61 242.477 1433.69 242.51C1434.26 242.74 1434.82 243.06 1435.36 243.469C1435.95 243.895 1436.43 244.397 1436.81 244.977C1437.25 245.532 1437.52 246.14 1437.63 246.8C1437.79 247.436 1437.73 248.099 1437.44 248.79L1434.77 255.254C1434.46 255.986 1434.49 256.78 1434.85 257.636C1435.21 258.492 1435.74 259.06 1436.43 259.34C1437.29 259.685 1438.11 259.59 1438.91 259.056C1439.7 258.521 1440.26 257.848 1440.6 257.035L1445.63 244.9C1445.95 244.128 1445.92 243.265 1445.56 242.311C1445.23 241.373 1444.66 240.74 1443.84 240.411L1430.19 234.912C1429.91 234.561 1429.65 234.336 1429.4 234.237C1429.17 234.098 1428.89 233.962 1428.57 233.831C1428.2 233.683 1427.89 233.58 1427.62 233.522C1427.42 233.44 1427.07 233.418 1426.58 233.457L1419.17 230.473C1418.81 230.325 1418.4 230.328 1417.96 230.481C1417.55 230.65 1417.14 230.889 1416.73 231.197C1416.33 231.464 1415.97 231.768 1415.64 232.108C1415.35 232.466 1415.14 232.787 1415.02 233.071L1410.18 244.779C1409.87 245.51 1409.76 246.344 1409.85 247.281C1409.94 248.218 1410.39 248.851 1411.21 249.18C1412.23 249.591 1413.05 249.614 1413.68 249.25C1414.32 248.845 1414.86 248.253 1415.27 247.473C1415.71 246.652 1416.12 245.725 1416.5 244.693C1416.92 243.676 1417.42 242.742 1418.02 241.889C1418.62 240.996 1419.37 240.278 1420.26 239.736C1421.21 239.169 1422.43 238.995 1423.91 239.212C1424.01 239.204 1424.2 239.258 1424.49 239.373C1424.83 239.464 1425.06 239.534 1425.19 239.583C1425.27 239.616 1425.42 239.702 1425.65 239.841C1425.89 239.94 1426.05 240.026 1426.11 240.1L1426.26 240.442L1413.71 270.747L1412.64 271.244L1406.89 268.926C1406.52 268.778 1406.16 268.777 1405.82 268.922C1405.51 269.084 1405.22 269.323 1404.95 269.639C1404.69 269.915 1404.47 270.228 1404.28 270.577C1404.08 270.927 1403.94 271.223 1403.84 271.467ZM1432.76 284.33C1432.48 285.021 1432.38 285.599 1432.47 286.063C1432.57 286.528 1432.78 286.944 1433.1 287.312C1433.48 287.655 1433.93 287.954 1434.44 288.208C1434.97 288.422 1435.53 288.644 1436.1 288.874C1436.59 289.071 1437.16 289.302 1437.81 289.565C1438.45 289.868 1439.07 290.025 1439.69 290.036L1460.07 298.248C1460.46 298.591 1460.83 298.837 1461.2 298.985C1461.6 299.149 1462.03 299.322 1462.48 299.503C1463.95 300.095 1465.3 300.165 1466.54 299.713C1467.77 299.262 1468.7 298.284 1469.32 296.78C1469.51 296.333 1469.64 295.959 1469.72 295.658C1469.85 295.333 1469.91 294.906 1469.89 294.376L1473.35 286.023C1473.67 285.25 1473.73 284.371 1473.52 283.385C1473.32 282.358 1472.8 281.672 1471.94 281.327C1471.25 281.047 1470.54 281.073 1469.84 281.404C1469.13 281.736 1468.63 282.247 1468.34 282.938L1465.87 288.913C1465.82 289.035 1465.67 289.214 1465.43 289.449C1465.21 289.644 1465.03 289.786 1464.9 289.875C1463.96 290.637 1463.14 291.065 1462.44 291.16C1461.75 291.215 1461.05 291.122 1460.34 290.883C1459.67 290.661 1458.92 290.385 1458.11 290.057C1457.35 289.704 1456.42 289.472 1455.32 289.362L1449.14 286.871L1448.85 286.186L1454.39 272.833C1454.39 272.833 1454.43 272.78 1454.52 272.674C1454.61 272.569 1454.72 272.492 1454.83 272.443C1454.9 272.281 1455.01 272.232 1455.18 272.298L1457.81 273.359C1458.06 273.457 1458.27 273.735 1458.47 274.192C1458.71 274.624 1458.92 275.109 1459.08 275.647C1459.29 276.161 1459.44 276.671 1459.52 277.176C1459.59 277.681 1459.63 278.052 1459.63 278.288C1459.42 278.776 1459.16 279.406 1458.84 280.178C1458.52 280.95 1458.29 281.735 1458.15 282.533C1458.03 283.29 1458.06 284.014 1458.25 284.707C1458.46 285.36 1458.97 285.85 1459.79 286.179C1461.05 286.689 1461.95 286.293 1462.49 284.992L1470.78 264.992C1471.06 264.301 1471.09 263.65 1470.87 263.038C1470.67 262.386 1470.24 261.928 1469.58 261.665C1468.77 261.336 1468.11 261.379 1467.6 261.792C1467.1 262.205 1466.65 262.761 1466.27 263.46C1465.88 264.159 1465.51 264.886 1465.15 265.642C1464.81 266.358 1464.4 266.881 1463.93 267.213C1463.38 267.61 1462.78 267.795 1462.13 267.768C1461.51 267.758 1460.91 267.825 1460.33 267.969L1457.21 266.712L1457.06 266.369C1457.06 266.369 1457.08 266.259 1457.13 266.04C1457.17 265.82 1457.2 265.572 1457.22 265.295C1457.3 264.994 1457.38 264.693 1457.45 264.392C1457.55 264.05 1457.62 263.77 1457.66 263.55L1457.68 263.489L1457.73 263.367C1457.77 263.286 1457.91 263.058 1458.16 262.685C1458.41 262.311 1458.55 262.083 1458.59 262.002C1458.69 261.758 1458.87 261.311 1459.14 260.661C1459.45 260.027 1459.78 259.352 1460.12 258.637C1460.47 257.921 1460.77 257.239 1461.04 256.588C1461.37 255.914 1461.58 255.454 1461.68 255.21L1462.03 255.065L1473.72 259.775C1474.05 259.907 1474.34 260.287 1474.61 260.915C1474.93 261.518 1475.14 261.983 1475.25 262.309C1475.31 262.619 1475.36 263.067 1475.4 263.654C1475.49 264.257 1475.52 264.578 1475.5 264.619L1472.83 271.082C1472.56 271.733 1472.6 272.368 1472.96 272.988C1473.37 273.625 1473.86 274.058 1474.43 274.289C1475.12 274.568 1475.83 274.591 1476.54 274.358C1477.26 274.124 1477.77 273.642 1478.07 272.91L1483.4 260.044C1483.65 259.434 1483.72 258.702 1483.59 257.846C1483.47 256.991 1483.12 256.399 1482.54 256.071C1477.55 254.106 1472.6 252.088 1467.69 250.018C1462.8 247.906 1457.87 245.848 1452.89 243.842C1451.83 243.415 1450.87 243.432 1450.01 243.892C1449.17 244.313 1448.55 245.011 1448.15 245.986C1447.66 247.165 1447.66 248.138 1448.15 248.905C1448.64 249.673 1449.44 250.278 1450.54 250.722C1451.24 251.002 1451.91 251.224 1452.55 251.389C1453.26 251.531 1453.95 251.741 1454.65 252.02C1454.81 252.086 1455.04 252.176 1455.32 252.292C1455.61 252.407 1455.76 252.493 1455.79 252.55L1456.1 253.174L1455.47 254.698C1455.27 255.186 1455.02 255.776 1454.73 256.467C1454.51 257.134 1454.18 257.69 1453.76 258.136L1450.42 266.539L1449.94 267.698L1444.13 282.077C1444.03 282.321 1443.82 282.641 1443.51 283.039C1443.22 283.396 1442.92 283.607 1442.61 283.671C1442.41 283.589 1442.12 283.523 1441.76 283.472C1441.42 283.381 1441.05 283.303 1440.65 283.236C1440.26 283.129 1439.88 283.021 1439.49 282.914C1439.15 282.823 1438.88 282.737 1438.67 282.654L1438.55 282.605C1438.47 282.572 1438.23 282.453 1437.84 282.248C1437.51 282.019 1437.31 281.868 1437.24 281.794L1436.88 281.646C1436.35 281.432 1435.87 281.382 1435.44 281.494C1435.03 281.566 1434.65 281.744 1434.29 282.027C1433.97 282.327 1433.68 282.684 1433.42 283.099C1433.15 283.513 1432.93 283.923 1432.76 284.33ZM1513.8 319.32C1514.66 319.665 1515.44 320.124 1516.16 320.697C1516.87 321.27 1517.64 321.72 1518.45 322.049L1518.58 322.099C1518.68 322.091 1518.88 322.104 1519.2 322.138C1519.56 322.188 1519.79 322.209 1519.89 322.201L1534.03 327.898C1534.48 328.079 1534.95 328.101 1535.43 327.964C1535.98 327.803 1536.46 327.549 1536.89 327.2C1537.37 326.868 1537.78 326.491 1538.15 326.069C1538.53 325.606 1538.8 325.192 1538.95 324.826C1539.08 324.501 1539.17 324.229 1539.22 324.009C1539.32 323.765 1539.35 323.399 1539.31 322.91L1543.76 312.178C1544.08 311.406 1544.13 310.645 1543.92 309.895C1543.75 309.161 1543.29 308.646 1542.56 308.35C1541.7 308.005 1540.94 308.055 1540.28 308.501C1539.68 308.922 1539.11 309.547 1538.58 310.375C1538.08 311.22 1537.6 312.163 1537.12 313.203C1536.68 314.26 1536.18 315.244 1535.61 316.154C1535.1 317.039 1534.51 317.774 1533.84 318.358C1533.23 318.917 1532.47 319.134 1531.57 319.009C1531.37 318.926 1531.01 318.807 1530.51 318.65C1530.06 318.47 1529.56 318.293 1529.01 318.12C1528.48 317.906 1527.96 317.721 1527.46 317.564C1526.95 317.407 1526.61 317.296 1526.45 317.23C1525.99 317.09 1525.54 317.076 1525.11 317.189C1524.7 317.26 1524.29 317.214 1523.88 317.05C1523.68 316.967 1523.56 316.918 1523.52 316.902C1523.49 316.845 1523.45 316.779 1523.38 316.706C1523.36 316.649 1523.29 316.575 1523.19 316.485C1523.14 316.371 1523 316.195 1522.76 315.958C1522.66 315.868 1522.45 315.737 1522.14 315.565C1521.83 315.393 1521.52 315.221 1521.21 315.049C1520.9 314.876 1520.63 314.721 1520.4 314.581C1520.19 314.401 1520.11 314.251 1520.16 314.129L1529.96 290.47C1530.04 290.405 1530.15 290.239 1530.31 289.97C1530.53 289.678 1530.65 289.491 1530.69 289.41C1530.77 289.207 1530.94 288.869 1531.18 288.398C1531.42 287.927 1531.66 287.406 1531.9 286.837C1532.17 286.285 1532.41 285.764 1532.61 285.277C1532.86 284.805 1533.02 284.468 1533.11 284.265L1533.45 284.119L1540.43 286.931C1541.16 287.227 1541.84 287.213 1542.45 286.889C1543.12 286.542 1543.59 286.022 1543.88 285.331C1544.18 284.6 1544.24 283.936 1544.06 283.341C1543.92 282.762 1543.63 282.244 1543.2 281.787C1542.77 281.329 1542.25 280.928 1541.63 280.584C1541.05 280.256 1540.48 279.977 1539.91 279.747C1539.21 279.467 1538.54 279.245 1537.9 279.079C1537.25 278.914 1536.6 278.7 1535.95 278.437C1535.34 278.19 1534.76 277.911 1534.22 277.6C1533.69 277.288 1533.09 277.001 1532.44 276.738C1531.78 276.475 1531.13 276.261 1530.49 276.096C1529.84 275.93 1529.19 275.716 1528.54 275.453C1527.72 275.124 1526.94 274.714 1526.19 274.223C1525.44 273.731 1524.66 273.321 1523.84 272.992C1522.82 272.581 1521.82 272.484 1520.82 272.7C1519.83 272.916 1519.1 273.573 1518.65 274.671C1518.36 275.362 1518.3 276.143 1518.46 277.015C1518.67 277.903 1519.18 278.512 1519.99 278.841L1526.48 281.455L1526.8 282.58C1526.84 282.596 1526.75 282.869 1526.54 283.397C1526.33 283.885 1526.17 284.271 1526.06 284.556C1525.89 284.962 1525.61 285.633 1525.22 286.568C1524.85 287.462 1524.45 288.153 1524.01 288.64L1516.4 306.993C1516.41 307.563 1516.3 308.113 1516.08 308.641C1515.86 309.17 1515.66 309.657 1515.47 310.105C1515.41 310.267 1515.26 310.564 1515.03 310.995C1514.85 311.442 1514.72 311.747 1514.65 311.909C1514.32 312.152 1513.91 312.322 1513.44 312.418C1512.98 312.514 1512.56 312.488 1512.19 312.34C1511.5 312.06 1510.87 311.667 1510.32 311.16C1509.79 310.612 1509.17 310.199 1508.48 309.919C1507.42 309.492 1506.45 309.411 1505.58 309.676C1504.71 309.942 1504.04 310.623 1503.59 311.721C1503.15 312.778 1503.16 313.779 1503.63 314.726C1504.15 315.648 1504.94 316.323 1506.01 316.75C1507.31 317.276 1508.61 317.704 1509.9 318.035C1511.23 318.382 1512.53 318.81 1513.8 319.32ZM1573.96 291.117C1571.92 290.295 1569.95 289.999 1568.04 290.228C1566.16 290.416 1564.36 290.951 1562.66 291.832C1560.97 292.713 1559.38 293.851 1557.89 295.246C1556.43 296.6 1555.08 298.024 1553.84 299.518C1553.64 299.769 1553.35 300.127 1552.97 300.589C1552.64 301.028 1552.31 301.487 1551.97 301.966C1551.64 302.404 1551.33 302.802 1551.04 303.159C1550.79 303.533 1550.66 303.74 1550.64 303.781L1546.58 313.598C1546.56 313.638 1546.52 313.789 1546.46 314.049C1546.44 314.326 1546.39 314.635 1546.29 314.977C1546.26 315.294 1546.21 315.632 1546.16 315.99C1546.12 316.308 1546.11 316.564 1546.12 316.76C1546.05 317.631 1546.03 318.665 1546.05 319.862C1546.08 321.059 1546.16 322.301 1546.3 323.588C1546.49 324.851 1546.75 326.069 1547.07 327.243C1547.39 328.417 1547.82 329.396 1548.35 330.179C1548.4 330.294 1548.55 330.498 1548.81 330.792C1549.11 331.102 1549.4 331.433 1549.69 331.785C1549.99 332.095 1550.27 332.397 1550.53 332.692C1550.79 332.986 1550.95 333.17 1551.01 333.243C1551.73 334.052 1552.38 334.767 1552.98 335.388C1553.62 336.026 1554.47 336.558 1555.53 336.986C1556.15 337.232 1556.65 337.389 1557.05 337.455C1557.47 337.481 1557.86 337.471 1558.21 337.423C1558.6 337.392 1559 337.361 1559.39 337.33C1559.8 337.258 1560.29 337.219 1560.87 337.213C1563.43 337.247 1565.75 336.76 1567.83 335.75C1569.98 334.715 1571.89 333.375 1573.57 331.728C1575.27 330.041 1576.74 328.145 1578 326.041C1579.31 323.913 1580.41 321.771 1581.3 319.617C1582.21 317.421 1582.81 315.172 1583.1 312.869C1583.38 310.565 1583.48 308.208 1583.38 305.798C1583.02 304.941 1582.79 304.065 1582.69 303.169C1582.6 302.232 1582.46 301.299 1582.27 300.37C1582.18 299.906 1581.96 299.461 1581.61 299.037C1581.3 298.628 1581.04 298.236 1580.81 297.861C1580.34 297.053 1579.86 296.314 1579.37 295.645C1578.95 294.951 1578.46 294.33 1577.93 293.783C1577.39 293.235 1576.81 292.74 1576.19 292.298C1575.56 291.856 1574.82 291.462 1573.96 291.117ZM1554.32 309.743C1554.87 308.401 1555.76 306.837 1556.98 305.05C1558.23 303.28 1559.66 301.673 1561.26 300.23C1562.86 298.786 1564.57 297.698 1566.4 296.964C1568.22 296.23 1570.04 296.224 1571.83 296.948C1572.98 297.408 1573.78 298.062 1574.23 298.911C1574.71 299.719 1575.25 300.649 1575.86 301.702C1576.5 302.812 1576.93 303.888 1577.17 304.931C1577.42 305.934 1577.55 306.936 1577.57 307.938C1577.58 308.939 1577.49 309.969 1577.29 311.027C1577.14 312.06 1576.98 313.155 1576.78 314.311L1573.53 322.177C1573.24 322.868 1572.89 323.367 1572.48 323.675C1572.1 323.999 1571.7 324.405 1571.26 324.892C1570.75 325.541 1570.1 326.3 1569.32 327.169C1568.54 327.996 1567.69 328.742 1566.75 329.406C1565.82 330.03 1564.84 330.511 1563.79 330.849C1562.76 331.146 1561.76 331.097 1560.78 330.703L1554.78 328.286C1554.33 328.105 1553.93 327.636 1553.58 326.877C1553.23 326.118 1552.91 325.278 1552.62 324.357C1552.38 323.452 1552.18 322.544 1552.04 321.631C1551.93 320.735 1551.89 320.079 1551.92 319.664C1552.04 318.003 1552.3 316.331 1552.71 314.647C1553.14 312.922 1553.68 311.288 1554.32 309.743ZM1575.33 341.261C1574.96 342.156 1574.93 343.043 1575.23 343.924C1575.55 344.764 1576.18 345.373 1577.12 345.751L1577.85 346.047C1578.63 346.359 1579.94 346.865 1581.8 347.564C1583.67 348.32 1585.71 349.142 1587.92 350.03C1590.12 350.918 1592.14 351.732 1593.98 352.472C1595.87 353.187 1597.23 353.709 1598.04 354.038C1599.27 354.295 1600.48 354.377 1601.66 354.284C1602.88 354.207 1604.12 354.09 1605.37 353.932C1606.38 353.577 1607.35 353.068 1608.29 352.404C1609.24 351.739 1610.1 350.973 1610.89 350.105C1611.72 349.253 1612.44 348.36 1613.07 347.426C1613.71 346.451 1614.23 345.496 1614.61 344.561C1615.15 343.261 1615.46 342.057 1615.54 340.949C1615.63 339.802 1615.6 338.507 1615.43 337.065C1615.37 336.755 1615.25 336.421 1615.06 336.062C1614.88 335.703 1614.7 335.324 1614.53 334.924C1614.37 334.524 1614.21 334.153 1614.07 333.811C1613.98 333.444 1613.99 333.139 1614.09 332.895C1614.27 332.448 1614.72 332.01 1615.42 331.581C1616.12 331.152 1616.62 330.856 1616.93 330.695C1617.72 330.16 1618.44 329.455 1619.09 328.578C1619.74 327.701 1620.25 326.815 1620.62 325.921C1621.38 324.091 1621.75 322.391 1621.73 320.819C1621.77 319.223 1621.48 317.752 1620.85 316.407C1620.21 315.061 1619.28 313.807 1618.05 312.646C1616.87 311.461 1615.44 310.364 1613.77 309.356L1612.54 308.863C1610.83 308.173 1609.08 307.612 1607.31 307.182C1605.53 306.752 1603.79 306.192 1602.08 305.501L1598.34 303.997C1597.69 303.498 1597.13 303.129 1596.66 302.891C1596.2 302.613 1595.65 302.342 1594.99 302.079C1594.09 301.717 1593.26 301.714 1592.5 302.07C1591.75 302.384 1591.19 302.989 1590.82 303.883C1590.35 305.021 1590.39 306.011 1590.94 306.852C1591.56 307.668 1592.4 308.29 1593.46 308.718C1593.95 308.915 1594.43 309.063 1594.92 309.163C1595.44 309.279 1595.95 309.436 1596.44 309.633L1596.86 309.806C1597.19 309.937 1597.51 310.138 1597.83 310.408C1598.15 310.678 1598.25 310.934 1598.15 311.178L1585.4 341.971L1585.05 342.117C1585.01 342.1 1584.84 342.055 1584.54 341.98C1584.29 341.882 1584.11 341.808 1583.99 341.758C1583.25 341.462 1582.55 341.134 1581.89 340.773C1581.25 340.372 1580.58 340.031 1579.89 339.752L1578.42 339.16C1576.93 339.179 1575.91 339.879 1575.33 341.261ZM1597.86 329.987C1598.15 330.102 1598.38 330.242 1598.55 330.405C1598.76 330.585 1599.01 330.733 1599.29 330.848C1599.58 330.963 1599.81 331.033 1599.99 331.058C1600.17 331.083 1600.47 331.04 1600.9 330.927L1607.82 333.714C1607.9 333.747 1608.04 333.922 1608.24 334.241C1608.5 334.535 1608.67 334.767 1608.74 334.939L1610.43 338.964C1610.63 339.518 1610.57 340.133 1610.24 340.807C1609.95 341.498 1609.7 342.108 1609.48 342.637C1609.04 343.693 1608.57 344.596 1608.07 345.343C1607.62 346.107 1607.05 346.731 1606.37 347.217C1605.71 347.663 1604.93 347.99 1604.03 348.198C1603.18 348.423 1602.14 348.525 1600.91 348.504C1599.46 347.969 1598.01 347.503 1596.56 347.107C1595.16 346.686 1593.77 346.197 1592.38 345.638C1592.14 345.539 1591.79 345.33 1591.35 345.011C1590.97 344.667 1590.86 344.313 1591.01 343.947L1596.64 330.349C1596.67 330.268 1596.81 330.179 1597.04 330.082C1597.31 330.002 1597.52 329.945 1597.68 329.913L1597.86 329.987ZM1603.97 312.666L1611.62 315.749C1612.35 316.281 1612.94 316.686 1613.4 316.965C1613.91 317.219 1614.34 317.51 1614.68 317.837C1615.04 318.123 1615.31 318.515 1615.48 319.012C1615.71 319.485 1615.91 320.207 1616.08 321.177C1616.18 321.405 1616.19 321.6 1616.13 321.763L1614.46 325.787C1614.29 326.194 1614.01 326.531 1613.61 326.798C1613.26 327.082 1612.85 327.32 1612.39 327.514C1611.94 327.667 1611.49 327.792 1611.02 327.887C1610.59 328 1610.2 328.08 1609.85 328.127C1608.71 327.765 1607.42 327.316 1605.98 326.781C1604.53 326.247 1603.16 325.716 1601.85 325.19L1601.12 324.894C1600.71 324.73 1600.3 324.516 1599.88 324.254C1599.52 323.968 1599.44 323.601 1599.62 323.154L1603.97 312.666ZM1612.67 356.3C1612.3 357.195 1612.26 358.082 1612.57 358.963C1612.88 359.803 1613.51 360.412 1614.45 360.79L1615.19 361.086C1615.96 361.398 1617.28 361.904 1619.13 362.603C1621.01 363.359 1623.05 364.181 1625.25 365.069C1627.46 365.957 1629.48 366.771 1631.31 367.511C1633.21 368.226 1634.56 368.748 1635.38 369.077C1636.61 369.334 1637.81 369.416 1638.99 369.323C1640.21 369.246 1641.45 369.129 1642.71 368.971C1643.71 368.616 1644.69 368.107 1645.63 367.443C1646.57 366.778 1647.43 366.012 1648.22 365.144C1649.05 364.292 1649.78 363.399 1650.4 362.465C1651.05 361.49 1651.56 360.535 1651.95 359.6C1652.49 358.3 1652.79 357.096 1652.87 355.988C1652.97 354.841 1652.93 353.546 1652.77 352.104C1652.7 351.794 1652.58 351.46 1652.4 351.101C1652.21 350.742 1652.04 350.363 1651.87 349.963C1651.7 349.563 1651.54 349.192 1651.4 348.85C1651.31 348.483 1651.32 348.178 1651.42 347.934C1651.61 347.487 1652.05 347.049 1652.75 346.62C1653.45 346.191 1653.96 345.895 1654.26 345.734C1655.06 345.199 1655.78 344.494 1656.43 343.617C1657.07 342.74 1657.58 341.854 1657.95 340.96C1658.71 339.13 1659.08 337.43 1659.07 335.858C1659.11 334.262 1658.81 332.791 1658.18 331.446C1657.55 330.1 1656.61 328.846 1655.38 327.685C1654.21 326.5 1652.78 325.403 1651.1 324.395L1649.88 323.902C1648.16 323.212 1646.42 322.651 1644.64 322.221C1642.87 321.791 1641.12 321.231 1639.41 320.54L1635.68 319.036C1635.03 318.537 1634.46 318.168 1633.99 317.93C1633.53 317.652 1632.98 317.381 1632.33 317.118C1631.43 316.756 1630.6 316.753 1629.83 317.108C1629.08 317.423 1628.52 318.028 1628.15 318.922C1627.68 320.06 1627.72 321.05 1628.28 321.891C1628.89 322.707 1629.73 323.329 1630.79 323.757C1631.28 323.954 1631.77 324.102 1632.25 324.202C1632.77 324.318 1633.28 324.475 1633.77 324.672L1634.2 324.844C1634.53 324.976 1634.85 325.177 1635.16 325.447C1635.48 325.717 1635.59 325.973 1635.49 326.217L1622.73 357.01L1622.39 357.156C1622.35 357.139 1622.17 357.094 1621.87 357.019C1621.63 356.921 1621.44 356.847 1621.32 356.797C1620.59 356.501 1619.89 356.173 1619.23 355.812C1618.59 355.411 1617.92 355.07 1617.22 354.791L1615.75 354.199C1614.27 354.218 1613.24 354.918 1612.67 356.3ZM1635.2 345.026C1635.48 345.141 1635.71 345.281 1635.88 345.444C1636.09 345.624 1636.34 345.772 1636.63 345.887C1636.91 346.002 1637.14 346.072 1637.33 346.097C1637.51 346.122 1637.81 346.079 1638.24 345.966L1645.15 348.753C1645.24 348.786 1645.38 348.961 1645.58 349.28C1645.84 349.574 1646 349.806 1646.08 349.978L1647.77 354.003C1647.96 354.557 1647.9 355.172 1647.57 355.846C1647.29 356.537 1647.03 357.147 1646.82 357.676C1646.38 358.732 1645.91 359.635 1645.41 360.382C1644.95 361.146 1644.38 361.77 1643.7 362.256C1643.04 362.702 1642.27 363.029 1641.37 363.237C1640.51 363.462 1639.47 363.564 1638.24 363.543C1636.8 363.008 1635.35 362.542 1633.89 362.146C1632.49 361.725 1631.1 361.236 1629.71 360.677C1629.47 360.578 1629.13 360.369 1628.69 360.05C1628.31 359.706 1628.19 359.352 1628.34 358.986L1633.98 345.388C1634.01 345.307 1634.14 345.218 1634.37 345.121C1634.64 345.041 1634.86 344.984 1635.01 344.952L1635.2 345.026ZM1641.3 327.705L1648.95 330.788C1649.68 331.32 1650.28 331.725 1650.73 332.004C1651.25 332.258 1651.68 332.549 1652.02 332.876C1652.37 333.162 1652.64 333.554 1652.82 334.051C1653.05 334.524 1653.25 335.246 1653.42 336.216C1653.51 336.444 1653.53 336.639 1653.46 336.802L1651.79 340.826C1651.63 341.233 1651.34 341.57 1650.95 341.837C1650.59 342.121 1650.18 342.359 1649.72 342.553C1649.28 342.706 1648.82 342.831 1648.35 342.926C1647.93 343.039 1647.54 343.119 1647.18 343.166C1646.05 342.804 1644.76 342.355 1643.31 341.82C1641.87 341.286 1640.49 340.755 1639.18 340.229L1638.45 339.933C1638.04 339.769 1637.63 339.555 1637.21 339.293C1636.86 339.007 1636.77 338.64 1636.96 338.193L1641.3 327.705ZM1656.83 373.662C1656.44 374.597 1656.48 375.537 1656.94 376.484C1657.41 377.43 1658.11 378.092 1659.05 378.47L1667.01 381.676L1668.32 381.779L1676.71 385.157C1677.49 385.47 1678.23 385.342 1678.94 384.775C1679.69 384.224 1680.2 383.623 1680.47 382.973C1680.81 382.16 1680.67 381.414 1680.04 380.736C1679.42 380.058 1678.76 379.53 1678.05 379.153C1677.85 379.071 1677.51 378.911 1677.04 378.673C1676.61 378.451 1676.13 378.234 1675.6 378.02C1675.08 377.765 1674.58 377.54 1674.09 377.342C1673.66 377.121 1673.34 376.969 1673.14 376.887L1672.99 376.544L1673.49 373.969L1677.15 365.127C1677.17 365.087 1677.23 364.993 1677.34 364.847C1677.49 364.717 1677.6 364.62 1677.67 364.555C1680.02 362.463 1682.33 360.383 1684.61 358.316C1686.92 356.207 1689.24 354.107 1691.58 352.015C1691.75 351.845 1691.98 351.63 1692.28 351.37C1692.63 351.087 1692.97 350.795 1693.28 350.495C1693.6 350.194 1693.87 349.947 1694.09 349.753C1694.37 349.534 1694.55 349.392 1694.62 349.327C1694.74 349.279 1694.91 349.206 1695.14 349.109C1695.39 348.972 1695.55 348.919 1695.64 348.952L1699 350.309C1699.29 350.424 1699.57 350.441 1699.84 350.361C1700.17 350.256 1700.44 350.106 1700.67 349.912C1700.91 349.677 1701.11 349.425 1701.27 349.157C1701.47 348.905 1701.62 348.657 1701.72 348.413C1701.97 347.804 1702.03 347.209 1701.88 346.631C1701.78 346.068 1701.55 345.546 1701.18 345.065C1700.82 344.542 1700.39 344.084 1699.89 343.692C1699.38 343.299 1698.87 342.996 1698.33 342.782C1697.72 342.535 1697.11 342.338 1696.51 342.189C1695.9 342.04 1695.27 341.834 1694.62 341.571C1693.93 341.291 1693.29 340.988 1692.71 340.66C1692.18 340.348 1691.56 340.053 1690.87 339.773C1690.05 339.445 1689.25 339.36 1688.47 339.52C1687.75 339.656 1687.2 340.171 1686.83 341.065C1686.53 341.797 1686.43 342.375 1686.54 342.798C1686.65 343.222 1686.84 343.63 1687.11 344.022C1687.39 344.373 1687.67 344.724 1687.96 345.076C1688.28 345.443 1688.48 345.88 1688.56 346.385C1688.56 346.483 1688.52 346.633 1688.44 346.836C1688.37 346.999 1688.32 347.121 1688.29 347.202C1688.05 347.771 1687.73 348.259 1687.33 348.664C1686.96 349.086 1686.55 349.492 1686.11 349.881C1685.68 350.23 1685.22 350.59 1684.73 350.963C1684.26 351.295 1683.82 351.664 1683.42 352.07C1683.34 352.134 1683.21 352.272 1683.03 352.483C1682.85 352.694 1682.63 352.938 1682.37 353.214C1682.17 353.465 1681.95 353.709 1681.71 353.944C1681.53 354.155 1681.43 354.281 1681.41 354.322C1681.28 354.411 1681.06 354.585 1680.77 354.844C1680.51 355.12 1680.2 355.4 1679.85 355.684C1679.53 355.984 1679.23 356.264 1678.93 356.523C1678.65 356.742 1678.44 356.896 1678.31 356.985C1678.2 357.131 1678.06 357.171 1677.9 357.105C1677.78 357.056 1677.68 357.015 1677.59 356.982C1677.35 356.883 1677.17 356.691 1677.05 356.406C1676.93 356.12 1676.84 355.823 1676.77 355.513C1676.73 355.163 1676.7 354.821 1676.7 354.487C1676.71 354.112 1676.7 353.799 1676.66 353.546L1676.03 344.896C1676.01 344.701 1676.01 344.249 1676.02 343.54C1676.07 342.848 1676.09 342.384 1676.1 342.148C1676.1 342.148 1676.08 342.12 1676.06 342.063C1676.09 341.981 1676.12 341.92 1676.14 341.88C1676.27 341.554 1676.55 341.405 1676.96 341.431C1677.42 341.473 1677.91 341.504 1678.43 341.522C1678.94 341.54 1679.45 341.461 1679.95 341.283C1680.51 341.082 1680.94 340.615 1681.25 339.884C1681.65 338.908 1681.66 338.082 1681.27 337.404C1680.89 336.727 1680.31 336.163 1679.55 335.712C1678.8 335.221 1677.97 334.814 1677.05 334.493C1676.18 334.189 1675.44 333.893 1674.85 333.606C1674.77 333.573 1674.58 333.45 1674.29 333.237C1674.03 333.041 1673.87 332.926 1673.79 332.893L1673.42 332.745C1672.77 332.482 1672.05 332.264 1671.26 332.09C1670.49 331.875 1669.72 331.779 1668.95 331.8C1668.22 331.838 1667.52 332.031 1666.86 332.378C1666.25 332.702 1665.77 333.27 1665.43 334.083C1665.13 334.815 1665.08 335.458 1665.28 336.012C1665.54 336.543 1665.9 336.996 1666.36 337.372C1666.88 337.724 1667.44 338.044 1668.03 338.331C1668.69 338.594 1669.28 338.833 1669.81 339.046C1670.08 339.536 1670.25 340.054 1670.31 340.599C1670.43 341.121 1670.48 341.667 1670.49 342.237C1670.49 342.807 1670.49 343.377 1670.49 343.947C1670.54 344.533 1670.62 345.087 1670.73 345.609C1670.76 345.666 1670.82 345.858 1670.92 346.184C1671.03 346.51 1671.08 346.722 1671.09 346.82C1671.11 347.919 1671.06 348.965 1670.93 349.958C1670.81 350.951 1670.93 351.973 1671.3 353.025L1671.64 362.908L1666.99 374.128L1666.71 374.297C1666.63 374.265 1666.37 374.186 1665.95 374.063C1665.54 373.898 1665.23 373.775 1665.03 373.693C1664.34 373.413 1663.7 373.109 1663.12 372.782C1662.6 372.429 1662.01 372.122 1661.36 371.859C1660.54 371.53 1659.65 371.551 1658.69 371.922C1657.79 372.269 1657.16 372.849 1656.83 373.662Z" fill="white"/>
<path d="M1459.91 469.305L1540.05 498.924" stroke="#811D1D" stroke-width="3" stroke-linecap="round"/>
<path d="M1193.36 405.835L1176.81 398.43" stroke="white"/>
<path d="M1193.36 405.835L1176.81 398.43" stroke="white"/>
<path d="M1278.73 442.33L1208.17 412.182" stroke="white"/>
<path d="M1278.73 442.33L1208.17 412.182" stroke="white"/>
<path d="M1223.36 288.66L1033.47 732.948" stroke="white"/>
<path d="M1223.36 288.66L1033.47 732.948" stroke="white"/>
<path d="M1620.19 451.322L1430.29 897.725" stroke="white"/>
<path d="M1620.19 451.322L1430.29 897.725" stroke="white"/>
<path d="M1357.99 782.422L1158.52 699.911" stroke="white"/>
<path d="M1357.99 782.422L1158.52 699.911" stroke="white"/>
<path d="M1205.56 614.227L1101.9 571.914" stroke="white"/>
<path d="M1205.56 614.227L1101.9 571.914" stroke="white"/>
<path d="M1557.47 600.475L1453.81 558.162" stroke="white"/>
<path d="M1557.47 600.475L1453.81 558.162" stroke="white"/>
<path d="M1598.41 503.155L1562.69 488.345" stroke="white"/>
<path d="M1598.41 503.155L1562.69 488.345" stroke="white"/>
<path d="M1466.01 627.979L1448.15 620.574L1430.29 613.169" stroke="white"/>
<path d="M1466.01 627.979L1448.15 620.574L1430.29 613.169" stroke="white"/>
<path d="M1533.08 655.482L1515.22 648.078L1497.36 640.673" stroke="white"/>
<path d="M1533.08 655.482L1515.22 648.078L1497.36 640.673" stroke="white"/>
<path d="M1264.79 371.984L1248.24 364.58" stroke="white"/>
<path d="M1264.79 371.984L1248.24 364.58" stroke="white"/>
<path d="M1301.37 387.852L1279.6 378.331" stroke="white"/>
<path d="M1301.37 387.852L1279.6 378.331" stroke="white"/>
<path d="M1121.06 650.193L1076.64 632.21" stroke="white"/>
<path d="M1121.06 650.193L1076.64 632.21" stroke="white"/>
<path d="M1316.18 699.911L1271.76 681.928" stroke="white"/>
<path d="M1316.18 699.911L1271.76 681.928" stroke="white"/>
<path d="M1205.56 685.102L1151.55 662.887" stroke="white"/>
<path d="M1205.56 685.102L1151.55 662.887" stroke="white"/>
<path d="M1388.48 565.567L1352.77 550.757" stroke="white"/>
<path d="M1388.48 565.567L1352.77 550.757" stroke="white"/>
<path d="M1240.4 532.774L1136.74 490.461" stroke="white"/>
<path d="M1240.4 532.774L1136.74 490.461" stroke="white"/>
<path d="M1437.26 751.745L1348.41 713.663" stroke="white"/>
<path d="M1437.26 751.745L1348.41 713.663" stroke="white"/>
<path d="M1310.96 506.329L1156.78 442.859" stroke="white"/>
<path d="M1310.96 506.329L1156.78 442.859" stroke="white"/>
<path d="M1540.05 458.726L1310.96 365.637" stroke="white"/>
<path d="M1540.05 458.726L1310.96 365.637" stroke="white"/>
<path d="M1386.74 666.061L1293.53 624.805" stroke="white"/>
<path d="M1386.74 666.061L1293.53 624.805" stroke="white"/>
<path d="M1507.82 715.779L1412.87 677.697" stroke="white"/>
<path d="M1507.82 715.779L1412.87 677.697" stroke="white"/>
<path d="M1514.79 516.907L1477.33 501.04" stroke="white"/>
<path d="M1514.79 516.907L1477.33 501.04" stroke="white"/>
<path d="M1621.06 451.322L1517.4 409.008" stroke="white"/>
<path d="M1621.06 451.322L1517.4 409.008" stroke="white"/>
<path d="M1325.76 330.729L1222.11 288.416" stroke="white"/>
<path d="M1325.76 330.729L1222.11 288.416" stroke="white"/>
<path d="M1325.76 330.729L1278.73 442.859" stroke="white"/>
<path d="M1325.76 330.729L1278.73 442.859" stroke="white"/>
<path d="M1294.41 624.805L1248.24 736.935" stroke="white"/>
<path d="M1294.41 624.805L1248.24 736.935" stroke="white"/>
<path d="M1311.83 505.271L1265.66 616.343" stroke="white"/>
<path d="M1311.83 505.271L1265.66 616.343" stroke="white"/>
<path d="M1204.69 685.102L1192.49 714.721" stroke="white"/>
<path d="M1204.69 685.102L1192.49 714.721" stroke="white"/>
<path d="M1521.75 501.04L1514.79 517.965" stroke="white"/>
<path d="M1521.75 501.04L1514.79 517.965" stroke="white"/>
<path d="M1554.85 423.818L1547.89 440.743" stroke="white"/>
<path d="M1554.85 423.818L1547.89 440.743" stroke="white"/>
<path d="M1216.88 585.666L1204.69 615.285" stroke="white"/>
<path d="M1216.88 585.666L1204.69 615.285" stroke="white"/>
<path d="M1240.4 531.717L1228.2 561.336" stroke="white"/>
<path d="M1240.4 531.717L1228.2 561.336" stroke="white"/>
<path d="M1459.91 696.738L1436.39 751.745" stroke="white"/>
<path d="M1459.91 696.738L1436.39 751.745" stroke="white"/>
<path d="M1517.4 407.951L1501.65 443.868" stroke="white"/>
<path d="M1517.4 407.951L1501.65 443.868" stroke="white"/>
<path d="M1248.24 363.522L1224.72 419.587" stroke="white"/>
<path d="M1248.24 363.522L1224.72 419.587" stroke="white"/>
<path d="M1244.75 671.35L1221.24 726.357" stroke="white"/>
<path d="M1244.75 671.35L1221.24 726.357" stroke="white"/>
<path d="M1542.66 451.322L1528.72 486.23" stroke="white"/>
<path d="M1542.66 451.322L1528.72 486.23" stroke="white"/>
<path d="M1477.33 501.04L1430.29 614.227" stroke="white"/>
<path d="M1477.33 501.04L1430.29 614.227" stroke="white"/>
<path d="M1430.29 413.24L1370.19 558.162" stroke="white"/>
<path d="M1430.29 413.24L1370.19 558.162" stroke="white"/>
<path d="M1128.03 771.844L1033.08 732.704" stroke="white"/>
<path d="M1128.03 771.844L1033.08 732.704" stroke="white"/>
<path d="M1430.29 897.725L1327.51 854.354" stroke="white"/>
<path d="M1430.29 897.725L1327.51 854.354" stroke="white"/>
<path d="M1223.36 288.66L1033.47 732.948" stroke="white"/>
<path d="M1223.36 288.66L1033.47 732.948" stroke="white"/>
<path d="M1158.52 699.911L1128.03 771.843" stroke="white"/>
<path d="M1158.52 699.911L1128.03 771.843" stroke="white"/>
<path d="M1357.99 782.422L1327.51 854.354" stroke="white"/>
<path d="M1357.99 782.422L1327.51 854.354" stroke="white"/>
<path d="M1240.4 637.499L1208.17 717.484" stroke="#851F1F" stroke-width="3" stroke-linecap="round"/>
<path d="M1298.76 572.972L1265.66 648.078" stroke="#811D1D" stroke-width="3" stroke-linecap="round"/>
<path d="M1240.4 636.441L1265.66 648.078" stroke="#811D1D" stroke-width="3" stroke-linecap="round"/>
<path d="M1298.76 572.972L1398.93 616.343" stroke="#811D1D" stroke-width="3" stroke-linecap="round"/>
<path d="M1560.08 451.322L1540.05 498.924" stroke="#811D1D" stroke-width="3" stroke-linecap="round"/>
<path d="M1560.08 451.322L1527.85 436.512" stroke="#811D1D" stroke-width="3" stroke-linecap="round"/>
<path d="M1524.37 422.76L1528.72 447.09" stroke="#811D1D" stroke-width="3" stroke-linecap="round"/>
<path d="M1534.82 429.107L1517.4 441.801" stroke="#811D1D" stroke-width="3" stroke-linecap="round"/>
<path d="M1459.91 469.305L1398.5 616.343" stroke="#811D1D" stroke-width="3" stroke-linecap="round"/>
<path d="M1211.61 707.552L1215.17 723.272L1200.89 717.367L1211.61 707.552Z" fill="#811D1D"/>
<rect x="1658.77" y="850.217" width="118.191" height="18.8317" transform="rotate(18.5991 1658.77 850.217)" fill="#F5BC4D" stroke="black" stroke-width="0.8"/>
<rect x="1668.83" y="872.16" width="13.0981" height="32.3556" transform="rotate(18.5991 1668.83 872.16)" fill="#F5BC4D" stroke="black" stroke-width="0.8"/>
<rect x="1700.81" y="882.796" width="10.8621" height="18.8317" transform="rotate(18.5991 1700.81 882.796)" fill="#F5BC4D" stroke="black" stroke-width="0.8"/>
<rect x="1773.23" y="866.886" width="63.4087" height="60.5302" transform="rotate(18.5991 1773.23 866.886)" fill="#F5BC4D" stroke="black" stroke-width="0.8"/>
<rect x="1770.09" y="888.729" width="16.8409" height="20.6557" transform="rotate(108.599 1770.09 888.729)" fill="#F5BC4D"/>
<rect x="1713.29" y="876.537" width="16.8409" height="8.83067" transform="rotate(108.599 1713.29 876.537)" fill="#F5BC4D"/>
<rect x="1684.33" y="864.048" width="16.8409" height="11.1194" transform="rotate(108.599 1684.33 864.048)" fill="#F5BC4D"/>
<rect x="1785.15" y="887.545" width="28.7503" height="28.9746" transform="rotate(18.5991 1785.15 887.545)" fill="#7B5E27" stroke="black" stroke-width="0.8"/>
<rect x="305.729" y="938.386" width="118.191" height="18.8317" transform="rotate(-132.651 305.729 938.386)" fill="#F5BC4D" stroke="black" stroke-width="0.8"/>
<rect x="307.465" y="914.31" width="13.0981" height="32.3556" transform="rotate(-132.651 307.465 914.31)" fill="#F5BC4D" stroke="black" stroke-width="0.8"/>
<rect x="284.537" y="889.6" width="10.8621" height="18.8317" transform="rotate(-132.651 284.537 889.6)" fill="#F5BC4D" stroke="black" stroke-width="0.8"/>
<rect x="213.396" y="868.718" width="63.4087" height="60.5302" transform="rotate(-132.651 213.396 868.718)" fill="#F5BC4D" stroke="black" stroke-width="0.8"/>
<rect x="226.654" y="851.077" width="16.8409" height="20.6557" transform="rotate(-42.651 226.654 851.077)" fill="#F5BC4D"/>
<rect x="270.584" y="889.085" width="16.8409" height="8.83067" transform="rotate(-42.651 270.584 889.085)" fill="#F5BC4D"/>
<rect x="289.973" y="913.967" width="16.8409" height="11.1194" transform="rotate(-42.651 289.973 913.967)" fill="#F5BC4D"/>
<rect x="212.88" y="844.872" width="28.7503" height="28.9746" transform="rotate(-132.651 212.88 844.872)" fill="#7B5E27" stroke="black" stroke-width="0.8"/>
<rect x="821.798" y="318.246" width="118.191" height="18.8317" transform="rotate(-51.036 821.798 318.246)" fill="#F5BC4D" stroke="black" stroke-width="0.8"/>
<rect x="845.87" y="316.452" width="13.0981" height="32.3556" transform="rotate(-51.036 845.87 316.452)" fill="#F5BC4D" stroke="black" stroke-width="0.8"/>
<rect x="866.972" y="290.166" width="10.8621" height="18.8317" transform="rotate(-51.036 866.972 290.166)" fill="#F5BC4D" stroke="black" stroke-width="0.8"/>
<rect x="877.257" y="216.74" width="63.4087" height="60.5302" transform="rotate(-51.036 877.257 216.74)" fill="#F5BC4D" stroke="black" stroke-width="0.8"/>
<rect x="896.643" y="227.284" width="16.8409" height="20.6557" transform="rotate(38.964 896.643 227.284)" fill="#F5BC4D"/>
<rect x="865.447" y="276.288" width="16.8409" height="8.83067" transform="rotate(38.964 865.447 276.288)" fill="#F5BC4D"/>
<rect x="843.659" y="299.097" width="16.8409" height="11.1194" transform="rotate(38.964 843.659 299.097)" fill="#F5BC4D"/>
<rect x="900.773" y="212.753" width="28.7503" height="28.9746" transform="rotate(-51.036 900.773 212.753)" fill="#7B5E27" stroke="black" stroke-width="0.8"/>
<mask id="path-85-inside-1_121_768" fill="white">
<path fill-rule="evenodd" clip-rule="evenodd" d="M631.093 734.794L620.728 728.363L510.828 917.574C509.661 918.055 508.82 918.751 508.357 919.671C505.398 925.564 519.119 938.435 539.003 948.418C558.887 958.401 577.405 961.717 580.364 955.823C580.622 955.308 580.754 954.741 580.765 954.126L665.662 751.58L642.445 741.719L631.093 734.794Z"/>
</mask>
<path fill-rule="evenodd" clip-rule="evenodd" d="M631.093 734.794L620.728 728.363L510.828 917.574C509.661 918.055 508.82 918.751 508.357 919.671C505.398 925.564 519.119 938.435 539.003 948.418C558.887 958.401 577.405 961.717 580.364 955.823C580.622 955.308 580.754 954.741 580.765 954.126L665.662 751.58L642.445 741.719L631.093 734.794Z" fill="#323232"/>
<path d="M620.728 728.363L621.255 727.513L620.38 726.97L619.863 727.86L620.728 728.363ZM631.093 734.794L630.566 735.644L630.572 735.648L631.093 734.794ZM510.828 917.574L511.209 918.498L511.523 918.369L511.693 918.076L510.828 917.574ZM508.357 919.671L509.251 920.12H509.251L508.357 919.671ZM539.003 948.418L539.452 947.524L539.003 948.418ZM580.364 955.823L581.258 956.272H581.258L580.364 955.823ZM580.765 954.126L579.842 953.739L579.768 953.916L579.765 954.108L580.765 954.126ZM665.662 751.58L666.584 751.966L666.969 751.048L666.053 750.659L665.662 751.58ZM642.445 741.719L641.924 742.573L641.986 742.611L642.054 742.64L642.445 741.719ZM620.2 729.212L630.566 735.644L631.62 733.944L621.255 727.513L620.2 729.212ZM511.693 918.076L621.592 728.865L619.863 727.86L509.964 917.072L511.693 918.076ZM509.251 920.12C509.577 919.471 510.198 918.915 511.209 918.498L510.447 916.649C509.124 917.194 508.062 918.03 507.464 919.222L509.251 920.12ZM539.452 947.524C529.571 942.564 521.256 936.901 515.798 931.782C513.064 929.217 511.091 926.829 509.982 924.771C508.856 922.683 508.731 921.155 509.251 920.12L507.464 919.222C506.504 921.134 506.985 923.425 508.221 925.72C509.474 928.044 511.618 930.603 514.43 933.24C520.064 938.525 528.551 944.29 538.554 949.312L539.452 947.524ZM579.47 955.374C578.951 956.41 577.651 957.222 575.304 957.567C572.991 957.907 569.896 957.751 566.207 957.09C558.841 955.771 549.333 952.485 539.452 947.524L538.554 949.312C548.558 954.334 558.251 957.697 565.854 959.059C569.649 959.738 572.982 959.93 575.595 959.546C578.173 959.167 580.298 958.184 581.258 956.272L579.47 955.374ZM579.765 954.108C579.756 954.588 579.655 955.007 579.47 955.374L581.258 956.272C581.59 955.61 581.751 954.893 581.764 954.144L579.765 954.108ZM664.739 751.193L579.842 953.739L581.687 954.512L666.584 751.966L664.739 751.193ZM642.054 742.64L665.271 752.5L666.053 750.659L642.836 740.799L642.054 742.64ZM630.572 735.648L641.924 742.573L642.965 740.866L631.614 733.94L630.572 735.648Z" fill="black" mask="url(#path-85-inside-1_121_768)"/>
<path d="M816.5 650C816.5 714.87 761.231 767.5 693 767.5C624.769 767.5 569.5 714.87 569.5 650C569.5 585.13 624.769 532.5 693 532.5C761.231 532.5 816.5 585.13 816.5 650Z" fill="#323232" stroke="black"/>
<path d="M791.5 650C791.5 701.612 747.203 743.5 692.5 743.5C637.797 743.5 593.5 701.612 593.5 650C593.5 598.388 637.797 556.5 692.5 556.5C747.203 556.5 791.5 598.388 791.5 650Z" fill="#CCCCCC" stroke="black"/>
<ellipse cx="720.5" cy="650" rx="54.5" ry="65" fill="#EDEDED"/>
<ellipse cx="699.5" cy="658" rx="62.5" ry="73" fill="#CCCCCC"/>
</svg>
