<svg width="2001" height="1160" viewBox="0 0 2001 1160" fill="none" xmlns="http://www.w3.org/2000/svg">
<rect width="1920" height="1080" transform="translate(40 40)" fill="#F7F7F7"/>
<rect x="40" y="40" width="1920" height="1080" fill="#DEE7B9"/>
<rect x="40.5" y="686.693" width="1919" height="432.807" fill="#5A2B32" stroke="#974D58"/>
<rect x="40.5" y="1045.38" width="79" height="74.1181" fill="#813B45" stroke="#974D58"/>
<rect x="200.5" y="1045.38" width="79" height="74.1181" fill="#813B45" stroke="#974D58"/>
<rect x="360.5" y="1045.38" width="79" height="74.1181" fill="#813B45" stroke="#974D58"/>
<rect x="680.5" y="1045.38" width="79" height="74.1181" fill="#813B45" stroke="#974D58"/>
<rect x="840.5" y="1045.38" width="79" height="74.1181" fill="#813B45" stroke="#974D58"/>
<rect x="1000.5" y="1045.38" width="79" height="74.1181" fill="#813B45" stroke="#974D58"/>
<rect x="1160.5" y="1045.38" width="79" height="74.1181" fill="#813B45" stroke="#974D58"/>
<rect x="1320.5" y="1045.38" width="79" height="74.1181" fill="#813B45" stroke="#974D58"/>
<rect x="1480.5" y="1045.38" width="79" height="74.1181" fill="#813B45" stroke="#974D58"/>
<rect x="1640.5" y="1045.38" width="79" height="74.1181" fill="#813B45" stroke="#974D58"/>
<rect x="1800.5" y="1045.38" width="79" height="74.1181" fill="#813B45" stroke="#974D58"/>
<rect x="520.5" y="1045.38" width="79" height="74.1181" fill="#813B45" stroke="#974D58"/>
<rect x="40.5" y="744.909" width="79" height="74.1181" fill="#813B45" stroke="#974D58"/>
<rect x="200.5" y="744.909" width="79" height="74.1181" fill="#813B45" stroke="#974D58"/>
<rect x="360.5" y="744.909" width="79" height="74.1181" fill="#813B45" stroke="#974D58"/>
<rect x="680.5" y="744.909" width="79" height="74.1181" fill="#813B45" stroke="#974D58"/>
<rect x="840.5" y="744.909" width="79" height="74.1181" fill="#813B45" stroke="#974D58"/>
<rect x="1000.5" y="744.909" width="79" height="74.1181" fill="#813B45" stroke="#974D58"/>
<rect x="1160.5" y="744.909" width="79" height="74.1181" fill="#813B45" stroke="#974D58"/>
<rect x="1320.5" y="744.909" width="79" height="74.1181" fill="#813B45" stroke="#974D58"/>
<rect x="1480.5" y="744.909" width="79" height="74.1181" fill="#813B45" stroke="#974D58"/>
<rect x="1640.5" y="744.909" width="79" height="74.1181" fill="#813B45" stroke="#974D58"/>
<rect x="1800.5" y="744.909" width="79" height="74.1181" fill="#813B45" stroke="#974D58"/>
<rect x="520.5" y="744.909" width="79" height="74.1181" fill="#813B45" stroke="#974D58"/>
<rect x="120.5" y="820.028" width="79" height="74.1181" fill="#813B45" stroke="#974D58"/>
<rect x="280.5" y="820.028" width="79" height="74.1181" fill="#813B45" stroke="#974D58"/>
<rect x="440.5" y="820.028" width="79" height="74.1181" fill="#813B45" stroke="#974D58"/>
<rect x="760.5" y="820.028" width="79" height="74.1181" fill="#813B45" stroke="#974D58"/>
<rect x="920.5" y="820.028" width="79" height="74.1181" fill="#813B45" stroke="#974D58"/>
<rect x="1080.5" y="820.028" width="79" height="74.1181" fill="#813B45" stroke="#974D58"/>
<rect x="1240.5" y="820.028" width="79" height="74.1181" fill="#813B45" stroke="#974D58"/>
<rect x="1400.5" y="820.028" width="79" height="74.1181" fill="#813B45" stroke="#974D58"/>
<rect x="1560.5" y="820.028" width="79" height="74.1181" fill="#813B45" stroke="#974D58"/>
<rect x="1720.5" y="820.028" width="79" height="74.1181" fill="#813B45" stroke="#974D58"/>
<rect x="1880.5" y="820.028" width="79" height="74.1181" fill="#813B45" stroke="#974D58"/>
<rect x="600.5" y="820.028" width="79" height="74.1181" fill="#813B45" stroke="#974D58"/>
<rect x="40.5" y="895.146" width="79" height="74.1181" fill="#813B45" stroke="#974D58"/>
<rect x="200.5" y="895.146" width="79" height="74.1181" fill="#813B45" stroke="#974D58"/>
<rect x="360.5" y="895.146" width="79" height="74.1181" fill="#813B45" stroke="#974D58"/>
<rect x="680.5" y="895.146" width="79" height="74.1181" fill="#813B45" stroke="#974D58"/>
<rect x="840.5" y="895.146" width="79" height="74.1181" fill="#813B45" stroke="#974D58"/>
<rect x="1000.5" y="895.146" width="79" height="74.1181" fill="#813B45" stroke="#974D58"/>
<rect x="1160.5" y="895.146" width="79" height="74.1181" fill="#813B45" stroke="#974D58"/>
<rect x="1320.5" y="895.146" width="79" height="74.1181" fill="#813B45" stroke="#974D58"/>
<rect x="1480.5" y="895.146" width="79" height="74.1181" fill="#813B45" stroke="#974D58"/>
<rect x="1640.5" y="895.146" width="79" height="74.1181" fill="#813B45" stroke="#974D58"/>
<rect x="1800.5" y="895.146" width="79" height="74.1181" fill="#813B45" stroke="#974D58"/>
<rect x="520.5" y="895.146" width="79" height="74.1181" fill="#813B45" stroke="#974D58"/>
<rect x="120.5" y="970.264" width="79" height="74.1181" fill="#813B45" stroke="#974D58"/>
<rect x="280.5" y="970.264" width="79" height="74.1181" fill="#813B45" stroke="#974D58"/>
<rect x="440.5" y="970.264" width="79" height="74.1181" fill="#813B45" stroke="#974D58"/>
<rect x="760.5" y="970.264" width="79" height="74.1181" fill="#813B45" stroke="#974D58"/>
<rect x="920.5" y="970.264" width="79" height="74.1181" fill="#813B45" stroke="#974D58"/>
<rect x="1080.5" y="970.264" width="79" height="74.1181" fill="#813B45" stroke="#974D58"/>
<rect x="1240.5" y="970.264" width="79" height="74.1181" fill="#813B45" stroke="#974D58"/>
<rect x="1400.5" y="970.264" width="79" height="74.1181" fill="#813B45" stroke="#974D58"/>
<rect x="1560.5" y="970.264" width="79" height="74.1181" fill="#813B45" stroke="#974D58"/>
<rect x="1720.5" y="970.264" width="79" height="74.1181" fill="#813B45" stroke="#974D58"/>
<rect x="1880.5" y="970.264" width="79" height="74.1181" fill="#813B45" stroke="#974D58"/>
<rect x="600.5" y="970.264" width="79" height="74.1181" fill="#813B45" stroke="#974D58"/>
<rect x="40.5" y="644.5" width="1919" height="10.2677" fill="#401F24" stroke="#974D58"/>
<rect x="40.5" y="732.703" width="1919" height="11.2067" fill="#401F24" stroke="#974D58"/>
<rect x="40.5" y="679.5" width="1919" height="4.63386" fill="#401F24" stroke="#974D58"/>
<rect x="40" y="655" width="1920" height="24" fill="#8D434E"/>
<rect x="40.416" y="691.416" width="15.8064" height="39.516" fill="#E3BD73" stroke="#974D58" stroke-width="0.831915"/>
<rect x="73.6923" y="691.416" width="15.8064" height="39.516" fill="#E3BD73" stroke="#974D58" stroke-width="0.831915"/>
<rect x="106.969" y="691.416" width="15.8064" height="39.516" fill="#E3BD73" stroke="#974D58" stroke-width="0.831915"/>
<rect x="140.246" y="691.416" width="15.8064" height="39.516" fill="#E3BD73" stroke="#974D58" stroke-width="0.831915"/>
<rect x="173.522" y="691.416" width="15.8064" height="39.516" fill="#E3BD73" stroke="#974D58" stroke-width="0.831915"/>
<rect x="206.799" y="691.416" width="15.8064" height="39.516" fill="#E3BD73" stroke="#974D58" stroke-width="0.831915"/>
<rect x="240.075" y="691.416" width="15.8064" height="39.516" fill="#E3BD73" stroke="#974D58" stroke-width="0.831915"/>
<rect x="273.352" y="691.416" width="15.8064" height="39.516" fill="#E3BD73" stroke="#974D58" stroke-width="0.831915"/>
<rect x="306.629" y="691.416" width="15.8064" height="39.516" fill="#E3BD73" stroke="#974D58" stroke-width="0.831915"/>
<rect x="339.905" y="691.416" width="15.8064" height="39.516" fill="#E3BD73" stroke="#974D58" stroke-width="0.831915"/>
<rect x="373.182" y="691.416" width="15.8064" height="39.516" fill="#E3BD73" stroke="#974D58" stroke-width="0.831915"/>
<rect x="406.459" y="691.416" width="15.8064" height="39.516" fill="#E3BD73" stroke="#974D58" stroke-width="0.831915"/>
<rect x="439.735" y="691.416" width="15.8064" height="39.516" fill="#E3BD73" stroke="#974D58" stroke-width="0.831915"/>
<rect x="473.012" y="691.416" width="15.8064" height="39.516" fill="#E3BD73" stroke="#974D58" stroke-width="0.831915"/>
<rect x="506.288" y="691.416" width="15.8064" height="39.516" fill="#E3BD73" stroke="#974D58" stroke-width="0.831915"/>
<rect x="539.564" y="691.416" width="15.8064" height="39.516" fill="#E3BD73" stroke="#974D58" stroke-width="0.831915"/>
<rect x="572.842" y="691.416" width="15.8064" height="39.516" fill="#E3BD73" stroke="#974D58" stroke-width="0.831915"/>
<rect x="606.118" y="691.416" width="15.8064" height="39.516" fill="#E3BD73" stroke="#974D58" stroke-width="0.831915"/>
<rect x="639.394" y="691.416" width="15.8064" height="39.516" fill="#E3BD73" stroke="#974D58" stroke-width="0.831915"/>
<rect x="672.671" y="691.416" width="15.8064" height="39.516" fill="#E3BD73" stroke="#974D58" stroke-width="0.831915"/>
<rect x="705.948" y="691.416" width="15.8064" height="39.516" fill="#E3BD73" stroke="#974D58" stroke-width="0.831915"/>
<rect x="739.225" y="691.416" width="15.8064" height="39.516" fill="#E3BD73" stroke="#974D58" stroke-width="0.831915"/>
<rect x="772.501" y="691.416" width="15.8064" height="39.516" fill="#E3BD73" stroke="#974D58" stroke-width="0.831915"/>
<rect x="805.777" y="691.416" width="15.8064" height="39.516" fill="#E3BD73" stroke="#974D58" stroke-width="0.831915"/>
<rect x="839.416" y="692.416" width="15.8064" height="39.516" fill="#E3BD73" stroke="#974D58" stroke-width="0.831915"/>
<rect x="872.692" y="692.416" width="15.8064" height="39.516" fill="#E3BD73" stroke="#974D58" stroke-width="0.831915"/>
<rect x="905.969" y="692.416" width="15.8064" height="39.516" fill="#E3BD73" stroke="#974D58" stroke-width="0.831915"/>
<rect x="939.246" y="692.416" width="15.8064" height="39.516" fill="#E3BD73" stroke="#974D58" stroke-width="0.831915"/>
<rect x="972.522" y="692.416" width="15.8064" height="39.516" fill="#E3BD73" stroke="#974D58" stroke-width="0.831915"/>
<rect x="1005.8" y="692.416" width="15.8064" height="39.516" fill="#E3BD73" stroke="#974D58" stroke-width="0.831915"/>
<rect x="1039.08" y="692.416" width="15.8064" height="39.516" fill="#E3BD73" stroke="#974D58" stroke-width="0.831915"/>
<rect x="1072.35" y="692.416" width="15.8064" height="39.516" fill="#E3BD73" stroke="#974D58" stroke-width="0.831915"/>
<rect x="1105.63" y="692.416" width="15.8064" height="39.516" fill="#E3BD73" stroke="#974D58" stroke-width="0.831915"/>
<rect x="1138.91" y="692.416" width="15.8064" height="39.516" fill="#E3BD73" stroke="#974D58" stroke-width="0.831915"/>
<rect x="1172.18" y="692.416" width="15.8064" height="39.516" fill="#E3BD73" stroke="#974D58" stroke-width="0.831915"/>
<rect x="1205.46" y="692.416" width="15.8064" height="39.516" fill="#E3BD73" stroke="#974D58" stroke-width="0.831915"/>
<rect x="1238.74" y="692.416" width="15.8064" height="39.516" fill="#E3BD73" stroke="#974D58" stroke-width="0.831915"/>
<rect x="1272.01" y="692.416" width="15.8064" height="39.516" fill="#E3BD73" stroke="#974D58" stroke-width="0.831915"/>
<rect x="1305.29" y="692.416" width="15.8064" height="39.516" fill="#E3BD73" stroke="#974D58" stroke-width="0.831915"/>
<rect x="1338.56" y="692.416" width="15.8064" height="39.516" fill="#E3BD73" stroke="#974D58" stroke-width="0.831915"/>
<rect x="1371.84" y="692.416" width="15.8064" height="39.516" fill="#E3BD73" stroke="#974D58" stroke-width="0.831915"/>
<rect x="1405.12" y="692.416" width="15.8064" height="39.516" fill="#E3BD73" stroke="#974D58" stroke-width="0.831915"/>
<rect x="1438.39" y="692.416" width="15.8064" height="39.516" fill="#E3BD73" stroke="#974D58" stroke-width="0.831915"/>
<rect x="1471.67" y="692.416" width="15.8064" height="39.516" fill="#E3BD73" stroke="#974D58" stroke-width="0.831915"/>
<rect x="1503.42" y="692.416" width="15.8064" height="39.516" fill="#E3BD73" stroke="#974D58" stroke-width="0.831915"/>
<rect x="1538.22" y="692.416" width="15.8064" height="39.516" fill="#E3BD73" stroke="#974D58" stroke-width="0.831915"/>
<rect x="1571.5" y="692.416" width="15.8064" height="39.516" fill="#E3BD73" stroke="#974D58" stroke-width="0.831915"/>
<rect x="1604.78" y="692.416" width="15.8064" height="39.516" fill="#E3BD73" stroke="#974D58" stroke-width="0.831915"/>
<rect x="1771.42" y="691.416" width="15.8064" height="39.516" fill="#E3BD73" stroke="#974D58" stroke-width="0.831915"/>
<rect x="1804.69" y="691.416" width="15.8064" height="39.516" fill="#E3BD73" stroke="#974D58" stroke-width="0.831915"/>
<rect x="1837.97" y="691.416" width="15.8064" height="39.516" fill="#E3BD73" stroke="#974D58" stroke-width="0.831915"/>
<rect x="1871.25" y="691.416" width="15.8064" height="39.516" fill="#E3BD73" stroke="#974D58" stroke-width="0.831915"/>
<rect x="1904.52" y="691.416" width="15.8064" height="39.516" fill="#E3BD73" stroke="#974D58" stroke-width="0.831915"/>
<rect x="1937.42" y="691.416" width="15.8064" height="39.516" fill="#E3BD73" stroke="#974D58" stroke-width="0.831915"/>
<rect x="1638.42" y="691.416" width="15.8064" height="39.516" fill="#E3BD73" stroke="#974D58" stroke-width="0.831915"/>
<rect x="1671.69" y="691.416" width="15.8064" height="39.516" fill="#E3BD73" stroke="#974D58" stroke-width="0.831915"/>
<rect x="1704.97" y="691.416" width="15.8064" height="39.516" fill="#E3BD73" stroke="#974D58" stroke-width="0.831915"/>
<rect x="1738.25" y="691.416" width="15.8064" height="39.516" fill="#E3BD73" stroke="#974D58" stroke-width="0.831915"/>
<rect x="40.5" y="684.5" width="1919" height="7" fill="#E3BD73" stroke="#974D58"/>
<rect x="40.5" y="730.5" width="1919" height="7" fill="#E3BD73" stroke="#974D58"/>
<rect x="565.5" y="121.5" width="897" height="457" fill="#7B6437" stroke="#6B5730" stroke-width="3"/>
<rect x="590.5" y="146.5" width="847" height="407" fill="#F4EFE4" stroke="#45381E" stroke-width="3"/>
<circle cx="744" cy="286" r="67" fill="#CBA3A3"/>
<ellipse cx="1293.18" cy="421.047" rx="100.43" ry="95.0166" transform="rotate(-2.9423 1293.18 421.047)" fill="#D7BB87"/>
<circle cx="1142.5" cy="218.5" r="51.5" fill="#A68080"/>
<circle cx="962.5" cy="485.5" r="51.5" fill="#A68080"/>
<ellipse cx="868.507" cy="442.692" rx="105.432" ry="104.83" transform="rotate(1.57704 868.507 442.692)" fill="#F3B947" fill-opacity="0.44"/>
<path d="M962.897 368L1165 508.327L1158.1 518.261L956 377.934L962.897 368Z" fill="#A0C18E" fill-opacity="0.49"/>
<path d="M935.321 168.085L750.482 330.479L742.5 321.394L927.339 159L935.321 168.085Z" fill="#A5C4D1"/>
<path d="M1310 302H1398V391H1310V302Z" fill="#6F98AA"/>
<path d="M1263.57 167L1388.33 253.824L1375.76 271.881L1251 185.058L1263.57 167Z" fill="#8C9C83"/>
<rect x="636" y="434" width="72" height="73" fill="#96B087"/>
<rect x="984" y="232" width="136" height="140" fill="#7F6A8B"/>
<mask id="path-140-inside-1_3_34" fill="white">
<path d="M278 847H330V1118H278V847Z"/>
</mask>
<path d="M278 847H330V1118H278V847Z" fill="#D3B06C"/>
<path d="M278 847V843H274V847H278ZM330 847H334V843H330V847ZM278 851H330V843H278V851ZM326 847V1118H334V847H326ZM282 1118V847H274V1118H282Z" fill="#685633" mask="url(#path-140-inside-1_3_34)"/>
<rect x="71.5" y="304.5" width="465" height="545" fill="#D3B06C" stroke="#685633" stroke-width="5"/>
<rect x="96.5" y="329.5" width="415" height="495" fill="#384D36" stroke="#685633" stroke-width="5"/>
<text fill="white" xml:space="preserve" style="white-space: pre" font-family="Another Typewriter" font-size="36" letter-spacing="0.02em" text-decoration="underline"><tspan x="134.193" y="380.738">Currently Waiting:</tspan></text>
<rect x="278" y="853" width="52" height="2" fill="#4D4026"/>
<rect x="278" y="852" width="52" height="2" fill="#453921"/>
<rect x="40" y="8" width="78.7578" height="26" rx="2" fill="#F7F7F7"/>
<rect x="40.5" y="8.5" width="77.7578" height="25" rx="1.5" stroke="black" stroke-opacity="0.14902"/>
<text fill="black" xml:space="preserve" style="white-space: pre" font-family="Inter" font-size="11" letter-spacing="0em"><tspan x="44" y="23.5">LobbyWaiting</tspan></text>
</svg>
