<svg width="400" height="771" viewBox="0 0 400 771" fill="none" xmlns="http://www.w3.org/2000/svg">
<mask id="path-1-inside-1_8_1157" fill="white">
<path d="M0 0.333374H400V770.333H0V0.333374Z"/>
</mask>
<path d="M0 0.333374H400V770.333H0V0.333374Z" fill="#420C14"/>
<path d="M0 0.333374V-1.66663H-2V0.333374H0ZM400 0.333374H402V-1.66663H400V0.333374ZM0 2.33337H400V-1.66663H0V2.33337ZM398 0.333374V770.333H402V0.333374H398ZM2 770.333V0.333374H-2V770.333H2Z" fill="black" mask="url(#path-1-inside-1_8_1157)"/>
<path d="M387.667 385.333C387.667 400.689 375.274 413.127 360 413.127C344.726 413.127 332.333 400.689 332.333 385.333C332.333 369.977 344.726 357.54 360 357.54C375.274 357.54 387.667 369.977 387.667 385.333Z" fill="#F5BC4D" stroke="black" stroke-width="3"/>
<rect x="67.6667" y="270.833" width="264.667" height="71.6522" fill="#89721E" stroke="black" stroke-width="2"/>
<path d="M155.465 321.922C156.009 321.922 156.539 322 157.056 322.155C157.574 322.31 158.091 322.388 158.609 322.388H158.686C158.738 322.362 158.855 322.323 159.036 322.271C159.243 322.22 159.372 322.181 159.424 322.155H168.389C168.674 322.155 168.932 322.064 169.165 321.883C169.424 321.676 169.631 321.43 169.786 321.146C169.967 320.861 170.109 320.564 170.213 320.253C170.316 319.917 170.368 319.632 170.368 319.399C170.368 319.192 170.355 319.024 170.329 318.895C170.329 318.74 170.265 318.533 170.135 318.274V311.443C170.135 310.952 169.993 310.525 169.708 310.163C169.45 309.8 169.087 309.619 168.622 309.619C168.078 309.619 167.677 309.813 167.419 310.201C167.186 310.564 167.018 311.029 166.914 311.599C166.837 312.168 166.785 312.789 166.759 313.461C166.759 314.134 166.707 314.781 166.604 315.402C166.526 315.997 166.371 316.527 166.138 316.993C165.931 317.433 165.569 317.718 165.051 317.847C164.922 317.847 164.702 317.86 164.391 317.886C164.107 317.886 163.796 317.899 163.46 317.925C163.124 317.925 162.8 317.938 162.49 317.963C162.179 317.989 161.972 318.002 161.869 318.002C161.584 318.028 161.338 318.119 161.131 318.274C160.924 318.403 160.692 318.468 160.433 318.468C160.303 318.468 160.226 318.468 160.2 318.468C160.174 318.442 160.135 318.416 160.084 318.39C160.058 318.364 160.006 318.339 159.928 318.313C159.877 318.261 159.76 318.196 159.579 318.119C159.501 318.093 159.359 318.067 159.152 318.041C158.945 318.015 158.738 317.989 158.531 317.963C158.324 317.938 158.143 317.912 157.988 317.886C157.833 317.834 157.755 317.769 157.755 317.692V302.633C157.781 302.582 157.807 302.465 157.833 302.284C157.884 302.077 157.91 301.948 157.91 301.896C157.91 301.767 157.923 301.547 157.949 301.236C157.975 300.926 157.988 300.589 157.988 300.227C158.014 299.865 158.027 299.529 158.027 299.218C158.053 298.908 158.065 298.688 158.065 298.558L158.221 298.403H162.645C163.111 298.403 163.473 298.248 163.732 297.937C164.016 297.601 164.159 297.213 164.159 296.773C164.159 296.307 164.042 295.932 163.809 295.648C163.602 295.363 163.331 295.143 162.994 294.988C162.658 294.833 162.283 294.729 161.869 294.677C161.481 294.626 161.106 294.6 160.743 294.6C160.303 294.6 159.89 294.626 159.501 294.677C159.113 294.729 158.712 294.755 158.298 294.755C157.91 294.755 157.535 294.729 157.173 294.677C156.811 294.626 156.422 294.6 156.009 294.6C155.595 294.6 155.194 294.626 154.805 294.677C154.417 294.729 154.016 294.755 153.602 294.755C153.085 294.755 152.567 294.703 152.05 294.6C151.532 294.496 151.015 294.445 150.497 294.445C149.851 294.445 149.281 294.613 148.79 294.949C148.298 295.285 148.052 295.803 148.052 296.501C148.052 296.941 148.195 297.381 148.479 297.821C148.79 298.261 149.204 298.481 149.721 298.481H153.835L154.262 299.024C154.288 299.024 154.301 299.192 154.301 299.529C154.301 299.839 154.301 300.085 154.301 300.266C154.301 300.525 154.301 300.952 154.301 301.547C154.301 302.116 154.236 302.582 154.107 302.944V314.626C154.236 314.936 154.301 315.26 154.301 315.596C154.301 315.932 154.301 316.243 154.301 316.527C154.301 316.631 154.288 316.825 154.262 317.11C154.262 317.394 154.262 317.588 154.262 317.692C154.133 317.899 153.952 318.08 153.719 318.235C153.486 318.39 153.253 318.468 153.02 318.468C152.58 318.468 152.153 318.39 151.739 318.235C151.325 318.054 150.899 317.963 150.459 317.963C149.786 317.963 149.243 318.132 148.829 318.468C148.415 318.804 148.208 319.322 148.208 320.02C148.208 320.693 148.441 321.236 148.906 321.65C149.398 322.038 149.98 322.233 150.653 322.233C151.481 322.233 152.283 322.181 153.059 322.077C153.861 321.974 154.663 321.922 155.465 321.922ZM171.986 312.569C171.986 313.138 172.063 313.824 172.219 314.626C172.4 315.428 172.646 316.23 172.956 317.032C173.267 317.834 173.629 318.584 174.043 319.283C174.483 319.982 174.961 320.499 175.479 320.835C175.505 320.861 175.608 320.926 175.789 321.029C175.996 321.107 176.203 321.211 176.41 321.34C176.643 321.443 176.863 321.56 177.07 321.689C177.303 321.793 177.484 321.87 177.613 321.922C177.769 321.974 178.027 322.026 178.389 322.077C178.752 322.129 178.997 322.168 179.127 322.194C179.411 322.271 179.631 322.349 179.787 322.427C179.942 322.53 180.084 322.621 180.214 322.698C180.369 322.776 180.55 322.841 180.757 322.892C180.964 322.944 181.261 322.97 181.65 322.97C182.426 322.97 183.202 322.763 183.978 322.349C184.78 321.935 185.518 321.418 186.19 320.797C186.863 320.15 187.445 319.438 187.937 318.662C188.454 317.886 188.816 317.148 189.023 316.45C189.049 316.295 189.114 316.01 189.217 315.596C189.321 315.182 189.424 314.755 189.528 314.315C189.657 313.85 189.761 313.423 189.838 313.035C189.942 312.621 190.02 312.336 190.071 312.181C190.071 312.129 190.071 312 190.071 311.793C190.097 311.56 190.11 311.405 190.11 311.327C190.11 310.654 190.02 310.007 189.838 309.386C189.683 308.74 189.463 308.119 189.179 307.524C188.92 306.903 188.622 306.307 188.286 305.738C187.976 305.143 187.665 304.548 187.355 303.953C187.329 303.953 187.303 303.94 187.277 303.914C187.251 303.862 187.225 303.824 187.199 303.798C186.294 303.022 185.388 302.401 184.483 301.935C183.577 301.443 182.503 301.197 181.261 301.197C179.631 301.197 178.221 301.521 177.031 302.168C175.867 302.789 174.91 303.63 174.159 304.69C173.409 305.751 172.853 306.967 172.49 308.339C172.154 309.71 171.986 311.12 171.986 312.569ZM175.323 312.608C175.323 311.883 175.349 311.198 175.401 310.551C175.479 309.904 175.621 309.296 175.828 308.727C176.061 308.132 176.358 307.575 176.721 307.058C177.109 306.54 177.613 306.062 178.234 305.622C178.389 305.518 178.622 305.376 178.933 305.195C179.243 304.988 179.411 304.884 179.437 304.884H181.882C182.141 305.04 182.452 305.182 182.814 305.311C183.202 305.441 183.564 305.596 183.9 305.777C184.263 305.932 184.586 306.126 184.871 306.359C185.181 306.566 185.401 306.838 185.531 307.174C185.815 307.925 186.035 308.649 186.19 309.348C186.371 310.02 186.462 310.758 186.462 311.56C186.462 312.931 186.281 314.147 185.919 315.208C185.556 316.243 184.819 317.213 183.706 318.119C183.241 318.3 182.814 318.403 182.426 318.429C182.063 318.429 181.624 318.429 181.106 318.429C180.925 318.429 180.653 318.429 180.291 318.429C179.955 318.429 179.774 318.416 179.748 318.39C179.618 318.39 179.463 318.377 179.282 318.352C179.101 318.326 178.92 318.3 178.739 318.274C178.584 318.248 178.428 318.222 178.273 318.196C178.144 318.145 178.079 318.119 178.079 318.119L176.255 316.295C176.1 316.139 175.957 315.906 175.828 315.596C175.725 315.26 175.634 314.91 175.556 314.548C175.479 314.186 175.414 313.824 175.362 313.461C175.336 313.099 175.323 312.815 175.323 312.608ZM191.712 324.173C191.712 325.363 191.997 326.308 192.566 327.006C193.161 327.731 193.989 328.274 195.05 328.636C195.257 328.688 195.425 328.778 195.554 328.908C195.71 329.063 195.891 329.18 196.098 329.257C197.184 329.645 198.245 329.891 199.28 329.995C200.315 330.098 201.415 330.15 202.579 330.15C203.614 330.15 204.662 330.033 205.723 329.8C206.809 329.593 207.793 329.231 208.672 328.714C209.552 328.222 210.263 327.549 210.807 326.696C211.35 325.868 211.622 324.833 211.622 323.591C211.622 323.099 211.557 322.659 211.428 322.271C211.298 321.883 211.117 321.534 210.884 321.223C210.652 320.887 210.38 320.577 210.069 320.292C209.759 320.007 209.41 319.697 209.021 319.361C208.84 319.205 208.711 319.089 208.633 319.011C208.556 318.934 208.491 318.869 208.439 318.817C208.388 318.765 208.31 318.714 208.206 318.662C208.129 318.61 208 318.546 207.818 318.468C207.379 318.313 206.861 318.235 206.266 318.235C205.697 318.235 205.244 318.209 204.908 318.157C204.856 318.157 204.714 318.132 204.481 318.08C204.274 318.028 204.041 317.976 203.782 317.925C203.523 317.873 203.278 317.821 203.045 317.769C202.838 317.718 202.708 317.692 202.657 317.692H201.298C200.393 317.692 199.513 317.821 198.659 318.08C197.805 318.339 196.926 318.468 196.02 318.468C195.891 318.468 195.761 318.416 195.632 318.313C195.503 318.209 195.412 318.106 195.36 318.002V317.459C195.36 317.045 195.438 316.683 195.593 316.372C195.774 316.036 196.111 315.868 196.602 315.868C197.016 315.868 197.404 315.932 197.767 316.062C198.129 316.165 198.478 316.282 198.814 316.411C199.177 316.54 199.539 316.67 199.901 316.799C200.263 316.903 200.651 316.954 201.065 316.954C201.376 316.954 201.622 316.941 201.803 316.916C202.01 316.864 202.191 316.799 202.346 316.721C202.527 316.644 202.708 316.566 202.89 316.489C203.071 316.385 203.291 316.282 203.549 316.178C204.222 315.919 204.791 315.57 205.257 315.13C205.749 314.665 206.15 314.147 206.46 313.578C206.771 312.983 206.99 312.349 207.12 311.676C207.275 311.003 207.353 310.318 207.353 309.619C207.353 308.972 207.262 308.364 207.081 307.795C206.9 307.2 206.809 306.579 206.809 305.932C206.965 305.932 207.107 306.062 207.236 306.32C207.391 306.579 207.573 306.877 207.78 307.213C207.987 307.524 208.258 307.808 208.595 308.067C208.931 308.326 209.384 308.455 209.953 308.455C210.755 308.455 211.311 308.17 211.622 307.601C211.932 307.006 212.087 306.346 212.087 305.622C212.087 305.053 211.945 304.535 211.661 304.069C211.402 303.604 211.053 303.216 210.613 302.905C210.199 302.569 209.72 302.323 209.177 302.168C208.633 301.987 208.103 301.896 207.586 301.896C206.576 301.896 205.684 302.258 204.908 302.983H204.17C203.808 302.983 203.459 302.931 203.122 302.828C202.786 302.698 202.45 302.569 202.113 302.439C201.803 302.31 201.479 302.194 201.143 302.09C200.807 301.961 200.47 301.896 200.134 301.896C200.056 301.896 199.94 301.922 199.785 301.974C199.629 302 199.474 302.038 199.319 302.09C199.164 302.142 199.009 302.194 198.853 302.245C198.724 302.297 198.62 302.336 198.543 302.362C197.068 303.009 195.904 303.94 195.05 305.156C194.222 306.372 193.808 307.795 193.808 309.425C193.808 310.02 193.886 310.59 194.041 311.133C194.222 311.676 194.312 312.245 194.312 312.84C194.312 312.892 194.312 312.97 194.312 313.073C194.312 313.177 194.3 313.254 194.274 313.306C193.653 313.901 193.135 314.535 192.721 315.208C192.333 315.855 192.139 316.618 192.139 317.498C192.139 317.782 192.191 318.067 192.294 318.352C192.398 318.61 192.501 318.869 192.605 319.128C192.734 319.386 192.851 319.645 192.954 319.904C193.058 320.163 193.109 320.421 193.109 320.68L193.071 320.874C192.631 321.366 192.294 321.857 192.062 322.349C191.829 322.841 191.712 323.449 191.712 324.173ZM195.05 324.367V323.707C195.05 323.06 195.257 322.569 195.671 322.233C196.111 321.87 196.628 321.599 197.223 321.418C197.844 321.236 198.491 321.133 199.164 321.107C199.836 321.055 200.419 321.029 200.91 321.029C201.272 321.029 201.868 321.055 202.695 321.107C203.549 321.159 204.403 321.288 205.257 321.495C206.137 321.676 206.9 321.948 207.547 322.31C208.219 322.672 208.556 323.164 208.556 323.785C208.556 324.173 208.426 324.509 208.168 324.794C207.909 325.079 207.598 325.324 207.236 325.531C206.874 325.738 206.486 325.907 206.072 326.036C205.684 326.165 205.347 326.269 205.063 326.346C204.313 326.398 203.498 326.437 202.618 326.463C201.764 326.489 200.923 326.502 200.095 326.502C199.086 326.502 198.155 326.333 197.301 325.997C196.473 325.661 195.723 325.117 195.05 324.367ZM196.563 309.58C196.563 309.011 196.68 308.481 196.913 307.989C197.146 307.498 197.456 307.071 197.844 306.709C198.232 306.346 198.672 306.062 199.164 305.855C199.681 305.648 200.212 305.544 200.755 305.544C201.945 305.544 202.838 305.945 203.433 306.747C204.028 307.524 204.325 308.494 204.325 309.658C204.325 310.227 204.235 310.771 204.054 311.288C203.873 311.806 203.614 312.258 203.278 312.646C202.941 313.035 202.527 313.345 202.036 313.578C201.57 313.811 201.04 313.927 200.444 313.927C199.901 313.927 199.384 313.798 198.892 313.539C198.426 313.28 198.012 312.957 197.65 312.569C197.314 312.155 197.042 311.689 196.835 311.172C196.654 310.654 196.563 310.124 196.563 309.58ZM213.675 320.525C213.675 320.965 213.804 321.34 214.063 321.65C214.347 321.961 214.723 322.116 215.188 322.116H228.423C228.862 322.116 229.173 321.935 229.354 321.573C229.561 321.211 229.664 320.848 229.664 320.486C229.664 320.305 229.626 320.085 229.548 319.826C229.496 319.568 229.393 319.322 229.238 319.089C229.108 318.856 228.94 318.662 228.733 318.507C228.552 318.326 228.345 318.235 228.112 318.235H223.998L223.765 318.002V303.565C223.765 303.022 223.52 302.608 223.028 302.323C222.562 302.038 222.109 301.896 221.67 301.896C221.359 301.896 221.049 301.922 220.738 301.974C220.454 302.025 220.156 302.051 219.846 302.051C219.406 302.051 218.966 302.025 218.526 301.974C218.112 301.922 217.685 301.896 217.245 301.896C216.961 301.896 216.637 301.922 216.275 301.974C215.939 302 215.615 302.077 215.305 302.207C215.02 302.31 214.774 302.478 214.567 302.711C214.36 302.944 214.257 303.267 214.257 303.681C214.257 303.888 214.283 304.121 214.335 304.38C214.412 304.613 214.516 304.833 214.645 305.04C214.774 305.247 214.93 305.428 215.111 305.583C215.318 305.712 215.551 305.777 215.809 305.777H220.35V314.354C220.324 314.406 220.298 314.535 220.272 314.742C220.247 314.949 220.221 315.079 220.195 315.13C220.195 315.234 220.182 315.415 220.156 315.674C220.156 315.932 220.143 316.204 220.117 316.489C220.091 316.773 220.065 317.045 220.04 317.304C220.04 317.562 220.04 317.743 220.04 317.847L219.768 318.235H215.499C214.878 318.235 214.412 318.494 214.102 319.011C213.817 319.503 213.675 320.007 213.675 320.525ZM218.836 297.122C218.836 297.976 219.056 298.714 219.496 299.335C219.962 299.956 220.635 300.266 221.514 300.266C222.239 300.266 222.886 300.046 223.455 299.606C224.024 299.141 224.309 298.52 224.309 297.743C224.309 297.355 224.231 296.967 224.076 296.579C223.946 296.191 223.752 295.842 223.494 295.531C223.261 295.195 222.963 294.936 222.601 294.755C222.265 294.548 221.89 294.445 221.476 294.445C220.699 294.445 220.065 294.703 219.574 295.221C219.082 295.738 218.836 296.372 218.836 297.122ZM231.241 320.176C231.241 320.745 231.344 321.159 231.551 321.418C231.758 321.676 232.03 321.857 232.366 321.961C232.729 322.064 233.13 322.129 233.569 322.155C234.009 322.155 234.449 322.181 234.889 322.233C234.941 322.233 235.07 322.258 235.277 322.31C235.484 322.362 235.613 322.388 235.665 322.388H237.256H238.848C239.365 322.336 239.818 322.181 240.206 321.922C240.62 321.637 240.827 321.223 240.827 320.68C240.827 320.007 240.685 319.542 240.4 319.283C240.141 319.024 239.818 318.843 239.43 318.74C239.068 318.636 238.705 318.571 238.343 318.546C238.007 318.494 237.761 318.352 237.606 318.119V317.537C237.606 317.252 237.606 317.019 237.606 316.838C237.632 316.657 237.709 316.437 237.839 316.178V311.754C237.839 311.754 237.903 311.637 238.033 311.405C238.188 311.172 238.304 310.991 238.382 310.861C238.408 310.809 238.46 310.732 238.537 310.628C238.615 310.499 238.666 310.421 238.692 310.395C238.977 309.904 239.3 309.386 239.663 308.843C240.051 308.274 240.478 307.756 240.943 307.291C241.409 306.825 241.914 306.437 242.457 306.126C243.026 305.816 243.634 305.661 244.281 305.661C244.669 305.661 245.044 305.699 245.406 305.777C245.769 305.829 246.066 306.049 246.299 306.437C246.299 306.514 246.299 306.657 246.299 306.864C246.325 307.071 246.338 307.291 246.338 307.524C246.364 307.731 246.377 307.937 246.377 308.144C246.403 308.351 246.416 308.494 246.416 308.571C246.441 308.623 246.467 308.778 246.493 309.037C246.545 309.27 246.571 309.412 246.571 309.464V309.542V309.619C246.571 309.697 246.532 309.852 246.454 310.085C246.403 310.318 246.364 310.473 246.338 310.551V316.45L245.989 317.963L245.833 318.119C245.005 318.17 244.307 318.339 243.738 318.623C243.194 318.882 242.923 319.503 242.923 320.486C242.923 321.314 243.337 321.844 244.165 322.077C244.372 322.077 244.734 322.09 245.251 322.116C245.769 322.142 246.312 322.168 246.881 322.194C247.476 322.194 248.033 322.207 248.55 322.233C249.068 322.233 249.43 322.233 249.637 322.233H250.219C250.84 322.233 251.344 322.129 251.733 321.922C252.147 321.689 252.353 321.236 252.353 320.564C252.353 319.736 252.069 319.154 251.5 318.817C250.956 318.481 250.335 318.248 249.637 318.119L249.482 317.963C249.482 317.963 249.469 317.899 249.443 317.769C249.443 317.614 249.443 317.498 249.443 317.42C249.443 317.135 249.443 316.877 249.443 316.644C249.469 316.411 249.533 316.152 249.637 315.868V306.282C249.637 305.687 249.494 305.104 249.21 304.535C248.925 303.966 248.55 303.461 248.084 303.022C247.645 302.582 247.127 302.232 246.532 301.974C245.963 301.689 245.394 301.547 244.824 301.547C243.893 301.547 243.013 301.806 242.185 302.323C241.383 302.815 240.62 303.319 239.895 303.837C239.74 303.94 239.585 304.095 239.43 304.302C239.275 304.509 239.119 304.716 238.964 304.923C238.809 305.13 238.654 305.311 238.498 305.467C238.369 305.622 238.227 305.699 238.071 305.699C238.071 305.699 238.046 305.699 237.994 305.699C237.968 305.699 237.942 305.687 237.916 305.661C237.864 304.988 237.787 304.432 237.683 303.992C237.58 303.552 237.399 303.203 237.14 302.944C236.881 302.659 236.519 302.439 236.053 302.284C235.613 302.129 235.018 302 234.268 301.896C234.268 301.87 234.177 301.857 233.996 301.857C233.841 301.857 233.725 301.857 233.647 301.857C233.078 301.857 232.547 301.987 232.056 302.245C231.59 302.478 231.357 302.931 231.357 303.604C231.357 304.225 231.513 304.69 231.823 305.001C232.159 305.285 232.509 305.505 232.871 305.661C233.259 305.816 233.608 305.945 233.919 306.049C234.255 306.126 234.423 306.256 234.423 306.437V315.402C234.346 315.79 234.281 316.23 234.229 316.721C234.203 317.187 234.165 317.601 234.113 317.963L233.958 318.119C233.181 318.17 232.535 318.313 232.017 318.546C231.5 318.753 231.241 319.296 231.241 320.176Z" fill="white"/>
<path d="M283.5 140.524C283.5 187.081 245.923 224.812 199.583 224.812C153.244 224.812 115.667 187.081 115.667 140.524C115.667 93.9665 153.244 56.2356 199.583 56.2356C245.923 56.2356 283.5 93.9665 283.5 140.524Z" fill="white" stroke="black" stroke-width="3"/>
<line x1="198.455" y1="54.7356" x2="198.455" y2="224.819" stroke="black" stroke-width="3"/>
<path d="M115.81 143.525H283.352" stroke="black" stroke-width="3"/>
</svg>
