<svg width="1920" height="1080" viewBox="0 0 1920 1080" fill="none" xmlns="http://www.w3.org/2000/svg">
<path d="M0 0H1920V1080H0V0Z" fill="#EBCD94"/>
<rect x="34" y="27.1294" width="1849.15" height="1031.17" transform="rotate(-0.158935 34 27.1294)" fill="#7B5E27"/>
<rect x="338.729" y="884.386" width="118.191" height="18.8317" transform="rotate(-132.651 338.729 884.386)" fill="#F5BC4D" stroke="black" stroke-width="0.8"/>
<rect x="340.465" y="860.31" width="13.0981" height="32.3556" transform="rotate(-132.651 340.465 860.31)" fill="#F5BC4D" stroke="black" stroke-width="0.8"/>
<rect x="317.537" y="835.6" width="10.8621" height="18.8317" transform="rotate(-132.651 317.537 835.6)" fill="#F5BC4D" stroke="black" stroke-width="0.8"/>
<rect x="246.396" y="814.718" width="63.4087" height="60.5302" transform="rotate(-132.651 246.396 814.718)" fill="#F5BC4D" stroke="black" stroke-width="0.8"/>
<rect x="259.654" y="797.077" width="16.8409" height="20.6557" transform="rotate(-42.651 259.654 797.077)" fill="#F5BC4D"/>
<rect x="303.584" y="835.085" width="16.8409" height="8.83067" transform="rotate(-42.651 303.584 835.085)" fill="#F5BC4D"/>
<rect x="322.973" y="859.966" width="16.8409" height="11.1194" transform="rotate(-42.651 322.973 859.966)" fill="#F5BC4D"/>
<rect x="245.88" y="790.871" width="28.7503" height="28.9746" transform="rotate(-132.651 245.88 790.871)" fill="#7B5E27" stroke="black" stroke-width="0.8"/>
<rect x="821.798" y="318.246" width="118.191" height="18.8317" transform="rotate(-51.036 821.798 318.246)" fill="#F5BC4D" stroke="black" stroke-width="0.8"/>
<rect x="845.87" y="316.452" width="13.0981" height="32.3556" transform="rotate(-51.036 845.87 316.452)" fill="#F5BC4D" stroke="black" stroke-width="0.8"/>
<rect x="866.972" y="290.166" width="10.8621" height="18.8317" transform="rotate(-51.036 866.972 290.166)" fill="#F5BC4D" stroke="black" stroke-width="0.8"/>
<rect x="877.257" y="216.74" width="63.4087" height="60.5302" transform="rotate(-51.036 877.257 216.74)" fill="#F5BC4D" stroke="black" stroke-width="0.8"/>
<rect x="896.643" y="227.284" width="16.8409" height="20.6557" transform="rotate(38.964 896.643 227.284)" fill="#F5BC4D"/>
<rect x="865.447" y="276.288" width="16.8409" height="8.83067" transform="rotate(38.964 865.447 276.288)" fill="#F5BC4D"/>
<rect x="843.659" y="299.097" width="16.8409" height="11.1194" transform="rotate(38.964 843.659 299.097)" fill="#F5BC4D"/>
<rect x="900.773" y="212.753" width="28.7503" height="28.9746" transform="rotate(-51.036 900.773 212.753)" fill="#7B5E27" stroke="black" stroke-width="0.8"/>
<rect x="1658.77" y="850.217" width="118.191" height="18.8317" transform="rotate(18.5991 1658.77 850.217)" fill="#F5BC4D" stroke="black" stroke-width="0.8"/>
<rect x="1668.83" y="872.16" width="13.0981" height="32.3556" transform="rotate(18.5991 1668.83 872.16)" fill="#F5BC4D" stroke="black" stroke-width="0.8"/>
<rect x="1700.81" y="882.796" width="10.8621" height="18.8317" transform="rotate(18.5991 1700.81 882.796)" fill="#F5BC4D" stroke="black" stroke-width="0.8"/>
<rect x="1773.23" y="866.886" width="63.4087" height="60.5302" transform="rotate(18.5991 1773.23 866.886)" fill="#F5BC4D" stroke="black" stroke-width="0.8"/>
<rect x="1770.09" y="888.729" width="16.8409" height="20.6557" transform="rotate(108.599 1770.09 888.729)" fill="#F5BC4D"/>
<rect x="1713.29" y="876.536" width="16.8409" height="8.83067" transform="rotate(108.599 1713.29 876.536)" fill="#F5BC4D"/>
<rect x="1684.33" y="864.048" width="16.8409" height="11.1194" transform="rotate(108.599 1684.33 864.048)" fill="#F5BC4D"/>
<rect x="1785.15" y="887.545" width="28.7503" height="28.9746" transform="rotate(18.5991 1785.15 887.545)" fill="#7B5E27" stroke="black" stroke-width="0.8"/>
<mask id="path-27-inside-1_121_764" fill="white">
<path fill-rule="evenodd" clip-rule="evenodd" d="M601.137 733.794L590.772 727.363L480.872 916.574C479.705 917.055 478.863 917.751 478.401 918.671C475.442 924.564 489.163 937.435 509.047 947.418C528.931 957.401 547.449 960.717 550.408 954.823C550.666 954.308 550.798 953.741 550.809 953.126L635.706 750.58L612.489 740.719L601.137 733.794Z"/>
</mask>
<path fill-rule="evenodd" clip-rule="evenodd" d="M601.137 733.794L590.772 727.363L480.872 916.574C479.705 917.055 478.863 917.751 478.401 918.671C475.442 924.564 489.163 937.435 509.047 947.418C528.931 957.401 547.449 960.717 550.408 954.823C550.666 954.308 550.798 953.741 550.809 953.126L635.706 750.58L612.489 740.719L601.137 733.794Z" fill="#323232"/>
<path d="M590.772 727.363L591.299 726.513L590.424 725.97L589.907 726.86L590.772 727.363ZM601.137 733.794L600.609 734.644L600.616 734.648L601.137 733.794ZM480.872 916.574L481.253 917.498L481.567 917.369L481.737 917.076L480.872 916.574ZM478.401 918.671L479.295 919.12H479.295L478.401 918.671ZM509.047 947.418L509.496 946.524L509.047 947.418ZM550.408 954.823L551.302 955.272H551.302L550.408 954.823ZM550.809 953.126L549.886 952.739L549.812 952.916L549.809 953.108L550.809 953.126ZM635.706 750.58L636.628 750.966L637.013 750.048L636.097 749.659L635.706 750.58ZM612.489 740.719L611.968 741.573L612.03 741.611L612.098 741.64L612.489 740.719ZM590.244 728.212L600.609 734.644L601.664 732.944L591.299 726.513L590.244 728.212ZM481.737 917.076L591.636 727.865L589.907 726.86L480.008 916.072L481.737 917.076ZM479.295 919.12C479.621 918.471 480.242 917.915 481.253 917.498L480.491 915.649C479.168 916.194 478.106 917.03 477.508 918.222L479.295 919.12ZM509.496 946.524C499.615 941.564 491.3 935.901 485.842 930.782C483.108 928.217 481.135 925.829 480.026 923.771C478.9 921.683 478.775 920.155 479.295 919.12L477.508 918.222C476.548 920.134 477.028 922.425 478.265 924.72C479.518 927.044 481.662 929.603 484.474 932.24C490.108 937.525 498.595 943.29 508.598 948.312L509.496 946.524ZM549.514 954.374C548.995 955.41 547.695 956.222 545.348 956.567C543.035 956.907 539.94 956.751 536.251 956.09C528.884 954.771 519.377 951.485 509.496 946.524L508.598 948.312C518.602 953.334 528.295 956.697 535.898 958.059C539.693 958.738 543.026 958.93 545.639 958.546C548.217 958.167 550.342 957.183 551.302 955.272L549.514 954.374ZM549.809 953.108C549.8 953.588 549.699 954.007 549.514 954.374L551.302 955.272C551.634 954.61 551.795 953.893 551.808 953.144L549.809 953.108ZM634.783 750.193L549.886 952.739L551.731 953.512L636.628 750.966L634.783 750.193ZM612.098 741.64L635.315 751.5L636.097 749.659L612.879 739.799L612.098 741.64ZM600.616 734.648L611.968 741.573L613.009 739.866L601.658 732.94L600.616 734.648Z" fill="black" mask="url(#path-27-inside-1_121_764)"/>
<path d="M786.544 649C786.544 713.87 731.275 766.5 663.044 766.5C594.813 766.5 539.544 713.87 539.544 649C539.544 584.13 594.813 531.5 663.044 531.5C731.275 531.5 786.544 584.13 786.544 649Z" fill="#323232" stroke="black"/>
<path d="M761.544 649C761.544 700.612 717.247 742.5 662.544 742.5C607.841 742.5 563.544 700.612 563.544 649C563.544 597.388 607.841 555.5 662.544 555.5C717.247 555.5 761.544 597.388 761.544 649Z" fill="#CCCCCC" stroke="black"/>
<ellipse cx="690.544" cy="649" rx="54.5" ry="65" fill="#EDEDED"/>
<ellipse cx="669.544" cy="657" rx="62.5" ry="73" fill="#CCCCCC"/>
</svg>
