<svg width="225" height="50" viewBox="0 0 225 50" fill="none" xmlns="http://www.w3.org/2000/svg">
<mask id="path-1-inside-1_132_1036" fill="white">
<path fill-rule="evenodd" clip-rule="evenodd" d="M15.0254 0H209.973V9.48278L210 9.48276C218.285 9.48276 225 16.2371 225 24.569C225 32.9008 218.285 39.6552 210 39.6552L209.973 39.6551V50H15.0254V40.5172C15.0169 40.5172 15.0085 40.5172 15 40.5172C6.71573 40.5172 0 33.7629 0 25.431C0 17.0992 6.71573 10.3448 15 10.3448C15.0085 10.3448 15.0169 10.3448 15.0254 10.3448V0Z"/>
</mask>
<path fill-rule="evenodd" clip-rule="evenodd" d="M15.0254 0H209.973V9.48278L210 9.48276C218.285 9.48276 225 16.2371 225 24.569C225 32.9008 218.285 39.6552 210 39.6552L209.973 39.6551V50H15.0254V40.5172C15.0169 40.5172 15.0085 40.5172 15 40.5172C6.71573 40.5172 0 33.7629 0 25.431C0 17.0992 6.71573 10.3448 15 10.3448C15.0085 10.3448 15.0169 10.3448 15.0254 10.3448V0Z" fill="#A5803E"/>
<path d="M209.973 0H210.973V-1H209.973V0ZM15.0254 0V-1H14.0254V0H15.0254ZM209.973 9.48278H208.973V10.4837L209.974 10.4828L209.973 9.48278ZM210 9.48276L210 8.48276L209.999 8.48276L210 9.48276ZM210 39.6552L209.999 40.6552H210V39.6552ZM209.973 39.6551L209.974 38.6551L208.973 38.6543V39.6551H209.973ZM209.973 50V51H210.973V50H209.973ZM15.0254 50H14.0254V51H15.0254V50ZM15.0254 40.5172H16.0254V39.5154L15.0236 39.5172L15.0254 40.5172ZM15.0254 10.3448L15.0237 11.3448L16.0254 11.3465V10.3448H15.0254ZM209.973 -1H15.0254V1H209.973V-1ZM210.973 9.48278V0H208.973V9.48278H210.973ZM209.999 8.48276L209.972 8.48278L209.974 10.4828L210.001 10.4828L209.999 8.48276ZM226 24.569C226 15.6902 218.842 8.48276 210 8.48276V10.4828C217.727 10.4828 224 16.784 224 24.569H226ZM210 40.6552C218.842 40.6552 226 33.4477 226 24.569H224C224 32.354 217.727 38.6552 210 38.6552V40.6552ZM209.972 40.6551L209.999 40.6552L210.001 38.6552L209.974 38.6551L209.972 40.6551ZM210.973 50V39.6551H208.973V50H210.973ZM15.0254 51H209.973V49H15.0254V51ZM14.0254 40.5172V50H16.0254V40.5172H14.0254ZM15.0236 39.5172C15.0157 39.5172 15.0079 39.5172 15 39.5172V41.5172C15.0091 41.5172 15.0181 41.5172 15.0272 41.5172L15.0236 39.5172ZM15 39.5172C7.27341 39.5172 1 33.216 1 25.431H-1C-1 34.3098 6.15805 41.5172 15 41.5172V39.5172ZM1 25.431C1 17.646 7.27341 11.3448 15 11.3448V9.34483C6.15805 9.34483 -1 16.5523 -1 25.431H1ZM15 11.3448C15.0079 11.3448 15.0158 11.3448 15.0237 11.3448L15.0271 9.34485C15.018 9.34483 15.009 9.34483 15 9.34483V11.3448ZM14.0254 0V10.3448H16.0254V0H14.0254Z" fill="black" mask="url(#path-1-inside-1_132_1036)"/>
<path d="M213.5 25.4311C213.5 27.2303 211.782 28.8104 209.5 28.8104C207.219 28.8104 205.5 27.2303 205.5 25.4311C205.5 23.6318 207.219 22.0518 209.5 22.0518C211.782 22.0518 213.5 23.6318 213.5 25.4311Z" fill="#D0C4AD"/>
<path d="M213.5 25.4311C213.5 27.2303 211.782 28.8104 209.5 28.8104C207.219 28.8104 205.5 27.2303 205.5 25.4311C205.5 23.6318 207.219 22.0518 209.5 22.0518C211.782 22.0518 213.5 23.6318 213.5 25.4311Z" fill="#D0C4AD"/>
<path d="M213.5 25.4311C213.5 27.2303 211.782 28.8104 209.5 28.8104C207.219 28.8104 205.5 27.2303 205.5 25.4311C205.5 23.6318 207.219 22.0518 209.5 22.0518C211.782 22.0518 213.5 23.6318 213.5 25.4311Z" stroke="black"/>
<path d="M18.5003 25.4311C18.5003 27.2303 16.7816 28.8104 14.5003 28.8104C12.2189 28.8104 10.5003 27.2303 10.5003 25.4311C10.5003 23.6318 12.2189 22.0518 14.5003 22.0518C16.7816 22.0518 18.5003 23.6318 18.5003 25.4311Z" fill="#D0C4AD"/>
<path d="M18.5003 25.4311C18.5003 27.2303 16.7816 28.8104 14.5003 28.8104C12.2189 28.8104 10.5003 27.2303 10.5003 25.4311C10.5003 23.6318 12.2189 22.0518 14.5003 22.0518C16.7816 22.0518 18.5003 23.6318 18.5003 25.4311Z" fill="#D0C4AD"/>
<path d="M18.5003 25.4311C18.5003 27.2303 16.7816 28.8104 14.5003 28.8104C12.2189 28.8104 10.5003 27.2303 10.5003 25.4311C10.5003 23.6318 12.2189 22.0518 14.5003 22.0518C16.7816 22.0518 18.5003 23.6318 18.5003 25.4311Z" stroke="black"/>
</svg>
