<svg width="1920" height="1080" viewBox="0 0 1920 1080" fill="none" xmlns="http://www.w3.org/2000/svg">
<rect width="1920" height="1080" fill="#322E28"/>
<mask id="mask0_132_1350" style="mask-type:alpha" maskUnits="userSpaceOnUse" x="0" y="0" width="1920" height="1080">
<rect width="1920" height="1080" fill="#D9D9D9"/>
</mask>
<g mask="url(#mask0_132_1350)">
<mask id="path-3-inside-1_132_1350" fill="white">
<path fill-rule="evenodd" clip-rule="evenodd" d="M169.53 1080.36H-39.9992V673.185L-39.9998 673.185V0.355347H329.406C340.855 47.7576 347 97.954 347 149.911C347 379.995 226.484 575.558 58.6471 646.828C123.803 764.556 164.748 915.191 169.53 1080.36Z"/>
</mask>
<path fill-rule="evenodd" clip-rule="evenodd" d="M169.53 1080.36H-39.9992V673.185L-39.9998 673.185V0.355347H329.406C340.855 47.7576 347 97.954 347 149.911C347 379.995 226.484 575.558 58.6471 646.828C123.803 764.556 164.748 915.191 169.53 1080.36Z" fill="#702626"/>
<path d="M169.53 1080.36V1082.36H171.589L171.529 1080.3L169.53 1080.36ZM-39.9994 1080.36H-41.9994V1082.36H-39.9994V1080.36ZM-39.9994 673.185H-37.9994V670.963L-40.2088 671.196L-39.9994 673.185ZM-40 673.185H-42V675.407L-39.7906 675.174L-40 673.185ZM-40 0.355347V-1.64465H-42V0.355347H-40ZM329.406 0.355347L331.35 -0.114173L330.981 -1.64465H329.406V0.355347ZM58.6469 646.828L57.8652 644.987L55.8223 645.855L56.8971 647.797L58.6469 646.828ZM169.53 1078.36H-39.9994V1082.36H169.53V1078.36ZM-37.9994 1080.36V673.185H-41.9994V1080.36H-37.9994ZM-40.2088 671.196L-40.2094 671.196L-39.7906 675.174L-39.7901 675.174L-40.2088 671.196ZM-38 673.185V0.355347H-42V673.185H-38ZM-40 2.35535H329.406V-1.64465H-40V2.35535ZM327.462 0.824866C338.873 48.0729 345 98.1117 345 149.911H349C349 97.7964 342.836 47.4424 331.35 -0.114173L327.462 0.824866ZM345 149.911C345 379.363 224.818 574.092 57.8652 644.987L59.4287 648.669C228.149 577.024 349 380.628 349 149.911H345ZM56.8971 647.797C121.882 765.215 162.757 915.532 167.531 1080.41L171.529 1080.3C166.739 914.851 125.724 763.897 60.3968 645.86L56.8971 647.797Z" fill="black" mask="url(#path-3-inside-1_132_1350)"/>
<path d="M215.157 96.9306C152.772 67.4304 49.9295 154.051 -20.8729 303.78C-91.6753 453.51 -98.4984 598.804 -36.1128 628.304C49.4492 642.225 131.518 585.589 202.32 435.86C273.122 286.13 277.543 126.431 215.157 96.9306Z" fill="#611B1B"/>
<path d="M199.547 56.5345C131.616 24.412 16.2068 125.976 -58.2265 283.384C-132.66 440.792 -137.931 594.436 -70 626.559C-2.06896 658.681 113.34 557.117 187.773 399.71C262.207 242.302 267.478 88.657 199.547 56.5345Z" fill="#702626"/>
<path d="M98.1392 52C33.962 31.4798 -57.2781 137.488 -110.397 303.618C-163.516 469.748 -154.551 621.058 -90.3739 641.578C-5.2107 642.284 68.9431 570.599 122.062 404.469C175.181 238.339 162.316 72.5202 98.1392 52Z" fill="#611B1B"/>
<path d="M80.5308 6.45746C10.6489 -15.8868 -91.7203 108.986 -148.117 285.368C-204.514 461.75 -193.582 622.85 -123.7 645.194C-53.8184 667.538 48.5507 542.666 104.948 366.283C161.345 189.901 150.413 28.8017 80.5308 6.45746Z" fill="#702626"/>
<path d="M-42.6943 648.25C-111.349 655.23 -157.719 752.226 -145.14 875.95C-132.561 999.673 -66.7083 1094.31 1.94669 1087.33C82.9985 1060.99 126.17 991.476 113.591 867.752C101.012 744.028 25.9607 641.27 -42.6943 648.25Z" fill="#611B1B"/>
<path d="M-64.4823 661.938C-138.776 673.306 -183.188 787.942 -163.679 917.985C-144.171 1048.03 -68.1296 1144.23 6.16367 1132.86C80.457 1121.5 124.869 1006.86 105.361 876.819C85.8523 746.776 9.811 650.571 -64.4823 661.938Z" fill="#702626"/>
<path d="M-87.5078 624.247C-151.099 630.713 -191.75 743.163 -176.986 888.387C-162.221 1033.61 -98.7007 1146.1 -35.1094 1139.63C39.5134 1110.79 77.8785 1030.45 63.1138 885.23C48.3491 740.006 -23.9165 617.782 -87.5078 624.247Z" fill="#611B1B"/>
<path d="M-107.402 639.737C-176.12 651.201 -214.514 784.361 -193.156 937.158C-171.798 1089.96 -98.776 1204.53 -30.0572 1193.06C38.6616 1181.6 77.055 1048.44 55.6969 895.644C34.3389 742.847 -38.6828 628.273 -107.402 639.737Z" fill="#702626"/>
<mask id="path-13-inside-2_132_1350" fill="white">
<path fill-rule="evenodd" clip-rule="evenodd" d="M-40 657.653V638.058C-27.3627 635.763 -10.2898 634.355 8.5 634.355C47.4361 634.355 79 640.4 79 647.855C79 655.311 47.4361 661.355 8.5 661.355C-10.2898 661.355 -27.3627 659.948 -40 657.653Z"/>
</mask>
<path fill-rule="evenodd" clip-rule="evenodd" d="M-40 657.653V638.058C-27.3627 635.763 -10.2898 634.355 8.5 634.355C47.4361 634.355 79 640.4 79 647.855C79 655.311 47.4361 661.355 8.5 661.355C-10.2898 661.355 -27.3627 659.948 -40 657.653Z" fill="#B8B3B3"/>
<path d="M-40 657.653H-42V659.323L-40.3573 659.621L-40 657.653ZM-40 638.058L-40.3573 636.09L-42 636.388V638.058H-40ZM-38 657.653V638.058H-42V657.653H-38ZM-39.6427 640.025C-27.1529 637.758 -10.2044 636.355 8.5 636.355V632.355C-10.3752 632.355 -27.5725 633.768 -40.3573 636.09L-39.6427 640.025ZM8.5 636.355C27.8814 636.355 45.3745 637.861 57.9749 640.274C64.2915 641.483 69.2767 642.902 72.6349 644.423C74.3203 645.186 75.4862 645.926 76.2011 646.595C76.9173 647.265 77 647.684 77 647.855H81C81 646.163 80.0963 644.762 78.9342 643.674C77.771 642.586 76.1667 641.631 74.2846 640.779C70.5078 639.069 65.1685 637.579 58.7272 636.345C45.8116 633.872 28.0547 632.355 8.5 632.355V636.355ZM77 647.855C77 648.027 76.9173 648.446 76.2011 649.116C75.4862 649.785 74.3203 650.525 72.6349 651.288C69.2767 652.809 64.2915 654.228 57.9749 655.437C45.3745 657.85 27.8814 659.355 8.5 659.355V663.355C28.0547 663.355 45.8116 661.839 58.7272 659.366C65.1685 658.132 70.5078 656.642 74.2846 654.932C76.1667 654.08 77.771 653.125 78.9342 652.037C80.0963 650.949 81 649.548 81 647.855H77ZM8.5 659.355C-10.2044 659.355 -27.1529 657.953 -39.6427 655.686L-40.3573 659.621C-27.5725 661.942 -10.3752 663.355 8.5 663.355V659.355Z" fill="black" mask="url(#path-13-inside-2_132_1350)"/>
<mask id="path-15-inside-3_132_1350" fill="white">
<path fill-rule="evenodd" clip-rule="evenodd" d="M1749.87 1080.36H1959.4V673.185L1959.4 673.185V0.355225H1590C1578.55 47.7575 1572.4 97.9539 1572.4 149.911C1572.4 379.995 1692.92 575.558 1860.76 646.828C1795.6 764.556 1754.66 915.191 1749.87 1080.36Z"/>
</mask>
<path fill-rule="evenodd" clip-rule="evenodd" d="M1749.87 1080.36H1959.4V673.185L1959.4 673.185V0.355225H1590C1578.55 47.7575 1572.4 97.9539 1572.4 149.911C1572.4 379.995 1692.92 575.558 1860.76 646.828C1795.6 764.556 1754.66 915.191 1749.87 1080.36Z" fill="#702626"/>
<path d="M1749.87 1080.36V1082.36H1747.82L1747.88 1080.3L1749.87 1080.36ZM1959.4 1080.36H1961.4V1082.36H1959.4V1080.36ZM1959.4 673.185H1957.4V670.963L1959.61 671.196L1959.4 673.185ZM1959.4 673.185H1961.4V675.407L1959.19 675.174L1959.4 673.185ZM1959.4 0.355225V-1.64478H1961.4V0.355225H1959.4ZM1590 0.355225L1588.05 -0.114295L1588.42 -1.64478H1590V0.355225ZM1860.76 646.828L1861.54 644.987L1863.58 645.855L1862.51 647.796L1860.76 646.828ZM1749.87 1078.36H1959.4V1082.36H1749.87V1078.36ZM1957.4 1080.36V673.185H1961.4V1080.36H1957.4ZM1959.61 671.196L1959.61 671.196L1959.19 675.174L1959.19 675.174L1959.61 671.196ZM1957.4 673.185V0.355225H1961.4V673.185H1957.4ZM1959.4 2.35522H1590V-1.64478H1959.4V2.35522ZM1591.94 0.824744C1580.53 48.0728 1574.4 98.1115 1574.4 149.911H1570.4C1570.4 97.7963 1576.57 47.4423 1588.05 -0.114295L1591.94 0.824744ZM1574.4 149.911C1574.4 379.363 1694.59 574.092 1861.54 644.987L1859.98 648.669C1691.26 577.023 1570.4 380.627 1570.4 149.911H1574.4ZM1862.51 647.796C1797.52 765.215 1756.65 915.532 1751.87 1080.41L1747.88 1080.3C1752.67 914.851 1793.68 763.897 1859.01 645.859L1862.51 647.796Z" fill="black" mask="url(#path-15-inside-3_132_1350)"/>
<path d="M1704.25 96.9306C1766.63 67.4304 1869.47 154.051 1940.28 303.78C2011.08 453.51 2017.9 598.804 1955.52 628.304C1869.96 642.225 1787.89 585.589 1717.08 435.86C1646.28 286.13 1641.86 126.431 1704.25 96.9306Z" fill="#611B1B"/>
<path d="M1719.86 56.5345C1787.79 24.412 1903.2 125.976 1977.63 283.384C2052.06 440.792 2057.34 594.436 1989.4 626.559C1921.47 658.681 1806.06 557.117 1731.63 399.71C1657.2 242.302 1651.93 88.657 1719.86 56.5345Z" fill="#702626"/>
<path d="M1821.01 54.4867C1884.7 34.124 1975.4 139.815 2028.32 305.343C2081.25 470.872 2072.53 621.566 2008.84 641.929C1924.3 642.532 1850.61 571.047 1797.68 405.519C1744.75 239.99 1757.33 74.8494 1821.01 54.4867Z" fill="#611B1B"/>
<path d="M1838.44 9.14712C1907.78 -13.0256 2009.55 111.468 2065.75 287.211C2121.94 462.954 2111.28 623.397 2041.93 645.57C1972.58 667.742 1870.82 543.249 1814.62 367.506C1758.43 191.763 1769.09 31.3199 1838.44 9.14712Z" fill="#702626"/>
<path d="M1962.1 648.25C2030.75 655.23 2077.12 752.226 2064.54 875.95C2051.97 999.673 1986.11 1094.31 1917.46 1087.33C1836.41 1060.99 1793.23 991.476 1805.81 867.752C1818.39 744.028 1893.44 641.27 1962.1 648.25Z" fill="#611B1B"/>
<path d="M1983.89 661.938C2058.18 673.306 2102.59 787.942 2083.08 917.985C2063.58 1048.03 1987.53 1144.23 1913.24 1132.86C1838.95 1121.5 1794.54 1006.86 1814.04 876.819C1833.55 746.776 1909.59 650.571 1983.89 661.938Z" fill="#702626"/>
<path d="M2006.91 624.247C2070.5 630.713 2111.15 743.163 2096.39 888.387C2081.63 1033.61 2018.11 1146.1 1954.51 1139.63C1879.89 1110.79 1841.53 1030.45 1856.29 885.23C1871.06 740.006 1943.32 617.782 2006.91 624.247Z" fill="#611B1B"/>
<path d="M2026.81 639.737C2095.52 651.201 2133.92 784.361 2112.56 937.158C2091.2 1089.96 2018.18 1204.53 1949.46 1193.06C1880.74 1181.6 1842.35 1048.44 1863.71 895.644C1885.07 742.847 1958.09 628.273 2026.81 639.737Z" fill="#702626"/>
<mask id="path-25-inside-4_132_1350" fill="white">
<path fill-rule="evenodd" clip-rule="evenodd" d="M1959.4 657.653V638.057C1946.77 635.763 1929.69 634.355 1910.9 634.355C1871.97 634.355 1840.4 640.399 1840.4 647.855C1840.4 655.311 1871.97 661.355 1910.9 661.355C1929.69 661.355 1946.77 659.948 1959.4 657.653Z"/>
</mask>
<path fill-rule="evenodd" clip-rule="evenodd" d="M1959.4 657.653V638.057C1946.77 635.763 1929.69 634.355 1910.9 634.355C1871.97 634.355 1840.4 640.399 1840.4 647.855C1840.4 655.311 1871.97 661.355 1910.9 661.355C1929.69 661.355 1946.77 659.948 1959.4 657.653Z" fill="#B8B3B3"/>
<path d="M1959.4 657.653H1961.4V659.323L1959.76 659.621L1959.4 657.653ZM1959.4 638.057L1959.76 636.09L1961.4 636.388V638.057H1959.4ZM1957.4 657.653V638.057H1961.4V657.653H1957.4ZM1959.05 640.025C1946.56 637.757 1929.61 636.355 1910.9 636.355V632.355C1929.78 632.355 1946.98 633.768 1959.76 636.09L1959.05 640.025ZM1910.9 636.355C1891.52 636.355 1874.03 637.861 1861.43 640.274C1855.11 641.483 1850.13 642.902 1846.77 644.422C1845.08 645.185 1843.92 645.926 1843.2 646.595C1842.49 647.265 1842.4 647.684 1842.4 647.855H1838.4C1838.4 646.163 1839.31 644.762 1840.47 643.674C1841.63 642.586 1843.24 641.631 1845.12 640.778C1848.9 639.069 1854.24 637.578 1860.68 636.345C1873.59 633.872 1891.35 632.355 1910.9 632.355V636.355ZM1842.4 647.855C1842.4 648.027 1842.49 648.445 1843.2 649.116C1843.92 649.785 1845.08 650.525 1846.77 651.288C1850.13 652.808 1855.11 654.227 1861.43 655.437C1874.03 657.85 1891.52 659.355 1910.9 659.355V663.355C1891.35 663.355 1873.59 661.839 1860.68 659.365C1854.24 658.132 1848.9 656.642 1845.12 654.932C1843.24 654.08 1841.63 653.125 1840.47 652.036C1839.31 650.949 1838.4 649.548 1838.4 647.855H1842.4ZM1910.9 659.355C1929.61 659.355 1946.56 657.953 1959.05 655.685L1959.76 659.621C1946.98 661.942 1929.78 663.355 1910.9 663.355V659.355Z" fill="black" mask="url(#path-25-inside-4_132_1350)"/>
</g>
</svg>
