<svg width="2450" height="496" viewBox="0 0 2450 496" fill="none" xmlns="http://www.w3.org/2000/svg">
<g filter="url(#filter0_i_132_961)">
<path d="M419.737 195.227C462.369 420.818 746.795 427.01 803.047 195.494" stroke="#882B2B" stroke-width="23" stroke-linecap="round"/>
</g>
<g filter="url(#filter1_i_132_961)">
<path d="M25.6859 190.227C68.3186 415.818 352.744 422.01 408.996 190.494" stroke="#882B2B" stroke-width="23" stroke-linecap="round"/>
</g>
<g filter="url(#filter2_i_132_961)">
<path d="M1229.69 201.227C1272.32 426.818 1556.74 433.01 1613 201.494" stroke="#882B2B" stroke-width="23" stroke-linecap="round"/>
</g>
<mask id="path-4-inside-1_132_961" fill="white">
<path fill-rule="evenodd" clip-rule="evenodd" d="M423 232.775C437.058 227.64 447 215.003 447 200.227C447 180.897 429.987 165.227 409 165.227C388.013 165.227 371 180.897 371 200.227C371 214.65 380.472 227.036 394 232.394V449.634C366.995 454.735 347 473.11 347 494.996C347 495.073 347 495.15 347.001 495.227H471.411C471.412 495.15 471.412 495.073 471.412 494.996C471.412 472.73 450.717 454.098 423 449.38V232.775Z"/>
</mask>
<path fill-rule="evenodd" clip-rule="evenodd" d="M423 232.775C437.058 227.64 447 215.003 447 200.227C447 180.897 429.987 165.227 409 165.227C388.013 165.227 371 180.897 371 200.227C371 214.65 380.472 227.036 394 232.394V449.634C366.995 454.735 347 473.11 347 494.996C347 495.073 347 495.15 347.001 495.227H471.411C471.412 495.15 471.412 495.073 471.412 494.996C471.412 472.73 450.717 454.098 423 449.38V232.775Z" fill="#BFBABA"/>
<path d="M423 232.775L422.657 231.835L422 232.075V232.775H423ZM394 232.394H395V231.715L394.368 231.464L394 232.394ZM394 449.634L394.186 450.617L395 450.463V449.634H394ZM347.001 495.227L346.001 495.233L346.007 496.227H347.001V495.227ZM471.411 495.227V496.227H472.405L472.411 495.233L471.411 495.227ZM423 449.38H422V450.225L422.832 450.366L423 449.38ZM423.343 233.714C437.743 228.455 448 215.477 448 200.227H446C446 214.529 436.374 226.826 422.657 231.835L423.343 233.714ZM448 200.227C448 180.268 430.46 164.227 409 164.227V166.227C429.514 166.227 446 181.525 446 200.227H448ZM409 164.227C387.54 164.227 370 180.268 370 200.227H372C372 181.525 388.486 166.227 409 166.227V164.227ZM370 200.227C370 215.112 379.773 227.834 393.632 233.324L394.368 231.464C381.171 226.237 372 214.188 372 200.227H370ZM395 449.634V232.394H393V449.634H395ZM348 494.996C348 473.78 367.438 455.669 394.186 450.617L393.814 448.651C366.552 453.801 346 472.439 346 494.996H348ZM348.001 495.22C348 495.146 348 495.071 348 494.996H346C346 495.075 346 495.154 346.001 495.233L348.001 495.22ZM471.411 494.227H347.001V496.227H471.411V494.227ZM470.412 494.996C470.412 495.071 470.412 495.146 470.411 495.22L472.411 495.233C472.412 495.154 472.412 495.075 472.412 494.996H470.412ZM422.832 450.366C450.291 455.04 470.412 473.413 470.412 494.996H472.412C472.412 472.048 451.143 453.157 423.168 448.395L422.832 450.366ZM422 232.775V449.38H424V232.775H422Z" fill="black" mask="url(#path-4-inside-1_132_961)"/>
<g filter="url(#filter3_i_132_961)">
<path d="M1626.74 195.227C1669.37 420.818 1953.79 427.01 2010.05 195.494" stroke="#882B2B" stroke-width="23" stroke-linecap="round"/>
</g>
<mask id="path-7-inside-2_132_961" fill="white">
<path fill-rule="evenodd" clip-rule="evenodd" d="M1630 232.775C1644.06 227.64 1654 215.003 1654 200.227C1654 180.897 1636.99 165.227 1616 165.227C1595.01 165.227 1578 180.897 1578 200.227C1578 214.65 1587.47 227.036 1601 232.394V449.634C1574 454.735 1554 473.11 1554 494.996C1554 495.073 1554 495.15 1554 495.227H1678.41C1678.41 495.15 1678.41 495.073 1678.41 494.996C1678.41 472.73 1657.72 454.098 1630 449.38V232.775Z"/>
</mask>
<path fill-rule="evenodd" clip-rule="evenodd" d="M1630 232.775C1644.06 227.64 1654 215.003 1654 200.227C1654 180.897 1636.99 165.227 1616 165.227C1595.01 165.227 1578 180.897 1578 200.227C1578 214.65 1587.47 227.036 1601 232.394V449.634C1574 454.735 1554 473.11 1554 494.996C1554 495.073 1554 495.15 1554 495.227H1678.41C1678.41 495.15 1678.41 495.073 1678.41 494.996C1678.41 472.73 1657.72 454.098 1630 449.38V232.775Z" fill="#BFBABA"/>
<path d="M1630 232.775L1629.66 231.835L1629 232.075V232.775H1630ZM1601 232.394H1602V231.715L1601.37 231.464L1601 232.394ZM1601 449.634L1601.19 450.617L1602 450.463V449.634H1601ZM1554 495.227L1553 495.233L1553.01 496.227H1554V495.227ZM1678.41 495.227V496.227H1679.4L1679.41 495.233L1678.41 495.227ZM1630 449.38H1629V450.225L1629.83 450.366L1630 449.38ZM1630.34 233.714C1644.74 228.455 1655 215.477 1655 200.227H1653C1653 214.529 1643.37 226.826 1629.66 231.835L1630.34 233.714ZM1655 200.227C1655 180.268 1637.46 164.227 1616 164.227V166.227C1636.51 166.227 1653 181.525 1653 200.227H1655ZM1616 164.227C1594.54 164.227 1577 180.268 1577 200.227H1579C1579 181.525 1595.49 166.227 1616 166.227V164.227ZM1577 200.227C1577 215.112 1586.77 227.834 1600.63 233.324L1601.37 231.464C1588.17 226.237 1579 214.188 1579 200.227H1577ZM1602 449.634V232.394H1600V449.634H1602ZM1555 494.996C1555 473.78 1574.44 455.669 1601.19 450.617L1600.81 448.651C1573.55 453.801 1553 472.439 1553 494.996H1555ZM1555 495.22C1555 495.146 1555 495.071 1555 494.996H1553C1553 495.075 1553 495.154 1553 495.233L1555 495.22ZM1678.41 494.227H1554V496.227H1678.41V494.227ZM1677.41 494.996C1677.41 495.071 1677.41 495.146 1677.41 495.22L1679.41 495.233C1679.41 495.154 1679.41 495.075 1679.41 494.996H1677.41ZM1629.83 450.366C1657.29 455.04 1677.41 473.413 1677.41 494.996H1679.41C1679.41 472.048 1658.14 453.157 1630.17 448.395L1629.83 450.366ZM1629 232.775V449.38H1631V232.775H1629Z" fill="black" mask="url(#path-7-inside-2_132_961)"/>
<g filter="url(#filter4_i_132_961)">
<path d="M829.686 201.227C872.319 426.818 1156.74 433.01 1213 201.494" stroke="#882B2B" stroke-width="23" stroke-linecap="round"/>
</g>
<mask id="path-10-inside-3_132_961" fill="white">
<path fill-rule="evenodd" clip-rule="evenodd" d="M827 232.775C841.058 227.64 851 215.003 851 200.227C851 180.897 833.987 165.227 813 165.227C792.013 165.227 775 180.897 775 200.227C775 214.65 784.472 227.036 798 232.394V449.634C770.995 454.735 751 473.11 751 494.996C751 495.073 751 495.15 751.001 495.227H875.411C875.412 495.15 875.412 495.073 875.412 494.996C875.412 472.73 854.717 454.098 827 449.38V232.775Z"/>
</mask>
<path fill-rule="evenodd" clip-rule="evenodd" d="M827 232.775C841.058 227.64 851 215.003 851 200.227C851 180.897 833.987 165.227 813 165.227C792.013 165.227 775 180.897 775 200.227C775 214.65 784.472 227.036 798 232.394V449.634C770.995 454.735 751 473.11 751 494.996C751 495.073 751 495.15 751.001 495.227H875.411C875.412 495.15 875.412 495.073 875.412 494.996C875.412 472.73 854.717 454.098 827 449.38V232.775Z" fill="#BFBABA"/>
<path d="M827 232.775L826.657 231.835L826 232.075V232.775H827ZM798 232.394H799V231.715L798.368 231.464L798 232.394ZM798 449.634L798.186 450.617L799 450.463V449.634H798ZM751.001 495.227L750.001 495.233L750.007 496.227H751.001V495.227ZM875.411 495.227V496.227H876.405L876.411 495.233L875.411 495.227ZM827 449.38H826V450.225L826.832 450.366L827 449.38ZM827.343 233.714C841.743 228.455 852 215.477 852 200.227H850C850 214.529 840.374 226.826 826.657 231.835L827.343 233.714ZM852 200.227C852 180.268 834.46 164.227 813 164.227V166.227C833.514 166.227 850 181.525 850 200.227H852ZM813 164.227C791.54 164.227 774 180.268 774 200.227H776C776 181.525 792.486 166.227 813 166.227V164.227ZM774 200.227C774 215.112 783.773 227.834 797.632 233.324L798.368 231.464C785.171 226.237 776 214.188 776 200.227H774ZM799 449.634V232.394H797V449.634H799ZM752 494.996C752 473.78 771.438 455.669 798.186 450.617L797.814 448.651C770.552 453.801 750 472.439 750 494.996H752ZM752.001 495.22C752 495.146 752 495.071 752 494.996H750C750 495.075 750 495.154 750.001 495.233L752.001 495.22ZM875.411 494.227H751.001V496.227H875.411V494.227ZM874.412 494.996C874.412 495.071 874.412 495.146 874.411 495.22L876.411 495.233C876.412 495.154 876.412 495.075 876.412 494.996H874.412ZM826.832 450.366C854.291 455.04 874.412 473.413 874.412 494.996H876.412C876.412 472.048 855.143 453.157 827.168 448.395L826.832 450.366ZM826 232.775V449.38H828V232.775H826Z" fill="black" mask="url(#path-10-inside-3_132_961)"/>
<path d="M844 198C844 210.426 833.807 220.5 820 220.5C806.193 220.5 795 210.426 795 198C797 183 804.193 174 818 174C831.807 174 844 185.574 844 198Z" fill="#EDEDED"/>
<path d="M840 202.5C840 216.031 829.031 227 815.5 227C801.969 227 791 216.031 791 202.5C791 188.969 801.969 178 815.5 178C829.031 178 840 188.969 840 202.5Z" fill="#BFBABA"/>
<mask id="path-14-inside-4_132_961" fill="white">
<path fill-rule="evenodd" clip-rule="evenodd" d="M1232 232.548C1246.06 227.414 1256 214.776 1256 200C1256 180.67 1238.99 165 1218 165C1197.01 165 1180 180.67 1180 200C1180 214.423 1189.47 226.809 1203 232.168V449.407C1176 454.508 1156 472.883 1156 494.77C1156 494.846 1156 494.923 1156 495H1280.41C1280.41 494.923 1280.41 494.846 1280.41 494.77C1280.41 472.504 1259.72 453.872 1232 449.154V232.548Z"/>
</mask>
<path fill-rule="evenodd" clip-rule="evenodd" d="M1232 232.548C1246.06 227.414 1256 214.776 1256 200C1256 180.67 1238.99 165 1218 165C1197.01 165 1180 180.67 1180 200C1180 214.423 1189.47 226.809 1203 232.168V449.407C1176 454.508 1156 472.883 1156 494.77C1156 494.846 1156 494.923 1156 495H1280.41C1280.41 494.923 1280.41 494.846 1280.41 494.77C1280.41 472.504 1259.72 453.872 1232 449.154V232.548Z" fill="#BFBABA"/>
<path d="M1232 232.548L1231.66 231.609L1231 231.849V232.548H1232ZM1203 232.168H1204V231.488L1203.37 231.238L1203 232.168ZM1203 449.407L1203.19 450.39L1204 450.236V449.407H1203ZM1156 495L1155 495.006L1155.01 496H1156V495ZM1280.41 495V496H1281.4L1281.41 495.006L1280.41 495ZM1232 449.154H1231V449.998L1231.83 450.14L1232 449.154ZM1232.34 233.487C1246.74 228.229 1257 215.25 1257 200H1255C1255 214.302 1245.37 226.599 1231.66 231.609L1232.34 233.487ZM1257 200C1257 180.042 1239.46 164 1218 164V166C1238.51 166 1255 181.298 1255 200H1257ZM1218 164C1196.54 164 1179 180.042 1179 200H1181C1181 181.298 1197.49 166 1218 166V164ZM1179 200C1179 214.885 1188.77 227.608 1202.63 233.097L1203.37 231.238C1190.17 226.01 1181 213.961 1181 200H1179ZM1204 449.407V232.168H1202V449.407H1204ZM1157 494.77C1157 473.554 1176.44 455.442 1203.19 450.39L1202.81 448.425C1175.55 453.574 1155 472.213 1155 494.77H1157ZM1157 494.994C1157 494.919 1157 494.844 1157 494.77H1155C1155 494.849 1155 494.928 1155 495.006L1157 494.994ZM1280.41 494H1156V496H1280.41V494ZM1279.41 494.77C1279.41 494.844 1279.41 494.919 1279.41 494.994L1281.41 495.006C1281.41 494.928 1281.41 494.849 1281.41 494.77H1279.41ZM1231.83 450.14C1259.29 454.814 1279.41 473.186 1279.41 494.77H1281.41C1281.41 471.821 1260.14 452.93 1232.17 448.168L1231.83 450.14ZM1231 232.548V449.154H1233V232.548H1231Z" fill="black" mask="url(#path-14-inside-4_132_961)"/>
<g filter="url(#filter5_i_132_961)">
<path d="M2035.69 201.227C2078.32 426.818 2362.74 433.01 2419 201.494" stroke="#882B2B" stroke-width="23" stroke-linecap="round"/>
</g>
<mask id="path-17-inside-5_132_961" fill="white">
<path fill-rule="evenodd" clip-rule="evenodd" d="M2034 232.775C2048.06 227.64 2058 215.003 2058 200.227C2058 180.897 2040.99 165.227 2020 165.227C1999.01 165.227 1982 180.897 1982 200.227C1982 214.65 1991.47 227.036 2005 232.394V449.634C1978 454.735 1958 473.11 1958 494.996C1958 495.073 1958 495.15 1958 495.227H2082.41C2082.41 495.15 2082.41 495.073 2082.41 494.996C2082.41 472.73 2061.72 454.098 2034 449.38V232.775Z"/>
</mask>
<path fill-rule="evenodd" clip-rule="evenodd" d="M2034 232.775C2048.06 227.64 2058 215.003 2058 200.227C2058 180.897 2040.99 165.227 2020 165.227C1999.01 165.227 1982 180.897 1982 200.227C1982 214.65 1991.47 227.036 2005 232.394V449.634C1978 454.735 1958 473.11 1958 494.996C1958 495.073 1958 495.15 1958 495.227H2082.41C2082.41 495.15 2082.41 495.073 2082.41 494.996C2082.41 472.73 2061.72 454.098 2034 449.38V232.775Z" fill="#BFBABA"/>
<path d="M2034 232.775L2033.66 231.835L2033 232.075V232.775H2034ZM2005 232.394H2006V231.715L2005.37 231.464L2005 232.394ZM2005 449.634L2005.19 450.617L2006 450.463V449.634H2005ZM1958 495.227L1957 495.233L1957.01 496.227H1958V495.227ZM2082.41 495.227V496.227H2083.4L2083.41 495.233L2082.41 495.227ZM2034 449.38H2033V450.225L2033.83 450.366L2034 449.38ZM2034.34 233.714C2048.74 228.455 2059 215.477 2059 200.227H2057C2057 214.529 2047.37 226.826 2033.66 231.835L2034.34 233.714ZM2059 200.227C2059 180.268 2041.46 164.227 2020 164.227V166.227C2040.51 166.227 2057 181.525 2057 200.227H2059ZM2020 164.227C1998.54 164.227 1981 180.268 1981 200.227H1983C1983 181.525 1999.49 166.227 2020 166.227V164.227ZM1981 200.227C1981 215.112 1990.77 227.834 2004.63 233.324L2005.37 231.464C1992.17 226.237 1983 214.188 1983 200.227H1981ZM2006 449.634V232.394H2004V449.634H2006ZM1959 494.996C1959 473.78 1978.44 455.669 2005.19 450.617L2004.81 448.651C1977.55 453.801 1957 472.439 1957 494.996H1959ZM1959 495.22C1959 495.146 1959 495.071 1959 494.996H1957C1957 495.075 1957 495.154 1957 495.233L1959 495.22ZM2082.41 494.227H1958V496.227H2082.41V494.227ZM2081.41 494.996C2081.41 495.071 2081.41 495.146 2081.41 495.22L2083.41 495.233C2083.41 495.154 2083.41 495.075 2083.41 494.996H2081.41ZM2033.83 450.366C2061.29 455.04 2081.41 473.413 2081.41 494.996H2083.41C2083.41 472.048 2062.14 453.157 2034.17 448.395L2033.83 450.366ZM2033 232.775V449.38H2035V232.775H2033Z" fill="black" mask="url(#path-17-inside-5_132_961)"/>
<path d="M438 197.5C438 209.926 427.807 220 414 220C400.193 220 389 209.926 389 197.5C391 182.5 398.193 173.5 412 173.5C425.807 173.5 438 185.074 438 197.5Z" fill="#EDEDED"/>
<path d="M434 202C434 215.531 423.031 226.5 409.5 226.5C395.969 226.5 385 215.531 385 202C385 188.469 395.969 177.5 409.5 177.5C423.031 177.5 434 188.469 434 202Z" fill="#BFBABA"/>
<path d="M1249 198C1249 210.426 1238.81 220.5 1225 220.5C1211.19 220.5 1200 210.426 1200 198C1202 183 1209.19 174 1223 174C1236.81 174 1249 185.574 1249 198Z" fill="#EDEDED"/>
<path d="M1245 202.5C1245 216.031 1234.03 227 1220.5 227C1206.97 227 1196 216.031 1196 202.5C1196 188.969 1206.97 178 1220.5 178C1234.03 178 1245 188.969 1245 202.5Z" fill="#BFBABA"/>
<path d="M1646 198C1646 210.426 1635.81 220.5 1622 220.5C1608.19 220.5 1597 210.426 1597 198C1599 183 1606.19 174 1620 174C1633.81 174 1646 185.574 1646 198Z" fill="#EDEDED"/>
<path d="M1642 202.5C1642 216.031 1631.03 227 1617.5 227C1603.97 227 1593 216.031 1593 202.5C1593 188.969 1603.97 178 1617.5 178C1631.03 178 1642 188.969 1642 202.5Z" fill="#BFBABA"/>
<path d="M2049 198C2049 210.426 2038.81 220.5 2025 220.5C2011.19 220.5 2000 210.426 2000 198C2002 183 2009.19 174 2023 174C2036.81 174 2049 185.574 2049 198Z" fill="#EDEDED"/>
<path d="M2045 202.5C2045 216.031 2034.03 227 2020.5 227C2006.97 227 1996 216.031 1996 202.5C1996 188.969 2006.97 178 2020.5 178C2034.03 178 2045 188.969 2045 202.5Z" fill="#BFBABA"/>
<defs>
<filter id="filter0_i_132_961" x="408.235" y="183.725" width="406.315" height="198.56" filterUnits="userSpaceOnUse" color-interpolation-filters="sRGB">
<feFlood flood-opacity="0" result="BackgroundImageFix"/>
<feBlend mode="normal" in="SourceGraphic" in2="BackgroundImageFix" result="shape"/>
<feColorMatrix in="SourceAlpha" type="matrix" values="0 0 0 0 0 0 0 0 0 0 0 0 0 0 0 0 0 0 127 0" result="hardAlpha"/>
<feOffset dy="4"/>
<feGaussianBlur stdDeviation="2"/>
<feComposite in2="hardAlpha" operator="arithmetic" k2="-1" k3="1"/>
<feColorMatrix type="matrix" values="0 0 0 0 0 0 0 0 0 0 0 0 0 0 0 0 0 0 0.25 0"/>
<feBlend mode="normal" in2="shape" result="effect1_innerShadow_132_961"/>
</filter>
<filter id="filter1_i_132_961" x="14.1838" y="178.725" width="406.315" height="198.56" filterUnits="userSpaceOnUse" color-interpolation-filters="sRGB">
<feFlood flood-opacity="0" result="BackgroundImageFix"/>
<feBlend mode="normal" in="SourceGraphic" in2="BackgroundImageFix" result="shape"/>
<feColorMatrix in="SourceAlpha" type="matrix" values="0 0 0 0 0 0 0 0 0 0 0 0 0 0 0 0 0 0 127 0" result="hardAlpha"/>
<feOffset dy="4"/>
<feGaussianBlur stdDeviation="2"/>
<feComposite in2="hardAlpha" operator="arithmetic" k2="-1" k3="1"/>
<feColorMatrix type="matrix" values="0 0 0 0 0 0 0 0 0 0 0 0 0 0 0 0 0 0 0.25 0"/>
<feBlend mode="normal" in2="shape" result="effect1_innerShadow_132_961"/>
</filter>
<filter id="filter2_i_132_961" x="1218.18" y="189.725" width="406.315" height="198.56" filterUnits="userSpaceOnUse" color-interpolation-filters="sRGB">
<feFlood flood-opacity="0" result="BackgroundImageFix"/>
<feBlend mode="normal" in="SourceGraphic" in2="BackgroundImageFix" result="shape"/>
<feColorMatrix in="SourceAlpha" type="matrix" values="0 0 0 0 0 0 0 0 0 0 0 0 0 0 0 0 0 0 127 0" result="hardAlpha"/>
<feOffset dy="4"/>
<feGaussianBlur stdDeviation="2"/>
<feComposite in2="hardAlpha" operator="arithmetic" k2="-1" k3="1"/>
<feColorMatrix type="matrix" values="0 0 0 0 0 0 0 0 0 0 0 0 0 0 0 0 0 0 0.25 0"/>
<feBlend mode="normal" in2="shape" result="effect1_innerShadow_132_961"/>
</filter>
<filter id="filter3_i_132_961" x="1615.23" y="183.725" width="406.315" height="198.56" filterUnits="userSpaceOnUse" color-interpolation-filters="sRGB">
<feFlood flood-opacity="0" result="BackgroundImageFix"/>
<feBlend mode="normal" in="SourceGraphic" in2="BackgroundImageFix" result="shape"/>
<feColorMatrix in="SourceAlpha" type="matrix" values="0 0 0 0 0 0 0 0 0 0 0 0 0 0 0 0 0 0 127 0" result="hardAlpha"/>
<feOffset dy="4"/>
<feGaussianBlur stdDeviation="2"/>
<feComposite in2="hardAlpha" operator="arithmetic" k2="-1" k3="1"/>
<feColorMatrix type="matrix" values="0 0 0 0 0 0 0 0 0 0 0 0 0 0 0 0 0 0 0.25 0"/>
<feBlend mode="normal" in2="shape" result="effect1_innerShadow_132_961"/>
</filter>
<filter id="filter4_i_132_961" x="818.184" y="189.725" width="406.315" height="198.56" filterUnits="userSpaceOnUse" color-interpolation-filters="sRGB">
<feFlood flood-opacity="0" result="BackgroundImageFix"/>
<feBlend mode="normal" in="SourceGraphic" in2="BackgroundImageFix" result="shape"/>
<feColorMatrix in="SourceAlpha" type="matrix" values="0 0 0 0 0 0 0 0 0 0 0 0 0 0 0 0 0 0 127 0" result="hardAlpha"/>
<feOffset dy="4"/>
<feGaussianBlur stdDeviation="2"/>
<feComposite in2="hardAlpha" operator="arithmetic" k2="-1" k3="1"/>
<feColorMatrix type="matrix" values="0 0 0 0 0 0 0 0 0 0 0 0 0 0 0 0 0 0 0.25 0"/>
<feBlend mode="normal" in2="shape" result="effect1_innerShadow_132_961"/>
</filter>
<filter id="filter5_i_132_961" x="2024.18" y="189.725" width="406.315" height="198.56" filterUnits="userSpaceOnUse" color-interpolation-filters="sRGB">
<feFlood flood-opacity="0" result="BackgroundImageFix"/>
<feBlend mode="normal" in="SourceGraphic" in2="BackgroundImageFix" result="shape"/>
<feColorMatrix in="SourceAlpha" type="matrix" values="0 0 0 0 0 0 0 0 0 0 0 0 0 0 0 0 0 0 127 0" result="hardAlpha"/>
<feOffset dy="4"/>
<feGaussianBlur stdDeviation="2"/>
<feComposite in2="hardAlpha" operator="arithmetic" k2="-1" k3="1"/>
<feColorMatrix type="matrix" values="0 0 0 0 0 0 0 0 0 0 0 0 0 0 0 0 0 0 0.25 0"/>
<feBlend mode="normal" in2="shape" result="effect1_innerShadow_132_961"/>
</filter>
</defs>
</svg>
