<svg width="1920" height="491" viewBox="0 0 1920 491" fill="none" xmlns="http://www.w3.org/2000/svg">
<g filter="url(#filter0_i_132_960)">
<path d="M165.737 190.227C208.369 415.819 492.795 422.01 549.047 190.494" stroke="#882B2B" stroke-width="23" stroke-linecap="round"/>
</g>
<g filter="url(#filter1_i_132_960)">
<path fill-rule="evenodd" clip-rule="evenodd" d="M0 364.142V340.562C63.2625 325.451 121.689 273.866 143.821 182.779C145.32 176.607 151.539 172.819 157.711 174.319C163.883 175.818 167.67 182.037 166.171 188.209C141.476 289.844 73.9777 348.665 0 364.142Z" fill="#882B2B"/>
</g>
<g filter="url(#filter2_i_132_960)">
<path d="M975.686 196.227C1018.32 421.819 1302.74 428.01 1359 196.494" stroke="#882B2B" stroke-width="23" stroke-linecap="round"/>
</g>
<mask id="path-4-inside-1_132_960" fill="white">
<path fill-rule="evenodd" clip-rule="evenodd" d="M169 227.775C183.058 222.641 193 210.003 193 195.227C193 175.897 175.987 160.227 155 160.227C134.013 160.227 117 175.897 117 195.227C117 209.65 126.472 222.036 140 227.394V444.634C112.995 449.735 93 468.11 93 489.996C93 490.073 93.0002 490.15 93.0007 490.227H217.411C217.412 490.15 217.412 490.073 217.412 489.996C217.412 467.73 196.717 449.099 169 444.381V227.775Z"/>
</mask>
<path fill-rule="evenodd" clip-rule="evenodd" d="M169 227.775C183.058 222.641 193 210.003 193 195.227C193 175.897 175.987 160.227 155 160.227C134.013 160.227 117 175.897 117 195.227C117 209.65 126.472 222.036 140 227.394V444.634C112.995 449.735 93 468.11 93 489.996C93 490.073 93.0002 490.15 93.0007 490.227H217.411C217.412 490.15 217.412 490.073 217.412 489.996C217.412 467.73 196.717 449.099 169 444.381V227.775Z" fill="#BFBABA"/>
<path d="M169 227.775L168.657 226.835L168 227.075V227.775H169ZM140 227.394H141V226.715L140.368 226.465L140 227.394ZM140 444.634L140.186 445.617L141 445.463V444.634H140ZM93.0007 490.227L92.0008 490.233L92.0071 491.227H93.0007V490.227ZM217.411 490.227V491.227H218.405L218.411 490.233L217.411 490.227ZM169 444.381H168V445.225L168.832 445.366L169 444.381ZM169.343 228.714C183.743 223.455 194 210.477 194 195.227H192C192 209.529 182.374 221.826 168.657 226.835L169.343 228.714ZM194 195.227C194 175.269 176.46 159.227 155 159.227V161.227C175.514 161.227 192 176.525 192 195.227H194ZM155 159.227C133.54 159.227 116 175.269 116 195.227H118C118 176.525 134.486 161.227 155 161.227V159.227ZM116 195.227C116 210.112 125.773 222.835 139.632 228.324L140.368 226.465C127.171 221.237 118 209.188 118 195.227H116ZM141 444.634V227.394H139V444.634H141ZM94 489.996C94 468.78 113.438 450.669 140.186 445.617L139.814 443.651C112.552 448.801 92 467.44 92 489.996H94ZM94.0007 490.22C94.0002 490.146 94 490.071 94 489.996H92C92 490.075 92.0003 490.154 92.0008 490.233L94.0007 490.22ZM217.411 489.227H93.0007V491.227H217.411V489.227ZM216.412 489.996C216.412 490.071 216.412 490.146 216.411 490.22L218.411 490.233C218.412 490.154 218.412 490.075 218.412 489.996H216.412ZM168.832 445.366C196.291 450.04 216.412 468.413 216.412 489.996H218.412C218.412 467.048 197.143 448.157 169.168 443.395L168.832 445.366ZM168 227.775V444.381H170V227.775H168Z" fill="black" mask="url(#path-4-inside-1_132_960)"/>
<g filter="url(#filter3_i_132_960)">
<path d="M1372.74 190.227C1415.37 415.819 1699.79 422.01 1756.05 190.494" stroke="#882B2B" stroke-width="23" stroke-linecap="round"/>
</g>
<mask id="path-7-inside-2_132_960" fill="white">
<path fill-rule="evenodd" clip-rule="evenodd" d="M1376 227.775C1390.06 222.641 1400 210.003 1400 195.227C1400 175.897 1382.99 160.227 1362 160.227C1341.01 160.227 1324 175.897 1324 195.227C1324 209.65 1333.47 222.036 1347 227.394V444.634C1320 449.735 1300 468.11 1300 489.996C1300 490.073 1300 490.15 1300 490.227H1424.41C1424.41 490.15 1424.41 490.073 1424.41 489.996C1424.41 467.73 1403.72 449.099 1376 444.381V227.775Z"/>
</mask>
<path fill-rule="evenodd" clip-rule="evenodd" d="M1376 227.775C1390.06 222.641 1400 210.003 1400 195.227C1400 175.897 1382.99 160.227 1362 160.227C1341.01 160.227 1324 175.897 1324 195.227C1324 209.65 1333.47 222.036 1347 227.394V444.634C1320 449.735 1300 468.11 1300 489.996C1300 490.073 1300 490.15 1300 490.227H1424.41C1424.41 490.15 1424.41 490.073 1424.41 489.996C1424.41 467.73 1403.72 449.099 1376 444.381V227.775Z" fill="#BFBABA"/>
<path d="M1376 227.775L1375.66 226.835L1375 227.075V227.775H1376ZM1347 227.394H1348V226.715L1347.37 226.465L1347 227.394ZM1347 444.634L1347.19 445.617L1348 445.463V444.634H1347ZM1300 490.227L1299 490.233L1299.01 491.227H1300V490.227ZM1424.41 490.227V491.227H1425.4L1425.41 490.233L1424.41 490.227ZM1376 444.381H1375V445.225L1375.83 445.366L1376 444.381ZM1376.34 228.714C1390.74 223.455 1401 210.477 1401 195.227H1399C1399 209.529 1389.37 221.826 1375.66 226.835L1376.34 228.714ZM1401 195.227C1401 175.269 1383.46 159.227 1362 159.227V161.227C1382.51 161.227 1399 176.525 1399 195.227H1401ZM1362 159.227C1340.54 159.227 1323 175.269 1323 195.227H1325C1325 176.525 1341.49 161.227 1362 161.227V159.227ZM1323 195.227C1323 210.112 1332.77 222.835 1346.63 228.324L1347.37 226.465C1334.17 221.237 1325 209.188 1325 195.227H1323ZM1348 444.634V227.394H1346V444.634H1348ZM1301 489.996C1301 468.78 1320.44 450.669 1347.19 445.617L1346.81 443.651C1319.55 448.801 1299 467.44 1299 489.996H1301ZM1301 490.22C1301 490.146 1301 490.071 1301 489.996H1299C1299 490.075 1299 490.154 1299 490.233L1301 490.22ZM1424.41 489.227H1300V491.227H1424.41V489.227ZM1423.41 489.996C1423.41 490.071 1423.41 490.146 1423.41 490.22L1425.41 490.233C1425.41 490.154 1425.41 490.075 1425.41 489.996H1423.41ZM1375.83 445.366C1403.29 450.04 1423.41 468.413 1423.41 489.996H1425.41C1425.41 467.048 1404.14 448.157 1376.17 443.395L1375.83 445.366ZM1375 227.775V444.381H1377V227.775H1375Z" fill="black" mask="url(#path-7-inside-2_132_960)"/>
<g filter="url(#filter4_i_132_960)">
<path d="M575.686 196.227C618.319 421.819 902.744 428.01 958.996 196.494" stroke="#882B2B" stroke-width="23" stroke-linecap="round"/>
</g>
<mask id="path-10-inside-3_132_960" fill="white">
<path fill-rule="evenodd" clip-rule="evenodd" d="M573 227.775C587.058 222.641 597 210.003 597 195.227C597 175.897 579.987 160.227 559 160.227C538.013 160.227 521 175.897 521 195.227C521 209.65 530.472 222.036 544 227.394V444.634C516.995 449.735 497 468.11 497 489.996C497 490.073 497 490.15 497.001 490.227H621.411C621.412 490.15 621.412 490.073 621.412 489.996C621.412 467.73 600.717 449.099 573 444.381V227.775Z"/>
</mask>
<path fill-rule="evenodd" clip-rule="evenodd" d="M573 227.775C587.058 222.641 597 210.003 597 195.227C597 175.897 579.987 160.227 559 160.227C538.013 160.227 521 175.897 521 195.227C521 209.65 530.472 222.036 544 227.394V444.634C516.995 449.735 497 468.11 497 489.996C497 490.073 497 490.15 497.001 490.227H621.411C621.412 490.15 621.412 490.073 621.412 489.996C621.412 467.73 600.717 449.099 573 444.381V227.775Z" fill="#BFBABA"/>
<path d="M573 227.775L572.657 226.835L572 227.075V227.775H573ZM544 227.394H545V226.715L544.368 226.465L544 227.394ZM544 444.634L544.186 445.617L545 445.463V444.634H544ZM497.001 490.227L496.001 490.233L496.007 491.227H497.001V490.227ZM621.411 490.227V491.227H622.405L622.411 490.233L621.411 490.227ZM573 444.381H572V445.225L572.832 445.366L573 444.381ZM573.343 228.714C587.743 223.455 598 210.477 598 195.227H596C596 209.529 586.374 221.826 572.657 226.835L573.343 228.714ZM598 195.227C598 175.269 580.46 159.227 559 159.227V161.227C579.514 161.227 596 176.525 596 195.227H598ZM559 159.227C537.54 159.227 520 175.269 520 195.227H522C522 176.525 538.486 161.227 559 161.227V159.227ZM520 195.227C520 210.112 529.773 222.835 543.632 228.324L544.368 226.465C531.171 221.237 522 209.188 522 195.227H520ZM545 444.634V227.394H543V444.634H545ZM498 489.996C498 468.78 517.438 450.669 544.186 445.617L543.814 443.651C516.552 448.801 496 467.44 496 489.996H498ZM498.001 490.22C498 490.146 498 490.071 498 489.996H496C496 490.075 496 490.154 496.001 490.233L498.001 490.22ZM621.411 489.227H497.001V491.227H621.411V489.227ZM620.412 489.996C620.412 490.071 620.412 490.146 620.411 490.22L622.411 490.233C622.412 490.154 622.412 490.075 622.412 489.996H620.412ZM572.832 445.366C600.291 450.04 620.412 468.413 620.412 489.996H622.412C622.412 467.048 601.143 448.157 573.168 443.395L572.832 445.366ZM572 227.775V444.381H574V227.775H572Z" fill="black" mask="url(#path-10-inside-3_132_960)"/>
<path d="M590 193C590 205.426 579.807 215.5 566 215.5C552.193 215.5 541 205.426 541 193C543 178 550.193 169 564 169C577.807 169 590 180.574 590 193Z" fill="#EDEDED"/>
<path d="M586 197.5C586 211.031 575.031 222 561.5 222C547.969 222 537 211.031 537 197.5C537 183.969 547.969 173 561.5 173C575.031 173 586 183.969 586 197.5Z" fill="#BFBABA"/>
<mask id="path-14-inside-4_132_960" fill="white">
<path fill-rule="evenodd" clip-rule="evenodd" d="M978 227.548C992.058 222.414 1002 209.776 1002 195C1002 175.67 984.987 160 964 160C943.013 160 926 175.67 926 195C926 209.423 935.472 221.809 949 227.168V444.407C921.995 449.508 902 467.883 902 489.77C902 489.846 902 489.923 902.001 490H1026.41C1026.41 489.923 1026.41 489.846 1026.41 489.77C1026.41 467.504 1005.72 448.872 978 444.154V227.548Z"/>
</mask>
<path fill-rule="evenodd" clip-rule="evenodd" d="M978 227.548C992.058 222.414 1002 209.776 1002 195C1002 175.67 984.987 160 964 160C943.013 160 926 175.67 926 195C926 209.423 935.472 221.809 949 227.168V444.407C921.995 449.508 902 467.883 902 489.77C902 489.846 902 489.923 902.001 490H1026.41C1026.41 489.923 1026.41 489.846 1026.41 489.77C1026.41 467.504 1005.72 448.872 978 444.154V227.548Z" fill="#BFBABA"/>
<path d="M978 227.548L977.657 226.609L977 226.849V227.548H978ZM949 227.168H950V226.488L949.368 226.238L949 227.168ZM949 444.407L949.186 445.39L950 445.236V444.407H949ZM902.001 490L901.001 490.006L901.007 491H902.001V490ZM1026.41 490V491H1027.4L1027.41 490.006L1026.41 490ZM978 444.154H977V444.998L977.832 445.14L978 444.154ZM978.343 228.487C992.743 223.229 1003 210.25 1003 195H1001C1001 209.302 991.374 221.599 977.657 226.609L978.343 228.487ZM1003 195C1003 175.042 985.46 159 964 159V161C984.514 161 1001 176.298 1001 195H1003ZM964 159C942.54 159 925 175.042 925 195H927C927 176.298 943.486 161 964 161V159ZM925 195C925 209.885 934.773 222.608 948.632 228.097L949.368 226.238C936.171 221.01 927 208.961 927 195H925ZM950 444.407V227.168H948V444.407H950ZM903 489.77C903 468.554 922.438 450.442 949.186 445.39L948.814 443.425C921.552 448.574 901 467.213 901 489.77H903ZM903.001 489.994C903 489.919 903 489.844 903 489.77H901C901 489.849 901 489.928 901.001 490.006L903.001 489.994ZM1026.41 489H902.001V491H1026.41V489ZM1025.41 489.77C1025.41 489.844 1025.41 489.919 1025.41 489.994L1027.41 490.006C1027.41 489.928 1027.41 489.849 1027.41 489.77H1025.41ZM977.832 445.14C1005.29 449.814 1025.41 468.186 1025.41 489.77H1027.41C1027.41 466.821 1006.14 447.93 978.168 443.168L977.832 445.14ZM977 227.548V444.154H979V227.548H977Z" fill="black" mask="url(#path-14-inside-4_132_960)"/>
<path fill-rule="evenodd" clip-rule="evenodd" d="M1920 348.793V372.728C1849.62 353.913 1788.62 294.823 1770.39 198.362C1769.21 192.121 1773.31 186.106 1779.55 184.927C1785.79 183.747 1791.81 187.85 1792.99 194.091C1809.06 279.136 1860.67 330.583 1920 348.793Z" fill="#852A2A"/>
<mask id="path-17-inside-5_132_960" fill="white">
<path fill-rule="evenodd" clip-rule="evenodd" d="M1780 227.775C1794.06 222.641 1804 210.003 1804 195.227C1804 175.897 1786.99 160.227 1766 160.227C1745.01 160.227 1728 175.897 1728 195.227C1728 209.65 1737.47 222.036 1751 227.394V444.634C1724 449.735 1704 468.11 1704 489.996C1704 490.073 1704 490.15 1704 490.227H1828.41C1828.41 490.15 1828.41 490.073 1828.41 489.996C1828.41 467.73 1807.72 449.099 1780 444.381V227.775Z"/>
</mask>
<path fill-rule="evenodd" clip-rule="evenodd" d="M1780 227.775C1794.06 222.641 1804 210.003 1804 195.227C1804 175.897 1786.99 160.227 1766 160.227C1745.01 160.227 1728 175.897 1728 195.227C1728 209.65 1737.47 222.036 1751 227.394V444.634C1724 449.735 1704 468.11 1704 489.996C1704 490.073 1704 490.15 1704 490.227H1828.41C1828.41 490.15 1828.41 490.073 1828.41 489.996C1828.41 467.73 1807.72 449.099 1780 444.381V227.775Z" fill="#BFBABA"/>
<path d="M1780 227.775L1779.66 226.835L1779 227.075V227.775H1780ZM1751 227.394H1752V226.715L1751.37 226.465L1751 227.394ZM1751 444.634L1751.19 445.617L1752 445.463V444.634H1751ZM1704 490.227L1703 490.233L1703.01 491.227H1704V490.227ZM1828.41 490.227V491.227H1829.4L1829.41 490.233L1828.41 490.227ZM1780 444.381H1779V445.225L1779.83 445.366L1780 444.381ZM1780.34 228.714C1794.74 223.455 1805 210.477 1805 195.227H1803C1803 209.529 1793.37 221.826 1779.66 226.835L1780.34 228.714ZM1805 195.227C1805 175.269 1787.46 159.227 1766 159.227V161.227C1786.51 161.227 1803 176.525 1803 195.227H1805ZM1766 159.227C1744.54 159.227 1727 175.269 1727 195.227H1729C1729 176.525 1745.49 161.227 1766 161.227V159.227ZM1727 195.227C1727 210.112 1736.77 222.835 1750.63 228.324L1751.37 226.465C1738.17 221.237 1729 209.188 1729 195.227H1727ZM1752 444.634V227.394H1750V444.634H1752ZM1705 489.996C1705 468.78 1724.44 450.669 1751.19 445.617L1750.81 443.651C1723.55 448.801 1703 467.44 1703 489.996H1705ZM1705 490.22C1705 490.146 1705 490.071 1705 489.996H1703C1703 490.075 1703 490.154 1703 490.233L1705 490.22ZM1828.41 489.227H1704V491.227H1828.41V489.227ZM1827.41 489.996C1827.41 490.071 1827.41 490.146 1827.41 490.22L1829.41 490.233C1829.41 490.154 1829.41 490.075 1829.41 489.996H1827.41ZM1779.83 445.366C1807.29 450.04 1827.41 468.413 1827.41 489.996H1829.41C1829.41 467.048 1808.14 448.157 1780.17 443.395L1779.83 445.366ZM1779 227.775V444.381H1781V227.775H1779Z" fill="black" mask="url(#path-17-inside-5_132_960)"/>
<path d="M184 192.5C184 204.926 173.807 215 160 215C146.193 215 135 204.926 135 192.5C137 177.5 144.193 168.5 158 168.5C171.807 168.5 184 180.074 184 192.5Z" fill="#EDEDED"/>
<path d="M180 197C180 210.531 169.031 221.5 155.5 221.5C141.969 221.5 131 210.531 131 197C131 183.469 141.969 172.5 155.5 172.5C169.031 172.5 180 183.469 180 197Z" fill="#BFBABA"/>
<path d="M995 193C995 205.426 984.807 215.5 971 215.5C957.193 215.5 946 205.426 946 193C948 178 955.193 169 969 169C982.807 169 995 180.574 995 193Z" fill="#EDEDED"/>
<path d="M991 197.5C991 211.031 980.031 222 966.5 222C952.969 222 942 211.031 942 197.5C942 183.969 952.969 173 966.5 173C980.031 173 991 183.969 991 197.5Z" fill="#BFBABA"/>
<path d="M1392 193C1392 205.426 1381.81 215.5 1368 215.5C1354.19 215.5 1343 205.426 1343 193C1345 178 1352.19 169 1366 169C1379.81 169 1392 180.574 1392 193Z" fill="#EDEDED"/>
<path d="M1388 197.5C1388 211.031 1377.03 222 1363.5 222C1349.97 222 1339 211.031 1339 197.5C1339 183.969 1349.97 173 1363.5 173C1377.03 173 1388 183.969 1388 197.5Z" fill="#BFBABA"/>
<path d="M1795 193C1795 205.426 1784.81 215.5 1771 215.5C1757.19 215.5 1746 205.426 1746 193C1748 178 1755.19 169 1769 169C1782.81 169 1795 180.574 1795 193Z" fill="#EDEDED"/>
<path d="M1791 197.5C1791 211.031 1780.03 222 1766.5 222C1752.97 222 1742 211.031 1742 197.5C1742 183.969 1752.97 173 1766.5 173C1780.03 173 1791 183.969 1791 197.5Z" fill="#BFBABA"/>
<defs>
<filter id="filter0_i_132_960" x="154.234" y="178.725" width="406.314" height="198.56" filterUnits="userSpaceOnUse" color-interpolation-filters="sRGB">
<feFlood flood-opacity="0" result="BackgroundImageFix"/>
<feBlend mode="normal" in="SourceGraphic" in2="BackgroundImageFix" result="shape"/>
<feColorMatrix in="SourceAlpha" type="matrix" values="0 0 0 0 0 0 0 0 0 0 0 0 0 0 0 0 0 0 127 0" result="hardAlpha"/>
<feOffset dy="4"/>
<feGaussianBlur stdDeviation="2"/>
<feComposite in2="hardAlpha" operator="arithmetic" k2="-1" k3="1"/>
<feColorMatrix type="matrix" values="0 0 0 0 0 0 0 0 0 0 0 0 0 0 0 0 0 0 0.25 0"/>
<feBlend mode="normal" in2="shape" result="effect1_innerShadow_132_960"/>
</filter>
<filter id="filter1_i_132_960" x="0" y="173.991" width="166.498" height="194.151" filterUnits="userSpaceOnUse" color-interpolation-filters="sRGB">
<feFlood flood-opacity="0" result="BackgroundImageFix"/>
<feBlend mode="normal" in="SourceGraphic" in2="BackgroundImageFix" result="shape"/>
<feColorMatrix in="SourceAlpha" type="matrix" values="0 0 0 0 0 0 0 0 0 0 0 0 0 0 0 0 0 0 127 0" result="hardAlpha"/>
<feOffset dy="4"/>
<feGaussianBlur stdDeviation="2"/>
<feComposite in2="hardAlpha" operator="arithmetic" k2="-1" k3="1"/>
<feColorMatrix type="matrix" values="0 0 0 0 0 0 0 0 0 0 0 0 0 0 0 0 0 0 0.25 0"/>
<feBlend mode="normal" in2="shape" result="effect1_innerShadow_132_960"/>
</filter>
<filter id="filter2_i_132_960" x="964.184" y="184.725" width="406.314" height="198.56" filterUnits="userSpaceOnUse" color-interpolation-filters="sRGB">
<feFlood flood-opacity="0" result="BackgroundImageFix"/>
<feBlend mode="normal" in="SourceGraphic" in2="BackgroundImageFix" result="shape"/>
<feColorMatrix in="SourceAlpha" type="matrix" values="0 0 0 0 0 0 0 0 0 0 0 0 0 0 0 0 0 0 127 0" result="hardAlpha"/>
<feOffset dy="4"/>
<feGaussianBlur stdDeviation="2"/>
<feComposite in2="hardAlpha" operator="arithmetic" k2="-1" k3="1"/>
<feColorMatrix type="matrix" values="0 0 0 0 0 0 0 0 0 0 0 0 0 0 0 0 0 0 0.25 0"/>
<feBlend mode="normal" in2="shape" result="effect1_innerShadow_132_960"/>
</filter>
<filter id="filter3_i_132_960" x="1361.23" y="178.725" width="406.314" height="198.56" filterUnits="userSpaceOnUse" color-interpolation-filters="sRGB">
<feFlood flood-opacity="0" result="BackgroundImageFix"/>
<feBlend mode="normal" in="SourceGraphic" in2="BackgroundImageFix" result="shape"/>
<feColorMatrix in="SourceAlpha" type="matrix" values="0 0 0 0 0 0 0 0 0 0 0 0 0 0 0 0 0 0 127 0" result="hardAlpha"/>
<feOffset dy="4"/>
<feGaussianBlur stdDeviation="2"/>
<feComposite in2="hardAlpha" operator="arithmetic" k2="-1" k3="1"/>
<feColorMatrix type="matrix" values="0 0 0 0 0 0 0 0 0 0 0 0 0 0 0 0 0 0 0.25 0"/>
<feBlend mode="normal" in2="shape" result="effect1_innerShadow_132_960"/>
</filter>
<filter id="filter4_i_132_960" x="564.184" y="184.725" width="406.314" height="198.56" filterUnits="userSpaceOnUse" color-interpolation-filters="sRGB">
<feFlood flood-opacity="0" result="BackgroundImageFix"/>
<feBlend mode="normal" in="SourceGraphic" in2="BackgroundImageFix" result="shape"/>
<feColorMatrix in="SourceAlpha" type="matrix" values="0 0 0 0 0 0 0 0 0 0 0 0 0 0 0 0 0 0 127 0" result="hardAlpha"/>
<feOffset dy="4"/>
<feGaussianBlur stdDeviation="2"/>
<feComposite in2="hardAlpha" operator="arithmetic" k2="-1" k3="1"/>
<feColorMatrix type="matrix" values="0 0 0 0 0 0 0 0 0 0 0 0 0 0 0 0 0 0 0.25 0"/>
<feBlend mode="normal" in2="shape" result="effect1_innerShadow_132_960"/>
</filter>
</defs>
</svg>
