<svg width="495" height="557" viewBox="0 0 495 557" fill="none" xmlns="http://www.w3.org/2000/svg">
<g filter="url(#filter0_d_6_215)">
<rect x="7" width="487" height="549" fill="#393232"/>
<rect x="9.5" y="2.5" width="482" height="544" stroke="#AFAFAF" stroke-width="5"/>
</g>
<path d="M103.683 88.2567C102.84 88.2567 102.122 88.5292 101.527 89.0743C100.933 89.5698 100.635 90.2635 100.635 91.1553V108.324C100.635 109.216 100.982 109.984 101.676 110.628C102.37 111.223 103.138 111.52 103.98 111.52C104.723 111.52 105.268 111.347 105.615 111C105.962 110.604 106.234 110.207 106.433 109.811C106.631 109.365 106.829 108.968 107.027 108.622C107.275 108.225 107.647 108.027 108.142 108.027C108.885 108.027 109.579 108.176 110.223 108.473C110.867 108.77 111.487 109.117 112.081 109.514C112.725 109.86 113.37 110.182 114.014 110.48C114.658 110.777 115.327 110.926 116.021 110.926H123.304C124.147 110.926 124.865 110.703 125.46 110.257C126.104 109.761 126.748 109.315 127.392 108.919C127.442 108.869 127.59 108.795 127.838 108.696C128.135 108.547 128.457 108.399 128.804 108.25C129.151 108.052 129.448 107.878 129.696 107.73C129.994 107.581 130.192 107.482 130.291 107.432C131.331 106.689 132.198 105.797 132.892 104.757C133.586 103.716 134.131 102.601 134.527 101.412C134.973 100.173 135.295 98.9099 135.494 97.6216C135.692 96.3333 135.791 95.0945 135.791 93.9054C135.791 92.3693 135.593 91.0067 135.196 89.8175C134.8 88.5788 134.23 87.4639 133.487 86.4729C132.793 85.4819 131.951 84.5405 130.96 83.6486C130.018 82.7567 129.003 81.8648 127.912 80.9729C127.863 80.9233 127.764 80.8738 127.615 80.8242C127.516 80.7747 127.442 80.7251 127.392 80.6756C126.203 80.3783 124.939 80.1058 123.602 79.858C122.313 79.5607 121.05 79.3625 119.811 79.2634C118.225 79.1148 116.615 78.9909 114.98 78.8918C113.394 78.7927 111.957 78.5202 110.669 78.0742C109.381 77.6283 108.34 76.885 107.548 75.8445C106.755 74.804 106.358 73.2431 106.358 71.1621C106.358 70.072 106.606 69.081 107.102 68.1891C107.597 67.2476 108.241 66.4301 109.034 65.7364C109.876 65.0427 110.793 64.4976 111.784 64.1012C112.825 63.7048 113.89 63.5066 114.98 63.5066C116.615 63.5066 118.275 63.8535 119.96 64.5472C121.644 65.2409 123.156 66.0832 124.494 67.0742C125.138 67.5697 125.559 68.3377 125.757 69.3783C126.005 70.3693 126.203 71.385 126.352 72.4256C126.55 73.4661 126.847 74.3828 127.244 75.1756C127.689 75.9684 128.457 76.3648 129.548 76.3648C130.291 76.3648 130.935 76.0675 131.48 75.4729C132.025 74.8783 132.298 74.2094 132.298 73.4661V59.7904C132.298 58.849 132.025 57.9323 131.48 57.0404C130.985 56.0989 130.241 55.6282 129.25 55.6282C128.705 55.6282 128.235 55.7769 127.838 56.0742C127.442 56.3715 127.12 56.7431 126.872 57.189C126.624 57.635 126.426 58.1305 126.277 58.6755C126.129 59.171 126.005 59.6417 125.906 60.0877H125.608C125.014 60.0877 124.295 59.8152 123.453 59.2701C122.66 58.6755 122.016 58.2544 121.521 58.0066C121.273 57.9075 120.852 57.7589 120.257 57.5607C119.662 57.3129 119.018 57.0652 118.325 56.8174C117.68 56.5697 117.036 56.3467 116.392 56.1485C115.798 55.9503 115.376 55.8016 115.129 55.7025H114.46C113.617 55.7025 112.651 55.9007 111.561 56.2971C110.52 56.644 109.455 57.1147 108.365 57.7093C107.325 58.2544 106.334 58.8737 105.392 59.5674C104.5 60.2611 103.782 60.9053 103.237 61.4999C102.692 62.4909 102.221 63.3827 101.825 64.1755C101.428 64.9683 101.106 65.7611 100.858 66.5539C100.611 67.3467 100.412 68.1643 100.264 69.0066C100.115 69.849 100.041 70.7904 100.041 71.831C100.041 74.0607 100.462 75.9931 101.304 77.6283C102.196 79.2634 103.336 80.6756 104.723 81.8648C106.16 83.0044 107.795 83.9211 109.629 84.6148C111.511 85.2589 113.444 85.7049 115.426 85.9526C116.665 86.1013 117.854 86.2004 118.993 86.2499C120.183 86.2499 121.298 86.349 122.338 86.5472C123.428 86.6959 124.444 87.0427 125.385 87.5878C126.327 88.0833 127.169 88.9008 127.912 90.0405C128.061 90.2387 128.235 90.5608 128.433 91.0067C128.68 91.4031 128.804 91.6508 128.804 91.7499V96.9527C128.557 97.3986 128.334 97.8941 128.135 98.4392C127.937 98.9842 127.689 99.5045 127.392 100C127.144 100.495 126.822 100.966 126.426 101.412C126.079 101.809 125.608 102.081 125.014 102.23C124.32 102.428 123.651 102.577 123.007 102.676C122.412 102.725 121.843 102.948 121.298 103.345H115.723C115.376 103.146 115.104 103.022 114.906 102.973C114.707 102.874 114.484 102.8 114.237 102.75C114.039 102.7 113.816 102.651 113.568 102.601C113.32 102.502 112.973 102.378 112.527 102.23C111.388 101.784 110.372 101.065 109.48 100.074C108.638 99.0337 108.018 97.9189 107.622 96.7297C107.424 96.036 107.3 95.2184 107.25 94.277C107.201 93.286 107.077 92.3445 106.879 91.4526C106.68 90.5608 106.358 89.8175 105.912 89.2229C105.466 88.5788 104.723 88.2567 103.683 88.2567ZM138.907 92.7162C138.907 95.1441 139.279 97.4729 140.022 99.7027C140.765 101.883 141.831 103.815 143.218 105.5C144.605 107.185 146.315 108.523 148.346 109.514C150.378 110.505 152.657 111 155.184 111C157.761 111 160.263 110.529 162.691 109.588C165.119 108.646 167.076 107.086 168.563 104.905C169.157 104.013 169.702 103.122 170.198 102.23C170.693 101.288 170.941 100.248 170.941 99.1081C170.941 98.4144 170.693 97.8446 170.198 97.3986C169.752 96.9527 169.157 96.7297 168.414 96.7297C167.621 96.7297 166.952 96.9279 166.407 97.3243C165.862 97.7207 165.342 98.2162 164.846 98.8108C164.401 99.4054 163.955 100.025 163.509 100.669C163.112 101.313 162.666 101.858 162.171 102.304C161.527 102.849 160.759 103.245 159.867 103.493C158.975 103.691 158.182 104.063 157.488 104.608C157.34 104.608 156.993 104.633 156.448 104.682C155.952 104.682 155.63 104.682 155.482 104.682C153.995 104.682 152.632 104.41 151.394 103.865C150.155 103.27 149.065 102.502 148.123 101.561C147.232 100.57 146.513 99.4301 145.968 98.1419C145.473 96.8536 145.225 95.4909 145.225 94.054C145.225 93.9549 145.225 93.7567 145.225 93.4594C145.274 93.1621 145.299 92.9887 145.299 92.9391L145.596 92.7162C145.596 92.7162 145.869 92.6914 146.414 92.6418C146.959 92.5923 147.603 92.5675 148.346 92.5675C149.09 92.518 149.833 92.4932 150.576 92.4932C151.369 92.4436 152.038 92.4189 152.583 92.4189C153.128 92.4189 154.094 92.4189 155.482 92.4189C156.919 92.3693 158.405 92.3445 159.941 92.3445C161.527 92.3445 163.013 92.3693 164.401 92.4189C165.837 92.4189 166.828 92.4189 167.374 92.4189C168.166 92.2702 168.934 92.072 169.678 91.8243C170.421 91.5765 171.015 91.081 171.461 90.3378C171.461 90.2387 171.461 90.0405 171.461 89.7432C171.511 89.3963 171.536 89.1734 171.536 89.0743C171.536 88.6283 171.437 87.9594 171.238 87.0675C171.04 86.1261 170.792 85.1846 170.495 84.2432C170.247 83.2522 169.95 82.3603 169.603 81.5675C169.306 80.7251 169.058 80.1553 168.86 79.858C166.977 77.4796 164.946 75.5472 162.765 74.0607C160.585 72.5247 157.91 71.7566 154.738 71.7566C154.193 71.7566 153.623 71.7566 153.029 71.7566C152.484 71.7071 151.939 71.8062 151.394 72.0539C151.245 72.1035 150.973 72.2274 150.576 72.4256C150.229 72.5742 149.833 72.7724 149.387 73.0202C148.941 73.2184 148.52 73.4166 148.123 73.6148C147.727 73.813 147.455 73.9616 147.306 74.0607C145.671 74.9526 144.308 76.117 143.218 77.554C142.178 78.9414 141.335 80.4774 140.691 82.1621C140.047 83.7972 139.576 85.5315 139.279 87.3648C139.031 89.1981 138.907 90.9819 138.907 92.7162ZM145.894 85.8783C145.894 84.6396 146.191 83.5742 146.786 82.6824C147.38 81.7409 148.123 80.9729 149.015 80.3783C149.907 79.7837 150.898 79.3625 151.988 79.1148C153.078 78.8175 154.144 78.6688 155.184 78.6688C156.126 78.6688 157.117 78.7927 158.157 79.0405C159.247 79.2386 160.238 79.5855 161.13 80.081C162.022 80.5269 162.765 81.1711 163.36 82.0134C163.955 82.8062 164.252 83.7972 164.252 84.9864C164.252 85.0855 164.252 85.2589 164.252 85.5067C164.252 85.7544 164.227 85.9279 164.178 86.027C164.078 86.1261 163.93 86.2499 163.732 86.3986C163.583 86.4977 163.459 86.5472 163.36 86.5472H146.191C145.993 86.5472 145.894 86.4729 145.894 86.3243C145.894 86.1261 145.894 85.9774 145.894 85.8783ZM185.654 95.8378C185.654 98.3153 185.952 100.495 186.546 102.378C187.191 104.261 188.528 105.995 190.56 107.581C190.609 107.631 190.758 107.705 191.006 107.804C191.254 107.903 191.501 108.027 191.749 108.176C191.997 108.275 192.245 108.399 192.492 108.547C192.74 108.646 192.889 108.696 192.938 108.696C193.483 109.092 193.904 109.414 194.202 109.662C194.549 109.86 194.871 110.034 195.168 110.182C195.515 110.282 195.886 110.356 196.283 110.405C196.679 110.455 197.249 110.48 197.992 110.48C199.875 110.48 201.535 110.034 202.972 109.142C204.409 108.2 205.598 107.036 206.54 105.649C207.531 104.212 208.274 102.626 208.769 100.892C209.265 99.1576 209.513 97.4482 209.513 95.7635C209.513 94.7229 209.265 93.7567 208.769 92.8648C208.274 91.9729 207.407 91.527 206.168 91.527C205.326 91.527 204.682 91.8243 204.236 92.4189C203.79 92.9639 203.443 93.6576 203.195 94.5C202.947 95.3423 202.7 96.259 202.452 97.25C202.254 98.1914 201.956 99.0833 201.56 99.9256C201.213 100.768 200.693 101.486 199.999 102.081C199.305 102.626 198.364 102.899 197.175 102.899C196.729 102.899 196.258 102.75 195.763 102.453C195.267 102.106 194.796 101.709 194.35 101.263C193.954 100.818 193.607 100.347 193.31 99.8513C193.062 99.3558 192.938 98.9099 192.938 98.5135V77.8513L193.83 77.0337C193.88 76.9841 194.177 76.9594 194.722 76.9594C195.317 76.9098 195.763 76.885 196.06 76.885C197.497 76.885 198.736 77.0585 199.776 77.4053C200.866 77.7026 202.031 77.8513 203.269 77.8513C204.26 77.8513 205.053 77.5044 205.648 76.8107C206.292 76.0675 206.614 75.2003 206.614 74.2094C206.614 73.1688 206.242 72.2026 205.499 71.3107C204.756 70.4188 203.814 69.9729 202.675 69.9729C201.684 69.9729 200.693 70.0472 199.702 70.1958C198.76 70.2949 197.769 70.3445 196.729 70.3445C196.332 70.3445 195.787 70.3445 195.094 70.3445C194.45 70.3445 194.103 70.3197 194.053 70.2702L193.533 69.7499C193.483 69.7003 193.459 69.3783 193.459 68.7837C193.459 68.1891 193.459 67.7431 193.459 67.4458C193.459 66.2566 193.508 65.117 193.607 64.0269C193.756 62.9368 193.83 61.8219 193.83 60.6823C193.83 59.4931 193.657 58.4773 193.31 57.635C193.013 56.7431 192.145 56.2971 190.709 56.2971C189.272 56.2971 188.33 56.7431 187.884 57.635C187.438 58.4773 187.166 59.5179 187.067 60.7566C187.017 61.9458 186.992 63.1598 186.992 64.3985C186.992 65.6373 186.745 66.6283 186.249 67.3715C185.704 68.1643 185.035 68.6598 184.242 68.858C183.499 69.0066 182.681 69.081 181.79 69.081C180.947 69.081 180.105 69.1057 179.263 69.1553C178.47 69.2048 177.776 69.4774 177.181 69.9729C176.587 70.5179 175.992 71.0877 175.398 71.6823C174.853 72.2769 174.58 73.0202 174.58 73.9121C174.58 74.5067 174.778 75.1508 175.175 75.8445C175.621 76.5382 176.19 76.885 176.884 76.885H186.249V85.1351C185.654 86.7702 185.407 88.5292 185.506 90.4121C185.605 92.295 185.654 94.1036 185.654 95.8378ZM223.723 95.8378C223.723 98.3153 224.02 100.495 224.614 102.378C225.259 104.261 226.596 105.995 228.628 107.581C228.678 107.631 228.826 107.705 229.074 107.804C229.322 107.903 229.569 108.027 229.817 108.176C230.065 108.275 230.313 108.399 230.56 108.547C230.808 108.646 230.957 108.696 231.006 108.696C231.551 109.092 231.973 109.414 232.27 109.662C232.617 109.86 232.939 110.034 233.236 110.182C233.583 110.282 233.955 110.356 234.351 110.405C234.747 110.455 235.317 110.48 236.06 110.48C237.943 110.48 239.603 110.034 241.04 109.142C242.477 108.2 243.666 107.036 244.608 105.649C245.599 104.212 246.342 102.626 246.837 100.892C247.333 99.1576 247.581 97.4482 247.581 95.7635C247.581 94.7229 247.333 93.7567 246.837 92.8648C246.342 91.9729 245.475 91.527 244.236 91.527C243.394 91.527 242.75 91.8243 242.304 92.4189C241.858 92.9639 241.511 93.6576 241.263 94.5C241.015 95.3423 240.768 96.259 240.52 97.25C240.322 98.1914 240.024 99.0833 239.628 99.9256C239.281 100.768 238.761 101.486 238.067 102.081C237.373 102.626 236.432 102.899 235.243 102.899C234.797 102.899 234.326 102.75 233.831 102.453C233.335 102.106 232.864 101.709 232.419 101.263C232.022 100.818 231.675 100.347 231.378 99.8513C231.13 99.3558 231.006 98.9099 231.006 98.5135V77.8513L231.898 77.0337C231.948 76.9841 232.245 76.9594 232.79 76.9594C233.385 76.9098 233.831 76.885 234.128 76.885C235.565 76.885 236.804 77.0585 237.844 77.4053C238.934 77.7026 240.099 77.8513 241.337 77.8513C242.328 77.8513 243.121 77.5044 243.716 76.8107C244.36 76.0675 244.682 75.2003 244.682 74.2094C244.682 73.1688 244.31 72.2026 243.567 71.3107C242.824 70.4188 241.883 69.9729 240.743 69.9729C239.752 69.9729 238.761 70.0472 237.77 70.1958C236.828 70.2949 235.837 70.3445 234.797 70.3445C234.401 70.3445 233.855 70.3445 233.162 70.3445C232.518 70.3445 232.171 70.3197 232.121 70.2702L231.601 69.7499C231.551 69.7003 231.527 69.3783 231.527 68.7837C231.527 68.1891 231.527 67.7431 231.527 67.4458C231.527 66.2566 231.576 65.117 231.675 64.0269C231.824 62.9368 231.898 61.8219 231.898 60.6823C231.898 59.4931 231.725 58.4773 231.378 57.635C231.081 56.7431 230.214 56.2971 228.777 56.2971C227.34 56.2971 226.398 56.7431 225.952 57.635C225.506 58.4773 225.234 59.5179 225.135 60.7566C225.085 61.9458 225.06 63.1598 225.06 64.3985C225.06 65.6373 224.813 66.6283 224.317 67.3715C223.772 68.1643 223.103 68.6598 222.31 68.858C221.567 69.0066 220.75 69.081 219.858 69.081C219.015 69.081 218.173 69.1057 217.331 69.1553C216.538 69.2048 215.844 69.4774 215.25 69.9729C214.655 70.5179 214.06 71.0877 213.466 71.6823C212.921 72.2769 212.648 73.0202 212.648 73.9121C212.648 74.5067 212.846 75.1508 213.243 75.8445C213.689 76.5382 214.259 76.885 214.952 76.885H224.317V85.1351C223.723 86.7702 223.475 88.5292 223.574 90.4121C223.673 92.295 223.723 94.1036 223.723 95.8378ZM250.716 107.432C250.716 108.275 250.964 108.993 251.46 109.588C252.005 110.182 252.723 110.48 253.615 110.48H278.96C279.802 110.48 280.397 110.133 280.743 109.439C281.14 108.745 281.338 108.052 281.338 107.358C281.338 107.011 281.264 106.59 281.115 106.095C281.016 105.599 280.818 105.128 280.52 104.682C280.273 104.236 279.951 103.865 279.554 103.568C279.207 103.221 278.811 103.047 278.365 103.047H270.487L270.041 102.601V74.9526C270.041 73.9121 269.57 73.1193 268.629 72.5742C267.737 72.0292 266.869 71.7566 266.027 71.7566C265.433 71.7566 264.838 71.8062 264.243 71.9053C263.698 72.0044 263.128 72.0539 262.534 72.0539C261.692 72.0539 260.849 72.0044 260.007 71.9053C259.214 71.8062 258.397 71.7566 257.554 71.7566C257.009 71.7566 256.39 71.8062 255.696 71.9053C255.052 71.9548 254.433 72.1035 253.838 72.3512C253.293 72.5494 252.822 72.8715 252.426 73.3175C252.029 73.7634 251.831 74.3828 251.831 75.1756C251.831 75.572 251.881 76.0179 251.98 76.5134C252.128 76.9594 252.327 77.3805 252.574 77.7769C252.822 78.1733 253.119 78.5202 253.466 78.8175C253.863 79.0652 254.309 79.1891 254.804 79.1891H263.5V95.6148C263.451 95.7139 263.401 95.9617 263.351 96.3581C263.302 96.7545 263.252 97.0022 263.203 97.1013C263.203 97.2995 263.178 97.6464 263.128 98.1419C263.128 98.6374 263.104 99.1576 263.054 99.7027C263.005 100.248 262.955 100.768 262.906 101.263C262.906 101.759 262.906 102.106 262.906 102.304L262.385 103.047H254.21C253.02 103.047 252.128 103.543 251.534 104.534C250.989 105.475 250.716 106.441 250.716 107.432ZM260.601 62.6147C260.601 64.2499 261.023 65.662 261.865 66.8512C262.757 68.0404 264.045 68.635 265.73 68.635C267.117 68.635 268.356 68.2138 269.446 67.3715C270.536 66.4796 271.081 65.2904 271.081 63.8039C271.081 63.0607 270.933 62.3174 270.635 61.5742C270.388 60.8309 270.016 60.162 269.52 59.5674C269.074 58.9233 268.505 58.4278 267.811 58.0809C267.167 57.6845 266.448 57.4863 265.656 57.4863C264.169 57.4863 262.955 57.9818 262.014 58.9728C261.072 59.9638 260.601 61.1778 260.601 62.6147ZM284.357 106.764C284.357 107.854 284.555 108.646 284.951 109.142C285.348 109.637 285.868 109.984 286.512 110.182C287.206 110.381 287.974 110.505 288.816 110.554C289.659 110.554 290.501 110.604 291.343 110.703C291.442 110.703 291.69 110.752 292.087 110.851C292.483 110.95 292.731 111 292.83 111H295.877H298.924C299.915 110.901 300.783 110.604 301.526 110.108C302.319 109.563 302.715 108.77 302.715 107.73C302.715 106.441 302.442 105.55 301.897 105.054C301.402 104.559 300.783 104.212 300.039 104.013C299.346 103.815 298.652 103.691 297.958 103.642C297.314 103.543 296.843 103.27 296.546 102.824V101.709C296.546 101.164 296.546 100.718 296.546 100.372C296.596 100.025 296.744 99.6036 296.992 99.1081V90.6351C296.992 90.6351 297.116 90.4121 297.364 89.9662C297.661 89.5202 297.884 89.1734 298.033 88.9256C298.082 88.8265 298.181 88.6779 298.33 88.4797C298.479 88.2319 298.578 88.0833 298.627 88.0337C299.172 87.0923 299.792 86.1013 300.485 85.0607C301.229 83.9706 302.046 82.9796 302.938 82.0878C303.83 81.1959 304.796 80.4526 305.837 79.858C306.927 79.2634 308.091 78.9661 309.33 78.9661C310.073 78.9661 310.792 79.0404 311.485 79.1891C312.179 79.2882 312.749 79.7094 313.195 80.4526C313.195 80.6013 313.195 80.8738 313.195 81.2702C313.244 81.6666 313.269 82.0878 313.269 82.5337C313.319 82.9301 313.343 83.3265 313.343 83.7229C313.393 84.1193 313.418 84.3918 313.418 84.5405C313.467 84.6396 313.517 84.9369 313.566 85.4324C313.665 85.8783 313.715 86.1508 313.715 86.2499V86.3986V86.5472C313.715 86.6959 313.641 86.9932 313.492 87.4391C313.393 87.8851 313.319 88.1824 313.269 88.331V99.6283L312.6 102.527L312.303 102.824C310.717 102.923 309.379 103.245 308.289 103.791C307.249 104.286 306.729 105.475 306.729 107.358C306.729 108.944 307.521 109.959 309.107 110.405C309.503 110.405 310.197 110.43 311.188 110.48C312.179 110.529 313.22 110.579 314.31 110.628C315.449 110.628 316.515 110.653 317.506 110.703C318.497 110.703 319.19 110.703 319.587 110.703H320.702C321.891 110.703 322.857 110.505 323.6 110.108C324.393 109.662 324.789 108.795 324.789 107.507C324.789 105.921 324.244 104.806 323.154 104.162C322.114 103.518 320.925 103.072 319.587 102.824L319.289 102.527C319.289 102.527 319.265 102.403 319.215 102.155C319.215 101.858 319.215 101.635 319.215 101.486C319.215 100.941 319.215 100.446 319.215 100C319.265 99.554 319.388 99.0585 319.587 98.5135V80.1553C319.587 79.0157 319.314 77.9008 318.769 76.8107C318.224 75.7206 317.506 74.7544 316.614 73.9121C315.771 73.0697 314.78 72.4008 313.641 71.9053C312.551 71.3602 311.461 71.0877 310.37 71.0877C308.587 71.0877 306.902 71.5832 305.316 72.5742C303.78 73.5157 302.319 74.4819 300.931 75.4729C300.634 75.6711 300.337 75.9684 300.039 76.3648C299.742 76.7612 299.445 77.1576 299.147 77.554C298.85 77.9504 298.553 78.2972 298.256 78.5945C298.008 78.8918 297.735 79.0405 297.438 79.0405C297.438 79.0405 297.388 79.0405 297.289 79.0405C297.24 79.0405 297.19 79.0157 297.141 78.9661C297.042 77.6778 296.893 76.6125 296.695 75.7702C296.497 74.9278 296.15 74.2589 295.654 73.7634C295.159 73.2184 294.465 72.7972 293.573 72.4999C292.731 72.2026 291.591 71.9548 290.154 71.7566C290.154 71.7071 289.981 71.6823 289.634 71.6823C289.337 71.6823 289.114 71.6823 288.965 71.6823C287.875 71.6823 286.859 71.9301 285.918 72.4256C285.026 72.8715 284.58 73.7386 284.58 75.0269C284.58 76.2161 284.877 77.108 285.472 77.7026C286.116 78.2477 286.785 78.6688 287.478 78.9661C288.222 79.2634 288.891 79.5112 289.485 79.7094C290.129 79.858 290.451 80.1058 290.451 80.4526V97.6216C290.303 98.3648 290.179 99.2072 290.08 100.149C290.03 101.041 289.956 101.833 289.857 102.527L289.56 102.824C288.073 102.923 286.834 103.196 285.843 103.642C284.852 104.038 284.357 105.079 284.357 106.764ZM327.941 114.419C327.941 116.698 328.486 118.507 329.576 119.845C330.716 121.232 332.302 122.273 334.333 122.966C334.73 123.065 335.052 123.239 335.299 123.487C335.597 123.784 335.944 124.007 336.34 124.155C338.421 124.899 340.453 125.369 342.435 125.568C344.416 125.766 346.522 125.865 348.752 125.865C350.734 125.865 352.741 125.642 354.772 125.196C356.853 124.8 358.736 124.106 360.421 123.115C362.106 122.173 363.468 120.885 364.509 119.25C365.549 117.664 366.07 115.682 366.07 113.304C366.07 112.363 365.946 111.52 365.698 110.777C365.45 110.034 365.103 109.365 364.658 108.77C364.212 108.126 363.691 107.532 363.097 106.986C362.502 106.441 361.833 105.847 361.09 105.203C360.743 104.905 360.495 104.682 360.347 104.534C360.198 104.385 360.074 104.261 359.975 104.162C359.876 104.063 359.727 103.964 359.529 103.865C359.381 103.766 359.133 103.642 358.786 103.493C357.944 103.196 356.953 103.047 355.813 103.047C354.723 103.047 353.856 102.998 353.212 102.899C353.112 102.899 352.84 102.849 352.394 102.75C351.998 102.651 351.552 102.552 351.056 102.453C350.561 102.354 350.09 102.254 349.644 102.155C349.248 102.056 349 102.007 348.901 102.007H346.299C344.565 102.007 342.88 102.254 341.245 102.75C339.61 103.245 337.925 103.493 336.191 103.493C335.944 103.493 335.696 103.394 335.448 103.196C335.2 102.998 335.027 102.8 334.928 102.601V101.561C334.928 100.768 335.076 100.074 335.374 99.4797C335.721 98.8356 336.365 98.5135 337.306 98.5135C338.099 98.5135 338.842 98.6374 339.536 98.8851C340.23 99.0833 340.898 99.3063 341.543 99.554C342.236 99.8018 342.93 100.05 343.624 100.297C344.317 100.495 345.061 100.595 345.853 100.595C346.448 100.595 346.919 100.57 347.266 100.52C347.662 100.421 348.009 100.297 348.306 100.149C348.653 100 349 99.8513 349.347 99.7027C349.694 99.5045 350.115 99.3063 350.61 99.1081C351.899 98.6126 352.989 97.9437 353.88 97.1013C354.822 96.2094 355.59 95.2184 356.185 94.1283C356.779 92.9887 357.2 91.7747 357.448 90.4864C357.745 89.1981 357.894 87.8851 357.894 86.5472C357.894 85.3085 357.721 84.1441 357.374 83.054C357.027 81.9143 356.853 80.7251 356.853 79.4864C357.151 79.4864 357.423 79.7341 357.671 80.2296C357.968 80.7251 358.315 81.295 358.712 81.9391C359.108 82.5337 359.628 83.0788 360.272 83.5742C360.917 84.0697 361.784 84.3175 362.874 84.3175C364.41 84.3175 365.475 83.7724 366.07 82.6824C366.664 81.5427 366.962 80.2792 366.962 78.8918C366.962 77.8017 366.689 76.8107 366.144 75.9188C365.649 75.0269 364.98 74.2837 364.137 73.6891C363.344 73.0449 362.428 72.5742 361.387 72.2769C360.347 71.9301 359.331 71.7566 358.34 71.7566C356.408 71.7566 354.698 72.4503 353.212 73.8377H351.799C351.106 73.8377 350.437 73.7386 349.793 73.5404C349.148 73.2927 348.504 73.0449 347.86 72.7972C347.266 72.5494 346.646 72.3265 346.002 72.1283C345.358 71.8805 344.714 71.7566 344.07 71.7566C343.921 71.7566 343.698 71.8062 343.401 71.9053C343.103 71.9548 342.806 72.0292 342.509 72.1283C342.212 72.2274 341.914 72.3265 341.617 72.4256C341.369 72.5247 341.171 72.599 341.022 72.6485C338.198 73.8873 335.968 75.6711 334.333 77.9999C332.748 80.3287 331.955 83.054 331.955 86.1756C331.955 87.3152 332.103 88.4053 332.401 89.4459C332.748 90.4864 332.921 91.5765 332.921 92.7162C332.921 92.8153 332.921 92.9639 332.921 93.1621C332.921 93.3603 332.896 93.509 332.847 93.6081C331.657 94.7477 330.666 95.9617 329.874 97.25C329.13 98.4887 328.759 99.9504 328.759 101.635C328.759 102.18 328.858 102.725 329.056 103.27C329.254 103.766 329.452 104.261 329.651 104.757C329.898 105.252 330.121 105.748 330.32 106.243C330.518 106.739 330.617 107.234 330.617 107.73L330.543 108.101C329.7 109.043 329.056 109.984 328.61 110.926C328.164 111.867 327.941 113.032 327.941 114.419ZM334.333 114.791V113.527C334.333 112.288 334.73 111.347 335.522 110.703C336.365 110.009 337.356 109.489 338.495 109.142C339.685 108.795 340.923 108.597 342.212 108.547C343.5 108.448 344.615 108.399 345.556 108.399C346.25 108.399 347.389 108.448 348.975 108.547C350.61 108.646 352.245 108.894 353.88 109.291C355.565 109.637 357.027 110.158 358.266 110.851C359.554 111.545 360.198 112.486 360.198 113.676C360.198 114.419 359.95 115.063 359.455 115.608C358.959 116.153 358.365 116.624 357.671 117.02C356.977 117.417 356.234 117.739 355.441 117.987C354.698 118.234 354.054 118.432 353.509 118.581C352.072 118.68 350.511 118.755 348.826 118.804C347.191 118.854 345.581 118.878 343.995 118.878C342.063 118.878 340.279 118.556 338.644 117.912C337.058 117.268 335.621 116.227 334.333 114.791ZM337.232 86.4729C337.232 85.3828 337.455 84.367 337.901 83.4256C338.347 82.4842 338.941 81.6666 339.685 80.9729C340.428 80.2792 341.27 79.7341 342.212 79.3377C343.203 78.9414 344.218 78.7432 345.259 78.7432C347.538 78.7432 349.248 79.5112 350.387 81.0472C351.527 82.5337 352.097 84.3918 352.097 86.6216C352.097 87.7116 351.923 88.7522 351.576 89.7432C351.23 90.7342 350.734 91.6013 350.09 92.3445C349.446 93.0878 348.653 93.6824 347.712 94.1283C346.82 94.5743 345.804 94.7973 344.664 94.7973C343.624 94.7973 342.633 94.5495 341.691 94.054C340.799 93.5585 340.007 92.9391 339.313 92.1959C338.669 91.4031 338.148 90.5112 337.752 89.5202C337.405 88.5292 337.232 87.5134 337.232 86.4729ZM370.001 107.284C370.001 108.176 370.175 109.068 370.522 109.959C370.918 110.802 371.661 111.223 372.751 111.223C373.643 111.223 374.287 111.025 374.684 110.628C375.13 110.232 375.427 109.786 375.576 109.291C375.774 108.745 375.923 108.25 376.022 107.804C376.17 107.309 376.393 106.986 376.691 106.838C377.533 107.284 378.301 107.878 378.995 108.622C379.688 109.315 380.481 109.786 381.373 110.034C381.522 110.083 381.769 110.158 382.116 110.257C382.463 110.356 382.81 110.455 383.157 110.554C383.553 110.653 383.9 110.752 384.197 110.851C384.544 110.901 384.767 110.926 384.866 110.926C384.916 110.926 385.188 110.95 385.684 111C386.179 111 386.576 111 386.873 111C388.657 111 390.366 110.678 392.001 110.034C393.686 109.39 395.173 108.498 396.461 107.358C397.799 106.169 398.864 104.782 399.657 103.196C400.45 101.61 400.846 99.8761 400.846 97.9932C400.846 96.1599 400.375 94.4752 399.434 92.9391C398.542 91.3535 397.452 89.9662 396.164 88.777C393.637 87.7364 390.936 86.9684 388.062 86.4729C385.188 85.9774 382.364 85.7792 379.589 85.8783C378.598 85.6306 377.805 85.2094 377.211 84.6148C376.666 84.0202 376.393 83.1531 376.393 82.0134C376.393 81.5675 376.492 81.0968 376.691 80.6013C376.938 80.1058 377.236 79.6598 377.582 79.2634C377.979 78.8175 378.4 78.4459 378.846 78.1486C379.292 77.8513 379.738 77.6283 380.184 77.4796C380.432 77.4796 380.902 77.4796 381.596 77.4796C382.29 77.4301 382.736 77.4053 382.934 77.4053C383.628 77.4053 384.173 77.4053 384.569 77.4053C384.965 77.4053 385.337 77.4301 385.684 77.4796C386.031 77.5292 386.378 77.6035 386.724 77.7026C387.121 77.7522 387.666 77.876 388.36 78.0742C389.45 78.3715 390.292 78.9909 390.887 79.9323C391.481 80.8738 392.001 81.8648 392.447 82.9053C392.893 83.8963 393.364 84.7882 393.86 85.581C394.405 86.3738 395.123 86.7702 396.015 86.7702C397.055 86.7702 397.824 86.3243 398.319 85.4324C398.864 84.4909 399.137 83.5742 399.137 82.6824V81.7905C399.137 81.4932 399.112 80.9729 399.062 80.2296C399.013 79.4368 398.963 78.6193 398.914 77.7769C398.914 76.885 398.889 76.0675 398.839 75.3242C398.839 74.5314 398.839 73.9864 398.839 73.6891C398.889 72.9954 398.616 72.4008 398.022 71.9053C397.477 71.3602 396.857 71.0877 396.164 71.0877C395.668 71.0877 395.272 71.1868 394.974 71.385C394.677 71.5832 394.405 71.831 394.157 72.1283C393.959 72.4256 393.736 72.7476 393.488 73.0945C393.29 73.4413 393.017 73.7386 392.67 73.9864C391.184 72.9458 389.499 72.1778 387.616 71.6823C385.783 71.1373 383.974 70.7409 382.191 70.4931H381.522C380.878 70.4931 380.233 70.5922 379.589 70.7904C378.995 70.9391 378.425 71.1373 377.88 71.385C375.501 72.376 373.668 73.6395 372.38 75.1756C371.141 76.7116 370.522 78.7927 370.522 81.4188C370.522 83.6981 370.844 85.5315 371.488 86.9189C372.182 88.3062 373.073 89.3963 374.164 90.1891C375.303 90.9819 376.616 91.5517 378.103 91.8986C379.639 92.2454 381.224 92.518 382.86 92.7162C384.495 92.9144 386.155 93.1126 387.839 93.3108C389.524 93.509 391.134 93.8558 392.67 94.3513C393.513 94.6982 394.058 95.1193 394.305 95.6148C394.603 96.1103 394.751 96.7792 394.751 97.6216C394.751 98.8108 394.454 99.8265 393.86 100.669C393.314 101.462 392.596 102.106 391.704 102.601C390.862 103.097 389.896 103.468 388.805 103.716C387.765 103.914 386.724 104.013 385.684 104.013C384.495 104.013 383.429 103.84 382.488 103.493C381.596 103.097 380.778 102.601 380.035 102.007C379.292 101.363 378.598 100.644 377.954 99.8513C377.359 99.009 376.74 98.1419 376.096 97.25C375.799 96.8536 375.625 96.3828 375.576 95.8378C375.526 95.2432 375.328 94.7477 374.981 94.3513C374.733 94.1036 374.411 93.9549 374.015 93.9054C373.668 93.8063 373.346 93.7567 373.049 93.7567C372.405 93.7567 371.81 93.9797 371.265 94.4256C370.72 94.822 370.447 95.3671 370.447 96.0608V104.831C370.2 105.327 370.051 105.748 370.001 106.095C370.001 106.392 370.001 106.788 370.001 107.284Z" fill="white"/>
<path d="M99.2975 120.291H401.738V124.007H99.2975V120.291Z" fill="white"/>
<path d="M51 223.441C51.867 222.974 51.9988 222.283 52.2074 221.24C53.4928 214.813 53.3331 208.134 54.4274 201.669C56.3722 190.18 62.9249 161.787 80.7174 169.225C88.3588 172.419 95.1081 179.319 100.542 185.31C105.433 190.704 109.182 196.599 113.044 202.72C115.799 207.087 118.624 211.391 121.788 215.476C123.616 217.836 124.5 219.062 126.014 215.768C128.381 210.615 130.1 205.388 133.083 200.5C134.126 198.791 136.788 193.645 139.918 195.281C143.925 197.376 147.317 202.816 150.298 205.972C153.1 208.938 157.669 214.79 162.703 213.236C167.554 211.739 169.924 206.151 174.972 204.551C181.734 202.407 187.58 206.554 192.771 210.276C197.549 213.702 202.459 219.532 208.876 219.76C210.833 219.83 212.802 219.346 214.66 218.728C220.992 216.62 226.684 212.849 233.004 210.704C245.939 206.314 258.759 204.814 272.05 208.601C275.195 209.498 278.167 210.942 281.105 212.379C282.945 213.279 284.552 214.6 286.344 215.592C287.206 216.07 288.069 216.864 289.05 216.78C289.801 216.716 290.214 215.809 290.686 215.222C293.779 211.379 293.142 210.211 298.203 207.297C306.333 202.615 315.427 203.516 324.026 206.225C326.352 206.959 328.54 208.083 330.744 209.127C331.144 209.316 335.865 212.404 337.521 211.99C338.376 211.776 338.954 210.948 339.566 210.315C342.877 206.89 342.855 205.235 347.745 202.954C354.914 199.611 362.597 200.486 369.79 203.032C373.065 204.191 376.029 207.035 379.683 205.836C385.867 203.806 390.571 201.26 397.384 200.929C405.923 200.513 413.874 202.572 421.084 207.16C422.701 208.189 424.126 209.496 425.563 210.763C426.968 212.002 427.895 213.805 429.497 214.775C430.948 215.653 429.275 211.388 429.263 209.692C429.217 202.915 434.652 202.014 440.013 204.2C443.37 205.569 446.603 205.213 450.256 205.213" stroke="white" stroke-width="3" stroke-linecap="round"/>
<path d="M56 356.87C56.1539 355.792 56.7357 354.794 57.1295 353.793C58.8122 349.512 60.4767 345.274 62.5822 341.173C64.2516 337.922 66.3742 334.879 67.6455 331.436C68.652 328.71 69.439 326.002 70.956 323.491C73.1919 319.79 77.0848 313.979 81.4331 312.508C84.4848 311.475 89.0471 318.404 90.2353 320.258C92.7525 324.188 93.7202 329.457 97.2849 332.722C99.2387 334.511 102.514 332.982 104.296 331.748C108.686 328.709 110.571 323.683 112.825 319.09C113.732 317.242 116.171 309.373 119.368 312.897C124.118 318.133 125.998 325.615 130.741 330.813C135.116 335.608 141.292 327.228 144.646 324.971C150.005 321.365 156.077 318.324 161.082 324.153C163.072 326.471 165.774 331.69 167.119 334.358C167.767 335.644 168.319 336.976 168.949 338.272C169.241 338.872 169.316 339.693 169.884 340.044C170.201 340.24 170.039 339.306 170.02 338.934C169.96 337.702 169.724 336.484 169.65 335.253C169.471 332.258 169.054 326.599 170.429 323.725C175.172 313.812 191.366 321.651 197.81 324.348C206.33 327.914 206.139 328.508 213.973 332.138C215.667 332.922 219.354 334.901 221.724 334.202C223.312 333.733 225.433 330.701 226.32 329.762C228.096 327.88 230.115 325.587 232.941 325.244C240.914 324.274 247.6 332.65 252.843 337.24C254.32 338.532 256.665 340.794 258.919 341.057C260.876 341.285 263.498 339.797 265.073 339.109C273.556 335.406 281.379 334.371 290.584 336.188C295.765 337.211 296.226 337.901 300.711 339.46C302.753 340.17 303.854 340.628 306.007 340.083C308.273 339.509 312.277 337.305 314.148 336.461C318.903 334.314 322.681 332.642 327.935 331.748C337.976 330.041 346.783 332.135 356.445 334.202C359.304 334.813 359.058 334.531 361.781 333.423C366.336 331.569 368.063 330.392 373.465 329.995C384.491 329.186 394.006 333.151 402.832 339.304C403.324 339.646 405.918 341.996 407.233 341.836C408.239 341.713 410.402 339.097 410.7 338.798C414.714 334.767 418.89 331.858 424.721 331.359C429.453 330.953 434.506 332.343 439.132 333.033" stroke="white" stroke-width="3" stroke-linecap="round"/>
<path d="M60 464.282C60.4955 464.282 60.4232 464.073 60.467 463.548C60.6959 460.801 61.3852 458.239 62.5015 455.71C65.1058 449.81 70.5844 445.61 77.1438 445.037C85.9257 444.269 90.2727 455.762 96.0886 460.279C104.538 466.843 111.2 450.664 117.635 448.339C125.785 445.393 132.4 469.324 137.547 464.882C140.923 461.969 142.575 458.095 147.853 458.578C152.484 459.002 155.642 462.231 159.26 464.649C163.179 467.266 167.094 464.61 170.901 463.014C177.851 460.101 185.355 456.972 193.081 458.345C195.044 458.694 196.61 459.563 198.117 460.78C198.699 461.25 199.76 462.583 200.485 462.981C201.449 463.51 202.39 463.386 203.387 462.981C208.277 460.996 212.362 457.749 217.412 455.943C227.295 452.411 237.555 452.025 246.513 458.078C250.404 460.707 251.706 464.638 256.803 462.464C260.306 460.97 263.491 458.798 266.976 457.261C273.068 454.574 277.199 453.089 284.003 452.691C292.726 452.181 301.897 454.436 307.317 461.697C308.955 463.891 308.329 465.15 309.852 462.597C312.915 457.462 317.621 453.864 323.844 453.759C331.831 453.623 339.957 457.784 345.757 463.014C347.882 464.93 348.715 467.828 351.361 465.299C357.574 459.358 363.675 455.444 372.507 454.326C378.272 453.596 385.998 453.744 388.733 459.846C389.155 460.787 389.261 463.499 390.017 461.513C391.468 457.705 395.111 459.031 398.172 460.329C401.477 461.731 404.811 463.754 407.912 465.532C409.162 466.249 412.697 468.479 414.499 468.968C417.042 469.658 418.361 466.632 420.686 466.1C424.216 465.291 427.507 467.198 430.992 466.983C432.663 466.881 434.054 466.194 435.595 465.616C437.787 464.794 439.92 464.335 442.132 463.681" stroke="white" stroke-width="3" stroke-linecap="round"/>
<defs>
<filter id="filter0_d_6_215" x="0" y="0" width="495" height="557" filterUnits="userSpaceOnUse" color-interpolation-filters="sRGB">
<feFlood flood-opacity="0" result="BackgroundImageFix"/>
<feColorMatrix in="SourceAlpha" type="matrix" values="0 0 0 0 0 0 0 0 0 0 0 0 0 0 0 0 0 0 127 0" result="hardAlpha"/>
<feOffset dx="-3" dy="4"/>
<feGaussianBlur stdDeviation="2"/>
<feComposite in2="hardAlpha" operator="out"/>
<feColorMatrix type="matrix" values="0 0 0 0 0 0 0 0 0 0 0 0 0 0 0 0 0 0 0.25 0"/>
<feBlend mode="normal" in2="BackgroundImageFix" result="effect1_dropShadow_6_215"/>
<feBlend mode="normal" in="SourceGraphic" in2="effect1_dropShadow_6_215" result="shape"/>
</filter>
</defs>
</svg>
