<svg width="128" height="351" viewBox="0 0 128 351" fill="none" xmlns="http://www.w3.org/2000/svg">
<rect width="128" height="160" transform="translate(0 5)" fill="white"/>
<rect x="0.651184" y="5.65118" width="126.698" height="158.698" fill="#393232" stroke="#AFAFAF" stroke-width="1.30237"/>
<path d="M28.5568 23.5304C28.5568 23.724 28.5891 23.8788 28.6536 23.995C28.731 24.1111 28.8149 24.2208 28.9053 24.3241C29.0085 24.4274 29.1053 24.5435 29.1957 24.6726C29.2989 24.8016 29.3699 24.9759 29.4086 25.1953C29.6409 26.4601 29.8732 27.7249 30.1056 28.9898C30.3379 30.2417 30.5573 31.5 30.7638 32.7649C30.8025 32.9843 30.8348 33.2553 30.8606 33.578C30.8864 33.8877 30.9187 34.2039 30.9574 34.5266C30.9961 34.8493 31.0477 35.159 31.1123 35.4559C31.1768 35.7527 31.2671 35.9915 31.3833 36.1722C31.4865 36.3399 31.5962 36.4496 31.7124 36.5013C31.8415 36.54 31.9963 36.5594 32.177 36.5594C32.4093 36.5594 32.59 36.5271 32.7191 36.4626C32.8482 36.3851 32.945 36.2819 33.0095 36.1528C33.0869 36.0237 33.1386 35.8818 33.1644 35.7269C33.2031 35.5591 33.2418 35.3849 33.2805 35.2042C33.487 34.1459 33.6484 33.0875 33.7645 32.0292C33.8936 30.958 34.0356 29.8932 34.1904 28.8349C34.2033 28.7316 34.2227 28.609 34.2485 28.467C34.2872 28.3122 34.313 28.2347 34.3259 28.2347H34.4034C34.4163 28.2347 34.4357 28.3122 34.4615 28.467C34.5002 28.609 34.5324 28.7316 34.5583 28.8349C34.6615 29.3769 34.7519 29.9319 34.8293 30.4998C34.9067 31.0548 34.9713 31.6098 35.0229 32.1647C35.0229 32.2034 35.0229 32.2938 35.0229 32.4358C35.0358 32.5648 35.0423 32.7133 35.0423 32.881C35.0552 33.0488 35.0681 33.2037 35.081 33.3457C35.0939 33.4747 35.1003 33.5586 35.1003 33.5973C35.1132 33.7393 35.1261 33.9394 35.139 34.1975C35.152 34.4427 35.1713 34.6944 35.1971 34.9525C35.2358 35.2106 35.281 35.4559 35.3326 35.6882C35.3972 35.9076 35.4682 36.0689 35.5456 36.1722C35.7392 36.4303 35.978 36.5594 36.2619 36.5594C36.4942 36.5594 36.7007 36.4432 36.8814 36.2109C37.0621 35.9657 37.2105 35.6624 37.3267 35.301C37.4557 34.9267 37.5655 34.5137 37.6558 34.062C37.7461 33.5973 37.8236 33.1456 37.8881 32.7068C37.9655 32.2551 38.0301 31.8421 38.0817 31.4678C38.1462 31.0806 38.2108 30.7837 38.2753 30.5772C38.2882 30.5385 38.3011 30.4804 38.314 30.403C38.3398 30.3127 38.3656 30.2223 38.3915 30.132C38.4173 30.0287 38.4366 29.9384 38.4495 29.8609C38.4754 29.7706 38.4947 29.7061 38.5076 29.6673C38.6754 28.8671 38.8109 28.0734 38.9142 27.2861C39.0174 26.4859 39.1594 25.6857 39.3401 24.8855C39.3659 24.7565 39.4046 24.6468 39.4562 24.5564C39.5208 24.4532 39.5788 24.3564 39.6305 24.266C39.695 24.1628 39.7466 24.0595 39.7853 23.9563C39.837 23.8401 39.8628 23.711 39.8628 23.5691C39.8628 23.3368 39.8112 23.1432 39.7079 22.9883C39.6047 22.8205 39.4304 22.7237 39.1852 22.6979C38.9787 22.6721 38.7464 22.6398 38.4883 22.6011C38.2301 22.5624 37.9914 22.543 37.772 22.543C37.5009 22.543 37.2621 22.6205 37.0556 22.7753C36.8491 22.9173 36.7459 23.1367 36.7459 23.4336C36.7459 23.6401 36.7782 23.7885 36.8427 23.8788C36.9072 23.9563 36.9782 24.0208 37.0556 24.0724C37.146 24.1111 37.2363 24.1563 37.3267 24.2079C37.4299 24.2467 37.5203 24.3241 37.5977 24.4403V25.0017C37.5977 25.3243 37.5654 25.6341 37.5009 25.9309C37.4493 26.2278 37.4041 26.5375 37.3654 26.8602C37.2622 27.6862 37.146 28.4993 37.0169 29.2995C36.8879 30.0868 36.7265 30.8934 36.5329 31.7195H36.4942C36.4555 31.7195 36.4039 31.571 36.3393 31.2742C36.2877 30.9773 36.2232 30.6031 36.1457 30.1513C36.0812 29.6996 36.0102 29.2092 35.9328 28.68C35.8683 28.1379 35.8037 27.6281 35.7392 27.1506C35.6876 26.6602 35.6424 26.2342 35.6037 25.8729C35.565 25.5115 35.5456 25.2856 35.5456 25.1953V24.6726C35.5585 24.5822 35.6037 24.5112 35.6811 24.4596C35.7586 24.3951 35.836 24.3306 35.9134 24.266C36.0038 24.1886 36.0812 24.0982 36.1457 23.995C36.2103 23.8788 36.2425 23.7175 36.2425 23.511C36.2425 23.2142 36.1264 23.0012 35.8941 22.8721C35.6747 22.7431 35.4101 22.6592 35.1003 22.6205C34.7906 22.5817 34.4744 22.5688 34.1517 22.5817C33.842 22.5817 33.5967 22.5688 33.416 22.543H33.3773C33.1063 22.543 32.8804 22.6398 32.6997 22.8334C32.5191 23.0141 32.4287 23.2335 32.4287 23.4916C32.4287 23.6465 32.4481 23.7756 32.4868 23.8788C32.5384 23.9692 32.6029 24.0531 32.6804 24.1305C32.7578 24.195 32.8417 24.266 32.9321 24.3435C33.0224 24.408 33.1127 24.4919 33.2031 24.5951V25.1566V25.718C33.2031 25.7438 33.1902 25.8148 33.1644 25.9309C33.1386 26.0471 33.1127 26.1697 33.0869 26.2988C33.0611 26.4149 33.0353 26.5311 33.0095 26.6472C32.9837 26.7634 32.9708 26.8344 32.9708 26.8602C32.9062 27.4023 32.8482 27.9443 32.7965 28.4864C32.7449 29.0285 32.6739 29.5705 32.5836 30.1126C32.5707 30.2288 32.5449 30.3772 32.5061 30.5579C32.4803 30.7257 32.4481 30.8934 32.4093 31.0612C32.3835 31.2161 32.3577 31.3516 32.3319 31.4678C32.3061 31.5839 32.2932 31.642 32.2932 31.642H32.2158C32.1125 30.8676 31.9834 30.0933 31.8286 29.3189C31.6737 28.5445 31.5253 27.7766 31.3833 27.0151C31.3188 26.6666 31.2349 26.3375 31.1316 26.0277C31.0413 25.7051 30.9961 25.3631 30.9961 25.0017V24.5951C31.0477 24.5048 31.1252 24.4403 31.2284 24.4015C31.3446 24.3628 31.4478 24.3176 31.5382 24.266C31.6414 24.2015 31.7318 24.1241 31.8092 24.0337C31.8866 23.9305 31.9254 23.7756 31.9254 23.5691C31.9254 23.3497 31.8544 23.1754 31.7124 23.0464C31.5704 22.9044 31.3962 22.8011 31.1897 22.7366C30.9961 22.6592 30.7831 22.6076 30.5508 22.5817C30.3314 22.5559 30.1378 22.543 29.97 22.543C29.7894 22.543 29.6151 22.5559 29.4473 22.5817C29.2796 22.5946 29.1247 22.6398 28.9827 22.7173C28.8536 22.7818 28.7504 22.8786 28.673 23.0076C28.5955 23.1367 28.5568 23.3109 28.5568 23.5304ZM40.685 31.855C40.685 32.4874 40.7818 33.094 40.9754 33.6748C41.169 34.2427 41.4464 34.746 41.8078 35.1848C42.1692 35.6236 42.6145 35.9721 43.1436 36.2302C43.6728 36.4884 44.2665 36.6174 44.9247 36.6174C45.5958 36.6174 46.2476 36.4948 46.88 36.2496C47.5124 36.0044 48.0222 35.5978 48.4094 35.0299C48.5643 34.7976 48.7063 34.5653 48.8353 34.333C48.9644 34.0878 49.0289 33.8167 49.0289 33.5199C49.0289 33.3392 48.9644 33.1908 48.8353 33.0746C48.7192 32.9585 48.5643 32.9004 48.3707 32.9004C48.1642 32.9004 47.99 32.952 47.848 33.0553C47.706 33.1585 47.5705 33.2876 47.4415 33.4425C47.3253 33.5973 47.2091 33.7587 47.093 33.9265C46.9897 34.0942 46.8736 34.2362 46.7445 34.3524C46.5767 34.4943 46.3767 34.5976 46.1444 34.6621C45.912 34.7137 45.7055 34.8105 45.5249 34.9525C45.4861 34.9525 45.3958 34.959 45.2538 34.9719C45.1248 34.9719 45.0409 34.9719 45.0021 34.9719C44.615 34.9719 44.26 34.9009 43.9374 34.7589C43.6147 34.604 43.3308 34.404 43.0856 34.1588C42.8532 33.9006 42.6661 33.6038 42.5241 33.2682C42.3951 32.9327 42.3305 32.5777 42.3305 32.2034C42.3305 32.1776 42.3305 32.126 42.3305 32.0486C42.3434 31.9711 42.3499 31.926 42.3499 31.9131L42.4273 31.855C42.4273 31.855 42.4983 31.8485 42.6403 31.8356C42.7823 31.8227 42.95 31.8163 43.1436 31.8163C43.3372 31.8033 43.5308 31.7969 43.7244 31.7969C43.9309 31.784 44.1052 31.7775 44.2471 31.7775C44.3891 31.7775 44.6408 31.7775 45.0021 31.7775C45.3764 31.7646 45.7636 31.7582 46.1637 31.7582C46.5767 31.7582 46.9639 31.7646 47.3253 31.7775C47.6996 31.7775 47.9577 31.7775 48.0997 31.7775C48.3062 31.7388 48.5062 31.6872 48.6998 31.6227C48.8934 31.5581 49.0483 31.4291 49.1645 31.2355C49.1645 31.2097 49.1645 31.158 49.1645 31.0806C49.1774 30.9902 49.1838 30.9322 49.1838 30.9064C49.1838 30.7902 49.158 30.616 49.1064 30.3836C49.0548 30.1384 48.9902 29.8932 48.9128 29.648C48.8483 29.3899 48.7708 29.1575 48.6805 28.951C48.603 28.7316 48.5385 28.5832 48.4869 28.5058C47.9964 27.8863 47.4673 27.3829 46.8994 26.9957C46.3315 26.5956 45.6346 26.3956 44.8086 26.3956C44.6666 26.3956 44.5182 26.3956 44.3633 26.3956C44.2213 26.3827 44.0793 26.4085 43.9374 26.473C43.8987 26.4859 43.8277 26.5182 43.7244 26.5698C43.6341 26.6085 43.5308 26.6602 43.4147 26.7247C43.2985 26.7763 43.1888 26.8279 43.0856 26.8796C42.9823 26.9312 42.9113 26.9699 42.8726 26.9957C42.4467 27.228 42.0918 27.5313 41.8078 27.9056C41.5368 28.267 41.3174 28.6671 41.1496 29.1059C40.9818 29.5318 40.8592 29.9835 40.7818 30.4611C40.7172 30.9386 40.685 31.4033 40.685 31.855ZM42.5048 30.0739C42.5048 29.7512 42.5822 29.4737 42.7371 29.2414C42.892 28.9962 43.0856 28.7962 43.3179 28.6413C43.5502 28.4864 43.8083 28.3767 44.0922 28.3122C44.3762 28.2347 44.6537 28.196 44.9247 28.196C45.1699 28.196 45.4281 28.2283 45.6991 28.2928C45.983 28.3444 46.2412 28.4348 46.4735 28.5638C46.7058 28.68 46.8994 28.8478 47.0543 29.0672C47.2091 29.2737 47.2866 29.5318 47.2866 29.8416C47.2866 29.8674 47.2866 29.9126 47.2866 29.9771C47.2866 30.0416 47.2801 30.0868 47.2672 30.1126C47.2414 30.1384 47.2027 30.1707 47.1511 30.2094C47.1123 30.2352 47.0801 30.2481 47.0543 30.2481H42.5822C42.5306 30.2481 42.5048 30.2288 42.5048 30.1901C42.5048 30.1384 42.5048 30.0997 42.5048 30.0739ZM49.9574 35.7075C49.9574 35.9269 50.0542 36.1141 50.2478 36.269C50.4543 36.4109 50.6673 36.4819 50.8867 36.4819H58.3789C58.6499 36.4819 58.8435 36.3916 58.9596 36.2109C59.0887 36.0302 59.1532 35.8237 59.1532 35.5914C59.1532 35.4881 59.1339 35.3784 59.0952 35.2623C59.0694 35.1332 59.0242 35.017 58.9596 34.9138C58.8951 34.8105 58.8112 34.7266 58.708 34.6621C58.6176 34.5847 58.5079 34.546 58.3789 34.546H55.804L55.6104 34.3717V24.0724C55.6104 23.853 55.5524 23.6723 55.4362 23.5304C55.333 23.3755 55.1974 23.2593 55.0297 23.1819C54.8619 23.0915 54.6812 23.027 54.4876 22.9883C54.294 22.9496 54.1133 22.9302 53.9455 22.9302C53.7648 22.9302 53.5906 22.9431 53.4228 22.9689C53.255 22.9947 53.0808 23.0076 52.9001 23.0076C52.6678 23.0076 52.4355 22.9818 52.2032 22.9302C51.9837 22.8786 51.7579 22.8528 51.5256 22.8528C51.2029 22.8528 50.8996 22.9238 50.6157 23.0657C50.3446 23.1948 50.2091 23.44 50.2091 23.8014C50.2091 23.9692 50.2285 24.0982 50.2672 24.1886C50.3059 24.266 50.3575 24.3306 50.4221 24.3822C50.4995 24.4338 50.5899 24.4725 50.6931 24.4983C50.7964 24.5241 50.9125 24.5564 51.0416 24.5951C51.2223 24.6597 51.3707 24.7177 51.4869 24.7694C51.6159 24.8081 51.7902 24.8274 52.0096 24.8274H52.3193C52.358 24.8274 52.429 24.821 52.5323 24.8081C52.6355 24.7823 52.7452 24.7565 52.8614 24.7307C52.9775 24.7048 53.0808 24.679 53.1711 24.6532C53.2744 24.6274 53.3454 24.608 53.3841 24.5951C53.4228 24.608 53.5196 24.6597 53.6745 24.75C53.8294 24.8274 53.9068 24.9049 53.9068 24.9823V28.2347L53.7906 28.6026V34.4298L53.6938 34.546H50.7318C50.5899 34.546 50.4672 34.5911 50.364 34.6815C50.2737 34.7589 50.1962 34.8557 50.1317 34.9719C50.0671 35.088 50.022 35.2171 49.9962 35.3591C49.9704 35.4881 49.9574 35.6043 49.9574 35.7075ZM59.9299 31.5839C59.9299 32.1776 60.0396 32.7713 60.259 33.365C60.4913 33.9587 60.8075 34.4943 61.2076 34.9719C61.6077 35.4365 62.0788 35.8172 62.6209 36.1141C63.1629 36.4109 63.7502 36.5594 64.3826 36.5594C64.8085 36.5594 65.2409 36.469 65.6797 36.2883C66.1185 36.1076 66.5122 35.8689 66.8606 35.572C67.222 35.2623 67.5124 34.9073 67.7318 34.5072C67.9641 34.1071 68.0803 33.6812 68.0803 33.2295C68.0803 33.0101 68.0287 32.8165 67.9254 32.6487C67.8222 32.468 67.6544 32.3777 67.4221 32.3777C67.2672 32.3777 67.1317 32.4358 67.0155 32.5519C66.8993 32.6552 66.7896 32.7907 66.6864 32.9585C66.5831 33.1133 66.4799 33.2876 66.3766 33.4812C66.2863 33.6748 66.1766 33.8555 66.0475 34.0232C65.9314 34.1781 65.7958 34.3136 65.641 34.4298C65.4861 34.5331 65.3054 34.5847 65.0989 34.5847H63.434C63.4082 34.5847 63.3501 34.5589 63.2597 34.5072C63.1694 34.4427 63.1049 34.3911 63.0661 34.3524C63.0274 34.3136 62.9564 34.2491 62.8532 34.1588C62.7628 34.0684 62.6661 33.9716 62.5628 33.8684C62.4595 33.7651 62.3628 33.6683 62.2724 33.578C62.1821 33.4747 62.1175 33.4037 62.0788 33.365C61.8981 33.094 61.7755 32.7649 61.711 32.3777C61.6464 31.9776 61.6142 31.6162 61.6142 31.2935C61.6142 30.9322 61.64 30.5837 61.6916 30.2481C61.7432 29.9126 61.8336 29.6028 61.9627 29.3189C62.0917 29.0349 62.266 28.7833 62.4854 28.5638C62.7177 28.3315 63.0081 28.1379 63.3565 27.9831C63.4211 27.9572 63.505 27.9314 63.6082 27.9056C63.7244 27.8669 63.7954 27.8475 63.8212 27.8475H65.0989C65.1634 27.8475 65.2409 27.8927 65.3312 27.9831C65.4216 28.0734 65.4732 28.125 65.4861 28.1379V28.4477C65.4861 28.6284 65.4603 28.7897 65.4087 28.9317C65.357 29.0607 65.3312 29.2092 65.3312 29.3769C65.3312 29.7641 65.4667 30.0997 65.7378 30.3836C66.0088 30.6676 66.3444 30.8096 66.7445 30.8096C66.9639 30.8096 67.151 30.7644 67.3059 30.674C67.4737 30.5708 67.6092 30.4417 67.7124 30.2868C67.8286 30.132 67.9125 29.9577 67.9641 29.7641C68.0287 29.5576 68.0609 29.3576 68.0609 29.164C68.0609 28.8671 68.0028 28.5897 67.8867 28.3315C67.7705 28.0605 67.6156 27.8153 67.4221 27.5959C67.2414 27.3636 67.0349 27.1506 66.8025 26.957C66.5831 26.7634 66.3702 26.5763 66.1637 26.3956C66.1121 26.3827 66.0153 26.3569 65.8733 26.3181C65.7313 26.2665 65.5764 26.2213 65.4087 26.1826C65.2538 26.1439 65.0989 26.1116 64.944 26.0858C64.8021 26.0471 64.7053 26.0277 64.6536 26.0277C64.6407 26.0148 64.5762 26.0084 64.46 26.0084C64.3568 26.0084 64.2729 26.0084 64.2084 26.0084C63.4856 26.0084 62.8532 26.1826 62.3111 26.5311C61.782 26.8667 61.3367 27.3055 60.9753 27.8475C60.6268 28.3767 60.3623 28.9769 60.1816 29.648C60.0138 30.3062 59.9299 30.9515 59.9299 31.5839ZM68.8819 31.7195C68.8819 32.0034 68.9206 32.3454 68.998 32.7455C69.0884 33.1456 69.211 33.5457 69.3659 33.9458C69.5208 34.3459 69.7014 34.7202 69.9079 35.0687C70.1274 35.4171 70.3661 35.6753 70.6242 35.843C70.6372 35.856 70.6888 35.8882 70.7791 35.9398C70.8824 35.9786 70.9856 36.0302 71.0889 36.0947C71.205 36.1463 71.3147 36.2044 71.418 36.269C71.5341 36.3206 71.6245 36.3593 71.689 36.3851C71.7665 36.4109 71.8955 36.4367 72.0762 36.4626C72.2569 36.4884 72.3795 36.5077 72.444 36.5206C72.586 36.5594 72.6957 36.5981 72.7732 36.6368C72.8506 36.6884 72.9216 36.7336 72.9861 36.7723C73.0636 36.811 73.1539 36.8433 73.2572 36.8691C73.3604 36.8949 73.5088 36.9078 73.7024 36.9078C74.0896 36.9078 74.4768 36.8046 74.864 36.5981C75.2641 36.3916 75.6319 36.1334 75.9675 35.8237C76.3031 35.501 76.5935 35.1461 76.8387 34.7589C77.0968 34.3717 77.2775 34.0039 77.3807 33.6554C77.3936 33.578 77.4259 33.436 77.4775 33.2295C77.5292 33.023 77.5808 32.81 77.6324 32.5906C77.6969 32.3583 77.7486 32.1454 77.7873 31.9518C77.8389 31.7453 77.8776 31.6033 77.9034 31.5259C77.9034 31.5 77.9034 31.4355 77.9034 31.3323C77.9164 31.2161 77.9228 31.1387 77.9228 31.1C77.9228 30.7644 77.8776 30.4417 77.7873 30.132C77.7099 29.8093 77.6001 29.4996 77.4582 29.2027C77.3291 28.893 77.1807 28.5961 77.0129 28.3122C76.858 28.0153 76.7032 27.7185 76.5483 27.4216C76.5354 27.4216 76.5225 27.4152 76.5096 27.4023C76.4967 27.3765 76.4837 27.3571 76.4708 27.3442C76.0191 26.957 75.5674 26.6472 75.1157 26.4149C74.6639 26.1697 74.1283 26.0471 73.5088 26.0471C72.6957 26.0471 71.9923 26.2084 71.3986 26.5311C70.8178 26.8408 70.3403 27.2603 69.966 27.7895C69.5917 28.3186 69.3142 28.9252 69.1336 29.6093C68.9658 30.2933 68.8819 30.9967 68.8819 31.7195ZM70.5468 31.7388C70.5468 31.3774 70.5597 31.0354 70.5855 30.7128C70.6242 30.3901 70.6952 30.0868 70.7985 29.8029C70.9146 29.506 71.0631 29.2285 71.2438 28.9704C71.4373 28.7123 71.689 28.4735 71.9988 28.2541C72.0762 28.2025 72.1924 28.1315 72.3472 28.0411C72.5021 27.9379 72.586 27.8863 72.5989 27.8863H73.8186C73.9476 27.9637 74.1025 28.0347 74.2832 28.0992C74.4768 28.1637 74.6575 28.2412 74.8253 28.3315C75.006 28.409 75.1673 28.5058 75.3093 28.6219C75.4641 28.7252 75.5738 28.8607 75.6384 29.0285C75.7803 29.4028 75.8901 29.7641 75.9675 30.1126C76.0578 30.4482 76.103 30.816 76.103 31.2161C76.103 31.9001 76.0127 32.5067 75.832 33.0359C75.6513 33.5522 75.2835 34.0362 74.7285 34.4879C74.4962 34.5782 74.2832 34.6298 74.0896 34.6428C73.9089 34.6428 73.6895 34.6428 73.4314 34.6428C73.341 34.6428 73.2055 34.6428 73.0248 34.6428C72.8571 34.6428 72.7667 34.6363 72.7538 34.6234C72.6893 34.6234 72.6118 34.6169 72.5215 34.604C72.4311 34.5911 72.3408 34.5782 72.2505 34.5653C72.173 34.5524 72.0956 34.5395 72.0181 34.5266C71.9536 34.5008 71.9213 34.4879 71.9213 34.4879L71.0114 33.578C70.934 33.5005 70.863 33.3844 70.7985 33.2295C70.7469 33.0617 70.7017 32.8875 70.663 32.7068C70.6242 32.5261 70.592 32.3454 70.5662 32.1647C70.5533 31.984 70.5468 31.8421 70.5468 31.7388ZM86.4465 36.3658C86.5626 36.3658 86.6723 36.4045 86.7756 36.4819C86.8917 36.5464 87.0079 36.5852 87.1241 36.5981C87.4983 36.6626 87.8533 36.74 88.1888 36.8304C88.5244 36.9336 88.8793 36.9853 89.2536 36.9853C89.4988 36.9853 89.6989 36.8691 89.8538 36.6368C90.0086 36.4045 90.0861 36.1786 90.0861 35.9592C90.0861 35.8043 90.0538 35.6882 89.9893 35.6107C89.9376 35.5204 89.8667 35.443 89.7763 35.3784C89.6989 35.301 89.615 35.23 89.5246 35.1655C89.4472 35.088 89.3827 34.9848 89.331 34.8557V33.9845C89.331 33.8426 89.3246 33.649 89.3117 33.4037C89.3117 33.1456 89.344 32.9262 89.4085 32.7455V28.4283C89.4085 28.4025 89.3956 28.3509 89.3698 28.2735C89.3569 28.196 89.344 28.1444 89.331 28.1186C89.2407 27.9121 89.1439 27.7185 89.0407 27.5378C88.9374 27.3442 88.8148 27.1764 88.6728 27.0344C88.5308 26.8796 88.3631 26.757 88.1695 26.6666C87.9888 26.5763 87.7823 26.5311 87.55 26.5311C87.2273 26.5311 86.9692 26.5698 86.7756 26.6472C86.5949 26.7247 86.4336 26.8215 86.2916 26.9376C86.1496 27.0538 86.0077 27.1893 85.8657 27.3442C85.7366 27.4991 85.5753 27.6539 85.3817 27.8088C85.2139 27.6798 85.0655 27.5378 84.9364 27.3829C84.8074 27.228 84.6718 27.0861 84.5299 26.957C84.4008 26.815 84.2459 26.6989 84.0652 26.6085C83.8846 26.5053 83.6587 26.4537 83.3877 26.4537C83.2457 26.4537 83.0908 26.4924 82.923 26.5698C82.7552 26.6472 82.5939 26.7376 82.439 26.8408C82.2842 26.9441 82.1422 27.0603 82.0131 27.1893C81.8841 27.3184 81.7744 27.4281 81.684 27.5184H81.6453H81.6066C81.5679 27.5055 81.5162 27.4668 81.4517 27.4023C81.4001 27.3248 81.342 27.2538 81.2775 27.1893C81.2129 27.1119 81.1548 27.0409 81.1032 26.9764C81.0516 26.9118 81.0129 26.8667 80.9871 26.8408C80.8838 26.7376 80.7483 26.686 80.5805 26.686C80.4127 26.6731 80.2579 26.6666 80.1159 26.6666C79.7803 26.6666 79.4899 26.7247 79.2447 26.8408C78.9995 26.957 78.8769 27.2087 78.8769 27.5959C78.8769 27.8411 78.935 28.0218 79.0511 28.1379C79.1673 28.2541 79.2963 28.338 79.4383 28.3896C79.5932 28.4412 79.7287 28.48 79.8449 28.5058C79.961 28.5316 80.0191 28.5768 80.0191 28.6413V33.7329L79.8642 34.7783C79.8513 34.8686 79.7803 34.9331 79.6513 34.9719C79.5351 34.9977 79.406 35.0364 79.2641 35.088C79.135 35.1397 79.0124 35.2171 78.8962 35.3203C78.7801 35.4236 78.722 35.5914 78.722 35.8237C78.722 35.9657 78.7607 36.1076 78.8382 36.2496C78.9285 36.3787 79.0317 36.4948 79.1479 36.5981C79.277 36.6884 79.4189 36.7594 79.5738 36.811C79.7287 36.8756 79.8771 36.9078 80.0191 36.9078H81.6066C81.7098 36.9078 81.8131 36.882 81.9163 36.8304C82.0325 36.7788 82.1357 36.7142 82.2261 36.6368C82.3293 36.5723 82.4197 36.5013 82.4971 36.4238C82.5875 36.3464 82.6649 36.2819 82.7294 36.2302H82.7681C82.8327 36.2302 82.9359 36.269 83.0779 36.3464C83.2199 36.4109 83.3747 36.4884 83.5425 36.5787C83.7103 36.6562 83.8716 36.7271 84.0265 36.7917C84.1814 36.8691 84.3105 36.9078 84.4137 36.9078H85.5366C85.6398 36.9078 85.7237 36.8756 85.7882 36.811C85.8657 36.7594 85.9367 36.7013 86.0012 36.6368C86.0657 36.5723 86.1303 36.5142 86.1948 36.4626C86.2722 36.398 86.3561 36.3658 86.4465 36.3658ZM83.2715 28.3509C83.2973 28.3509 83.336 28.3509 83.3877 28.3509C83.4393 28.338 83.478 28.3315 83.5038 28.3315C83.5683 28.3315 83.6587 28.3444 83.7748 28.3703C83.891 28.3832 83.9491 28.4541 83.9491 28.5832V34.5653C83.9491 34.6298 83.891 34.7137 83.7748 34.817C83.6716 34.9202 83.549 35.0299 83.407 35.1461C83.265 35.2623 83.1231 35.372 82.9811 35.4752C82.852 35.5656 82.7681 35.6365 82.7294 35.6882H82.6714C82.6455 35.6495 82.5681 35.572 82.439 35.4559C82.3229 35.3397 82.2454 35.2687 82.2067 35.2429C82.1809 35.23 82.1035 35.2042 81.9744 35.1655C81.8582 35.1267 81.7873 35.1009 81.7615 35.088C81.7356 35.0751 81.7034 35.0493 81.6647 35.0106C81.6259 34.9719 81.6066 34.9461 81.6066 34.9331V31.2935C81.6066 31.0354 81.6517 30.7644 81.7421 30.4804C81.8324 30.1836 81.955 29.8997 82.1099 29.6286C82.2648 29.3576 82.439 29.1124 82.6326 28.893C82.8391 28.6606 83.0521 28.48 83.2715 28.3509ZM85.3817 33.6941C85.3817 33.0875 85.4075 32.4809 85.4591 31.8743C85.5108 31.2677 85.6398 30.674 85.8463 30.0933C85.8463 30.0803 85.8657 30.0416 85.9044 29.9771C85.956 29.9126 85.9883 29.8738 86.0012 29.8609C86.027 29.8222 86.0657 29.7512 86.1174 29.648C86.1819 29.5318 86.2464 29.4157 86.311 29.2995C86.3755 29.1704 86.4336 29.0543 86.4852 28.951C86.5368 28.8349 86.5755 28.7574 86.6013 28.7187C86.7046 28.6155 86.8078 28.5251 86.9111 28.4477C87.0143 28.3703 87.137 28.3315 87.2789 28.3315C87.3435 28.3315 87.4338 28.3444 87.55 28.3703C87.679 28.3832 87.7436 28.4541 87.7436 28.5832V34.7202C87.7436 34.8364 87.7048 34.9267 87.6274 34.9912C87.5629 35.0429 87.479 35.088 87.3757 35.1267C87.2725 35.1526 87.1692 35.1784 87.066 35.2042C86.9627 35.2171 86.8853 35.23 86.8337 35.2429L86.5239 35.3978H86.4465H86.369C86.1367 35.3203 85.9496 35.2364 85.8076 35.1461C85.6785 35.0429 85.5817 34.9267 85.5172 34.7976C85.4527 34.6557 85.414 34.5008 85.4011 34.333C85.3881 34.1523 85.3817 33.9394 85.3817 33.6941ZM90.9064 31.855C90.9064 32.4874 91.0032 33.094 91.1968 33.6748C91.3904 34.2427 91.6679 34.746 92.0293 35.1848C92.3907 35.6236 92.8359 35.9721 93.3651 36.2302C93.8943 36.4884 94.4879 36.6174 95.1462 36.6174C95.8173 36.6174 96.4691 36.4948 97.1015 36.2496C97.7339 36.0044 98.2437 35.5978 98.6309 35.0299C98.7858 34.7976 98.9277 34.5653 99.0568 34.333C99.1859 34.0878 99.2504 33.8167 99.2504 33.5199C99.2504 33.3392 99.1859 33.1908 99.0568 33.0746C98.9407 32.9585 98.7858 32.9004 98.5922 32.9004C98.3857 32.9004 98.2114 32.952 98.0695 33.0553C97.9275 33.1585 97.792 33.2876 97.6629 33.4425C97.5468 33.5973 97.4306 33.7587 97.3144 33.9265C97.2112 34.0942 97.095 34.2362 96.966 34.3524C96.7982 34.4943 96.5981 34.5976 96.3658 34.6621C96.1335 34.7137 95.927 34.8105 95.7463 34.9525C95.7076 34.9525 95.6173 34.959 95.4753 34.9719C95.3462 34.9719 95.2623 34.9719 95.2236 34.9719C94.8364 34.9719 94.4815 34.9009 94.1588 34.7589C93.8362 34.604 93.5522 34.404 93.307 34.1588C93.0747 33.9006 92.8876 33.6038 92.7456 33.2682C92.6165 32.9327 92.552 32.5777 92.552 32.2034C92.552 32.1776 92.552 32.126 92.552 32.0486C92.5649 31.9711 92.5713 31.926 92.5713 31.9131L92.6488 31.855C92.6488 31.855 92.7198 31.8485 92.8617 31.8356C93.0037 31.8227 93.1715 31.8163 93.3651 31.8163C93.5587 31.8033 93.7523 31.7969 93.9459 31.7969C94.1524 31.784 94.3266 31.7775 94.4686 31.7775C94.6106 31.7775 94.8622 31.7775 95.2236 31.7775C95.5979 31.7646 95.9851 31.7582 96.3852 31.7582C96.7982 31.7582 97.1854 31.7646 97.5468 31.7775C97.921 31.7775 98.1792 31.7775 98.3211 31.7775C98.5276 31.7388 98.7277 31.6872 98.9213 31.6227C99.1149 31.5581 99.2698 31.4291 99.3859 31.2355C99.3859 31.2097 99.3859 31.158 99.3859 31.0806C99.3988 30.9902 99.4053 30.9322 99.4053 30.9064C99.4053 30.7902 99.3795 30.616 99.3278 30.3836C99.2762 30.1384 99.2117 29.8932 99.1342 29.648C99.0697 29.3899 98.9923 29.1575 98.9019 28.951C98.8245 28.7316 98.76 28.5832 98.7083 28.5058C98.2179 27.8863 97.6887 27.3829 97.1209 26.9957C96.553 26.5956 95.856 26.3956 95.03 26.3956C94.888 26.3956 94.7396 26.3956 94.5847 26.3956C94.4428 26.3827 94.3008 26.4085 94.1588 26.473C94.1201 26.4859 94.0491 26.5182 93.9459 26.5698C93.8555 26.6085 93.7523 26.6602 93.6361 26.7247C93.52 26.7763 93.4103 26.8279 93.307 26.8796C93.2038 26.9312 93.1328 26.9699 93.0941 26.9957C92.6681 27.228 92.3132 27.5313 92.0293 27.9056C91.7582 28.267 91.5388 28.6671 91.3711 29.1059C91.2033 29.5318 91.0807 29.9835 91.0032 30.4611C90.9387 30.9386 90.9064 31.4033 90.9064 31.855ZM92.7262 30.0739C92.7262 29.7512 92.8037 29.4737 92.9585 29.2414C93.1134 28.9962 93.307 28.7962 93.5393 28.6413C93.7716 28.4864 94.0298 28.3767 94.3137 28.3122C94.5977 28.2347 94.8751 28.196 95.1462 28.196C95.3914 28.196 95.6495 28.2283 95.9206 28.2928C96.2045 28.3444 96.4626 28.4348 96.6949 28.5638C96.9273 28.68 97.1209 28.8478 97.2757 29.0672C97.4306 29.2737 97.508 29.5318 97.508 29.8416C97.508 29.8674 97.508 29.9126 97.508 29.9771C97.508 30.0416 97.5016 30.0868 97.4887 30.1126C97.4629 30.1384 97.4242 30.1707 97.3725 30.2094C97.3338 30.2352 97.3015 30.2481 97.2757 30.2481H92.8037C92.752 30.2481 92.7262 30.2288 92.7262 30.1901C92.7262 30.1384 92.7262 30.0997 92.7262 30.0739Z" fill="white"/>
<path d="M28.3826 39.0374H99.6182V40.0054H28.3826V39.0374Z" fill="white"/>
<path d="M11.5647 70.1193C11.7926 69.9833 11.8272 69.7819 11.882 69.478C12.2199 67.6049 12.1779 65.6583 12.4655 63.7741C12.9767 60.4258 14.699 52.1512 19.3754 54.3188C21.3839 55.2497 23.1578 57.2605 24.586 59.0067C25.8716 60.5786 26.8568 62.2966 27.872 64.0806C28.5962 65.3532 29.3385 66.6076 30.1702 67.798C30.6508 68.4859 30.8831 68.8432 31.2809 67.8832C31.9031 66.3814 32.3548 64.858 33.1389 63.4336C33.4131 62.9354 34.1128 61.4356 34.9354 61.9126C35.9885 62.523 36.88 64.1086 37.6636 65.0284C38.3999 65.8927 39.6008 67.5983 40.924 67.1454C42.199 66.7089 42.8219 65.0804 44.1486 64.6141C45.926 63.9894 47.4626 65.1979 48.8269 66.2827C50.0826 67.2812 51.3733 68.9801 53.0598 69.0466C53.5742 69.0669 54.0916 68.9261 54.58 68.7458C56.2444 68.1315 57.7404 67.0327 59.4015 66.4075C62.8014 65.1281 66.1707 64.6909 69.664 65.7946C70.4907 66.0558 71.2718 66.4768 72.044 66.8956C72.5277 67.1579 72.9499 67.5428 73.4209 67.8321C73.6475 67.9712 73.8743 68.2027 74.1324 68.1783C74.3296 68.1597 74.4383 67.8952 74.5623 67.7243C75.3751 66.6041 75.2077 66.2638 76.538 65.4143C78.6748 64.05 81.0651 64.3126 83.3251 65.1022C83.9366 65.3158 84.5114 65.6436 85.0909 65.9478C85.1959 66.0029 86.4368 66.9028 86.8721 66.7821C87.0968 66.7199 87.2486 66.4786 87.4096 66.294C88.2799 65.2959 88.2739 64.8134 89.5593 64.1487C91.4434 63.1744 93.463 63.4295 95.3534 64.1714C96.2143 64.5093 96.9933 65.3381 97.9535 64.9887C99.579 64.3972 100.815 63.655 102.606 63.5585C104.851 63.4375 106.94 64.0374 108.835 65.3746C109.26 65.6744 109.635 66.0553 110.013 66.4246C110.382 66.7856 110.625 67.3111 111.046 67.5937C111.428 67.8497 110.988 66.6067 110.985 66.1124C110.973 64.1372 112.401 63.8747 113.81 64.5119C114.693 64.911 115.542 64.8071 116.503 64.8071" stroke="white" stroke-width="0.781421" stroke-linecap="round"/>
<path d="M12.8788 109.006C12.9193 108.692 13.0722 108.401 13.1757 108.109C13.618 106.861 14.0555 105.626 14.6089 104.431C15.0476 103.484 15.6055 102.597 15.9397 101.593C16.2042 100.799 16.4111 100.01 16.8098 99.2779C17.3975 98.1994 18.4206 96.5058 19.5635 96.0769C20.3656 95.7759 21.5647 97.7952 21.877 98.3358C22.5386 99.4809 22.793 101.017 23.7299 101.968C24.2434 102.49 25.1042 102.044 25.5725 101.684C26.7264 100.799 27.222 99.3337 27.8144 97.9952C28.0527 97.4568 28.6939 95.1633 29.5342 96.1904C30.7826 97.7163 31.2768 99.897 32.5234 101.412C33.6733 102.809 35.2964 100.367 36.1779 99.7092C37.5865 98.6584 39.1824 97.772 40.4979 99.4709C41.0209 100.146 41.731 101.667 42.0846 102.445C42.255 102.82 42.4002 103.208 42.5657 103.586C42.6425 103.761 42.6621 104 42.8114 104.102C42.8948 104.159 42.852 103.887 42.8472 103.779C42.8315 103.42 42.7694 103.065 42.75 102.706C42.7028 101.833 42.5933 100.184 42.9547 99.346C44.2013 96.457 48.4575 98.7416 50.1512 99.5276C52.3907 100.567 52.3405 100.74 54.3995 101.798C54.8447 102.026 55.8137 102.603 56.4367 102.399C56.854 102.263 57.4115 101.379 57.6446 101.105C58.1115 100.557 58.6421 99.8888 59.3849 99.7887C61.4805 99.5062 63.2379 101.947 64.6159 103.285C65.0039 103.661 65.6205 104.321 66.2129 104.397C66.7271 104.464 67.4163 104.03 67.8303 103.83C70.0598 102.75 72.1161 102.449 74.5354 102.978C75.8971 103.276 76.0184 103.478 77.197 103.932C77.7338 104.139 78.0231 104.272 78.5892 104.113C79.1848 103.946 80.2371 103.304 80.7287 103.058C81.9785 102.432 82.9715 101.945 84.3526 101.684C86.9916 101.187 89.3063 101.797 91.846 102.399C92.5974 102.578 92.5327 102.495 93.2484 102.172C94.4457 101.632 94.8996 101.289 96.3195 101.174C99.2173 100.938 101.718 102.093 104.038 103.886C104.167 103.986 104.849 104.671 105.195 104.624C105.459 104.588 106.028 103.826 106.106 103.739C107.161 102.564 108.258 101.716 109.791 101.571C111.035 101.453 112.363 101.858 113.579 102.059" stroke="white" stroke-width="0.781421" stroke-linecap="round"/>
<path d="M13.9302 140.31C14.0604 140.31 14.0414 140.249 14.0529 140.096C14.1131 139.295 14.2942 138.549 14.5877 137.812C15.2722 136.092 16.7121 134.868 18.4361 134.701C20.7443 134.477 21.8868 137.827 23.4155 139.143C25.6363 141.056 27.3873 136.341 29.0786 135.663C31.2206 134.805 32.9593 141.779 34.3122 140.485C35.1994 139.636 35.6338 138.507 37.021 138.648C38.2381 138.771 39.068 139.712 40.0191 140.417C41.049 141.18 42.0781 140.405 43.0786 139.94C44.9054 139.091 46.8778 138.179 48.9083 138.58C49.4243 138.681 49.8358 138.934 50.2321 139.289C50.3851 139.426 50.6639 139.815 50.8545 139.931C51.1077 140.085 51.3551 140.049 51.6172 139.931C52.9024 139.352 53.9759 138.406 55.3034 137.88C57.9009 136.85 60.5977 136.738 62.9522 138.502C63.9748 139.268 64.3171 140.414 65.6566 139.78C66.5774 139.344 67.4144 138.711 68.3304 138.264C69.9317 137.481 71.0175 137.048 72.8057 136.932C75.0984 136.783 77.5089 137.44 78.9334 139.556C79.3639 140.196 79.1994 140.563 79.5997 139.819C80.4048 138.322 81.6416 137.274 83.2772 137.243C85.3765 137.203 87.5122 138.416 89.0368 139.94C89.5952 140.499 89.8142 141.343 90.5095 140.606C92.1427 138.875 93.7462 137.734 96.0674 137.408C97.5827 137.195 99.6135 137.239 100.332 139.017C100.443 139.291 100.471 140.082 100.67 139.503C101.051 138.393 102.009 138.779 102.813 139.158C103.682 139.567 104.558 140.156 105.373 140.674C105.702 140.883 106.631 141.533 107.104 141.675C107.773 141.877 108.12 140.995 108.731 140.84C109.658 140.604 110.523 141.16 111.439 141.097C111.879 141.067 112.244 140.867 112.649 140.699C113.225 140.459 113.786 140.325 114.367 140.135" stroke="white" stroke-width="0.781421" stroke-linecap="round"/>
<rect x="48" y="1" width="30" height="8" fill="#F5BC4D" stroke="black" stroke-width="0.78"/>
<mask id="path-7-inside-1_103_959" fill="white">
<path fill-rule="evenodd" clip-rule="evenodd" d="M73.1012 163H51.9114V186H73.1012V163Z"/>
</mask>
<path fill-rule="evenodd" clip-rule="evenodd" d="M73.1012 163H51.9114V186H73.1012V163Z" fill="#F5BC4D"/>
<path d="M51.9114 163V162.215H51.1266V163H51.9114ZM73.1012 163H73.8861V162.215H73.1012V163ZM51.9114 186H51.1266V186.785H51.9114V186ZM73.1012 186V186.785H73.8861V186H73.1012ZM51.9114 163.785H73.1012V162.215H51.9114V163.785ZM52.6962 186V163H51.1266V186H52.6962ZM51.9114 186.785H73.1012V185.215H51.9114V186.785ZM72.3164 163V186H73.8861V163H72.3164Z" fill="black" mask="url(#path-7-inside-1_103_959)"/>
<rect x="48" y="159" width="30" height="8" fill="#F5BC4D" stroke="black" stroke-width="0.78"/>
<mask id="path-10-inside-2_103_959" fill="white">
<path fill-rule="evenodd" clip-rule="evenodd" d="M40.0019 186H85.7956C81.4485 177.588 72.8259 171.857 62.8988 171.857C52.9716 171.857 44.349 177.588 40.0019 186Z"/>
</mask>
<path fill-rule="evenodd" clip-rule="evenodd" d="M40.0019 186H85.7956C81.4485 177.588 72.8259 171.857 62.8988 171.857C52.9716 171.857 44.349 177.588 40.0019 186Z" fill="#F5BC4D"/>
<path d="M40.0019 186L39.3047 185.64L38.7129 186.785H40.0019V186ZM85.7956 186V186.785H87.0845L86.4928 185.64L85.7956 186ZM40.0019 186.785H85.7956V185.215H40.0019V186.785ZM62.8988 172.642C72.5135 172.642 80.8771 178.191 85.0984 186.36L86.4928 185.64C82.0199 176.984 73.1383 171.072 62.8988 171.072V172.642ZM40.6991 186.36C44.9204 178.191 53.284 172.642 62.8988 172.642V171.072C52.6592 171.072 43.7776 176.984 39.3047 185.64L40.6991 186.36Z" fill="black" mask="url(#path-10-inside-2_103_959)"/>
</svg>
