<svg width="128" height="351" viewBox="0 0 128 351" fill="none" xmlns="http://www.w3.org/2000/svg">
<rect width="128" height="160" transform="translate(0 5)" fill="white"/>
<rect x="0.651184" y="5.65118" width="126.698" height="158.698" fill="#393232" stroke="#AFAFAF" stroke-width="1.30237"/>
<path d="M25.758 30.6934C25.5386 30.6934 25.3514 30.7644 25.1965 30.9064C25.0417 31.0354 24.9642 31.2161 24.9642 31.4484V35.9205C24.9642 36.1528 25.0546 36.3529 25.2353 36.5206C25.416 36.6755 25.616 36.7529 25.8354 36.7529C26.029 36.7529 26.171 36.7078 26.2613 36.6174C26.3517 36.5142 26.4227 36.4109 26.4743 36.3077C26.5259 36.1915 26.5775 36.0883 26.6292 35.9979C26.6937 35.8947 26.7905 35.843 26.9195 35.843C27.1131 35.843 27.2938 35.8818 27.4616 35.9592C27.6294 36.0366 27.7907 36.127 27.9456 36.2302C28.1134 36.3206 28.2812 36.4045 28.449 36.4819C28.6167 36.5594 28.791 36.5981 28.9717 36.5981H30.8689C31.0883 36.5981 31.2755 36.54 31.4303 36.4238C31.5981 36.2948 31.7659 36.1786 31.9337 36.0754C31.9466 36.0625 31.9853 36.0431 32.0498 36.0173C32.1273 35.9786 32.2112 35.9398 32.3015 35.9011C32.3919 35.8495 32.4693 35.8043 32.5338 35.7656C32.6113 35.7269 32.6629 35.7011 32.6887 35.6882C32.9597 35.4946 33.1856 35.2623 33.3663 34.9912C33.547 34.7202 33.6889 34.4298 33.7922 34.12C33.9084 33.7974 33.9922 33.4683 34.0439 33.1327C34.0955 32.7971 34.1213 32.4745 34.1213 32.1647C34.1213 31.7646 34.0697 31.4097 33.9664 31.1C33.8632 30.7773 33.7148 30.4869 33.5212 30.2288C33.3405 29.9706 33.1211 29.7254 32.8629 29.4931C32.6177 29.2608 32.3531 29.0285 32.0692 28.7962C32.0563 28.7833 32.0305 28.7703 31.9918 28.7574C31.9659 28.7445 31.9466 28.7316 31.9337 28.7187C31.6239 28.6413 31.2948 28.5703 30.9463 28.5058C30.6108 28.4283 30.2817 28.3767 29.959 28.3509C29.546 28.3122 29.1265 28.2799 28.7006 28.2541C28.2876 28.2283 27.9133 28.1573 27.5778 28.0411C27.2422 27.925 26.9712 27.7314 26.7647 27.4604C26.5582 27.1893 26.4549 26.7828 26.4549 26.2407C26.4549 25.9568 26.5194 25.6986 26.6485 25.4663C26.7776 25.2211 26.9454 25.0081 27.1519 24.8274C27.3713 24.6468 27.61 24.5048 27.8682 24.4015C28.1392 24.2983 28.4167 24.2467 28.7006 24.2467C29.1265 24.2467 29.5589 24.337 29.9977 24.5177C30.4365 24.6984 30.8302 24.9178 31.1787 25.1759C31.3464 25.305 31.4561 25.505 31.5078 25.7761C31.5723 26.0342 31.6239 26.2988 31.6626 26.5698C31.7143 26.8408 31.7917 27.0796 31.895 27.2861C32.0111 27.4926 32.2112 27.5959 32.4951 27.5959C32.6887 27.5959 32.8565 27.5184 32.9985 27.3636C33.1404 27.2087 33.2114 27.0344 33.2114 26.8408V23.2787C33.2114 23.0335 33.1404 22.7947 32.9985 22.5624C32.8694 22.3172 32.6758 22.1945 32.4177 22.1945C32.2757 22.1945 32.1531 22.2333 32.0498 22.3107C31.9466 22.3881 31.8627 22.4849 31.7982 22.6011C31.7336 22.7173 31.682 22.8463 31.6433 22.9883C31.6046 23.1174 31.5723 23.24 31.5465 23.3561H31.469C31.3142 23.3561 31.127 23.2851 30.9076 23.1432C30.7011 22.9883 30.5333 22.8786 30.4043 22.8141C30.3397 22.7882 30.23 22.7495 30.0752 22.6979C29.9203 22.6334 29.7525 22.5688 29.5718 22.5043C29.404 22.4398 29.2362 22.3817 29.0685 22.3301C28.9136 22.2784 28.8039 22.2397 28.7393 22.2139H28.5651C28.3457 22.2139 28.094 22.2655 27.8101 22.3688C27.5391 22.4591 27.2616 22.5817 26.9776 22.7366C26.7066 22.8786 26.4485 23.0399 26.2032 23.2206C25.9709 23.4013 25.7838 23.5691 25.6418 23.724C25.4998 23.9821 25.3772 24.2144 25.274 24.4209C25.1707 24.6274 25.0868 24.8339 25.0223 25.0404C24.9578 25.2469 24.9062 25.4599 24.8674 25.6793C24.8287 25.8987 24.8094 26.1439 24.8094 26.4149C24.8094 26.9957 24.9191 27.4991 25.1385 27.925C25.3708 28.3509 25.6676 28.7187 26.029 29.0285C26.4033 29.3253 26.8292 29.5641 27.3067 29.7448C27.7972 29.9126 28.3005 30.0287 28.8168 30.0933C29.1394 30.132 29.4492 30.1578 29.746 30.1707C30.0558 30.1707 30.3462 30.1965 30.6172 30.2481C30.9012 30.2868 31.1657 30.3772 31.411 30.5192C31.6562 30.6482 31.8756 30.8612 32.0692 31.158C32.1079 31.2097 32.1531 31.2935 32.2047 31.4097C32.2692 31.513 32.3015 31.5775 32.3015 31.6033V32.9585C32.237 33.0746 32.1789 33.2037 32.1273 33.3457C32.0756 33.4876 32.0111 33.6232 31.9337 33.7522C31.8691 33.8813 31.7853 34.0039 31.682 34.12C31.5917 34.2233 31.469 34.2943 31.3142 34.333C31.1335 34.3846 30.9592 34.4233 30.7915 34.4492C30.6366 34.4621 30.4882 34.5201 30.3462 34.6234H28.8942C28.8039 34.5718 28.7329 34.5395 28.6813 34.5266C28.6296 34.5008 28.5716 34.4814 28.507 34.4685C28.4554 34.4556 28.3973 34.4427 28.3328 34.4298C28.2683 34.404 28.1779 34.3717 28.0618 34.333C27.7649 34.2168 27.5003 34.0297 27.268 33.7716C27.0486 33.5005 26.8873 33.2101 26.784 32.9004C26.7324 32.7197 26.7001 32.5067 26.6872 32.2615C26.6743 32.0034 26.6421 31.7582 26.5904 31.5259C26.5388 31.2935 26.4549 31.1 26.3388 30.9451C26.2226 30.7773 26.029 30.6934 25.758 30.6934ZM34.9331 31.855C34.9331 32.4874 35.0298 33.094 35.2234 33.6748C35.417 34.2427 35.6945 34.746 36.0559 35.1848C36.4173 35.6236 36.8626 35.9721 37.3917 36.2302C37.9209 36.4884 38.5146 36.6174 39.1728 36.6174C39.8439 36.6174 40.4957 36.4948 41.1281 36.2496C41.7605 36.0044 42.2703 35.5978 42.6575 35.0299C42.8124 34.7976 42.9544 34.5653 43.0834 34.333C43.2125 34.0878 43.277 33.8167 43.277 33.5199C43.277 33.3392 43.2125 33.1908 43.0834 33.0746C42.9673 32.9585 42.8124 32.9004 42.6188 32.9004C42.4123 32.9004 42.2381 32.952 42.0961 33.0553C41.9541 33.1585 41.8186 33.2876 41.6895 33.4425C41.5734 33.5973 41.4572 33.7587 41.3411 33.9265C41.2378 34.0942 41.1217 34.2362 40.9926 34.3524C40.8248 34.4943 40.6248 34.5976 40.3925 34.6621C40.1601 34.7137 39.9536 34.8105 39.7729 34.9525C39.7342 34.9525 39.6439 34.959 39.5019 34.9719C39.3728 34.9719 39.289 34.9719 39.2502 34.9719C38.863 34.9719 38.5081 34.9009 38.1855 34.7589C37.8628 34.604 37.5789 34.404 37.3336 34.1588C37.1013 33.9006 36.9142 33.6038 36.7722 33.2682C36.6431 32.9327 36.5786 32.5777 36.5786 32.2034C36.5786 32.1776 36.5786 32.126 36.5786 32.0486C36.5915 31.9711 36.598 31.926 36.598 31.9131L36.6754 31.855C36.6754 31.855 36.7464 31.8485 36.8884 31.8356C37.0303 31.8227 37.1981 31.8163 37.3917 31.8163C37.5853 31.8033 37.7789 31.7969 37.9725 31.7969C38.179 31.784 38.3532 31.7775 38.4952 31.7775C38.6372 31.7775 38.8889 31.7775 39.2502 31.7775C39.6245 31.7646 40.0117 31.7582 40.4118 31.7582C40.8248 31.7582 41.212 31.7646 41.5734 31.7775C41.9477 31.7775 42.2058 31.7775 42.3478 31.7775C42.5543 31.7388 42.7543 31.6872 42.9479 31.6227C43.1415 31.5581 43.2964 31.4291 43.4125 31.2355C43.4125 31.2097 43.4125 31.158 43.4125 31.0806C43.4255 30.9902 43.4319 30.9322 43.4319 30.9064C43.4319 30.7902 43.4061 30.616 43.3545 30.3836C43.3028 30.1384 43.2383 29.8932 43.1609 29.648C43.0963 29.3899 43.0189 29.1575 42.9286 28.951C42.8511 28.7316 42.7866 28.5832 42.735 28.5058C42.2445 27.8863 41.7154 27.3829 41.1475 26.9957C40.5796 26.5956 39.8827 26.3956 39.0566 26.3956C38.9147 26.3956 38.7662 26.3956 38.6114 26.3956C38.4694 26.3827 38.3274 26.4085 38.1855 26.473C38.1467 26.4859 38.0758 26.5182 37.9725 26.5698C37.8822 26.6085 37.7789 26.6602 37.6628 26.7247C37.5466 26.7763 37.4369 26.8279 37.3336 26.8796C37.2304 26.9312 37.1594 26.9699 37.1207 26.9957C36.6948 27.228 36.3398 27.5313 36.0559 27.9056C35.7849 28.267 35.5655 28.6671 35.3977 29.1059C35.2299 29.5318 35.1073 29.9835 35.0298 30.4611C34.9653 30.9386 34.9331 31.4033 34.9331 31.855ZM36.7529 30.0739C36.7529 29.7512 36.8303 29.4737 36.9852 29.2414C37.14 28.9962 37.3336 28.7962 37.566 28.6413C37.7983 28.4864 38.0564 28.3767 38.3403 28.3122C38.6243 28.2347 38.9018 28.196 39.1728 28.196C39.418 28.196 39.6761 28.2283 39.9472 28.2928C40.2311 28.3444 40.4893 28.4348 40.7216 28.5638C40.9539 28.68 41.1475 28.8478 41.3024 29.0672C41.4572 29.2737 41.5347 29.5318 41.5347 29.8416C41.5347 29.8674 41.5347 29.9126 41.5347 29.9771C41.5347 30.0416 41.5282 30.0868 41.5153 30.1126C41.4895 30.1384 41.4508 30.1707 41.3992 30.2094C41.3604 30.2352 41.3282 30.2481 41.3024 30.2481H36.8303C36.7787 30.2481 36.7529 30.2288 36.7529 30.1901C36.7529 30.1384 36.7529 30.0997 36.7529 30.0739ZM47.1095 32.6681C47.1095 33.3134 47.1869 33.8813 47.3418 34.3717C47.5096 34.8622 47.858 35.3139 48.3872 35.7269C48.4001 35.7398 48.4388 35.7592 48.5034 35.785C48.5679 35.8108 48.6324 35.843 48.697 35.8818C48.7615 35.9076 48.826 35.9398 48.8905 35.9786C48.9551 36.0044 48.9938 36.0173 49.0067 36.0173C49.1487 36.1205 49.2584 36.2044 49.3358 36.269C49.4262 36.3206 49.5101 36.3658 49.5875 36.4045C49.6778 36.4303 49.7746 36.4496 49.8779 36.4626C49.9811 36.4755 50.1296 36.4819 50.3232 36.4819C50.8136 36.4819 51.246 36.3658 51.6203 36.1334C51.9945 35.8882 52.3043 35.5849 52.5495 35.2235C52.8076 34.8493 53.0012 34.4363 53.1303 33.9845C53.2594 33.5328 53.3239 33.0875 53.3239 32.6487C53.3239 32.3777 53.2594 32.126 53.1303 31.8937C53.0012 31.6614 52.7754 31.5452 52.4527 31.5452C52.2333 31.5452 52.0655 31.6227 51.9494 31.7775C51.8332 31.9195 51.7429 32.1002 51.6783 32.3196C51.6138 32.539 51.5493 32.7778 51.4847 33.0359C51.4331 33.2811 51.3557 33.5134 51.2524 33.7329C51.1621 33.9523 51.0266 34.1394 50.8459 34.2943C50.6652 34.4363 50.42 34.5072 50.1102 34.5072C49.994 34.5072 49.8714 34.4685 49.7424 34.3911C49.6133 34.3007 49.4907 34.1975 49.3745 34.0813C49.2713 33.9652 49.1809 33.8426 49.1035 33.7135C49.039 33.5844 49.0067 33.4683 49.0067 33.365V27.9831L49.239 27.7701C49.2519 27.7572 49.3294 27.7507 49.4713 27.7507C49.6262 27.7378 49.7424 27.7314 49.8198 27.7314C50.1941 27.7314 50.5168 27.7766 50.7878 27.8669C51.0717 27.9443 51.375 27.9831 51.6977 27.9831C51.9558 27.9831 52.1623 27.8927 52.3172 27.712C52.485 27.5184 52.5689 27.2926 52.5689 27.0344C52.5689 26.7634 52.4721 26.5117 52.2785 26.2794C52.0849 26.0471 51.8397 25.9309 51.5428 25.9309C51.2847 25.9309 51.0266 25.9503 50.7684 25.989C50.5232 26.0148 50.2651 26.0277 49.994 26.0277C49.8908 26.0277 49.7488 26.0277 49.5681 26.0277C49.4004 26.0277 49.31 26.0213 49.2971 26.0084L49.1616 25.8729C49.1487 25.86 49.1422 25.7761 49.1422 25.6212C49.1422 25.4663 49.1422 25.3502 49.1422 25.2727C49.1422 24.963 49.1551 24.6661 49.1809 24.3822C49.2197 24.0982 49.239 23.8078 49.239 23.511C49.239 23.2012 49.1939 22.9367 49.1035 22.7173C49.0261 22.4849 48.8002 22.3688 48.4259 22.3688C48.0516 22.3688 47.8064 22.4849 47.6903 22.7173C47.5741 22.9367 47.5031 23.2077 47.4773 23.5304C47.4644 23.8401 47.4579 24.1563 47.4579 24.479C47.4579 24.8016 47.3934 25.0598 47.2643 25.2534C47.1224 25.4599 46.9481 25.5889 46.7416 25.6406C46.548 25.6793 46.3351 25.6986 46.1028 25.6986C45.8834 25.6986 45.664 25.7051 45.4445 25.718C45.238 25.7309 45.0574 25.8019 44.9025 25.9309C44.7476 26.0729 44.5927 26.2213 44.4378 26.3762C44.2959 26.5311 44.2249 26.7247 44.2249 26.957C44.2249 27.1119 44.2765 27.2797 44.3798 27.4604C44.4959 27.641 44.6443 27.7314 44.825 27.7314H47.2643V29.8803C47.1095 30.3062 47.0449 30.7644 47.0707 31.2548C47.0966 31.7453 47.1095 32.2164 47.1095 32.6681ZM57.0252 32.6681C57.0252 33.3134 57.1026 33.8813 57.2575 34.3717C57.4253 34.8622 57.7738 35.3139 58.3029 35.7269C58.3158 35.7398 58.3546 35.7592 58.4191 35.785C58.4836 35.8108 58.5482 35.843 58.6127 35.8818C58.6772 35.9076 58.7418 35.9398 58.8063 35.9786C58.8708 36.0044 58.9095 36.0173 58.9224 36.0173C59.0644 36.1205 59.1741 36.2044 59.2516 36.269C59.3419 36.3206 59.4258 36.3658 59.5032 36.4045C59.5936 36.4303 59.6904 36.4496 59.7936 36.4626C59.8969 36.4755 60.0453 36.4819 60.2389 36.4819C60.7293 36.4819 61.1617 36.3658 61.536 36.1334C61.9103 35.8882 62.22 35.5849 62.4652 35.2235C62.7234 34.8493 62.917 34.4363 63.046 33.9845C63.1751 33.5328 63.2396 33.0875 63.2396 32.6487C63.2396 32.3777 63.1751 32.126 63.046 31.8937C62.917 31.6614 62.6911 31.5452 62.3684 31.5452C62.149 31.5452 61.9813 31.6227 61.8651 31.7775C61.7489 31.9195 61.6586 32.1002 61.5941 32.3196C61.5295 32.539 61.465 32.7778 61.4005 33.0359C61.3488 33.2811 61.2714 33.5134 61.1682 33.7329C61.0778 33.9523 60.9423 34.1394 60.7616 34.2943C60.5809 34.4363 60.3357 34.5072 60.0259 34.5072C59.9098 34.5072 59.7872 34.4685 59.6581 34.3911C59.529 34.3007 59.4064 34.1975 59.2903 34.0813C59.187 33.9652 59.0967 33.8426 59.0192 33.7135C58.9547 33.5844 58.9224 33.4683 58.9224 33.365V27.9831L59.1548 27.7701C59.1677 27.7572 59.2451 27.7507 59.3871 27.7507C59.5419 27.7378 59.6581 27.7314 59.7355 27.7314C60.1098 27.7314 60.4325 27.7766 60.7035 27.8669C60.9875 27.9443 61.2908 27.9831 61.6134 27.9831C61.8715 27.9831 62.0781 27.8927 62.2329 27.712C62.4007 27.5184 62.4846 27.2926 62.4846 27.0344C62.4846 26.7634 62.3878 26.5117 62.1942 26.2794C62.0006 26.0471 61.7554 25.9309 61.4585 25.9309C61.2004 25.9309 60.9423 25.9503 60.6842 25.989C60.4389 26.0148 60.1808 26.0277 59.9098 26.0277C59.8065 26.0277 59.6646 26.0277 59.4839 26.0277C59.3161 26.0277 59.2257 26.0213 59.2128 26.0084L59.0773 25.8729C59.0644 25.86 59.058 25.7761 59.058 25.6212C59.058 25.4663 59.058 25.3502 59.058 25.2727C59.058 24.963 59.0709 24.6661 59.0967 24.3822C59.1354 24.0982 59.1548 23.8078 59.1548 23.511C59.1548 23.2012 59.1096 22.9367 59.0192 22.7173C58.9418 22.4849 58.7159 22.3688 58.3417 22.3688C57.9674 22.3688 57.7221 22.4849 57.606 22.7173C57.4898 22.9367 57.4188 23.2077 57.393 23.5304C57.3801 23.8401 57.3737 24.1563 57.3737 24.479C57.3737 24.8016 57.3091 25.0598 57.1801 25.2534C57.0381 25.4599 56.8639 25.5889 56.6574 25.6406C56.4638 25.6793 56.2508 25.6986 56.0185 25.6986C55.7991 25.6986 55.5797 25.7051 55.3603 25.718C55.1538 25.7309 54.9731 25.8019 54.8182 25.9309C54.6633 26.0729 54.5085 26.2213 54.3536 26.3762C54.2116 26.5311 54.1406 26.7247 54.1406 26.957C54.1406 27.1119 54.1923 27.2797 54.2955 27.4604C54.4117 27.641 54.5601 27.7314 54.7408 27.7314H57.1801V29.8803C57.0252 30.3062 56.9607 30.7644 56.9865 31.2548C57.0123 31.7453 57.0252 32.2164 57.0252 32.6681ZM64.0564 35.6882C64.0564 35.9076 64.1209 36.0947 64.25 36.2496C64.3919 36.4045 64.5791 36.4819 64.8114 36.4819H71.413C71.6324 36.4819 71.7873 36.3916 71.8776 36.2109C71.9809 36.0302 72.0325 35.8495 72.0325 35.6688C72.0325 35.5785 72.0131 35.4688 71.9744 35.3397C71.9486 35.2106 71.897 35.088 71.8195 34.9719C71.755 34.8557 71.6711 34.7589 71.5679 34.6815C71.4775 34.5911 71.3743 34.546 71.2581 34.546H69.206L69.0898 34.4298V27.228C69.0898 26.957 68.9672 26.7505 68.722 26.6085C68.4897 26.4666 68.2638 26.3956 68.0444 26.3956C67.8896 26.3956 67.7347 26.4085 67.5798 26.4343C67.4378 26.4601 67.2894 26.473 67.1345 26.473C66.9151 26.473 66.6957 26.4601 66.4763 26.4343C66.2698 26.4085 66.0568 26.3956 65.8374 26.3956C65.6955 26.3956 65.5341 26.4085 65.3535 26.4343C65.1857 26.4472 65.0243 26.4859 64.8695 26.5505C64.7275 26.6021 64.6049 26.686 64.5016 26.8021C64.3984 26.9183 64.3468 27.0796 64.3468 27.2861C64.3468 27.3894 64.3597 27.5055 64.3855 27.6346C64.4242 27.7507 64.4758 27.8604 64.5403 27.9637C64.6049 28.067 64.6823 28.1573 64.7727 28.2347C64.8759 28.2993 64.9921 28.3315 65.1211 28.3315H67.3862V32.61C67.3733 32.6358 67.3604 32.7003 67.3475 32.8036C67.3346 32.9068 67.3217 32.9714 67.3088 32.9972C67.3088 33.0488 67.3023 33.1392 67.2894 33.2682C67.2894 33.3973 67.283 33.5328 67.27 33.6748C67.2571 33.8167 67.2442 33.9523 67.2313 34.0813C67.2313 34.2104 67.2313 34.3007 67.2313 34.3524L67.0958 34.546H64.9663C64.6565 34.546 64.4242 34.675 64.2693 34.9331C64.1273 35.1784 64.0564 35.43 64.0564 35.6882ZM66.6312 24.0143C66.6312 24.4403 66.7409 24.8081 66.9603 25.1178C67.1926 25.4276 67.5282 25.5825 67.967 25.5825C68.3284 25.5825 68.651 25.4728 68.935 25.2534C69.2189 25.021 69.3609 24.7113 69.3609 24.3241C69.3609 24.1305 69.3222 23.9369 69.2447 23.7433C69.1802 23.5497 69.0834 23.3755 68.9543 23.2206C68.8382 23.0528 68.6898 22.9238 68.5091 22.8334C68.3413 22.7302 68.1541 22.6785 67.9476 22.6785C67.5604 22.6785 67.2442 22.8076 66.999 23.0657C66.7538 23.3239 66.6312 23.6401 66.6312 24.0143ZM72.8188 35.5139C72.8188 35.7979 72.8705 36.0044 72.9737 36.1334C73.077 36.2625 73.2125 36.3529 73.3803 36.4045C73.561 36.4561 73.761 36.4884 73.9804 36.5013C74.1998 36.5013 74.4192 36.5142 74.6386 36.54C74.6644 36.54 74.729 36.5529 74.8322 36.5787C74.9355 36.6045 75 36.6174 75.0258 36.6174H75.8196H76.6133C76.8714 36.5916 77.0973 36.5142 77.2909 36.3851C77.4974 36.2431 77.6007 36.0366 77.6007 35.7656C77.6007 35.43 77.5297 35.1977 77.3877 35.0687C77.2586 34.9396 77.0973 34.8493 76.9037 34.7976C76.723 34.746 76.5423 34.7137 76.3616 34.7008C76.1939 34.675 76.0712 34.604 75.9938 34.4879V34.1975C75.9938 34.0555 75.9938 33.9394 75.9938 33.849C76.0067 33.7587 76.0454 33.649 76.11 33.5199V31.3129C76.11 31.3129 76.1422 31.2548 76.2068 31.1387C76.2842 31.0225 76.3423 30.9322 76.381 30.8676C76.3939 30.8418 76.4197 30.8031 76.4584 30.7515C76.4972 30.6869 76.523 30.6482 76.5359 30.6353C76.6778 30.3901 76.8392 30.132 77.0199 29.8609C77.2135 29.577 77.4264 29.3189 77.6587 29.0866C77.891 28.8542 78.1427 28.6606 78.4138 28.5058C78.6977 28.3509 79.001 28.2735 79.3237 28.2735C79.5173 28.2735 79.7044 28.2928 79.8851 28.3315C80.0658 28.3573 80.2142 28.467 80.3304 28.6606C80.3304 28.6994 80.3304 28.7703 80.3304 28.8736C80.3433 28.9769 80.3497 29.0866 80.3497 29.2027C80.3626 29.306 80.3691 29.4092 80.3691 29.5125C80.382 29.6157 80.3884 29.6867 80.3884 29.7254C80.4013 29.7512 80.4142 29.8287 80.4272 29.9577C80.453 30.0739 80.4659 30.1449 80.4659 30.1707V30.2094V30.2481C80.4659 30.2868 80.4465 30.3643 80.4078 30.4804C80.382 30.5966 80.3626 30.674 80.3497 30.7128V33.6554L80.1755 34.4104L80.098 34.4879C79.685 34.5137 79.3366 34.5976 79.0526 34.7396C78.7816 34.8686 78.6461 35.1784 78.6461 35.6688C78.6461 36.0818 78.8526 36.3464 79.2656 36.4626C79.3688 36.4626 79.5495 36.469 79.8076 36.4819C80.0658 36.4948 80.3368 36.5077 80.6207 36.5206C80.9176 36.5206 81.1951 36.5271 81.4532 36.54C81.7113 36.54 81.892 36.54 81.9953 36.54H82.2857C82.5954 36.54 82.8471 36.4884 83.0407 36.3851C83.2472 36.269 83.3504 36.0431 83.3504 35.7075C83.3504 35.2945 83.2085 35.0041 82.9245 34.8364C82.6535 34.6686 82.3437 34.5524 81.9953 34.4879L81.9178 34.4104C81.9178 34.4104 81.9114 34.3782 81.8985 34.3136C81.8985 34.2362 81.8985 34.1781 81.8985 34.1394C81.8985 33.9974 81.8985 33.8684 81.8985 33.7522C81.9114 33.6361 81.9437 33.507 81.9953 33.365V28.5832C81.9953 28.2864 81.9243 27.996 81.7823 27.712C81.6404 27.4281 81.4532 27.1764 81.2209 26.957C81.0015 26.7376 80.7434 26.5634 80.4465 26.4343C80.1626 26.2923 79.8786 26.2213 79.5947 26.2213C79.1301 26.2213 78.6912 26.3504 78.2782 26.6085C77.8781 26.8538 77.4974 27.1054 77.136 27.3636C77.0586 27.4152 76.9811 27.4926 76.9037 27.5959C76.8263 27.6991 76.7488 27.8024 76.6714 27.9056C76.594 28.0089 76.5165 28.0992 76.4391 28.1767C76.3745 28.2541 76.3036 28.2928 76.2261 28.2928C76.2261 28.2928 76.2132 28.2928 76.1874 28.2928C76.1745 28.2928 76.1616 28.2864 76.1487 28.2735C76.1229 27.9379 76.0842 27.6604 76.0325 27.441C75.9809 27.2216 75.8906 27.0473 75.7615 26.9183C75.6324 26.7763 75.4517 26.6666 75.2194 26.5892C75 26.5117 74.7032 26.4472 74.3289 26.3956C74.3289 26.3827 74.2837 26.3762 74.1934 26.3762C74.1159 26.3762 74.0578 26.3762 74.0191 26.3762C73.7352 26.3762 73.4706 26.4407 73.2254 26.5698C72.9931 26.686 72.8769 26.9118 72.8769 27.2474C72.8769 27.5571 72.9544 27.7895 73.1092 27.9443C73.277 28.0863 73.4512 28.196 73.6319 28.2735C73.8255 28.3509 73.9998 28.4154 74.1546 28.467C74.3224 28.5058 74.4063 28.5703 74.4063 28.6606V33.1327C74.3676 33.3263 74.3353 33.5457 74.3095 33.7909C74.2966 34.0232 74.2773 34.2298 74.2514 34.4104L74.174 34.4879C73.7868 34.5137 73.4642 34.5847 73.206 34.7008C72.9479 34.8041 72.8188 35.0751 72.8188 35.5139ZM84.1714 37.508C84.1714 38.1017 84.3134 38.5727 84.5973 38.9212C84.8942 39.2826 85.3072 39.5536 85.8363 39.7343C85.9396 39.7601 86.0235 39.8053 86.088 39.8698C86.1654 39.9473 86.2558 40.0054 86.359 40.0441C86.9011 40.2377 87.4303 40.3603 87.9465 40.4119C88.4628 40.4635 89.0113 40.4893 89.5921 40.4893C90.1083 40.4893 90.6311 40.4313 91.1602 40.3151C91.7023 40.2119 92.1927 40.0312 92.6315 39.773C93.0704 39.5278 93.4253 39.1923 93.6963 38.7663C93.9674 38.3533 94.1029 37.8371 94.1029 37.2176C94.1029 36.9724 94.0706 36.7529 94.0061 36.5594C93.9415 36.3658 93.8512 36.1915 93.735 36.0366C93.6189 35.8689 93.4834 35.714 93.3285 35.572C93.1736 35.43 92.9994 35.2752 92.8058 35.1074C92.7154 35.0299 92.6509 34.9719 92.6122 34.9331C92.5735 34.8944 92.5412 34.8622 92.5154 34.8364C92.4896 34.8105 92.4509 34.7847 92.3992 34.7589C92.3605 34.7331 92.296 34.7008 92.2056 34.6621C91.9862 34.5847 91.7281 34.546 91.4313 34.546C91.1473 34.546 90.9214 34.5331 90.7537 34.5072C90.7279 34.5072 90.6569 34.4943 90.5407 34.4685C90.4375 34.4427 90.3213 34.4169 90.1922 34.3911C90.0632 34.3653 89.9406 34.3395 89.8244 34.3136C89.7212 34.2878 89.6566 34.2749 89.6308 34.2749H88.9532C88.5015 34.2749 88.0627 34.3395 87.6368 34.4685C87.2109 34.5976 86.772 34.6621 86.3203 34.6621C86.2558 34.6621 86.1913 34.6363 86.1267 34.5847C86.0622 34.5331 86.017 34.4814 85.9912 34.4298V34.1588C85.9912 33.9523 86.0299 33.7716 86.1074 33.6167C86.1977 33.4489 86.3655 33.365 86.6107 33.365C86.8172 33.365 87.0108 33.3973 87.1915 33.4618C87.3722 33.5134 87.5464 33.5715 87.7142 33.6361C87.8949 33.7006 88.0756 33.7651 88.2563 33.8297C88.437 33.8813 88.6306 33.9071 88.8371 33.9071C88.9919 33.9071 89.1146 33.9006 89.2049 33.8877C89.3082 33.8619 89.3985 33.8297 89.4759 33.7909C89.5663 33.7522 89.6566 33.7135 89.747 33.6748C89.8373 33.6232 89.947 33.5715 90.0761 33.5199C90.4116 33.3908 90.6956 33.2166 90.9279 32.9972C91.1731 32.7649 91.3732 32.5067 91.528 32.2228C91.6829 31.926 91.7926 31.6098 91.8572 31.2742C91.9346 30.9386 91.9733 30.5966 91.9733 30.2481C91.9733 29.9255 91.9281 29.6222 91.8378 29.3382C91.7475 29.0414 91.7023 28.7316 91.7023 28.409C91.7797 28.409 91.8507 28.4735 91.9152 28.6026C91.9927 28.7316 92.083 28.8801 92.1863 29.0478C92.2895 29.2027 92.425 29.3447 92.5928 29.4737C92.7606 29.6028 92.9865 29.6673 93.2704 29.6673C93.6705 29.6673 93.948 29.5254 94.1029 29.2414C94.2577 28.9446 94.3352 28.6155 94.3352 28.2541C94.3352 27.9702 94.2642 27.712 94.1222 27.4797C93.9932 27.2474 93.8189 27.0538 93.5995 26.8989C93.393 26.7311 93.1543 26.6085 92.8832 26.5311C92.6122 26.4407 92.3476 26.3956 92.0895 26.3956C91.5861 26.3956 91.1409 26.5763 90.7537 26.9376H90.3858C90.2051 26.9376 90.0309 26.9118 89.8631 26.8602C89.6953 26.7957 89.5276 26.7311 89.3598 26.6666C89.2049 26.6021 89.0436 26.544 88.8758 26.4924C88.708 26.4278 88.5402 26.3956 88.3724 26.3956C88.3337 26.3956 88.2756 26.4085 88.1982 26.4343C88.1208 26.4472 88.0433 26.4666 87.9659 26.4924C87.8884 26.5182 87.811 26.544 87.7336 26.5698C87.669 26.5956 87.6174 26.615 87.5787 26.6279C86.843 26.9505 86.2622 27.4152 85.8363 28.0218C85.4233 28.6284 85.2168 29.3382 85.2168 30.1513C85.2168 30.4482 85.2555 30.7321 85.333 31.0032C85.4233 31.2742 85.4685 31.5581 85.4685 31.855C85.4685 31.8808 85.4685 31.9195 85.4685 31.9711C85.4685 32.0228 85.462 32.0615 85.4491 32.0873C85.1394 32.3841 84.8813 32.7003 84.6748 33.0359C84.4812 33.3586 84.3844 33.7393 84.3844 34.1781C84.3844 34.3201 84.4102 34.4621 84.4618 34.604C84.5134 34.7331 84.5651 34.8622 84.6167 34.9912C84.6812 35.1203 84.7393 35.2494 84.7909 35.3784C84.8425 35.5075 84.8684 35.6365 84.8684 35.7656L84.849 35.8624C84.6296 36.1076 84.4618 36.3529 84.3456 36.5981C84.2295 36.8433 84.1714 37.1466 84.1714 37.508ZM85.8363 37.6048V37.2757C85.8363 36.953 85.9396 36.7078 86.1461 36.54C86.3655 36.3593 86.6236 36.2238 86.9205 36.1334C87.2302 36.0431 87.5529 35.9915 87.8884 35.9786C88.224 35.9528 88.5144 35.9398 88.7596 35.9398C88.9403 35.9398 89.2372 35.9528 89.6502 35.9786C90.0761 36.0044 90.502 36.0689 90.9279 36.1722C91.3667 36.2625 91.7475 36.398 92.0701 36.5787C92.4057 36.7594 92.5735 37.0046 92.5735 37.3144C92.5735 37.508 92.5089 37.6758 92.3799 37.8177C92.2508 37.9597 92.0959 38.0823 91.9152 38.1856C91.7346 38.2888 91.541 38.3727 91.3345 38.4372C91.1409 38.5018 90.9731 38.5534 90.8311 38.5921C90.4568 38.6179 90.0503 38.6373 89.6115 38.6502C89.1855 38.6631 88.7661 38.6695 88.3531 38.6695C87.8497 38.6695 87.3851 38.5857 86.9592 38.4179C86.5462 38.2501 86.1719 37.9791 85.8363 37.6048ZM86.5914 30.2288C86.5914 29.9448 86.6494 29.6802 86.7656 29.435C86.8818 29.1898 87.0366 28.9769 87.2302 28.7962C87.4238 28.6155 87.6432 28.4735 87.8884 28.3703C88.1466 28.267 88.4112 28.2154 88.6822 28.2154C89.2759 28.2154 89.7212 28.4154 90.018 28.8155C90.3148 29.2027 90.4633 29.6867 90.4633 30.2675C90.4633 30.5514 90.4181 30.8225 90.3278 31.0806C90.2374 31.3387 90.1083 31.5646 89.9406 31.7582C89.7728 31.9518 89.5663 32.1066 89.3211 32.2228C89.0887 32.339 88.8242 32.397 88.5273 32.397C88.2563 32.397 87.9982 32.3325 87.7529 32.2034C87.5206 32.0744 87.3141 31.9131 87.1334 31.7195C86.9656 31.513 86.8301 31.2806 86.7269 31.0225C86.6365 30.7644 86.5914 30.4998 86.5914 30.2288ZM95.127 35.6495C95.127 35.8818 95.1721 36.1141 95.2625 36.3464C95.3657 36.5658 95.5593 36.6755 95.8433 36.6755C96.0756 36.6755 96.2434 36.6239 96.3466 36.5206C96.4628 36.4174 96.5402 36.3012 96.5789 36.1722C96.6306 36.0302 96.6693 35.9011 96.6951 35.785C96.7338 35.6559 96.7919 35.572 96.8693 35.5333C97.0887 35.6495 97.2888 35.8043 97.4695 35.9979C97.6502 36.1786 97.8567 36.3012 98.089 36.3658C98.1277 36.3787 98.1922 36.398 98.2826 36.4238C98.3729 36.4496 98.4633 36.4755 98.5536 36.5013C98.6569 36.5271 98.7472 36.5529 98.8246 36.5787C98.915 36.5916 98.9731 36.5981 98.9989 36.5981C99.0118 36.5981 99.0828 36.6045 99.2118 36.6174C99.3409 36.6174 99.4441 36.6174 99.5216 36.6174C99.9862 36.6174 100.431 36.5335 100.857 36.3658C101.296 36.198 101.683 35.9657 102.019 35.6688C102.367 35.3591 102.645 34.9977 102.851 34.5847C103.058 34.1717 103.161 33.7199 103.161 33.2295C103.161 32.752 103.039 32.3132 102.793 31.9131C102.561 31.5 102.277 31.1387 101.942 30.8289C101.283 30.5579 100.58 30.3578 99.8313 30.2288C99.0828 30.0997 98.3471 30.0481 97.6243 30.0739C97.3662 30.0094 97.1597 29.8997 97.0048 29.7448C96.8629 29.5899 96.7919 29.364 96.7919 29.0672C96.7919 28.951 96.8177 28.8284 96.8693 28.6994C96.9339 28.5703 97.0113 28.4541 97.1016 28.3509C97.2049 28.2347 97.3146 28.1379 97.4308 28.0605C97.5469 27.9831 97.6631 27.925 97.7792 27.8863C97.8438 27.8863 97.9664 27.8863 98.1471 27.8863C98.3277 27.8734 98.4439 27.8669 98.4955 27.8669C98.6762 27.8669 98.8182 27.8669 98.9214 27.8669C99.0247 27.8669 99.1215 27.8734 99.2118 27.8863C99.3022 27.8992 99.3925 27.9185 99.4829 27.9443C99.5861 27.9572 99.7281 27.9895 99.9088 28.0411C100.193 28.1186 100.412 28.2799 100.567 28.5251C100.722 28.7703 100.857 29.0285 100.974 29.2995C101.09 29.5576 101.212 29.79 101.341 29.9965C101.483 30.203 101.67 30.3062 101.903 30.3062C102.174 30.3062 102.374 30.1901 102.503 29.9577C102.645 29.7125 102.716 29.4737 102.716 29.2414V29.0091C102.716 28.9317 102.709 28.7962 102.697 28.6026C102.684 28.3961 102.671 28.1831 102.658 27.9637C102.658 27.7314 102.651 27.5184 102.638 27.3248C102.638 27.1183 102.638 26.9764 102.638 26.8989C102.651 26.7182 102.58 26.5634 102.426 26.4343C102.284 26.2923 102.122 26.2213 101.942 26.2213C101.812 26.2213 101.709 26.2472 101.632 26.2988C101.554 26.3504 101.483 26.4149 101.419 26.4924C101.367 26.5698 101.309 26.6537 101.245 26.744C101.193 26.8344 101.122 26.9118 101.032 26.9764C100.644 26.7053 100.206 26.5053 99.7152 26.3762C99.2376 26.2342 98.7666 26.131 98.3019 26.0665H98.1277C97.9599 26.0665 97.7921 26.0923 97.6243 26.1439C97.4695 26.1826 97.321 26.2342 97.1791 26.2988C96.5596 26.5569 96.082 26.886 95.7465 27.2861C95.4238 27.6862 95.2625 28.2283 95.2625 28.9123C95.2625 29.506 95.3464 29.9835 95.5142 30.3449C95.6948 30.7063 95.9272 30.9902 96.2111 31.1968C96.5079 31.4033 96.85 31.5517 97.2372 31.642C97.6373 31.7324 98.0503 31.8034 98.4762 31.855C98.9021 31.9066 99.3344 31.9582 99.7733 32.0099C100.212 32.0615 100.632 32.1518 101.032 32.2809C101.251 32.3712 101.393 32.4809 101.458 32.61C101.535 32.7391 101.574 32.9133 101.574 33.1327C101.574 33.4425 101.496 33.707 101.341 33.9265C101.199 34.133 101.012 34.3007 100.78 34.4298C100.561 34.5589 100.309 34.6557 100.025 34.7202C99.7539 34.7718 99.4829 34.7976 99.2118 34.7976C98.9021 34.7976 98.6246 34.7525 98.3794 34.6621C98.1471 34.5589 97.9341 34.4298 97.7405 34.2749C97.5469 34.1071 97.3662 33.92 97.1984 33.7135C97.0436 33.4941 96.8822 33.2682 96.7144 33.0359C96.637 32.9327 96.5918 32.81 96.5789 32.6681C96.566 32.5132 96.5144 32.3841 96.4241 32.2809C96.3595 32.2164 96.2756 32.1776 96.1724 32.1647C96.082 32.1389 95.9981 32.126 95.9207 32.126C95.7529 32.126 95.598 32.1841 95.4561 32.3002C95.3141 32.4035 95.2431 32.5455 95.2431 32.7262V35.0106C95.1786 35.1397 95.1399 35.2494 95.127 35.3397C95.127 35.4171 95.127 35.5204 95.127 35.6495Z" fill="white"/>
<path d="M24.6158 39.0374H103.393V40.0054H24.6158V39.0374Z" fill="white"/>
<path d="M11.5647 70.1193C11.7926 69.9833 11.8272 69.7819 11.882 69.478C12.2199 67.6049 12.1779 65.6583 12.4655 63.7741C12.9767 60.4258 14.699 52.1512 19.3754 54.3188C21.3839 55.2497 23.1578 57.2605 24.586 59.0067C25.8716 60.5786 26.8568 62.2966 27.872 64.0806C28.5962 65.3532 29.3385 66.6076 30.1702 67.798C30.6508 68.4859 30.8831 68.8432 31.2809 67.8832C31.9031 66.3814 32.3548 64.858 33.1389 63.4336C33.4131 62.9354 34.1128 61.4356 34.9354 61.9126C35.9885 62.523 36.88 64.1086 37.6636 65.0284C38.3999 65.8927 39.6008 67.5983 40.924 67.1454C42.199 66.7089 42.8219 65.0804 44.1486 64.6141C45.926 63.9894 47.4626 65.1979 48.8269 66.2827C50.0826 67.2812 51.3733 68.9801 53.0598 69.0466C53.5742 69.0669 54.0916 68.9261 54.58 68.7458C56.2444 68.1315 57.7404 67.0327 59.4015 66.4075C62.8014 65.1281 66.1707 64.6909 69.664 65.7946C70.4907 66.0558 71.2718 66.4768 72.044 66.8956C72.5277 67.1579 72.9499 67.5428 73.4209 67.8321C73.6475 67.9712 73.8743 68.2027 74.1324 68.1783C74.3296 68.1597 74.4383 67.8952 74.5623 67.7243C75.3751 66.6041 75.2077 66.2638 76.538 65.4143C78.6748 64.05 81.0651 64.3126 83.3251 65.1022C83.9366 65.3158 84.5114 65.6436 85.0909 65.9478C85.1959 66.0029 86.4368 66.9028 86.8721 66.7821C87.0968 66.7199 87.2486 66.4786 87.4096 66.294C88.2799 65.2959 88.2739 64.8134 89.5593 64.1487C91.4434 63.1744 93.463 63.4295 95.3534 64.1714C96.2143 64.5093 96.9933 65.3381 97.9535 64.9887C99.579 64.3972 100.815 63.655 102.606 63.5585C104.851 63.4375 106.94 64.0374 108.835 65.3746C109.26 65.6744 109.635 66.0553 110.013 66.4246C110.382 66.7856 110.625 67.3111 111.046 67.5937C111.428 67.8497 110.988 66.6067 110.985 66.1124C110.973 64.1372 112.401 63.8747 113.81 64.5119C114.693 64.911 115.542 64.8071 116.503 64.8071" stroke="white" stroke-width="0.781421" stroke-linecap="round"/>
<path d="M12.8789 109.006C12.9193 108.692 13.0722 108.401 13.1757 108.109C13.618 106.861 14.0555 105.626 14.6089 104.431C15.0477 103.484 15.6056 102.597 15.9397 101.593C16.2042 100.799 16.4111 100.01 16.8098 99.2779C17.3975 98.1994 18.4207 96.5058 19.5635 96.0769C20.3656 95.7759 21.5648 97.7952 21.8771 98.3358C22.5387 99.4809 22.793 101.017 23.7299 101.968C24.2434 102.49 25.1042 102.044 25.5726 101.684C26.7264 100.799 27.222 99.3337 27.8144 97.9952C28.0528 97.4568 28.6939 95.1633 29.5342 96.1904C30.7826 97.7163 31.2768 99.897 32.5234 101.412C33.6733 102.809 35.2965 100.367 36.178 99.7092C37.5866 98.6584 39.1824 97.772 40.4979 99.4709C41.0209 100.146 41.7311 101.667 42.0846 102.445C42.2551 102.82 42.4002 103.208 42.5658 103.586C42.6425 103.761 42.6621 104 42.8114 104.102C42.8948 104.159 42.852 103.887 42.8473 103.779C42.8315 103.42 42.7694 103.065 42.75 102.706C42.7029 101.833 42.5934 100.184 42.9548 99.346C44.2013 96.457 48.4575 98.7416 50.1513 99.5276C52.3908 100.567 52.3405 100.74 54.3996 101.798C54.8447 102.026 55.8138 102.603 56.4367 102.399C56.8541 102.263 57.4115 101.379 57.6446 101.105C58.1116 100.557 58.6421 99.8888 59.3849 99.7887C61.4806 99.5062 63.2379 101.947 64.6159 103.285C65.004 103.661 65.6205 104.321 66.2129 104.397C66.7271 104.464 67.4163 104.03 67.8303 103.83C70.0599 102.75 72.1161 102.449 74.5355 102.978C75.8971 103.276 76.0184 103.478 77.197 103.932C77.7339 104.139 78.0231 104.272 78.5893 104.113C79.1848 103.946 80.2371 103.304 80.7288 103.058C81.9785 102.432 82.9715 101.945 84.3526 101.684C86.9916 101.187 89.3063 101.797 91.846 102.399C92.5974 102.578 92.5327 102.495 93.2484 102.172C94.4457 101.632 94.8996 101.289 96.3195 101.174C99.2174 100.938 101.718 102.093 104.038 103.886C104.167 103.986 104.849 104.671 105.195 104.624C105.459 104.588 106.028 103.826 106.106 103.739C107.161 102.564 108.258 101.716 109.791 101.571C111.035 101.453 112.363 101.858 113.579 102.059" stroke="white" stroke-width="0.781421" stroke-linecap="round"/>
<path d="M13.9302 140.31C14.0604 140.31 14.0414 140.249 14.0529 140.096C14.1131 139.295 14.2942 138.549 14.5877 137.812C15.2722 136.092 16.7121 134.868 18.4361 134.701C20.7443 134.477 21.8868 137.827 23.4155 139.143C25.6363 141.056 27.3873 136.341 29.0786 135.663C31.2206 134.805 32.9593 141.779 34.3122 140.485C35.1994 139.636 35.6338 138.507 37.021 138.648C38.2381 138.771 39.068 139.712 40.0191 140.417C41.049 141.18 42.0781 140.405 43.0786 139.94C44.9054 139.091 46.8778 138.179 48.9083 138.58C49.4243 138.681 49.8358 138.934 50.2321 139.289C50.3851 139.426 50.6639 139.815 50.8545 139.931C51.1077 140.085 51.3551 140.049 51.6172 139.931C52.9024 139.352 53.9759 138.406 55.3034 137.88C57.9009 136.85 60.5977 136.738 62.9522 138.502C63.9748 139.268 64.3171 140.414 65.6566 139.78C66.5774 139.344 67.4144 138.711 68.3304 138.264C69.9317 137.481 71.0175 137.048 72.8057 136.932C75.0984 136.783 77.5089 137.44 78.9334 139.556C79.3639 140.196 79.1994 140.563 79.5997 139.819C80.4048 138.322 81.6416 137.274 83.2772 137.243C85.3765 137.203 87.5122 138.416 89.0368 139.94C89.5952 140.499 89.8142 141.343 90.5095 140.606C92.1427 138.875 93.7462 137.734 96.0674 137.408C97.5827 137.195 99.6135 137.239 100.332 139.017C100.443 139.291 100.471 140.082 100.67 139.503C101.051 138.393 102.009 138.779 102.813 139.158C103.682 139.567 104.558 140.156 105.373 140.674C105.702 140.883 106.631 141.533 107.104 141.675C107.773 141.877 108.12 140.995 108.731 140.84C109.658 140.604 110.523 141.16 111.439 141.097C111.879 141.067 112.244 140.867 112.649 140.699C113.225 140.459 113.786 140.325 114.367 140.135" stroke="white" stroke-width="0.781421" stroke-linecap="round"/>
<rect x="48" y="1" width="30" height="8" fill="#F5BC4D" stroke="black" stroke-width="0.78"/>
<mask id="path-7-inside-1_103_959" fill="white">
<path fill-rule="evenodd" clip-rule="evenodd" d="M73.1012 163H51.9114V186H73.1012V163Z"/>
</mask>
<path fill-rule="evenodd" clip-rule="evenodd" d="M73.1012 163H51.9114V186H73.1012V163Z" fill="#F5BC4D"/>
<path d="M51.9114 163V162.215H51.1266V163H51.9114ZM73.1012 163H73.8861V162.215H73.1012V163ZM51.9114 186H51.1266V186.785H51.9114V186ZM73.1012 186V186.785H73.8861V186H73.1012ZM51.9114 163.785H73.1012V162.215H51.9114V163.785ZM52.6962 186V163H51.1266V186H52.6962ZM51.9114 186.785H73.1012V185.215H51.9114V186.785ZM72.3164 163V186H73.8861V163H72.3164Z" fill="black" mask="url(#path-7-inside-1_103_959)"/>
<rect x="48" y="159" width="30" height="8" fill="#F5BC4D" stroke="black" stroke-width="0.78"/>
<mask id="path-10-inside-2_103_959" fill="white">
<path fill-rule="evenodd" clip-rule="evenodd" d="M40.0019 186H85.7956C81.4485 177.588 72.8259 171.857 62.8988 171.857C52.9716 171.857 44.349 177.588 40.0019 186Z"/>
</mask>
<path fill-rule="evenodd" clip-rule="evenodd" d="M40.0019 186H85.7956C81.4485 177.588 72.8259 171.857 62.8988 171.857C52.9716 171.857 44.349 177.588 40.0019 186Z" fill="#F5BC4D"/>
<path d="M40.0019 186L39.3047 185.64L38.7129 186.785H40.0019V186ZM85.7956 186V186.785H87.0845L86.4928 185.64L85.7956 186ZM40.0019 186.785H85.7956V185.215H40.0019V186.785ZM62.8987 172.642C72.5135 172.642 80.8771 178.191 85.0984 186.36L86.4928 185.64C82.0199 176.984 73.1383 171.072 62.8987 171.072V172.642ZM40.6991 186.36C44.9204 178.191 53.284 172.642 62.8987 172.642V171.072C52.6592 171.072 43.7776 176.984 39.3047 185.64L40.6991 186.36Z" fill="black" mask="url(#path-10-inside-2_103_959)"/>
</svg>
