<svg width="210" height="217" viewBox="0 0 210 217" fill="none" xmlns="http://www.w3.org/2000/svg">
<rect width="210" height="217" fill="#FCFCFC"/>
<rect width="87.1746" height="3.90607" transform="matrix(0.999995 0.0031288 0.0031288 -0.999995 14 191.906)" fill="#EFEBEB"/>
<rect width="87.7434" height="3.90607" transform="matrix(0.999995 0.0031288 0.0031288 -0.999995 14 182.906)" fill="#EFEBEB"/>
<rect width="87.1774" height="3.90607" transform="matrix(0.999995 0.0031288 0.0031288 -0.999995 14 200.906)" fill="#EFEBEB"/>
<rect width="87.1749" height="3.90607" transform="matrix(0.999995 0.0031288 0.0031288 -0.999995 14 209.906)" fill="#EFEBEB"/>
<rect width="83.9897" height="3.90607" transform="matrix(0.999993 0.00366625 0.00267013 -0.999996 110 191.906)" fill="#EFEBEB"/>
<rect width="83.9897" height="3.90607" transform="matrix(0.999993 0.00366625 0.00267013 -0.999996 110 182.906)" fill="#EFEBEB"/>
<rect width="83.9897" height="3.90607" transform="matrix(0.999993 0.00366625 0.00267013 -0.999996 110 200.906)" fill="#EFEBEB"/>
<rect width="83.9897" height="3.90607" transform="matrix(0.999993 0.00366625 0.00267013 -0.999996 110 209.906)" fill="#EFEBEB"/>
<rect x="14.6104" y="41.2244" width="179.145" height="128.624" transform="rotate(0.120464 14.6104 41.2244)" fill="#EFEBEB"/>
<rect x="14.5586" y="21.2244" width="178.601" height="13.5116" transform="rotate(0.316789 14.5586 21.2244)" fill="#EFEBEB"/>
<path d="M123.512 134.2C123.512 135.19 123.688 136.25 124.042 137.38C124.395 138.511 124.89 139.571 125.526 140.56C126.162 141.55 126.939 142.398 127.858 143.104C128.776 143.74 129.801 144.058 130.932 144.058C132.062 144.058 133.087 143.811 134.006 143.316C134.995 142.751 135.808 142.044 136.444 141.196C137.15 140.348 137.68 139.394 138.034 138.334C138.387 137.274 138.564 136.214 138.564 135.154C138.564 132.964 137.928 131.056 136.656 129.43C135.384 127.805 133.582 126.992 131.25 126.992C129.2 126.992 127.398 127.664 125.844 129.006C124.289 130.349 123.512 132.08 123.512 134.2ZM125.632 114.06C125.632 114.838 125.702 115.65 125.844 116.498C125.985 117.276 126.232 118.053 126.586 118.83C127.01 119.537 127.504 120.138 128.07 120.632C128.706 121.056 129.483 121.268 130.402 121.268C131.532 121.268 132.38 120.95 132.946 120.314C133.582 119.608 134.041 118.76 134.324 117.77C134.606 116.781 134.748 115.756 134.748 114.696C134.818 113.566 134.854 112.576 134.854 111.728C135.066 111.304 135.631 110.81 136.55 110.244C137.468 109.608 138.493 108.972 139.624 108.336C140.754 107.7 141.885 107.1 143.016 106.534C144.146 105.969 144.994 105.474 145.56 105.05C146.69 104.344 147.644 103.319 148.422 101.976C149.27 100.634 149.941 99.2204 150.436 97.7364C150.93 96.1817 151.284 94.627 151.496 93.0724C151.778 91.447 151.92 89.9984 151.92 88.7264C151.92 88.373 151.884 87.843 151.814 87.1364C151.814 86.4297 151.814 86.041 151.814 85.9704C151.814 85.8997 151.708 85.5817 151.496 85.0164C151.354 84.3804 151.178 83.6737 150.966 82.8964C150.754 82.0484 150.542 81.2357 150.33 80.4584C150.118 79.681 149.941 79.045 149.8 78.5504C149.729 78.409 149.623 78.2677 149.482 78.1264C149.411 77.9144 149.376 77.773 149.376 77.7024L142.698 69.8584C142.344 69.4344 141.567 69.0457 140.366 68.6924C139.235 68.339 137.928 68.0564 136.444 67.8444C135.03 67.5617 133.652 67.3497 132.31 67.2084C130.967 66.9964 129.942 66.8904 129.236 66.8904C126.48 66.8904 123.9 67.4204 121.498 68.4804C119.166 69.4697 117.116 70.8477 115.35 72.6144C113.654 74.3104 112.311 76.3597 111.322 78.7624C110.403 81.165 109.944 83.7444 109.944 86.5004C109.944 87.9137 110.085 89.2564 110.368 90.5284C110.65 91.7297 111.11 92.7897 111.746 93.7084C112.382 94.627 113.194 95.369 114.184 95.9344C115.244 96.4997 116.516 96.7824 118 96.7824C120.049 96.7824 121.78 96.217 123.194 95.0864C124.607 93.9557 125.314 92.2597 125.314 89.9984C125.314 88.9384 125.066 88.0197 124.572 87.2424C124.077 86.3944 123.547 85.617 122.982 84.9104C122.416 84.2037 121.886 83.5324 121.392 82.8964C120.897 82.1897 120.65 81.4124 120.65 80.5644C120.65 80.2817 120.65 80.0697 120.65 79.9284C120.65 79.7164 120.826 79.5397 121.18 79.3984C122.734 78.5504 124.218 77.8437 125.632 77.2784C127.045 76.713 128.67 76.4304 130.508 76.4304C134.394 76.4304 137.539 77.7024 139.942 80.2464C142.344 82.7904 143.546 86.0057 143.546 89.8924C143.546 91.3057 143.228 92.8604 142.592 94.5564C141.956 96.1817 140.896 97.3477 139.412 98.0544L130.296 102.188C129.236 102.683 128.388 103.39 127.752 104.308C127.116 105.156 126.621 106.146 126.268 107.276C125.985 108.407 125.808 109.573 125.738 110.774C125.667 111.905 125.632 113 125.632 114.06Z" fill="#9C1919"/>
<path fill-rule="evenodd" clip-rule="evenodd" d="M14.4843 147.014L14.605 83.2778C18.7249 81.5562 22.9523 80.5736 27.0544 80.5736C29.521 80.5736 31.8697 80.4752 34.0743 80.3829C49.3538 79.7432 57.7163 79.3931 50.4842 114.073C40.6991 135.615 32.2124 146.088 14.4843 147.014Z" fill="#D9D9D9"/>
<path fill-rule="evenodd" clip-rule="evenodd" d="M36.6691 41.2894L63.4845 83.2243H14.4843L14.5474 41.2244L36.6691 41.2894Z" fill="#737272"/>
<path fill-rule="evenodd" clip-rule="evenodd" d="M14.491 96.2069L14.4843 74.2419C15.6977 74.2303 16.9201 74.2244 18.1506 74.2244C53.6808 74.2244 82.4838 79.1492 82.4838 85.2244C82.4838 91.2995 53.6808 96.2244 18.1506 96.2244C16.9224 96.2244 15.7022 96.2185 14.491 96.2069Z" fill="#737272"/>
<path fill-rule="evenodd" clip-rule="evenodd" d="M14.4598 169.839L14.499 151.219C20.8114 148.68 28.0691 147.215 35.7968 147.168C56.0092 147.046 73.1238 156.672 78.5607 169.947L14.4598 169.839Z" fill="#737272"/>
<path fill-rule="evenodd" clip-rule="evenodd" d="M32.1449 161.654L53.5382 132.222L14.6494 132.076L14.5887 161.633L32.1449 161.654Z" fill="#737272"/>
<circle cx="104.5" cy="8.5" r="4.25" fill="#EBC91A" stroke="black" stroke-width="0.5"/>
</svg>
