<svg width="1921" height="1080" viewBox="0 0 1921 1080" fill="none" xmlns="http://www.w3.org/2000/svg">
<rect width="1920" height="1080" fill="#DEE7B9"/>
<rect x="0.5" y="646.693" width="1919" height="432.807" fill="#5A2B32" stroke="#974D58"/>
<rect x="0.5" y="1005.38" width="79" height="74.1181" fill="#813B45" stroke="#974D58"/>
<rect x="160.5" y="1005.38" width="79" height="74.1181" fill="#813B45" stroke="#974D58"/>
<rect x="320.5" y="1005.38" width="79" height="74.1181" fill="#813B45" stroke="#974D58"/>
<rect x="640.5" y="1005.38" width="79" height="74.1181" fill="#813B45" stroke="#974D58"/>
<rect x="800.5" y="1005.38" width="79" height="74.1181" fill="#813B45" stroke="#974D58"/>
<rect x="960.5" y="1005.38" width="79" height="74.1181" fill="#813B45" stroke="#974D58"/>
<rect x="1120.5" y="1005.38" width="79" height="74.1181" fill="#813B45" stroke="#974D58"/>
<rect x="1280.5" y="1005.38" width="79" height="74.1181" fill="#813B45" stroke="#974D58"/>
<rect x="1440.5" y="1005.38" width="79" height="74.1181" fill="#813B45" stroke="#974D58"/>
<rect x="1600.5" y="1005.38" width="79" height="74.1181" fill="#813B45" stroke="#974D58"/>
<rect x="1760.5" y="1005.38" width="79" height="74.1181" fill="#813B45" stroke="#974D58"/>
<rect x="480.5" y="1005.38" width="79" height="74.1181" fill="#813B45" stroke="#974D58"/>
<rect x="0.5" y="704.909" width="79" height="74.1181" fill="#813B45" stroke="#974D58"/>
<rect x="160.5" y="704.909" width="79" height="74.1181" fill="#813B45" stroke="#974D58"/>
<rect x="320.5" y="704.909" width="79" height="74.1181" fill="#813B45" stroke="#974D58"/>
<rect x="640.5" y="704.909" width="79" height="74.1181" fill="#813B45" stroke="#974D58"/>
<rect x="800.5" y="704.909" width="79" height="74.1181" fill="#813B45" stroke="#974D58"/>
<rect x="960.5" y="704.909" width="79" height="74.1181" fill="#813B45" stroke="#974D58"/>
<rect x="1120.5" y="704.909" width="79" height="74.1181" fill="#813B45" stroke="#974D58"/>
<rect x="1280.5" y="704.909" width="79" height="74.1181" fill="#813B45" stroke="#974D58"/>
<rect x="1440.5" y="704.909" width="79" height="74.1181" fill="#813B45" stroke="#974D58"/>
<rect x="1600.5" y="704.909" width="79" height="74.1181" fill="#813B45" stroke="#974D58"/>
<rect x="1760.5" y="704.909" width="79" height="74.1181" fill="#813B45" stroke="#974D58"/>
<rect x="480.5" y="704.909" width="79" height="74.1181" fill="#813B45" stroke="#974D58"/>
<rect x="80.5" y="780.028" width="79" height="74.1181" fill="#813B45" stroke="#974D58"/>
<rect x="240.5" y="780.028" width="79" height="74.1181" fill="#813B45" stroke="#974D58"/>
<rect x="400.5" y="780.028" width="79" height="74.1181" fill="#813B45" stroke="#974D58"/>
<rect x="720.5" y="780.028" width="79" height="74.1181" fill="#813B45" stroke="#974D58"/>
<rect x="880.5" y="780.028" width="79" height="74.1181" fill="#813B45" stroke="#974D58"/>
<rect x="1040.5" y="780.028" width="79" height="74.1181" fill="#813B45" stroke="#974D58"/>
<rect x="1200.5" y="780.028" width="79" height="74.1181" fill="#813B45" stroke="#974D58"/>
<rect x="1360.5" y="780.028" width="79" height="74.1181" fill="#813B45" stroke="#974D58"/>
<rect x="1520.5" y="780.028" width="79" height="74.1181" fill="#813B45" stroke="#974D58"/>
<rect x="1680.5" y="780.028" width="79" height="74.1181" fill="#813B45" stroke="#974D58"/>
<rect x="1840.5" y="780.028" width="79" height="74.1181" fill="#813B45" stroke="#974D58"/>
<rect x="560.5" y="780.028" width="79" height="74.1181" fill="#813B45" stroke="#974D58"/>
<rect x="0.5" y="855.146" width="79" height="74.1181" fill="#813B45" stroke="#974D58"/>
<rect x="160.5" y="855.146" width="79" height="74.1181" fill="#813B45" stroke="#974D58"/>
<rect x="320.5" y="855.146" width="79" height="74.1181" fill="#813B45" stroke="#974D58"/>
<rect x="640.5" y="855.146" width="79" height="74.1181" fill="#813B45" stroke="#974D58"/>
<rect x="800.5" y="855.146" width="79" height="74.1181" fill="#813B45" stroke="#974D58"/>
<rect x="960.5" y="855.146" width="79" height="74.1181" fill="#813B45" stroke="#974D58"/>
<rect x="1120.5" y="855.146" width="79" height="74.1181" fill="#813B45" stroke="#974D58"/>
<rect x="1280.5" y="855.146" width="79" height="74.1181" fill="#813B45" stroke="#974D58"/>
<rect x="1440.5" y="855.146" width="79" height="74.1181" fill="#813B45" stroke="#974D58"/>
<rect x="1600.5" y="855.146" width="79" height="74.1181" fill="#813B45" stroke="#974D58"/>
<rect x="1760.5" y="855.146" width="79" height="74.1181" fill="#813B45" stroke="#974D58"/>
<rect x="480.5" y="855.146" width="79" height="74.1181" fill="#813B45" stroke="#974D58"/>
<rect x="80.5" y="930.264" width="79" height="74.1181" fill="#813B45" stroke="#974D58"/>
<rect x="240.5" y="930.264" width="79" height="74.1181" fill="#813B45" stroke="#974D58"/>
<rect x="400.5" y="930.264" width="79" height="74.1181" fill="#813B45" stroke="#974D58"/>
<rect x="720.5" y="930.264" width="79" height="74.1181" fill="#813B45" stroke="#974D58"/>
<rect x="880.5" y="930.264" width="79" height="74.1181" fill="#813B45" stroke="#974D58"/>
<rect x="1040.5" y="930.264" width="79" height="74.1181" fill="#813B45" stroke="#974D58"/>
<rect x="1200.5" y="930.264" width="79" height="74.1181" fill="#813B45" stroke="#974D58"/>
<rect x="1360.5" y="930.264" width="79" height="74.1181" fill="#813B45" stroke="#974D58"/>
<rect x="1520.5" y="930.264" width="79" height="74.1181" fill="#813B45" stroke="#974D58"/>
<rect x="1680.5" y="930.264" width="79" height="74.1181" fill="#813B45" stroke="#974D58"/>
<rect x="1840.5" y="930.264" width="79" height="74.1181" fill="#813B45" stroke="#974D58"/>
<rect x="560.5" y="930.264" width="79" height="74.1181" fill="#813B45" stroke="#974D58"/>
<rect x="0.5" y="604.5" width="1919" height="10.2677" fill="#401F24" stroke="#974D58"/>
<rect x="0.5" y="692.703" width="1919" height="11.2067" fill="#401F24" stroke="#974D58"/>
<rect x="0.5" y="639.5" width="1919" height="4.63386" fill="#401F24" stroke="#974D58"/>
<rect y="615" width="1920" height="24" fill="#8D434E"/>
<rect x="0.415957" y="651.416" width="15.8064" height="39.516" fill="#E3BD73" stroke="#974D58" stroke-width="0.831915"/>
<rect x="33.6923" y="651.416" width="15.8064" height="39.516" fill="#E3BD73" stroke="#974D58" stroke-width="0.831915"/>
<rect x="66.9687" y="651.416" width="15.8064" height="39.516" fill="#E3BD73" stroke="#974D58" stroke-width="0.831915"/>
<rect x="100.246" y="651.416" width="15.8064" height="39.516" fill="#E3BD73" stroke="#974D58" stroke-width="0.831915"/>
<rect x="133.522" y="651.416" width="15.8064" height="39.516" fill="#E3BD73" stroke="#974D58" stroke-width="0.831915"/>
<rect x="166.799" y="651.416" width="15.8064" height="39.516" fill="#E3BD73" stroke="#974D58" stroke-width="0.831915"/>
<rect x="200.075" y="651.416" width="15.8064" height="39.516" fill="#E3BD73" stroke="#974D58" stroke-width="0.831915"/>
<rect x="233.352" y="651.416" width="15.8064" height="39.516" fill="#E3BD73" stroke="#974D58" stroke-width="0.831915"/>
<rect x="266.629" y="651.416" width="15.8064" height="39.516" fill="#E3BD73" stroke="#974D58" stroke-width="0.831915"/>
<rect x="299.905" y="651.416" width="15.8064" height="39.516" fill="#E3BD73" stroke="#974D58" stroke-width="0.831915"/>
<rect x="333.182" y="651.416" width="15.8064" height="39.516" fill="#E3BD73" stroke="#974D58" stroke-width="0.831915"/>
<rect x="366.459" y="651.416" width="15.8064" height="39.516" fill="#E3BD73" stroke="#974D58" stroke-width="0.831915"/>
<rect x="399.735" y="651.416" width="15.8064" height="39.516" fill="#E3BD73" stroke="#974D58" stroke-width="0.831915"/>
<rect x="433.012" y="651.416" width="15.8064" height="39.516" fill="#E3BD73" stroke="#974D58" stroke-width="0.831915"/>
<rect x="466.288" y="651.416" width="15.8064" height="39.516" fill="#E3BD73" stroke="#974D58" stroke-width="0.831915"/>
<rect x="499.564" y="651.416" width="15.8064" height="39.516" fill="#E3BD73" stroke="#974D58" stroke-width="0.831915"/>
<rect x="532.842" y="651.416" width="15.8064" height="39.516" fill="#E3BD73" stroke="#974D58" stroke-width="0.831915"/>
<rect x="566.118" y="651.416" width="15.8064" height="39.516" fill="#E3BD73" stroke="#974D58" stroke-width="0.831915"/>
<rect x="599.394" y="651.416" width="15.8064" height="39.516" fill="#E3BD73" stroke="#974D58" stroke-width="0.831915"/>
<rect x="632.671" y="651.416" width="15.8064" height="39.516" fill="#E3BD73" stroke="#974D58" stroke-width="0.831915"/>
<rect x="665.948" y="651.416" width="15.8064" height="39.516" fill="#E3BD73" stroke="#974D58" stroke-width="0.831915"/>
<rect x="699.225" y="651.416" width="15.8064" height="39.516" fill="#E3BD73" stroke="#974D58" stroke-width="0.831915"/>
<rect x="732.501" y="651.416" width="15.8064" height="39.516" fill="#E3BD73" stroke="#974D58" stroke-width="0.831915"/>
<rect x="765.777" y="651.416" width="15.8064" height="39.516" fill="#E3BD73" stroke="#974D58" stroke-width="0.831915"/>
<rect x="799.416" y="652.416" width="15.8064" height="39.516" fill="#E3BD73" stroke="#974D58" stroke-width="0.831915"/>
<rect x="832.692" y="652.416" width="15.8064" height="39.516" fill="#E3BD73" stroke="#974D58" stroke-width="0.831915"/>
<rect x="865.969" y="652.416" width="15.8064" height="39.516" fill="#E3BD73" stroke="#974D58" stroke-width="0.831915"/>
<rect x="899.246" y="652.416" width="15.8064" height="39.516" fill="#E3BD73" stroke="#974D58" stroke-width="0.831915"/>
<rect x="932.522" y="652.416" width="15.8064" height="39.516" fill="#E3BD73" stroke="#974D58" stroke-width="0.831915"/>
<rect x="965.799" y="652.416" width="15.8064" height="39.516" fill="#E3BD73" stroke="#974D58" stroke-width="0.831915"/>
<rect x="999.075" y="652.416" width="15.8064" height="39.516" fill="#E3BD73" stroke="#974D58" stroke-width="0.831915"/>
<rect x="1032.35" y="652.416" width="15.8064" height="39.516" fill="#E3BD73" stroke="#974D58" stroke-width="0.831915"/>
<rect x="1065.63" y="652.416" width="15.8064" height="39.516" fill="#E3BD73" stroke="#974D58" stroke-width="0.831915"/>
<rect x="1098.91" y="652.416" width="15.8064" height="39.516" fill="#E3BD73" stroke="#974D58" stroke-width="0.831915"/>
<rect x="1132.18" y="652.416" width="15.8064" height="39.516" fill="#E3BD73" stroke="#974D58" stroke-width="0.831915"/>
<rect x="1165.46" y="652.416" width="15.8064" height="39.516" fill="#E3BD73" stroke="#974D58" stroke-width="0.831915"/>
<rect x="1198.74" y="652.416" width="15.8064" height="39.516" fill="#E3BD73" stroke="#974D58" stroke-width="0.831915"/>
<rect x="1232.01" y="652.416" width="15.8064" height="39.516" fill="#E3BD73" stroke="#974D58" stroke-width="0.831915"/>
<rect x="1265.29" y="652.416" width="15.8064" height="39.516" fill="#E3BD73" stroke="#974D58" stroke-width="0.831915"/>
<rect x="1298.56" y="652.416" width="15.8064" height="39.516" fill="#E3BD73" stroke="#974D58" stroke-width="0.831915"/>
<rect x="1331.84" y="652.416" width="15.8064" height="39.516" fill="#E3BD73" stroke="#974D58" stroke-width="0.831915"/>
<rect x="1365.12" y="652.416" width="15.8064" height="39.516" fill="#E3BD73" stroke="#974D58" stroke-width="0.831915"/>
<rect x="1398.39" y="652.416" width="15.8064" height="39.516" fill="#E3BD73" stroke="#974D58" stroke-width="0.831915"/>
<rect x="1431.67" y="652.416" width="15.8064" height="39.516" fill="#E3BD73" stroke="#974D58" stroke-width="0.831915"/>
<rect x="1463.42" y="652.416" width="15.8064" height="39.516" fill="#E3BD73" stroke="#974D58" stroke-width="0.831915"/>
<rect x="1498.22" y="652.416" width="15.8064" height="39.516" fill="#E3BD73" stroke="#974D58" stroke-width="0.831915"/>
<rect x="1531.5" y="652.416" width="15.8064" height="39.516" fill="#E3BD73" stroke="#974D58" stroke-width="0.831915"/>
<rect x="1564.78" y="652.416" width="15.8064" height="39.516" fill="#E3BD73" stroke="#974D58" stroke-width="0.831915"/>
<rect x="1731.42" y="651.416" width="15.8064" height="39.516" fill="#E3BD73" stroke="#974D58" stroke-width="0.831915"/>
<rect x="1764.69" y="651.416" width="15.8064" height="39.516" fill="#E3BD73" stroke="#974D58" stroke-width="0.831915"/>
<rect x="1797.97" y="651.416" width="15.8064" height="39.516" fill="#E3BD73" stroke="#974D58" stroke-width="0.831915"/>
<rect x="1831.25" y="651.416" width="15.8064" height="39.516" fill="#E3BD73" stroke="#974D58" stroke-width="0.831915"/>
<rect x="1864.52" y="651.416" width="15.8064" height="39.516" fill="#E3BD73" stroke="#974D58" stroke-width="0.831915"/>
<rect x="1897.42" y="651.416" width="15.8064" height="39.516" fill="#E3BD73" stroke="#974D58" stroke-width="0.831915"/>
<rect x="1598.42" y="651.416" width="15.8064" height="39.516" fill="#E3BD73" stroke="#974D58" stroke-width="0.831915"/>
<rect x="1631.69" y="651.416" width="15.8064" height="39.516" fill="#E3BD73" stroke="#974D58" stroke-width="0.831915"/>
<rect x="1664.97" y="651.416" width="15.8064" height="39.516" fill="#E3BD73" stroke="#974D58" stroke-width="0.831915"/>
<rect x="1698.25" y="651.416" width="15.8064" height="39.516" fill="#E3BD73" stroke="#974D58" stroke-width="0.831915"/>
<rect x="0.5" y="644.5" width="1919" height="7" fill="#E3BD73" stroke="#974D58"/>
<rect x="0.5" y="690.5" width="1919" height="7" fill="#E3BD73" stroke="#974D58"/>
<rect x="525.5" y="81.5" width="897" height="457" fill="#7B6437" stroke="#6B5730" stroke-width="3"/>
<rect x="550.5" y="106.5" width="847" height="407" fill="#F4EFE4" stroke="#45381E" stroke-width="3"/>
<circle cx="704" cy="246" r="67" fill="#CBA3A3"/>
<ellipse cx="1253.18" cy="381.047" rx="100.43" ry="95.0166" transform="rotate(-2.9423 1253.18 381.047)" fill="#D7BB87"/>
<circle cx="1102.5" cy="178.5" r="51.5" fill="#A68080"/>
<circle cx="922.5" cy="445.5" r="51.5" fill="#A68080"/>
<ellipse cx="828.507" cy="402.692" rx="105.432" ry="104.83" transform="rotate(1.57704 828.507 402.692)" fill="#F3B947" fill-opacity="0.44"/>
<path d="M922.897 328L1125 468.327L1118.1 478.261L916 337.934L922.897 328Z" fill="#A0C18E" fill-opacity="0.49"/>
<path d="M895.321 128.085L710.482 290.479L702.5 281.394L887.339 119L895.321 128.085Z" fill="#A5C4D1"/>
<path d="M1270 262H1358V351H1270V262Z" fill="#6F98AA"/>
<path d="M1223.57 127L1348.33 213.824L1335.76 231.881L1211 145.058L1223.57 127Z" fill="#8C9C83"/>
<rect x="596" y="394" width="72" height="73" fill="#96B087"/>
<rect x="944" y="192" width="136" height="140" fill="#7F6A8B"/>
</svg>
