<svg width="470" height="816" viewBox="0 0 470 816" fill="none" xmlns="http://www.w3.org/2000/svg">
<mask id="path-1-inside-1_32_692" fill="white">
<path d="M209 545H261V816H209V545Z"/>
</mask>
<path d="M209 545H261V816H209V545Z" fill="#D3B06C"/>
<path d="M209 545V541H205V545H209ZM261 545H265V541H261V545ZM209 549H261V541H209V549ZM257 545V816H265V545H257ZM213 816V545H205V816H213Z" fill="#685633" mask="url(#path-1-inside-1_32_692)"/>
<rect x="2.5" y="2.5" width="465" height="545" fill="#D3B06C" stroke="#685633" stroke-width="5"/>
<rect x="27.5" y="27.5" width="415" height="495" fill="#384D36" stroke="#685633" stroke-width="5"/>
<path d="M67.8205 75.436C68.5885 76.732 69.6325 77.668 70.9525 78.244C72.2725 78.82 73.6525 79.108 75.0925 79.108C76.0525 79.108 76.9645 78.844 77.8285 78.316C78.6925 77.788 79.4605 77.128 80.1325 76.336C80.8045 75.52 81.3325 74.632 81.7165 73.672C82.1245 72.688 82.3285 71.752 82.3285 70.864C82.3285 70.624 82.3165 70.372 82.2925 70.108C82.2925 69.844 82.2445 69.604 82.1485 69.388C82.0525 69.172 81.9085 69.004 81.7165 68.884C81.5485 68.74 81.3085 68.668 80.9965 68.668C80.4925 68.668 80.0965 68.908 79.8085 69.388C79.5685 70.06 79.3045 70.768 79.0165 71.512C78.7525 72.232 78.4165 72.904 78.0085 73.528C77.6005 74.128 77.0965 74.632 76.4965 75.04C75.8965 75.424 75.1645 75.616 74.3005 75.616C74.2045 75.616 74.0605 75.616 73.8685 75.616C73.7005 75.592 73.6045 75.58 73.5805 75.58C72.7885 75.388 72.1165 75.064 71.5645 74.608C71.0365 74.128 70.6045 73.588 70.2685 72.988C69.9325 72.364 69.6685 71.692 69.4765 70.972C69.3085 70.252 69.1765 69.532 69.0805 68.812C69.0565 68.764 69.0325 68.644 69.0085 68.452C68.9845 68.26 68.9605 68.14 68.9365 68.092V63.592C68.9365 62.944 69.0205 62.296 69.1885 61.648C69.3565 60.976 69.5965 60.34 69.9085 59.74C70.2205 59.116 70.5925 58.54 71.0245 58.012C71.4565 57.484 71.9365 57.04 72.4645 56.68C72.5125 56.656 72.5605 56.632 72.6085 56.608C72.6805 56.56 72.7285 56.536 72.7525 56.536H75.1285C75.1525 56.536 75.2125 56.56 75.3085 56.608C75.4285 56.632 75.5125 56.656 75.5605 56.68C76.0645 56.92 76.4845 57.16 76.8205 57.4C77.1565 57.64 77.4325 57.916 77.6485 58.228C77.8885 58.516 78.0805 58.852 78.2245 59.236C78.3685 59.62 78.5125 60.088 78.6565 60.64C78.7285 60.856 78.7765 61.168 78.8005 61.576C78.8485 61.96 78.9205 62.344 79.0165 62.728C79.1365 63.112 79.3045 63.448 79.5205 63.736C79.7365 64.024 80.0365 64.168 80.4205 64.168C80.6365 64.168 80.8405 64.084 81.0325 63.916C81.2485 63.748 81.4285 63.544 81.5725 63.304C81.7165 63.064 81.8245 62.824 81.8965 62.584C81.9925 62.32 82.0405 62.092 82.0405 61.9V57.544C82.0405 57.472 82.0165 57.328 81.9685 57.112C81.9445 56.896 81.9205 56.752 81.8965 56.68V56.608C81.8965 56.344 81.9205 56.092 81.9685 55.852C82.0405 55.588 82.0765 55.324 82.0765 55.06C82.0765 54.82 82.0525 54.58 82.0045 54.34C81.9805 54.076 81.9085 53.836 81.7885 53.62C81.6925 53.404 81.5485 53.224 81.3565 53.08C81.1645 52.936 80.9245 52.864 80.6365 52.864C80.3485 52.864 80.1085 52.948 79.9165 53.116C79.7245 53.284 79.5565 53.464 79.4125 53.656C79.2925 53.848 79.1725 54.028 79.0525 54.196C78.9325 54.364 78.8005 54.448 78.6565 54.448H78.5125C77.6725 53.968 76.9045 53.584 76.2085 53.296C75.5125 53.008 74.7085 52.864 73.7965 52.864C73.5565 52.864 73.2925 52.864 73.0045 52.864C72.7165 52.84 72.4405 52.888 72.1765 53.008C72.0805 53.056 71.9245 53.14 71.7085 53.26C71.4925 53.356 71.2645 53.464 71.0245 53.584C70.8085 53.704 70.5925 53.824 70.3765 53.944C70.1605 54.04 70.0045 54.112 69.9085 54.16C69.7405 54.304 69.5245 54.532 69.2605 54.844C68.9965 55.132 68.7325 55.444 68.4685 55.78C68.2045 56.116 67.9645 56.452 67.7485 56.788C67.5565 57.1 67.4365 57.352 67.3885 57.544L65.8405 62.62C65.8165 62.908 65.7805 63.232 65.7325 63.592C65.6845 63.952 65.6245 64.288 65.5525 64.6V68.38C65.7205 69.004 65.8165 69.616 65.8405 70.216C65.8645 70.816 66.0085 71.428 66.2725 72.052C66.3205 72.196 66.4165 72.424 66.5605 72.736C66.7045 73.048 66.8485 73.384 66.9925 73.744C67.1605 74.104 67.3165 74.452 67.4605 74.788C67.6285 75.1 67.7485 75.316 67.8205 75.436ZM86.2266 71.584C86.2266 72.448 86.3346 73.324 86.5506 74.212C86.7906 75.076 87.1386 75.868 87.5946 76.588C88.0746 77.284 88.6746 77.86 89.3946 78.316C90.1146 78.772 90.9666 79 91.9506 79C92.5506 79 93.1026 78.904 93.6066 78.712C94.1346 78.52 94.6146 78.268 95.0466 77.956C95.5026 77.62 95.9226 77.26 96.3066 76.876C96.7146 76.468 97.1226 76.048 97.5306 75.616H97.6746V77.164C97.6746 77.524 97.8306 77.812 98.1426 78.028C98.4786 78.244 98.8626 78.412 99.2946 78.532C99.7266 78.628 100.147 78.688 100.555 78.712C100.987 78.736 101.299 78.748 101.491 78.748C101.827 78.748 102.163 78.736 102.499 78.712C102.835 78.688 103.135 78.628 103.399 78.532C103.687 78.412 103.915 78.232 104.083 77.992C104.251 77.752 104.335 77.416 104.335 76.984C104.335 76.504 104.227 76.144 104.011 75.904C103.795 75.64 103.507 75.448 103.147 75.328C102.811 75.184 102.439 75.1 102.031 75.076C101.647 75.052 101.275 75.04 100.915 75.04L100.627 74.752L100.699 67.984V67.3L100.771 63.484C100.699 63.244 100.663 62.92 100.663 62.512C100.663 62.104 100.627 61.72 100.555 61.36C100.483 60.976 100.351 60.652 100.159 60.388C99.9666 60.1 99.6546 59.956 99.2226 59.956H95.9826C95.5266 59.956 95.1666 60.076 94.9026 60.316C94.6626 60.556 94.5426 60.88 94.5426 61.288C94.5426 61.744 94.6986 62.092 95.0106 62.332C95.3466 62.548 95.7066 62.704 96.0906 62.8C96.4986 62.896 96.8586 62.968 97.1706 63.016C97.5066 63.04 97.6746 63.1 97.6746 63.196V68.416C97.6746 69.04 97.5546 69.664 97.3146 70.288C97.0746 70.888 96.7746 71.464 96.4146 72.016C96.0546 72.568 95.6466 73.096 95.1906 73.6C94.7346 74.08 94.2906 74.512 93.8586 74.896C93.6186 75.112 93.3186 75.244 92.9586 75.292C92.5986 75.34 92.2746 75.364 91.9866 75.364C91.2906 75.364 90.7866 75.16 90.4746 74.752C90.1866 74.344 89.9946 73.828 89.8986 73.204C89.8986 72.964 89.8746 72.544 89.8266 71.944C89.8026 71.32 89.7786 70.66 89.7546 69.964C89.7306 69.268 89.7066 68.62 89.6826 68.02C89.6586 67.396 89.6466 66.964 89.6466 66.724C89.6466 66.676 89.6346 66.484 89.6106 66.148C89.6106 65.788 89.6106 65.524 89.6106 65.356C89.6106 64.852 89.6346 64.36 89.6826 63.88C89.7546 63.4 89.7906 62.908 89.7906 62.404C89.7906 62.164 89.7666 61.9 89.7186 61.612C89.6946 61.324 89.6226 61.06 89.5026 60.82C89.4066 60.556 89.2506 60.352 89.0346 60.208C88.8426 60.04 88.5666 59.956 88.2066 59.956H85.2546C84.8226 59.956 84.4746 60.1 84.2106 60.388C83.9706 60.676 83.8506 61.024 83.8506 61.432C83.8506 61.864 83.9466 62.176 84.1386 62.368C84.3306 62.56 84.5706 62.704 84.8586 62.8C85.1466 62.872 85.4466 62.944 85.7586 63.016C86.0946 63.064 86.3946 63.172 86.6586 63.34C86.6586 63.412 86.6586 63.532 86.6586 63.7C86.6586 63.844 86.6586 64.012 86.6586 64.204C86.6826 64.372 86.6946 64.54 86.6946 64.708C86.6946 64.852 86.6946 64.96 86.6946 65.032C86.6946 66.136 86.6106 67.228 86.4426 68.308C86.2986 69.388 86.2266 70.48 86.2266 71.584ZM107.498 76.948C107.498 77.548 107.726 78.04 108.182 78.424C108.662 78.808 109.19 79 109.766 79H113.87C114.11 78.928 114.29 78.892 114.41 78.892C114.554 78.868 114.722 78.856 114.914 78.856C115.322 78.856 115.718 78.88 116.102 78.928C116.51 78.976 116.918 79 117.326 79C117.686 79 118.07 78.988 118.478 78.964C118.886 78.916 119.258 78.832 119.594 78.712C119.954 78.568 120.242 78.364 120.458 78.1C120.674 77.812 120.782 77.428 120.782 76.948C120.782 76.372 120.554 75.94 120.098 75.652C119.642 75.34 119.138 75.184 118.586 75.184C118.322 75.184 118.046 75.208 117.758 75.256C117.494 75.304 117.23 75.328 116.966 75.328C116.702 75.328 116.474 75.304 116.282 75.256C116.09 75.208 115.946 75.052 115.85 74.788C115.85 74.692 115.838 74.536 115.814 74.32C115.814 74.104 115.802 73.876 115.778 73.636C115.778 73.396 115.766 73.168 115.742 72.952C115.718 72.736 115.706 72.592 115.706 72.52C115.706 72.472 115.682 72.352 115.634 72.16C115.61 71.968 115.586 71.848 115.562 71.8V67.732C115.562 67.612 115.622 67.432 115.742 67.192C115.862 66.928 116.006 66.664 116.174 66.4C116.342 66.136 116.51 65.896 116.678 65.68C116.87 65.44 117.014 65.272 117.11 65.176C117.182 65.104 117.326 64.96 117.542 64.744C117.758 64.528 117.986 64.3 118.226 64.06C118.466 63.82 118.694 63.592 118.91 63.376C119.126 63.16 119.282 63.016 119.378 62.944C119.474 62.848 119.57 62.8 119.666 62.8C119.786 62.776 119.906 62.764 120.026 62.764C120.074 62.764 120.158 62.764 120.278 62.764C120.398 62.764 120.47 62.824 120.494 62.944C120.518 63.28 120.554 63.688 120.602 64.168C120.674 64.624 120.794 65.068 120.962 65.5C121.13 65.932 121.358 66.304 121.646 66.616C121.934 66.904 122.318 67.048 122.798 67.048C123.806 67.048 124.514 66.736 124.922 66.112C125.354 65.488 125.57 64.732 125.57 63.844C125.57 63.22 125.438 62.656 125.174 62.152C124.934 61.624 124.61 61.18 124.202 60.82C123.794 60.46 123.302 60.184 122.726 59.992C122.174 59.776 121.598 59.668 120.998 59.668C120.014 59.668 119.09 59.92 118.226 60.424C117.386 60.928 116.594 61.48 115.85 62.08H115.778C115.682 62.08 115.586 62.02 115.49 61.9C115.418 61.78 115.346 61.636 115.274 61.468C115.226 61.3 115.178 61.144 115.13 61C115.082 60.832 115.034 60.724 114.986 60.676C114.722 60.316 114.338 60.076 113.834 59.956C113.33 59.812 112.79 59.728 112.214 59.704C111.638 59.68 111.062 59.692 110.486 59.74C109.934 59.764 109.466 59.752 109.082 59.704C109.082 59.68 109.046 59.668 108.974 59.668C108.926 59.668 108.89 59.668 108.866 59.668C108.362 59.668 107.966 59.848 107.678 60.208C107.39 60.544 107.246 60.952 107.246 61.432C107.246 61.912 107.402 62.32 107.714 62.656C108.05 62.968 108.458 63.148 108.938 63.196C109.058 63.196 109.262 63.208 109.55 63.232C109.838 63.256 110.15 63.28 110.486 63.304C110.822 63.304 111.134 63.316 111.422 63.34C111.71 63.34 111.914 63.34 112.034 63.34L112.322 63.628L112.538 67.876V68.56L112.61 72.088C112.586 72.136 112.55 72.256 112.502 72.448C112.478 72.64 112.466 72.76 112.466 72.808C112.466 72.904 112.454 73.072 112.43 73.312C112.406 73.528 112.382 73.768 112.358 74.032C112.358 74.272 112.346 74.5 112.322 74.716C112.322 74.932 112.322 75.088 112.322 75.184L112.178 75.328C112.154 75.328 112.046 75.34 111.854 75.364C111.686 75.364 111.554 75.364 111.458 75.364C111.098 75.364 110.75 75.34 110.414 75.292C110.102 75.22 109.778 75.184 109.442 75.184C108.89 75.184 108.422 75.34 108.038 75.652C107.678 75.964 107.498 76.396 107.498 76.948ZM127.343 76.948C127.343 77.548 127.571 78.04 128.027 78.424C128.507 78.808 129.035 79 129.611 79H133.715C133.955 78.928 134.135 78.892 134.255 78.892C134.399 78.868 134.567 78.856 134.759 78.856C135.167 78.856 135.563 78.88 135.947 78.928C136.355 78.976 136.763 79 137.171 79C137.531 79 137.915 78.988 138.323 78.964C138.731 78.916 139.103 78.832 139.439 78.712C139.799 78.568 140.087 78.364 140.303 78.1C140.519 77.812 140.627 77.428 140.627 76.948C140.627 76.372 140.399 75.94 139.943 75.652C139.487 75.34 138.983 75.184 138.431 75.184C138.167 75.184 137.891 75.208 137.603 75.256C137.339 75.304 137.075 75.328 136.811 75.328C136.547 75.328 136.319 75.304 136.127 75.256C135.935 75.208 135.791 75.052 135.695 74.788C135.695 74.692 135.683 74.536 135.659 74.32C135.659 74.104 135.647 73.876 135.623 73.636C135.623 73.396 135.611 73.168 135.587 72.952C135.563 72.736 135.551 72.592 135.551 72.52C135.551 72.472 135.527 72.352 135.479 72.16C135.455 71.968 135.431 71.848 135.407 71.8V67.732C135.407 67.612 135.467 67.432 135.587 67.192C135.707 66.928 135.851 66.664 136.019 66.4C136.187 66.136 136.355 65.896 136.523 65.68C136.715 65.44 136.859 65.272 136.955 65.176C137.027 65.104 137.171 64.96 137.387 64.744C137.603 64.528 137.831 64.3 138.071 64.06C138.311 63.82 138.539 63.592 138.755 63.376C138.971 63.16 139.127 63.016 139.223 62.944C139.319 62.848 139.415 62.8 139.511 62.8C139.631 62.776 139.751 62.764 139.871 62.764C139.919 62.764 140.003 62.764 140.123 62.764C140.243 62.764 140.315 62.824 140.339 62.944C140.363 63.28 140.399 63.688 140.447 64.168C140.519 64.624 140.639 65.068 140.807 65.5C140.975 65.932 141.203 66.304 141.491 66.616C141.779 66.904 142.163 67.048 142.643 67.048C143.651 67.048 144.359 66.736 144.767 66.112C145.199 65.488 145.415 64.732 145.415 63.844C145.415 63.22 145.283 62.656 145.019 62.152C144.779 61.624 144.455 61.18 144.047 60.82C143.639 60.46 143.147 60.184 142.571 59.992C142.019 59.776 141.443 59.668 140.843 59.668C139.859 59.668 138.935 59.92 138.071 60.424C137.231 60.928 136.439 61.48 135.695 62.08H135.623C135.527 62.08 135.431 62.02 135.335 61.9C135.263 61.78 135.191 61.636 135.119 61.468C135.071 61.3 135.023 61.144 134.975 61C134.927 60.832 134.879 60.724 134.831 60.676C134.567 60.316 134.183 60.076 133.679 59.956C133.175 59.812 132.635 59.728 132.059 59.704C131.483 59.68 130.907 59.692 130.331 59.74C129.779 59.764 129.311 59.752 128.927 59.704C128.927 59.68 128.891 59.668 128.819 59.668C128.771 59.668 128.735 59.668 128.711 59.668C128.207 59.668 127.811 59.848 127.523 60.208C127.235 60.544 127.091 60.952 127.091 61.432C127.091 61.912 127.247 62.32 127.559 62.656C127.895 62.968 128.303 63.148 128.783 63.196C128.903 63.196 129.107 63.208 129.395 63.232C129.683 63.256 129.995 63.28 130.331 63.304C130.667 63.304 130.979 63.316 131.267 63.34C131.555 63.34 131.759 63.34 131.879 63.34L132.167 63.628L132.383 67.876V68.56L132.455 72.088C132.431 72.136 132.395 72.256 132.347 72.448C132.323 72.64 132.311 72.76 132.311 72.808C132.311 72.904 132.299 73.072 132.275 73.312C132.251 73.528 132.227 73.768 132.203 74.032C132.203 74.272 132.191 74.5 132.167 74.716C132.167 74.932 132.167 75.088 132.167 75.184L132.023 75.328C131.999 75.328 131.891 75.34 131.699 75.364C131.531 75.364 131.399 75.364 131.303 75.364C130.943 75.364 130.595 75.34 130.259 75.292C129.947 75.22 129.623 75.184 129.287 75.184C128.735 75.184 128.267 75.34 127.883 75.652C127.523 75.964 127.343 76.396 127.343 76.948ZM146.936 70.144C146.936 71.32 147.116 72.448 147.476 73.528C147.836 74.584 148.352 75.52 149.024 76.336C149.696 77.152 150.524 77.8 151.508 78.28C152.492 78.76 153.596 79 154.82 79C156.068 79 157.28 78.772 158.456 78.316C159.632 77.86 160.58 77.104 161.3 76.048C161.588 75.616 161.852 75.184 162.092 74.752C162.332 74.296 162.452 73.792 162.452 73.24C162.452 72.904 162.332 72.628 162.092 72.412C161.876 72.196 161.588 72.088 161.228 72.088C160.844 72.088 160.52 72.184 160.256 72.376C159.992 72.568 159.74 72.808 159.5 73.096C159.284 73.384 159.068 73.684 158.852 73.996C158.66 74.308 158.444 74.572 158.204 74.788C157.892 75.052 157.52 75.244 157.088 75.364C156.656 75.46 156.272 75.64 155.936 75.904C155.864 75.904 155.696 75.916 155.432 75.94C155.192 75.94 155.036 75.94 154.964 75.94C154.244 75.94 153.584 75.808 152.984 75.544C152.384 75.256 151.856 74.884 151.4 74.428C150.968 73.948 150.62 73.396 150.356 72.772C150.116 72.148 149.996 71.488 149.996 70.792C149.996 70.744 149.996 70.648 149.996 70.504C150.02 70.36 150.032 70.276 150.032 70.252L150.176 70.144C150.176 70.144 150.308 70.132 150.572 70.108C150.836 70.084 151.148 70.072 151.508 70.072C151.868 70.048 152.228 70.036 152.588 70.036C152.972 70.012 153.296 70 153.56 70C153.824 70 154.292 70 154.964 70C155.66 69.976 156.38 69.964 157.124 69.964C157.892 69.964 158.612 69.976 159.284 70C159.98 70 160.46 70 160.724 70C161.108 69.928 161.48 69.832 161.84 69.712C162.2 69.592 162.488 69.352 162.704 68.992C162.704 68.944 162.704 68.848 162.704 68.704C162.728 68.536 162.74 68.428 162.74 68.38C162.74 68.164 162.692 67.84 162.596 67.408C162.5 66.952 162.38 66.496 162.236 66.04C162.116 65.56 161.972 65.128 161.804 64.744C161.66 64.336 161.54 64.06 161.444 63.916C160.532 62.764 159.548 61.828 158.492 61.108C157.436 60.364 156.14 59.992 154.604 59.992C154.34 59.992 154.064 59.992 153.776 59.992C153.512 59.968 153.248 60.016 152.984 60.136C152.912 60.16 152.78 60.22 152.588 60.316C152.42 60.388 152.228 60.484 152.012 60.604C151.796 60.7 151.592 60.796 151.4 60.892C151.208 60.988 151.076 61.06 151.004 61.108C150.212 61.54 149.552 62.104 149.024 62.8C148.52 63.472 148.112 64.216 147.8 65.032C147.488 65.824 147.26 66.664 147.116 67.552C146.996 68.44 146.936 69.304 146.936 70.144ZM150.32 66.832C150.32 66.232 150.464 65.716 150.752 65.284C151.04 64.828 151.4 64.456 151.832 64.168C152.264 63.88 152.744 63.676 153.272 63.556C153.8 63.412 154.316 63.34 154.82 63.34C155.276 63.34 155.756 63.4 156.26 63.52C156.788 63.616 157.268 63.784 157.7 64.024C158.132 64.24 158.492 64.552 158.78 64.96C159.068 65.344 159.212 65.824 159.212 66.4C159.212 66.448 159.212 66.532 159.212 66.652C159.212 66.772 159.2 66.856 159.176 66.904C159.128 66.952 159.056 67.012 158.96 67.084C158.888 67.132 158.828 67.156 158.78 67.156H150.464C150.368 67.156 150.32 67.12 150.32 67.048C150.32 66.952 150.32 66.88 150.32 66.832ZM164.215 76.948C164.215 77.476 164.311 77.86 164.503 78.1C164.695 78.34 164.947 78.508 165.259 78.604C165.595 78.7 165.967 78.76 166.375 78.784C166.783 78.784 167.191 78.808 167.599 78.856C167.647 78.856 167.767 78.88 167.959 78.928C168.151 78.976 168.271 79 168.319 79H169.795H171.271C171.751 78.952 172.171 78.808 172.531 78.568C172.915 78.304 173.107 77.92 173.107 77.416C173.107 76.792 172.975 76.36 172.711 76.12C172.471 75.88 172.171 75.712 171.811 75.616C171.475 75.52 171.139 75.46 170.803 75.436C170.491 75.388 170.263 75.256 170.119 75.04V74.5C170.119 74.236 170.119 74.02 170.119 73.852C170.143 73.684 170.215 73.48 170.335 73.24V69.136C170.335 69.136 170.395 69.028 170.515 68.812C170.659 68.596 170.767 68.428 170.839 68.308C170.863 68.26 170.911 68.188 170.983 68.092C171.055 67.972 171.103 67.9 171.127 67.876C171.391 67.42 171.691 66.94 172.027 66.436C172.387 65.908 172.783 65.428 173.215 64.996C173.647 64.564 174.115 64.204 174.619 63.916C175.147 63.628 175.711 63.484 176.311 63.484C176.671 63.484 177.019 63.52 177.355 63.592C177.691 63.64 177.967 63.844 178.183 64.204C178.183 64.276 178.183 64.408 178.183 64.6C178.207 64.792 178.219 64.996 178.219 65.212C178.243 65.404 178.255 65.596 178.255 65.788C178.279 65.98 178.291 66.112 178.291 66.184C178.315 66.232 178.339 66.376 178.363 66.616C178.411 66.832 178.435 66.964 178.435 67.012V67.084V67.156C178.435 67.228 178.399 67.372 178.327 67.588C178.279 67.804 178.243 67.948 178.219 68.02V73.492L177.895 74.896L177.751 75.04C176.983 75.088 176.335 75.244 175.807 75.508C175.303 75.748 175.051 76.324 175.051 77.236C175.051 78.004 175.435 78.496 176.203 78.712C176.395 78.712 176.731 78.724 177.211 78.748C177.691 78.772 178.195 78.796 178.723 78.82C179.275 78.82 179.791 78.832 180.271 78.856C180.751 78.856 181.087 78.856 181.279 78.856H181.819C182.395 78.856 182.863 78.76 183.223 78.568C183.607 78.352 183.799 77.932 183.799 77.308C183.799 76.54 183.535 76 183.007 75.688C182.503 75.376 181.927 75.16 181.279 75.04L181.135 74.896C181.135 74.896 181.123 74.836 181.099 74.716C181.099 74.572 181.099 74.464 181.099 74.392C181.099 74.128 181.099 73.888 181.099 73.672C181.123 73.456 181.183 73.216 181.279 72.952V64.06C181.279 63.508 181.147 62.968 180.883 62.44C180.619 61.912 180.271 61.444 179.839 61.036C179.431 60.628 178.951 60.304 178.399 60.064C177.871 59.8 177.343 59.668 176.815 59.668C175.951 59.668 175.135 59.908 174.367 60.388C173.623 60.844 172.915 61.312 172.243 61.792C172.099 61.888 171.955 62.032 171.811 62.224C171.667 62.416 171.523 62.608 171.379 62.8C171.235 62.992 171.091 63.16 170.947 63.304C170.827 63.448 170.695 63.52 170.551 63.52C170.551 63.52 170.527 63.52 170.479 63.52C170.455 63.52 170.431 63.508 170.407 63.484C170.359 62.86 170.287 62.344 170.191 61.936C170.095 61.528 169.927 61.204 169.687 60.964C169.447 60.7 169.111 60.496 168.679 60.352C168.271 60.208 167.719 60.088 167.023 59.992C167.023 59.968 166.939 59.956 166.771 59.956C166.627 59.956 166.519 59.956 166.447 59.956C165.919 59.956 165.427 60.076 164.971 60.316C164.539 60.532 164.323 60.952 164.323 61.576C164.323 62.152 164.467 62.584 164.755 62.872C165.067 63.136 165.391 63.34 165.727 63.484C166.087 63.628 166.411 63.748 166.699 63.844C167.011 63.916 167.167 64.036 167.167 64.204V72.52C167.095 72.88 167.035 73.288 166.987 73.744C166.963 74.176 166.927 74.56 166.879 74.896L166.735 75.04C166.015 75.088 165.415 75.22 164.935 75.436C164.455 75.628 164.215 76.132 164.215 76.948ZM190.69 71.656C190.69 72.856 190.834 73.912 191.122 74.824C191.434 75.736 192.082 76.576 193.066 77.344C193.09 77.368 193.162 77.404 193.282 77.452C193.402 77.5 193.522 77.56 193.642 77.632C193.762 77.68 193.882 77.74 194.002 77.812C194.122 77.86 194.194 77.884 194.218 77.884C194.482 78.076 194.686 78.232 194.83 78.352C194.998 78.448 195.154 78.532 195.298 78.604C195.466 78.652 195.646 78.688 195.838 78.712C196.03 78.736 196.306 78.748 196.666 78.748C197.578 78.748 198.382 78.532 199.078 78.1C199.774 77.644 200.35 77.08 200.806 76.408C201.286 75.712 201.646 74.944 201.886 74.104C202.126 73.264 202.246 72.436 202.246 71.62C202.246 71.116 202.126 70.648 201.886 70.216C201.646 69.784 201.226 69.568 200.626 69.568C200.218 69.568 199.906 69.712 199.69 70C199.474 70.264 199.306 70.6 199.186 71.008C199.066 71.416 198.946 71.86 198.826 72.34C198.73 72.796 198.586 73.228 198.394 73.636C198.226 74.044 197.974 74.392 197.638 74.68C197.302 74.944 196.846 75.076 196.27 75.076C196.054 75.076 195.826 75.004 195.586 74.86C195.346 74.692 195.118 74.5 194.902 74.284C194.71 74.068 194.542 73.84 194.398 73.6C194.278 73.36 194.218 73.144 194.218 72.952V62.944L194.65 62.548C194.674 62.524 194.818 62.512 195.082 62.512C195.37 62.488 195.586 62.476 195.73 62.476C196.426 62.476 197.026 62.56 197.53 62.728C198.058 62.872 198.622 62.944 199.222 62.944C199.702 62.944 200.086 62.776 200.374 62.44C200.686 62.08 200.842 61.66 200.842 61.18C200.842 60.676 200.662 60.208 200.302 59.776C199.942 59.344 199.486 59.128 198.934 59.128C198.454 59.128 197.974 59.164 197.494 59.236C197.038 59.284 196.558 59.308 196.054 59.308C195.862 59.308 195.598 59.308 195.262 59.308C194.95 59.308 194.782 59.296 194.758 59.272L194.506 59.02C194.482 58.996 194.47 58.84 194.47 58.552C194.47 58.264 194.47 58.048 194.47 57.904C194.47 57.328 194.494 56.776 194.542 56.248C194.614 55.72 194.65 55.18 194.65 54.628C194.65 54.052 194.566 53.56 194.398 53.152C194.254 52.72 193.834 52.504 193.138 52.504C192.442 52.504 191.986 52.72 191.77 53.152C191.554 53.56 191.422 54.064 191.374 54.664C191.35 55.24 191.338 55.828 191.338 56.428C191.338 57.028 191.218 57.508 190.978 57.868C190.714 58.252 190.39 58.492 190.006 58.588C189.646 58.66 189.25 58.696 188.818 58.696C188.41 58.696 188.002 58.708 187.594 58.732C187.21 58.756 186.874 58.888 186.586 59.128C186.298 59.392 186.01 59.668 185.722 59.956C185.458 60.244 185.326 60.604 185.326 61.036C185.326 61.324 185.422 61.636 185.614 61.972C185.83 62.308 186.106 62.476 186.442 62.476H190.978V66.472C190.69 67.264 190.57 68.116 190.618 69.028C190.666 69.94 190.69 70.816 190.69 71.656ZM203.728 77.308C203.728 77.716 203.908 78.064 204.268 78.352C204.652 78.616 205.048 78.748 205.456 78.748H219.388C219.892 78.748 220.252 78.58 220.468 78.244C220.708 77.908 220.828 77.524 220.828 77.092C220.828 76.9 220.792 76.696 220.72 76.48C220.672 76.24 220.588 76.024 220.468 75.832C220.348 75.64 220.192 75.484 220 75.364C219.832 75.22 219.628 75.148 219.388 75.148H214.6L214.24 74.824V55.672C214.24 55.264 214.132 54.928 213.916 54.664C213.724 54.376 213.472 54.16 213.16 54.016C212.848 53.848 212.512 53.728 212.152 53.656C211.792 53.584 211.456 53.548 211.144 53.548C210.808 53.548 210.484 53.572 210.172 53.62C209.86 53.668 209.536 53.692 209.2 53.692C208.768 53.692 208.336 53.644 207.904 53.548C207.496 53.452 207.076 53.404 206.644 53.404C206.044 53.404 205.48 53.536 204.952 53.8C204.448 54.04 204.196 54.496 204.196 55.168C204.196 55.48 204.232 55.72 204.304 55.888C204.376 56.032 204.472 56.152 204.592 56.248C204.736 56.344 204.904 56.416 205.096 56.464C205.288 56.512 205.504 56.572 205.744 56.644C206.08 56.764 206.356 56.872 206.572 56.968C206.812 57.04 207.136 57.076 207.544 57.076H208.12C208.192 57.076 208.324 57.064 208.516 57.04C208.708 56.992 208.912 56.944 209.128 56.896C209.344 56.848 209.536 56.8 209.704 56.752C209.896 56.704 210.028 56.668 210.1 56.644C210.172 56.668 210.352 56.764 210.64 56.932C210.928 57.076 211.072 57.22 211.072 57.364V63.412L210.856 64.096V74.932L210.676 75.148H205.168C204.904 75.148 204.676 75.232 204.484 75.4C204.316 75.544 204.172 75.724 204.052 75.94C203.932 76.156 203.848 76.396 203.8 76.66C203.752 76.9 203.728 77.116 203.728 77.308ZM222.309 82.168C222.309 82.816 222.453 83.404 222.741 83.932C223.029 84.484 223.401 84.952 223.857 85.336C224.337 85.744 224.877 86.056 225.477 86.272C226.077 86.488 226.689 86.596 227.313 86.596C228.129 86.596 228.945 86.356 229.761 85.876C230.601 85.42 231.261 84.856 231.741 84.184C231.765 84.16 231.813 84.076 231.885 83.932C231.957 83.812 232.029 83.668 232.101 83.5C232.197 83.332 232.269 83.176 232.317 83.032C232.389 82.912 232.437 82.828 232.461 82.78C232.485 82.756 232.545 82.66 232.641 82.492C232.761 82.348 232.833 82.264 232.857 82.24C232.881 82.216 232.905 82.168 232.929 82.096C232.977 82.024 233.001 81.976 233.001 81.952C233.913 79.6 234.777 77.296 235.593 75.04C236.409 72.76 237.141 70.42 237.789 68.02C237.861 67.732 237.933 67.408 238.005 67.048C238.101 66.688 238.209 66.328 238.329 65.968C238.473 65.608 238.629 65.272 238.797 64.96C238.989 64.648 239.217 64.396 239.481 64.204C239.985 64.204 240.453 64.204 240.885 64.204C241.317 64.204 241.689 64.156 242.001 64.06C242.313 63.94 242.553 63.736 242.721 63.448C242.913 63.16 243.009 62.728 243.009 62.152C243.009 61.696 242.913 61.372 242.721 61.18C242.553 60.988 242.325 60.868 242.037 60.82C241.749 60.748 241.425 60.712 241.065 60.712C240.729 60.688 240.393 60.628 240.057 60.532H235.413C234.933 60.532 234.573 60.664 234.333 60.928C234.093 61.192 233.973 61.528 233.973 61.936C233.973 62.416 234.069 62.776 234.261 63.016C234.477 63.232 234.705 63.412 234.945 63.556C235.209 63.676 235.449 63.796 235.665 63.916C235.881 64.012 235.989 64.18 235.989 64.42C235.989 64.444 235.989 64.504 235.989 64.6C235.989 64.672 235.977 64.732 235.953 64.78C235.905 64.996 235.797 65.368 235.629 65.896C235.485 66.424 235.317 66.988 235.125 67.588C234.957 68.188 234.789 68.752 234.621 69.28C234.477 69.808 234.369 70.18 234.297 70.396C234.249 70.492 234.189 70.672 234.117 70.936C234.045 71.2 233.949 71.476 233.829 71.764C233.733 72.028 233.613 72.268 233.469 72.484C233.349 72.7 233.217 72.808 233.073 72.808C232.929 72.808 232.797 72.736 232.677 72.592C232.581 72.424 232.497 72.244 232.425 72.052C232.353 71.86 232.293 71.668 232.245 71.476C232.221 71.284 232.197 71.164 232.173 71.116C232.149 71.044 232.101 70.912 232.029 70.72C231.957 70.504 231.873 70.276 231.777 70.036C231.681 69.796 231.585 69.568 231.489 69.352C231.417 69.136 231.357 68.968 231.309 68.848C231.189 68.536 231.033 68.2 230.841 67.84C230.649 67.48 230.457 67.108 230.265 66.724C230.097 66.34 229.941 65.968 229.797 65.608C229.677 65.224 229.617 64.864 229.617 64.528C229.617 64.312 229.737 64.144 229.977 64.024C230.217 63.904 230.469 63.784 230.733 63.664C231.021 63.544 231.285 63.376 231.525 63.16C231.765 62.944 231.885 62.62 231.885 62.188C231.885 61.948 231.813 61.732 231.669 61.54C231.549 61.324 231.381 61.144 231.165 61C230.949 60.856 230.709 60.748 230.445 60.676C230.205 60.58 229.977 60.532 229.761 60.532H224.145C223.833 60.532 223.581 60.628 223.389 60.82C223.197 60.988 223.053 61.204 222.957 61.468C222.861 61.708 222.789 61.972 222.741 62.26C222.717 62.548 222.705 62.812 222.705 63.052C222.705 63.388 222.825 63.628 223.065 63.772C223.305 63.916 223.569 64.012 223.857 64.06C223.929 64.06 224.061 64.072 224.253 64.096C224.469 64.12 224.685 64.144 224.901 64.168C225.141 64.168 225.357 64.18 225.549 64.204C225.765 64.204 225.909 64.204 225.981 64.204C226.389 64.468 226.689 64.888 226.881 65.464C227.073 66.04 227.193 66.556 227.241 67.012C227.361 67.324 227.577 67.876 227.889 68.668C228.225 69.46 228.573 70.3 228.933 71.188C229.293 72.052 229.629 72.88 229.941 73.672C230.277 74.464 230.505 75.016 230.625 75.328C230.649 75.424 230.697 75.556 230.769 75.724C230.841 75.892 230.901 76.072 230.949 76.264C230.997 76.432 231.045 76.6 231.093 76.768C231.141 76.912 231.165 76.996 231.165 77.02C231.189 77.044 231.201 77.164 231.201 77.38C231.201 77.572 231.201 77.716 231.201 77.812C231.201 78.124 231.153 78.472 231.057 78.856C230.961 79.216 230.829 79.576 230.661 79.936C230.517 80.296 230.337 80.632 230.121 80.944C229.929 81.28 229.725 81.568 229.509 81.808C229.413 81.88 229.293 81.976 229.149 82.096C229.005 82.24 228.861 82.372 228.717 82.492C228.597 82.612 228.477 82.708 228.357 82.78C228.261 82.876 228.213 82.924 228.213 82.924H227.241C227.169 82.924 227.121 82.888 227.097 82.816C227.097 82.744 227.097 82.684 227.097 82.636C227.097 82.396 227.145 82.18 227.241 81.988C227.337 81.82 227.385 81.604 227.385 81.34C227.385 80.644 227.205 80.044 226.845 79.54C226.485 79.06 225.933 78.82 225.189 78.82C224.277 78.82 223.569 79.156 223.065 79.828C222.561 80.5 222.309 81.28 222.309 82.168ZM263.193 54.664C263.193 55.024 263.253 55.312 263.373 55.528C263.517 55.744 263.673 55.948 263.841 56.14C264.033 56.332 264.213 56.548 264.381 56.788C264.573 57.028 264.705 57.352 264.777 57.76C265.209 60.112 265.641 62.464 266.073 64.816C266.505 67.144 266.913 69.484 267.297 71.836C267.369 72.244 267.429 72.748 267.477 73.348C267.525 73.924 267.585 74.512 267.657 75.112C267.729 75.712 267.825 76.288 267.945 76.84C268.065 77.392 268.233 77.836 268.449 78.172C268.641 78.484 268.845 78.688 269.061 78.784C269.301 78.856 269.589 78.892 269.925 78.892C270.357 78.892 270.693 78.832 270.933 78.712C271.173 78.568 271.353 78.376 271.473 78.136C271.617 77.896 271.713 77.632 271.761 77.344C271.833 77.032 271.905 76.708 271.977 76.372C272.361 74.404 272.661 72.436 272.877 70.468C273.117 68.476 273.381 66.496 273.669 64.528C273.693 64.336 273.729 64.108 273.777 63.844C273.849 63.556 273.897 63.412 273.921 63.412H274.065C274.089 63.412 274.125 63.556 274.173 63.844C274.245 64.108 274.305 64.336 274.353 64.528C274.545 65.536 274.713 66.568 274.857 67.624C275.001 68.656 275.121 69.688 275.217 70.72C275.217 70.792 275.217 70.96 275.217 71.224C275.241 71.464 275.253 71.74 275.253 72.052C275.277 72.364 275.301 72.652 275.325 72.916C275.349 73.156 275.361 73.312 275.361 73.384C275.385 73.648 275.409 74.02 275.433 74.5C275.457 74.956 275.493 75.424 275.541 75.904C275.613 76.384 275.697 76.84 275.793 77.272C275.913 77.68 276.045 77.98 276.189 78.172C276.549 78.652 276.993 78.892 277.521 78.892C277.953 78.892 278.337 78.676 278.673 78.244C279.009 77.788 279.285 77.224 279.501 76.552C279.741 75.856 279.945 75.088 280.113 74.248C280.281 73.384 280.425 72.544 280.545 71.728C280.689 70.888 280.809 70.12 280.905 69.424C281.025 68.704 281.145 68.152 281.265 67.768C281.289 67.696 281.313 67.588 281.337 67.444C281.385 67.276 281.433 67.108 281.481 66.94C281.529 66.748 281.565 66.58 281.589 66.436C281.637 66.268 281.673 66.148 281.697 66.076C282.009 64.588 282.261 63.112 282.453 61.648C282.645 60.16 282.909 58.672 283.245 57.184C283.293 56.944 283.365 56.74 283.461 56.572C283.581 56.38 283.689 56.2 283.785 56.032C283.905 55.84 284.001 55.648 284.073 55.456C284.169 55.24 284.217 55 284.217 54.736C284.217 54.304 284.121 53.944 283.929 53.656C283.737 53.344 283.413 53.164 282.957 53.116C282.573 53.068 282.141 53.008 281.661 52.936C281.181 52.864 280.737 52.828 280.329 52.828C279.825 52.828 279.381 52.972 278.997 53.26C278.613 53.524 278.421 53.932 278.421 54.484C278.421 54.868 278.481 55.144 278.601 55.312C278.721 55.456 278.853 55.576 278.997 55.672C279.165 55.744 279.333 55.828 279.501 55.924C279.693 55.996 279.861 56.14 280.005 56.356V57.4C280.005 58 279.945 58.576 279.825 59.128C279.729 59.68 279.645 60.256 279.573 60.856C279.381 62.392 279.165 63.904 278.925 65.392C278.685 66.856 278.385 68.356 278.025 69.892H277.953C277.881 69.892 277.785 69.616 277.665 69.064C277.569 68.512 277.449 67.816 277.305 66.976C277.185 66.136 277.053 65.224 276.909 64.24C276.789 63.232 276.669 62.284 276.549 61.396C276.453 60.484 276.369 59.692 276.297 59.02C276.225 58.348 276.189 57.928 276.189 57.76V56.788C276.213 56.62 276.297 56.488 276.441 56.392C276.585 56.272 276.729 56.152 276.873 56.032C277.041 55.888 277.185 55.72 277.305 55.528C277.425 55.312 277.485 55.012 277.485 54.628C277.485 54.076 277.269 53.68 276.837 53.44C276.429 53.2 275.937 53.044 275.361 52.972C274.785 52.9 274.197 52.876 273.597 52.9C273.021 52.9 272.565 52.876 272.229 52.828H272.157C271.653 52.828 271.233 53.008 270.897 53.368C270.561 53.704 270.393 54.112 270.393 54.592C270.393 54.88 270.429 55.12 270.501 55.312C270.597 55.48 270.717 55.636 270.861 55.78C271.005 55.9 271.161 56.032 271.329 56.176C271.497 56.296 271.665 56.452 271.833 56.644V57.688V58.732C271.833 58.78 271.809 58.912 271.761 59.128C271.713 59.344 271.665 59.572 271.617 59.812C271.569 60.028 271.521 60.244 271.473 60.46C271.425 60.676 271.401 60.808 271.401 60.856C271.281 61.864 271.173 62.872 271.077 63.88C270.981 64.888 270.849 65.896 270.681 66.904C270.657 67.12 270.609 67.396 270.537 67.732C270.489 68.044 270.429 68.356 270.357 68.668C270.309 68.956 270.261 69.208 270.213 69.424C270.165 69.64 270.141 69.748 270.141 69.748H269.997C269.805 68.308 269.565 66.868 269.277 65.428C268.989 63.988 268.713 62.56 268.449 61.144C268.329 60.496 268.173 59.884 267.981 59.308C267.813 58.708 267.729 58.072 267.729 57.4V56.644C267.825 56.476 267.969 56.356 268.161 56.284C268.377 56.212 268.569 56.128 268.737 56.032C268.929 55.912 269.097 55.768 269.241 55.6C269.385 55.408 269.457 55.12 269.457 54.736C269.457 54.328 269.325 54.004 269.061 53.764C268.797 53.5 268.473 53.308 268.089 53.188C267.729 53.044 267.333 52.948 266.901 52.9C266.493 52.852 266.133 52.828 265.821 52.828C265.485 52.828 265.161 52.852 264.849 52.9C264.537 52.924 264.249 53.008 263.985 53.152C263.745 53.272 263.553 53.452 263.409 53.692C263.265 53.932 263.193 54.256 263.193 54.664ZM285.746 73.204C285.746 74.332 285.962 75.328 286.394 76.192C286.85 77.032 287.57 77.74 288.554 78.316C288.746 78.436 288.938 78.568 289.13 78.712C289.322 78.832 289.55 78.892 289.814 78.892H293.054C293.462 78.892 293.858 78.82 294.242 78.676C294.626 78.508 294.998 78.316 295.358 78.1C295.718 77.86 296.066 77.62 296.402 77.38C296.762 77.14 297.11 76.936 297.446 76.768H297.626C297.794 76.768 297.938 76.828 298.058 76.948C298.202 77.068 298.322 77.212 298.418 77.38C298.538 77.524 298.646 77.68 298.742 77.848C298.862 77.992 298.994 78.1 299.138 78.172C299.546 78.436 299.918 78.628 300.254 78.748C300.59 78.844 300.986 78.892 301.442 78.892C302.018 78.892 302.522 78.76 302.954 78.496C303.41 78.232 303.782 77.896 304.07 77.488C304.382 77.056 304.622 76.576 304.79 76.048C304.958 75.52 305.042 74.992 305.042 74.464C305.042 74.224 305.018 73.984 304.97 73.744C304.922 73.48 304.838 73.24 304.718 73.024C304.598 72.808 304.442 72.628 304.25 72.484C304.058 72.34 303.83 72.268 303.566 72.268C303.062 72.268 302.726 72.436 302.558 72.772C302.414 73.108 302.306 73.492 302.234 73.924C302.162 74.332 302.078 74.704 301.982 75.04C301.886 75.376 301.646 75.544 301.262 75.544C300.686 75.544 300.398 75.208 300.398 74.536V68.452C300.518 68.164 300.566 67.84 300.542 67.48C300.542 67.096 300.542 66.76 300.542 66.472V65.356C300.542 65.284 300.518 65.164 300.47 64.996C300.446 64.804 300.41 64.612 300.362 64.42C300.314 64.204 300.266 64 300.218 63.808C300.17 63.616 300.134 63.484 300.11 63.412C300.038 63.124 299.846 62.776 299.534 62.368C299.246 61.96 298.898 61.576 298.49 61.216C298.106 60.856 297.698 60.544 297.266 60.28C296.858 60.016 296.498 59.884 296.186 59.884H290.678C290.294 59.884 289.958 60.004 289.67 60.244C289.382 60.46 289.106 60.664 288.842 60.856C288.53 61.072 288.218 61.312 287.906 61.576C287.594 61.816 287.318 62.08 287.078 62.368C286.838 62.656 286.646 62.968 286.502 63.304C286.358 63.64 286.286 64.024 286.286 64.456C286.286 65.2 286.526 65.824 287.006 66.328C287.51 66.832 288.146 67.084 288.914 67.084C289.418 67.084 289.814 66.988 290.102 66.796C290.414 66.58 290.642 66.328 290.786 66.04C290.954 65.728 291.074 65.392 291.146 65.032C291.218 64.672 291.278 64.348 291.326 64.06C291.398 63.748 291.47 63.496 291.542 63.304C291.614 63.088 291.746 62.98 291.938 62.98H295.322C295.346 62.98 295.502 63.052 295.79 63.196C296.078 63.34 296.294 63.448 296.438 63.52C296.822 63.736 297.086 64.024 297.23 64.384C297.374 64.744 297.446 65.128 297.446 65.536C297.446 66.112 297.158 66.496 296.582 66.688C296.006 66.88 295.286 67.012 294.422 67.084C293.558 67.156 292.61 67.24 291.578 67.336C290.57 67.408 289.634 67.636 288.77 68.02C287.906 68.38 287.186 68.968 286.61 69.784C286.034 70.576 285.746 71.716 285.746 73.204ZM288.554 73.168C288.554 72.904 288.638 72.592 288.806 72.232C288.998 71.872 289.154 71.608 289.274 71.44C289.514 71.08 289.79 70.888 290.102 70.864C290.702 70.768 291.29 70.696 291.866 70.648C292.466 70.6 293.054 70.528 293.63 70.432C293.702 70.432 293.894 70.408 294.206 70.36C294.542 70.288 294.89 70.228 295.25 70.18C295.61 70.108 295.946 70.048 296.258 70C296.594 69.928 296.798 69.892 296.87 69.892L296.942 69.856C296.966 69.856 296.978 69.868 296.978 69.892C297.002 69.892 297.014 69.892 297.014 69.892C297.038 69.892 297.086 69.916 297.158 69.964C297.23 69.988 297.278 70 297.302 70V70.432C297.302 71.464 297.146 72.304 296.834 72.952C296.522 73.6 295.922 74.224 295.034 74.824C294.986 74.848 294.866 74.908 294.674 75.004C294.506 75.1 294.398 75.172 294.35 75.22C294.254 75.268 294.134 75.328 293.99 75.4C293.87 75.472 293.798 75.508 293.774 75.508H290.102C289.862 75.508 289.646 75.424 289.454 75.256C289.262 75.088 289.094 74.884 288.95 74.644C288.83 74.38 288.734 74.116 288.662 73.852C288.59 73.588 288.554 73.36 288.554 73.168ZM306.54 77.272C306.54 77.68 306.66 78.028 306.9 78.316C307.164 78.604 307.512 78.748 307.944 78.748H320.22C320.628 78.748 320.916 78.58 321.084 78.244C321.276 77.908 321.372 77.572 321.372 77.236C321.372 77.068 321.336 76.864 321.264 76.624C321.216 76.384 321.12 76.156 320.976 75.94C320.856 75.724 320.7 75.544 320.508 75.4C320.34 75.232 320.148 75.148 319.932 75.148H316.116L315.9 74.932V61.54C315.9 61.036 315.672 60.652 315.216 60.388C314.784 60.124 314.364 59.992 313.956 59.992C313.668 59.992 313.38 60.016 313.092 60.064C312.828 60.112 312.552 60.136 312.264 60.136C311.856 60.136 311.448 60.112 311.04 60.064C310.656 60.016 310.26 59.992 309.852 59.992C309.588 59.992 309.288 60.016 308.952 60.064C308.64 60.088 308.34 60.16 308.052 60.28C307.788 60.376 307.56 60.532 307.368 60.748C307.176 60.964 307.08 61.264 307.08 61.648C307.08 61.84 307.104 62.056 307.152 62.296C307.224 62.512 307.32 62.716 307.44 62.908C307.56 63.1 307.704 63.268 307.872 63.412C308.064 63.532 308.28 63.592 308.52 63.592H312.732V71.548C312.708 71.596 312.684 71.716 312.66 71.908C312.636 72.1 312.612 72.22 312.588 72.268C312.588 72.364 312.576 72.532 312.552 72.772C312.552 73.012 312.54 73.264 312.516 73.528C312.492 73.792 312.468 74.044 312.444 74.284C312.444 74.524 312.444 74.692 312.444 74.788L312.192 75.148H308.232C307.656 75.148 307.224 75.388 306.936 75.868C306.672 76.324 306.54 76.792 306.54 77.272ZM311.328 55.564C311.328 56.356 311.532 57.04 311.94 57.616C312.372 58.192 312.996 58.48 313.812 58.48C314.484 58.48 315.084 58.276 315.612 57.868C316.14 57.436 316.404 56.86 316.404 56.14C316.404 55.78 316.332 55.42 316.188 55.06C316.068 54.7 315.888 54.376 315.648 54.088C315.432 53.776 315.156 53.536 314.82 53.368C314.508 53.176 314.16 53.08 313.776 53.08C313.056 53.08 312.468 53.32 312.012 53.8C311.556 54.28 311.328 54.868 311.328 55.564ZM328.198 71.656C328.198 72.856 328.342 73.912 328.63 74.824C328.942 75.736 329.59 76.576 330.574 77.344C330.598 77.368 330.67 77.404 330.79 77.452C330.91 77.5 331.03 77.56 331.15 77.632C331.27 77.68 331.39 77.74 331.51 77.812C331.63 77.86 331.702 77.884 331.726 77.884C331.99 78.076 332.194 78.232 332.338 78.352C332.506 78.448 332.662 78.532 332.806 78.604C332.974 78.652 333.154 78.688 333.346 78.712C333.538 78.736 333.814 78.748 334.174 78.748C335.086 78.748 335.89 78.532 336.586 78.1C337.282 77.644 337.858 77.08 338.314 76.408C338.794 75.712 339.154 74.944 339.394 74.104C339.634 73.264 339.754 72.436 339.754 71.62C339.754 71.116 339.634 70.648 339.394 70.216C339.154 69.784 338.734 69.568 338.134 69.568C337.726 69.568 337.414 69.712 337.198 70C336.982 70.264 336.814 70.6 336.694 71.008C336.574 71.416 336.454 71.86 336.334 72.34C336.238 72.796 336.094 73.228 335.902 73.636C335.734 74.044 335.482 74.392 335.146 74.68C334.81 74.944 334.354 75.076 333.778 75.076C333.562 75.076 333.334 75.004 333.094 74.86C332.854 74.692 332.626 74.5 332.41 74.284C332.218 74.068 332.05 73.84 331.906 73.6C331.786 73.36 331.726 73.144 331.726 72.952V62.944L332.158 62.548C332.182 62.524 332.326 62.512 332.59 62.512C332.878 62.488 333.094 62.476 333.238 62.476C333.934 62.476 334.534 62.56 335.038 62.728C335.566 62.872 336.13 62.944 336.73 62.944C337.21 62.944 337.594 62.776 337.882 62.44C338.194 62.08 338.35 61.66 338.35 61.18C338.35 60.676 338.17 60.208 337.81 59.776C337.45 59.344 336.994 59.128 336.442 59.128C335.962 59.128 335.482 59.164 335.002 59.236C334.546 59.284 334.066 59.308 333.562 59.308C333.37 59.308 333.106 59.308 332.77 59.308C332.458 59.308 332.29 59.296 332.266 59.272L332.014 59.02C331.99 58.996 331.978 58.84 331.978 58.552C331.978 58.264 331.978 58.048 331.978 57.904C331.978 57.328 332.002 56.776 332.05 56.248C332.122 55.72 332.158 55.18 332.158 54.628C332.158 54.052 332.074 53.56 331.906 53.152C331.762 52.72 331.342 52.504 330.646 52.504C329.95 52.504 329.494 52.72 329.278 53.152C329.062 53.56 328.93 54.064 328.882 54.664C328.858 55.24 328.846 55.828 328.846 56.428C328.846 57.028 328.726 57.508 328.486 57.868C328.222 58.252 327.898 58.492 327.514 58.588C327.154 58.66 326.758 58.696 326.326 58.696C325.918 58.696 325.51 58.708 325.102 58.732C324.718 58.756 324.382 58.888 324.094 59.128C323.806 59.392 323.518 59.668 323.23 59.956C322.966 60.244 322.834 60.604 322.834 61.036C322.834 61.324 322.93 61.636 323.122 61.972C323.338 62.308 323.614 62.476 323.95 62.476H328.486V66.472C328.198 67.264 328.078 68.116 328.126 69.028C328.174 69.94 328.198 70.816 328.198 71.656ZM341.273 77.272C341.273 77.68 341.393 78.028 341.633 78.316C341.897 78.604 342.245 78.748 342.677 78.748H354.953C355.361 78.748 355.649 78.58 355.817 78.244C356.009 77.908 356.105 77.572 356.105 77.236C356.105 77.068 356.069 76.864 355.997 76.624C355.949 76.384 355.853 76.156 355.709 75.94C355.589 75.724 355.433 75.544 355.241 75.4C355.073 75.232 354.881 75.148 354.665 75.148H350.849L350.633 74.932V61.54C350.633 61.036 350.405 60.652 349.949 60.388C349.517 60.124 349.097 59.992 348.689 59.992C348.401 59.992 348.113 60.016 347.825 60.064C347.561 60.112 347.285 60.136 346.997 60.136C346.589 60.136 346.181 60.112 345.773 60.064C345.389 60.016 344.993 59.992 344.585 59.992C344.321 59.992 344.021 60.016 343.685 60.064C343.373 60.088 343.073 60.16 342.785 60.28C342.521 60.376 342.293 60.532 342.101 60.748C341.909 60.964 341.813 61.264 341.813 61.648C341.813 61.84 341.837 62.056 341.885 62.296C341.957 62.512 342.053 62.716 342.173 62.908C342.293 63.1 342.437 63.268 342.605 63.412C342.797 63.532 343.013 63.592 343.253 63.592H347.465V71.548C347.441 71.596 347.417 71.716 347.393 71.908C347.369 72.1 347.345 72.22 347.321 72.268C347.321 72.364 347.309 72.532 347.285 72.772C347.285 73.012 347.273 73.264 347.249 73.528C347.225 73.792 347.201 74.044 347.177 74.284C347.177 74.524 347.177 74.692 347.177 74.788L346.925 75.148H342.965C342.389 75.148 341.957 75.388 341.669 75.868C341.405 76.324 341.273 76.792 341.273 77.272ZM346.061 55.564C346.061 56.356 346.265 57.04 346.673 57.616C347.105 58.192 347.729 58.48 348.545 58.48C349.217 58.48 349.817 58.276 350.345 57.868C350.873 57.436 351.137 56.86 351.137 56.14C351.137 55.78 351.065 55.42 350.921 55.06C350.801 54.7 350.621 54.376 350.381 54.088C350.165 53.776 349.889 53.536 349.553 53.368C349.241 53.176 348.893 53.08 348.509 53.08C347.789 53.08 347.201 53.32 346.745 53.8C346.289 54.28 346.061 54.868 346.061 55.564ZM357.567 76.948C357.567 77.476 357.663 77.86 357.855 78.1C358.047 78.34 358.299 78.508 358.611 78.604C358.947 78.7 359.319 78.76 359.727 78.784C360.135 78.784 360.543 78.808 360.951 78.856C360.999 78.856 361.119 78.88 361.311 78.928C361.503 78.976 361.623 79 361.671 79H363.147H364.623C365.103 78.952 365.523 78.808 365.883 78.568C366.267 78.304 366.459 77.92 366.459 77.416C366.459 76.792 366.327 76.36 366.063 76.12C365.823 75.88 365.523 75.712 365.163 75.616C364.827 75.52 364.491 75.46 364.155 75.436C363.843 75.388 363.615 75.256 363.471 75.04V74.5C363.471 74.236 363.471 74.02 363.471 73.852C363.495 73.684 363.567 73.48 363.687 73.24V69.136C363.687 69.136 363.747 69.028 363.867 68.812C364.011 68.596 364.119 68.428 364.191 68.308C364.215 68.26 364.263 68.188 364.335 68.092C364.407 67.972 364.455 67.9 364.479 67.876C364.743 67.42 365.043 66.94 365.379 66.436C365.739 65.908 366.135 65.428 366.567 64.996C366.999 64.564 367.467 64.204 367.971 63.916C368.499 63.628 369.063 63.484 369.663 63.484C370.023 63.484 370.371 63.52 370.707 63.592C371.043 63.64 371.319 63.844 371.535 64.204C371.535 64.276 371.535 64.408 371.535 64.6C371.559 64.792 371.571 64.996 371.571 65.212C371.595 65.404 371.607 65.596 371.607 65.788C371.631 65.98 371.643 66.112 371.643 66.184C371.667 66.232 371.691 66.376 371.715 66.616C371.763 66.832 371.787 66.964 371.787 67.012V67.084V67.156C371.787 67.228 371.751 67.372 371.679 67.588C371.631 67.804 371.595 67.948 371.571 68.02V73.492L371.247 74.896L371.103 75.04C370.335 75.088 369.687 75.244 369.159 75.508C368.655 75.748 368.403 76.324 368.403 77.236C368.403 78.004 368.787 78.496 369.555 78.712C369.747 78.712 370.083 78.724 370.563 78.748C371.043 78.772 371.547 78.796 372.075 78.82C372.627 78.82 373.143 78.832 373.623 78.856C374.103 78.856 374.439 78.856 374.631 78.856H375.171C375.747 78.856 376.215 78.76 376.575 78.568C376.959 78.352 377.151 77.932 377.151 77.308C377.151 76.54 376.887 76 376.359 75.688C375.855 75.376 375.279 75.16 374.631 75.04L374.487 74.896C374.487 74.896 374.475 74.836 374.451 74.716C374.451 74.572 374.451 74.464 374.451 74.392C374.451 74.128 374.451 73.888 374.451 73.672C374.475 73.456 374.535 73.216 374.631 72.952V64.06C374.631 63.508 374.499 62.968 374.235 62.44C373.971 61.912 373.623 61.444 373.191 61.036C372.783 60.628 372.303 60.304 371.751 60.064C371.223 59.8 370.695 59.668 370.167 59.668C369.303 59.668 368.487 59.908 367.719 60.388C366.975 60.844 366.267 61.312 365.595 61.792C365.451 61.888 365.307 62.032 365.163 62.224C365.019 62.416 364.875 62.608 364.731 62.8C364.587 62.992 364.443 63.16 364.299 63.304C364.179 63.448 364.047 63.52 363.903 63.52C363.903 63.52 363.879 63.52 363.831 63.52C363.807 63.52 363.783 63.508 363.759 63.484C363.711 62.86 363.639 62.344 363.543 61.936C363.447 61.528 363.279 61.204 363.039 60.964C362.799 60.7 362.463 60.496 362.031 60.352C361.623 60.208 361.071 60.088 360.375 59.992C360.375 59.968 360.291 59.956 360.123 59.956C359.979 59.956 359.871 59.956 359.799 59.956C359.271 59.956 358.779 60.076 358.323 60.316C357.891 60.532 357.675 60.952 357.675 61.576C357.675 62.152 357.819 62.584 358.107 62.872C358.419 63.136 358.743 63.34 359.079 63.484C359.439 63.628 359.763 63.748 360.051 63.844C360.363 63.916 360.519 64.036 360.519 64.204V72.52C360.447 72.88 360.387 73.288 360.339 73.744C360.315 74.176 360.279 74.56 360.231 74.896L360.087 75.04C359.367 75.088 358.767 75.22 358.287 75.436C357.807 75.628 357.567 76.132 357.567 76.948ZM378.678 80.656C378.678 81.76 378.942 82.636 379.47 83.284C380.022 83.956 380.79 84.46 381.774 84.796C381.966 84.844 382.122 84.928 382.242 85.048C382.386 85.192 382.554 85.3 382.746 85.372C383.754 85.732 384.738 85.96 385.698 86.056C386.658 86.152 387.678 86.2 388.758 86.2C389.718 86.2 390.69 86.092 391.674 85.876C392.682 85.684 393.594 85.348 394.41 84.868C395.226 84.412 395.886 83.788 396.39 82.996C396.894 82.228 397.146 81.268 397.146 80.116C397.146 79.66 397.086 79.252 396.966 78.892C396.846 78.532 396.678 78.208 396.462 77.92C396.246 77.608 395.994 77.32 395.706 77.056C395.418 76.792 395.094 76.504 394.734 76.192C394.566 76.048 394.446 75.94 394.374 75.868C394.302 75.796 394.242 75.736 394.194 75.688C394.146 75.64 394.074 75.592 393.978 75.544C393.906 75.496 393.786 75.436 393.618 75.364C393.21 75.22 392.73 75.148 392.178 75.148C391.65 75.148 391.23 75.124 390.918 75.076C390.87 75.076 390.738 75.052 390.522 75.004C390.33 74.956 390.114 74.908 389.874 74.86C389.634 74.812 389.406 74.764 389.19 74.716C388.998 74.668 388.878 74.644 388.83 74.644H387.57C386.73 74.644 385.914 74.764 385.122 75.004C384.33 75.244 383.514 75.364 382.674 75.364C382.554 75.364 382.434 75.316 382.314 75.22C382.194 75.124 382.11 75.028 382.062 74.932V74.428C382.062 74.044 382.134 73.708 382.278 73.42C382.446 73.108 382.758 72.952 383.214 72.952C383.598 72.952 383.958 73.012 384.294 73.132C384.63 73.228 384.954 73.336 385.266 73.456C385.602 73.576 385.938 73.696 386.274 73.816C386.61 73.912 386.97 73.96 387.354 73.96C387.642 73.96 387.87 73.948 388.038 73.924C388.23 73.876 388.398 73.816 388.542 73.744C388.71 73.672 388.878 73.6 389.046 73.528C389.214 73.432 389.418 73.336 389.658 73.24C390.282 73 390.81 72.676 391.242 72.268C391.698 71.836 392.07 71.356 392.358 70.828C392.646 70.276 392.85 69.688 392.97 69.064C393.114 68.44 393.186 67.804 393.186 67.156C393.186 66.556 393.102 65.992 392.934 65.464C392.766 64.912 392.682 64.336 392.682 63.736C392.826 63.736 392.958 63.856 393.078 64.096C393.222 64.336 393.39 64.612 393.582 64.924C393.774 65.212 394.026 65.476 394.338 65.716C394.65 65.956 395.07 66.076 395.598 66.076C396.342 66.076 396.858 65.812 397.146 65.284C397.434 64.732 397.578 64.12 397.578 63.448C397.578 62.92 397.446 62.44 397.182 62.008C396.942 61.576 396.618 61.216 396.21 60.928C395.826 60.616 395.382 60.388 394.878 60.244C394.374 60.076 393.882 59.992 393.402 59.992C392.466 59.992 391.638 60.328 390.918 61H390.234C389.898 61 389.574 60.952 389.262 60.856C388.95 60.736 388.638 60.616 388.326 60.496C388.038 60.376 387.738 60.268 387.426 60.172C387.114 60.052 386.802 59.992 386.49 59.992C386.418 59.992 386.31 60.016 386.166 60.064C386.022 60.088 385.878 60.124 385.734 60.172C385.59 60.22 385.446 60.268 385.302 60.316C385.182 60.364 385.086 60.4 385.014 60.424C383.646 61.024 382.566 61.888 381.774 63.016C381.006 64.144 380.622 65.464 380.622 66.976C380.622 67.528 380.694 68.056 380.838 68.56C381.006 69.064 381.09 69.592 381.09 70.144C381.09 70.192 381.09 70.264 381.09 70.36C381.09 70.456 381.078 70.528 381.054 70.576C380.478 71.128 379.998 71.716 379.614 72.34C379.254 72.94 379.074 73.648 379.074 74.464C379.074 74.728 379.122 74.992 379.218 75.256C379.314 75.496 379.41 75.736 379.506 75.976C379.626 76.216 379.734 76.456 379.83 76.696C379.926 76.936 379.974 77.176 379.974 77.416L379.938 77.596C379.53 78.052 379.218 78.508 379.002 78.964C378.786 79.42 378.678 79.984 378.678 80.656ZM381.774 80.836V80.224C381.774 79.624 381.966 79.168 382.35 78.856C382.758 78.52 383.238 78.268 383.79 78.1C384.366 77.932 384.966 77.836 385.59 77.812C386.214 77.764 386.754 77.74 387.21 77.74C387.546 77.74 388.098 77.764 388.866 77.812C389.658 77.86 390.45 77.98 391.242 78.172C392.058 78.34 392.766 78.592 393.366 78.928C393.99 79.264 394.302 79.72 394.302 80.296C394.302 80.656 394.182 80.968 393.942 81.232C393.702 81.496 393.414 81.724 393.078 81.916C392.742 82.108 392.382 82.264 391.998 82.384C391.638 82.504 391.326 82.6 391.062 82.672C390.366 82.72 389.61 82.756 388.794 82.78C388.002 82.804 387.222 82.816 386.454 82.816C385.518 82.816 384.654 82.66 383.862 82.348C383.094 82.036 382.398 81.532 381.774 80.836ZM383.178 67.12C383.178 66.592 383.286 66.1 383.502 65.644C383.718 65.188 384.006 64.792 384.366 64.456C384.726 64.12 385.134 63.856 385.59 63.664C386.07 63.472 386.562 63.376 387.066 63.376C388.17 63.376 388.998 63.748 389.55 64.492C390.102 65.212 390.378 66.112 390.378 67.192C390.378 67.72 390.294 68.224 390.126 68.704C389.958 69.184 389.718 69.604 389.406 69.964C389.094 70.324 388.71 70.612 388.254 70.828C387.822 71.044 387.33 71.152 386.778 71.152C386.274 71.152 385.794 71.032 385.338 70.792C384.906 70.552 384.522 70.252 384.186 69.892C383.874 69.508 383.622 69.076 383.43 68.596C383.262 68.116 383.178 67.624 383.178 67.12ZM399.05 76.372C399.05 77.164 399.266 77.824 399.698 78.352C400.154 78.856 400.802 79.108 401.642 79.108C402.53 79.108 403.202 78.82 403.658 78.244C404.138 77.644 404.378 76.924 404.378 76.084C404.378 75.244 404.162 74.56 403.73 74.032C403.298 73.48 402.638 73.204 401.75 73.204H401.282C400.442 73.468 399.854 73.852 399.518 74.356C399.206 74.86 399.05 75.532 399.05 76.372ZM399.05 62.908C399.05 63.7 399.266 64.36 399.698 64.888C400.154 65.392 400.802 65.644 401.642 65.644C402.53 65.644 403.202 65.356 403.658 64.78C404.138 64.18 404.378 63.46 404.378 62.62C404.378 61.78 404.162 61.096 403.73 60.568C403.298 60.016 402.638 59.74 401.75 59.74H401.282C400.442 60.004 399.854 60.388 399.518 60.892C399.206 61.396 399.05 62.068 399.05 62.908Z" fill="white"/>
<path d="M65.1925 83.5H404.81V85.3H65.1925V83.5Z" fill="white"/>
<rect x="209" y="551" width="52" height="2" fill="#4D4026"/>
<rect x="209" y="550" width="52" height="2" fill="#453921"/>
</svg>
