<svg width="125" height="185" viewBox="0 0 125 185" fill="none" xmlns="http://www.w3.org/2000/svg">
<mask id="path-1-inside-1_156_651" fill="white">
<path fill-rule="evenodd" clip-rule="evenodd" d="M73.6932 160H53V183.024H73.6932V160Z"/>
</mask>
<path fill-rule="evenodd" clip-rule="evenodd" d="M73.6932 160H53V183.024H73.6932V160Z" fill="#F5BC4D"/>
<path d="M53 160V159.215H52.2152V160H53ZM73.6932 160H74.478V159.215H73.6932V160ZM53 183.024H52.2152V183.808H53V183.024ZM73.6932 183.024V183.808H74.478V183.024H73.6932ZM53 160.785H73.6932V159.215H53V160.785ZM53.7848 183.024V160H52.2152V183.024H53.7848ZM53 183.808H73.6932V182.239H53V183.808ZM72.9084 160V183.024H74.478V160H72.9084Z" fill="black" mask="url(#path-1-inside-1_156_651)"/>
<rect width="125" height="159.977" fill="white"/>
<rect x="0.651184" y="0.651184" width="123.698" height="158.674" fill="#393232" stroke="#AFAFAF" stroke-width="1.30237"/>
<path d="M27.0568 18.529C27.0568 18.7226 27.089 18.8775 27.1536 18.9936C27.231 19.1098 27.3149 19.2195 27.4052 19.3228C27.5085 19.426 27.6053 19.5422 27.6956 19.6712C27.7989 19.8003 27.8699 19.9745 27.9086 20.1939C28.1409 21.4588 28.3732 22.7236 28.6055 23.9884C28.8378 25.2403 29.0573 26.4987 29.2638 27.7635C29.3025 27.9829 29.3347 28.254 29.3606 28.5766C29.3864 28.8864 29.4186 29.2026 29.4574 29.5253C29.4961 29.8479 29.5477 30.1577 29.6122 30.4545C29.6768 30.7514 29.7671 30.9901 29.8833 31.1708C29.9865 31.3386 30.0962 31.4483 30.2124 31.4999C30.3414 31.5387 30.4963 31.558 30.677 31.558C30.9093 31.558 31.09 31.5257 31.2191 31.4612C31.3481 31.3838 31.4449 31.2805 31.5095 31.1515C31.5869 31.0224 31.6385 30.8804 31.6643 30.7255C31.7031 30.5578 31.7418 30.3835 31.7805 30.2028C31.987 29.1445 32.1483 28.0862 32.2645 27.0279C32.3936 25.9566 32.5355 24.8919 32.6904 23.8335C32.7033 23.7303 32.7227 23.6077 32.7485 23.4657C32.7872 23.3108 32.813 23.2334 32.8259 23.2334H32.9034C32.9163 23.2334 32.9356 23.3108 32.9614 23.4657C33.0002 23.6077 33.0324 23.7303 33.0582 23.8335C33.1615 24.3756 33.2518 24.9306 33.3293 25.4985C33.4067 26.0534 33.4712 26.6084 33.5229 27.1634C33.5229 27.2021 33.5229 27.2924 33.5229 27.4344C33.5358 27.5635 33.5422 27.7119 33.5422 27.8797C33.5551 28.0475 33.568 28.2023 33.5809 28.3443C33.5938 28.4734 33.6003 28.5573 33.6003 28.596C33.6132 28.738 33.6261 28.938 33.639 29.1961C33.6519 29.4414 33.6713 29.693 33.6971 29.9512C33.7358 30.2093 33.781 30.4545 33.8326 30.6868C33.8971 30.9062 33.9681 31.0676 34.0456 31.1708C34.2392 31.4289 34.4779 31.558 34.7619 31.558C34.9942 31.558 35.2007 31.4419 35.3814 31.2095C35.5621 30.9643 35.7105 30.661 35.8267 30.2996C35.9557 29.9254 36.0654 29.5123 36.1558 29.0606C36.2461 28.596 36.3235 28.1443 36.3881 27.7055C36.4655 27.2537 36.53 26.8407 36.5817 26.4664C36.6462 26.0792 36.7107 25.7824 36.7753 25.5759C36.7882 25.5372 36.8011 25.4791 36.814 25.4017C36.8398 25.3113 36.8656 25.221 36.8914 25.1306C36.9172 25.0274 36.9366 24.937 36.9495 24.8596C36.9753 24.7693 36.9947 24.7047 37.0076 24.666C37.1754 23.8658 37.3109 23.0721 37.4141 22.2848C37.5174 21.4846 37.6594 20.6844 37.84 19.8842C37.8659 19.7551 37.9046 19.6454 37.9562 19.5551C38.0207 19.4518 38.0788 19.355 38.1304 19.2647C38.195 19.1614 38.2466 19.0582 38.2853 18.9549C38.3369 18.8388 38.3628 18.7097 38.3628 18.5677C38.3628 18.3354 38.3111 18.1418 38.2079 17.9869C38.1046 17.8192 37.9304 17.7224 37.6852 17.6966C37.4787 17.6707 37.2464 17.6385 36.9882 17.5998C36.7301 17.561 36.4913 17.5417 36.2719 17.5417C36.0009 17.5417 35.7621 17.6191 35.5556 17.774C35.3491 17.916 35.2459 18.1354 35.2459 18.4322C35.2459 18.6387 35.2781 18.7871 35.3427 18.8775C35.4072 18.9549 35.4782 19.0195 35.5556 19.0711C35.646 19.1098 35.7363 19.155 35.8267 19.2066C35.9299 19.2453 36.0202 19.3228 36.0977 19.4389V20.0003C36.0977 20.323 36.0654 20.6328 36.0009 20.9296C35.9493 21.2264 35.9041 21.5362 35.8654 21.8589C35.7621 22.6849 35.646 23.498 35.5169 24.2982C35.3878 25.0855 35.2265 25.8921 35.0329 26.7181H34.9942C34.9555 26.7181 34.9038 26.5697 34.8393 26.2728C34.7877 25.976 34.7232 25.6017 34.6457 25.15C34.5812 24.6983 34.5102 24.2078 34.4328 23.6787C34.3682 23.1366 34.3037 22.6268 34.2392 22.1493C34.1875 21.6588 34.1424 21.2329 34.1036 20.8715C34.0649 20.5101 34.0456 20.2843 34.0456 20.1939V19.6712C34.0585 19.5809 34.1036 19.5099 34.1811 19.4583C34.2585 19.3937 34.336 19.3292 34.4134 19.2647C34.5037 19.1872 34.5812 19.0969 34.6457 18.9936C34.7102 18.8775 34.7425 18.7162 34.7425 18.5097C34.7425 18.2128 34.6264 17.9999 34.394 17.8708C34.1746 17.7417 33.9101 17.6578 33.6003 17.6191C33.2905 17.5804 32.9743 17.5675 32.6517 17.5804C32.3419 17.5804 32.0967 17.5675 31.916 17.5417H31.8773C31.6063 17.5417 31.3804 17.6385 31.1997 17.8321C31.019 18.0128 30.9287 18.2322 30.9287 18.4903C30.9287 18.6452 30.948 18.7742 30.9868 18.8775C31.0384 18.9678 31.1029 19.0517 31.1804 19.1292C31.2578 19.1937 31.3417 19.2647 31.432 19.3421C31.5224 19.4066 31.6127 19.4905 31.7031 19.5938V20.1552V20.7166C31.7031 20.7425 31.6902 20.8134 31.6643 20.9296C31.6385 21.0458 31.6127 21.1684 31.5869 21.2974C31.5611 21.4136 31.5353 21.5297 31.5095 21.6459C31.4837 21.7621 31.4707 21.833 31.4707 21.8589C31.4062 22.4009 31.3481 22.943 31.2965 23.4851C31.2449 24.0271 31.1739 24.5692 31.0836 25.1113C31.0706 25.2274 31.0448 25.3759 31.0061 25.5565C30.9803 25.7243 30.948 25.8921 30.9093 26.0599C30.8835 26.2148 30.8577 26.3503 30.8319 26.4664C30.8061 26.5826 30.7932 26.6407 30.7932 26.6407H30.7157C30.6125 25.8663 30.4834 25.0919 30.3285 24.3175C30.1737 23.5431 30.0252 22.7752 29.8833 22.0137C29.8187 21.6653 29.7348 21.3362 29.6316 21.0264C29.5412 20.7037 29.4961 20.3617 29.4961 20.0003V19.5938C29.5477 19.5034 29.6251 19.4389 29.7284 19.4002C29.8445 19.3615 29.9478 19.3163 30.0381 19.2647C30.1414 19.2001 30.2317 19.1227 30.3092 19.0324C30.3866 18.9291 30.4253 18.7742 30.4253 18.5677C30.4253 18.3483 30.3543 18.1741 30.2124 18.045C30.0704 17.9031 29.8962 17.7998 29.6897 17.7353C29.4961 17.6578 29.2831 17.6062 29.0508 17.5804C28.8314 17.5546 28.6378 17.5417 28.47 17.5417C28.2893 17.5417 28.1151 17.5546 27.9473 17.5804C27.7795 17.5933 27.6246 17.6385 27.4827 17.7159C27.3536 17.7804 27.2504 17.8772 27.1729 18.0063C27.0955 18.1354 27.0568 18.3096 27.0568 18.529ZM39.1849 26.8536C39.1849 27.486 39.2817 28.0926 39.4753 28.6734C39.6689 29.2413 39.9464 29.7447 40.3078 30.1835C40.6692 30.6223 41.1144 30.9708 41.6436 31.2289C42.1728 31.487 42.7665 31.6161 43.4247 31.6161C44.0958 31.6161 44.7476 31.4935 45.38 31.2483C46.0124 31.003 46.5222 30.5965 46.9094 30.0286C47.0643 29.7963 47.2063 29.564 47.3353 29.3317C47.4644 29.0864 47.5289 28.8154 47.5289 28.5186C47.5289 28.3379 47.4644 28.1894 47.3353 28.0733C47.2192 27.9571 47.0643 27.8991 46.8707 27.8991C46.6642 27.8991 46.4899 27.9507 46.348 28.0539C46.206 28.1572 46.0705 28.2862 45.9414 28.4411C45.8253 28.596 45.7091 28.7573 45.593 28.9251C45.4897 29.0929 45.3735 29.2349 45.2445 29.351C45.0767 29.493 44.8766 29.5962 44.6443 29.6608C44.412 29.7124 44.2055 29.8092 44.0248 29.9512C43.9861 29.9512 43.8958 29.9576 43.7538 29.9705C43.6247 29.9705 43.5408 29.9705 43.5021 29.9705C43.1149 29.9705 42.76 29.8995 42.4373 29.7576C42.1147 29.6027 41.8307 29.4026 41.5855 29.1574C41.3532 28.8993 41.1661 28.6024 41.0241 28.2669C40.895 27.9313 40.8305 27.5764 40.8305 27.2021C40.8305 27.1763 40.8305 27.1247 40.8305 27.0472C40.8434 26.9698 40.8499 26.9246 40.8499 26.9117L40.9273 26.8536C40.9273 26.8536 40.9983 26.8472 41.1403 26.8343C41.2822 26.8214 41.45 26.8149 41.6436 26.8149C41.8372 26.802 42.0308 26.7956 42.2244 26.7956C42.4309 26.7826 42.6051 26.7762 42.7471 26.7762C42.8891 26.7762 43.1407 26.7762 43.5021 26.7762C43.8764 26.7633 44.2636 26.7568 44.6637 26.7568C45.0767 26.7568 45.4639 26.7633 45.8253 26.7762C46.1996 26.7762 46.4577 26.7762 46.5997 26.7762C46.8062 26.7375 47.0062 26.6858 47.1998 26.6213C47.3934 26.5568 47.5483 26.4277 47.6644 26.2341C47.6644 26.2083 47.6644 26.1567 47.6644 26.0792C47.6773 25.9889 47.6838 25.9308 47.6838 25.905C47.6838 25.7889 47.658 25.6146 47.6063 25.3823C47.5547 25.1371 47.4902 24.8919 47.4128 24.6466C47.3482 24.3885 47.2708 24.1562 47.1804 23.9497C47.103 23.7303 47.0385 23.5819 46.9868 23.5044C46.4964 22.8849 45.9672 22.3816 45.3994 21.9944C44.8315 21.5943 44.1345 21.3942 43.3085 21.3942C43.1666 21.3942 43.0181 21.3942 42.8633 21.3942C42.7213 21.3813 42.5793 21.4071 42.4373 21.4717C42.3986 21.4846 42.3276 21.5168 42.2244 21.5685C42.134 21.6072 42.0308 21.6588 41.9146 21.7233C41.7985 21.775 41.6888 21.8266 41.5855 21.8782C41.4823 21.9298 41.4113 21.9686 41.3726 21.9944C40.9467 22.2267 40.5917 22.53 40.3078 22.9043C40.0368 23.2657 39.8173 23.6658 39.6496 24.1046C39.4818 24.5305 39.3592 24.9822 39.2817 25.4597C39.2172 25.9373 39.1849 26.4019 39.1849 26.8536ZM41.0047 25.0726C41.0047 24.7499 41.0822 24.4724 41.237 24.2401C41.3919 23.9949 41.5855 23.7948 41.8178 23.6399C42.0502 23.4851 42.3083 23.3754 42.5922 23.3108C42.8762 23.2334 43.1536 23.1947 43.4247 23.1947C43.6699 23.1947 43.928 23.2269 44.1991 23.2915C44.483 23.3431 44.7411 23.4334 44.9734 23.5625C45.2058 23.6787 45.3994 23.8464 45.5542 24.0659C45.7091 24.2724 45.7865 24.5305 45.7865 24.8402C45.7865 24.866 45.7865 24.9112 45.7865 24.9758C45.7865 25.0403 45.7801 25.0855 45.7672 25.1113C45.7414 25.1371 45.7027 25.1693 45.651 25.2081C45.6123 25.2339 45.58 25.2468 45.5542 25.2468H41.0822C41.0305 25.2468 41.0047 25.2274 41.0047 25.1887C41.0047 25.1371 41.0047 25.0984 41.0047 25.0726ZM48.4574 30.7062C48.4574 30.9256 48.5542 31.1127 48.7478 31.2676C48.9543 31.4096 49.1673 31.4806 49.3867 31.4806H56.8788C57.1499 31.4806 57.3435 31.3902 57.4596 31.2095C57.5887 31.0288 57.6532 30.8223 57.6532 30.59C57.6532 30.4868 57.6339 30.3771 57.5951 30.2609C57.5693 30.1319 57.5242 30.0157 57.4596 29.9124C57.3951 29.8092 57.3112 29.7253 57.2079 29.6608C57.1176 29.5833 57.0079 29.5446 56.8788 29.5446H54.304L54.1104 29.3704V19.0711C54.1104 18.8517 54.0523 18.671 53.9362 18.529C53.8329 18.3741 53.6974 18.258 53.5296 18.1805C53.3618 18.0902 53.1812 18.0257 52.9876 17.9869C52.794 17.9482 52.6133 17.9289 52.4455 17.9289C52.2648 17.9289 52.0906 17.9418 51.9228 17.9676C51.755 17.9934 51.5808 18.0063 51.4001 18.0063C51.1678 18.0063 50.9354 17.9805 50.7031 17.9289C50.4837 17.8772 50.2579 17.8514 50.0255 17.8514C49.7029 17.8514 49.3996 17.9224 49.1156 18.0644C48.8446 18.1934 48.7091 18.4387 48.7091 18.8C48.7091 18.9678 48.7284 19.0969 48.7672 19.1872C48.8059 19.2647 48.8575 19.3292 48.922 19.3808C48.9995 19.4325 49.0898 19.4712 49.1931 19.497C49.2963 19.5228 49.4125 19.5551 49.5416 19.5938C49.7222 19.6583 49.8707 19.7164 49.9868 19.768C50.1159 19.8067 50.2901 19.8261 50.5095 19.8261H50.8193C50.858 19.8261 50.929 19.8197 51.0322 19.8067C51.1355 19.7809 51.2452 19.7551 51.3614 19.7293C51.4775 19.7035 51.5808 19.6777 51.6711 19.6519C51.7744 19.6261 51.8453 19.6067 51.8841 19.5938C51.9228 19.6067 52.0196 19.6583 52.1745 19.7487C52.3293 19.8261 52.4068 19.9035 52.4068 19.981V23.2334L52.2906 23.6012V29.4285L52.1938 29.5446H49.2318C49.0898 29.5446 48.9672 29.5898 48.864 29.6801C48.7736 29.7576 48.6962 29.8544 48.6317 29.9705C48.5671 30.0867 48.5219 30.2157 48.4961 30.3577C48.4703 30.4868 48.4574 30.6029 48.4574 30.7062ZM58.4299 26.5826C58.4299 27.1763 58.5396 27.77 58.759 28.3637C58.9913 28.9574 59.3075 29.493 59.7076 29.9705C60.1077 30.4352 60.5788 30.8159 61.1208 31.1127C61.6629 31.4096 62.2502 31.558 62.8826 31.558C63.3085 31.558 63.7408 31.4677 64.1797 31.287C64.6185 31.1063 65.0121 30.8675 65.3606 30.5707C65.722 30.2609 66.0124 29.906 66.2318 29.5059C66.4641 29.1058 66.5802 28.6799 66.5802 28.2282C66.5802 28.0088 66.5286 27.8152 66.4254 27.6474C66.3221 27.4667 66.1543 27.3763 65.922 27.3763C65.7671 27.3763 65.6316 27.4344 65.5155 27.5506C65.3993 27.6538 65.2896 27.7893 65.1864 27.9571C65.0831 28.112 64.9799 28.2862 64.8766 28.4798C64.7863 28.6734 64.6766 28.8541 64.5475 29.0219C64.4313 29.1768 64.2958 29.3123 64.1409 29.4285C63.9861 29.5317 63.8054 29.5833 63.5989 29.5833H61.934C61.9081 29.5833 61.8501 29.5575 61.7597 29.5059C61.6694 29.4414 61.6048 29.3897 61.5661 29.351C61.5274 29.3123 61.4564 29.2478 61.3532 29.1574C61.2628 29.0671 61.166 28.9703 61.0628 28.867C60.9595 28.7638 60.8627 28.667 60.7724 28.5766C60.682 28.4734 60.6175 28.4024 60.5788 28.3637C60.3981 28.0926 60.2755 27.7635 60.2109 27.3763C60.1464 26.9762 60.1141 26.6149 60.1141 26.2922C60.1141 25.9308 60.14 25.5824 60.1916 25.2468C60.2432 24.9112 60.3336 24.6015 60.4626 24.3175C60.5917 24.0336 60.7659 23.7819 60.9853 23.5625C61.2176 23.3302 61.508 23.1366 61.8565 22.9817C61.921 22.9559 62.0049 22.9301 62.1082 22.9043C62.2243 22.8656 62.2953 22.8462 62.3211 22.8462H63.5989C63.6634 22.8462 63.7408 22.8914 63.8312 22.9817C63.9215 23.0721 63.9732 23.1237 63.9861 23.1366V23.4463C63.9861 23.627 63.9603 23.7884 63.9086 23.9303C63.857 24.0594 63.8312 24.2078 63.8312 24.3756C63.8312 24.7628 63.9667 25.0984 64.2377 25.3823C64.5088 25.6662 64.8443 25.8082 65.2444 25.8082C65.4638 25.8082 65.651 25.763 65.8059 25.6727C65.9736 25.5694 66.1092 25.4404 66.2124 25.2855C66.3286 25.1306 66.4125 24.9564 66.4641 24.7628C66.5286 24.5563 66.5609 24.3562 66.5609 24.1627C66.5609 23.8658 66.5028 23.5883 66.3867 23.3302C66.2705 23.0592 66.1156 22.8139 65.922 22.5945C65.7413 22.3622 65.5348 22.1493 65.3025 21.9557C65.0831 21.7621 64.8702 21.5749 64.6637 21.3942C64.612 21.3813 64.5152 21.3555 64.3733 21.3168C64.2313 21.2652 64.0764 21.22 63.9086 21.1813C63.7538 21.1426 63.5989 21.1103 63.444 21.0845C63.302 21.0458 63.2052 21.0264 63.1536 21.0264C63.1407 21.0135 63.0762 21.007 62.96 21.007C62.8568 21.007 62.7729 21.007 62.7083 21.007C61.9856 21.007 61.3532 21.1813 60.8111 21.5297C60.2819 21.8653 59.8367 22.3041 59.4753 22.8462C59.1268 23.3754 58.8622 23.9755 58.6815 24.6466C58.5138 25.3049 58.4299 25.9502 58.4299 26.5826ZM67.3819 26.7181C67.3819 27.0021 67.4206 27.3441 67.498 27.7442C67.5884 28.1443 67.711 28.5444 67.8658 28.9445C68.0207 29.3446 68.2014 29.7189 68.4079 30.0673C68.6273 30.4158 68.8661 30.6739 69.1242 30.8417C69.1371 30.8546 69.1887 30.8869 69.2791 30.9385C69.3823 30.9772 69.4856 31.0288 69.5888 31.0934C69.705 31.145 69.8147 31.2031 69.918 31.2676C70.0341 31.3192 70.1245 31.358 70.189 31.3838C70.2664 31.4096 70.3955 31.4354 70.5762 31.4612C70.7569 31.487 70.8795 31.5064 70.944 31.5193C71.086 31.558 71.1957 31.5967 71.2731 31.6354C71.3506 31.6871 71.4216 31.7322 71.4861 31.771C71.5635 31.8097 71.6539 31.842 71.7571 31.8678C71.8604 31.8936 72.0088 31.9065 72.2024 31.9065C72.5896 31.9065 72.9768 31.8032 73.364 31.5967C73.7641 31.3902 74.1319 31.1321 74.4675 30.8223C74.803 30.4997 75.0934 30.1448 75.3386 29.7576C75.5968 29.3704 75.7775 29.0025 75.8807 28.6541C75.8936 28.5766 75.9259 28.4347 75.9775 28.2282C76.0291 28.0217 76.0808 27.8087 76.1324 27.5893C76.1969 27.357 76.2485 27.144 76.2873 26.9504C76.3389 26.7439 76.3776 26.602 76.4034 26.5245C76.4034 26.4987 76.4034 26.4342 76.4034 26.3309C76.4163 26.2148 76.4228 26.1373 76.4228 26.0986C76.4228 25.763 76.3776 25.4404 76.2873 25.1306C76.2098 24.808 76.1001 24.4982 75.9581 24.2014C75.8291 23.8916 75.6807 23.5948 75.5129 23.3108C75.358 23.014 75.2031 22.7171 75.0482 22.4203C75.0353 22.4203 75.0224 22.4138 75.0095 22.4009C74.9966 22.3751 74.9837 22.3558 74.9708 22.3429C74.5191 21.9557 74.0674 21.6459 73.6156 21.4136C73.1639 21.1684 72.6283 21.0458 72.0088 21.0458C71.1957 21.0458 70.4923 21.2071 69.8986 21.5297C69.3178 21.8395 68.8403 22.259 68.466 22.7881C68.0917 23.3173 67.8142 23.9239 67.6335 24.6079C67.4657 25.292 67.3819 25.9954 67.3819 26.7181ZM69.0468 26.7375C69.0468 26.3761 69.0597 26.0341 69.0855 25.7114C69.1242 25.3888 69.1952 25.0855 69.2985 24.8015C69.4146 24.5047 69.563 24.2272 69.7437 23.9691C69.9373 23.7109 70.189 23.4722 70.4987 23.2528C70.5762 23.2011 70.6923 23.1301 70.8472 23.0398C71.0021 22.9365 71.086 22.8849 71.0989 22.8849H72.3185C72.4476 22.9624 72.6025 23.0333 72.7832 23.0979C72.9768 23.1624 73.1575 23.2398 73.3252 23.3302C73.5059 23.4076 73.6673 23.5044 73.8092 23.6206C73.9641 23.7238 74.0738 23.8594 74.1383 24.0271C74.2803 24.4014 74.39 24.7628 74.4675 25.1113C74.5578 25.4468 74.603 25.8147 74.603 26.2148C74.603 26.8988 74.5126 27.5054 74.3319 28.0346C74.1513 28.5508 73.7834 29.0348 73.2284 29.4865C72.9961 29.5769 72.7832 29.6285 72.5896 29.6414C72.4089 29.6414 72.1895 29.6414 71.9314 29.6414C71.841 29.6414 71.7055 29.6414 71.5248 29.6414C71.357 29.6414 71.2667 29.635 71.2538 29.6221C71.1892 29.6221 71.1118 29.6156 71.0215 29.6027C70.9311 29.5898 70.8408 29.5769 70.7504 29.564C70.673 29.5511 70.5955 29.5382 70.5181 29.5253C70.4536 29.4994 70.4213 29.4865 70.4213 29.4865L69.5114 28.5766C69.434 28.4992 69.363 28.383 69.2985 28.2282C69.2468 28.0604 69.2017 27.8861 69.1629 27.7055C69.1242 27.5248 69.092 27.3441 69.0661 27.1634C69.0532 26.9827 69.0468 26.8407 69.0468 26.7375ZM84.9464 31.3644C85.0626 31.3644 85.1723 31.4031 85.2756 31.4806C85.3917 31.5451 85.5079 31.5838 85.624 31.5967C85.9983 31.6613 86.3532 31.7387 86.6888 31.829C87.0244 31.9323 87.3793 31.9839 87.7536 31.9839C87.9988 31.9839 88.1988 31.8678 88.3537 31.6354C88.5086 31.4031 88.586 31.1773 88.586 30.9579C88.586 30.803 88.5538 30.6868 88.4892 30.6094C88.4376 30.519 88.3666 30.4416 88.2763 30.3771C88.1988 30.2996 88.115 30.2287 88.0246 30.1641C87.9472 30.0867 87.8826 29.9834 87.831 29.8544V28.9832C87.831 28.8412 87.8246 28.6476 87.8117 28.4024C87.8117 28.1443 87.8439 27.9249 87.9085 27.7442V23.427C87.9085 23.4012 87.8955 23.3495 87.8697 23.2721C87.8568 23.1947 87.8439 23.143 87.831 23.1172C87.7407 22.9107 87.6439 22.7171 87.5406 22.5364C87.4374 22.3429 87.3148 22.1751 87.1728 22.0331C87.0308 21.8782 86.863 21.7556 86.6694 21.6653C86.4888 21.5749 86.2822 21.5297 86.0499 21.5297C85.7273 21.5297 85.4691 21.5685 85.2756 21.6459C85.0949 21.7233 84.9335 21.8201 84.7916 21.9363C84.6496 22.0525 84.5076 22.188 84.3656 22.3429C84.2366 22.4977 84.0753 22.6526 83.8817 22.8075C83.7139 22.6784 83.5655 22.5364 83.4364 22.3816C83.3073 22.2267 83.1718 22.0847 83.0298 21.9557C82.9008 21.8137 82.7459 21.6975 82.5652 21.6072C82.3845 21.5039 82.1587 21.4523 81.8876 21.4523C81.7457 21.4523 81.5908 21.491 81.423 21.5685C81.2552 21.6459 81.0939 21.7363 80.939 21.8395C80.7841 21.9428 80.6422 22.0589 80.5131 22.188C80.384 22.317 80.2743 22.4267 80.184 22.5171H80.1453H80.1065C80.0678 22.5042 80.0162 22.4655 79.9517 22.4009C79.9 22.3235 79.842 22.2525 79.7774 22.188C79.7129 22.1105 79.6548 22.0396 79.6032 21.975C79.5516 21.9105 79.5128 21.8653 79.487 21.8395C79.3838 21.7363 79.2483 21.6846 79.0805 21.6846C78.9127 21.6717 78.7578 21.6653 78.6159 21.6653C78.2803 21.6653 77.9899 21.7233 77.7447 21.8395C77.4995 21.9557 77.3768 22.2073 77.3768 22.5945C77.3768 22.8397 77.4349 23.0204 77.5511 23.1366C77.6672 23.2528 77.7963 23.3366 77.9383 23.3883C78.0931 23.4399 78.2287 23.4786 78.3448 23.5044C78.461 23.5302 78.5191 23.5754 78.5191 23.6399V28.7315L78.3642 29.7769C78.3513 29.8673 78.2803 29.9318 78.1512 29.9705C78.0351 29.9963 77.906 30.0351 77.764 30.0867C77.635 30.1383 77.5124 30.2157 77.3962 30.319C77.28 30.4222 77.222 30.59 77.222 30.8223C77.222 30.9643 77.2607 31.1063 77.3381 31.2483C77.4285 31.3773 77.5317 31.4935 77.6479 31.5967C77.7769 31.6871 77.9189 31.7581 78.0738 31.8097C78.2287 31.8742 78.3771 31.9065 78.5191 31.9065H80.1065C80.2098 31.9065 80.313 31.8807 80.4163 31.829C80.5325 31.7774 80.6357 31.7129 80.726 31.6354C80.8293 31.5709 80.9196 31.4999 80.9971 31.4225C81.0874 31.3451 81.1649 31.2805 81.2294 31.2289H81.2681C81.3326 31.2289 81.4359 31.2676 81.5779 31.3451C81.7198 31.4096 81.8747 31.487 82.0425 31.5774C82.2103 31.6548 82.3716 31.7258 82.5265 31.7903C82.6814 31.8678 82.8104 31.9065 82.9137 31.9065H84.0365C84.1398 31.9065 84.2237 31.8742 84.2882 31.8097C84.3657 31.7581 84.4366 31.7 84.5012 31.6354C84.5657 31.5709 84.6302 31.5128 84.6948 31.4612C84.7722 31.3967 84.8561 31.3644 84.9464 31.3644ZM81.7715 23.3495C81.7973 23.3495 81.836 23.3495 81.8876 23.3495C81.9392 23.3366 81.978 23.3302 82.0038 23.3302C82.0683 23.3302 82.1587 23.3431 82.2748 23.3689C82.391 23.3818 82.4491 23.4528 82.4491 23.5819V29.564C82.4491 29.6285 82.391 29.7124 82.2748 29.8156C82.1716 29.9189 82.049 30.0286 81.907 30.1448C81.765 30.2609 81.623 30.3706 81.4811 30.4739C81.352 30.5642 81.2681 30.6352 81.2294 30.6868H81.1713C81.1455 30.6481 81.0681 30.5707 80.939 30.4545C80.8228 30.3384 80.7454 30.2674 80.7067 30.2416C80.6809 30.2287 80.6034 30.2028 80.4744 30.1641C80.3582 30.1254 80.2872 30.0996 80.2614 30.0867C80.2356 30.0738 80.2033 30.048 80.1646 30.0092C80.1259 29.9705 80.1065 29.9447 80.1065 29.9318V26.2922C80.1065 26.0341 80.1517 25.763 80.2421 25.4791C80.3324 25.1823 80.455 24.8983 80.6099 24.6273C80.7648 24.3562 80.939 24.111 81.1326 23.8916C81.3391 23.6593 81.5521 23.4786 81.7715 23.3495ZM83.8817 28.6928C83.8817 28.0862 83.9075 27.4796 83.9591 26.873C84.0107 26.2664 84.1398 25.6727 84.3463 25.0919C84.3463 25.079 84.3657 25.0403 84.4044 24.9758C84.456 24.9112 84.4883 24.8725 84.5012 24.8596C84.527 24.8209 84.5657 24.7499 84.6173 24.6466C84.6819 24.5305 84.7464 24.4143 84.8109 24.2982C84.8755 24.1691 84.9335 24.0529 84.9852 23.9497C85.0368 23.8335 85.0755 23.7561 85.1013 23.7174C85.2046 23.6141 85.3078 23.5238 85.4111 23.4463C85.5143 23.3689 85.6369 23.3302 85.7789 23.3302C85.8434 23.3302 85.9338 23.3431 86.0499 23.3689C86.179 23.3818 86.2435 23.4528 86.2435 23.5819V29.7189C86.2435 29.835 86.2048 29.9254 86.1274 29.9899C86.0628 30.0415 85.9789 30.0867 85.8757 30.1254C85.7724 30.1512 85.6692 30.177 85.5659 30.2028C85.4627 30.2157 85.3853 30.2287 85.3336 30.2416L85.0239 30.3964H84.9464H84.869C84.6367 30.319 84.4495 30.2351 84.3076 30.1448C84.1785 30.0415 84.0817 29.9254 84.0172 29.7963C83.9526 29.6543 83.9139 29.4994 83.901 29.3317C83.8881 29.151 83.8817 28.938 83.8817 28.6928ZM89.4064 26.8536C89.4064 27.486 89.5032 28.0926 89.6968 28.6734C89.8904 29.2413 90.1679 29.7447 90.5293 30.1835C90.8906 30.6223 91.3359 30.9708 91.8651 31.2289C92.3942 31.487 92.9879 31.6161 93.6461 31.6161C94.3173 31.6161 94.969 31.4935 95.6015 31.2483C96.2339 31.003 96.7437 30.5965 97.1309 30.0286C97.2857 29.7963 97.4277 29.564 97.5568 29.3317C97.6858 29.0864 97.7504 28.8154 97.7504 28.5186C97.7504 28.3379 97.6858 28.1894 97.5568 28.0733C97.4406 27.9571 97.2857 27.8991 97.0921 27.8991C96.8856 27.8991 96.7114 27.9507 96.5694 28.0539C96.4275 28.1572 96.292 28.2862 96.1629 28.4411C96.0467 28.596 95.9306 28.7573 95.8144 28.9251C95.7112 29.0929 95.595 29.2349 95.4659 29.351C95.2982 29.493 95.0981 29.5962 94.8658 29.6608C94.6335 29.7124 94.427 29.8092 94.2463 29.9512C94.2076 29.9512 94.1172 29.9576 93.9753 29.9705C93.8462 29.9705 93.7623 29.9705 93.7236 29.9705C93.3364 29.9705 92.9815 29.8995 92.6588 29.7576C92.3361 29.6027 92.0522 29.4026 91.807 29.1574C91.5747 28.8993 91.3875 28.6024 91.2456 28.2669C91.1165 27.9313 91.052 27.5764 91.052 27.2021C91.052 27.1763 91.052 27.1247 91.052 27.0472C91.0649 26.9698 91.0713 26.9246 91.0713 26.9117L91.1488 26.8536C91.1488 26.8536 91.2197 26.8472 91.3617 26.8343C91.5037 26.8214 91.6715 26.8149 91.8651 26.8149C92.0587 26.802 92.2523 26.7956 92.4458 26.7956C92.6524 26.7826 92.8266 26.7762 92.9686 26.7762C93.1105 26.7762 93.3622 26.7762 93.7236 26.7762C94.0979 26.7633 94.4851 26.7568 94.8852 26.7568C95.2982 26.7568 95.6854 26.7633 96.0467 26.7762C96.421 26.7762 96.6791 26.7762 96.8211 26.7762C97.0276 26.7375 97.2277 26.6858 97.4213 26.6213C97.6149 26.5568 97.7697 26.4277 97.8859 26.2341C97.8859 26.2083 97.8859 26.1567 97.8859 26.0792C97.8988 25.9889 97.9052 25.9308 97.9052 25.905C97.9052 25.7889 97.8794 25.6146 97.8278 25.3823C97.7762 25.1371 97.7117 24.8919 97.6342 24.6466C97.5697 24.3885 97.4922 24.1562 97.4019 23.9497C97.3245 23.7303 97.2599 23.5819 97.2083 23.5044C96.7179 22.8849 96.1887 22.3816 95.6208 21.9944C95.0529 21.5943 94.356 21.3942 93.53 21.3942C93.388 21.3942 93.2396 21.3942 93.0847 21.3942C92.9427 21.3813 92.8008 21.4071 92.6588 21.4717C92.6201 21.4846 92.5491 21.5168 92.4458 21.5685C92.3555 21.6072 92.2523 21.6588 92.1361 21.7233C92.0199 21.775 91.9102 21.8266 91.807 21.8782C91.7037 21.9298 91.6327 21.9686 91.594 21.9944C91.1681 22.2267 90.8132 22.53 90.5293 22.9043C90.2582 23.2657 90.0388 23.6658 89.871 24.1046C89.7032 24.5305 89.5806 24.9822 89.5032 25.4597C89.4387 25.9373 89.4064 26.4019 89.4064 26.8536ZM91.2262 25.0726C91.2262 24.7499 91.3036 24.4724 91.4585 24.2401C91.6134 23.9949 91.807 23.7948 92.0393 23.6399C92.2716 23.4851 92.5297 23.3754 92.8137 23.3108C93.0976 23.2334 93.3751 23.1947 93.6461 23.1947C93.8914 23.1947 94.1495 23.2269 94.4205 23.2915C94.7045 23.3431 94.9626 23.4334 95.1949 23.5625C95.4272 23.6787 95.6208 23.8464 95.7757 24.0659C95.9306 24.2724 96.008 24.5305 96.008 24.8402C96.008 24.866 96.008 24.9112 96.008 24.9758C96.008 25.0403 96.0016 25.0855 95.9887 25.1113C95.9628 25.1371 95.9241 25.1693 95.8725 25.2081C95.8338 25.2339 95.8015 25.2468 95.7757 25.2468H91.3036C91.252 25.2468 91.2262 25.2274 91.2262 25.1887C91.2262 25.1371 91.2262 25.0984 91.2262 25.0726Z" fill="white"/>
<path d="M26.8825 34.036H98.1182V35.004H26.8825V34.036Z" fill="white"/>
<path d="M11.2936 65.1098C11.5162 64.9737 11.55 64.7724 11.6035 64.4685C11.9335 62.5957 11.8925 60.6494 12.1734 58.7655C12.6725 55.4177 14.3545 47.1443 18.9213 49.3115C20.8827 50.2423 22.615 52.2529 24.0097 53.9988C25.2653 55.5705 26.2273 57.2881 27.2187 59.0719C27.9259 60.3443 28.6509 61.5986 29.4631 62.7888C29.9324 63.4766 30.1593 63.8338 30.5477 62.8739C31.1554 61.3724 31.5965 59.8492 32.3622 58.425C32.63 57.9269 33.3132 56.4274 34.1166 56.9042C35.145 57.5146 36.0156 59.1 36.7808 60.0196C37.4999 60.8838 38.6726 62.5891 39.9648 62.1362C41.2099 61.6999 41.8183 60.0716 43.1139 59.6053C44.8496 58.9807 46.3502 60.189 47.6825 61.2737C48.9088 62.2721 50.1692 63.9707 51.8162 64.0373C52.3185 64.0576 52.8238 63.9167 53.3007 63.7365C54.9261 63.1223 56.3871 62.0236 58.0093 61.3985C61.3294 60.1193 64.6198 59.6822 68.0312 60.7857C68.8386 61.0468 69.6014 61.4678 70.3555 61.8866C70.8278 62.1488 71.2401 62.5336 71.7001 62.8229C71.9213 62.962 72.1429 63.1934 72.3949 63.169C72.5874 63.1504 72.6936 62.886 72.8147 62.7151C73.6084 61.595 73.445 61.2548 74.7442 60.4055C76.8308 59.0413 79.1651 59.3039 81.3721 60.0934C81.9693 60.307 82.5307 60.6347 83.0966 60.9389C83.1991 60.994 84.411 61.8937 84.8361 61.7731C85.0554 61.7108 85.2037 61.4696 85.3609 61.285C86.2108 60.287 86.205 59.8046 87.4603 59.14C89.3002 58.1659 91.2724 58.4209 93.1185 59.1627C93.9592 59.5006 94.72 60.3292 95.6577 59.9799C97.2451 59.3885 98.4525 58.6464 100.201 58.5499C102.393 58.4289 104.434 59.0288 106.284 60.3657C106.699 60.6655 107.065 61.0463 107.434 61.4156C107.795 61.7765 108.033 62.302 108.444 62.5845C108.816 62.8404 108.387 61.5977 108.384 61.1035C108.372 59.1286 109.767 58.866 111.143 59.5032C112.005 59.9022 112.834 59.7983 113.772 59.7983" stroke="white" stroke-width="0.781421" stroke-linecap="round"/>
<path d="M12.577 103.991C12.6165 103.677 12.7658 103.386 12.8669 103.094C13.2988 101.847 13.726 100.612 14.2665 99.4168C14.695 98.4694 15.2398 97.5827 15.5661 96.5795C15.8244 95.7852 16.0264 94.9959 16.4158 94.2642C16.9897 93.1859 17.9889 91.4926 19.105 91.0637C19.8883 90.7627 21.0593 92.7817 21.3643 93.3222C22.0104 94.4672 22.2588 96.0027 23.1737 96.954C23.6752 97.4754 24.5158 97.0298 24.9732 96.6703C26.1 95.7847 26.584 94.32 27.1625 92.9818C27.3952 92.4434 28.0214 90.1503 28.842 91.1772C30.0611 92.7029 30.5437 94.8832 31.7611 96.3979C32.8841 97.7951 34.4692 95.353 35.33 94.6955C36.7056 93.6448 38.2641 92.7585 39.5487 94.4572C40.0595 95.1325 40.753 96.6533 41.0982 97.4307C41.2647 97.8055 41.4064 98.1938 41.5681 98.5713C41.6431 98.7463 41.6622 98.9854 41.808 99.0877C41.8894 99.1448 41.8477 98.8727 41.843 98.7642C41.8276 98.4054 41.767 98.0504 41.748 97.6917C41.702 96.8189 41.5951 95.1698 41.948 94.3323C43.1653 91.4437 47.3218 93.728 48.9758 94.5139C51.1628 95.5531 51.1137 95.7262 53.1245 96.7838C53.5592 97.0124 54.5056 97.5892 55.1139 97.3853C55.5215 97.2487 56.0659 96.3653 56.2936 96.0915C56.7495 95.5431 57.2676 94.8751 57.9931 94.7749C60.0396 94.4925 61.7557 96.9332 63.1015 98.2705C63.4804 98.6471 64.0825 99.3062 64.661 99.3828C65.1632 99.4493 65.8362 99.0157 66.2405 98.8153C68.4178 97.7361 70.4259 97.4347 72.7885 97.9641C74.1183 98.2621 74.2367 98.4633 75.3877 98.9175C75.912 99.1243 76.1944 99.258 76.7473 99.099C77.3289 98.9319 78.3565 98.2896 78.8367 98.0436C80.0571 97.418 81.0269 96.9306 82.3756 96.6703C84.9528 96.1728 87.2132 96.7831 89.6933 97.3853C90.4272 97.5635 90.364 97.4812 91.0629 97.1583C92.2321 96.6182 92.6754 96.2752 94.062 96.1596C96.8919 95.9236 99.3342 97.0791 101.6 98.8721C101.726 98.9718 102.392 99.6565 102.729 99.6098C102.988 99.574 103.543 98.8117 103.619 98.7245C104.649 97.55 105.721 96.7024 107.218 96.5568C108.432 96.4386 109.729 96.8436 110.917 97.0448" stroke="white" stroke-width="0.781421" stroke-linecap="round"/>
<path d="M13.6037 135.29C13.7309 135.29 13.7123 135.229 13.7236 135.076C13.7823 134.276 13.9592 133.529 14.2458 132.792C14.9142 131.073 16.3204 129.849 18.004 129.682C20.2581 129.458 21.3739 132.807 22.8667 134.124C25.0354 136.036 26.7454 131.322 28.3971 130.644C30.4889 129.786 32.1868 136.759 33.508 135.465C34.3745 134.616 34.7986 133.487 36.1533 133.628C37.3419 133.752 38.1524 134.693 39.0812 135.397C40.0869 136.16 41.0919 135.386 42.069 134.921C43.8529 134.072 45.7791 133.16 47.762 133.56C48.266 133.662 48.6678 133.915 49.0548 134.27C49.2042 134.407 49.4765 134.795 49.6626 134.911C49.9098 135.065 50.1515 135.029 50.4074 134.911C51.6625 134.333 52.7109 133.386 54.0073 132.86C56.5439 131.831 59.1774 131.719 61.4768 133.482C62.4754 134.248 62.8096 135.394 64.1178 134.76C65.017 134.325 65.8344 133.692 66.7289 133.244C68.2927 132.461 69.353 132.029 71.0993 131.913C73.3383 131.764 75.6923 132.421 77.0834 134.537C77.5039 135.176 77.3432 135.543 77.7341 134.799C78.5204 133.303 79.7282 132.255 81.3254 132.224C83.3755 132.184 85.4612 133.397 86.95 134.921C87.4954 135.479 87.7092 136.324 88.3882 135.587C89.9832 133.855 91.549 132.715 93.8159 132.389C95.2956 132.176 97.2788 132.22 97.9808 133.997C98.0891 134.272 98.1162 135.062 98.3104 134.483C98.6828 133.374 99.6178 133.76 100.404 134.138C101.252 134.547 102.108 135.136 102.903 135.655C103.224 135.864 104.132 136.513 104.594 136.656C105.247 136.857 105.586 135.975 106.182 135.82C107.088 135.584 107.933 136.14 108.828 136.077C109.257 136.047 109.613 135.847 110.009 135.679C110.572 135.439 111.119 135.306 111.687 135.115" stroke="white" stroke-width="0.781421" stroke-linecap="round"/>
<rect x="48" y="156" width="29.2969" height="7.99884" fill="#F5BC4D" stroke="black" stroke-width="0.78"/>
<mask id="path-9-inside-2_156_651" fill="white">
<path fill-rule="evenodd" clip-rule="evenodd" d="M41.0716 185H85.6488C81.381 176.666 73.0005 171 63.3602 171C53.7199 171 45.3394 176.666 41.0716 185Z"/>
</mask>
<path fill-rule="evenodd" clip-rule="evenodd" d="M41.0716 185H85.6488C81.381 176.666 73.0005 171 63.3602 171C53.7199 171 45.3394 176.666 41.0716 185Z" fill="#F5BC4D"/>
<path d="M41.0716 185L40.373 184.642L39.788 185.785H41.0716V185ZM85.6488 185V185.785H86.9324L86.3474 184.642L85.6488 185ZM41.0716 185.785H85.6488V184.215H41.0716V185.785ZM63.3602 171.785C72.6801 171.785 80.8045 177.262 84.9503 185.358L86.3474 184.642C81.9575 176.07 73.3208 170.215 63.3602 170.215V171.785ZM41.7701 185.358C45.9159 177.262 54.0403 171.785 63.3602 171.785V170.215C53.3996 170.215 44.7629 176.07 40.373 184.642L41.7701 185.358Z" fill="black" mask="url(#path-9-inside-2_156_651)"/>
</svg>
