<svg width="638" height="142" viewBox="0 0 638 142" fill="none" xmlns="http://www.w3.org/2000/svg">
<rect x="1.73274" y="1.73274" width="633.843" height="137.696" fill="#EAD89A" stroke="black" stroke-width="3.46549"/>
<path d="M226.054 94.4104C226.054 95.1725 226.188 95.7553 226.457 96.1588C226.726 96.5623 227.085 96.8761 227.533 97.1003C228.026 97.2796 228.564 97.3917 229.147 97.4365C229.73 97.4365 230.335 97.4365 230.963 97.4365C231.501 97.4365 232.129 97.4365 232.846 97.4365C233.563 97.4814 234.213 97.3917 234.796 97.1675H257.19C257.683 97.3469 258.131 97.4365 258.534 97.4365C258.983 97.4365 259.454 97.4365 259.947 97.4365C261.561 97.4365 262.861 96.9882 263.847 96.0916C264.833 95.1949 265.327 93.9172 265.327 92.2584C265.327 91.7653 265.304 91.3618 265.259 91.048C265.259 90.6893 265.147 90.2634 264.923 89.7703V80.5573C264.923 79.7055 264.632 78.8537 264.049 78.0019C263.466 77.1053 262.704 76.657 261.762 76.657C261 76.657 260.35 76.9484 259.812 77.5312C259.274 78.114 259.005 78.7865 259.005 79.5486V86.1389C259.005 86.2734 258.938 86.4975 258.803 86.8114C258.669 87.0804 258.557 87.2821 258.467 87.4166C257.884 88.4926 257.279 89.2099 256.652 89.5685C256.024 89.8824 255.329 90.0617 254.567 90.1065C253.85 90.1513 253.043 90.1738 252.146 90.1738C251.294 90.1289 250.33 90.2634 249.254 90.5772H242.462L241.924 90.0393V75.312C241.924 75.312 241.947 75.2447 241.992 75.1103C242.036 74.9758 242.104 74.8637 242.193 74.774C242.193 74.5947 242.283 74.505 242.462 74.505H245.354C245.623 74.505 245.937 74.6843 246.295 75.043C246.699 75.3568 247.08 75.7379 247.439 76.1862C247.842 76.5897 248.178 77.0156 248.447 77.4639C248.716 77.9122 248.896 78.2485 248.985 78.4726C248.985 79.0106 248.985 79.7055 248.985 80.5573C248.985 81.4091 249.075 82.2385 249.254 83.0455C249.434 83.8076 249.747 84.4801 250.196 85.0629C250.644 85.6009 251.317 85.8699 252.213 85.8699C253.603 85.8699 254.298 85.1526 254.298 83.718V61.6607C254.298 60.8985 254.074 60.2709 253.625 59.7778C253.177 59.2398 252.594 58.9708 251.877 58.9708C250.98 58.9708 250.375 59.2622 250.061 59.845C249.747 60.4278 249.546 61.1227 249.456 61.9297C249.366 62.7367 249.299 63.566 249.254 64.4179C249.209 65.2248 249.03 65.8749 248.716 66.368C248.358 66.9509 247.865 67.3543 247.237 67.5785C246.654 67.8027 246.116 68.0941 245.623 68.4527H242.193L241.924 68.1837C241.924 68.1837 241.902 68.0716 241.857 67.8475C241.812 67.6233 241.745 67.3768 241.655 67.1078C241.61 66.7939 241.566 66.4801 241.521 66.1663C241.476 65.8076 241.431 65.5162 241.386 65.2921V65.2248V65.0903C241.386 65.0007 241.431 64.7317 241.521 64.2834C241.61 63.835 241.655 63.566 241.655 63.4764C241.655 63.2074 241.655 62.7142 241.655 61.9969C241.7 61.2796 241.745 60.5175 241.79 59.7105C241.835 58.9035 241.857 58.1414 241.857 57.4241C241.902 56.6619 241.924 56.1464 241.924 55.8774L242.193 55.6084H255.038C255.396 55.6084 255.822 55.855 256.315 56.3481C256.853 56.7964 257.234 57.1551 257.459 57.4241C257.638 57.6931 257.862 58.0966 258.131 58.6345C258.445 59.1725 258.602 59.4639 258.602 59.5088V66.637C258.602 67.3543 258.893 67.9372 259.476 68.3855C260.104 68.8338 260.731 69.0579 261.359 69.0579C262.121 69.0579 262.794 68.8114 263.376 68.3182C263.959 67.8251 264.251 67.175 264.251 66.368V52.1787C264.251 51.5063 264.026 50.789 263.578 50.0268C263.13 49.2647 262.569 48.8388 261.897 48.7491C256.427 48.7939 250.98 48.7715 245.556 48.6819C240.131 48.5474 234.684 48.4801 229.214 48.4801C228.049 48.4801 227.152 48.8612 226.525 49.6233C225.897 50.3406 225.583 51.2373 225.583 52.3132C225.583 53.6134 225.964 54.5324 226.726 55.0704C227.488 55.6084 228.475 55.8774 229.685 55.8774C230.447 55.8774 231.165 55.8325 231.837 55.7429C232.554 55.6084 233.294 55.5411 234.056 55.5411C234.236 55.5411 234.482 55.5411 234.796 55.5411C235.11 55.5411 235.289 55.5636 235.334 55.6084L235.872 56.0791V57.7603C235.872 58.2983 235.872 58.9484 235.872 59.7105C235.917 60.4278 235.827 61.0779 235.603 61.6607L235.737 70.8736V72.1513L235.872 87.9546C235.872 88.2236 235.805 88.6046 235.67 89.0978C235.536 89.5461 235.334 89.8599 235.065 90.0393C234.841 90.0393 234.549 90.0841 234.191 90.1738C233.832 90.2186 233.451 90.2858 233.048 90.3755C232.644 90.4203 232.241 90.4652 231.837 90.51C231.478 90.5548 231.187 90.5772 230.963 90.5772H230.828C230.739 90.5772 230.47 90.5548 230.021 90.51C229.618 90.4203 229.371 90.3531 229.282 90.3083H228.878C228.295 90.3083 227.825 90.4428 227.466 90.7117C227.107 90.9359 226.816 91.2497 226.592 91.6532C226.412 92.0567 226.278 92.505 226.188 92.9982C226.099 93.4913 226.054 93.9621 226.054 94.4104ZM295.002 96.5623C295.405 96.5623 295.786 96.6968 296.145 96.9658C296.548 97.1899 296.952 97.3244 297.355 97.3693C298.656 97.5934 299.888 97.8624 301.054 98.1762C302.22 98.5349 303.453 98.7142 304.753 98.7142C305.604 98.7142 306.299 98.3107 306.837 97.5038C307.375 96.6968 307.644 95.9122 307.644 95.1501C307.644 94.6121 307.532 94.2086 307.308 93.9396C307.129 93.6258 306.882 93.3568 306.568 93.1327C306.299 92.8637 306.008 92.6171 305.694 92.3929C305.425 92.1239 305.201 91.7653 305.022 91.317V88.2908C305.022 87.7977 304.999 87.1252 304.954 86.2734C304.954 85.3768 305.066 84.6146 305.291 83.987V68.9907C305.291 68.901 305.246 68.7217 305.156 68.4527C305.111 68.1837 305.066 68.0044 305.022 67.9147C304.708 67.1974 304.372 66.5249 304.013 65.8973C303.654 65.2248 303.228 64.642 302.735 64.1489C302.242 63.6109 301.659 63.185 300.987 62.8712C300.359 62.5573 299.642 62.4004 298.835 62.4004C297.714 62.4004 296.817 62.5349 296.145 62.8039C295.517 63.0729 294.957 63.4091 294.464 63.8126C293.971 64.2161 293.477 64.6868 292.984 65.2248C292.536 65.7628 291.976 66.3008 291.303 66.8388C290.72 66.3905 290.205 65.8973 289.756 65.3593C289.308 64.8213 288.837 64.3282 288.344 63.8799C287.896 63.3867 287.358 62.9832 286.73 62.6694C286.103 62.3108 285.318 62.1314 284.377 62.1314C283.883 62.1314 283.345 62.2659 282.763 62.5349C282.18 62.8039 281.619 63.1177 281.081 63.4764C280.543 63.835 280.05 64.2385 279.602 64.6868C279.154 65.1352 278.773 65.5162 278.459 65.8301H278.324H278.19C278.055 65.7852 277.876 65.6507 277.652 65.4266C277.472 65.1576 277.271 64.911 277.047 64.6868C276.822 64.4179 276.621 64.1713 276.441 63.9471C276.262 63.723 276.127 63.566 276.038 63.4764C275.679 63.1177 275.208 62.9384 274.626 62.9384C274.043 62.8936 273.505 62.8712 273.012 62.8712C271.846 62.8712 270.837 63.0729 269.986 63.4764C269.134 63.8799 268.708 64.7541 268.708 66.099C268.708 66.9509 268.91 67.5785 269.313 67.982C269.717 68.3855 270.165 68.6769 270.658 68.8562C271.196 69.0355 271.667 69.17 272.07 69.2597C272.474 69.3494 272.675 69.5063 272.675 69.7304V87.4166L272.137 91.048C272.093 91.3618 271.846 91.586 271.398 91.7205C270.994 91.8101 270.546 91.9446 270.053 92.1239C269.604 92.3033 269.179 92.5723 268.775 92.9309C268.372 93.2896 268.17 93.8724 268.17 94.6794C268.17 95.1725 268.304 95.6657 268.573 96.1588C268.887 96.6071 269.246 97.0106 269.649 97.3693C270.098 97.6831 270.591 97.9297 271.129 98.109C271.667 98.3332 272.182 98.4452 272.675 98.4452H278.19C278.548 98.4452 278.907 98.3556 279.266 98.1762C279.669 97.9969 280.028 97.7728 280.342 97.5038C280.7 97.2796 281.014 97.033 281.283 96.764C281.597 96.4951 281.866 96.2709 282.09 96.0916H282.225C282.449 96.0916 282.807 96.2261 283.301 96.4951C283.794 96.7192 284.332 96.9882 284.915 97.302C285.497 97.571 286.058 97.8176 286.596 98.0418C287.134 98.3107 287.582 98.4452 287.941 98.4452H291.841C292.2 98.4452 292.491 98.3332 292.715 98.109C292.984 97.9297 293.231 97.7279 293.455 97.5038C293.679 97.2796 293.903 97.0779 294.127 96.8985C294.396 96.6744 294.688 96.5623 295.002 96.5623ZM283.973 68.7217C284.063 68.7217 284.197 68.7217 284.377 68.7217C284.556 68.6769 284.69 68.6545 284.78 68.6545C285.004 68.6545 285.318 68.6993 285.722 68.789C286.125 68.8338 286.327 69.0804 286.327 69.5287V90.3083C286.327 90.5324 286.125 90.8238 285.722 91.1825C285.363 91.5411 284.937 91.9222 284.444 92.3257C283.951 92.7292 283.458 93.1102 282.964 93.4689C282.516 93.7827 282.225 94.0293 282.09 94.2086H281.888C281.799 94.0741 281.53 93.8051 281.081 93.4017C280.678 92.9982 280.409 92.7516 280.274 92.6619C280.185 92.6171 279.916 92.5274 279.467 92.3929C279.064 92.2584 278.817 92.1688 278.728 92.1239C278.638 92.0791 278.526 91.9895 278.392 91.855C278.257 91.7205 278.19 91.6308 278.19 91.586V78.9434C278.19 78.0467 278.347 77.1053 278.66 76.119C278.974 75.0878 279.4 74.1015 279.938 73.1601C280.476 72.2186 281.081 71.3668 281.754 70.6046C282.471 69.7977 283.211 69.17 283.973 68.7217ZM291.303 87.2821C291.303 85.175 291.393 83.0679 291.572 80.9608C291.751 78.8537 292.2 76.7914 292.917 74.774C292.917 74.7292 292.984 74.5947 293.119 74.3705C293.298 74.1464 293.41 74.0119 293.455 73.967C293.545 73.8325 293.679 73.586 293.859 73.2273C294.083 72.8238 294.307 72.4203 294.531 72.0169C294.755 71.5685 294.957 71.165 295.136 70.8064C295.316 70.4029 295.45 70.1339 295.54 69.9994C295.898 69.6408 296.257 69.3269 296.616 69.0579C296.974 68.789 297.4 68.6545 297.893 68.6545C298.118 68.6545 298.431 68.6993 298.835 68.789C299.283 68.8338 299.507 69.0804 299.507 69.5287V90.8462C299.507 91.2497 299.373 91.5635 299.104 91.7877C298.88 91.967 298.588 92.1239 298.23 92.2584C297.871 92.3481 297.512 92.4378 297.154 92.5274C296.795 92.5723 296.526 92.6171 296.347 92.6619L295.271 93.1999H295.002H294.733C293.926 92.9309 293.276 92.6395 292.783 92.3257C292.334 91.967 291.998 91.5635 291.774 91.1152C291.55 90.6221 291.415 90.0841 291.37 89.5013C291.325 88.8736 291.303 88.1339 291.303 87.2821ZM310.494 86.6096C310.494 88.7167 310.897 90.5772 311.704 92.1912C312.556 93.7603 313.901 95.0829 315.739 96.1588C316.098 96.383 316.457 96.6295 316.815 96.8985C317.174 97.1227 317.6 97.2348 318.093 97.2348H324.145C324.907 97.2348 325.647 97.1003 326.364 96.8313C327.082 96.5175 327.777 96.1588 328.449 95.7553C329.122 95.307 329.772 94.8587 330.399 94.4104C331.072 93.9621 331.722 93.581 332.349 93.2672H332.686C333 93.2672 333.269 93.3792 333.493 93.6034C333.762 93.8276 333.986 94.0965 334.165 94.4104C334.389 94.6794 334.591 94.9708 334.77 95.2846C334.995 95.5536 335.241 95.7553 335.51 95.8898C336.272 96.383 336.967 96.7416 337.595 96.9658C338.222 97.1451 338.962 97.2348 339.814 97.2348C340.89 97.2348 341.831 96.9882 342.638 96.4951C343.49 96.0019 344.185 95.3743 344.723 94.6121C345.306 93.8051 345.754 92.9085 346.068 91.9222C346.382 90.9359 346.539 89.9496 346.539 88.9633C346.539 88.515 346.494 88.0667 346.404 87.6183C346.315 87.1252 346.158 86.6769 345.934 86.2734C345.709 85.8699 345.418 85.5337 345.059 85.2647C344.701 84.9957 344.275 84.8612 343.782 84.8612C342.84 84.8612 342.212 85.175 341.899 85.8027C341.63 86.4303 341.428 87.1476 341.293 87.9546C341.159 88.7167 341.002 89.4116 340.823 90.0393C340.643 90.6669 340.195 90.9807 339.478 90.9807C338.402 90.9807 337.864 90.3531 337.864 89.0978V77.7329C338.088 77.1949 338.178 76.5897 338.133 75.9172C338.133 75.1999 338.133 74.5723 338.133 74.0343V71.9496C338.133 71.8151 338.088 71.5909 337.998 71.2771C337.953 70.9185 337.886 70.5598 337.797 70.2012C337.707 69.7977 337.617 69.4166 337.528 69.0579C337.438 68.6993 337.371 68.4527 337.326 68.3182C337.191 67.7802 336.833 67.1302 336.25 66.368C335.712 65.6059 335.062 64.8886 334.3 64.2161C333.582 63.5436 332.82 62.9608 332.013 62.4677C331.251 61.9745 330.579 61.7279 329.996 61.7279H319.707C318.99 61.7279 318.362 61.9521 317.824 62.4004C317.286 62.8039 316.77 63.185 316.277 63.5436C315.694 63.9471 315.112 64.3954 314.529 64.8886C313.946 65.3369 313.43 65.8301 312.982 66.368C312.534 66.906 312.175 67.4888 311.906 68.1165C311.637 68.7441 311.503 69.4614 311.503 70.2684C311.503 71.6582 311.951 72.8238 312.848 73.7653C313.789 74.7068 314.977 75.1775 316.412 75.1775C317.353 75.1775 318.093 74.9982 318.631 74.6395C319.214 74.236 319.64 73.7653 319.909 73.2273C320.222 72.6445 320.447 72.0169 320.581 71.3444C320.716 70.6719 320.828 70.0667 320.917 69.5287C321.052 68.9459 321.186 68.4751 321.321 68.1165C321.455 67.713 321.702 67.5112 322.061 67.5112H328.382C328.427 67.5112 328.718 67.6457 329.256 67.9147C329.794 68.1837 330.198 68.3855 330.467 68.52C331.184 68.9235 331.677 69.4614 331.946 70.1339C332.215 70.8064 332.349 71.5237 332.349 72.2858C332.349 73.3618 331.811 74.0791 330.736 74.4378C329.66 74.7964 328.315 75.043 326.701 75.1775C325.087 75.312 323.316 75.4689 321.388 75.6482C319.505 75.7827 317.757 76.2086 316.143 76.9259C314.529 77.5984 313.184 78.6968 312.108 80.2211C311.032 81.7005 310.494 83.8301 310.494 86.6096ZM315.739 86.5424C315.739 86.0492 315.896 85.4664 316.21 84.7939C316.569 84.1215 316.86 83.6283 317.084 83.3145C317.533 82.642 318.048 82.2834 318.631 82.2385C319.752 82.0592 320.85 81.9247 321.926 81.835C323.047 81.7454 324.145 81.6109 325.221 81.4315C325.356 81.4315 325.714 81.3867 326.297 81.2971C326.925 81.1626 327.575 81.0505 328.247 80.9608C328.92 80.8263 329.547 80.7142 330.13 80.6246C330.758 80.4901 331.139 80.4228 331.273 80.4228L331.408 80.3556C331.453 80.3556 331.475 80.378 331.475 80.4228C331.52 80.4228 331.542 80.4228 331.542 80.4228C331.587 80.4228 331.677 80.4677 331.811 80.5573C331.946 80.6022 332.036 80.6246 332.08 80.6246V81.4315C332.08 83.3593 331.789 84.9284 331.206 86.1389C330.623 87.3494 329.503 88.515 327.844 89.6358C327.754 89.6806 327.53 89.7927 327.171 89.972C326.858 90.1513 326.656 90.2858 326.566 90.3755C326.387 90.4652 326.163 90.5772 325.894 90.7117C325.67 90.8462 325.535 90.9135 325.49 90.9135H318.631C318.183 90.9135 317.779 90.7566 317.42 90.4428C317.062 90.1289 316.748 89.7479 316.479 89.2995C316.255 88.8064 316.075 88.3132 315.941 87.8201C315.806 87.3269 315.739 86.901 315.739 86.5424ZM349.337 94.2086C349.337 94.9708 349.562 95.6208 350.01 96.1588C350.503 96.6968 351.153 96.9658 351.96 96.9658H374.892C375.654 96.9658 376.192 96.652 376.506 96.0243C376.864 95.3967 377.044 94.769 377.044 94.1414C377.044 93.8276 376.976 93.4465 376.842 92.9982C376.752 92.5498 376.573 92.1239 376.304 91.7205C376.08 91.317 375.788 90.9807 375.43 90.7117C375.116 90.3979 374.757 90.241 374.354 90.241H367.225L366.822 89.8375V64.8213C366.822 63.8799 366.396 63.1626 365.544 62.6694C364.737 62.1763 363.953 61.9297 363.19 61.9297C362.652 61.9297 362.114 61.9745 361.577 62.0642C361.083 62.1538 360.568 62.1987 360.03 62.1987C359.268 62.1987 358.506 62.1538 357.743 62.0642C357.026 61.9745 356.286 61.9297 355.524 61.9297C355.031 61.9297 354.471 61.9745 353.843 62.0642C353.26 62.109 352.7 62.2435 352.162 62.4677C351.669 62.647 351.243 62.9384 350.884 63.3419C350.525 63.7454 350.346 64.3058 350.346 65.0231C350.346 65.3817 350.391 65.7852 350.481 66.2335C350.615 66.637 350.794 67.0181 351.019 67.3768C351.243 67.7354 351.512 68.0492 351.826 68.3182C352.184 68.5424 352.588 68.6545 353.036 68.6545H360.904V83.5162C360.859 83.6059 360.814 83.8301 360.77 84.1887C360.725 84.5474 360.68 84.7715 360.635 84.8612C360.635 85.0405 360.613 85.3543 360.568 85.8027C360.568 86.251 360.545 86.7217 360.501 87.2149C360.456 87.708 360.411 88.1787 360.366 88.6271C360.366 89.0754 360.366 89.3892 360.366 89.5685L359.895 90.241H352.498C351.422 90.241 350.615 90.6893 350.077 91.586C349.584 92.4378 349.337 93.312 349.337 94.2086ZM358.281 53.6582C358.281 55.1377 358.662 56.4154 359.425 57.4913C360.232 58.5673 361.397 59.1053 362.921 59.1053C364.177 59.1053 365.298 58.7242 366.284 57.9621C367.27 57.1551 367.763 56.0791 367.763 54.7342C367.763 54.0617 367.629 53.3892 367.36 52.7167C367.136 52.0443 366.799 51.439 366.351 50.901C365.948 50.3182 365.432 49.8699 364.804 49.5561C364.222 49.1974 363.572 49.0181 362.854 49.0181C361.509 49.0181 360.411 49.4664 359.559 50.3631C358.707 51.2597 358.281 52.3581 358.281 53.6582ZM379.708 94.2759C379.708 95.038 380.044 95.6881 380.716 96.2261C381.434 96.7192 382.173 96.9658 382.936 96.9658H408.96C409.902 96.9658 410.574 96.652 410.978 96.0243C411.426 95.3967 411.65 94.6794 411.65 93.8724C411.65 93.5137 411.583 93.1327 411.449 92.7292C411.359 92.2809 411.202 91.8774 410.978 91.5187C410.754 91.1601 410.462 90.8687 410.104 90.6445C409.79 90.3755 409.409 90.241 408.96 90.241H400.017L399.344 89.6358V53.8599C399.344 53.0978 399.142 52.4702 398.739 51.977C398.38 51.439 397.909 51.0355 397.327 50.7665C396.744 50.4527 396.116 50.2286 395.444 50.0941C394.771 49.9596 394.144 49.8923 393.561 49.8923C392.933 49.8923 392.328 49.9372 391.745 50.0268C391.162 50.1165 390.557 50.1613 389.929 50.1613C389.122 50.1613 388.315 50.0717 387.508 49.8923C386.746 49.713 385.962 49.6233 385.155 49.6233C384.034 49.6233 382.98 49.8699 381.994 50.3631C381.053 50.8114 380.582 51.6632 380.582 52.9185C380.582 53.5013 380.649 53.9496 380.784 54.2634C380.918 54.5324 381.097 54.7566 381.322 54.9359C381.591 55.1152 381.904 55.2497 382.263 55.3394C382.622 55.4291 383.025 55.5411 383.474 55.6756C384.101 55.8998 384.617 56.1015 385.02 56.2809C385.469 56.4154 386.074 56.4826 386.836 56.4826H387.912C388.046 56.4826 388.293 56.4602 388.652 56.4154C389.01 56.3257 389.391 56.236 389.795 56.1464C390.198 56.0567 390.557 55.967 390.871 55.8774C391.229 55.7877 391.476 55.7205 391.611 55.6756C391.745 55.7205 392.081 55.8998 392.619 56.2136C393.157 56.4826 393.426 56.7516 393.426 57.0206V68.3182L393.023 69.5959V89.8375L392.687 90.241H382.398C381.904 90.241 381.479 90.3979 381.12 90.7117C380.806 90.9807 380.537 91.317 380.313 91.7205C380.089 92.1239 379.932 92.5723 379.842 93.0654C379.753 93.5137 379.708 93.9172 379.708 94.2759Z" fill="white"/>
</svg>
