<svg width="2001" height="1160" viewBox="0 0 2001 1160" fill="none" xmlns="http://www.w3.org/2000/svg">
<rect width="1920" height="1080" transform="translate(40 40)" fill="#DEE7B9"/>
<rect x="40" y="40" width="1920" height="1080" fill="#DEE7B9"/>
<rect x="40.5" y="686.693" width="1919" height="432.807" fill="#5A2B32" stroke="#974D58"/>
<rect x="40.5" y="1045.38" width="79" height="74.1181" fill="#813B45" stroke="#974D58"/>
<rect x="200.5" y="1045.38" width="79" height="74.1181" fill="#813B45" stroke="#974D58"/>
<rect x="360.5" y="1045.38" width="79" height="74.1181" fill="#813B45" stroke="#974D58"/>
<rect x="680.5" y="1045.38" width="79" height="74.1181" fill="#813B45" stroke="#974D58"/>
<rect x="840.5" y="1045.38" width="79" height="74.1181" fill="#813B45" stroke="#974D58"/>
<rect x="1000.5" y="1045.38" width="79" height="74.1181" fill="#813B45" stroke="#974D58"/>
<rect x="1160.5" y="1045.38" width="79" height="74.1181" fill="#813B45" stroke="#974D58"/>
<rect x="1320.5" y="1045.38" width="79" height="74.1181" fill="#813B45" stroke="#974D58"/>
<rect x="1480.5" y="1045.38" width="79" height="74.1181" fill="#813B45" stroke="#974D58"/>
<rect x="1640.5" y="1045.38" width="79" height="74.1181" fill="#813B45" stroke="#974D58"/>
<rect x="1800.5" y="1045.38" width="79" height="74.1181" fill="#813B45" stroke="#974D58"/>
<rect x="520.5" y="1045.38" width="79" height="74.1181" fill="#813B45" stroke="#974D58"/>
<rect x="40.5" y="744.909" width="79" height="74.1181" fill="#813B45" stroke="#974D58"/>
<rect x="200.5" y="744.909" width="79" height="74.1181" fill="#813B45" stroke="#974D58"/>
<rect x="360.5" y="744.909" width="79" height="74.1181" fill="#813B45" stroke="#974D58"/>
<rect x="680.5" y="744.909" width="79" height="74.1181" fill="#813B45" stroke="#974D58"/>
<rect x="840.5" y="744.909" width="79" height="74.1181" fill="#813B45" stroke="#974D58"/>
<rect x="1000.5" y="744.909" width="79" height="74.1181" fill="#813B45" stroke="#974D58"/>
<rect x="1160.5" y="744.909" width="79" height="74.1181" fill="#813B45" stroke="#974D58"/>
<rect x="1320.5" y="744.909" width="79" height="74.1181" fill="#813B45" stroke="#974D58"/>
<rect x="1480.5" y="744.909" width="79" height="74.1181" fill="#813B45" stroke="#974D58"/>
<rect x="1640.5" y="744.909" width="79" height="74.1181" fill="#813B45" stroke="#974D58"/>
<rect x="1800.5" y="744.909" width="79" height="74.1181" fill="#813B45" stroke="#974D58"/>
<rect x="520.5" y="744.909" width="79" height="74.1181" fill="#813B45" stroke="#974D58"/>
<rect x="120.5" y="820.028" width="79" height="74.1181" fill="#813B45" stroke="#974D58"/>
<rect x="280.5" y="820.028" width="79" height="74.1181" fill="#813B45" stroke="#974D58"/>
<rect x="440.5" y="820.028" width="79" height="74.1181" fill="#813B45" stroke="#974D58"/>
<rect x="760.5" y="820.028" width="79" height="74.1181" fill="#813B45" stroke="#974D58"/>
<rect x="920.5" y="820.028" width="79" height="74.1181" fill="#813B45" stroke="#974D58"/>
<rect x="1080.5" y="820.028" width="79" height="74.1181" fill="#813B45" stroke="#974D58"/>
<rect x="1240.5" y="820.028" width="79" height="74.1181" fill="#813B45" stroke="#974D58"/>
<rect x="1400.5" y="820.028" width="79" height="74.1181" fill="#813B45" stroke="#974D58"/>
<rect x="1560.5" y="820.028" width="79" height="74.1181" fill="#813B45" stroke="#974D58"/>
<rect x="1720.5" y="820.028" width="79" height="74.1181" fill="#813B45" stroke="#974D58"/>
<rect x="1880.5" y="820.028" width="79" height="74.1181" fill="#813B45" stroke="#974D58"/>
<rect x="600.5" y="820.028" width="79" height="74.1181" fill="#813B45" stroke="#974D58"/>
<rect x="40.5" y="895.146" width="79" height="74.1181" fill="#813B45" stroke="#974D58"/>
<rect x="200.5" y="895.146" width="79" height="74.1181" fill="#813B45" stroke="#974D58"/>
<rect x="360.5" y="895.146" width="79" height="74.1181" fill="#813B45" stroke="#974D58"/>
<rect x="680.5" y="895.146" width="79" height="74.1181" fill="#813B45" stroke="#974D58"/>
<rect x="840.5" y="895.146" width="79" height="74.1181" fill="#813B45" stroke="#974D58"/>
<rect x="1000.5" y="895.146" width="79" height="74.1181" fill="#813B45" stroke="#974D58"/>
<rect x="1160.5" y="895.146" width="79" height="74.1181" fill="#813B45" stroke="#974D58"/>
<rect x="1320.5" y="895.146" width="79" height="74.1181" fill="#813B45" stroke="#974D58"/>
<rect x="1480.5" y="895.146" width="79" height="74.1181" fill="#813B45" stroke="#974D58"/>
<rect x="1640.5" y="895.146" width="79" height="74.1181" fill="#813B45" stroke="#974D58"/>
<rect x="1800.5" y="895.146" width="79" height="74.1181" fill="#813B45" stroke="#974D58"/>
<rect x="520.5" y="895.146" width="79" height="74.1181" fill="#813B45" stroke="#974D58"/>
<rect x="120.5" y="970.264" width="79" height="74.1181" fill="#813B45" stroke="#974D58"/>
<rect x="280.5" y="970.264" width="79" height="74.1181" fill="#813B45" stroke="#974D58"/>
<rect x="440.5" y="970.264" width="79" height="74.1181" fill="#813B45" stroke="#974D58"/>
<rect x="760.5" y="970.264" width="79" height="74.1181" fill="#813B45" stroke="#974D58"/>
<rect x="920.5" y="970.264" width="79" height="74.1181" fill="#813B45" stroke="#974D58"/>
<rect x="1080.5" y="970.264" width="79" height="74.1181" fill="#813B45" stroke="#974D58"/>
<rect x="1240.5" y="970.264" width="79" height="74.1181" fill="#813B45" stroke="#974D58"/>
<rect x="1400.5" y="970.264" width="79" height="74.1181" fill="#813B45" stroke="#974D58"/>
<rect x="1560.5" y="970.264" width="79" height="74.1181" fill="#813B45" stroke="#974D58"/>
<rect x="1720.5" y="970.264" width="79" height="74.1181" fill="#813B45" stroke="#974D58"/>
<rect x="1880.5" y="970.264" width="79" height="74.1181" fill="#813B45" stroke="#974D58"/>
<rect x="600.5" y="970.264" width="79" height="74.1181" fill="#813B45" stroke="#974D58"/>
<rect x="40.5" y="644.5" width="1919" height="10.2677" fill="#401F24" stroke="#974D58"/>
<rect x="40.5" y="732.703" width="1919" height="11.2067" fill="#401F24" stroke="#974D58"/>
<rect x="40.5" y="679.5" width="1919" height="4.63386" fill="#401F24" stroke="#974D58"/>
<rect x="40" y="655" width="1920" height="24" fill="#8D434E"/>
<rect x="40.416" y="691.416" width="15.8064" height="39.516" fill="#AF8127" stroke="#974D58" stroke-width="0.831915"/>
<rect x="73.6926" y="691.416" width="15.8064" height="39.516" fill="#AF8127" stroke="#974D58" stroke-width="0.831915"/>
<rect x="106.969" y="691.416" width="15.8064" height="39.516" fill="#AF8127" stroke="#974D58" stroke-width="0.831915"/>
<rect x="140.246" y="691.416" width="15.8064" height="39.516" fill="#AF8127" stroke="#974D58" stroke-width="0.831915"/>
<rect x="173.522" y="691.416" width="15.8064" height="39.516" fill="#AF8127" stroke="#974D58" stroke-width="0.831915"/>
<rect x="206.799" y="691.416" width="15.8064" height="39.516" fill="#AF8127" stroke="#974D58" stroke-width="0.831915"/>
<rect x="240.076" y="691.416" width="15.8064" height="39.516" fill="#AF8127" stroke="#974D58" stroke-width="0.831915"/>
<rect x="273.352" y="691.416" width="15.8064" height="39.516" fill="#AF8127" stroke="#974D58" stroke-width="0.831915"/>
<rect x="306.629" y="691.416" width="15.8064" height="39.516" fill="#AF8127" stroke="#974D58" stroke-width="0.831915"/>
<rect x="339.905" y="691.416" width="15.8064" height="39.516" fill="#AF8127" stroke="#974D58" stroke-width="0.831915"/>
<rect x="373.182" y="691.416" width="15.8064" height="39.516" fill="#AF8127" stroke="#974D58" stroke-width="0.831915"/>
<rect x="406.459" y="691.416" width="15.8064" height="39.516" fill="#AF8127" stroke="#974D58" stroke-width="0.831915"/>
<rect x="439.735" y="691.416" width="15.8064" height="39.516" fill="#AF8127" stroke="#974D58" stroke-width="0.831915"/>
<rect x="473.012" y="691.416" width="15.8064" height="39.516" fill="#AF8127" stroke="#974D58" stroke-width="0.831915"/>
<rect x="506.288" y="691.416" width="15.8064" height="39.516" fill="#AF8127" stroke="#974D58" stroke-width="0.831915"/>
<rect x="539.565" y="691.416" width="15.8064" height="39.516" fill="#AF8127" stroke="#974D58" stroke-width="0.831915"/>
<rect x="572.841" y="691.416" width="15.8064" height="39.516" fill="#AF8127" stroke="#974D58" stroke-width="0.831915"/>
<rect x="606.118" y="691.416" width="15.8064" height="39.516" fill="#AF8127" stroke="#974D58" stroke-width="0.831915"/>
<rect x="639.395" y="691.416" width="15.8064" height="39.516" fill="#AF8127" stroke="#974D58" stroke-width="0.831915"/>
<rect x="672.671" y="691.416" width="15.8064" height="39.516" fill="#AF8127" stroke="#974D58" stroke-width="0.831915"/>
<rect x="705.948" y="691.416" width="15.8064" height="39.516" fill="#AF8127" stroke="#974D58" stroke-width="0.831915"/>
<rect x="739.224" y="691.416" width="15.8064" height="39.516" fill="#AF8127" stroke="#974D58" stroke-width="0.831915"/>
<rect x="772.501" y="691.416" width="15.8064" height="39.516" fill="#AF8127" stroke="#974D58" stroke-width="0.831915"/>
<rect x="805.778" y="691.416" width="15.8064" height="39.516" fill="#AF8127" stroke="#974D58" stroke-width="0.831915"/>
<rect x="839.416" y="692.416" width="15.8064" height="39.516" fill="#AF8127" stroke="#974D58" stroke-width="0.831915"/>
<rect x="872.693" y="692.416" width="15.8064" height="39.516" fill="#AF8127" stroke="#974D58" stroke-width="0.831915"/>
<rect x="905.969" y="692.416" width="15.8064" height="39.516" fill="#AF8127" stroke="#974D58" stroke-width="0.831915"/>
<rect x="939.246" y="692.416" width="15.8064" height="39.516" fill="#AF8127" stroke="#974D58" stroke-width="0.831915"/>
<rect x="972.522" y="692.416" width="15.8064" height="39.516" fill="#AF8127" stroke="#974D58" stroke-width="0.831915"/>
<rect x="1005.8" y="692.416" width="15.8064" height="39.516" fill="#AF8127" stroke="#974D58" stroke-width="0.831915"/>
<rect x="1039.08" y="692.416" width="15.8064" height="39.516" fill="#AF8127" stroke="#974D58" stroke-width="0.831915"/>
<rect x="1072.35" y="692.416" width="15.8064" height="39.516" fill="#AF8127" stroke="#974D58" stroke-width="0.831915"/>
<rect x="1105.63" y="692.416" width="15.8064" height="39.516" fill="#AF8127" stroke="#974D58" stroke-width="0.831915"/>
<rect x="1138.91" y="692.416" width="15.8064" height="39.516" fill="#AF8127" stroke="#974D58" stroke-width="0.831915"/>
<rect x="1172.18" y="692.416" width="15.8064" height="39.516" fill="#AF8127" stroke="#974D58" stroke-width="0.831915"/>
<rect x="1205.46" y="692.416" width="15.8064" height="39.516" fill="#AF8127" stroke="#974D58" stroke-width="0.831915"/>
<rect x="1238.74" y="692.416" width="15.8064" height="39.516" fill="#AF8127" stroke="#974D58" stroke-width="0.831915"/>
<rect x="1272.01" y="692.416" width="15.8064" height="39.516" fill="#AF8127" stroke="#974D58" stroke-width="0.831915"/>
<rect x="1305.29" y="692.416" width="15.8064" height="39.516" fill="#AF8127" stroke="#974D58" stroke-width="0.831915"/>
<rect x="1338.56" y="692.416" width="15.8064" height="39.516" fill="#AF8127" stroke="#974D58" stroke-width="0.831915"/>
<rect x="1371.84" y="692.416" width="15.8064" height="39.516" fill="#AF8127" stroke="#974D58" stroke-width="0.831915"/>
<rect x="1405.12" y="692.416" width="15.8064" height="39.516" fill="#AF8127" stroke="#974D58" stroke-width="0.831915"/>
<rect x="1438.39" y="692.416" width="15.8064" height="39.516" fill="#AF8127" stroke="#974D58" stroke-width="0.831915"/>
<rect x="1471.67" y="692.416" width="15.8064" height="39.516" fill="#AF8127" stroke="#974D58" stroke-width="0.831915"/>
<rect x="1504.95" y="692.416" width="15.8064" height="39.516" fill="#AF8127" stroke="#974D58" stroke-width="0.831915"/>
<rect x="1538.22" y="692.416" width="15.8064" height="39.516" fill="#AF8127" stroke="#974D58" stroke-width="0.831915"/>
<rect x="1571.5" y="692.416" width="15.8064" height="39.516" fill="#AF8127" stroke="#974D58" stroke-width="0.831915"/>
<rect x="1604.78" y="692.416" width="15.8064" height="39.516" fill="#AF8127" stroke="#974D58" stroke-width="0.831915"/>
<rect x="1783.42" y="691.416" width="15.8064" height="39.516" fill="#AF8127" stroke="#974D58" stroke-width="0.831915"/>
<rect x="1816.69" y="691.416" width="15.8064" height="39.516" fill="#AF8127" stroke="#974D58" stroke-width="0.831915"/>
<rect x="1849.97" y="691.416" width="15.8064" height="39.516" fill="#AF8127" stroke="#974D58" stroke-width="0.831915"/>
<rect x="1883.25" y="691.416" width="15.8064" height="39.516" fill="#AF8127" stroke="#974D58" stroke-width="0.831915"/>
<rect x="1916.52" y="691.416" width="15.8064" height="39.516" fill="#AF8127" stroke="#974D58" stroke-width="0.831915"/>
<rect x="1949.42" y="691.416" width="10.1681" height="39.1681" fill="#AF8127" stroke="#974D58" stroke-width="0.831915"/>
<rect x="40.5" y="684.5" width="1919" height="7" fill="#AF8127" stroke="#974D58"/>
<rect x="40.5" y="730.5" width="1919" height="7" fill="#AF8127" stroke="#974D58"/>
<rect x="1112.3" y="772.392" width="20.4051" height="27.397" fill="#F5BC4D" stroke="black" stroke-width="0.78481"/>
<path d="M1148.41 807.429C1148.41 821.896 1136.98 833.608 1122.9 833.608C1108.82 833.608 1097.39 821.896 1097.39 807.429C1097.39 792.961 1108.82 781.25 1122.9 781.25C1136.98 781.25 1148.41 792.961 1148.41 807.429Z" fill="#F5BC4D" stroke="black" stroke-width="0.78481"/>
<rect opacity="0.99" x="1111.7" y="941" width="19.6203" height="18.0506" fill="#F5BC4D"/>
<g filter="url(#filter0_d_3_34)">
<rect x="1060" y="614" width="128" height="160" fill="#393232"/>
<rect x="1060.65" y="614.651" width="126.698" height="158.698" stroke="#AFAFAF" stroke-width="1.30237"/>
</g>
<text fill="white" xml:space="preserve" style="white-space: pre" font-family="Another Typewriter" font-size="19.3596" letter-spacing="0.02em" text-decoration="underline"><tspan x="1084.62" y="645.454">Settings</tspan></text>
<path d="M1071.56 679.119C1071.79 678.983 1071.83 678.782 1071.88 678.478C1072.22 676.605 1072.18 674.658 1072.47 672.774C1072.98 669.426 1074.7 661.151 1079.38 663.319C1081.38 664.25 1083.16 666.26 1084.59 668.007C1085.87 669.579 1086.86 671.296 1087.87 673.081C1088.6 674.353 1089.34 675.608 1090.17 676.798C1090.65 677.486 1090.88 677.843 1091.28 676.883C1091.9 675.381 1092.35 673.858 1093.14 672.434C1093.41 671.935 1094.11 670.436 1094.94 670.912C1095.99 671.523 1096.88 673.109 1097.66 674.028C1098.4 674.893 1099.6 676.598 1100.92 676.145C1102.2 675.709 1102.82 674.08 1104.15 673.614C1105.93 672.989 1107.46 674.198 1108.83 675.283C1110.08 676.281 1111.37 677.98 1113.06 678.047C1113.57 678.067 1114.09 677.926 1114.58 677.746C1116.24 677.131 1117.74 676.033 1119.4 675.407C1122.8 674.128 1126.17 673.691 1129.66 674.795C1130.49 675.056 1131.27 675.477 1132.04 675.896C1132.53 676.158 1132.95 676.543 1133.42 676.832C1133.65 676.971 1133.87 677.203 1134.13 677.178C1134.33 677.16 1134.44 676.895 1134.56 676.724C1135.38 675.604 1135.21 675.264 1136.54 674.414C1138.67 673.05 1141.07 673.313 1143.33 674.102C1143.94 674.316 1144.51 674.644 1145.09 674.948C1145.2 675.003 1146.44 675.903 1146.87 675.782C1147.1 675.72 1147.25 675.479 1147.41 675.294C1148.28 674.296 1148.27 673.813 1149.56 673.149C1151.44 672.174 1153.46 672.429 1155.35 673.171C1156.21 673.509 1156.99 674.338 1157.95 673.989C1159.58 673.397 1160.82 672.655 1162.61 672.558C1164.85 672.437 1166.94 673.037 1168.84 674.375C1169.26 674.674 1169.63 675.055 1170.01 675.425C1170.38 675.785 1170.63 676.311 1171.05 676.594C1171.43 676.85 1170.99 675.607 1170.99 675.112C1170.97 673.137 1172.4 672.875 1173.81 673.512C1174.69 673.911 1175.54 673.807 1176.5 673.807" stroke="white" stroke-width="0.781421" stroke-linecap="round"/>
<path d="M1072.88 718.006C1072.92 717.692 1073.07 717.401 1073.18 717.109C1073.62 715.861 1074.06 714.626 1074.61 713.431C1075.05 712.484 1075.61 711.597 1075.94 710.593C1076.2 709.799 1076.41 709.01 1076.81 708.278C1077.4 707.199 1078.42 705.506 1079.56 705.077C1080.37 704.776 1081.56 706.795 1081.88 707.336C1082.54 708.481 1082.79 710.017 1083.73 710.968C1084.24 711.49 1085.1 711.044 1085.57 710.684C1086.73 709.799 1087.22 708.334 1087.81 706.995C1088.05 706.457 1088.69 704.163 1089.53 705.19C1090.78 706.716 1091.28 708.897 1092.52 710.412C1093.67 711.809 1095.3 709.367 1096.18 708.709C1097.59 707.658 1099.18 706.772 1100.5 708.471C1101.02 709.146 1101.73 710.667 1102.08 711.445C1102.26 711.82 1102.4 712.208 1102.57 712.586C1102.64 712.761 1102.66 713 1102.81 713.102C1102.89 713.159 1102.85 712.887 1102.85 712.779C1102.83 712.42 1102.77 712.065 1102.75 711.706C1102.7 710.833 1102.59 709.184 1102.95 708.346C1104.2 705.457 1108.46 707.742 1110.15 708.528C1112.39 709.567 1112.34 709.74 1114.4 710.798C1114.84 711.026 1115.81 711.603 1116.44 711.399C1116.85 711.263 1117.41 710.379 1117.64 710.105C1118.11 709.557 1118.64 708.889 1119.38 708.789C1121.48 708.506 1123.24 710.947 1124.62 712.285C1125 712.661 1125.62 713.321 1126.21 713.397C1126.73 713.464 1127.42 713.03 1127.83 712.83C1130.06 711.75 1132.12 711.449 1134.54 711.978C1135.9 712.276 1136.02 712.478 1137.2 712.932C1137.73 713.139 1138.02 713.272 1138.59 713.113C1139.18 712.946 1140.24 712.304 1140.73 712.058C1141.98 711.432 1142.97 710.945 1144.35 710.684C1146.99 710.187 1149.31 710.797 1151.85 711.399C1152.6 711.578 1152.53 711.495 1153.25 711.172C1154.45 710.632 1154.9 710.289 1156.32 710.174C1159.22 709.938 1161.72 711.093 1164.04 712.886C1164.17 712.986 1164.85 713.671 1165.19 713.624C1165.46 713.588 1166.03 712.826 1166.11 712.739C1167.16 711.564 1168.26 710.716 1169.79 710.571C1171.03 710.453 1172.36 710.858 1173.58 711.059" stroke="white" stroke-width="0.781421" stroke-linecap="round"/>
<path d="M1073.93 749.31C1074.06 749.31 1074.04 749.249 1074.05 749.096C1074.11 748.295 1074.29 747.549 1074.59 746.812C1075.27 745.092 1076.71 743.868 1078.44 743.701C1080.74 743.477 1081.89 746.827 1083.42 748.143C1085.64 750.056 1087.39 745.341 1089.08 744.663C1091.22 743.805 1092.96 750.779 1094.31 749.485C1095.2 748.636 1095.63 747.507 1097.02 747.648C1098.24 747.771 1099.07 748.712 1100.02 749.417C1101.05 750.18 1102.08 749.405 1103.08 748.94C1104.91 748.091 1106.88 747.179 1108.91 747.58C1109.42 747.681 1109.84 747.934 1110.23 748.289C1110.39 748.426 1110.66 748.815 1110.85 748.931C1111.11 749.085 1111.36 749.049 1111.62 748.931C1112.9 748.352 1113.98 747.406 1115.3 746.88C1117.9 745.85 1120.6 745.738 1122.95 747.502C1123.97 748.268 1124.32 749.414 1125.66 748.78C1126.58 748.344 1127.41 747.711 1128.33 747.264C1129.93 746.481 1131.02 746.048 1132.81 745.932C1135.1 745.783 1137.51 746.44 1138.93 748.556C1139.36 749.196 1139.2 749.563 1139.6 748.819C1140.4 747.322 1141.64 746.274 1143.28 746.243C1145.38 746.203 1147.51 747.416 1149.04 748.94C1149.6 749.499 1149.81 750.343 1150.51 749.606C1152.14 747.875 1153.75 746.734 1156.07 746.408C1157.58 746.195 1159.61 746.239 1160.33 748.017C1160.44 748.291 1160.47 749.082 1160.67 748.503C1161.05 747.393 1162.01 747.779 1162.81 748.158C1163.68 748.567 1164.56 749.156 1165.37 749.674C1165.7 749.883 1166.63 750.533 1167.1 750.675C1167.77 750.877 1168.12 749.995 1168.73 749.84C1169.66 749.604 1170.52 750.16 1171.44 750.097C1171.88 750.067 1172.24 749.867 1172.65 749.699C1173.23 749.459 1173.79 749.325 1174.37 749.135" stroke="white" stroke-width="0.781421" stroke-linecap="round"/>
<g filter="url(#filter1_d_3_34)">
<rect x="1108" y="610" width="30" height="8" fill="#F5BC4D"/>
<rect x="1108" y="610" width="30" height="8" stroke="black" stroke-width="0.78"/>
</g>
<g filter="url(#filter2_d_3_34)">
<rect x="1108" y="768" width="30" height="8" fill="#F5BC4D"/>
<rect x="1108" y="768" width="30" height="8" stroke="black" stroke-width="0.78"/>
</g>
<g opacity="0.99">
<mask id="path-134-inside-1_3_34" fill="white">
<path d="M262.88 830.629H1295.98V1114.73H262.88V830.629Z"/>
</mask>
<path d="M262.88 830.629H1295.98V1114.73H262.88V830.629Z" fill="#524F3B"/>
<path d="M1295.98 1114.73V1118.73H1299.98V1114.73H1295.98ZM262.88 1114.73H258.88V1118.73H262.88V1114.73ZM1291.98 830.629V1114.73H1299.98V830.629H1291.98ZM1295.98 1110.73H262.88V1118.73H1295.98V1110.73ZM266.88 1114.73V830.629H258.88V1114.73H266.88Z" fill="black" mask="url(#path-134-inside-1_3_34)"/>
<rect x="227.5" y="787.5" width="1103" height="40.6286" fill="#787558" stroke="black" stroke-width="5"/>
</g>
<rect x="108.942" y="268.942" width="284.115" height="354.615" fill="#ABA361" stroke="#605B38" stroke-width="2.115"/>
<rect x="128.125" y="288.125" width="245.75" height="316.25" fill="#8B444E" stroke="#605B38"/>
<rect x="179.513" y="489.384" width="28.6107" height="4.86114" transform="rotate(-90 179.513 489.384)" fill="#F5BC4D" stroke="black" stroke-width="0.564"/>
<rect x="183.705" y="485.434" width="3.50223" height="8.084" transform="rotate(-90 183.705 485.434)" fill="#F5BC4D" stroke="black" stroke-width="0.564"/>
<rect x="183.676" y="477.381" width="2.96801" height="4.86114" transform="rotate(-90 183.676 477.381)" fill="#F5BC4D" stroke="black" stroke-width="0.564"/>
<rect x="174.578" y="462.195" width="15.5223" height="14.7983" transform="rotate(-90 174.578 462.195)" fill="#F5BC4D" stroke="black" stroke-width="0.564"/>
<rect x="179.937" y="461.055" width="4.01335" height="4.935" fill="#F5BC4D"/>
<rect x="181.5" y="474.845" width="4.01335" height="2.10979" fill="#F5BC4D"/>
<rect x="180.881" y="482.356" width="4.01335" height="2.65662" fill="#F5BC4D"/>
<rect x="178.338" y="457.921" width="7.2418" height="7.27829" transform="rotate(-90 178.338 457.921)" fill="#8B444E" stroke="black" stroke-width="0.564"/>
<rect x="247.193" y="490.089" width="28.6107" height="4.86114" transform="rotate(-90 247.193 490.089)" fill="#F5BC4D" stroke="black" stroke-width="0.564"/>
<rect x="251.385" y="486.139" width="3.50223" height="8.084" transform="rotate(-90 251.385 486.139)" fill="#F5BC4D" stroke="black" stroke-width="0.564"/>
<rect x="251.356" y="478.086" width="2.96801" height="4.86114" transform="rotate(-90 251.356 478.086)" fill="#F5BC4D" stroke="black" stroke-width="0.564"/>
<rect x="242.258" y="462.9" width="15.5223" height="14.7983" transform="rotate(-90 242.258 462.9)" fill="#F5BC4D" stroke="black" stroke-width="0.564"/>
<rect x="247.617" y="461.76" width="4.01335" height="4.935" fill="#F5BC4D"/>
<rect x="249.18" y="475.55" width="4.01335" height="2.10979" fill="#F5BC4D"/>
<rect x="248.561" y="483.061" width="4.01335" height="2.65662" fill="#F5BC4D"/>
<rect x="246.018" y="458.626" width="7.2418" height="7.27829" transform="rotate(-90 246.018 458.626)" fill="#8B444E" stroke="black" stroke-width="0.564"/>
<rect x="281.033" y="478.809" width="28.6107" height="4.86114" transform="rotate(-90 281.033 478.809)" fill="#F5BC4D" stroke="black" stroke-width="0.564"/>
<rect x="285.225" y="474.859" width="3.50223" height="8.084" transform="rotate(-90 285.225 474.859)" fill="#F5BC4D" stroke="black" stroke-width="0.564"/>
<rect x="285.196" y="466.805" width="2.96801" height="4.86114" transform="rotate(-90 285.196 466.805)" fill="#F5BC4D" stroke="black" stroke-width="0.564"/>
<rect x="276.098" y="451.62" width="15.5223" height="14.7983" transform="rotate(-90 276.098 451.62)" fill="#F5BC4D" stroke="black" stroke-width="0.564"/>
<rect x="281.457" y="450.48" width="4.01335" height="4.935" fill="#F5BC4D"/>
<rect x="283.02" y="464.27" width="4.01335" height="2.10979" fill="#F5BC4D"/>
<rect x="282.401" y="471.781" width="4.01335" height="2.65662" fill="#F5BC4D"/>
<rect x="279.858" y="447.346" width="7.2418" height="7.27829" transform="rotate(-90 279.858 447.346)" fill="#8B444E" stroke="black" stroke-width="0.564"/>
<rect x="314.873" y="487.269" width="28.6107" height="4.86114" transform="rotate(-90 314.873 487.269)" fill="#F5BC4D" stroke="black" stroke-width="0.564"/>
<rect x="319.065" y="483.319" width="3.50223" height="8.084" transform="rotate(-90 319.065 483.319)" fill="#F5BC4D" stroke="black" stroke-width="0.564"/>
<rect x="319.036" y="475.266" width="2.96801" height="4.86114" transform="rotate(-90 319.036 475.266)" fill="#F5BC4D" stroke="black" stroke-width="0.564"/>
<rect x="309.938" y="460.08" width="15.5223" height="14.7983" transform="rotate(-90 309.938 460.08)" fill="#F5BC4D" stroke="black" stroke-width="0.564"/>
<rect x="315.297" y="458.94" width="4.01335" height="4.935" fill="#F5BC4D"/>
<rect x="316.86" y="472.73" width="4.01335" height="2.10979" fill="#F5BC4D"/>
<rect x="316.241" y="480.241" width="4.01335" height="2.65662" fill="#F5BC4D"/>
<rect x="313.698" y="455.806" width="7.2418" height="7.27829" transform="rotate(-90 313.698 455.806)" fill="#8B444E" stroke="black" stroke-width="0.564"/>
<rect x="179.513" y="388.569" width="28.6107" height="4.86114" transform="rotate(-90 179.513 388.569)" fill="#F5BC4D" stroke="black" stroke-width="0.564"/>
<rect x="183.705" y="384.619" width="3.50223" height="8.084" transform="rotate(-90 183.705 384.619)" fill="#F5BC4D" stroke="black" stroke-width="0.564"/>
<rect x="183.676" y="376.566" width="2.96801" height="4.86114" transform="rotate(-90 183.676 376.566)" fill="#F5BC4D" stroke="black" stroke-width="0.564"/>
<rect x="174.578" y="361.38" width="15.5223" height="14.7983" transform="rotate(-90 174.578 361.38)" fill="#F5BC4D" stroke="black" stroke-width="0.564"/>
<rect x="179.937" y="360.24" width="4.01335" height="4.935" fill="#F5BC4D"/>
<rect x="181.5" y="374.03" width="4.01335" height="2.10979" fill="#F5BC4D"/>
<rect x="180.881" y="381.541" width="4.01335" height="2.65662" fill="#F5BC4D"/>
<rect x="178.338" y="357.106" width="7.2418" height="7.27829" transform="rotate(-90 178.338 357.106)" fill="#8B444E" stroke="black" stroke-width="0.564"/>
<rect x="247.193" y="389.274" width="28.6107" height="4.86114" transform="rotate(-90 247.193 389.274)" fill="#F5BC4D" stroke="black" stroke-width="0.564"/>
<rect x="251.385" y="385.324" width="3.50223" height="8.084" transform="rotate(-90 251.385 385.324)" fill="#F5BC4D" stroke="black" stroke-width="0.564"/>
<rect x="251.356" y="377.27" width="2.96801" height="4.86114" transform="rotate(-90 251.356 377.27)" fill="#F5BC4D" stroke="black" stroke-width="0.564"/>
<rect x="242.258" y="362.085" width="15.5223" height="14.7983" transform="rotate(-90 242.258 362.085)" fill="#F5BC4D" stroke="black" stroke-width="0.564"/>
<rect x="247.617" y="360.945" width="4.01335" height="4.935" fill="#F5BC4D"/>
<rect x="249.18" y="374.735" width="4.01335" height="2.10979" fill="#F5BC4D"/>
<rect x="248.561" y="382.246" width="4.01335" height="2.65662" fill="#F5BC4D"/>
<rect x="246.018" y="357.811" width="7.2418" height="7.27829" transform="rotate(-90 246.018 357.811)" fill="#8B444E" stroke="black" stroke-width="0.564"/>
<rect x="314.873" y="386.454" width="28.6107" height="4.86114" transform="rotate(-90 314.873 386.454)" fill="#F5BC4D" stroke="black" stroke-width="0.564"/>
<rect x="319.065" y="382.504" width="3.50223" height="8.084" transform="rotate(-90 319.065 382.504)" fill="#F5BC4D" stroke="black" stroke-width="0.564"/>
<rect x="319.036" y="374.451" width="2.96801" height="4.86114" transform="rotate(-90 319.036 374.451)" fill="#F5BC4D" stroke="black" stroke-width="0.564"/>
<rect x="309.938" y="359.265" width="15.5223" height="14.7983" transform="rotate(-90 309.938 359.265)" fill="#F5BC4D" stroke="black" stroke-width="0.564"/>
<rect x="315.297" y="358.125" width="4.01335" height="4.935" fill="#F5BC4D"/>
<rect x="316.86" y="371.915" width="4.01335" height="2.10979" fill="#F5BC4D"/>
<rect x="316.241" y="379.426" width="4.01335" height="2.65662" fill="#F5BC4D"/>
<rect x="313.698" y="354.992" width="7.2418" height="7.27829" transform="rotate(-90 313.698 354.992)" fill="#8B444E" stroke="black" stroke-width="0.564"/>
<rect x="179.513" y="585.264" width="28.6107" height="4.86114" transform="rotate(-90 179.513 585.264)" fill="#F5BC4D" stroke="black" stroke-width="0.564"/>
<rect x="183.705" y="581.314" width="3.50223" height="8.084" transform="rotate(-90 183.705 581.314)" fill="#F5BC4D" stroke="black" stroke-width="0.564"/>
<rect x="183.676" y="573.26" width="2.96801" height="4.86114" transform="rotate(-90 183.676 573.26)" fill="#F5BC4D" stroke="black" stroke-width="0.564"/>
<rect x="174.578" y="558.075" width="15.5223" height="14.7983" transform="rotate(-90 174.578 558.075)" fill="#F5BC4D" stroke="black" stroke-width="0.564"/>
<rect x="179.937" y="556.935" width="4.01335" height="4.935" fill="#F5BC4D"/>
<rect x="181.5" y="570.725" width="4.01335" height="2.10979" fill="#F5BC4D"/>
<rect x="180.881" y="578.236" width="4.01335" height="2.65662" fill="#F5BC4D"/>
<rect x="178.338" y="553.801" width="7.2418" height="7.27829" transform="rotate(-90 178.338 553.801)" fill="#8B444E" stroke="black" stroke-width="0.564"/>
<rect x="213.353" y="572.574" width="28.6107" height="4.86114" transform="rotate(-90 213.353 572.574)" fill="#F5BC4D" stroke="black" stroke-width="0.564"/>
<rect x="217.545" y="568.624" width="3.50223" height="8.084" transform="rotate(-90 217.545 568.624)" fill="#F5BC4D" stroke="black" stroke-width="0.564"/>
<rect x="217.516" y="560.571" width="2.96801" height="4.86114" transform="rotate(-90 217.516 560.571)" fill="#F5BC4D" stroke="black" stroke-width="0.564"/>
<rect x="208.418" y="545.385" width="15.5223" height="14.7983" transform="rotate(-90 208.418 545.385)" fill="#F5BC4D" stroke="black" stroke-width="0.564"/>
<rect x="213.777" y="544.245" width="4.01335" height="4.935" fill="#F5BC4D"/>
<rect x="215.34" y="558.035" width="4.01335" height="2.10979" fill="#F5BC4D"/>
<rect x="214.721" y="565.546" width="4.01335" height="2.65662" fill="#F5BC4D"/>
<rect x="212.178" y="541.111" width="7.2418" height="7.27829" transform="rotate(-90 212.178 541.111)" fill="#8B444E" stroke="black" stroke-width="0.564"/>
<rect x="314.873" y="583.149" width="28.6107" height="4.86114" transform="rotate(-90 314.873 583.149)" fill="#F5BC4D" stroke="black" stroke-width="0.564"/>
<rect x="319.065" y="579.199" width="3.50223" height="8.084" transform="rotate(-90 319.065 579.199)" fill="#F5BC4D" stroke="black" stroke-width="0.564"/>
<rect x="319.036" y="571.146" width="2.96801" height="4.86114" transform="rotate(-90 319.036 571.146)" fill="#F5BC4D" stroke="black" stroke-width="0.564"/>
<rect x="309.938" y="555.96" width="15.5223" height="14.7983" transform="rotate(-90 309.938 555.96)" fill="#F5BC4D" stroke="black" stroke-width="0.564"/>
<rect x="315.297" y="554.82" width="4.01335" height="4.935" fill="#F5BC4D"/>
<rect x="316.86" y="568.61" width="4.01335" height="2.10979" fill="#F5BC4D"/>
<rect x="316.241" y="576.121" width="4.01335" height="2.65662" fill="#F5BC4D"/>
<rect x="313.698" y="551.686" width="7.2418" height="7.27829" transform="rotate(-90 313.698 551.686)" fill="#8B444E" stroke="black" stroke-width="0.564"/>
<text fill="white" xml:space="preserve" style="white-space: pre" font-family="Another Typewriter" font-size="30.315" letter-spacing="0.02em"><tspan x="187.718" y="324.29">Register</tspan></text>
<mask id="path-220-inside-2_3_34" fill="white">
<path d="M1480 350H1880V1120H1480V350Z"/>
</mask>
<path d="M1480 350H1880V1120H1480V350Z" fill="#420C14"/>
<path d="M1480 350V348H1478V350H1480ZM1880 350H1882V348H1880V350ZM1480 352H1880V348H1480V352ZM1878 350V1120H1882V350H1878ZM1482 1120V350H1478V1120H1482Z" fill="black" mask="url(#path-220-inside-2_3_34)"/>
<path d="M1867.67 735C1867.67 750.356 1855.27 762.793 1840 762.793C1824.73 762.793 1812.33 750.356 1812.33 735C1812.33 719.644 1824.73 707.206 1840 707.206C1855.27 707.206 1867.67 719.644 1867.67 735Z" fill="#F5BC4D" stroke="black" stroke-width="3"/>
<rect x="1547.67" y="620.5" width="264.667" height="71.6522" fill="#89721E" stroke="black" stroke-width="2"/>
<text fill="white" xml:space="preserve" style="white-space: pre" font-family="Another Typewriter" font-size="38.81" letter-spacing="0.02em"><tspan x="1627.66" y="672.002">Login</tspan></text>
<path d="M1763.5 490.19C1763.5 536.747 1725.92 574.478 1679.58 574.478C1633.24 574.478 1595.67 536.747 1595.67 490.19C1595.67 443.633 1633.24 405.902 1679.58 405.902C1725.92 405.902 1763.5 443.633 1763.5 490.19Z" fill="white" stroke="black" stroke-width="3"/>
<line x1="1678.46" y1="404.402" x2="1678.46" y2="574.486" stroke="black" stroke-width="3"/>
<path d="M1595.81 493.191H1763.35" stroke="black" stroke-width="3"/>
<g filter="url(#filter3_d_3_34)">
<rect x="561.947" y="98.177" width="796.358" height="207.901" transform="rotate(8.34566 561.947 98.177)" fill="#732C2C"/>
<rect x="558.445" y="93.4712" width="804.653" height="216.197" transform="rotate(8.34566 558.445 93.4712)" stroke="white" stroke-width="8.29539"/>
</g>
<text transform="translate(593.111 119.445) rotate(8.34566)" fill="white" xml:space="preserve" style="white-space: pre" font-family="Another Typewriter" font-size="138.792" letter-spacing="0.02em"><tspan x="0.0469971" y="141.392">BAD FAITH</tspan></text>
<rect x="490.957" y="216.156" width="40.0346" height="166.347" transform="rotate(-31.9302 490.957 216.156)" fill="#91701E" stroke="#9B7B29" stroke-width="2.50216"/>
<circle cx="517.291" cy="220.065" r="7.08581" transform="rotate(8.34566 517.291 220.065)" fill="#61605C"/>
<circle cx="587.351" cy="333.662" r="7.08581" transform="rotate(8.34566 587.351 333.662)" fill="#61605C"/>
<rect x="1258.65" y="178.224" width="42.5368" height="168.849" transform="rotate(-31.9302 1258.65 178.224)" fill="#91701E"/>
<g filter="url(#filter4_d_3_34)">
<rect x="1258.65" y="178.224" width="42.5368" height="168.849" transform="rotate(-31.9302 1258.65 178.224)" fill="#91701E"/>
<rect x="1260.37" y="178.624" width="40.0346" height="166.347" transform="rotate(-31.9302 1260.37 178.624)" stroke="#9B7B29" stroke-width="2.50216"/>
</g>
<circle cx="1287.96" cy="185.034" r="7.08581" transform="rotate(8.34566 1287.96 185.034)" fill="#61605C"/>
<circle cx="1356.77" cy="295.13" r="7.08581" transform="rotate(8.34566 1356.77 295.13)" fill="#61605C"/>
<rect x="40" y="8" width="61.7266" height="26" rx="2" fill="#DEE7B9"/>
<rect x="40.5" y="8.5" width="60.7266" height="25" rx="1.5" stroke="black" stroke-opacity="0.14902"/>
<text fill="black" xml:space="preserve" style="white-space: pre" font-family="Inter" font-size="11" letter-spacing="0em"><tspan x="44" y="23.5">EntryPage</tspan></text>
<defs>
<filter id="filter0_d_3_34" x="1058.18" y="614" width="130.084" height="162.084" filterUnits="userSpaceOnUse" color-interpolation-filters="sRGB">
<feFlood flood-opacity="0" result="BackgroundImageFix"/>
<feColorMatrix in="SourceAlpha" type="matrix" values="0 0 0 0 0 0 0 0 0 0 0 0 0 0 0 0 0 0 127 0" result="hardAlpha"/>
<feOffset dx="-0.781421" dy="1.04189"/>
<feGaussianBlur stdDeviation="0.520947"/>
<feComposite in2="hardAlpha" operator="out"/>
<feColorMatrix type="matrix" values="0 0 0 0 0 0 0 0 0 0 0 0 0 0 0 0 0 0 0.25 0"/>
<feBlend mode="normal" in2="BackgroundImageFix" result="effect1_dropShadow_3_34"/>
<feBlend mode="normal" in="SourceGraphic" in2="effect1_dropShadow_3_34" result="shape"/>
</filter>
<filter id="filter1_d_3_34" x="1103.61" y="609.61" width="38.78" height="16.78" filterUnits="userSpaceOnUse" color-interpolation-filters="sRGB">
<feFlood flood-opacity="0" result="BackgroundImageFix"/>
<feColorMatrix in="SourceAlpha" type="matrix" values="0 0 0 0 0 0 0 0 0 0 0 0 0 0 0 0 0 0 127 0" result="hardAlpha"/>
<feOffset dy="4"/>
<feGaussianBlur stdDeviation="2"/>
<feComposite in2="hardAlpha" operator="out"/>
<feColorMatrix type="matrix" values="0 0 0 0 0 0 0 0 0 0 0 0 0 0 0 0 0 0 0.25 0"/>
<feBlend mode="normal" in2="BackgroundImageFix" result="effect1_dropShadow_3_34"/>
<feBlend mode="normal" in="SourceGraphic" in2="effect1_dropShadow_3_34" result="shape"/>
</filter>
<filter id="filter2_d_3_34" x="1103.61" y="765.61" width="38.78" height="16.78" filterUnits="userSpaceOnUse" color-interpolation-filters="sRGB">
<feFlood flood-opacity="0" result="BackgroundImageFix"/>
<feColorMatrix in="SourceAlpha" type="matrix" values="0 0 0 0 0 0 0 0 0 0 0 0 0 0 0 0 0 0 127 0" result="hardAlpha"/>
<feOffset dy="2"/>
<feGaussianBlur stdDeviation="2"/>
<feComposite in2="hardAlpha" operator="out"/>
<feColorMatrix type="matrix" values="0 0 0 0 0 0 0 0 0 0 0 0 0 0 0 0 0 0 0.25 0"/>
<feBlend mode="normal" in2="BackgroundImageFix" result="effect1_dropShadow_3_34"/>
<feBlend mode="normal" in="SourceGraphic" in2="effect1_dropShadow_3_34" result="shape"/>
</filter>
<filter id="filter3_d_3_34" x="521.032" y="88.7654" width="839.578" height="342.764" filterUnits="userSpaceOnUse" color-interpolation-filters="sRGB">
<feFlood flood-opacity="0" result="BackgroundImageFix"/>
<feColorMatrix in="SourceAlpha" type="matrix" values="0 0 0 0 0 0 0 0 0 0 0 0 0 0 0 0 0 0 127 0" result="hardAlpha"/>
<feOffset dy="1.32726"/>
<feGaussianBlur stdDeviation="0.663631"/>
<feComposite in2="hardAlpha" operator="out"/>
<feColorMatrix type="matrix" values="0 0 0 0 0 0 0 0 0 0 0 0 0 0 0 0 0 0 0.25 0"/>
<feBlend mode="normal" in2="BackgroundImageFix" result="effect1_dropShadow_3_34"/>
<feBlend mode="normal" in="SourceGraphic" in2="effect1_dropShadow_3_34" result="shape"/>
</filter>
<filter id="filter4_d_3_34" x="1253.64" y="155.727" width="135.411" height="175.807" filterUnits="userSpaceOnUse" color-interpolation-filters="sRGB">
<feFlood flood-opacity="0" result="BackgroundImageFix"/>
<feColorMatrix in="SourceAlpha" type="matrix" values="0 0 0 0 0 0 0 0 0 0 0 0 0 0 0 0 0 0 127 0" result="hardAlpha"/>
<feOffset dy="5.00433"/>
<feGaussianBlur stdDeviation="2.50216"/>
<feComposite in2="hardAlpha" operator="out"/>
<feColorMatrix type="matrix" values="0 0 0 0 0 0 0 0 0 0 0 0 0 0 0 0 0 0 0.25 0"/>
<feBlend mode="normal" in2="BackgroundImageFix" result="effect1_dropShadow_3_34"/>
<feBlend mode="normal" in="SourceGraphic" in2="effect1_dropShadow_3_34" result="shape"/>
</filter>
</defs>
</svg>
