<svg width="2000" height="1160" viewBox="0 0 2000 1160" fill="none" xmlns="http://www.w3.org/2000/svg">
<rect width="1920" height="1080" transform="translate(40 40)" fill="#420C14"/>
<path d="M183.714 992.642C183.714 993.346 183.938 993.954 184.386 994.466C184.834 994.946 185.426 995.186 186.162 995.186H186.738C187.346 995.186 188.37 995.17 189.81 995.138C191.282 995.138 192.882 995.138 194.61 995.138C196.338 995.138 197.922 995.138 199.362 995.138C200.834 995.106 201.89 995.09 202.53 995.09C203.426 994.93 204.258 994.658 205.026 994.274C205.826 993.89 206.626 993.474 207.426 993.026C208.002 992.514 208.514 991.906 208.962 991.202C209.41 990.498 209.778 989.746 210.066 988.946C210.386 988.146 210.626 987.346 210.786 986.546C210.946 985.714 211.026 984.93 211.026 984.194C211.026 983.17 210.898 982.274 210.642 981.506C210.386 980.706 210.002 979.842 209.49 978.914C209.362 978.722 209.186 978.53 208.962 978.338C208.738 978.146 208.514 977.938 208.29 977.714C208.066 977.49 207.858 977.282 207.666 977.09C207.506 976.866 207.426 976.658 207.426 976.466C207.426 976.114 207.602 975.698 207.954 975.218C208.306 974.738 208.562 974.402 208.722 974.21C209.106 973.634 209.394 972.962 209.586 972.194C209.778 971.426 209.874 970.69 209.874 969.986C209.874 968.546 209.65 967.298 209.202 966.242C208.786 965.154 208.178 964.242 207.378 963.506C206.578 962.77 205.602 962.178 204.45 961.73C203.33 961.25 202.066 960.898 200.658 960.674H199.698C198.354 960.674 197.026 960.77 195.714 960.962C194.402 961.154 193.074 961.25 191.73 961.25H188.802C188.226 961.09 187.746 960.994 187.362 960.962C186.978 960.898 186.53 960.866 186.018 960.866C185.314 960.866 184.754 961.09 184.338 961.538C183.922 961.954 183.714 962.514 183.714 963.218C183.714 964.114 184.018 964.77 184.626 965.186C185.266 965.57 186.002 965.762 186.834 965.762C187.218 965.762 187.586 965.73 187.938 965.666C188.322 965.602 188.706 965.57 189.09 965.57H189.426C189.682 965.57 189.954 965.618 190.242 965.714C190.53 965.81 190.674 965.954 190.674 966.146V990.386L190.482 990.578C190.45 990.578 190.322 990.594 190.098 990.626C189.906 990.626 189.762 990.626 189.666 990.626C189.09 990.626 188.53 990.594 187.986 990.53C187.442 990.434 186.898 990.386 186.354 990.386H185.202C184.21 990.802 183.714 991.554 183.714 992.642ZM195.714 978.914C195.938 978.914 196.13 978.946 196.29 979.01C196.482 979.074 196.69 979.106 196.914 979.106C197.138 979.106 197.314 979.09 197.442 979.058C197.57 979.026 197.762 978.914 198.018 978.722H203.442C203.506 978.722 203.65 978.802 203.874 978.962C204.13 979.09 204.306 979.202 204.402 979.298L206.658 981.554C206.946 981.874 207.074 982.306 207.042 982.85C207.042 983.394 207.042 983.874 207.042 984.29C207.042 985.122 206.978 985.858 206.85 986.498C206.754 987.138 206.546 987.714 206.226 988.226C205.906 988.706 205.474 989.138 204.93 989.522C204.418 989.906 203.746 990.258 202.914 990.578C201.794 990.61 200.69 990.69 199.602 990.818C198.546 990.914 197.474 990.962 196.386 990.962C196.194 990.962 195.906 990.914 195.522 990.818C195.17 990.69 194.994 990.482 194.994 990.194V979.49C194.994 979.426 195.058 979.33 195.186 979.202C195.346 979.074 195.474 978.978 195.57 978.914H195.714ZM194.994 965.57H200.994C201.634 965.73 202.146 965.842 202.53 965.906C202.946 965.938 203.314 966.018 203.634 966.146C203.954 966.242 204.242 966.434 204.498 966.722C204.786 966.978 205.122 967.41 205.506 968.018C205.634 968.146 205.698 968.274 205.698 968.402V971.57C205.698 971.89 205.602 972.194 205.41 972.482C205.25 972.77 205.042 973.042 204.786 973.298C204.53 973.522 204.258 973.73 203.97 973.922C203.714 974.114 203.474 974.274 203.25 974.402C202.386 974.466 201.394 974.514 200.274 974.546C199.154 974.578 198.082 974.594 197.058 974.594H196.482C196.162 974.594 195.826 974.562 195.474 974.498C195.154 974.402 194.994 974.178 194.994 973.826V965.57ZM212.986 987.41C212.986 988.914 213.274 990.242 213.85 991.394C214.458 992.514 215.418 993.458 216.73 994.226C216.986 994.386 217.242 994.562 217.498 994.754C217.754 994.914 218.058 994.994 218.41 994.994H222.73C223.274 994.994 223.802 994.898 224.314 994.706C224.826 994.482 225.322 994.226 225.802 993.938C226.282 993.618 226.746 993.298 227.194 992.978C227.674 992.658 228.138 992.386 228.586 992.162H228.826C229.05 992.162 229.242 992.242 229.402 992.402C229.594 992.562 229.754 992.754 229.882 992.978C230.042 993.17 230.186 993.378 230.314 993.602C230.474 993.794 230.65 993.938 230.842 994.034C231.386 994.386 231.882 994.642 232.33 994.802C232.778 994.93 233.306 994.994 233.914 994.994C234.682 994.994 235.354 994.818 235.93 994.466C236.538 994.114 237.034 993.666 237.418 993.122C237.834 992.546 238.154 991.906 238.378 991.202C238.602 990.498 238.714 989.794 238.714 989.09C238.714 988.77 238.682 988.45 238.618 988.13C238.554 987.778 238.442 987.458 238.282 987.17C238.122 986.882 237.914 986.642 237.658 986.45C237.402 986.258 237.098 986.162 236.746 986.162C236.074 986.162 235.626 986.386 235.402 986.834C235.21 987.282 235.066 987.794 234.97 988.37C234.874 988.914 234.762 989.41 234.634 989.858C234.506 990.306 234.186 990.53 233.674 990.53C232.906 990.53 232.522 990.082 232.522 989.186V981.074C232.682 980.69 232.746 980.258 232.714 979.778C232.714 979.266 232.714 978.818 232.714 978.434V976.946C232.714 976.85 232.682 976.69 232.618 976.466C232.586 976.21 232.538 975.954 232.474 975.698C232.41 975.41 232.346 975.138 232.282 974.882C232.218 974.626 232.17 974.45 232.138 974.354C232.042 973.97 231.786 973.506 231.37 972.962C230.986 972.418 230.522 971.906 229.978 971.426C229.466 970.946 228.922 970.53 228.346 970.178C227.802 969.826 227.322 969.65 226.906 969.65H219.562C219.05 969.65 218.602 969.81 218.218 970.13C217.834 970.418 217.466 970.69 217.114 970.946C216.698 971.234 216.282 971.554 215.866 971.906C215.45 972.226 215.082 972.578 214.762 972.962C214.442 973.346 214.186 973.762 213.994 974.21C213.802 974.658 213.706 975.17 213.706 975.746C213.706 976.738 214.026 977.57 214.666 978.242C215.338 978.914 216.186 979.25 217.21 979.25C217.882 979.25 218.41 979.122 218.794 978.866C219.21 978.578 219.514 978.242 219.706 977.858C219.93 977.442 220.09 976.994 220.186 976.514C220.282 976.034 220.362 975.602 220.426 975.218C220.522 974.802 220.618 974.466 220.714 974.21C220.81 973.922 220.986 973.778 221.242 973.778H225.754C225.786 973.778 225.994 973.874 226.378 974.066C226.762 974.258 227.05 974.402 227.242 974.498C227.754 974.786 228.106 975.17 228.298 975.65C228.49 976.13 228.586 976.642 228.586 977.186C228.586 977.954 228.202 978.466 227.434 978.722C226.666 978.978 225.706 979.154 224.554 979.25C223.402 979.346 222.138 979.458 220.762 979.586C219.418 979.682 218.17 979.986 217.018 980.498C215.866 980.978 214.906 981.762 214.138 982.85C213.37 983.906 212.986 985.426 212.986 987.41ZM216.73 987.362C216.73 987.01 216.842 986.594 217.066 986.114C217.322 985.634 217.53 985.282 217.69 985.058C218.01 984.578 218.378 984.322 218.794 984.29C219.594 984.162 220.378 984.066 221.146 984.002C221.946 983.938 222.73 983.842 223.498 983.714C223.594 983.714 223.85 983.682 224.266 983.618C224.714 983.522 225.178 983.442 225.658 983.378C226.138 983.282 226.586 983.202 227.002 983.138C227.45 983.042 227.722 982.994 227.818 982.994L227.914 982.946C227.946 982.946 227.962 982.962 227.962 982.994C227.994 982.994 228.01 982.994 228.01 982.994C228.042 982.994 228.106 983.026 228.202 983.09C228.298 983.122 228.362 983.138 228.394 983.138V983.714C228.394 985.09 228.186 986.21 227.77 987.074C227.354 987.938 226.554 988.77 225.37 989.57C225.306 989.602 225.146 989.682 224.89 989.81C224.666 989.938 224.522 990.034 224.458 990.098C224.33 990.162 224.17 990.242 223.978 990.338C223.818 990.434 223.722 990.482 223.69 990.482H218.794C218.474 990.482 218.186 990.37 217.93 990.146C217.674 989.922 217.45 989.65 217.258 989.33C217.098 988.978 216.97 988.626 216.874 988.274C216.778 987.922 216.73 987.618 216.73 987.362ZM240.664 982.658C240.664 984.13 240.936 985.602 241.48 987.074C242.056 988.546 242.84 989.874 243.832 991.058C244.824 992.21 245.992 993.154 247.336 993.89C248.68 994.626 250.136 994.994 251.704 994.994C252.76 994.994 253.832 994.77 254.92 994.322C256.008 993.874 256.984 993.282 257.848 992.546C258.744 991.778 259.464 990.898 260.008 989.906C260.584 988.914 260.872 987.858 260.872 986.738C260.872 986.194 260.744 985.714 260.488 985.298C260.232 984.85 259.816 984.626 259.24 984.626C258.856 984.626 258.52 984.77 258.232 985.058C257.944 985.314 257.672 985.65 257.416 986.066C257.16 986.45 256.904 986.882 256.648 987.362C256.424 987.842 256.152 988.29 255.832 988.706C255.544 989.09 255.208 989.426 254.824 989.714C254.44 989.97 253.992 990.098 253.48 990.098H249.352C249.288 990.098 249.144 990.034 248.92 989.906C248.696 989.746 248.536 989.618 248.44 989.522C248.344 989.426 248.168 989.266 247.912 989.042C247.688 988.818 247.448 988.578 247.192 988.322C246.936 988.066 246.696 987.826 246.472 987.602C246.248 987.346 246.088 987.17 245.992 987.074C245.544 986.402 245.24 985.586 245.08 984.626C244.92 983.634 244.84 982.738 244.84 981.938C244.84 981.042 244.904 980.178 245.032 979.346C245.16 978.514 245.384 977.746 245.704 977.042C246.024 976.338 246.456 975.714 247 975.17C247.576 974.594 248.296 974.114 249.16 973.73C249.32 973.666 249.528 973.602 249.784 973.538C250.072 973.442 250.248 973.394 250.312 973.394H253.48C253.64 973.394 253.832 973.506 254.056 973.73C254.28 973.954 254.408 974.082 254.44 974.114V974.882C254.44 975.33 254.376 975.73 254.248 976.082C254.12 976.402 254.056 976.77 254.056 977.186C254.056 978.146 254.392 978.978 255.064 979.682C255.736 980.386 256.568 980.738 257.56 980.738C258.104 980.738 258.568 980.626 258.952 980.402C259.368 980.146 259.704 979.826 259.96 979.442C260.248 979.058 260.456 978.626 260.584 978.146C260.744 977.634 260.824 977.138 260.824 976.658C260.824 975.922 260.68 975.234 260.392 974.594C260.104 973.922 259.72 973.314 259.24 972.77C258.792 972.194 258.28 971.666 257.704 971.186C257.16 970.706 256.632 970.242 256.12 969.794C255.992 969.762 255.752 969.698 255.4 969.602C255.048 969.474 254.664 969.362 254.248 969.266C253.864 969.17 253.48 969.09 253.096 969.026C252.744 968.93 252.504 968.882 252.376 968.882C252.344 968.85 252.184 968.834 251.896 968.834C251.64 968.834 251.432 968.834 251.272 968.834C249.48 968.834 247.912 969.266 246.568 970.13C245.256 970.962 244.152 972.05 243.256 973.394C242.392 974.706 241.736 976.194 241.288 977.858C240.872 979.49 240.664 981.09 240.664 982.658ZM262.859 992.786C262.859 993.618 263.147 994.194 263.723 994.514C264.331 994.802 264.987 995.01 265.691 995.138H267.851C268.619 995.138 269.371 995.106 270.107 995.042C270.843 994.978 271.595 994.946 272.363 994.946C272.811 994.946 273.243 994.978 273.659 995.042C274.107 995.106 274.555 995.138 275.003 995.138C275.547 995.138 276.043 994.978 276.491 994.658C276.971 994.338 277.435 994.178 277.883 994.178C278.139 994.178 278.395 994.258 278.651 994.418C278.907 994.578 279.163 994.69 279.419 994.754C279.707 994.818 280.123 994.898 280.667 994.994C281.211 995.09 281.611 995.138 281.867 995.138H284.747H287.675C287.963 995.074 288.267 995.01 288.587 994.946C288.907 994.85 289.195 994.738 289.451 994.61C289.707 994.45 289.915 994.258 290.075 994.034C290.267 993.81 290.363 993.522 290.363 993.17C290.363 993.106 290.347 992.994 290.315 992.834C290.315 992.642 290.315 992.53 290.315 992.498C290.123 991.762 289.835 991.218 289.451 990.866C289.099 990.514 288.667 990.274 288.155 990.146C287.675 989.986 287.131 989.906 286.523 989.906C285.947 989.874 285.339 989.858 284.699 989.858C284.155 989.442 283.755 988.946 283.499 988.37C283.275 987.794 282.971 987.234 282.587 986.69C282.555 986.626 282.443 986.482 282.251 986.258C282.091 986.034 281.899 985.794 281.675 985.538C281.451 985.282 281.243 985.058 281.051 984.866C280.859 984.642 280.747 984.498 280.715 984.434C280.299 983.89 279.851 983.298 279.371 982.658C278.891 982.018 278.651 981.362 278.651 980.69C278.651 980.306 278.715 980.002 278.843 979.778C279.003 979.554 279.195 979.362 279.419 979.202C279.643 979.042 279.883 978.882 280.139 978.722C280.427 978.562 280.683 978.386 280.907 978.194C281.195 977.97 281.499 977.666 281.819 977.282C282.171 976.898 282.555 976.514 282.971 976.13C283.387 975.746 283.803 975.41 284.219 975.122C284.667 974.834 285.131 974.674 285.611 974.642C286.027 974.61 286.427 974.594 286.811 974.594C287.227 974.594 287.595 974.546 287.915 974.45C288.235 974.354 288.491 974.194 288.683 973.97C288.907 973.714 289.019 973.314 289.019 972.77C289.019 971.97 288.715 971.394 288.107 971.042C287.499 970.658 286.779 970.402 285.947 970.274C285.147 970.114 284.315 970.05 283.451 970.082C282.619 970.082 281.963 970.082 281.483 970.082C281.387 970.082 281.227 970.082 281.003 970.082C280.779 970.082 280.523 970.098 280.235 970.13C279.979 970.13 279.739 970.13 279.515 970.13C279.291 970.13 279.131 970.13 279.035 970.13C278.587 970.258 278.187 970.466 277.835 970.754C277.483 971.01 277.307 971.394 277.307 971.906C277.307 972.45 277.499 972.93 277.883 973.346C278.299 973.73 278.683 974.098 279.035 974.45C278.971 974.514 278.843 974.674 278.651 974.93C278.459 975.186 278.331 975.346 278.267 975.41C278.075 975.602 277.739 975.938 277.259 976.418C276.811 976.898 276.315 977.41 275.771 977.954C275.227 978.498 274.715 979.01 274.235 979.49C273.755 979.938 273.419 980.258 273.227 980.45C273.195 980.45 273.147 980.466 273.083 980.498C273.051 980.498 273.035 980.498 273.035 980.498C272.971 980.498 272.891 980.498 272.795 980.498C272.699 980.466 272.651 980.386 272.651 980.258V969.554C272.747 969.266 272.795 969.026 272.795 968.834C272.827 968.642 272.843 968.418 272.843 968.162C272.843 967.266 272.795 966.466 272.699 965.762C272.603 965.058 272.587 964.194 272.651 963.17C272.555 962.402 272.187 961.81 271.547 961.394C270.939 960.946 270.267 960.722 269.531 960.722H269.435C269.371 960.722 269.179 960.754 268.859 960.818C268.571 960.882 268.395 960.914 268.331 960.914H268.235H268.139C268.075 960.914 267.883 960.882 267.563 960.818C267.243 960.754 267.051 960.722 266.987 960.722H266.699C265.963 960.722 265.259 960.93 264.587 961.346C263.915 961.762 263.579 962.37 263.579 963.17C263.579 963.778 263.707 964.226 263.963 964.514C264.251 964.802 264.603 964.994 265.019 965.09C265.435 965.186 265.899 965.234 266.411 965.234C266.955 965.234 267.467 965.234 267.947 965.234C268.107 965.362 268.267 965.554 268.427 965.81C268.587 966.066 268.667 966.306 268.667 966.53V982.178L268.427 983.09V989.858C268.427 989.858 268.363 989.89 268.235 989.954C268.107 989.986 268.011 990.018 267.947 990.05L267.371 990.242H264.155C263.995 990.242 263.835 990.354 263.675 990.578C263.515 990.77 263.371 991.01 263.243 991.298C263.115 991.586 263.019 991.874 262.955 992.162C262.891 992.45 262.859 992.658 262.859 992.786ZM275.483 983.474C275.611 983.474 275.899 983.794 276.347 984.434C276.795 985.042 277.259 985.746 277.739 986.546C278.219 987.314 278.651 988.066 279.035 988.802C279.419 989.538 279.611 990.018 279.611 990.242C279.611 990.626 279.403 991.01 278.987 991.394C278.571 991.778 278.187 991.97 277.835 991.97C277.771 991.97 277.707 991.97 277.643 991.97C277.579 991.97 277.547 991.954 277.547 991.922C277.483 991.922 277.355 991.842 277.163 991.682C276.971 991.522 276.843 991.426 276.779 991.394C276.651 991.33 276.363 991.266 275.915 991.202C275.467 991.106 275.003 990.994 274.523 990.866C274.043 990.738 273.611 990.594 273.227 990.434C272.843 990.274 272.651 990.082 272.651 989.858V985.922C272.683 985.89 272.747 985.81 272.843 985.682C272.971 985.522 273.131 985.33 273.323 985.106C273.515 984.882 273.659 984.722 273.755 984.626C273.979 984.37 274.235 984.114 274.523 983.858C274.811 983.602 275.131 983.474 275.483 983.474Z" fill="white"/>
<mask id="path-2-inside-1_3_34" fill="white">
<path fill-rule="evenodd" clip-rule="evenodd" d="M506 40C589.59 226.012 779.279 355.868 999.9 355.868L999.9 40H506ZM1002.9 40L1002.9 355.86C1222.24 354.689 1410.59 225.169 1493.8 40H1002.9Z"/>
</mask>
<path fill-rule="evenodd" clip-rule="evenodd" d="M506 40C589.59 226.012 779.279 355.868 999.9 355.868L999.9 40H506ZM1002.9 40L1002.9 355.86C1222.24 354.689 1410.59 225.169 1493.8 40H1002.9Z" fill="white"/>
<path d="M506 40V37H501.363L503.264 41.2297L506 40ZM999.9 355.868V358.868H1002.9V355.868H999.9ZM999.9 40L1002.9 40V37H999.9V40ZM1002.9 355.86H999.9V358.876L1002.92 358.86L1002.9 355.86ZM1002.9 40V37H999.9V40L1002.9 40ZM1493.8 40L1496.54 41.2297L1498.44 37H1493.8V40ZM503.264 41.2297C587.331 228.303 778.08 358.868 999.9 358.868V352.868C780.477 352.868 591.849 223.72 508.736 38.7703L503.264 41.2297ZM1002.9 355.868L1002.9 40L996.9 40L996.9 355.868H1002.9ZM999.9 37H506V43H999.9V37ZM1005.9 355.86L1005.9 40L999.9 40L999.9 355.86H1005.9ZM1491.07 38.7703C1408.33 222.882 1221.03 351.696 1002.88 352.86L1002.92 358.86C1223.45 357.683 1412.85 227.455 1496.54 41.2297L1491.07 38.7703ZM1493.8 37H1002.9V43H1493.8V37Z" fill="black" mask="url(#path-2-inside-1_3_34)"/>
<rect x="40" y="8" width="36.5" height="26" rx="2" fill="#420C14"/>
<rect x="40.5" y="8.5" width="35.5" height="25" rx="1.5" stroke="black" stroke-opacity="0.14902"/>
<path d="M44.9688 24V16H45.9375V23.1406H49.6563V24H44.9688ZM53.4688 24.125C52.9271 24.125 52.4518 23.9961 52.043 23.7383C51.6367 23.4805 51.319 23.1198 51.0898 22.6562C50.8633 22.1927 50.75 21.651 50.75 21.0312C50.75 20.4062 50.8633 19.8607 51.0898 19.3945C51.319 18.9284 51.6367 18.5664 52.043 18.3086C52.4518 18.0508 52.9271 17.9219 53.4688 17.9219C54.0104 17.9219 54.4844 18.0508 54.8906 18.3086C55.2995 18.5664 55.6172 18.9284 55.8438 19.3945C56.0729 19.8607 56.1875 20.4062 56.1875 21.0312C56.1875 21.651 56.0729 22.1927 55.8438 22.6562C55.6172 23.1198 55.2995 23.4805 54.8906 23.7383C54.4844 23.9961 54.0104 24.125 53.4688 24.125ZM53.4688 23.2969C53.8802 23.2969 54.2187 23.1914 54.4844 22.9805C54.75 22.7695 54.9466 22.4922 55.0742 22.1484C55.2018 21.8047 55.2656 21.4323 55.2656 21.0312C55.2656 20.6302 55.2018 20.2565 55.0742 19.9102C54.9466 19.5638 54.75 19.2839 54.4844 19.0703C54.2187 18.8568 53.8802 18.75 53.4688 18.75C53.0573 18.75 52.7188 18.8568 52.4531 19.0703C52.1875 19.2839 51.9909 19.5638 51.8633 19.9102C51.7357 20.2565 51.6719 20.6302 51.6719 21.0312C51.6719 21.4323 51.7357 21.8047 51.8633 22.1484C51.9909 22.4922 52.1875 22.7695 52.4531 22.9805C52.7188 23.1914 53.0573 23.2969 53.4688 23.2969ZM60.0166 26.375C59.5713 26.375 59.1885 26.3177 58.8682 26.2031C58.5479 26.0911 58.2809 25.9427 58.0674 25.7578C57.8564 25.5755 57.6885 25.3802 57.5635 25.1719L58.2979 24.6563C58.3812 24.7656 58.4867 24.8906 58.6143 25.0312C58.7419 25.1745 58.9163 25.2982 59.1377 25.4023C59.3617 25.5091 59.6546 25.5625 60.0166 25.5625C60.501 25.5625 60.9007 25.4453 61.2158 25.2109C61.5309 24.9766 61.6885 24.6094 61.6885 24.1094V22.8906H61.6104C61.5426 23 61.4463 23.1354 61.3213 23.2969C61.1989 23.4557 61.0218 23.5977 60.79 23.7227C60.5609 23.8451 60.251 23.9062 59.8604 23.9062C59.376 23.9062 58.9411 23.7917 58.5557 23.5625C58.1729 23.3333 57.8695 23 57.6455 22.5625C57.4242 22.125 57.3135 21.5937 57.3135 20.9687C57.3135 20.3542 57.4215 19.819 57.6377 19.3633C57.8538 18.9049 58.1546 18.5508 58.54 18.3008C58.9255 18.0482 59.3708 17.9219 59.876 17.9219C60.2666 17.9219 60.5765 17.987 60.8057 18.1172C61.0374 18.2448 61.2145 18.3906 61.3369 18.5547C61.4619 18.7161 61.5583 18.849 61.626 18.9531H61.7197V18H62.6104V24.1719C62.6104 24.6875 62.4932 25.1068 62.2588 25.4297C62.027 25.7552 61.7145 25.9935 61.3213 26.1445C60.9307 26.2982 60.4958 26.375 60.0166 26.375ZM59.9854 23.0781C60.3551 23.0781 60.6676 22.9935 60.9229 22.8242C61.1781 22.6549 61.3721 22.4115 61.5049 22.0938C61.6377 21.776 61.7041 21.3958 61.7041 20.9531C61.7041 20.5208 61.639 20.1393 61.5088 19.8086C61.3786 19.4779 61.1859 19.2187 60.9307 19.0312C60.6755 18.8437 60.3604 18.75 59.9854 18.75C59.5947 18.75 59.2692 18.849 59.0088 19.0469C58.751 19.2448 58.557 19.5104 58.4268 19.8438C58.2992 20.1771 58.2354 20.5469 58.2354 20.9531C58.2354 21.3698 58.3005 21.7383 58.4307 22.0586C58.5635 22.3763 58.7588 22.6263 59.0166 22.8086C59.277 22.9883 59.5999 23.0781 59.9854 23.0781ZM64.2979 24V18H65.2197V24H64.2979ZM64.7666 17C64.5869 17 64.432 16.9388 64.3018 16.8164C64.1742 16.694 64.1104 16.5469 64.1104 16.375C64.1104 16.2031 64.1742 16.056 64.3018 15.9336C64.432 15.8112 64.5869 15.75 64.7666 15.75C64.9463 15.75 65.0999 15.8112 65.2275 15.9336C65.3577 16.056 65.4229 16.2031 65.4229 16.375C65.4229 16.5469 65.3577 16.694 65.2275 16.8164C65.0999 16.9388 64.9463 17 64.7666 17ZM67.8301 20.3906V24H66.9082V18H67.7988V18.9375H67.877C68.0176 18.6328 68.2311 18.388 68.5176 18.2031C68.804 18.0156 69.1738 17.9219 69.627 17.9219C70.0332 17.9219 70.3887 18.0052 70.6934 18.1719C70.998 18.3359 71.235 18.5859 71.4043 18.9219C71.5736 19.2552 71.6582 19.6771 71.6582 20.1875V24H70.7363V20.25C70.7363 19.7786 70.6139 19.4115 70.3691 19.1484C70.1243 18.8828 69.7884 18.75 69.3613 18.75C69.0671 18.75 68.804 18.8138 68.5723 18.9414C68.3431 19.069 68.1621 19.2552 68.0293 19.5C67.8965 19.7448 67.8301 20.0417 67.8301 20.3906Z" fill="white"/>
</svg>
