<svg width="900" height="344" viewBox="0 0 900 344" fill="none" xmlns="http://www.w3.org/2000/svg">
<g filter="url(#filter0_d_103_977)">
<rect x="72.7126" y="10" width="796.358" height="207.901" transform="rotate(8.34566 72.7126 10)" fill="#732C2C"/>
<rect x="69.2109" y="5.29421" width="804.653" height="216.197" transform="rotate(8.34566 69.2109 5.29421)" stroke="white" stroke-width="8.29539"/>
</g>
<path d="M85.8793 163.843C85.5838 165.857 85.9695 167.69 87.0363 169.343C88.1165 170.904 89.7094 171.839 91.815 172.148L93.4629 172.39C95.2023 172.645 98.1385 173.029 102.272 173.542C106.483 174.16 111.06 174.831 116.004 175.556C120.947 176.282 125.479 176.946 129.599 177.551C133.823 178.077 136.851 178.474 138.682 178.743C141.313 178.661 143.807 178.232 146.165 177.456C148.615 176.693 151.078 175.839 153.555 174.893C155.418 173.67 157.138 172.145 158.715 170.319C160.292 168.493 161.661 166.496 162.82 164.329C164.071 162.174 165.094 159.986 165.887 157.765C166.694 155.451 167.252 153.242 167.561 151.137C167.991 148.207 168.001 145.59 167.591 143.285C167.194 140.889 166.458 138.256 165.383 135.386C165.097 134.783 164.674 134.16 164.114 133.517C163.554 132.874 163 132.185 162.453 131.45C161.906 130.715 161.399 130.033 160.93 129.403C160.566 128.695 160.425 128.066 160.505 127.517C160.653 126.51 161.331 125.394 162.539 124.168C163.748 122.943 164.621 122.089 165.16 121.607C166.5 120.12 167.606 118.318 168.478 116.202C169.349 114.085 169.933 112.02 170.228 110.006C170.832 105.886 170.715 102.222 169.877 99.0126C169.143 95.7254 167.787 92.8611 165.807 90.4198C163.827 87.9784 161.283 85.8751 158.176 84.11C155.173 82.2667 151.705 80.7292 147.77 79.4975L145.024 79.0946C141.179 78.5305 137.339 78.2478 133.505 78.2465C129.671 78.2451 125.832 77.9624 121.987 77.3984L113.61 76.1695C112.029 75.4701 110.697 74.994 109.611 74.7413C108.54 74.397 107.271 74.1174 105.807 73.9026C103.793 73.6071 102.097 74.0129 100.718 75.12C99.3536 76.1355 98.5236 77.6503 98.2281 79.6644C97.8521 82.2277 98.4465 84.232 100.011 85.6773C101.681 87.0445 103.706 87.9027 106.086 88.2519C107.185 88.413 108.251 88.4759 109.285 88.4406C110.41 88.4186 111.522 88.4882 112.621 88.6494L113.582 88.7904C114.315 88.8978 115.073 89.1493 115.856 89.5448C116.64 89.9403 116.992 90.4127 116.911 90.962L106.738 160.31L106.108 160.778C106.016 160.765 105.643 160.757 104.989 160.755C104.44 160.674 104.028 160.613 103.753 160.573C102.105 160.331 100.517 160.005 98.9873 159.593C97.4713 159.091 95.9351 158.725 94.3788 158.497L91.0831 158.013C88.0705 158.787 86.3359 160.73 85.8793 163.843ZM125.971 129.605C126.612 129.699 127.148 129.871 127.579 130.121C128.101 130.385 128.683 130.564 129.324 130.658C129.965 130.752 130.475 130.78 130.854 130.742C131.234 130.704 131.83 130.464 132.643 130.023L148.161 132.299C148.344 132.326 148.722 132.615 149.296 133.167C149.974 133.64 150.431 134.035 150.665 134.35L156.173 141.751C156.862 142.787 157.047 144.077 156.727 145.62C156.499 147.176 156.298 148.549 156.123 149.739C155.774 152.119 155.282 154.198 154.647 155.975C154.104 157.766 153.267 159.327 152.137 160.657C151.02 161.896 149.602 162.951 147.885 163.821C146.259 164.705 144.189 165.43 141.674 165.996C138.457 165.617 135.265 165.383 132.098 165.292C129.037 165.124 125.95 164.811 122.837 164.355C122.288 164.274 121.484 164.016 120.426 163.58C119.473 163.066 119.056 162.397 119.177 161.573L123.67 130.951C123.697 130.767 123.92 130.52 124.34 130.207C124.851 129.908 125.258 129.687 125.559 129.544L125.971 129.605ZM129.512 91.1272L146.677 93.6453C148.441 94.3717 149.858 94.907 150.93 95.2512C152.107 95.5174 153.126 95.9007 153.988 96.4012C154.863 96.8101 155.606 97.4803 156.218 98.4116C156.934 99.2649 157.714 100.642 158.558 102.542C158.87 102.962 159 103.355 158.946 103.722L157.616 112.785C157.482 113.7 157.08 114.53 156.41 115.273C155.831 116.03 155.122 116.721 154.282 117.346C153.456 117.879 152.59 118.36 151.686 118.788C150.873 119.23 150.119 119.587 149.424 119.859C146.926 119.68 144.068 119.401 140.85 119.022C137.632 118.644 134.559 118.24 131.629 117.81L129.981 117.568C129.066 117.434 128.118 117.201 127.138 116.871C126.263 116.462 125.899 115.754 126.047 114.747L129.512 91.1272ZM169.527 175.833C169.554 175.65 169.608 175.284 169.688 174.735C169.874 174.107 169.98 173.702 170.007 173.519C171.084 172.555 172.028 171.852 172.841 171.41C173.654 170.968 174.493 170.67 175.357 170.516C176.235 170.271 177.152 170.078 178.107 169.938C179.063 169.797 180.222 169.547 181.584 169.185C182.265 169.005 182.889 168.582 183.454 167.917C184.111 167.265 184.637 166.547 185.032 165.763C185.519 164.993 185.915 164.21 186.219 163.412C186.628 162.537 186.971 161.793 187.248 161.179C187.657 160.304 188.304 158.762 189.189 156.554C190.165 154.359 191.162 152.027 192.179 149.558C193.287 147.102 194.284 144.77 195.169 142.562C196.146 140.367 196.838 138.832 197.247 137.957C198.367 136.064 199.205 134.176 199.761 132.294C200.318 130.412 201.11 128.517 202.138 126.61C204.248 122.431 206.357 118.252 208.466 114.072C210.667 109.906 212.731 105.72 214.657 101.514C215.066 100.639 215.509 99.5345 215.985 98.2016C216.553 96.8821 217.198 95.6676 217.922 94.558C218.66 93.3569 219.546 92.4116 220.583 91.722C221.632 90.9408 222.89 90.6576 224.355 90.8725C226.002 91.1142 227.249 91.8583 228.095 93.1046C228.941 94.3509 229.524 95.7925 229.845 97.4294C230.271 98.9881 230.501 100.612 230.534 102.3C230.672 103.91 230.811 105.193 230.951 106.148C231.41 109.395 231.672 112.707 231.738 116.083C231.817 119.368 232.42 122.589 233.547 125.747L239.283 176.527C239.424 177.483 239.82 178.289 240.472 178.946C241.215 179.616 242.063 180.208 243.017 180.722C243.983 181.145 244.911 181.515 245.8 181.832C246.78 182.163 247.623 182.474 248.328 182.764C249.906 184.118 250.528 185.939 250.192 188.228C249.87 190.425 248.935 192.018 247.387 193.006C245.852 193.904 244.032 194.198 241.927 193.889C239.638 193.553 237.265 193.158 234.806 192.704C232.361 192.158 230.047 191.678 227.863 191.265C226.398 191.05 225.032 190.802 223.764 190.523C222.495 190.243 221.385 189.847 220.431 189.333C219.491 188.727 218.768 187.92 218.262 186.91C217.847 185.914 217.76 184.592 218.002 182.944L218.344 180.61C219.106 179.88 219.926 179.392 220.803 179.147C221.786 178.824 222.716 178.539 223.594 178.294C224.563 178.062 225.395 177.81 226.089 177.538C226.889 177.187 227.48 176.666 227.862 175.974C227.889 175.791 227.897 175.418 227.886 174.855C227.888 174.201 227.845 173.54 227.756 172.873C227.758 172.218 227.754 171.61 227.743 171.047C227.732 170.484 227.694 170.105 227.629 169.908C227.578 169.62 227.515 169.096 227.439 168.337C227.363 167.578 227.203 166.76 226.958 165.882C226.712 165.004 226.408 164.211 226.044 163.503C225.772 162.809 225.407 162.428 224.949 162.361L203.39 159.198C203.207 159.171 202.702 159.424 201.875 159.958C201.062 160.4 200.597 160.705 200.478 160.875L195.445 168.413C195.431 168.505 195.345 168.773 195.187 169.217C195.119 169.675 195.072 169.995 195.046 170.178C194.817 171.734 195.075 172.848 195.818 173.518C196.653 174.201 197.54 174.846 198.48 175.451C199.42 176.057 200.242 176.832 200.945 177.777C201.753 178.644 202.016 180.038 201.734 181.961C201.425 184.066 200.471 185.469 198.872 186.17C197.364 186.884 195.603 187.093 193.589 186.798C192.308 186.61 191.04 186.33 189.785 185.959C188.621 185.601 187.353 185.322 185.98 185.12C184.149 184.852 182.337 184.773 180.544 184.884C178.764 184.904 176.959 184.779 175.128 184.51C173.022 184.201 171.489 183.182 170.527 181.451C169.578 179.628 169.245 177.756 169.527 175.833ZM206.301 147C207.214 147.789 208.122 148.296 209.024 148.522C209.939 148.656 211.038 148.817 212.32 149.005C214.151 149.274 215.956 149.399 217.736 149.379C219.607 149.373 221.517 149.419 223.467 149.518L224.096 149.05C224.11 148.958 224.143 148.729 224.197 148.363C224.356 147.919 224.449 147.605 224.475 147.422C224.583 146.69 224.581 145.427 224.47 143.634C224.372 141.749 224.158 139.707 223.826 137.507C223.599 135.23 223.287 132.893 222.89 130.496C222.494 128.1 222.109 125.94 221.737 124.015C221.378 121.998 221.057 120.361 220.774 119.104C220.504 117.755 220.324 117.074 220.232 117.061C219.866 117.007 219.558 117.196 219.308 117.626C219.057 118.057 218.873 118.358 218.755 118.527C218.372 119.219 217.799 120.258 217.035 121.642C216.376 122.948 215.664 124.293 214.9 125.677C214.149 126.97 213.458 128.178 212.826 129.3C212.298 130.345 211.969 130.998 211.837 131.26C210.755 133.532 209.667 135.851 208.572 138.215C207.477 140.58 206.755 142.952 206.406 145.332C206.379 145.515 206.339 145.79 206.285 146.156C206.323 146.536 206.328 146.817 206.301 147ZM256.374 186.61C256.118 188.349 256.27 189.867 256.828 191.165C257.477 192.476 258.343 193.585 259.426 194.492C260.6 195.412 261.892 196.163 263.303 196.744C264.819 197.247 266.31 197.606 267.775 197.821L270.109 198.163C270.292 198.19 270.763 198.166 271.523 198.09C272.373 198.028 273.224 197.966 274.075 197.904C275.017 197.855 275.914 197.799 276.765 197.737C277.616 197.675 278.132 197.657 278.316 197.684C278.59 197.724 279.185 197.812 280.101 197.946C281.03 197.989 282.043 198.091 283.142 198.252C284.346 198.335 285.503 198.411 286.615 198.481C287.819 198.564 288.695 198.646 289.245 198.726C292.828 199.158 295.993 199.576 298.74 199.979C301.591 200.304 304.287 200.418 306.825 200.323C309.469 200.15 312.062 199.689 314.603 198.939C317.25 198.112 320.107 196.801 323.176 195.007C323.583 194.786 324.311 194.285 325.361 193.503C326.515 192.644 327.257 192.052 327.585 191.726C332.136 185.566 335.668 179.024 338.18 172.098C340.692 165.172 342.506 157.91 343.62 150.311C344.077 147.199 344.169 143.705 343.895 139.831C343.714 135.97 343.1 132.186 342.054 128.479C341.021 124.68 339.523 121.187 337.559 118C335.609 114.721 333.132 112.16 330.129 110.317C327.635 108.829 325.049 107.655 322.37 106.794C319.795 105.855 317.261 104.642 314.768 103.154L295.954 100.394C294.697 100.677 293.336 100.711 291.871 100.497C290.42 100.19 289.145 99.9563 288.047 99.7952C286.216 99.5266 284.49 99.1799 282.869 98.755C281.339 98.3436 279.705 98.0103 277.965 97.7552C275.493 97.3926 273.399 97.6464 271.681 98.5167C269.964 99.3869 268.91 101.149 268.521 103.804C268.239 105.727 268.631 107.515 269.698 109.167C270.765 110.82 272.351 111.801 274.457 112.11L285.717 113.762C286.083 113.815 286.423 114.052 286.735 114.472C287.101 114.526 287.258 114.736 287.204 115.102L283.545 138.132L283.162 140.741L279.617 164.91L279.214 167.656L277.272 182.802L276.033 183.602C276.019 183.693 275.738 183.699 275.189 183.618C274.639 183.538 274.182 183.471 273.815 183.417C272.259 183.189 270.808 182.882 269.461 182.498C268.129 182.022 266.684 181.669 265.128 181.441C262.839 181.105 260.902 181.242 259.316 181.851C257.744 182.368 256.763 183.955 256.374 186.61ZM289.792 183.516L296.372 140.575L296.913 137.848L300.055 116.426L300.903 115.428C300.903 115.428 301.224 115.475 301.864 115.569C302.519 115.572 303.029 115.6 303.395 115.654C309.254 116.513 314.117 117.788 317.984 119.477C321.956 121.089 325.049 123.272 327.263 126.029C329.569 128.798 331.021 132.285 331.621 136.487C332.233 140.598 332.11 145.584 331.25 151.443C330.821 154.372 330.193 157.694 329.368 161.407C328.634 165.133 327.495 168.754 325.951 172.268C324.512 175.704 322.609 178.792 320.243 181.531C317.983 184.192 315.156 185.928 311.764 186.739C309.053 187.37 306.167 187.602 303.105 187.433C300.149 187.186 297.298 186.862 294.551 186.459C294.276 186.418 293.871 186.312 293.335 186.14C292.799 185.968 292.27 185.75 291.748 185.486C291.225 185.223 290.756 184.92 290.338 184.578C289.921 184.236 289.739 183.882 289.792 183.516ZM413.45 211.195C413.356 211.836 413.34 212.582 413.402 213.433C413.57 214.206 413.783 214.985 414.041 215.771C414.405 216.479 414.821 217.148 415.29 217.778C415.864 218.33 416.517 218.659 417.249 218.767L450.618 223.662C450.815 223.597 451.286 223.573 452.032 223.589C452.791 223.513 453.262 223.489 453.445 223.515C453.812 223.569 454.459 223.617 455.388 223.66C456.408 223.716 457.468 223.825 458.567 223.986C459.679 224.056 460.692 224.158 461.608 224.292C462.628 224.348 463.322 224.403 463.688 224.457C466.725 224.154 468.478 222.401 468.948 219.197C469.123 218.007 468.904 216.946 468.293 216.014C467.773 215.096 467.043 214.335 466.103 213.729C465.177 213.032 464.132 212.505 462.969 212.147C461.819 211.698 460.786 211.406 459.871 211.272C458.68 211.097 457.477 211.014 456.26 211.023C455.134 211.045 453.977 210.968 452.787 210.794C451.963 210.673 451.1 210.5 450.198 210.274C449.401 209.97 448.834 209.372 448.497 208.481C448.889 205.172 449.123 201.98 449.2 198.905C449.382 195.752 449.715 192.528 450.198 189.232L451.105 183.053C451.462 181.89 452.146 181.055 453.156 180.548L456.039 180.971C458.42 181.32 460.236 182.008 461.488 183.033C462.741 184.058 463.604 185.822 464.079 188.323C464.012 188.78 463.898 189.559 463.736 190.657C463.68 191.678 463.565 192.783 463.39 193.973C463.307 195.177 463.231 196.334 463.161 197.446C463.092 198.558 463.03 199.298 462.976 199.664C462.931 201.247 463.279 202.701 464.02 204.025C464.852 205.363 466.092 206.153 467.74 206.394C469.205 206.609 470.357 206.404 471.197 205.779C472.128 205.168 472.858 204.34 473.385 203.295C473.913 202.25 474.264 201.132 474.438 199.942C474.718 198.674 474.931 197.536 475.079 196.529C475.24 195.431 475.415 194.241 475.603 192.959C475.791 191.677 475.638 190.486 475.145 189.385L479.819 157.526C480.02 156.153 479.547 154.915 478.4 153.811C477.344 152.721 476.175 152.082 474.894 151.894C473.337 151.666 472.119 152.001 471.239 152.901C470.359 153.801 469.681 154.917 469.205 156.25C468.729 157.583 468.383 158.982 468.168 160.446C467.953 161.911 467.779 163.101 467.644 164.017C467.394 164.448 467.078 165.009 466.696 165.701C466.327 166.302 465.867 166.889 465.315 167.463C464.764 168.036 464.18 168.512 463.563 168.889C463.052 169.188 462.521 169.297 461.972 169.217L454.969 168.189C454.694 168.149 454.453 167.88 454.245 167.382C454.143 166.805 454.047 166.184 453.958 165.516C453.96 164.862 453.963 164.207 453.965 163.553C454.073 162.821 454.153 162.271 454.207 161.905C454.395 160.624 454.661 159.447 455.005 158.375C455.35 157.303 455.616 156.127 455.804 154.845C456.099 152.831 456.244 150.888 456.238 149.017C456.337 147.068 456.541 145.04 456.85 142.935C456.917 142.477 457.024 141.745 457.172 140.737C457.425 139.652 457.558 139.064 457.571 138.972L458.201 138.504C461.419 138.882 464.512 139.149 467.482 139.304C470.466 139.368 473.513 139.628 476.626 140.084C479.464 140.501 481.902 141.092 483.941 141.859C486.071 142.639 487.883 144.308 489.379 146.865C489.6 147.271 489.878 147.92 490.215 148.811C490.644 149.716 490.844 150.26 490.818 150.443L487.897 170.354C487.762 171.27 488.262 172.325 489.396 173.52C490.543 174.624 491.621 175.249 492.628 175.397C493.452 175.518 494.27 175.357 495.083 174.916C496.001 174.396 496.802 173.718 497.485 172.883C498.169 172.048 498.715 171.193 499.124 170.318C499.638 169.365 499.955 168.476 500.076 167.652L504.407 138.128C504.663 136.389 504.165 134.679 502.915 132.999C501.665 131.32 500.171 130.352 498.431 130.097L465.571 125.557L462.962 125.174L447.267 123.153C445.347 122.216 443.334 121.594 441.229 121.285C439.228 120.898 437.175 120.55 435.069 120.241C432.781 119.905 430.77 120.545 429.036 122.161C427.408 123.699 426.439 125.521 426.13 127.627C425.821 129.732 426.175 131.468 427.19 132.832C428.311 134.119 429.924 134.917 432.029 135.225C433.586 135.454 435.064 135.577 436.464 135.595C437.969 135.536 439.545 135.627 441.193 135.868C441.651 135.936 442.331 136.082 443.233 136.308C444.149 136.442 444.652 136.516 444.744 136.53L445.212 137.159L445.525 142.676L439.441 184.147C439.151 184.853 438.926 185.428 438.768 185.872C438.609 186.316 438.483 186.859 438.389 187.5C438.281 188.232 438.24 188.834 438.264 189.305C438.302 189.685 438.352 190.3 438.414 191.151L435.977 207.767L435.347 208.235C435.255 208.222 434.836 208.207 434.091 208.191C433.45 208.097 432.9 208.017 432.443 207.95C430.795 207.708 429.16 207.375 427.539 206.95C426.023 206.447 424.441 206.075 422.794 205.833C420.505 205.497 418.469 205.666 416.687 206.34C414.905 207.014 413.826 208.632 413.45 211.195ZM497.534 223.951C497.56 223.768 497.614 223.402 497.695 222.853C497.88 222.225 497.987 221.82 498.013 221.637C499.09 220.673 500.035 219.97 500.848 219.528C501.661 219.086 502.499 218.788 503.364 218.634C504.241 218.389 505.158 218.196 506.114 218.056C507.069 217.915 508.229 217.665 509.591 217.303C510.272 217.123 510.895 216.7 511.46 216.035C512.117 215.383 512.643 214.665 513.039 213.881C513.526 213.111 513.921 212.327 514.225 211.53C514.634 210.655 514.977 209.911 515.254 209.297C515.663 208.421 516.31 206.88 517.195 204.672C518.172 202.477 519.168 200.145 520.185 197.676C521.294 195.22 522.29 192.888 523.176 190.68C524.152 188.485 524.845 186.95 525.254 186.075C526.373 184.182 527.211 182.294 527.768 180.412C528.325 178.529 529.117 176.635 530.145 174.728C532.254 170.549 534.363 166.37 536.473 162.19C538.674 158.024 540.737 153.838 542.664 149.632C543.073 148.757 543.515 147.653 543.991 146.32C544.559 145 545.205 143.786 545.929 142.676C546.666 141.475 547.553 140.53 548.589 139.84C549.639 139.059 550.896 138.776 552.361 138.99C554.009 139.232 555.256 139.976 556.102 141.223C556.947 142.469 557.531 143.91 557.852 145.547C558.278 147.106 558.507 148.73 558.54 150.418C558.678 152.028 558.817 153.311 558.957 154.266C559.416 157.513 559.679 160.825 559.744 164.201C559.824 167.486 560.427 170.707 561.553 173.865L567.29 224.645C567.43 225.601 567.826 226.407 568.478 227.064C569.221 227.734 570.07 228.326 571.023 228.84C571.99 229.263 572.917 229.633 573.806 229.95C574.786 230.281 575.629 230.591 576.335 230.882C577.913 232.236 578.534 234.057 578.198 236.346C577.876 238.543 576.941 240.136 575.393 241.124C573.859 242.022 572.039 242.316 569.933 242.007C567.645 241.671 565.271 241.276 562.813 240.822C560.368 240.276 558.053 239.796 555.87 239.383C554.405 239.168 553.038 238.92 551.77 238.641C550.502 238.361 549.391 237.965 548.438 237.451C547.498 236.845 546.775 236.038 546.268 235.028C545.853 234.032 545.767 232.71 546.008 231.062L546.351 228.728C547.112 227.998 547.932 227.51 548.81 227.265C549.792 226.942 550.723 226.657 551.6 226.412C552.569 226.18 553.401 225.928 554.096 225.656C554.895 225.305 555.486 224.784 555.868 224.092C555.895 223.909 555.903 223.536 555.892 222.973C555.895 222.319 555.851 221.658 555.762 220.99C555.765 220.336 555.76 219.728 555.749 219.165C555.738 218.602 555.701 218.223 555.636 218.026C555.585 217.738 555.521 217.214 555.446 216.455C555.37 215.696 555.209 214.877 554.964 214C554.719 213.122 554.414 212.329 554.05 211.621C553.778 210.927 553.413 210.546 552.956 210.479L531.396 207.316C531.213 207.289 530.708 207.542 529.882 208.076C529.069 208.518 528.603 208.823 528.485 208.993L523.451 216.531C523.438 216.623 523.352 216.891 523.193 217.335C523.126 217.793 523.079 218.113 523.052 218.296C522.824 219.852 523.081 220.966 523.825 221.636C524.659 222.319 525.547 222.964 526.487 223.569C527.427 224.175 528.248 224.95 528.951 225.895C529.759 226.762 530.022 228.156 529.74 230.079C529.431 232.184 528.477 233.587 526.878 234.288C525.371 235.002 523.61 235.211 521.596 234.916C520.314 234.728 519.046 234.448 517.791 234.077C516.628 233.719 515.36 233.44 513.986 233.238C512.155 232.97 510.343 232.891 508.55 233.002C506.771 233.021 504.965 232.897 503.134 232.628C501.029 232.319 499.495 231.3 498.533 229.569C497.585 227.746 497.252 225.874 497.534 223.951ZM534.308 195.118C535.221 195.907 536.128 196.414 537.03 196.64C537.946 196.774 539.044 196.935 540.326 197.123C542.157 197.392 543.962 197.517 545.742 197.497C547.613 197.491 549.524 197.537 551.473 197.636L552.103 197.168C552.116 197.076 552.15 196.847 552.204 196.481C552.362 196.037 552.455 195.723 552.482 195.54C552.589 194.808 552.588 193.545 552.476 191.752C552.379 189.867 552.164 187.825 551.832 185.625C551.605 183.347 551.293 181.011 550.897 178.614C550.5 176.218 550.116 174.058 549.743 172.133C549.385 170.116 549.064 168.479 548.781 167.222C548.511 165.873 548.33 165.192 548.239 165.179C547.872 165.125 547.564 165.314 547.314 165.744C547.064 166.175 546.879 166.476 546.761 166.645C546.379 167.337 545.806 168.375 545.042 169.76C544.382 171.066 543.671 172.411 542.907 173.795C542.156 175.088 541.464 176.296 540.832 177.418C540.305 178.463 539.975 179.116 539.843 179.378C538.762 181.65 537.673 183.969 536.578 186.333C535.483 188.698 534.761 191.07 534.412 193.45C534.385 193.633 534.345 193.908 534.291 194.274C534.329 194.654 534.335 194.935 534.308 195.118ZM584.017 237.199C583.789 238.756 583.876 240.078 584.277 241.165C584.77 242.266 585.473 243.211 586.386 244C587.313 244.697 588.358 245.224 589.521 245.582C590.762 246.044 592.024 246.37 593.306 246.558C595.411 246.867 597.393 247.064 599.251 247.149C601.109 247.235 603.09 247.432 605.196 247.741C606.203 247.889 607.537 248.038 609.198 248.188C610.938 248.443 612.369 248.887 613.492 249.519L632.305 252.279C634.685 252.628 636.983 252.264 639.199 251.186C641.519 250.03 642.874 248.125 643.264 245.47C643.384 244.646 643.231 243.782 642.802 242.877C642.465 241.986 641.971 241.212 641.319 240.555C640.681 239.807 639.931 239.183 639.069 238.682C638.207 238.182 637.364 237.871 636.541 237.75L623.22 235.796L621.834 233.769L627.112 197.791C627.521 196.916 627.773 196.158 627.867 195.517C628.052 194.889 628.205 194.164 628.326 193.34C628.461 192.424 628.522 191.685 628.511 191.123C628.605 190.482 628.589 189.638 628.462 188.59L631.846 165.52L632.476 165.052L635.223 165.454C636.962 165.71 638.59 166.089 640.106 166.592C641.635 167.003 643.27 167.336 645.009 167.591C647.389 167.941 649.411 167.863 651.075 167.359C652.844 166.777 653.923 165.158 654.312 162.503C654.729 159.666 654.089 157.654 652.392 156.47C650.787 155.3 648.762 154.442 646.317 153.896C643.872 153.35 641.361 152.935 638.784 152.651C636.207 152.366 634.247 151.704 632.903 150.666L610.932 147.442C610.083 146.85 609.385 146.514 608.835 146.434C608.391 146.275 607.803 146.142 607.07 146.034C606.063 145.887 604.984 145.915 603.831 146.12C602.692 146.234 601.618 146.544 600.609 147.05C599.691 147.57 598.89 148.248 598.206 149.083C597.523 149.917 597.1 150.884 596.939 151.983C596.792 152.99 596.919 154.037 597.32 155.125C597.722 156.212 598.274 157.229 598.977 158.173C599.68 159.118 600.495 159.939 601.421 160.636C602.361 161.242 603.335 161.618 604.342 161.766L618.898 163.901L619.326 164.806C619.313 164.897 619.272 165.172 619.205 165.63C619.243 166.009 619.249 166.291 619.222 166.474C619.087 167.389 618.921 168.206 618.722 168.925C618.536 169.553 618.147 170.291 617.555 171.139L608.651 231.835C608.611 232.11 608.25 232.338 607.569 232.518C606.902 232.607 606.188 232.69 605.429 232.765C604.683 232.749 603.937 232.734 603.191 232.718C602.459 232.61 602.047 232.55 601.956 232.536C600.674 232.348 599.406 232.069 598.151 231.698C597.001 231.248 595.785 230.93 594.504 230.742C592.123 230.393 589.878 230.718 587.767 231.718C585.657 232.717 584.407 234.544 584.017 237.199ZM658.159 246.392C657.998 247.491 658.347 248.618 659.206 249.772C660.17 250.849 661.338 251.815 662.708 252.671C664.171 253.54 665.607 254.265 667.019 254.846C668.521 255.441 669.776 255.812 670.783 255.96C673.712 256.389 676.572 256.341 679.361 255.815C682.15 255.289 685.01 255.241 687.939 255.671C689.679 255.926 691.279 256.488 692.742 257.357C694.309 258.148 695.962 258.671 697.702 258.927C698.892 259.101 700.05 259.178 701.175 259.156C702.405 259.056 703.512 258.844 704.495 258.52C705.491 258.105 706.324 257.526 706.994 256.783C707.678 255.948 708.113 254.89 708.301 253.608C708.624 251.411 708.225 249.669 707.104 248.382C706.075 247.109 704.679 246.109 702.915 245.383C701.256 244.579 699.426 243.983 697.426 243.596C695.425 243.209 693.692 242.908 692.228 242.693L691.29 241.433L697.07 197.252L697.473 194.506L699.173 181.008C699.727 179.78 700.171 178.349 700.504 176.714C700.929 175.093 701.222 173.734 701.383 172.635L702.013 172.166C702.104 172.18 702.425 172.227 702.974 172.307C703.537 172.296 703.91 172.304 704.093 172.331C705.374 172.519 706.675 172.897 707.994 173.465C709.405 174.046 710.646 174.836 711.715 175.834C712.889 176.754 713.755 177.863 714.313 179.161C714.976 180.38 715.193 181.768 714.965 183.325L712.829 197.881C712.588 199.529 713.053 201.14 714.224 202.715C715.396 204.289 716.76 205.191 718.316 205.419C720.239 205.701 721.87 205.099 723.211 203.612C724.551 202.125 725.355 200.466 725.624 198.636L729.633 171.308C729.888 169.569 729.397 167.814 728.161 166.043C727.016 164.285 725.528 163.272 723.697 163.003L693.074 158.511C692.318 157.932 691.665 157.602 691.115 157.522C690.579 157.35 689.945 157.21 689.213 157.103C688.389 156.982 687.696 156.927 687.133 156.938C686.675 156.871 685.955 156.999 684.972 157.322L668.356 154.885C667.532 154.764 666.707 154.97 665.881 155.503C665.146 156.05 664.437 156.741 663.753 157.576C663.083 158.319 662.498 159.122 661.997 159.984C661.588 160.859 661.337 161.617 661.243 162.258L657.375 188.624C657.133 190.271 657.343 192.032 658.003 193.906C658.663 195.78 659.909 196.851 661.74 197.119C664.028 197.455 665.718 197.095 666.808 196.039C667.911 194.892 668.689 193.416 669.141 191.612C669.606 189.716 669.961 187.617 670.205 185.315C670.54 183.027 671.092 180.863 671.858 178.825C672.638 176.695 673.797 174.854 675.334 173.303C676.975 171.673 679.361 170.714 682.489 170.424C682.686 170.36 683.104 170.374 683.745 170.468C684.491 170.484 685.001 170.512 685.276 170.553C685.459 170.58 685.818 170.679 686.354 170.851C686.904 170.932 687.263 171.031 687.433 171.15L687.901 171.78L677.889 240.029L675.98 241.572L663.071 239.678C662.247 239.558 661.521 239.731 660.891 240.2C660.352 240.682 659.885 241.315 659.49 242.099C659.108 242.791 658.811 243.542 658.598 244.353C658.386 245.163 658.239 245.843 658.159 246.392ZM722.95 256.599C723.004 256.232 723.183 255.651 723.487 254.854C723.791 254.057 724.186 253.273 724.673 252.503C725.16 251.733 725.673 251.106 726.211 250.624C726.763 250.051 727.268 249.797 727.726 249.864L735.828 251.053C736.011 251.08 736.299 251.029 736.692 250.899C737.098 250.678 737.406 250.49 737.616 250.333C738.908 240.891 740.278 231.553 741.726 222.32C743.174 213.087 744.727 203.776 746.385 194.387C746.912 193.342 747.297 191.995 747.538 190.348L748.163 186.091L748.667 182.658L747.24 180.905C746.966 180.865 746.416 180.784 745.592 180.664C744.873 180.465 744.063 180.252 743.161 180.026C742.35 179.814 741.533 179.647 740.709 179.526C739.99 179.327 739.494 179.208 739.219 179.167C738.225 178.928 737.494 178.494 737.025 177.864C736.557 177.234 736.239 176.533 736.072 175.76C735.918 174.896 735.856 174.045 735.885 173.208C735.928 172.279 736.009 171.402 736.13 170.578C736.359 169.022 737.031 167.624 738.148 166.385C739.279 165.055 740.713 164.517 742.453 164.772L767.72 168.479C769.551 168.748 770.947 169.747 771.909 171.478C772.963 173.223 773.368 174.919 773.127 176.567C772.871 178.306 772.35 179.632 771.561 180.545C770.864 181.472 769.972 182.136 768.884 182.537C767.888 182.952 766.69 183.151 765.29 183.132C763.981 183.127 762.634 183.07 761.247 182.96C761.037 183.116 760.768 183.357 760.44 183.683C760.125 183.918 759.954 184.126 759.927 184.309L756.603 206.968C756.509 207.608 756.684 208.008 757.128 208.167C757.678 208.247 758.136 208.315 758.502 208.368C759.417 208.503 760.3 208.539 761.151 208.476C762.015 208.323 762.905 208.313 763.821 208.447C764.828 208.595 765.723 208.867 766.507 209.262C767.395 209.579 768.343 209.812 769.35 209.96C770.266 210.094 771.149 210.13 772 210.068C772.864 209.914 773.754 209.904 774.669 210.039C775.676 210.186 776.407 210.621 776.863 211.342C777.423 211.986 778.161 212.374 779.076 212.509C780.816 212.764 782.197 212.592 783.22 211.994C784.348 211.318 785.182 210.412 785.723 209.275C786.263 208.139 786.641 206.838 786.856 205.374C787.163 203.922 787.423 202.464 787.638 201L788.625 194.271L789.592 187.679C789.568 187.208 788.876 186.826 787.516 186.533C786.17 186.149 784.752 185.613 783.263 184.927C781.773 184.241 780.416 183.294 779.191 182.085C778.07 180.799 777.678 179.011 778.013 176.722C778.228 175.258 778.723 174.115 779.499 173.293C780.274 172.472 781.192 171.952 782.252 171.733C783.327 171.423 784.465 171.31 785.669 171.393C786.977 171.398 788.227 171.487 789.417 171.662C790.882 171.877 792.241 172.17 793.496 172.541C794.751 172.912 796.065 173.198 797.438 173.4C798.72 173.588 799.924 173.671 801.049 173.649C802.174 173.627 803.332 173.703 804.522 173.878C805.896 174.079 807.34 174.432 808.856 174.935C810.372 175.438 811.717 176.149 812.892 177.07C814.171 177.912 815.135 178.989 815.784 180.3C816.447 181.519 816.651 182.998 816.396 184.738C816.033 187.21 814.83 188.716 812.787 189.258C810.835 189.814 808.761 189.93 806.563 189.608L802.581 189.024L801.677 189.452L793.256 246.853C792.664 247.701 792.275 248.439 792.09 249.066C791.996 249.707 791.881 250.485 791.747 251.401C791.613 252.316 791.471 253.605 791.32 255.266C791.275 256.849 791.638 257.884 792.408 258.371C793.598 258.546 794.912 258.832 796.35 259.23C797.893 259.55 799.265 260.079 800.466 260.816C801.68 261.462 802.678 262.309 803.459 263.359C804.241 264.409 804.51 265.758 804.269 267.406C804.134 268.321 803.81 269.256 803.296 270.209C802.796 271.071 802.165 271.866 801.403 272.596C800.746 273.248 799.92 273.782 798.924 274.197C798.033 274.533 797.084 274.628 796.077 274.48L777.264 271.72C777.067 271.785 776.589 271.855 775.83 271.931C775.162 272.02 774.73 272.097 774.534 272.162L774.259 272.121C771.787 271.759 769.606 270.691 767.715 268.917C765.838 267.052 765.087 264.837 765.463 262.274C765.678 260.809 766.121 259.705 766.791 258.962C767.566 258.14 768.445 257.568 769.427 257.245C770.502 256.935 771.64 256.821 772.844 256.904C774.153 256.909 775.454 256.96 776.749 257.056L778.482 255.767L780.366 250.573L783.609 228.464C783.676 228.006 783.43 227.456 782.87 226.812C782.323 226.078 782.017 225.612 781.952 225.415C778.107 224.851 774.518 224.138 771.184 223.275C767.851 222.412 764.399 221.718 760.828 221.194C760.462 221.141 759.677 221.072 758.474 220.989C757.375 220.828 756.643 220.721 756.277 220.667C755.792 220.783 755.326 221.089 754.88 221.584C754.524 222.093 754.313 222.576 754.246 223.034L749.975 252.147L750.933 253.269C752.215 253.457 753.483 253.737 754.738 254.108C755.992 254.479 757.083 255.013 758.01 255.71C759.041 256.329 759.803 257.189 760.296 258.29C760.803 259.299 760.942 260.582 760.714 262.138C760.432 264.061 759.563 265.523 758.106 266.525C756.742 267.541 755.085 267.999 753.135 267.9C749.891 267.705 746.463 267.483 742.852 267.233C739.347 266.906 735.992 266.508 732.788 266.038C731.414 265.836 730.048 265.589 728.688 265.296C727.433 264.925 726.297 264.384 725.279 263.674C724.352 262.976 723.643 262.077 723.15 260.976C722.748 259.889 722.682 258.43 722.95 256.599Z" fill="white"/>
<rect x="1.72346" y="127.979" width="40.0346" height="166.347" transform="rotate(-31.9302 1.72346 127.979)" fill="#91701E" stroke="#9B7B29" stroke-width="2.50216"/>
<circle cx="28.0565" cy="131.888" r="7.08581" transform="rotate(8.34566 28.0565 131.888)" fill="#61605C"/>
<circle cx="98.1171" cy="245.485" r="7.08581" transform="rotate(8.34566 98.1171 245.485)" fill="#61605C"/>
<rect x="769.415" y="90.0469" width="42.5368" height="168.849" transform="rotate(-31.9302 769.415 90.0469)" fill="#91701E"/>
<g filter="url(#filter1_d_103_977)">
<rect x="769.415" y="90.0469" width="42.5368" height="168.849" transform="rotate(-31.9302 769.415 90.0469)" fill="#91701E"/>
<rect x="771.139" y="90.447" width="40.0346" height="166.347" transform="rotate(-31.9302 771.139 90.447)" stroke="#9B7B29" stroke-width="2.50216"/>
</g>
<circle cx="798.723" cy="96.8574" r="7.08581" transform="rotate(8.34566 798.723 96.8574)" fill="#61605C"/>
<circle cx="867.532" cy="206.953" r="7.08581" transform="rotate(8.34566 867.532 206.953)" fill="#61605C"/>
<defs>
<filter id="filter0_d_103_977" x="31.798" y="0.58844" width="839.578" height="342.764" filterUnits="userSpaceOnUse" color-interpolation-filters="sRGB">
<feFlood flood-opacity="0" result="BackgroundImageFix"/>
<feColorMatrix in="SourceAlpha" type="matrix" values="0 0 0 0 0 0 0 0 0 0 0 0 0 0 0 0 0 0 127 0" result="hardAlpha"/>
<feOffset dy="1.32726"/>
<feGaussianBlur stdDeviation="0.663631"/>
<feComposite in2="hardAlpha" operator="out"/>
<feColorMatrix type="matrix" values="0 0 0 0 0 0 0 0 0 0 0 0 0 0 0 0 0 0 0.25 0"/>
<feBlend mode="normal" in2="BackgroundImageFix" result="effect1_dropShadow_103_977"/>
<feBlend mode="normal" in="SourceGraphic" in2="effect1_dropShadow_103_977" result="shape"/>
</filter>
<filter id="filter1_d_103_977" x="764.411" y="67.5497" width="135.411" height="175.807" filterUnits="userSpaceOnUse" color-interpolation-filters="sRGB">
<feFlood flood-opacity="0" result="BackgroundImageFix"/>
<feColorMatrix in="SourceAlpha" type="matrix" values="0 0 0 0 0 0 0 0 0 0 0 0 0 0 0 0 0 0 127 0" result="hardAlpha"/>
<feOffset dy="5.00433"/>
<feGaussianBlur stdDeviation="2.50216"/>
<feComposite in2="hardAlpha" operator="out"/>
<feColorMatrix type="matrix" values="0 0 0 0 0 0 0 0 0 0 0 0 0 0 0 0 0 0 0.25 0"/>
<feBlend mode="normal" in2="BackgroundImageFix" result="effect1_dropShadow_103_977"/>
<feBlend mode="normal" in="SourceGraphic" in2="effect1_dropShadow_103_977" result="shape"/>
</filter>
</defs>
</svg>
