<svg width="638" height="143" viewBox="0 0 638 143" fill="none" xmlns="http://www.w3.org/2000/svg">
<rect x="1.74202" y="2.62312" width="633.843" height="137.696" fill="#EAD89A" stroke="black" stroke-width="3.46549"/>
<path d="M173.566 94.2247C173.566 95.48 173.992 96.4887 174.844 97.2508C175.695 97.9681 176.726 98.3268 177.937 98.3268C178.834 98.3268 179.708 98.2147 180.56 97.9905C181.456 97.7216 182.286 97.3853 183.048 96.9818H191.185C191.992 97.206 192.664 97.3629 193.202 97.4526C193.74 97.5422 194.368 97.5871 195.085 97.5871C195.847 97.5871 196.587 97.3853 197.304 96.9818C198.066 96.5783 198.672 96.0628 199.12 95.4351V94.2247C199.12 93.9108 199.053 93.5298 198.918 93.0815C198.829 92.6331 198.672 92.2296 198.448 91.871C198.223 91.5123 197.954 91.1985 197.641 90.9295C197.327 90.6605 196.946 90.526 196.497 90.526H189.638C189.638 90.526 189.593 90.4812 189.504 90.3915C189.459 90.3019 189.414 90.2346 189.369 90.1898L189.1 89.6518V83.0615C189.235 82.5235 189.324 81.9631 189.369 81.3803C189.459 80.7527 189.548 80.1699 189.638 79.6319L189.907 79.3629H199.658C200.779 79.3629 201.989 78.9594 203.289 78.1524C204.634 77.3455 205.867 76.3367 206.988 75.1263C208.109 73.9158 209.05 72.6381 209.812 71.2932C210.575 69.9034 210.956 68.6481 210.956 67.5273V62.013C210.956 61.5646 210.799 60.9146 210.485 60.0628C210.171 59.1661 209.79 58.2471 209.342 57.3056C208.893 56.3642 208.4 55.5123 207.862 54.7502C207.369 53.9432 206.921 53.3604 206.517 53.0018C205.755 52.3741 204.926 51.8361 204.029 51.3878C203.132 50.9395 202.191 50.6033 201.205 50.3791C200.981 50.3343 200.667 50.267 200.263 50.1774C199.86 50.0877 199.456 50.0204 199.053 49.9756C198.694 49.8859 198.358 49.8187 198.044 49.7739C197.73 49.6842 197.551 49.6394 197.506 49.6394H186.208C185.76 49.729 185.401 49.7963 185.132 49.8411C184.908 49.8859 184.617 49.9084 184.258 49.9084C183.406 49.9084 182.599 49.8635 181.837 49.7739C181.075 49.6394 180.246 49.5721 179.349 49.5721C179.259 49.5721 179.08 49.5721 178.811 49.5721C178.542 49.5721 178.251 49.5721 177.937 49.5721C177.623 49.5721 177.332 49.5945 177.063 49.6394C176.794 49.6394 176.592 49.6394 176.457 49.6394C176.009 49.6394 175.628 49.7739 175.314 50.0429C175.045 50.267 174.799 50.5584 174.575 50.9171C174.395 51.2309 174.261 51.612 174.171 52.0603C174.081 52.4638 174.037 52.8224 174.037 53.1363C174.037 54.1674 174.306 55.0192 174.844 55.6917C175.426 56.3642 176.278 56.7004 177.399 56.7004C178.027 56.7004 178.609 56.6556 179.147 56.5659C179.73 56.4762 180.335 56.4314 180.963 56.4314H182.51C182.824 56.4762 183.048 56.6556 183.182 56.9694C183.362 57.2832 183.496 57.5522 183.586 57.7764V59.9955C183.586 61.8785 183.496 63.6942 183.317 65.4426C183.182 67.191 183.093 69.0292 183.048 70.9569V89.9208L182.51 90.526H175.651C175.202 90.526 174.844 90.6605 174.575 90.9295C174.306 91.1985 174.081 91.5348 173.902 91.9382C173.768 92.2969 173.678 92.7004 173.633 93.1487C173.588 93.5522 173.566 93.9108 173.566 94.2247ZM189.504 72.7726V63.0217C189.145 62.4389 188.966 61.6991 188.966 60.8025C189.01 59.9059 189.033 59.211 189.033 58.7178C189.033 58.4937 189.033 58.135 189.033 57.6419C189.078 57.1039 189.1 56.7901 189.1 56.7004L189.369 56.4314H191.588C193.023 56.4314 194.525 56.4762 196.094 56.5659C197.708 56.6556 199.187 56.947 200.532 57.4401C201.877 57.9333 202.976 58.7178 203.827 59.7938C204.724 60.8249 205.172 62.3044 205.172 64.2321C205.172 66.2496 204.791 67.8411 204.029 69.0067C203.312 70.1724 202.348 71.069 201.137 71.6967C199.972 72.2795 198.604 72.6605 197.035 72.8399C195.511 73.0192 193.942 73.1089 192.328 73.1089C192.014 73.1089 191.543 73.1089 190.916 73.1089C190.333 73.064 189.997 73.0416 189.907 73.0416L189.504 72.7726ZM213.788 87.4999C213.788 89.607 214.192 91.4675 214.999 93.0815C215.851 94.6506 217.196 95.9731 219.034 97.0491C219.392 97.2732 219.751 97.5198 220.11 97.7888C220.468 98.013 220.894 98.125 221.387 98.125H227.44C228.202 98.125 228.942 97.9905 229.659 97.7216C230.376 97.4077 231.071 97.0491 231.744 96.6456C232.416 96.1973 233.066 95.7489 233.694 95.3006C234.366 94.8523 235.016 94.4712 235.644 94.1574H235.98C236.294 94.1574 236.563 94.2695 236.787 94.4937C237.056 94.7178 237.28 94.9868 237.46 95.3006C237.684 95.5696 237.886 95.861 238.065 96.1749C238.289 96.4438 238.536 96.6456 238.805 96.7801C239.567 97.2732 240.262 97.6319 240.889 97.856C241.517 98.0354 242.257 98.125 243.108 98.125C244.184 98.125 245.126 97.8785 245.933 97.3853C246.785 96.8922 247.48 96.2645 248.018 95.5024C248.6 94.6954 249.049 93.7988 249.363 92.8125C249.676 91.8262 249.833 90.8399 249.833 89.8536C249.833 89.4052 249.788 88.9569 249.699 88.5086C249.609 88.0155 249.452 87.5671 249.228 87.1636C249.004 86.7602 248.712 86.4239 248.354 86.1549C247.995 85.8859 247.569 85.7514 247.076 85.7514C246.135 85.7514 245.507 86.0653 245.193 86.6929C244.924 87.3206 244.722 88.0379 244.588 88.8448C244.453 89.607 244.297 90.3019 244.117 90.9295C243.938 91.5572 243.49 91.871 242.772 91.871C241.696 91.871 241.158 91.2433 241.158 89.9881V78.6232C241.382 78.0852 241.472 77.48 241.427 76.8075C241.427 76.0902 241.427 75.4625 241.427 74.9245V72.8399C241.427 72.7054 241.382 72.4812 241.293 72.1674C241.248 71.8087 241.181 71.4501 241.091 71.0914C241.001 70.6879 240.912 70.3069 240.822 69.9482C240.732 69.5896 240.665 69.343 240.62 69.2085C240.486 68.6705 240.127 68.0204 239.544 67.2583C239.006 66.4962 238.356 65.7788 237.594 65.1064C236.877 64.4339 236.115 63.8511 235.308 63.3579C234.546 62.8648 233.873 62.6182 233.29 62.6182H223.001C222.284 62.6182 221.656 62.8424 221.118 63.2907C220.58 63.6942 220.065 64.0752 219.572 64.4339C218.989 64.8374 218.406 65.2857 217.823 65.7788C217.24 66.2272 216.725 66.7203 216.277 67.2583C215.828 67.7963 215.47 68.3791 215.201 69.0067C214.932 69.6344 214.797 70.3517 214.797 71.1587C214.797 72.5485 215.245 73.7141 216.142 74.6556C217.084 75.597 218.272 76.0678 219.706 76.0678C220.648 76.0678 221.387 75.8884 221.925 75.5298C222.508 75.1263 222.934 74.6556 223.203 74.1176C223.517 73.5348 223.741 72.9071 223.876 72.2346C224.01 71.5622 224.122 70.9569 224.212 70.4189C224.346 69.8361 224.481 69.3654 224.615 69.0067C224.75 68.6033 224.996 68.4015 225.355 68.4015H231.676C231.721 68.4015 232.013 68.536 232.551 68.805C233.089 69.074 233.492 69.2757 233.761 69.4102C234.478 69.8137 234.971 70.3517 235.24 71.0242C235.509 71.6967 235.644 72.414 235.644 73.1761C235.644 74.2521 235.106 74.9694 234.03 75.328C232.954 75.6867 231.609 75.9333 229.995 76.0678C228.381 76.2023 226.61 76.3592 224.683 76.5385C222.8 76.673 221.051 77.0989 219.437 77.8162C217.823 78.4887 216.478 79.5871 215.402 81.1113C214.326 82.5908 213.788 84.7203 213.788 87.4999ZM219.034 87.4326C219.034 86.9395 219.191 86.3567 219.504 85.6842C219.863 85.0117 220.155 84.5186 220.379 84.2047C220.827 83.5323 221.343 83.1736 221.925 83.1288C223.046 82.9495 224.145 82.815 225.221 82.7253C226.341 82.6356 227.44 82.5011 228.516 82.3218C228.65 82.3218 229.009 82.277 229.592 82.1873C230.219 82.0528 230.869 81.9407 231.542 81.8511C232.214 81.7166 232.842 81.6045 233.425 81.5148C234.052 81.3803 234.434 81.3131 234.568 81.3131L234.702 81.2458C234.747 81.2458 234.77 81.2683 234.77 81.3131C234.815 81.3131 234.837 81.3131 234.837 81.3131C234.882 81.3131 234.971 81.3579 235.106 81.4476C235.24 81.4924 235.33 81.5148 235.375 81.5148V82.3218C235.375 84.2496 235.084 85.8187 234.501 87.0292C233.918 88.2396 232.797 89.4052 231.138 90.526C231.049 90.5709 230.825 90.6829 230.466 90.8623C230.152 91.0416 229.95 91.1761 229.861 91.2658C229.681 91.3554 229.457 91.4675 229.188 91.602C228.964 91.7365 228.83 91.8037 228.785 91.8037H221.925C221.477 91.8037 221.074 91.6468 220.715 91.333C220.356 91.0192 220.042 90.6381 219.773 90.1898C219.549 89.6966 219.37 89.2035 219.236 88.7103C219.101 88.2172 219.034 87.7913 219.034 87.4326ZM252.632 94.9644C252.632 95.7714 252.789 96.5783 253.103 97.3853C253.461 98.1475 254.134 98.5285 255.12 98.5285C255.927 98.5285 256.51 98.3492 256.869 97.9905C257.272 97.6319 257.541 97.2284 257.676 96.7801C257.855 96.2869 257.989 95.8386 258.079 95.4351C258.213 94.9868 258.415 94.6954 258.684 94.5609C259.446 94.9644 260.141 95.5024 260.769 96.1749C261.397 96.8025 262.114 97.2284 262.921 97.4526C263.055 97.4974 263.279 97.5646 263.593 97.6543C263.907 97.744 264.221 97.8336 264.535 97.9233C264.893 98.013 265.207 98.1026 265.476 98.1923C265.79 98.2371 265.992 98.2595 266.081 98.2595C266.126 98.2595 266.373 98.282 266.821 98.3268C267.27 98.3268 267.628 98.3268 267.897 98.3268C269.511 98.3268 271.058 98.0354 272.537 97.4526C274.062 96.8697 275.407 96.0628 276.572 95.0316C277.783 93.9557 278.746 92.7004 279.464 91.2658C280.181 89.8311 280.54 88.262 280.54 86.5584C280.54 84.8996 280.114 83.3754 279.262 81.9856C278.455 80.5509 277.469 79.2957 276.303 78.2197C274.017 77.2782 271.573 76.5833 268.973 76.135C266.373 75.6867 263.817 75.5074 261.307 75.597C260.41 75.3729 259.693 74.9918 259.155 74.4538C258.662 73.9158 258.415 73.1313 258.415 72.1001C258.415 71.6967 258.505 71.2707 258.684 70.8224C258.908 70.3741 259.177 69.9706 259.491 69.612C259.85 69.2085 260.231 68.8722 260.634 68.6033C261.038 68.3343 261.441 68.1325 261.845 67.998C262.069 67.998 262.495 67.998 263.123 67.998C263.75 67.9532 264.154 67.9308 264.333 67.9308C264.961 67.9308 265.454 67.9308 265.812 67.9308C266.171 67.9308 266.507 67.9532 266.821 67.998C267.135 68.0429 267.449 68.1101 267.763 68.1998C268.121 68.2446 268.614 68.3567 269.242 68.536C270.228 68.805 270.991 69.3654 271.529 70.2172C272.067 71.069 272.537 71.9656 272.941 72.9071C273.344 73.8037 273.77 74.6107 274.218 75.328C274.712 76.0453 275.362 76.404 276.169 76.404C277.11 76.404 277.805 76.0005 278.253 75.1935C278.746 74.3417 278.993 73.5123 278.993 72.7054V71.8984C278.993 71.6294 278.971 71.1587 278.926 70.4862C278.881 69.7689 278.836 69.0292 278.791 68.267C278.791 67.46 278.769 66.7203 278.724 66.0478C278.724 65.3305 278.724 64.8374 278.724 64.5684C278.769 63.9407 278.522 63.4028 277.984 62.9544C277.491 62.4613 276.931 62.2147 276.303 62.2147C275.855 62.2147 275.496 62.3044 275.227 62.4837C274.958 62.663 274.712 62.8872 274.487 63.1562C274.308 63.4252 274.106 63.7166 273.882 64.0304C273.703 64.3442 273.456 64.6132 273.143 64.8374C271.798 63.8959 270.273 63.201 268.57 62.7527C266.911 62.2595 265.275 61.9009 263.661 61.6767H263.055C262.473 61.6767 261.89 61.7664 261.307 61.9457C260.769 62.0802 260.253 62.2595 259.76 62.4837C257.608 63.3803 255.949 64.5236 254.784 65.9133C253.663 67.3031 253.103 69.1861 253.103 71.5622C253.103 73.6244 253.394 75.2832 253.977 76.5385C254.605 77.7938 255.411 78.7801 256.398 79.4974C257.429 80.2147 258.617 80.7303 259.962 81.0441C261.352 81.3579 262.786 81.6045 264.266 81.7838C265.745 81.9631 267.247 82.1425 268.771 82.3218C270.296 82.5011 271.753 82.815 273.143 83.2633C273.905 83.5771 274.398 83.9582 274.622 84.4065C274.891 84.8548 275.025 85.46 275.025 86.2222C275.025 87.2981 274.756 88.2172 274.218 88.9793C273.725 89.6966 273.075 90.2795 272.268 90.7278C271.506 91.1761 270.632 91.5123 269.646 91.7365C268.704 91.9158 267.763 92.0055 266.821 92.0055C265.745 92.0055 264.781 91.8486 263.93 91.5348C263.123 91.1761 262.383 90.7278 261.71 90.1898C261.038 89.607 260.41 88.9569 259.827 88.2396C259.289 87.4775 258.729 86.6929 258.146 85.8859C257.877 85.5273 257.72 85.1014 257.676 84.6082C257.631 84.0702 257.451 83.6219 257.138 83.2633C256.913 83.0391 256.622 82.9046 256.263 82.8598C255.949 82.7701 255.658 82.7253 255.389 82.7253C254.806 82.7253 254.268 82.927 253.775 83.3305C253.282 83.6892 253.035 84.1823 253.035 84.81V92.7452C252.811 93.1935 252.677 93.5746 252.632 93.8884C252.632 94.1574 252.632 94.5161 252.632 94.9644ZM283.332 94.9644C283.332 95.7714 283.489 96.5783 283.803 97.3853C284.162 98.1475 284.834 98.5285 285.82 98.5285C286.627 98.5285 287.21 98.3492 287.569 97.9905C287.972 97.6319 288.241 97.2284 288.376 96.7801C288.555 96.2869 288.69 95.8386 288.779 95.4351C288.914 94.9868 289.115 94.6954 289.384 94.5609C290.147 94.9644 290.841 95.5024 291.469 96.1749C292.097 96.8025 292.814 97.2284 293.621 97.4526C293.756 97.4974 293.98 97.5646 294.294 97.6543C294.607 97.744 294.921 97.8336 295.235 97.9233C295.594 98.013 295.907 98.1026 296.176 98.1923C296.49 98.2371 296.692 98.2595 296.782 98.2595C296.827 98.2595 297.073 98.282 297.521 98.3268C297.97 98.3268 298.328 98.3268 298.597 98.3268C300.211 98.3268 301.758 98.0354 303.237 97.4526C304.762 96.8697 306.107 96.0628 307.272 95.0316C308.483 93.9557 309.447 92.7004 310.164 91.2658C310.881 89.8311 311.24 88.262 311.24 86.5584C311.24 84.8996 310.814 83.3754 309.962 81.9856C309.155 80.5509 308.169 79.2957 307.003 78.2197C304.717 77.2782 302.274 76.5833 299.673 76.135C297.073 75.6867 294.518 75.5074 292.007 75.597C291.11 75.3729 290.393 74.9918 289.855 74.4538C289.362 73.9158 289.115 73.1313 289.115 72.1001C289.115 71.6967 289.205 71.2707 289.384 70.8224C289.609 70.3741 289.878 69.9706 290.191 69.612C290.55 69.2085 290.931 68.8722 291.335 68.6033C291.738 68.3343 292.142 68.1325 292.545 67.998C292.769 67.998 293.195 67.998 293.823 67.998C294.45 67.9532 294.854 67.9308 295.033 67.9308C295.661 67.9308 296.154 67.9308 296.513 67.9308C296.871 67.9308 297.208 67.9532 297.521 67.998C297.835 68.0429 298.149 68.1101 298.463 68.1998C298.822 68.2446 299.315 68.3567 299.942 68.536C300.929 68.805 301.691 69.3654 302.229 70.2172C302.767 71.069 303.237 71.9656 303.641 72.9071C304.044 73.8037 304.47 74.6107 304.919 75.328C305.412 76.0453 306.062 76.404 306.869 76.404C307.81 76.404 308.505 76.0005 308.954 75.1935C309.447 74.3417 309.693 73.5123 309.693 72.7054V71.8984C309.693 71.6294 309.671 71.1587 309.626 70.4862C309.581 69.7689 309.536 69.0292 309.492 68.267C309.492 67.46 309.469 66.7203 309.424 66.0478C309.424 65.3305 309.424 64.8374 309.424 64.5684C309.469 63.9407 309.223 63.4028 308.685 62.9544C308.191 62.4613 307.631 62.2147 307.003 62.2147C306.555 62.2147 306.196 62.3044 305.927 62.4837C305.658 62.663 305.412 62.8872 305.188 63.1562C305.008 63.4252 304.807 63.7166 304.582 64.0304C304.403 64.3442 304.157 64.6132 303.843 64.8374C302.498 63.8959 300.973 63.201 299.27 62.7527C297.611 62.2595 295.975 61.9009 294.361 61.6767H293.756C293.173 61.6767 292.59 61.7664 292.007 61.9457C291.469 62.0802 290.954 62.2595 290.46 62.4837C288.308 63.3803 286.65 64.5236 285.484 65.9133C284.363 67.3031 283.803 69.1861 283.803 71.5622C283.803 73.6244 284.094 75.2832 284.677 76.5385C285.305 77.7938 286.112 78.7801 287.098 79.4974C288.129 80.2147 289.317 80.7303 290.662 81.0441C292.052 81.3579 293.487 81.6045 294.966 81.7838C296.445 81.9631 297.947 82.1425 299.472 82.3218C300.996 82.5011 302.453 82.815 303.843 83.2633C304.605 83.5771 305.098 83.9582 305.322 84.4065C305.591 84.8548 305.726 85.46 305.726 86.2222C305.726 87.2981 305.457 88.2172 304.919 88.9793C304.426 89.6966 303.775 90.2795 302.968 90.7278C302.206 91.1761 301.332 91.5123 300.346 91.7365C299.404 91.9158 298.463 92.0055 297.521 92.0055C296.445 92.0055 295.482 91.8486 294.63 91.5348C293.823 91.1761 293.083 90.7278 292.411 90.1898C291.738 89.607 291.11 88.9569 290.528 88.2396C289.99 87.4775 289.429 86.6929 288.846 85.8859C288.577 85.5273 288.421 85.1014 288.376 84.6082C288.331 84.0702 288.152 83.6219 287.838 83.2633C287.614 83.0391 287.322 82.9046 286.963 82.8598C286.65 82.7701 286.358 82.7253 286.089 82.7253C285.506 82.7253 284.968 82.927 284.475 83.3305C283.982 83.6892 283.736 84.1823 283.736 84.81V92.7452C283.511 93.1935 283.377 93.5746 283.332 93.8884C283.332 94.1574 283.332 94.5161 283.332 94.9644ZM323.514 96.5783C323.918 97.1163 324.344 97.5198 324.792 97.7888C325.285 98.0578 325.868 98.1923 326.54 98.1923C327.258 98.1923 327.885 98.013 328.423 97.6543C328.961 97.2956 329.342 96.7577 329.567 96.0404C330.239 93.5298 330.732 90.9968 331.046 88.4414C331.405 85.8411 331.875 83.2857 332.458 80.7751C332.548 80.4164 332.593 79.9905 332.593 79.4974C332.638 78.9594 332.682 78.4438 332.727 77.9507C332.772 77.4127 332.862 76.9196 332.996 76.4712C333.176 76.0229 333.445 75.6867 333.803 75.4625C334.027 75.5522 334.251 76.1126 334.476 77.1437C334.745 78.13 334.991 79.3853 335.215 80.9096C335.44 82.3891 335.664 84.003 335.888 85.7514C336.112 87.4999 336.359 89.1811 336.628 90.795C336.897 92.3641 337.188 93.7539 337.502 94.9644C337.816 96.1749 338.152 96.9594 338.511 97.3181C338.78 97.6319 339.161 97.856 339.654 97.9905C340.192 98.0802 340.662 98.125 341.066 98.125C341.649 98.125 342.142 97.9905 342.545 97.7216C342.994 97.4077 343.397 97.0267 343.756 96.5783C344.294 95.1886 344.765 93.7539 345.168 92.2745C345.572 90.795 345.818 89.3156 345.908 87.8361C345.997 87.4326 346.154 86.805 346.379 85.9532C346.603 85.1014 346.849 84.1375 347.118 83.0615C347.387 81.9856 347.656 80.8648 347.925 79.6991C348.239 78.5335 348.53 77.4127 348.799 76.3367C349.113 75.2608 349.382 74.2969 349.606 73.4451C349.831 72.5933 349.987 71.9656 350.077 71.5622C350.077 71.5173 350.1 71.3828 350.144 71.1587C350.234 70.9345 350.324 70.7104 350.413 70.4862C350.503 70.2172 350.593 69.9706 350.682 69.7465C350.772 69.5223 350.839 69.343 350.884 69.2085C350.929 69.1188 350.974 69.0067 351.019 68.8722C351.063 68.7377 351.108 68.6705 351.153 68.6705C351.198 68.5808 351.31 68.4463 351.489 68.267C351.713 68.0429 351.938 67.8187 352.162 67.5945C352.386 67.3704 352.588 67.1686 352.767 66.9893C352.991 66.7651 353.148 66.6082 353.238 66.5186V65.6443C353.238 64.8822 353.014 64.277 352.565 63.8287C352.162 63.3803 351.646 63.0441 351.019 62.8199C350.391 62.5958 349.718 62.4613 349.001 62.4165C348.284 62.3268 347.634 62.282 347.051 62.282C346.513 62.282 345.93 62.3268 345.303 62.4165C344.675 62.4613 344.092 62.6182 343.554 62.8872C343.016 63.1113 342.568 63.4476 342.209 63.8959C341.85 64.3442 341.671 64.927 341.671 65.6443C341.671 66.1375 341.806 66.4962 342.075 66.7203C342.388 66.9445 342.725 67.1462 343.083 67.3255C343.487 67.46 343.823 67.617 344.092 67.7963C344.406 67.9308 344.563 68.1325 344.563 68.4015V71.8311C344.563 71.876 344.496 72.1674 344.361 72.7054C344.271 73.2434 344.137 73.8934 343.958 74.6556C343.778 75.3729 343.599 76.1126 343.42 76.8747C343.24 77.592 343.083 78.1749 342.949 78.6232C342.949 78.7128 342.882 78.937 342.747 79.2957C342.657 79.6095 342.545 79.9681 342.411 80.3716C342.321 80.7303 342.209 81.0889 342.075 81.4476C341.985 81.7614 341.94 81.9631 341.94 82.0528C341.85 82.277 341.806 82.5684 341.806 82.927C341.806 83.2857 341.783 83.6443 341.738 84.003C341.694 84.3617 341.604 84.6755 341.469 84.9445C341.335 85.2135 341.133 85.3928 340.864 85.4825L340.595 85.2135C340.595 85.1238 340.528 84.81 340.393 84.272C340.259 83.6892 340.102 82.9943 339.923 82.1873C339.788 81.3803 339.676 80.7303 339.586 80.2371C339.362 79.206 339.205 78.1973 339.116 77.211C339.071 76.2247 338.959 75.216 338.78 74.1848C338.78 74.14 338.735 73.9831 338.645 73.7141C338.555 73.4003 338.466 73.0864 338.376 72.7726C338.286 72.414 338.197 72.1001 338.107 71.8311C338.017 71.5622 337.973 71.3828 337.973 71.2932C337.973 71.2483 337.95 71.069 337.905 70.7552C337.905 70.3965 337.905 70.1275 337.905 69.9482C337.905 69.8585 337.905 69.6568 337.905 69.343C337.95 68.9843 337.973 68.7602 337.973 68.6705C338.197 68.3567 338.466 68.1101 338.78 67.9308C339.093 67.7514 339.385 67.5721 339.654 67.3928C339.923 67.1686 340.147 66.9445 340.326 66.7203C340.55 66.4513 340.662 66.1151 340.662 65.7116C340.662 64.8598 340.349 64.2097 339.721 63.7614C339.138 63.3131 338.421 62.9769 337.569 62.7527C336.717 62.5285 335.843 62.394 334.946 62.3492C334.05 62.3044 333.31 62.282 332.727 62.282C332.548 62.282 332.279 62.3044 331.92 62.3492C331.606 62.3492 331.427 62.3492 331.382 62.3492C331.248 62.3492 331.024 62.394 330.71 62.4837C330.441 62.5285 330.127 62.5958 329.768 62.6854C329.454 62.7751 329.141 62.8648 328.827 62.9544C328.558 63.0441 328.356 63.1113 328.222 63.1562C327.639 63.3355 327.303 63.6045 327.213 63.9632C327.168 64.277 327.146 64.658 327.146 65.1064C327.146 65.7788 327.258 66.272 327.482 66.5858C327.706 66.8996 327.953 67.1462 328.222 67.3255C328.491 67.46 328.737 67.5945 328.961 67.729C329.185 67.8187 329.298 67.9532 329.298 68.1325V71.2932L326.675 83.3978L326.137 84.4737H325.868C325.868 84.4737 325.801 84.272 325.666 83.8685C325.532 83.4202 325.42 83.0839 325.33 82.8598C325.195 82.3666 324.971 81.5148 324.657 80.3044C324.388 79.0491 324.075 77.7265 323.716 76.3367C323.402 74.9021 323.088 73.5572 322.775 72.3019C322.506 71.0466 322.304 70.1724 322.169 69.6792V69.2757C322.169 68.9171 322.326 68.6705 322.64 68.536C322.999 68.3567 323.38 68.1773 323.783 67.998C324.187 67.8187 324.545 67.5721 324.859 67.2583C325.218 66.8996 325.397 66.3617 325.397 65.6443C325.397 64.8374 325.173 64.2097 324.725 63.7614C324.321 63.3131 323.783 62.9769 323.111 62.7527C322.483 62.5285 321.811 62.394 321.093 62.3492C320.376 62.3044 319.726 62.282 319.143 62.282C318.515 62.282 317.888 62.3044 317.26 62.3492C316.677 62.3492 316.139 62.4613 315.646 62.6854C315.153 62.8648 314.75 63.1786 314.436 63.6269C314.167 64.0304 314.032 64.6132 314.032 65.3754C314.032 65.6443 314.01 65.9358 313.965 66.2496C313.965 66.5634 314.077 66.8324 314.301 67.0566C314.346 67.1462 314.458 67.3031 314.638 67.5273C314.862 67.7066 315.086 67.9084 315.31 68.1325C315.534 68.3567 315.736 68.5808 315.915 68.805C316.139 68.9843 316.296 69.1188 316.386 69.2085C317.148 71.5846 317.843 74.0952 318.471 76.7402C319.143 79.3405 319.771 81.8287 320.354 84.2047C320.847 86.3118 321.295 88.3965 321.699 90.4588C322.102 92.4762 322.707 94.5161 323.514 96.5783ZM356.094 81.3131C356.094 82.2994 356.228 83.4874 356.497 84.8772C356.811 86.267 357.237 87.6568 357.775 89.0466C358.313 90.4364 358.941 91.7365 359.658 92.947C360.42 94.1574 361.249 95.0541 362.146 95.6369C362.191 95.6817 362.37 95.7938 362.684 95.9731C363.043 96.1076 363.401 96.2869 363.76 96.5111C364.163 96.6904 364.545 96.8922 364.903 97.1163C365.307 97.2956 365.62 97.4301 365.845 97.5198C366.114 97.6095 366.562 97.6991 367.19 97.7888C367.817 97.8785 368.243 97.9457 368.467 97.9905C368.96 98.125 369.342 98.2595 369.611 98.394C369.88 98.5734 370.126 98.7303 370.35 98.8648C370.619 98.9993 370.933 99.1113 371.292 99.201C371.65 99.2907 372.166 99.3355 372.838 99.3355C374.183 99.3355 375.528 98.9768 376.873 98.2595C378.263 97.5422 379.541 96.6456 380.706 95.5696C381.872 94.4488 382.881 93.2159 383.733 91.871C384.629 90.526 385.257 89.2483 385.615 88.0379C385.66 87.7689 385.772 87.2757 385.952 86.5584C386.131 85.8411 386.31 85.1014 386.49 84.3392C386.714 83.5323 386.893 82.7925 387.028 82.1201C387.207 81.4028 387.342 80.9096 387.431 80.6406C387.431 80.5509 387.431 80.3268 387.431 79.9681C387.476 79.5646 387.498 79.2957 387.498 79.1612C387.498 77.9955 387.342 76.8747 387.028 75.7988C386.759 74.678 386.378 73.602 385.884 72.5709C385.436 71.4949 384.921 70.4638 384.338 69.4775C383.8 68.4463 383.262 67.4152 382.724 66.3841C382.679 66.3841 382.634 66.3617 382.589 66.3168C382.545 66.2272 382.5 66.1599 382.455 66.1151C380.886 64.7701 379.317 63.6942 377.748 62.8872C376.178 62.0354 374.318 61.6095 372.166 61.6095C369.342 61.6095 366.898 62.1699 364.836 63.2907C362.818 64.3666 361.16 65.8237 359.86 67.6618C358.559 69.4999 357.596 71.607 356.968 73.9831C356.385 76.3592 356.094 78.8025 356.094 81.3131ZM361.877 81.3803C361.877 80.125 361.922 78.937 362.012 77.8162C362.146 76.6954 362.393 75.6419 362.751 74.6556C363.155 73.6244 363.67 72.6605 364.298 71.7639C364.97 70.8673 365.845 70.0379 366.921 69.2757C367.19 69.0964 367.593 68.8498 368.131 68.536C368.669 68.1773 368.96 67.998 369.005 67.998H373.242C373.69 68.267 374.228 68.5136 374.856 68.7377C375.528 68.9619 376.156 69.2309 376.739 69.5447C377.366 69.8137 377.927 70.15 378.42 70.5534C378.958 70.9121 379.339 71.3828 379.563 71.9656C380.056 73.2658 380.437 74.5211 380.706 75.7315C381.02 76.8971 381.177 78.1749 381.177 79.5646C381.177 81.9407 380.863 84.0478 380.236 85.8859C379.608 87.6792 378.33 89.3604 376.403 90.9295C375.596 91.2433 374.856 91.4227 374.183 91.4675C373.556 91.4675 372.794 91.4675 371.897 91.4675C371.583 91.4675 371.112 91.4675 370.485 91.4675C369.902 91.4675 369.588 91.4451 369.543 91.4003C369.319 91.4003 369.05 91.3778 368.736 91.333C368.422 91.2882 368.109 91.2433 367.795 91.1985C367.526 91.1537 367.257 91.1089 366.988 91.064C366.764 90.9744 366.652 90.9295 366.652 90.9295L363.491 87.7689C363.222 87.4999 362.975 87.0964 362.751 86.5584C362.572 85.9756 362.415 85.3704 362.281 84.7427C362.146 84.1151 362.034 83.4874 361.944 82.8598C361.899 82.2321 361.877 81.739 361.877 81.3803ZM390.745 94.4937C390.745 95.6145 391.171 96.5335 392.023 97.2508C392.92 97.9681 393.906 98.3268 394.982 98.3268H402.648C403.096 98.1923 403.433 98.125 403.657 98.125C403.926 98.0802 404.24 98.0578 404.598 98.0578C405.36 98.0578 406.1 98.1026 406.817 98.1923C407.58 98.282 408.342 98.3268 409.104 98.3268C409.776 98.3268 410.494 98.3044 411.256 98.2595C412.018 98.1699 412.713 98.013 413.34 97.7888C414.013 97.5198 414.551 97.1387 414.954 96.6456C415.358 96.1076 415.56 95.3903 415.56 94.4937C415.56 93.4177 415.134 92.6107 414.282 92.0727C413.43 91.4899 412.489 91.1985 411.458 91.1985C410.964 91.1985 410.449 91.2433 409.911 91.333C409.418 91.4227 408.925 91.4675 408.431 91.4675C407.938 91.4675 407.512 91.4227 407.154 91.333C406.795 91.2433 406.526 90.9519 406.347 90.4588C406.347 90.2795 406.324 89.9881 406.279 89.5846C406.279 89.1811 406.257 88.7552 406.212 88.3069C406.212 87.8585 406.19 87.4326 406.145 87.0292C406.1 86.6257 406.078 86.3567 406.078 86.2222C406.078 86.1325 406.033 85.9084 405.943 85.5497C405.898 85.191 405.854 84.9669 405.809 84.8772V77.2782C405.809 77.0541 405.921 76.7178 406.145 76.2695C406.369 75.7764 406.638 75.2832 406.952 74.79C407.266 74.2969 407.58 73.8486 407.893 73.4451C408.252 72.9968 408.521 72.683 408.7 72.5036C408.835 72.3691 409.104 72.1001 409.507 71.6967C409.911 71.2932 410.337 70.8673 410.785 70.4189C411.233 69.9706 411.659 69.5447 412.063 69.1412C412.466 68.7377 412.758 68.4688 412.937 68.3343C413.116 68.1549 413.296 68.0653 413.475 68.0653C413.699 68.0204 413.923 67.998 414.147 67.998C414.237 67.998 414.394 67.998 414.618 67.998C414.842 67.998 414.977 68.1101 415.022 68.3343C415.067 68.9619 415.134 69.724 415.223 70.6207C415.358 71.4725 415.582 72.3019 415.896 73.1089C416.21 73.9158 416.636 74.6107 417.174 75.1935C417.712 75.7315 418.429 76.0005 419.326 76.0005C421.208 76.0005 422.531 75.4177 423.293 74.2521C424.1 73.0864 424.504 71.6742 424.504 70.0155C424.504 68.8498 424.257 67.7963 423.764 66.8548C423.316 65.8685 422.71 65.0391 421.948 64.3666C421.186 63.6942 420.267 63.1786 419.191 62.8199C418.16 62.4165 417.084 62.2147 415.963 62.2147C414.125 62.2147 412.399 62.6854 410.785 63.6269C409.216 64.5684 407.737 65.5995 406.347 66.7203H406.212C406.033 66.7203 405.854 66.6082 405.674 66.3841C405.54 66.1599 405.405 65.8909 405.271 65.5771C405.181 65.2633 405.091 64.9719 405.002 64.7029C404.912 64.3891 404.822 64.1873 404.733 64.0977C404.24 63.4252 403.522 62.9769 402.581 62.7527C401.639 62.4837 400.631 62.3268 399.555 62.282C398.479 62.2371 397.403 62.2595 396.327 62.3492C395.296 62.394 394.421 62.3716 393.704 62.282C393.704 62.2371 393.637 62.2147 393.502 62.2147C393.413 62.2147 393.345 62.2147 393.301 62.2147C392.359 62.2147 391.619 62.551 391.081 63.2234C390.543 63.8511 390.274 64.6132 390.274 65.5099C390.274 66.4065 390.566 67.1686 391.149 67.7963C391.776 68.3791 392.539 68.7153 393.435 68.805C393.659 68.805 394.04 68.8274 394.578 68.8722C395.116 68.9171 395.699 68.9619 396.327 69.0067C396.954 69.0067 397.537 69.0292 398.075 69.074C398.613 69.074 398.994 69.074 399.218 69.074L399.756 69.612L400.16 77.5472V78.8249L400.294 85.4152C400.25 85.5049 400.182 85.729 400.093 86.0877C400.048 86.4463 400.025 86.6705 400.025 86.7602C400.025 86.9395 400.003 87.2533 399.958 87.7016C399.913 88.1051 399.869 88.5534 399.824 89.0466C399.824 89.4949 399.801 89.9208 399.756 90.3243C399.756 90.7278 399.756 91.0192 399.756 91.1985L399.487 91.4675C399.443 91.4675 399.241 91.4899 398.882 91.5348C398.568 91.5348 398.322 91.5348 398.142 91.5348C397.47 91.5348 396.82 91.4899 396.192 91.4003C395.609 91.2658 395.004 91.1985 394.377 91.1985C393.345 91.1985 392.471 91.4899 391.754 92.0727C391.081 92.6556 390.745 93.4625 390.745 94.4937ZM440.66 62.013C440.256 62.013 439.808 62.0354 439.315 62.0802C438.867 62.0802 438.396 62.125 437.903 62.2147C437.41 62.2595 436.939 62.3492 436.491 62.4837C436.087 62.6182 435.751 62.8199 435.482 63.0889L429.968 68.6705C429.968 68.6705 429.923 68.7377 429.833 68.8722C429.788 69.0067 429.743 69.0964 429.699 69.1412C429.654 69.2757 429.542 69.5896 429.362 70.0827C429.228 70.5759 429.071 71.1138 428.892 71.6967C428.757 72.2795 428.6 72.8174 428.421 73.3106C428.286 73.7589 428.197 74.0503 428.152 74.1848C428.062 74.409 427.905 74.7901 427.681 75.328C427.457 75.8212 427.345 76.2247 427.345 76.5385V84.6755C427.345 84.7651 427.367 84.9669 427.412 85.2807C427.502 85.5497 427.591 85.8411 427.681 86.1549C427.816 86.4239 427.928 86.6929 428.017 86.9619C428.107 87.1861 428.152 87.3206 428.152 87.3654C428.69 88.8448 429.407 90.2346 430.304 91.5348C431.245 92.8349 432.299 93.9781 433.464 94.9644C434.675 95.9059 435.997 96.668 437.432 97.2508C438.911 97.8336 440.481 98.125 442.139 98.125C443.26 98.125 444.224 97.9233 445.031 97.5198C445.883 97.1163 446.824 96.6232 447.855 96.0404C448.169 95.861 448.393 95.7041 448.528 95.5696C448.662 95.4351 448.752 95.323 448.797 95.2334C448.887 95.1437 448.976 95.0765 449.066 95.0316C449.2 94.942 449.38 94.8971 449.604 94.8971C449.649 94.8971 449.716 94.9196 449.806 94.9644C449.895 94.9644 449.963 94.9644 450.007 94.9644C450.994 96.13 452.025 96.8697 453.101 97.1836C454.222 97.4974 455.544 97.6543 457.068 97.6543C457.741 97.6543 458.458 97.6319 459.22 97.5871C460.027 97.4974 460.767 97.3181 461.439 97.0491C462.112 96.7801 462.65 96.3766 463.053 95.8386C463.502 95.3006 463.726 94.5833 463.726 93.6867C463.726 92.8797 463.412 92.2969 462.784 91.9382C462.202 91.5796 461.507 91.3554 460.7 91.2658C459.893 91.1313 459.063 91.1089 458.212 91.1985C457.405 91.2433 456.777 91.2658 456.329 91.2658L455.656 90.7278V75.4625L455.118 74.1848V53.4052C455.118 53.0466 455.029 52.6655 454.849 52.262C454.67 51.8585 454.423 51.4999 454.109 51.1861C453.84 50.8274 453.527 50.536 453.168 50.3118C452.809 50.0877 452.451 49.9756 452.092 49.9756H443.955C443.327 49.9756 442.812 50.1774 442.408 50.5808C442.005 50.9395 441.803 51.4326 441.803 52.0603C441.803 53.3604 442.207 54.2346 443.014 54.683C443.865 55.1313 444.784 55.4227 445.771 55.5572C446.757 55.6468 447.654 55.7365 448.461 55.8262C449.312 55.9158 449.738 56.2521 449.738 56.8349V63.0889L449.2 64.7029C449.2 64.7029 449.133 64.7253 448.999 64.7701C448.909 64.7701 448.842 64.7701 448.797 64.7701C448.169 64.7701 447.721 64.6356 447.452 64.3666C447.183 64.0528 446.802 63.7166 446.309 63.3579C445.457 62.8199 444.538 62.4613 443.552 62.282C442.565 62.1026 441.601 62.013 440.66 62.013ZM433.128 79.5646C433.128 78.4438 433.24 77.1886 433.464 75.7988C433.733 74.409 434.159 73.1313 434.742 71.9656C435.37 70.8 436.177 69.8137 437.163 69.0067C438.194 68.1998 439.449 67.7963 440.929 67.7963C442.453 67.7963 443.776 68.1998 444.897 69.0067C446.017 69.8137 446.936 70.8224 447.654 72.0329C448.371 73.2434 448.887 74.5659 449.2 76.0005C449.559 77.4351 449.738 78.8025 449.738 80.1026C449.738 81.1786 449.581 82.4115 449.268 83.8013C448.954 85.1462 448.461 86.4239 447.788 87.6344C447.161 88.8 446.354 89.8087 445.367 90.6605C444.426 91.4675 443.305 91.871 442.005 91.871C440.391 91.871 439.001 91.4899 437.835 90.7278C436.715 89.9656 435.796 88.9793 435.078 87.7689C434.406 86.5584 433.913 85.2359 433.599 83.8013C433.285 82.3218 433.128 80.9096 433.128 79.5646Z" fill="white"/>
</svg>
