<svg width="288" height="358" viewBox="0 0 288 358" fill="none" xmlns="http://www.w3.org/2000/svg">
<rect x="1.9425" y="1.9425" width="284.115" height="354.615" fill="#ABA361" stroke="#605B38" stroke-width="2.115"/>
<rect x="21.125" y="21.125" width="245.75" height="316.25" fill="#8B444E" stroke="#605B38"/>
<rect x="72.513" y="222.384" width="28.6107" height="4.86114" transform="rotate(-90 72.513 222.384)" fill="#F5BC4D" stroke="black" stroke-width="0.564"/>
<rect x="76.7046" y="218.434" width="3.50223" height="8.084" transform="rotate(-90 76.7046 218.434)" fill="#F5BC4D" stroke="black" stroke-width="0.564"/>
<rect x="76.6756" y="210.381" width="2.96801" height="4.86114" transform="rotate(-90 76.6756 210.381)" fill="#F5BC4D" stroke="black" stroke-width="0.564"/>
<rect x="67.578" y="195.195" width="15.5223" height="14.7983" transform="rotate(-90 67.578 195.195)" fill="#F5BC4D" stroke="black" stroke-width="0.564"/>
<rect x="72.9368" y="194.055" width="4.01335" height="4.935" fill="#F5BC4D"/>
<rect x="74.4999" y="207.845" width="4.01335" height="2.10979" fill="#F5BC4D"/>
<rect x="73.8809" y="215.356" width="4.01335" height="2.65662" fill="#F5BC4D"/>
<rect x="71.338" y="190.921" width="7.2418" height="7.27829" transform="rotate(-90 71.338 190.921)" fill="#8B444E" stroke="black" stroke-width="0.564"/>
<rect x="140.193" y="223.089" width="28.6107" height="4.86114" transform="rotate(-90 140.193 223.089)" fill="#F5BC4D" stroke="black" stroke-width="0.564"/>
<rect x="144.385" y="219.139" width="3.50223" height="8.084" transform="rotate(-90 144.385 219.139)" fill="#F5BC4D" stroke="black" stroke-width="0.564"/>
<rect x="144.356" y="211.086" width="2.96801" height="4.86114" transform="rotate(-90 144.356 211.086)" fill="#F5BC4D" stroke="black" stroke-width="0.564"/>
<rect x="135.258" y="195.9" width="15.5223" height="14.7983" transform="rotate(-90 135.258 195.9)" fill="#F5BC4D" stroke="black" stroke-width="0.564"/>
<rect x="140.617" y="194.76" width="4.01335" height="4.935" fill="#F5BC4D"/>
<rect x="142.18" y="208.55" width="4.01335" height="2.10979" fill="#F5BC4D"/>
<rect x="141.561" y="216.061" width="4.01335" height="2.65662" fill="#F5BC4D"/>
<rect x="139.018" y="191.626" width="7.2418" height="7.27829" transform="rotate(-90 139.018 191.626)" fill="#8B444E" stroke="black" stroke-width="0.564"/>
<rect x="174.033" y="211.809" width="28.6107" height="4.86114" transform="rotate(-90 174.033 211.809)" fill="#F5BC4D" stroke="black" stroke-width="0.564"/>
<rect x="178.225" y="207.859" width="3.50223" height="8.084" transform="rotate(-90 178.225 207.859)" fill="#F5BC4D" stroke="black" stroke-width="0.564"/>
<rect x="178.196" y="199.806" width="2.96801" height="4.86114" transform="rotate(-90 178.196 199.806)" fill="#F5BC4D" stroke="black" stroke-width="0.564"/>
<rect x="169.098" y="184.62" width="15.5223" height="14.7983" transform="rotate(-90 169.098 184.62)" fill="#F5BC4D" stroke="black" stroke-width="0.564"/>
<rect x="174.457" y="183.48" width="4.01335" height="4.935" fill="#F5BC4D"/>
<rect x="176.02" y="197.27" width="4.01335" height="2.10979" fill="#F5BC4D"/>
<rect x="175.401" y="204.781" width="4.01335" height="2.65662" fill="#F5BC4D"/>
<rect x="172.858" y="180.346" width="7.2418" height="7.27829" transform="rotate(-90 172.858 180.346)" fill="#8B444E" stroke="black" stroke-width="0.564"/>
<rect x="207.873" y="220.269" width="28.6107" height="4.86114" transform="rotate(-90 207.873 220.269)" fill="#F5BC4D" stroke="black" stroke-width="0.564"/>
<rect x="212.065" y="216.319" width="3.50223" height="8.084" transform="rotate(-90 212.065 216.319)" fill="#F5BC4D" stroke="black" stroke-width="0.564"/>
<rect x="212.036" y="208.266" width="2.96801" height="4.86114" transform="rotate(-90 212.036 208.266)" fill="#F5BC4D" stroke="black" stroke-width="0.564"/>
<rect x="202.938" y="193.08" width="15.5223" height="14.7983" transform="rotate(-90 202.938 193.08)" fill="#F5BC4D" stroke="black" stroke-width="0.564"/>
<rect x="208.297" y="191.94" width="4.01335" height="4.935" fill="#F5BC4D"/>
<rect x="209.86" y="205.73" width="4.01335" height="2.10979" fill="#F5BC4D"/>
<rect x="209.241" y="213.241" width="4.01335" height="2.65662" fill="#F5BC4D"/>
<rect x="206.698" y="188.806" width="7.2418" height="7.27829" transform="rotate(-90 206.698 188.806)" fill="#8B444E" stroke="black" stroke-width="0.564"/>
<rect x="72.513" y="121.569" width="28.6107" height="4.86114" transform="rotate(-90 72.513 121.569)" fill="#F5BC4D" stroke="black" stroke-width="0.564"/>
<rect x="76.7046" y="117.619" width="3.50223" height="8.084" transform="rotate(-90 76.7046 117.619)" fill="#F5BC4D" stroke="black" stroke-width="0.564"/>
<rect x="76.6756" y="109.566" width="2.96801" height="4.86114" transform="rotate(-90 76.6756 109.566)" fill="#F5BC4D" stroke="black" stroke-width="0.564"/>
<rect x="67.578" y="94.3803" width="15.5223" height="14.7983" transform="rotate(-90 67.578 94.3803)" fill="#F5BC4D" stroke="black" stroke-width="0.564"/>
<rect x="72.9368" y="93.24" width="4.01335" height="4.935" fill="#F5BC4D"/>
<rect x="74.4999" y="107.03" width="4.01335" height="2.10979" fill="#F5BC4D"/>
<rect x="73.8809" y="114.541" width="4.01335" height="2.65662" fill="#F5BC4D"/>
<rect x="71.338" y="90.1065" width="7.2418" height="7.27829" transform="rotate(-90 71.338 90.1065)" fill="#8B444E" stroke="black" stroke-width="0.564"/>
<rect x="140.193" y="122.274" width="28.6107" height="4.86114" transform="rotate(-90 140.193 122.274)" fill="#F5BC4D" stroke="black" stroke-width="0.564"/>
<rect x="144.385" y="118.324" width="3.50223" height="8.084" transform="rotate(-90 144.385 118.324)" fill="#F5BC4D" stroke="black" stroke-width="0.564"/>
<rect x="144.356" y="110.271" width="2.96801" height="4.86114" transform="rotate(-90 144.356 110.271)" fill="#F5BC4D" stroke="black" stroke-width="0.564"/>
<rect x="135.258" y="95.0853" width="15.5223" height="14.7983" transform="rotate(-90 135.258 95.0853)" fill="#F5BC4D" stroke="black" stroke-width="0.564"/>
<rect x="140.617" y="93.945" width="4.01335" height="4.935" fill="#F5BC4D"/>
<rect x="142.18" y="107.735" width="4.01335" height="2.10979" fill="#F5BC4D"/>
<rect x="141.561" y="115.246" width="4.01335" height="2.65662" fill="#F5BC4D"/>
<rect x="139.018" y="90.8115" width="7.2418" height="7.27829" transform="rotate(-90 139.018 90.8115)" fill="#8B444E" stroke="black" stroke-width="0.564"/>
<rect x="207.873" y="119.454" width="28.6107" height="4.86114" transform="rotate(-90 207.873 119.454)" fill="#F5BC4D" stroke="black" stroke-width="0.564"/>
<rect x="212.065" y="115.504" width="3.50223" height="8.084" transform="rotate(-90 212.065 115.504)" fill="#F5BC4D" stroke="black" stroke-width="0.564"/>
<rect x="212.036" y="107.451" width="2.96801" height="4.86114" transform="rotate(-90 212.036 107.451)" fill="#F5BC4D" stroke="black" stroke-width="0.564"/>
<rect x="202.938" y="92.2653" width="15.5223" height="14.7983" transform="rotate(-90 202.938 92.2653)" fill="#F5BC4D" stroke="black" stroke-width="0.564"/>
<rect x="208.297" y="91.125" width="4.01335" height="4.935" fill="#F5BC4D"/>
<rect x="209.86" y="104.915" width="4.01335" height="2.10979" fill="#F5BC4D"/>
<rect x="209.241" y="112.426" width="4.01335" height="2.65662" fill="#F5BC4D"/>
<rect x="206.698" y="87.9915" width="7.2418" height="7.27829" transform="rotate(-90 206.698 87.9915)" fill="#8B444E" stroke="black" stroke-width="0.564"/>
<rect x="72.513" y="318.264" width="28.6107" height="4.86114" transform="rotate(-90 72.513 318.264)" fill="#F5BC4D" stroke="black" stroke-width="0.564"/>
<rect x="76.7046" y="314.314" width="3.50223" height="8.084" transform="rotate(-90 76.7046 314.314)" fill="#F5BC4D" stroke="black" stroke-width="0.564"/>
<rect x="76.6756" y="306.261" width="2.96801" height="4.86114" transform="rotate(-90 76.6756 306.261)" fill="#F5BC4D" stroke="black" stroke-width="0.564"/>
<rect x="67.578" y="291.075" width="15.5223" height="14.7983" transform="rotate(-90 67.578 291.075)" fill="#F5BC4D" stroke="black" stroke-width="0.564"/>
<rect x="72.9368" y="289.935" width="4.01335" height="4.935" fill="#F5BC4D"/>
<rect x="74.4999" y="303.725" width="4.01335" height="2.10979" fill="#F5BC4D"/>
<rect x="73.8809" y="311.236" width="4.01335" height="2.65662" fill="#F5BC4D"/>
<rect x="71.338" y="286.801" width="7.2418" height="7.27829" transform="rotate(-90 71.338 286.801)" fill="#8B444E" stroke="black" stroke-width="0.564"/>
<rect x="106.353" y="305.574" width="28.6107" height="4.86114" transform="rotate(-90 106.353 305.574)" fill="#F5BC4D" stroke="black" stroke-width="0.564"/>
<rect x="110.545" y="301.624" width="3.50223" height="8.084" transform="rotate(-90 110.545 301.624)" fill="#F5BC4D" stroke="black" stroke-width="0.564"/>
<rect x="110.516" y="293.571" width="2.96801" height="4.86114" transform="rotate(-90 110.516 293.571)" fill="#F5BC4D" stroke="black" stroke-width="0.564"/>
<rect x="101.418" y="278.385" width="15.5223" height="14.7983" transform="rotate(-90 101.418 278.385)" fill="#F5BC4D" stroke="black" stroke-width="0.564"/>
<rect x="106.777" y="277.245" width="4.01335" height="4.935" fill="#F5BC4D"/>
<rect x="108.34" y="291.035" width="4.01335" height="2.10979" fill="#F5BC4D"/>
<rect x="107.721" y="298.546" width="4.01335" height="2.65662" fill="#F5BC4D"/>
<rect x="105.178" y="274.111" width="7.2418" height="7.27829" transform="rotate(-90 105.178 274.111)" fill="#8B444E" stroke="black" stroke-width="0.564"/>
<rect x="207.873" y="316.149" width="28.6107" height="4.86114" transform="rotate(-90 207.873 316.149)" fill="#F5BC4D" stroke="black" stroke-width="0.564"/>
<rect x="212.065" y="312.199" width="3.50223" height="8.084" transform="rotate(-90 212.065 312.199)" fill="#F5BC4D" stroke="black" stroke-width="0.564"/>
<rect x="212.036" y="304.146" width="2.96801" height="4.86114" transform="rotate(-90 212.036 304.146)" fill="#F5BC4D" stroke="black" stroke-width="0.564"/>
<rect x="202.938" y="288.96" width="15.5223" height="14.7983" transform="rotate(-90 202.938 288.96)" fill="#F5BC4D" stroke="black" stroke-width="0.564"/>
<rect x="208.297" y="287.82" width="4.01335" height="4.935" fill="#F5BC4D"/>
<rect x="209.86" y="301.61" width="4.01335" height="2.10979" fill="#F5BC4D"/>
<rect x="209.241" y="309.121" width="4.01335" height="2.65662" fill="#F5BC4D"/>
<rect x="206.698" y="284.686" width="7.2418" height="7.27829" transform="rotate(-90 206.698 284.686)" fill="#8B444E" stroke="black" stroke-width="0.564"/>
<path d="M93.4805 56.0789C93.5613 56.564 93.7533 56.9075 94.0564 57.1096C94.3798 57.3117 94.7436 57.4431 95.1478 57.5037C95.552 57.5442 95.9764 57.5644 96.421 57.5644C96.8656 57.5442 97.2698 57.5644 97.6336 57.625H97.6942C98.0984 57.625 98.4117 57.4633 98.634 57.14C98.8563 56.8166 98.9675 56.4831 98.9675 56.1396C98.9675 55.8768 98.9473 55.6949 98.9068 55.5939C98.8664 55.4928 98.7553 55.3008 98.5734 55.0179C98.4319 54.7754 98.2601 54.6036 98.058 54.5026C97.8559 54.4015 97.6538 54.3207 97.4517 54.26C97.2496 54.1994 97.0475 54.1287 96.8454 54.0478C96.6433 53.967 96.4715 53.8154 96.3301 53.5931C96.1684 53.3506 96.0774 53.0373 96.0572 52.6533C96.0572 52.2491 96.0269 51.9258 95.9663 51.6833C95.8046 51.0163 95.6025 50.2989 95.36 49.5309C95.1377 48.7427 94.8244 48.0354 94.4202 47.4088V47.136C94.4202 46.8935 94.4808 46.6914 94.6021 46.5297C94.7234 46.3478 94.8749 46.1861 95.0568 46.0447C95.2387 45.9032 95.4206 45.7617 95.6025 45.6203C95.8046 45.4788 95.9663 45.3272 96.0875 45.1655C96.4513 44.7007 96.6837 44.155 96.7848 43.5285C96.8858 42.8818 96.9364 42.2755 96.9364 41.7096C96.9364 40.396 96.6736 39.3451 96.1482 38.5569C95.6227 37.7485 94.9356 37.1321 94.0868 36.7076C93.2379 36.2832 92.278 36.0003 91.2068 35.8588C90.1559 35.7174 89.105 35.6466 88.0541 35.6466C87.8318 35.6466 87.6297 35.6567 87.4478 35.6769C87.2659 35.6769 87.0638 35.7376 86.8415 35.8588H82.2033C81.8193 35.8588 81.5464 36.0205 81.3848 36.3439C81.2231 36.647 81.1422 36.9603 81.1422 37.2836C81.1422 37.4857 81.1726 37.7283 81.2332 38.0112C81.2938 38.2739 81.4555 38.4457 81.7182 38.5265L83.6281 38.9813L83.8706 39.2238L84.0525 46.3478V46.9541L84.1131 53.7144C84.1131 53.7548 84.0828 53.8154 84.0222 53.8963C83.9615 53.9771 83.911 54.0377 83.8706 54.0781C83.5674 54.0781 83.2441 54.0882 82.9005 54.1085C82.5772 54.1287 82.274 54.1893 81.9911 54.2903C81.7081 54.3914 81.4757 54.5531 81.2938 54.7754C81.1119 54.9775 81.021 55.2705 81.021 55.6545C81.021 55.8364 81.0513 56.0284 81.1119 56.2305C81.1928 56.4326 81.2938 56.6246 81.4151 56.8065C81.5566 56.9884 81.7081 57.14 81.8698 57.2612C82.0517 57.3623 82.2437 57.4027 82.4458 57.3825C82.6277 57.3825 82.9409 57.3926 83.3856 57.4128C83.8302 57.433 84.3051 57.4532 84.8104 57.4734C85.3156 57.4734 85.7905 57.4835 86.2352 57.5037C86.7 57.5037 87.0234 57.5037 87.2052 57.5037H87.5387C87.7812 57.5037 88.044 57.4936 88.3269 57.4734C88.6301 57.433 88.9029 57.3623 89.1454 57.2612C89.4081 57.1602 89.6203 57.0187 89.782 56.8368C89.9639 56.6549 90.0549 56.4023 90.0549 56.0789C90.0549 55.5737 89.873 55.2099 89.5092 54.9876C89.1454 54.7451 88.7513 54.5632 88.3269 54.4419C87.9025 54.3207 87.5084 54.2196 87.1446 54.1388C86.7808 54.0377 86.5989 53.8963 86.5989 53.7144V48.0151L86.7202 47.8939C86.7404 47.8737 86.8718 47.8535 87.1143 47.8333C87.3568 47.7928 87.5387 47.7726 87.66 47.7726H88.7816C89.0444 47.7726 89.2667 47.7726 89.4486 47.7726C89.6507 47.7726 89.8427 47.7827 90.0245 47.8029C90.2266 47.8029 90.4287 47.8231 90.6308 47.8636C90.8329 47.904 91.0755 47.9545 91.3584 48.0151C91.5807 48.1768 91.7525 48.3991 91.8738 48.6821C92.0152 48.965 92.1567 49.2176 92.2982 49.4399C92.5811 49.925 92.8034 50.4403 92.9651 50.986C93.147 51.5317 93.2784 52.0976 93.3592 52.6837C93.44 53.2495 93.4805 53.8255 93.4805 54.4116C93.5007 54.9775 93.5007 55.5333 93.4805 56.0789ZM87.2962 38.7691C87.3972 38.7489 87.5791 38.7388 87.8419 38.7388C88.1046 38.7388 88.2865 38.7388 88.3875 38.7388C89.2364 38.7388 90.0852 38.7994 90.934 38.9206C91.7828 39.0217 92.5912 39.244 93.3592 39.5876C93.7634 39.8907 94.0261 40.2747 94.1474 40.7395C94.2686 41.1842 94.3293 41.6389 94.3293 42.1037C94.3293 42.8919 94.0868 43.5285 93.6017 44.0136C93.1369 44.4784 92.5407 44.822 91.8131 45.0443H90.8127C90.4894 45.0443 90.1862 45.0241 89.9033 44.9836C89.6203 44.9432 89.3273 44.923 89.0241 44.923C88.7816 44.923 88.5391 44.9432 88.2966 44.9836C88.0541 45.0241 87.8014 45.0443 87.5387 45.0443H86.8415C86.801 44.9836 86.7505 44.8826 86.6899 44.7411C86.6293 44.5997 86.5989 44.4986 86.5989 44.438V39.2238C86.5989 39.0621 86.6899 38.951 86.8718 38.8903C87.0537 38.8297 87.1951 38.7893 87.2962 38.7691ZM100.219 50.1675C100.219 51.1578 100.37 52.1077 100.674 53.0171C100.977 53.9064 101.411 54.6945 101.977 55.3817C102.543 56.0688 103.24 56.6145 104.069 57.0187C104.898 57.4229 105.827 57.625 106.858 57.625C107.909 57.625 108.929 57.433 109.92 57.049C110.91 56.665 111.708 56.0284 112.315 55.1392C112.557 54.7754 112.779 54.4116 112.982 54.0478C113.184 53.6638 113.285 53.2394 113.285 52.7746C113.285 52.4917 113.184 52.2592 112.982 52.0774C112.8 51.8955 112.557 51.8045 112.254 51.8045C111.931 51.8045 111.658 51.8854 111.435 52.047C111.213 52.2087 111.001 52.4108 110.799 52.6533C110.617 52.8959 110.435 53.1485 110.253 53.4112C110.091 53.6739 109.91 53.8963 109.708 54.0781C109.445 54.3005 109.132 54.4621 108.768 54.5632C108.404 54.644 108.081 54.7956 107.798 55.0179C107.737 55.0179 107.596 55.028 107.373 55.0482C107.171 55.0482 107.04 55.0482 106.979 55.0482C106.373 55.0482 105.817 54.9371 105.312 54.7148C104.807 54.4722 104.362 54.159 103.978 53.775C103.614 53.3708 103.321 52.906 103.099 52.3805C102.897 51.855 102.796 51.2993 102.796 50.7132C102.796 50.6728 102.796 50.5919 102.796 50.4707C102.816 50.3494 102.826 50.2787 102.826 50.2585L102.947 50.1675C102.947 50.1675 103.058 50.1574 103.281 50.1372C103.503 50.117 103.766 50.1069 104.069 50.1069C104.372 50.0867 104.675 50.0766 104.978 50.0766C105.302 50.0564 105.575 50.0462 105.797 50.0462C106.019 50.0462 106.413 50.0462 106.979 50.0462C107.565 50.026 108.172 50.0159 108.798 50.0159C109.445 50.0159 110.051 50.026 110.617 50.0462C111.203 50.0462 111.607 50.0462 111.83 50.0462C112.153 49.9856 112.466 49.9048 112.769 49.8037C113.072 49.7027 113.315 49.5006 113.497 49.1974C113.497 49.157 113.497 49.0762 113.497 48.9549C113.517 48.8134 113.527 48.7225 113.527 48.6821C113.527 48.5002 113.487 48.2273 113.406 47.8636C113.325 47.4796 113.224 47.0956 113.103 46.7116C113.002 46.3074 112.88 45.9436 112.739 45.6203C112.618 45.2767 112.517 45.0443 112.436 44.923C111.668 43.9529 110.839 43.1647 109.95 42.5584C109.061 41.9319 107.969 41.6187 106.676 41.6187C106.454 41.6187 106.221 41.6187 105.979 41.6187C105.756 41.5985 105.534 41.6389 105.312 41.7399C105.251 41.7601 105.14 41.8107 104.978 41.8915C104.837 41.9521 104.675 42.033 104.493 42.134C104.311 42.2149 104.14 42.2957 103.978 42.3766C103.816 42.4574 103.705 42.518 103.645 42.5584C102.978 42.9222 102.422 43.3972 101.977 43.9832C101.553 44.5491 101.209 45.1756 100.946 45.8628C100.684 46.5297 100.492 47.2371 100.37 47.9848C100.269 48.7326 100.219 49.4602 100.219 50.1675ZM103.069 47.3785C103.069 46.8733 103.19 46.4388 103.432 46.075C103.675 45.691 103.978 45.3777 104.342 45.1352C104.706 44.8927 105.11 44.7209 105.554 44.6199C105.999 44.4986 106.433 44.438 106.858 44.438C107.242 44.438 107.646 44.4885 108.07 44.5895C108.515 44.6704 108.919 44.8119 109.283 45.014C109.647 45.1958 109.95 45.4586 110.193 45.8021C110.435 46.1255 110.556 46.5297 110.556 47.0147C110.556 47.0552 110.556 47.1259 110.556 47.227C110.556 47.328 110.546 47.3987 110.526 47.4392C110.486 47.4796 110.425 47.5301 110.344 47.5907C110.283 47.6312 110.233 47.6514 110.193 47.6514H103.19C103.109 47.6514 103.069 47.621 103.069 47.5604C103.069 47.4796 103.069 47.4189 103.069 47.3785ZM114.769 59.0195C114.769 59.9492 114.991 60.6868 115.436 61.2325C115.901 61.7984 116.547 62.2228 117.376 62.5057C117.538 62.5461 117.669 62.6169 117.77 62.7179C117.891 62.8392 118.033 62.9301 118.195 62.9908C119.043 63.2939 119.872 63.4859 120.68 63.5667C121.489 63.6476 122.348 63.688 123.257 63.688C124.066 63.688 124.884 63.5971 125.713 63.4152C126.561 63.2535 127.329 62.9705 128.017 62.5663C128.704 62.1824 129.259 61.6569 129.684 60.99C130.108 60.3432 130.321 59.5348 130.321 58.5648C130.321 58.1808 130.27 57.8372 130.169 57.5341C130.068 57.2309 129.926 56.9581 129.745 56.7155C129.563 56.4528 129.35 56.2103 129.108 55.988C128.865 55.7657 128.593 55.5232 128.289 55.2604C128.148 55.1392 128.047 55.0482 127.986 54.9876C127.926 54.927 127.875 54.8764 127.835 54.836C127.794 54.7956 127.734 54.7552 127.653 54.7148C127.592 54.6743 127.491 54.6238 127.35 54.5632C127.006 54.4419 126.602 54.3813 126.137 54.3813C125.692 54.3813 125.339 54.3611 125.076 54.3207C125.036 54.3207 124.924 54.3005 124.743 54.26C124.581 54.2196 124.399 54.1792 124.197 54.1388C123.995 54.0984 123.803 54.0579 123.621 54.0175C123.459 53.9771 123.358 53.9569 123.318 53.9569H122.257C121.549 53.9569 120.862 54.0579 120.195 54.26C119.528 54.4621 118.841 54.5632 118.134 54.5632C118.033 54.5632 117.932 54.5228 117.831 54.4419C117.73 54.3611 117.659 54.2802 117.619 54.1994V53.775C117.619 53.4516 117.679 53.1687 117.8 52.9262C117.942 52.6634 118.205 52.5321 118.589 52.5321C118.912 52.5321 119.215 52.5826 119.498 52.6837C119.781 52.7645 120.054 52.8554 120.317 52.9565C120.6 53.0575 120.882 53.1586 121.165 53.2596C121.448 53.3405 121.751 53.3809 122.075 53.3809C122.317 53.3809 122.509 53.3708 122.651 53.3506C122.813 53.3102 122.954 53.2596 123.075 53.199C123.217 53.1384 123.358 53.0777 123.5 53.0171C123.641 52.9363 123.813 52.8554 124.015 52.7746C124.54 52.5725 124.985 52.2997 125.349 51.9561C125.733 51.5923 126.046 51.1881 126.289 50.7435C126.531 50.2787 126.703 49.7835 126.804 49.2581C126.925 48.7326 126.986 48.197 126.986 47.6514C126.986 47.1461 126.915 46.6712 126.774 46.2266C126.632 45.7617 126.561 45.2767 126.561 44.7714C126.683 44.7714 126.794 44.8725 126.895 45.0746C127.016 45.2767 127.158 45.5091 127.319 45.7718C127.481 46.0144 127.693 46.2367 127.956 46.4388C128.219 46.6409 128.572 46.7419 129.017 46.7419C129.643 46.7419 130.078 46.5196 130.321 46.075C130.563 45.6102 130.684 45.0948 130.684 44.5289C130.684 44.0843 130.573 43.6801 130.351 43.3163C130.149 42.9525 129.876 42.6494 129.532 42.4069C129.209 42.1441 128.835 41.9521 128.411 41.8309C127.986 41.6894 127.572 41.6187 127.168 41.6187C126.38 41.6187 125.682 41.9016 125.076 42.4675H124.5C124.217 42.4675 123.944 42.4271 123.682 42.3462C123.419 42.2452 123.156 42.1441 122.893 42.0431C122.651 41.942 122.398 41.8511 122.135 41.7703C121.873 41.6692 121.61 41.6187 121.347 41.6187C121.287 41.6187 121.196 41.6389 121.074 41.6793C120.953 41.6995 120.832 41.7298 120.711 41.7703C120.589 41.8107 120.468 41.8511 120.347 41.8915C120.246 41.9319 120.165 41.9622 120.104 41.9825C118.952 42.4877 118.043 43.2153 117.376 44.1651C116.729 45.115 116.406 46.2266 116.406 47.4998C116.406 47.9646 116.467 48.4092 116.588 48.8336C116.729 49.2581 116.8 49.7027 116.8 50.1675C116.8 50.2079 116.8 50.2686 116.8 50.3494C116.8 50.4302 116.79 50.4909 116.77 50.5313C116.285 50.9961 115.88 51.4913 115.557 52.0167C115.254 52.522 115.102 53.1182 115.102 53.8053C115.102 54.0276 115.143 54.2499 115.224 54.4722C115.304 54.6743 115.385 54.8764 115.466 55.0785C115.567 55.2806 115.658 55.4827 115.739 55.6848C115.82 55.8869 115.86 56.089 115.86 56.2911L115.83 56.4427C115.486 56.8267 115.224 57.2107 115.042 57.5947C114.86 57.9787 114.769 58.4536 114.769 59.0195ZM117.376 59.1711V58.6557C117.376 58.1505 117.538 57.7665 117.861 57.5037C118.205 57.2208 118.609 57.0086 119.074 56.8671C119.559 56.7257 120.064 56.6448 120.589 56.6246C121.115 56.5842 121.57 56.564 121.954 56.564C122.237 56.564 122.701 56.5842 123.348 56.6246C124.015 56.665 124.682 56.7661 125.349 56.9278C126.036 57.0692 126.632 57.2814 127.137 57.5644C127.663 57.8473 127.926 58.2313 127.926 58.7163C127.926 59.0195 127.825 59.2822 127.622 59.5045C127.42 59.7268 127.178 59.9188 126.895 60.0805C126.612 60.2422 126.309 60.3736 125.985 60.4746C125.682 60.5757 125.42 60.6565 125.197 60.7171C124.611 60.7576 123.975 60.7879 123.287 60.8081C122.621 60.8283 121.964 60.8384 121.317 60.8384C120.529 60.8384 119.801 60.707 119.134 60.4443C118.488 60.1816 117.901 59.7572 117.376 59.1711ZM118.558 47.621C118.558 47.1764 118.649 46.7621 118.831 46.3781C119.013 45.9941 119.256 45.6607 119.559 45.3777C119.862 45.0948 120.205 44.8725 120.589 44.7108C120.994 44.5491 121.408 44.4683 121.832 44.4683C122.762 44.4683 123.459 44.7815 123.924 45.4081C124.389 46.0144 124.621 46.7722 124.621 47.6817C124.621 48.1263 124.551 48.5507 124.409 48.9549C124.268 49.3591 124.066 49.7128 123.803 50.0159C123.54 50.3191 123.217 50.5616 122.833 50.7435C122.469 50.9254 122.055 51.0163 121.59 51.0163C121.165 51.0163 120.761 50.9153 120.377 50.7132C120.013 50.5111 119.69 50.2585 119.407 49.9553C119.144 49.6319 118.932 49.2682 118.771 48.864C118.629 48.4598 118.558 48.0455 118.558 47.621ZM131.924 56.1699C131.924 56.5134 132.025 56.8065 132.227 57.049C132.45 57.2915 132.743 57.4128 133.106 57.4128H143.444C143.787 57.4128 144.03 57.2713 144.171 56.9884C144.333 56.7054 144.414 56.4225 144.414 56.1396C144.414 55.9981 144.384 55.8263 144.323 55.6242C144.283 55.4221 144.202 55.2301 144.08 55.0482C143.979 54.8663 143.848 54.7148 143.686 54.5935C143.545 54.452 143.383 54.3813 143.201 54.3813H139.988L139.806 54.1994V42.9222C139.806 42.4978 139.614 42.1745 139.23 41.9521C138.866 41.7298 138.513 41.6187 138.169 41.6187C137.927 41.6187 137.684 41.6389 137.441 41.6793C137.219 41.7197 136.987 41.7399 136.744 41.7399C136.401 41.7399 136.057 41.7197 135.714 41.6793C135.39 41.6389 135.057 41.6187 134.713 41.6187C134.491 41.6187 134.238 41.6389 133.955 41.6793C133.693 41.6995 133.44 41.7601 133.197 41.8612C132.975 41.942 132.783 42.0734 132.621 42.2553C132.46 42.4372 132.379 42.6898 132.379 43.0132C132.379 43.1748 132.399 43.3567 132.439 43.5588C132.5 43.7407 132.581 43.9125 132.682 44.0742C132.783 44.2359 132.904 44.3773 133.046 44.4986C133.207 44.5997 133.389 44.6502 133.591 44.6502H137.138V51.3498C137.118 51.3902 137.098 51.4913 137.078 51.6529C137.057 51.8146 137.037 51.9157 137.017 51.9561C137.017 52.0369 137.007 52.1784 136.987 52.3805C136.987 52.5826 136.977 52.7948 136.956 53.0171C136.936 53.2394 136.916 53.4516 136.896 53.6537C136.896 53.8558 136.896 53.9973 136.896 54.0781L136.684 54.3813H133.349C132.864 54.3813 132.5 54.5834 132.258 54.9876C132.035 55.3716 131.924 55.7657 131.924 56.1699ZM135.956 37.8899C135.956 38.5569 136.128 39.1328 136.471 39.6179C136.835 40.1029 137.361 40.3454 138.048 40.3454C138.614 40.3454 139.119 40.1737 139.564 39.8301C140.008 39.4663 140.23 38.9813 140.23 38.375C140.23 38.0718 140.17 37.7687 140.049 37.4655C139.948 37.1624 139.796 36.8895 139.594 36.647C139.412 36.3843 139.18 36.1822 138.897 36.0407C138.634 35.879 138.341 35.7982 138.017 35.7982C137.411 35.7982 136.916 36.0003 136.532 36.4045C136.148 36.8087 135.956 37.3038 135.956 37.8899ZM145.645 56.1092C145.645 56.473 145.716 56.8368 145.857 57.2006C146.019 57.5442 146.322 57.7159 146.767 57.7159C147.131 57.7159 147.393 57.6351 147.555 57.4734C147.737 57.3117 147.858 57.1299 147.919 56.9278C148 56.7054 148.06 56.5033 148.101 56.3215C148.161 56.1194 148.252 55.988 148.374 55.9274C148.717 56.1092 149.03 56.3518 149.313 56.6549C149.596 56.9379 149.92 57.1299 150.283 57.2309C150.344 57.2511 150.445 57.2814 150.587 57.3218C150.728 57.3623 150.87 57.4027 151.011 57.4431C151.173 57.4835 151.314 57.5239 151.435 57.5644C151.577 57.5846 151.668 57.5947 151.708 57.5947C151.728 57.5947 151.84 57.6048 152.042 57.625C152.244 57.625 152.405 57.625 152.527 57.625C153.254 57.625 153.952 57.4936 154.618 57.2309C155.306 56.9682 155.912 56.6044 156.437 56.1396C156.983 55.6545 157.418 55.0886 157.741 54.4419C158.064 53.7952 158.226 53.0879 158.226 52.3199C158.226 51.5721 158.034 50.885 157.65 50.2585C157.286 49.6117 156.842 49.0459 156.316 48.5608C155.285 48.1364 154.184 47.8231 153.012 47.621C151.84 47.4189 150.688 47.3381 149.556 47.3785C149.152 47.2775 148.828 47.1057 148.586 46.8632C148.363 46.6207 148.252 46.267 148.252 45.8021C148.252 45.6203 148.293 45.4283 148.374 45.2262C148.475 45.0241 148.596 44.8422 148.737 44.6805C148.899 44.4986 149.071 44.347 149.253 44.2258C149.435 44.1045 149.616 44.0136 149.798 43.9529C149.899 43.9529 150.091 43.9529 150.374 43.9529C150.657 43.9327 150.839 43.9226 150.92 43.9226C151.203 43.9226 151.425 43.9226 151.587 43.9226C151.749 43.9226 151.9 43.9327 152.042 43.9529C152.183 43.9731 152.325 44.0035 152.466 44.0439C152.628 44.0641 152.85 44.1146 153.133 44.1955C153.578 44.3167 153.921 44.5693 154.164 44.9533C154.406 45.3373 154.618 45.7415 154.8 46.1659C154.982 46.5701 155.174 46.9339 155.376 47.2573C155.599 47.5806 155.892 47.7423 156.255 47.7423C156.68 47.7423 156.993 47.5604 157.195 47.1966C157.418 46.8126 157.529 46.4388 157.529 46.075V45.7112C157.529 45.5899 157.519 45.3777 157.498 45.0746C157.478 44.7512 157.458 44.4178 157.438 44.0742C157.438 43.7104 157.428 43.3769 157.407 43.0738C157.407 42.7504 157.407 42.5281 157.407 42.4069C157.428 42.1239 157.316 41.8814 157.074 41.6793C156.852 41.457 156.599 41.3458 156.316 41.3458C156.114 41.3458 155.952 41.3863 155.831 41.4671C155.71 41.5479 155.599 41.649 155.498 41.7703C155.417 41.8915 155.326 42.0229 155.225 42.1643C155.144 42.3058 155.033 42.4271 154.891 42.5281C154.285 42.1037 153.598 41.7905 152.83 41.5884C152.082 41.3661 151.344 41.2044 150.617 41.1033H150.344C150.081 41.1033 149.819 41.1437 149.556 41.2246C149.313 41.2852 149.081 41.3661 148.859 41.4671C147.889 41.8713 147.141 42.3867 146.615 43.0132C146.11 43.6397 145.857 44.4885 145.857 45.5596C145.857 46.4893 145.989 47.2371 146.252 47.8029C146.534 48.3688 146.898 48.8134 147.343 49.1368C147.808 49.4602 148.343 49.6926 148.95 49.834C149.576 49.9755 150.223 50.0867 150.89 50.1675C151.557 50.2483 152.234 50.3292 152.921 50.41C153.608 50.4909 154.265 50.6323 154.891 50.8344C155.235 50.9759 155.457 51.1477 155.558 51.3498C155.679 51.5519 155.74 51.8247 155.74 52.1683C155.74 52.6533 155.619 53.0676 155.376 53.4112C155.154 53.7346 154.861 53.9973 154.497 54.1994C154.154 54.4015 153.76 54.5531 153.315 54.6541C152.891 54.735 152.466 54.7754 152.042 54.7754C151.557 54.7754 151.122 54.7047 150.738 54.5632C150.374 54.4015 150.041 54.1994 149.738 53.9569C149.435 53.6942 149.152 53.4011 148.889 53.0777C148.646 52.7342 148.394 52.3805 148.131 52.0167C148.01 51.855 147.939 51.663 147.919 51.4407C147.899 51.1982 147.818 50.9961 147.676 50.8344C147.575 50.7334 147.444 50.6728 147.282 50.6525C147.141 50.6121 147.009 50.5919 146.888 50.5919C146.625 50.5919 146.383 50.6829 146.161 50.8648C145.938 51.0264 145.827 51.2487 145.827 51.5317V55.1089C145.726 55.311 145.665 55.4827 145.645 55.6242C145.645 55.7455 145.645 55.9071 145.645 56.1092ZM165.215 51.4407C165.215 52.4512 165.337 53.3405 165.579 54.1085C165.842 54.8764 166.388 55.5838 167.216 56.2305C167.236 56.2507 167.297 56.281 167.398 56.3215C167.499 56.3619 167.6 56.4124 167.701 56.473C167.802 56.5134 167.903 56.564 168.004 56.6246C168.105 56.665 168.166 56.6852 168.186 56.6852C168.409 56.8469 168.58 56.9783 168.702 57.0793C168.843 57.1602 168.975 57.2309 169.096 57.2915C169.237 57.332 169.389 57.3623 169.551 57.3825C169.712 57.4027 169.945 57.4128 170.248 57.4128C171.016 57.4128 171.693 57.2309 172.279 56.8671C172.865 56.4831 173.35 56.0082 173.734 55.4423C174.138 54.8562 174.441 54.2095 174.643 53.5022C174.846 52.7948 174.947 52.0976 174.947 51.4104C174.947 50.986 174.846 50.5919 174.643 50.2281C174.441 49.8644 174.088 49.6825 173.582 49.6825C173.239 49.6825 172.976 49.8037 172.794 50.0462C172.612 50.2686 172.471 50.5515 172.37 50.8951C172.269 51.2386 172.168 51.6125 172.067 52.0167C171.986 52.4007 171.865 52.7645 171.703 53.1081C171.561 53.4516 171.349 53.7447 171.066 53.9872C170.783 54.2095 170.399 54.3207 169.914 54.3207C169.732 54.3207 169.54 54.26 169.338 54.1388C169.136 53.9973 168.944 53.8356 168.762 53.6537C168.601 53.4718 168.459 53.2798 168.338 53.0777C168.237 52.8756 168.186 52.6938 168.186 52.5321V44.1045L168.55 43.771C168.57 43.7508 168.692 43.7407 168.914 43.7407C169.156 43.7205 169.338 43.7104 169.46 43.7104C170.046 43.7104 170.551 43.7811 170.975 43.9226C171.42 44.0439 171.895 44.1045 172.4 44.1045C172.804 44.1045 173.128 43.963 173.37 43.6801C173.633 43.3769 173.764 43.0233 173.764 42.6191C173.764 42.1947 173.613 41.8006 173.31 41.4368C173.006 41.073 172.622 40.8911 172.158 40.8911C171.753 40.8911 171.349 40.9214 170.945 40.9821C170.561 41.0225 170.157 41.0427 169.732 41.0427C169.571 41.0427 169.348 41.0427 169.065 41.0427C168.803 41.0427 168.661 41.0326 168.641 41.0124L168.429 40.8002C168.409 40.78 168.399 40.6486 168.399 40.4061C168.399 40.1636 168.399 39.9817 168.399 39.8604C168.399 39.3754 168.419 38.9105 168.459 38.4659C168.52 38.0213 168.55 37.5666 168.55 37.1017C168.55 36.6167 168.479 36.2024 168.338 35.8588C168.217 35.495 167.863 35.3132 167.277 35.3132C166.691 35.3132 166.307 35.495 166.125 35.8588C165.943 36.2024 165.832 36.6268 165.791 37.1321C165.771 37.6171 165.761 38.1122 165.761 38.6175C165.761 39.1227 165.66 39.5269 165.458 39.8301C165.236 40.1535 164.963 40.3556 164.639 40.4364C164.336 40.497 164.003 40.5273 163.639 40.5273C163.296 40.5273 162.952 40.5374 162.608 40.5577C162.285 40.5779 162.002 40.689 161.76 40.8911C161.517 41.1134 161.275 41.3458 161.032 41.5884C160.81 41.8309 160.699 42.134 160.699 42.4978C160.699 42.7403 160.779 43.0031 160.941 43.286C161.123 43.5689 161.355 43.7104 161.638 43.7104H165.458V47.0754C165.215 47.7423 165.114 48.4598 165.155 49.2277C165.195 49.9957 165.215 50.7334 165.215 51.4407ZM176.225 50.1675C176.225 51.1578 176.377 52.1077 176.68 53.0171C176.983 53.9064 177.418 54.6945 177.984 55.3817C178.55 56.0688 179.247 56.6145 180.075 57.0187C180.904 57.4229 181.834 57.625 182.864 57.625C183.915 57.625 184.936 57.433 185.926 57.049C186.917 56.665 187.715 56.0284 188.321 55.1392C188.564 54.7754 188.786 54.4116 188.988 54.0478C189.19 53.6638 189.291 53.2394 189.291 52.7746C189.291 52.4917 189.19 52.2592 188.988 52.0774C188.806 51.8955 188.564 51.8045 188.261 51.8045C187.937 51.8045 187.664 51.8854 187.442 52.047C187.22 52.2087 187.008 52.4108 186.805 52.6533C186.624 52.8959 186.442 53.1485 186.26 53.4112C186.098 53.6739 185.916 53.8963 185.714 54.0781C185.451 54.3005 185.138 54.4621 184.774 54.5632C184.411 54.644 184.087 54.7956 183.804 55.0179C183.744 55.0179 183.602 55.028 183.38 55.0482C183.178 55.0482 183.046 55.0482 182.986 55.0482C182.379 55.0482 181.824 54.9371 181.318 54.7148C180.813 54.4722 180.369 54.159 179.985 53.775C179.621 53.3708 179.328 52.906 179.105 52.3805C178.903 51.855 178.802 51.2993 178.802 50.7132C178.802 50.6728 178.802 50.5919 178.802 50.4707C178.822 50.3494 178.833 50.2787 178.833 50.2585L178.954 50.1675C178.954 50.1675 179.065 50.1574 179.287 50.1372C179.51 50.117 179.772 50.1069 180.075 50.1069C180.379 50.0867 180.682 50.0766 180.985 50.0766C181.308 50.0564 181.581 50.0462 181.803 50.0462C182.026 50.0462 182.42 50.0462 182.986 50.0462C183.572 50.026 184.178 50.0159 184.805 50.0159C185.451 50.0159 186.058 50.026 186.624 50.0462C187.21 50.0462 187.614 50.0462 187.836 50.0462C188.159 49.9856 188.473 49.9048 188.776 49.8037C189.079 49.7027 189.322 49.5006 189.503 49.1974C189.503 49.157 189.503 49.0762 189.503 48.9549C189.524 48.8134 189.534 48.7225 189.534 48.6821C189.534 48.5002 189.493 48.2273 189.413 47.8636C189.332 47.4796 189.231 47.0956 189.109 46.7116C189.008 46.3074 188.887 45.9436 188.746 45.6203C188.624 45.2767 188.523 45.0443 188.442 44.923C187.674 43.9529 186.846 43.1647 185.957 42.5584C185.067 41.9319 183.976 41.6187 182.683 41.6187C182.46 41.6187 182.228 41.6187 181.985 41.6187C181.763 41.5985 181.541 41.6389 181.318 41.7399C181.258 41.7601 181.147 41.8107 180.985 41.8915C180.843 41.9521 180.682 42.033 180.5 42.134C180.318 42.2149 180.146 42.2957 179.985 42.3766C179.823 42.4574 179.712 42.518 179.651 42.5584C178.984 42.9222 178.428 43.3972 177.984 43.9832C177.559 44.5491 177.216 45.1756 176.953 45.8628C176.69 46.5297 176.498 47.2371 176.377 47.9848C176.276 48.7326 176.225 49.4602 176.225 50.1675ZM179.075 47.3785C179.075 46.8733 179.196 46.4388 179.439 46.075C179.681 45.691 179.985 45.3777 180.348 45.1352C180.712 44.8927 181.116 44.7209 181.561 44.6199C182.006 44.4986 182.44 44.438 182.864 44.438C183.248 44.438 183.653 44.4885 184.077 44.5895C184.522 44.6704 184.926 44.8119 185.29 45.014C185.653 45.1958 185.957 45.4586 186.199 45.8021C186.442 46.1255 186.563 46.5297 186.563 47.0147C186.563 47.0552 186.563 47.1259 186.563 47.227C186.563 47.328 186.553 47.3987 186.533 47.4392C186.492 47.4796 186.432 47.5301 186.351 47.5907C186.29 47.6312 186.24 47.6514 186.199 47.6514H179.196C179.116 47.6514 179.075 47.621 179.075 47.5604C179.075 47.4796 179.075 47.4189 179.075 47.3785ZM190.988 55.897C190.988 56.4023 191.18 56.8166 191.564 57.14C191.968 57.4633 192.413 57.625 192.898 57.625H196.353C196.556 57.5644 196.707 57.5341 196.808 57.5341C196.929 57.5138 197.071 57.5037 197.233 57.5037C197.576 57.5037 197.91 57.5239 198.233 57.5644C198.577 57.6048 198.92 57.625 199.264 57.625C199.567 57.625 199.89 57.6149 200.234 57.5947C200.577 57.5543 200.891 57.4835 201.174 57.3825C201.477 57.2612 201.719 57.0894 201.901 56.8671C202.083 56.6246 202.174 56.3012 202.174 55.897C202.174 55.412 201.982 55.0482 201.598 54.8057C201.214 54.543 200.79 54.4116 200.325 54.4116C200.102 54.4116 199.87 54.4318 199.627 54.4722C199.405 54.5127 199.183 54.5329 198.961 54.5329C198.738 54.5329 198.546 54.5127 198.385 54.4722C198.223 54.4318 198.102 54.3005 198.021 54.0781C198.021 53.9973 198.011 53.8659 197.99 53.684C197.99 53.5022 197.98 53.3102 197.96 53.1081C197.96 52.906 197.95 52.714 197.93 52.5321C197.91 52.3502 197.9 52.2289 197.9 52.1683C197.9 52.1279 197.879 52.0268 197.839 51.8651C197.819 51.7035 197.798 51.6024 197.778 51.562V48.1364C197.778 48.0354 197.829 47.8838 197.93 47.6817C198.031 47.4594 198.152 47.2371 198.294 47.0147C198.435 46.7924 198.577 46.5903 198.718 46.4084C198.88 46.2063 199.001 46.0649 199.082 45.984C199.142 45.9234 199.264 45.8021 199.446 45.6203C199.627 45.4384 199.819 45.2464 200.022 45.0443C200.224 44.8422 200.416 44.6502 200.598 44.4683C200.779 44.2864 200.911 44.1651 200.992 44.1045C201.072 44.0237 201.153 43.9832 201.234 43.9832C201.335 43.963 201.436 43.9529 201.537 43.9529C201.578 43.9529 201.648 43.9529 201.75 43.9529C201.851 43.9529 201.911 44.0035 201.931 44.1045C201.952 44.3874 201.982 44.731 202.022 45.1352C202.083 45.5192 202.184 45.8931 202.326 46.2569C202.467 46.6207 202.659 46.9339 202.902 47.1966C203.144 47.4392 203.467 47.5604 203.872 47.5604C204.72 47.5604 205.317 47.2977 205.66 46.7722C206.024 46.2468 206.206 45.6102 206.206 44.8624C206.206 44.3369 206.095 43.862 205.872 43.4376C205.67 42.993 205.397 42.6191 205.054 42.3159C204.71 42.0128 204.296 41.7804 203.811 41.6187C203.346 41.4368 202.861 41.3458 202.356 41.3458C201.527 41.3458 200.749 41.558 200.022 41.9825C199.314 42.4069 198.647 42.8717 198.021 43.3769H197.96C197.879 43.3769 197.798 43.3264 197.718 43.2254C197.657 43.1243 197.596 43.0031 197.536 42.8616C197.495 42.7201 197.455 42.5888 197.414 42.4675C197.374 42.326 197.334 42.2351 197.293 42.1947C197.071 41.8915 196.748 41.6894 196.323 41.5884C195.899 41.4671 195.444 41.3964 194.959 41.3762C194.474 41.3559 193.989 41.3661 193.504 41.4065C193.039 41.4267 192.645 41.4166 192.322 41.3762C192.322 41.3559 192.291 41.3458 192.231 41.3458C192.19 41.3458 192.16 41.3458 192.14 41.3458C191.715 41.3458 191.382 41.4974 191.139 41.8006C190.897 42.0835 190.776 42.4271 190.776 42.8313C190.776 43.2355 190.907 43.579 191.17 43.862C191.453 44.1247 191.796 44.2763 192.2 44.3167C192.301 44.3167 192.473 44.3268 192.716 44.347C192.958 44.3672 193.221 44.3874 193.504 44.4077C193.787 44.4077 194.05 44.4178 194.292 44.438C194.535 44.438 194.706 44.438 194.807 44.438L195.05 44.6805L195.232 48.2577V48.8336L195.292 51.8045C195.272 51.8449 195.242 51.946 195.201 52.1077C195.181 52.2693 195.171 52.3704 195.171 52.4108C195.171 52.4917 195.161 52.6331 195.141 52.8352C195.121 53.0171 195.1 53.2192 195.08 53.4415C195.08 53.6436 195.07 53.8356 195.05 54.0175C195.05 54.1994 195.05 54.3308 195.05 54.4116L194.929 54.5329C194.908 54.5329 194.818 54.543 194.656 54.5632C194.514 54.5632 194.403 54.5632 194.322 54.5632C194.019 54.5632 193.726 54.543 193.443 54.5026C193.18 54.4419 192.908 54.4116 192.625 54.4116C192.16 54.4116 191.766 54.543 191.442 54.8057C191.139 55.0684 190.988 55.4322 190.988 55.897Z" fill="white"/>
</svg>
