<svg width="2000" height="1160" viewBox="0 0 2000 1160" fill="none" xmlns="http://www.w3.org/2000/svg">
<rect width="1920" height="1080" transform="translate(40 40)" fill="#71363F"/>
<path d="M183.714 992.642C183.714 993.346 183.938 993.954 184.386 994.466C184.834 994.946 185.426 995.186 186.162 995.186H186.738C187.346 995.186 188.37 995.17 189.81 995.138C191.282 995.138 192.882 995.138 194.61 995.138C196.338 995.138 197.922 995.138 199.362 995.138C200.834 995.106 201.89 995.09 202.53 995.09C203.426 994.93 204.258 994.658 205.026 994.274C205.826 993.89 206.626 993.474 207.426 993.026C208.002 992.514 208.514 991.906 208.962 991.202C209.41 990.498 209.778 989.746 210.066 988.946C210.386 988.146 210.626 987.346 210.786 986.546C210.946 985.714 211.026 984.93 211.026 984.194C211.026 983.17 210.898 982.274 210.642 981.506C210.386 980.706 210.002 979.842 209.49 978.914C209.362 978.722 209.186 978.53 208.962 978.338C208.738 978.146 208.514 977.938 208.29 977.714C208.066 977.49 207.858 977.282 207.666 977.09C207.506 976.866 207.426 976.658 207.426 976.466C207.426 976.114 207.602 975.698 207.954 975.218C208.306 974.738 208.562 974.402 208.722 974.21C209.106 973.634 209.394 972.962 209.586 972.194C209.778 971.426 209.874 970.69 209.874 969.986C209.874 968.546 209.65 967.298 209.202 966.242C208.786 965.154 208.178 964.242 207.378 963.506C206.578 962.77 205.602 962.178 204.45 961.73C203.33 961.25 202.066 960.898 200.658 960.674H199.698C198.354 960.674 197.026 960.77 195.714 960.962C194.402 961.154 193.074 961.25 191.73 961.25H188.802C188.226 961.09 187.746 960.994 187.362 960.962C186.978 960.898 186.53 960.866 186.018 960.866C185.314 960.866 184.754 961.09 184.338 961.538C183.922 961.954 183.714 962.514 183.714 963.218C183.714 964.114 184.018 964.77 184.626 965.186C185.266 965.57 186.002 965.762 186.834 965.762C187.218 965.762 187.586 965.73 187.938 965.666C188.322 965.602 188.706 965.57 189.09 965.57H189.426C189.682 965.57 189.954 965.618 190.242 965.714C190.53 965.81 190.674 965.954 190.674 966.146V990.386L190.482 990.578C190.45 990.578 190.322 990.594 190.098 990.626C189.906 990.626 189.762 990.626 189.666 990.626C189.09 990.626 188.53 990.594 187.986 990.53C187.442 990.434 186.898 990.386 186.354 990.386H185.202C184.21 990.802 183.714 991.554 183.714 992.642ZM195.714 978.914C195.938 978.914 196.13 978.946 196.29 979.01C196.482 979.074 196.69 979.106 196.914 979.106C197.138 979.106 197.314 979.09 197.442 979.058C197.57 979.026 197.762 978.914 198.018 978.722H203.442C203.506 978.722 203.65 978.802 203.874 978.962C204.13 979.09 204.306 979.202 204.402 979.298L206.658 981.554C206.946 981.874 207.074 982.306 207.042 982.85C207.042 983.394 207.042 983.874 207.042 984.29C207.042 985.122 206.978 985.858 206.85 986.498C206.754 987.138 206.546 987.714 206.226 988.226C205.906 988.706 205.474 989.138 204.93 989.522C204.418 989.906 203.746 990.258 202.914 990.578C201.794 990.61 200.69 990.69 199.602 990.818C198.546 990.914 197.474 990.962 196.386 990.962C196.194 990.962 195.906 990.914 195.522 990.818C195.17 990.69 194.994 990.482 194.994 990.194V979.49C194.994 979.426 195.058 979.33 195.186 979.202C195.346 979.074 195.474 978.978 195.57 978.914H195.714ZM194.994 965.57H200.994C201.634 965.73 202.146 965.842 202.53 965.906C202.946 965.938 203.314 966.018 203.634 966.146C203.954 966.242 204.242 966.434 204.498 966.722C204.786 966.978 205.122 967.41 205.506 968.018C205.634 968.146 205.698 968.274 205.698 968.402V971.57C205.698 971.89 205.602 972.194 205.41 972.482C205.25 972.77 205.042 973.042 204.786 973.298C204.53 973.522 204.258 973.73 203.97 973.922C203.714 974.114 203.474 974.274 203.25 974.402C202.386 974.466 201.394 974.514 200.274 974.546C199.154 974.578 198.082 974.594 197.058 974.594H196.482C196.162 974.594 195.826 974.562 195.474 974.498C195.154 974.402 194.994 974.178 194.994 973.826V965.57ZM212.986 987.41C212.986 988.914 213.274 990.242 213.85 991.394C214.458 992.514 215.418 993.458 216.73 994.226C216.986 994.386 217.242 994.562 217.498 994.754C217.754 994.914 218.058 994.994 218.41 994.994H222.73C223.274 994.994 223.802 994.898 224.314 994.706C224.826 994.482 225.322 994.226 225.802 993.938C226.282 993.618 226.746 993.298 227.194 992.978C227.674 992.658 228.138 992.386 228.586 992.162H228.826C229.05 992.162 229.242 992.242 229.402 992.402C229.594 992.562 229.754 992.754 229.882 992.978C230.042 993.17 230.186 993.378 230.314 993.602C230.474 993.794 230.65 993.938 230.842 994.034C231.386 994.386 231.882 994.642 232.33 994.802C232.778 994.93 233.306 994.994 233.914 994.994C234.682 994.994 235.354 994.818 235.93 994.466C236.538 994.114 237.034 993.666 237.418 993.122C237.834 992.546 238.154 991.906 238.378 991.202C238.602 990.498 238.714 989.794 238.714 989.09C238.714 988.77 238.682 988.45 238.618 988.13C238.554 987.778 238.442 987.458 238.282 987.17C238.122 986.882 237.914 986.642 237.658 986.45C237.402 986.258 237.098 986.162 236.746 986.162C236.074 986.162 235.626 986.386 235.402 986.834C235.21 987.282 235.066 987.794 234.97 988.37C234.874 988.914 234.762 989.41 234.634 989.858C234.506 990.306 234.186 990.53 233.674 990.53C232.906 990.53 232.522 990.082 232.522 989.186V981.074C232.682 980.69 232.746 980.258 232.714 979.778C232.714 979.266 232.714 978.818 232.714 978.434V976.946C232.714 976.85 232.682 976.69 232.618 976.466C232.586 976.21 232.538 975.954 232.474 975.698C232.41 975.41 232.346 975.138 232.282 974.882C232.218 974.626 232.17 974.45 232.138 974.354C232.042 973.97 231.786 973.506 231.37 972.962C230.986 972.418 230.522 971.906 229.978 971.426C229.466 970.946 228.922 970.53 228.346 970.178C227.802 969.826 227.322 969.65 226.906 969.65H219.562C219.05 969.65 218.602 969.81 218.218 970.13C217.834 970.418 217.466 970.69 217.114 970.946C216.698 971.234 216.282 971.554 215.866 971.906C215.45 972.226 215.082 972.578 214.762 972.962C214.442 973.346 214.186 973.762 213.994 974.21C213.802 974.658 213.706 975.17 213.706 975.746C213.706 976.738 214.026 977.57 214.666 978.242C215.338 978.914 216.186 979.25 217.21 979.25C217.882 979.25 218.41 979.122 218.794 978.866C219.21 978.578 219.514 978.242 219.706 977.858C219.93 977.442 220.09 976.994 220.186 976.514C220.282 976.034 220.362 975.602 220.426 975.218C220.522 974.802 220.618 974.466 220.714 974.21C220.81 973.922 220.986 973.778 221.242 973.778H225.754C225.786 973.778 225.994 973.874 226.378 974.066C226.762 974.258 227.05 974.402 227.242 974.498C227.754 974.786 228.106 975.17 228.298 975.65C228.49 976.13 228.586 976.642 228.586 977.186C228.586 977.954 228.202 978.466 227.434 978.722C226.666 978.978 225.706 979.154 224.554 979.25C223.402 979.346 222.138 979.458 220.762 979.586C219.418 979.682 218.17 979.986 217.018 980.498C215.866 980.978 214.906 981.762 214.138 982.85C213.37 983.906 212.986 985.426 212.986 987.41ZM216.73 987.362C216.73 987.01 216.842 986.594 217.066 986.114C217.322 985.634 217.53 985.282 217.69 985.058C218.01 984.578 218.378 984.322 218.794 984.29C219.594 984.162 220.378 984.066 221.146 984.002C221.946 983.938 222.73 983.842 223.498 983.714C223.594 983.714 223.85 983.682 224.266 983.618C224.714 983.522 225.178 983.442 225.658 983.378C226.138 983.282 226.586 983.202 227.002 983.138C227.45 983.042 227.722 982.994 227.818 982.994L227.914 982.946C227.946 982.946 227.962 982.962 227.962 982.994C227.994 982.994 228.01 982.994 228.01 982.994C228.042 982.994 228.106 983.026 228.202 983.09C228.298 983.122 228.362 983.138 228.394 983.138V983.714C228.394 985.09 228.186 986.21 227.77 987.074C227.354 987.938 226.554 988.77 225.37 989.57C225.306 989.602 225.146 989.682 224.89 989.81C224.666 989.938 224.522 990.034 224.458 990.098C224.33 990.162 224.17 990.242 223.978 990.338C223.818 990.434 223.722 990.482 223.69 990.482H218.794C218.474 990.482 218.186 990.37 217.93 990.146C217.674 989.922 217.45 989.65 217.258 989.33C217.098 988.978 216.97 988.626 216.874 988.274C216.778 987.922 216.73 987.618 216.73 987.362ZM240.664 982.658C240.664 984.13 240.936 985.602 241.48 987.074C242.056 988.546 242.84 989.874 243.832 991.058C244.824 992.21 245.992 993.154 247.336 993.89C248.68 994.626 250.136 994.994 251.704 994.994C252.76 994.994 253.832 994.77 254.92 994.322C256.008 993.874 256.984 993.282 257.848 992.546C258.744 991.778 259.464 990.898 260.008 989.906C260.584 988.914 260.872 987.858 260.872 986.738C260.872 986.194 260.744 985.714 260.488 985.298C260.232 984.85 259.816 984.626 259.24 984.626C258.856 984.626 258.52 984.77 258.232 985.058C257.944 985.314 257.672 985.65 257.416 986.066C257.16 986.45 256.904 986.882 256.648 987.362C256.424 987.842 256.152 988.29 255.832 988.706C255.544 989.09 255.208 989.426 254.824 989.714C254.44 989.97 253.992 990.098 253.48 990.098H249.352C249.288 990.098 249.144 990.034 248.92 989.906C248.696 989.746 248.536 989.618 248.44 989.522C248.344 989.426 248.168 989.266 247.912 989.042C247.688 988.818 247.448 988.578 247.192 988.322C246.936 988.066 246.696 987.826 246.472 987.602C246.248 987.346 246.088 987.17 245.992 987.074C245.544 986.402 245.24 985.586 245.08 984.626C244.92 983.634 244.84 982.738 244.84 981.938C244.84 981.042 244.904 980.178 245.032 979.346C245.16 978.514 245.384 977.746 245.704 977.042C246.024 976.338 246.456 975.714 247 975.17C247.576 974.594 248.296 974.114 249.16 973.73C249.32 973.666 249.528 973.602 249.784 973.538C250.072 973.442 250.248 973.394 250.312 973.394H253.48C253.64 973.394 253.832 973.506 254.056 973.73C254.28 973.954 254.408 974.082 254.44 974.114V974.882C254.44 975.33 254.376 975.73 254.248 976.082C254.12 976.402 254.056 976.77 254.056 977.186C254.056 978.146 254.392 978.978 255.064 979.682C255.736 980.386 256.568 980.738 257.56 980.738C258.104 980.738 258.568 980.626 258.952 980.402C259.368 980.146 259.704 979.826 259.96 979.442C260.248 979.058 260.456 978.626 260.584 978.146C260.744 977.634 260.824 977.138 260.824 976.658C260.824 975.922 260.68 975.234 260.392 974.594C260.104 973.922 259.72 973.314 259.24 972.77C258.792 972.194 258.28 971.666 257.704 971.186C257.16 970.706 256.632 970.242 256.12 969.794C255.992 969.762 255.752 969.698 255.4 969.602C255.048 969.474 254.664 969.362 254.248 969.266C253.864 969.17 253.48 969.09 253.096 969.026C252.744 968.93 252.504 968.882 252.376 968.882C252.344 968.85 252.184 968.834 251.896 968.834C251.64 968.834 251.432 968.834 251.272 968.834C249.48 968.834 247.912 969.266 246.568 970.13C245.256 970.962 244.152 972.05 243.256 973.394C242.392 974.706 241.736 976.194 241.288 977.858C240.872 979.49 240.664 981.09 240.664 982.658ZM262.859 992.786C262.859 993.618 263.147 994.194 263.723 994.514C264.331 994.802 264.987 995.01 265.691 995.138H267.851C268.619 995.138 269.371 995.106 270.107 995.042C270.843 994.978 271.595 994.946 272.363 994.946C272.811 994.946 273.243 994.978 273.659 995.042C274.107 995.106 274.555 995.138 275.003 995.138C275.547 995.138 276.043 994.978 276.491 994.658C276.971 994.338 277.435 994.178 277.883 994.178C278.139 994.178 278.395 994.258 278.651 994.418C278.907 994.578 279.163 994.69 279.419 994.754C279.707 994.818 280.123 994.898 280.667 994.994C281.211 995.09 281.611 995.138 281.867 995.138H284.747H287.675C287.963 995.074 288.267 995.01 288.587 994.946C288.907 994.85 289.195 994.738 289.451 994.61C289.707 994.45 289.915 994.258 290.075 994.034C290.267 993.81 290.363 993.522 290.363 993.17C290.363 993.106 290.347 992.994 290.315 992.834C290.315 992.642 290.315 992.53 290.315 992.498C290.123 991.762 289.835 991.218 289.451 990.866C289.099 990.514 288.667 990.274 288.155 990.146C287.675 989.986 287.131 989.906 286.523 989.906C285.947 989.874 285.339 989.858 284.699 989.858C284.155 989.442 283.755 988.946 283.499 988.37C283.275 987.794 282.971 987.234 282.587 986.69C282.555 986.626 282.443 986.482 282.251 986.258C282.091 986.034 281.899 985.794 281.675 985.538C281.451 985.282 281.243 985.058 281.051 984.866C280.859 984.642 280.747 984.498 280.715 984.434C280.299 983.89 279.851 983.298 279.371 982.658C278.891 982.018 278.651 981.362 278.651 980.69C278.651 980.306 278.715 980.002 278.843 979.778C279.003 979.554 279.195 979.362 279.419 979.202C279.643 979.042 279.883 978.882 280.139 978.722C280.427 978.562 280.683 978.386 280.907 978.194C281.195 977.97 281.499 977.666 281.819 977.282C282.171 976.898 282.555 976.514 282.971 976.13C283.387 975.746 283.803 975.41 284.219 975.122C284.667 974.834 285.131 974.674 285.611 974.642C286.027 974.61 286.427 974.594 286.811 974.594C287.227 974.594 287.595 974.546 287.915 974.45C288.235 974.354 288.491 974.194 288.683 973.97C288.907 973.714 289.019 973.314 289.019 972.77C289.019 971.97 288.715 971.394 288.107 971.042C287.499 970.658 286.779 970.402 285.947 970.274C285.147 970.114 284.315 970.05 283.451 970.082C282.619 970.082 281.963 970.082 281.483 970.082C281.387 970.082 281.227 970.082 281.003 970.082C280.779 970.082 280.523 970.098 280.235 970.13C279.979 970.13 279.739 970.13 279.515 970.13C279.291 970.13 279.131 970.13 279.035 970.13C278.587 970.258 278.187 970.466 277.835 970.754C277.483 971.01 277.307 971.394 277.307 971.906C277.307 972.45 277.499 972.93 277.883 973.346C278.299 973.73 278.683 974.098 279.035 974.45C278.971 974.514 278.843 974.674 278.651 974.93C278.459 975.186 278.331 975.346 278.267 975.41C278.075 975.602 277.739 975.938 277.259 976.418C276.811 976.898 276.315 977.41 275.771 977.954C275.227 978.498 274.715 979.01 274.235 979.49C273.755 979.938 273.419 980.258 273.227 980.45C273.195 980.45 273.147 980.466 273.083 980.498C273.051 980.498 273.035 980.498 273.035 980.498C272.971 980.498 272.891 980.498 272.795 980.498C272.699 980.466 272.651 980.386 272.651 980.258V969.554C272.747 969.266 272.795 969.026 272.795 968.834C272.827 968.642 272.843 968.418 272.843 968.162C272.843 967.266 272.795 966.466 272.699 965.762C272.603 965.058 272.587 964.194 272.651 963.17C272.555 962.402 272.187 961.81 271.547 961.394C270.939 960.946 270.267 960.722 269.531 960.722H269.435C269.371 960.722 269.179 960.754 268.859 960.818C268.571 960.882 268.395 960.914 268.331 960.914H268.235H268.139C268.075 960.914 267.883 960.882 267.563 960.818C267.243 960.754 267.051 960.722 266.987 960.722H266.699C265.963 960.722 265.259 960.93 264.587 961.346C263.915 961.762 263.579 962.37 263.579 963.17C263.579 963.778 263.707 964.226 263.963 964.514C264.251 964.802 264.603 964.994 265.019 965.09C265.435 965.186 265.899 965.234 266.411 965.234C266.955 965.234 267.467 965.234 267.947 965.234C268.107 965.362 268.267 965.554 268.427 965.81C268.587 966.066 268.667 966.306 268.667 966.53V982.178L268.427 983.09V989.858C268.427 989.858 268.363 989.89 268.235 989.954C268.107 989.986 268.011 990.018 267.947 990.05L267.371 990.242H264.155C263.995 990.242 263.835 990.354 263.675 990.578C263.515 990.77 263.371 991.01 263.243 991.298C263.115 991.586 263.019 991.874 262.955 992.162C262.891 992.45 262.859 992.658 262.859 992.786ZM275.483 983.474C275.611 983.474 275.899 983.794 276.347 984.434C276.795 985.042 277.259 985.746 277.739 986.546C278.219 987.314 278.651 988.066 279.035 988.802C279.419 989.538 279.611 990.018 279.611 990.242C279.611 990.626 279.403 991.01 278.987 991.394C278.571 991.778 278.187 991.97 277.835 991.97C277.771 991.97 277.707 991.97 277.643 991.97C277.579 991.97 277.547 991.954 277.547 991.922C277.483 991.922 277.355 991.842 277.163 991.682C276.971 991.522 276.843 991.426 276.779 991.394C276.651 991.33 276.363 991.266 275.915 991.202C275.467 991.106 275.003 990.994 274.523 990.866C274.043 990.738 273.611 990.594 273.227 990.434C272.843 990.274 272.651 990.082 272.651 989.858V985.922C272.683 985.89 272.747 985.81 272.843 985.682C272.971 985.522 273.131 985.33 273.323 985.106C273.515 984.882 273.659 984.722 273.755 984.626C273.979 984.37 274.235 984.114 274.523 983.858C274.811 983.602 275.131 983.474 275.483 983.474Z" fill="white"/>
<rect x="350.225" y="366.269" width="135.8" height="21.3714" transform="rotate(-90 350.225 366.269)" fill="#F5BC4D" stroke="black" stroke-width="0.8"/>
<rect x="370.291" y="347.257" width="14.9429" height="36.8" transform="rotate(-90 370.291 347.257)" fill="#F5BC4D" stroke="black" stroke-width="0.8"/>
<rect x="370.152" y="308.493" width="12.3714" height="21.3714" transform="rotate(-90 370.152 308.493)" fill="#F5BC4D" stroke="black" stroke-width="0.8"/>
<rect x="326.6" y="235.4" width="72.8" height="68.9429" transform="rotate(-90 326.6 235.4)" fill="#F5BC4D" stroke="black" stroke-width="0.8"/>
<rect x="351.304" y="230.869" width="19.2128" height="23.7541" fill="#F5BC4D"/>
<rect x="358.787" y="297.246" width="19.2128" height="10.1553" fill="#F5BC4D"/>
<rect x="355.823" y="333.398" width="19.2128" height="12.7873" fill="#F5BC4D"/>
<rect x="344.6" y="214.828" width="32.9429" height="32.9429" transform="rotate(-90 344.6 214.828)" fill="#8B444E" stroke="black" stroke-width="0.8"/>
<rect x="134.225" y="342.269" width="135.8" height="21.3714" transform="rotate(-90 134.225 342.269)" fill="#F5BC4D" stroke="black" stroke-width="0.8"/>
<rect x="154.291" y="323.257" width="14.9429" height="36.8" transform="rotate(-90 154.291 323.257)" fill="#F5BC4D" stroke="black" stroke-width="0.8"/>
<rect x="154.152" y="284.493" width="12.3714" height="21.3714" transform="rotate(-90 154.152 284.493)" fill="#F5BC4D" stroke="black" stroke-width="0.8"/>
<rect x="110.6" y="211.4" width="72.8" height="68.9429" transform="rotate(-90 110.6 211.4)" fill="#F5BC4D" stroke="black" stroke-width="0.8"/>
<rect x="135.304" y="206.869" width="19.2128" height="23.7541" fill="#F5BC4D"/>
<rect x="142.787" y="273.246" width="19.2128" height="10.1553" fill="#F5BC4D"/>
<rect x="139.823" y="309.398" width="19.2128" height="12.7873" fill="#F5BC4D"/>
<rect x="128.6" y="190.828" width="32.9429" height="32.9429" transform="rotate(-90 128.6 190.828)" fill="#8B444E" stroke="black" stroke-width="0.8"/>
<rect x="242.225" y="481.269" width="135.8" height="21.3714" transform="rotate(-90 242.225 481.269)" fill="#F5BC4D" stroke="black" stroke-width="0.8"/>
<rect x="262.291" y="462.257" width="14.9429" height="36.8" transform="rotate(-90 262.291 462.257)" fill="#F5BC4D" stroke="black" stroke-width="0.8"/>
<rect x="262.152" y="423.493" width="12.3714" height="21.3714" transform="rotate(-90 262.152 423.493)" fill="#F5BC4D" stroke="black" stroke-width="0.8"/>
<rect x="218.6" y="350.4" width="72.8" height="68.9429" transform="rotate(-90 218.6 350.4)" fill="#F5BC4D" stroke="black" stroke-width="0.8"/>
<rect x="243.304" y="345.869" width="19.2128" height="23.7541" fill="#F5BC4D"/>
<rect x="250.787" y="412.246" width="19.2128" height="10.1553" fill="#F5BC4D"/>
<rect x="247.823" y="448.398" width="19.2128" height="12.7873" fill="#F5BC4D"/>
<rect x="236.6" y="329.828" width="32.9429" height="32.9429" transform="rotate(-90 236.6 329.828)" fill="#8B444E" stroke="black" stroke-width="0.8"/>
<path d="M841.134 276.104C841.39 277.64 841.998 278.728 842.958 279.368C843.982 280.008 845.134 280.424 846.413 280.616C847.694 280.744 849.038 280.808 850.445 280.808C851.854 280.744 853.134 280.808 854.286 281H854.477C855.758 281 856.75 280.488 857.454 279.464C858.158 278.44 858.51 277.384 858.51 276.296C858.51 275.464 858.446 274.888 858.318 274.568C858.19 274.248 857.838 273.64 857.262 272.744C856.814 271.976 856.27 271.432 855.63 271.112C854.99 270.792 854.35 270.536 853.71 270.344C853.07 270.152 852.43 269.928 851.789 269.672C851.149 269.416 850.606 268.936 850.158 268.232C849.646 267.464 849.358 266.472 849.294 265.256C849.294 263.976 849.198 262.952 849.006 262.184C848.494 260.072 847.854 257.8 847.085 255.368C846.382 252.872 845.39 250.632 844.11 248.648V247.784C844.11 247.016 844.302 246.376 844.686 245.864C845.07 245.288 845.55 244.776 846.126 244.328C846.702 243.88 847.278 243.432 847.854 242.984C848.494 242.536 849.006 242.056 849.39 241.544C850.542 240.072 851.278 238.344 851.598 236.36C851.918 234.312 852.078 232.392 852.078 230.6C852.078 226.44 851.246 223.112 849.581 220.616C847.917 218.056 845.741 216.104 843.054 214.76C840.366 213.416 837.326 212.52 833.934 212.072C830.605 211.624 827.277 211.4 823.95 211.4C823.245 211.4 822.605 211.432 822.03 211.496C821.454 211.496 820.813 211.688 820.109 212.072H805.421C804.205 212.072 803.341 212.584 802.829 213.608C802.317 214.568 802.061 215.56 802.061 216.584C802.061 217.224 802.157 217.992 802.349 218.888C802.541 219.72 803.053 220.264 803.885 220.52L809.933 221.96L810.701 222.728L811.277 245.288V247.208L811.469 268.616C811.469 268.744 811.373 268.936 811.181 269.192C810.989 269.448 810.829 269.64 810.701 269.768C809.741 269.768 808.717 269.8 807.629 269.864C806.605 269.928 805.645 270.12 804.749 270.44C803.853 270.76 803.117 271.272 802.541 271.976C801.965 272.616 801.677 273.544 801.677 274.76C801.677 275.336 801.773 275.944 801.965 276.584C802.221 277.224 802.541 277.832 802.925 278.408C803.373 278.984 803.853 279.464 804.365 279.848C804.941 280.168 805.549 280.296 806.189 280.232C806.765 280.232 807.757 280.264 809.165 280.328C810.573 280.392 812.077 280.456 813.677 280.52C815.277 280.52 816.781 280.552 818.189 280.616C819.661 280.616 820.686 280.616 821.262 280.616H822.317C823.086 280.616 823.918 280.584 824.814 280.52C825.773 280.392 826.637 280.168 827.406 279.848C828.238 279.528 828.91 279.08 829.422 278.504C829.998 277.928 830.286 277.128 830.286 276.104C830.286 274.504 829.71 273.352 828.558 272.648C827.406 271.88 826.158 271.304 824.814 270.92C823.469 270.536 822.221 270.216 821.069 269.96C819.917 269.64 819.341 269.192 819.341 268.616V250.568L819.726 250.184C819.79 250.12 820.206 250.056 820.973 249.992C821.741 249.864 822.317 249.8 822.702 249.8H826.253C827.085 249.8 827.79 249.8 828.366 249.8C829.005 249.8 829.613 249.832 830.189 249.896C830.829 249.896 831.469 249.96 832.11 250.088C832.75 250.216 833.517 250.376 834.413 250.568C835.118 251.08 835.662 251.784 836.046 252.68C836.494 253.576 836.942 254.376 837.39 255.08C838.286 256.616 838.99 258.248 839.502 259.976C840.078 261.704 840.494 263.496 840.75 265.352C841.006 267.144 841.134 268.968 841.134 270.824C841.198 272.616 841.198 274.376 841.134 276.104ZM821.549 221.288C821.87 221.224 822.446 221.192 823.278 221.192C824.109 221.192 824.686 221.192 825.006 221.192C827.694 221.192 830.382 221.384 833.069 221.768C835.757 222.088 838.318 222.792 840.75 223.88C842.03 224.84 842.861 226.056 843.246 227.528C843.63 228.936 843.822 230.376 843.822 231.848C843.822 234.344 843.054 236.36 841.517 237.896C840.045 239.368 838.158 240.456 835.854 241.16H832.685C831.661 241.16 830.701 241.096 829.805 240.968C828.909 240.84 827.981 240.776 827.022 240.776C826.254 240.776 825.486 240.84 824.717 240.968C823.949 241.096 823.149 241.16 822.317 241.16H820.109C819.981 240.968 819.821 240.648 819.629 240.2C819.437 239.752 819.341 239.432 819.341 239.24V222.728C819.341 222.216 819.629 221.864 820.205 221.672C820.781 221.48 821.229 221.352 821.549 221.288ZM862.472 257.384C862.472 260.52 862.952 263.528 863.912 266.408C864.872 269.224 866.248 271.72 868.04 273.896C869.832 276.072 872.04 277.8 874.664 279.08C877.288 280.36 880.232 281 883.496 281C886.824 281 890.056 280.392 893.192 279.176C896.328 277.96 898.856 275.944 900.776 273.128C901.544 271.976 902.248 270.824 902.888 269.672C903.528 268.456 903.848 267.112 903.848 265.64C903.848 264.744 903.528 264.008 902.888 263.432C902.312 262.856 901.544 262.568 900.584 262.568C899.56 262.568 898.696 262.824 897.992 263.336C897.288 263.848 896.616 264.488 895.976 265.256C895.4 266.024 894.824 266.824 894.248 267.656C893.736 268.488 893.16 269.192 892.52 269.768C891.688 270.472 890.696 270.984 889.544 271.304C888.392 271.56 887.368 272.04 886.472 272.744C886.28 272.744 885.832 272.776 885.128 272.84C884.488 272.84 884.072 272.84 883.88 272.84C881.96 272.84 880.2 272.488 878.6 271.784C877 271.016 875.592 270.024 874.376 268.808C873.224 267.528 872.296 266.056 871.592 264.392C870.952 262.728 870.632 260.968 870.632 259.112C870.632 258.984 870.632 258.728 870.632 258.344C870.696 257.96 870.728 257.736 870.728 257.672L871.112 257.384C871.112 257.384 871.464 257.352 872.168 257.288C872.872 257.224 873.704 257.192 874.664 257.192C875.624 257.128 876.584 257.096 877.544 257.096C878.568 257.032 879.432 257 880.136 257C880.84 257 882.088 257 883.88 257C885.736 256.936 887.656 256.904 889.64 256.904C891.688 256.904 893.608 256.936 895.4 257C897.256 257 898.536 257 899.24 257C900.264 256.808 901.256 256.552 902.216 256.232C903.176 255.912 903.944 255.272 904.52 254.312C904.52 254.184 904.52 253.928 904.52 253.544C904.584 253.096 904.616 252.808 904.616 252.68C904.616 252.104 904.488 251.24 904.232 250.088C903.976 248.872 903.656 247.656 903.273 246.44C902.952 245.16 902.568 244.008 902.12 242.984C901.736 241.896 901.416 241.16 901.16 240.776C898.728 237.704 896.104 235.208 893.288 233.288C890.472 231.304 887.016 230.312 882.92 230.312C882.216 230.312 881.48 230.312 880.712 230.312C880.008 230.248 879.304 230.376 878.6 230.696C878.408 230.76 878.056 230.92 877.544 231.176C877.096 231.368 876.584 231.624 876.008 231.944C875.432 232.2 874.888 232.456 874.376 232.712C873.864 232.968 873.512 233.16 873.32 233.288C871.208 234.44 869.448 235.944 868.04 237.8C866.696 239.592 865.608 241.576 864.776 243.752C863.944 245.864 863.336 248.104 862.952 250.472C862.632 252.84 862.472 255.144 862.472 257.384ZM871.496 248.552C871.496 246.952 871.88 245.576 872.648 244.424C873.416 243.208 874.376 242.216 875.528 241.448C876.68 240.68 877.96 240.136 879.368 239.816C880.776 239.432 882.152 239.24 883.496 239.24C884.712 239.24 885.992 239.4 887.336 239.72C888.744 239.976 890.024 240.424 891.176 241.064C892.328 241.64 893.288 242.472 894.056 243.56C894.824 244.584 895.208 245.864 895.208 247.4C895.208 247.528 895.208 247.752 895.208 248.072C895.208 248.392 895.176 248.616 895.112 248.744C894.984 248.872 894.792 249.032 894.536 249.224C894.344 249.352 894.184 249.416 894.056 249.416H871.88C871.624 249.416 871.496 249.32 871.496 249.128C871.496 248.872 871.496 248.68 871.496 248.552ZM908.549 285.416C908.549 288.36 909.253 290.696 910.661 292.424C912.133 294.216 914.181 295.56 916.805 296.456C917.317 296.584 917.733 296.808 918.053 297.128C918.437 297.512 918.885 297.8 919.397 297.992C922.085 298.952 924.709 299.56 927.269 299.816C929.829 300.072 932.549 300.2 935.429 300.2C937.989 300.2 940.581 299.912 943.205 299.336C945.893 298.824 948.325 297.928 950.501 296.648C952.677 295.432 954.437 293.768 955.781 291.656C957.125 289.608 957.797 287.048 957.797 283.976C957.797 282.76 957.637 281.672 957.317 280.712C956.997 279.752 956.549 278.888 955.973 278.12C955.397 277.288 954.725 276.52 953.957 275.816C953.189 275.112 952.325 274.344 951.365 273.512C950.917 273.128 950.597 272.84 950.405 272.648C950.213 272.456 950.053 272.296 949.925 272.168C949.797 272.04 949.605 271.912 949.349 271.784C949.157 271.656 948.837 271.496 948.389 271.304C947.301 270.92 946.021 270.728 944.549 270.728C943.141 270.728 942.021 270.664 941.189 270.536C941.061 270.536 940.709 270.472 940.133 270.344C939.621 270.216 939.045 270.088 938.405 269.96C937.765 269.832 937.157 269.704 936.581 269.576C936.069 269.448 935.749 269.384 935.621 269.384H932.261C930.021 269.384 927.845 269.704 925.733 270.344C923.621 270.984 921.445 271.304 919.205 271.304C918.885 271.304 918.565 271.176 918.245 270.92C917.925 270.664 917.701 270.408 917.573 270.152V268.808C917.573 267.784 917.765 266.888 918.149 266.12C918.597 265.288 919.429 264.872 920.645 264.872C921.669 264.872 922.629 265.032 923.525 265.352C924.421 265.608 925.285 265.896 926.117 266.216C927.013 266.536 927.909 266.856 928.805 267.176C929.701 267.432 930.661 267.56 931.685 267.56C932.453 267.56 933.061 267.528 933.509 267.464C934.021 267.336 934.469 267.176 934.853 266.984C935.301 266.792 935.749 266.6 936.197 266.408C936.645 266.152 937.189 265.896 937.829 265.64C939.493 265 940.901 264.136 942.053 263.048C943.269 261.896 944.261 260.616 945.029 259.208C945.797 257.736 946.341 256.168 946.661 254.504C947.045 252.84 947.237 251.144 947.237 249.416C947.237 247.816 947.013 246.312 946.565 244.904C946.117 243.432 945.893 241.896 945.893 240.296C946.277 240.296 946.629 240.616 946.949 241.256C947.333 241.896 947.781 242.632 948.293 243.464C948.805 244.232 949.477 244.936 950.309 245.576C951.141 246.216 952.261 246.536 953.669 246.536C955.653 246.536 957.029 245.832 957.797 244.424C958.565 242.952 958.949 241.32 958.949 239.528C958.949 238.12 958.597 236.84 957.893 235.688C957.253 234.536 956.389 233.576 955.301 232.808C954.277 231.976 953.093 231.368 951.749 230.984C950.405 230.536 949.093 230.312 947.813 230.312C945.317 230.312 943.109 231.208 941.189 233H939.365C938.469 233 937.605 232.872 936.773 232.616C935.941 232.296 935.109 231.976 934.277 231.656C933.509 231.336 932.709 231.048 931.877 230.792C931.045 230.472 930.213 230.312 929.381 230.312C929.189 230.312 928.901 230.376 928.517 230.504C928.133 230.568 927.749 230.664 927.365 230.792C926.981 230.92 926.597 231.048 926.213 231.176C925.893 231.304 925.637 231.4 925.445 231.464C921.797 233.064 918.917 235.368 916.805 238.376C914.757 241.384 913.733 244.904 913.733 248.936C913.733 250.408 913.925 251.816 914.309 253.16C914.757 254.504 914.981 255.912 914.981 257.384C914.981 257.512 914.981 257.704 914.981 257.96C914.981 258.216 914.949 258.408 914.885 258.536C913.349 260.008 912.069 261.576 911.045 263.24C910.085 264.84 909.605 266.728 909.605 268.904C909.605 269.608 909.733 270.312 909.989 271.016C910.245 271.656 910.501 272.296 910.757 272.936C911.077 273.576 911.365 274.216 911.621 274.856C911.877 275.496 912.005 276.136 912.005 276.776L911.909 277.256C910.821 278.472 909.989 279.688 909.413 280.904C908.837 282.12 908.549 283.624 908.549 285.416ZM916.805 285.896V284.264C916.805 282.664 917.317 281.448 918.341 280.616C919.429 279.72 920.709 279.048 922.181 278.6C923.717 278.152 925.317 277.896 926.981 277.832C928.645 277.704 930.085 277.64 931.301 277.64C932.197 277.64 933.669 277.704 935.717 277.832C937.829 277.96 939.941 278.28 942.053 278.792C944.229 279.24 946.117 279.912 947.717 280.808C949.381 281.704 950.213 282.92 950.213 284.456C950.213 285.416 949.893 286.248 949.253 286.952C948.613 287.656 947.845 288.264 946.949 288.776C946.053 289.288 945.093 289.704 944.069 290.024C943.109 290.344 942.277 290.6 941.573 290.792C939.717 290.92 937.701 291.016 935.525 291.08C933.413 291.144 931.333 291.176 929.285 291.176C926.789 291.176 924.485 290.76 922.373 289.928C920.325 289.096 918.469 287.752 916.805 285.896ZM920.549 249.32C920.549 247.912 920.837 246.6 921.413 245.384C921.989 244.168 922.757 243.112 923.717 242.216C924.677 241.32 925.765 240.616 926.981 240.104C928.261 239.592 929.573 239.336 930.917 239.336C933.861 239.336 936.069 240.328 937.541 242.312C939.013 244.232 939.749 246.632 939.749 249.512C939.749 250.92 939.525 252.264 939.077 253.544C938.629 254.824 937.989 255.944 937.157 256.904C936.325 257.864 935.301 258.632 934.085 259.208C932.933 259.784 931.621 260.072 930.149 260.072C928.805 260.072 927.525 259.752 926.309 259.112C925.157 258.472 924.133 257.672 923.237 256.712C922.405 255.688 921.733 254.536 921.221 253.256C920.773 251.976 920.549 250.664 920.549 249.32ZM962.875 276.392C962.875 277.48 963.195 278.408 963.835 279.176C964.539 279.944 965.467 280.328 966.619 280.328H999.355C1000.44 280.328 1001.21 279.88 1001.66 278.984C1002.17 278.088 1002.43 277.192 1002.43 276.296C1002.43 275.848 1002.33 275.304 1002.14 274.664C1002.01 274.024 1001.75 273.416 1001.37 272.84C1001.05 272.264 1000.63 271.784 1000.12 271.4C999.675 270.952 999.163 270.728 998.587 270.728H988.411L987.835 270.152V234.44C987.835 233.096 987.227 232.072 986.011 231.368C984.859 230.664 983.739 230.312 982.651 230.312C981.883 230.312 981.115 230.376 980.347 230.504C979.643 230.632 978.907 230.696 978.139 230.696C977.051 230.696 975.963 230.632 974.875 230.504C973.851 230.376 972.795 230.312 971.707 230.312C971.003 230.312 970.203 230.376 969.307 230.504C968.475 230.568 967.675 230.76 966.907 231.08C966.203 231.336 965.595 231.752 965.083 232.328C964.571 232.904 964.315 233.704 964.315 234.728C964.315 235.24 964.379 235.816 964.507 236.456C964.699 237.032 964.955 237.576 965.275 238.088C965.595 238.6 965.979 239.048 966.427 239.432C966.939 239.752 967.515 239.912 968.155 239.912H979.387V261.128C979.323 261.256 979.259 261.576 979.195 262.088C979.131 262.6 979.067 262.92 979.003 263.048C979.003 263.304 978.971 263.752 978.907 264.392C978.907 265.032 978.875 265.704 978.811 266.408C978.747 267.112 978.683 267.784 978.619 268.424C978.619 269.064 978.619 269.512 978.619 269.768L977.947 270.728H967.387C965.851 270.728 964.699 271.368 963.931 272.648C963.227 273.864 962.875 275.112 962.875 276.392ZM975.643 218.504C975.643 220.616 976.187 222.44 977.275 223.976C978.427 225.512 980.091 226.28 982.267 226.28C984.059 226.28 985.659 225.736 987.067 224.648C988.475 223.496 989.179 221.96 989.179 220.04C989.179 219.08 988.987 218.12 988.603 217.16C988.283 216.2 987.803 215.336 987.163 214.568C986.587 213.736 985.851 213.096 984.955 212.648C984.123 212.136 983.195 211.88 982.171 211.88C980.251 211.88 978.683 212.52 977.467 213.8C976.251 215.08 975.643 216.648 975.643 218.504ZM1006.33 276.2C1006.33 277.352 1006.55 278.504 1007 279.656C1007.51 280.744 1008.47 281.288 1009.88 281.288C1011.03 281.288 1011.86 281.032 1012.37 280.52C1012.95 280.008 1013.33 279.432 1013.53 278.792C1013.78 278.088 1013.97 277.448 1014.1 276.872C1014.29 276.232 1014.58 275.816 1014.97 275.624C1016.05 276.2 1017.05 276.968 1017.94 277.928C1018.84 278.824 1019.86 279.432 1021.01 279.752C1021.21 279.816 1021.53 279.912 1021.97 280.04C1022.42 280.168 1022.87 280.296 1023.32 280.424C1023.83 280.552 1024.28 280.68 1024.66 280.808C1025.11 280.872 1025.4 280.904 1025.53 280.904C1025.59 280.904 1025.94 280.936 1026.58 281C1027.22 281 1027.73 281 1028.12 281C1030.42 281 1032.63 280.584 1034.74 279.752C1036.92 278.92 1038.84 277.768 1040.5 276.296C1042.23 274.76 1043.61 272.968 1044.63 270.92C1045.65 268.872 1046.17 266.632 1046.17 264.2C1046.17 261.832 1045.56 259.656 1044.34 257.672C1043.19 255.624 1041.78 253.832 1040.12 252.296C1036.85 250.952 1033.37 249.96 1029.65 249.32C1025.94 248.68 1022.29 248.424 1018.71 248.552C1017.43 248.232 1016.41 247.688 1015.64 246.92C1014.93 246.152 1014.58 245.032 1014.58 243.56C1014.58 242.984 1014.71 242.376 1014.97 241.736C1015.29 241.096 1015.67 240.52 1016.12 240.008C1016.63 239.432 1017.17 238.952 1017.75 238.568C1018.33 238.184 1018.9 237.896 1019.48 237.704C1019.8 237.704 1020.41 237.704 1021.3 237.704C1022.2 237.64 1022.77 237.608 1023.03 237.608C1023.93 237.608 1024.63 237.608 1025.14 237.608C1025.65 237.608 1026.13 237.64 1026.58 237.704C1027.03 237.768 1027.48 237.864 1027.93 237.992C1028.44 238.056 1029.14 238.216 1030.04 238.472C1031.45 238.856 1032.53 239.656 1033.3 240.872C1034.07 242.088 1034.74 243.368 1035.32 244.712C1035.89 245.992 1036.5 247.144 1037.14 248.168C1037.85 249.192 1038.77 249.704 1039.93 249.704C1041.27 249.704 1042.26 249.128 1042.9 247.976C1043.61 246.76 1043.96 245.576 1043.96 244.424V243.272C1043.96 242.888 1043.93 242.216 1043.86 241.256C1043.8 240.232 1043.73 239.176 1043.67 238.088C1043.67 236.936 1043.64 235.88 1043.57 234.92C1043.57 233.896 1043.57 233.192 1043.57 232.808C1043.64 231.912 1043.29 231.144 1042.52 230.504C1041.81 229.8 1041.01 229.448 1040.12 229.448C1039.48 229.448 1038.97 229.576 1038.58 229.832C1038.2 230.088 1037.85 230.408 1037.53 230.792C1037.27 231.176 1036.98 231.592 1036.66 232.04C1036.41 232.488 1036.05 232.872 1035.61 233.192C1033.69 231.848 1031.51 230.856 1029.08 230.216C1026.71 229.512 1024.37 229 1022.07 228.68H1021.21C1020.37 228.68 1019.54 228.808 1018.71 229.064C1017.94 229.256 1017.21 229.512 1016.5 229.832C1013.43 231.112 1011.06 232.744 1009.4 234.728C1007.8 236.712 1007 239.4 1007 242.792C1007 245.736 1007.41 248.104 1008.25 249.896C1009.14 251.688 1010.29 253.096 1011.7 254.12C1013.17 255.144 1014.87 255.88 1016.79 256.328C1018.77 256.776 1020.82 257.128 1022.93 257.384C1025.05 257.64 1027.19 257.896 1029.37 258.152C1031.54 258.408 1033.62 258.856 1035.61 259.496C1036.69 259.944 1037.4 260.488 1037.72 261.128C1038.1 261.768 1038.29 262.632 1038.29 263.72C1038.29 265.256 1037.91 266.568 1037.14 267.656C1036.44 268.68 1035.51 269.512 1034.36 270.152C1033.27 270.792 1032.02 271.272 1030.61 271.592C1029.27 271.848 1027.93 271.976 1026.58 271.976C1025.05 271.976 1023.67 271.752 1022.45 271.304C1021.3 270.792 1020.25 270.152 1019.29 269.384C1018.33 268.552 1017.43 267.624 1016.6 266.6C1015.83 265.512 1015.03 264.392 1014.2 263.24C1013.81 262.728 1013.59 262.12 1013.53 261.416C1013.46 260.648 1013.21 260.008 1012.76 259.496C1012.44 259.176 1012.02 258.984 1011.51 258.92C1011.06 258.792 1010.65 258.728 1010.26 258.728C1009.43 258.728 1008.66 259.016 1007.96 259.592C1007.25 260.104 1006.9 260.808 1006.9 261.704V273.032C1006.58 273.672 1006.39 274.216 1006.33 274.664C1006.33 275.048 1006.33 275.56 1006.33 276.2ZM1068.3 261.416C1068.3 264.616 1068.68 267.432 1069.45 269.864C1070.28 272.296 1072.01 274.536 1074.64 276.584C1074.7 276.648 1074.89 276.744 1075.21 276.872C1075.53 277 1075.85 277.16 1076.17 277.352C1076.49 277.48 1076.81 277.64 1077.13 277.832C1077.45 277.96 1077.64 278.024 1077.71 278.024C1078.41 278.536 1078.96 278.952 1079.34 279.272C1079.79 279.528 1080.2 279.752 1080.59 279.944C1081.04 280.072 1081.52 280.168 1082.03 280.232C1082.54 280.296 1083.28 280.328 1084.24 280.328C1086.67 280.328 1088.81 279.752 1090.67 278.6C1092.52 277.384 1094.06 275.88 1095.28 274.088C1096.56 272.232 1097.52 270.184 1098.16 267.944C1098.8 265.704 1099.12 263.496 1099.12 261.32C1099.12 259.976 1098.8 258.728 1098.16 257.576C1097.52 256.424 1096.4 255.848 1094.8 255.848C1093.71 255.848 1092.88 256.232 1092.3 257C1091.72 257.704 1091.28 258.6 1090.96 259.688C1090.64 260.776 1090.32 261.96 1090 263.24C1089.74 264.456 1089.36 265.608 1088.84 266.696C1088.4 267.784 1087.72 268.712 1086.83 269.48C1085.93 270.184 1084.72 270.536 1083.18 270.536C1082.6 270.536 1082 270.344 1081.36 269.96C1080.72 269.512 1080.11 269 1079.53 268.424C1079.02 267.848 1078.57 267.24 1078.19 266.6C1077.87 265.96 1077.71 265.384 1077.71 264.872V238.184L1078.86 237.128C1078.92 237.064 1079.31 237.032 1080.01 237.032C1080.78 236.968 1081.36 236.936 1081.74 236.936C1083.6 236.936 1085.2 237.16 1086.54 237.608C1087.95 237.992 1089.45 238.184 1091.05 238.184C1092.33 238.184 1093.36 237.736 1094.12 236.84C1094.96 235.88 1095.37 234.76 1095.37 233.48C1095.37 232.136 1094.89 230.888 1093.93 229.736C1092.97 228.584 1091.76 228.008 1090.28 228.008C1089 228.008 1087.72 228.104 1086.44 228.296C1085.23 228.424 1083.95 228.488 1082.6 228.488C1082.09 228.488 1081.39 228.488 1080.49 228.488C1079.66 228.488 1079.21 228.456 1079.15 228.392L1078.48 227.72C1078.41 227.656 1078.38 227.24 1078.38 226.472C1078.38 225.704 1078.38 225.128 1078.38 224.744C1078.38 223.208 1078.44 221.736 1078.57 220.328C1078.76 218.92 1078.86 217.48 1078.86 216.008C1078.86 214.472 1078.64 213.16 1078.19 212.072C1077.8 210.92 1076.68 210.344 1074.83 210.344C1072.97 210.344 1071.76 210.92 1071.18 212.072C1070.6 213.16 1070.25 214.504 1070.12 216.104C1070.06 217.64 1070.03 219.208 1070.03 220.808C1070.03 222.408 1069.71 223.688 1069.07 224.648C1068.36 225.672 1067.5 226.312 1066.48 226.568C1065.52 226.76 1064.46 226.856 1063.31 226.856C1062.22 226.856 1061.13 226.888 1060.04 226.952C1059.02 227.016 1058.12 227.368 1057.36 228.008C1056.59 228.712 1055.82 229.448 1055.05 230.216C1054.35 230.984 1054 231.944 1054 233.096C1054 233.864 1054.25 234.696 1054.76 235.592C1055.34 236.488 1056.08 236.936 1056.97 236.936H1069.07V247.592C1068.3 249.704 1067.98 251.976 1068.11 254.408C1068.24 256.84 1068.3 259.176 1068.3 261.416ZM1103.17 257.384C1103.17 260.52 1103.65 263.528 1104.61 266.408C1105.57 269.224 1106.94 271.72 1108.73 273.896C1110.53 276.072 1112.73 277.8 1115.36 279.08C1117.98 280.36 1120.93 281 1124.19 281C1127.52 281 1130.75 280.392 1133.89 279.176C1137.02 277.96 1139.55 275.944 1141.47 273.128C1142.24 271.976 1142.94 270.824 1143.58 269.672C1144.22 268.456 1144.54 267.112 1144.54 265.64C1144.54 264.744 1144.22 264.008 1143.58 263.432C1143.01 262.856 1142.24 262.568 1141.28 262.568C1140.25 262.568 1139.39 262.824 1138.69 263.336C1137.98 263.848 1137.31 264.488 1136.67 265.256C1136.09 266.024 1135.52 266.824 1134.94 267.656C1134.43 268.488 1133.85 269.192 1133.21 269.768C1132.38 270.472 1131.39 270.984 1130.24 271.304C1129.09 271.56 1128.06 272.04 1127.17 272.744C1126.97 272.744 1126.53 272.776 1125.82 272.84C1125.18 272.84 1124.77 272.84 1124.57 272.84C1122.65 272.84 1120.89 272.488 1119.29 271.784C1117.69 271.016 1116.29 270.024 1115.07 268.808C1113.92 267.528 1112.99 266.056 1112.29 264.392C1111.65 262.728 1111.33 260.968 1111.33 259.112C1111.33 258.984 1111.33 258.728 1111.33 258.344C1111.39 257.96 1111.42 257.736 1111.42 257.672L1111.81 257.384C1111.81 257.384 1112.16 257.352 1112.86 257.288C1113.57 257.224 1114.4 257.192 1115.36 257.192C1116.32 257.128 1117.28 257.096 1118.24 257.096C1119.26 257.032 1120.13 257 1120.83 257C1121.53 257 1122.78 257 1124.57 257C1126.43 256.936 1128.35 256.904 1130.33 256.904C1132.38 256.904 1134.3 256.936 1136.09 257C1137.95 257 1139.23 257 1139.93 257C1140.96 256.808 1141.95 256.552 1142.91 256.232C1143.87 255.912 1144.64 255.272 1145.21 254.312C1145.21 254.184 1145.21 253.928 1145.21 253.544C1145.28 253.096 1145.31 252.808 1145.31 252.68C1145.31 252.104 1145.18 251.24 1144.93 250.088C1144.67 248.872 1144.35 247.656 1143.97 246.44C1143.65 245.16 1143.26 244.008 1142.81 242.984C1142.43 241.896 1142.11 241.16 1141.85 240.776C1139.42 237.704 1136.8 235.208 1133.98 233.288C1131.17 231.304 1127.71 230.312 1123.61 230.312C1122.91 230.312 1122.17 230.312 1121.41 230.312C1120.7 230.248 1120 230.376 1119.29 230.696C1119.1 230.76 1118.75 230.92 1118.24 231.176C1117.79 231.368 1117.28 231.624 1116.7 231.944C1116.13 232.2 1115.58 232.456 1115.07 232.712C1114.56 232.968 1114.21 233.16 1114.01 233.288C1111.9 234.44 1110.14 235.944 1108.73 237.8C1107.39 239.592 1106.3 241.576 1105.47 243.752C1104.64 245.864 1104.03 248.104 1103.65 250.472C1103.33 252.84 1103.17 255.144 1103.17 257.384ZM1112.19 248.552C1112.19 246.952 1112.57 245.576 1113.34 244.424C1114.11 243.208 1115.07 242.216 1116.22 241.448C1117.37 240.68 1118.65 240.136 1120.06 239.816C1121.47 239.432 1122.85 239.24 1124.19 239.24C1125.41 239.24 1126.69 239.4 1128.03 239.72C1129.44 239.976 1130.72 240.424 1131.87 241.064C1133.02 241.64 1133.98 242.472 1134.75 243.56C1135.52 244.584 1135.9 245.864 1135.9 247.4C1135.9 247.528 1135.9 247.752 1135.9 248.072C1135.9 248.392 1135.87 248.616 1135.81 248.744C1135.68 248.872 1135.49 249.032 1135.23 249.224C1135.04 249.352 1134.88 249.416 1134.75 249.416H1112.57C1112.32 249.416 1112.19 249.32 1112.19 249.128C1112.19 248.872 1112.19 248.68 1112.19 248.552ZM1149.91 275.528C1149.91 277.128 1150.52 278.44 1151.74 279.464C1153.02 280.488 1154.43 281 1155.96 281H1166.91C1167.55 280.808 1168.03 280.712 1168.35 280.712C1168.73 280.648 1169.18 280.616 1169.69 280.616C1170.78 280.616 1171.83 280.68 1172.86 280.808C1173.95 280.936 1175.03 281 1176.12 281C1177.08 281 1178.11 280.968 1179.19 280.904C1180.28 280.776 1181.27 280.552 1182.17 280.232C1183.13 279.848 1183.9 279.304 1184.47 278.6C1185.05 277.832 1185.34 276.808 1185.34 275.528C1185.34 273.992 1184.73 272.84 1183.51 272.072C1182.3 271.24 1180.95 270.824 1179.48 270.824C1178.78 270.824 1178.04 270.888 1177.27 271.016C1176.57 271.144 1175.87 271.208 1175.16 271.208C1174.46 271.208 1173.85 271.144 1173.34 271.016C1172.83 270.888 1172.44 270.472 1172.19 269.768C1172.19 269.512 1172.15 269.096 1172.09 268.52C1172.09 267.944 1172.06 267.336 1171.99 266.696C1171.99 266.056 1171.96 265.448 1171.9 264.872C1171.83 264.296 1171.8 263.912 1171.8 263.72C1171.8 263.592 1171.74 263.272 1171.61 262.76C1171.55 262.248 1171.48 261.928 1171.42 261.8V250.952C1171.42 250.632 1171.58 250.152 1171.9 249.512C1172.22 248.808 1172.6 248.104 1173.05 247.4C1173.5 246.696 1173.95 246.056 1174.39 245.48C1174.91 244.84 1175.29 244.392 1175.55 244.136C1175.74 243.944 1176.12 243.56 1176.7 242.984C1177.27 242.408 1177.88 241.8 1178.52 241.16C1179.16 240.52 1179.77 239.912 1180.35 239.336C1180.92 238.76 1181.34 238.376 1181.59 238.184C1181.85 237.928 1182.11 237.8 1182.36 237.8C1182.68 237.736 1183 237.704 1183.32 237.704C1183.45 237.704 1183.67 237.704 1183.99 237.704C1184.31 237.704 1184.51 237.864 1184.57 238.184C1184.63 239.08 1184.73 240.168 1184.86 241.448C1185.05 242.664 1185.37 243.848 1185.82 245C1186.27 246.152 1186.87 247.144 1187.64 247.976C1188.41 248.744 1189.43 249.128 1190.71 249.128C1193.4 249.128 1195.29 248.296 1196.38 246.632C1197.53 244.968 1198.11 242.952 1198.11 240.584C1198.11 238.92 1197.75 237.416 1197.05 236.072C1196.41 234.664 1195.55 233.48 1194.46 232.52C1193.37 231.56 1192.06 230.824 1190.52 230.312C1189.05 229.736 1187.51 229.448 1185.91 229.448C1183.29 229.448 1180.83 230.12 1178.52 231.464C1176.28 232.808 1174.17 234.28 1172.19 235.88H1171.99C1171.74 235.88 1171.48 235.72 1171.23 235.4C1171.03 235.08 1170.84 234.696 1170.65 234.248C1170.52 233.8 1170.39 233.384 1170.27 233C1170.14 232.552 1170.01 232.264 1169.88 232.136C1169.18 231.176 1168.15 230.536 1166.81 230.216C1165.47 229.832 1164.03 229.608 1162.49 229.544C1160.95 229.48 1159.42 229.512 1157.88 229.64C1156.41 229.704 1155.16 229.672 1154.14 229.544C1154.14 229.48 1154.04 229.448 1153.85 229.448C1153.72 229.448 1153.63 229.448 1153.56 229.448C1152.22 229.448 1151.16 229.928 1150.39 230.888C1149.63 231.784 1149.24 232.872 1149.24 234.152C1149.24 235.432 1149.66 236.52 1150.49 237.416C1151.39 238.248 1152.47 238.728 1153.75 238.856C1154.07 238.856 1154.62 238.888 1155.39 238.952C1156.15 239.016 1156.99 239.08 1157.88 239.144C1158.78 239.144 1159.61 239.176 1160.38 239.24C1161.15 239.24 1161.69 239.24 1162.01 239.24L1162.78 240.008L1163.35 251.336V253.16L1163.55 262.568C1163.48 262.696 1163.39 263.016 1163.26 263.528C1163.19 264.04 1163.16 264.36 1163.16 264.488C1163.16 264.744 1163.13 265.192 1163.07 265.832C1163 266.408 1162.94 267.048 1162.87 267.752C1162.87 268.392 1162.84 269 1162.78 269.576C1162.78 270.152 1162.78 270.568 1162.78 270.824L1162.39 271.208C1162.33 271.208 1162.04 271.24 1161.53 271.304C1161.08 271.304 1160.73 271.304 1160.47 271.304C1159.51 271.304 1158.59 271.24 1157.69 271.112C1156.86 270.92 1155.99 270.824 1155.1 270.824C1153.63 270.824 1152.38 271.24 1151.35 272.072C1150.39 272.904 1149.91 274.056 1149.91 275.528Z" fill="white"/>
<rect x="40" y="8" width="50.875" height="26" rx="2" fill="#71363F"/>
<rect x="40.5" y="8.5" width="49.875" height="25" rx="1.5" stroke="black" stroke-opacity="0.14902"/>
<path d="M44.9688 24V16H47.6719C48.2969 16 48.8099 16.1068 49.2109 16.3203C49.612 16.5312 49.9089 16.8216 50.1016 17.1914C50.2943 17.5612 50.3906 17.9818 50.3906 18.4531C50.3906 18.9245 50.2943 19.3424 50.1016 19.707C49.9089 20.0716 49.6133 20.3581 49.2148 20.5664C48.8164 20.7721 48.3073 20.875 47.6875 20.875H45.5V20H47.6563C48.0833 20 48.4271 19.9375 48.6875 19.8125C48.9505 19.6875 49.1406 19.5104 49.2578 19.2812C49.3776 19.0495 49.4375 18.7734 49.4375 18.4531C49.4375 18.1328 49.3776 17.8529 49.2578 17.6133C49.138 17.3737 48.9466 17.1888 48.6836 17.0586C48.4206 16.9258 48.0729 16.8594 47.6406 16.8594H45.9375V24H44.9688ZM48.7344 20.4062L50.7031 24H49.5781L47.6406 20.4062H48.7344ZM54.3311 24.125C53.7529 24.125 53.2542 23.9974 52.835 23.7422C52.4183 23.4844 52.0967 23.125 51.8701 22.6641C51.6462 22.2005 51.5342 21.6615 51.5342 21.0469C51.5342 20.4323 51.6462 19.8906 51.8701 19.4219C52.0967 18.9505 52.4118 18.5833 52.8154 18.3203C53.2217 18.0547 53.6956 17.9219 54.2373 17.9219C54.5498 17.9219 54.8584 17.974 55.1631 18.0781C55.4678 18.1823 55.7451 18.3516 55.9951 18.5859C56.2451 18.8177 56.4443 19.125 56.5928 19.5078C56.7412 19.8906 56.8154 20.362 56.8154 20.9219V21.3125H52.1904V20.5156H55.8779C55.8779 20.1771 55.8102 19.875 55.6748 19.6094C55.542 19.3437 55.3519 19.1341 55.1045 18.9805C54.8597 18.8268 54.5706 18.75 54.2373 18.75C53.8701 18.75 53.5524 18.8411 53.2842 19.0234C53.0186 19.2031 52.8141 19.4375 52.6709 19.7266C52.5277 20.0156 52.4561 20.3255 52.4561 20.6562V21.1875C52.4561 21.6406 52.5342 22.0247 52.6904 22.3398C52.8493 22.6523 53.0693 22.8906 53.3506 23.0547C53.6318 23.2161 53.9587 23.2969 54.3311 23.2969C54.5732 23.2969 54.792 23.263 54.9873 23.1953C55.1852 23.125 55.3558 23.0208 55.499 22.8828C55.6423 22.7422 55.7529 22.5677 55.8311 22.3594L56.7217 22.6094C56.6279 22.9115 56.4704 23.1771 56.249 23.4062C56.0277 23.6328 55.7542 23.8099 55.4287 23.9375C55.1032 24.0625 54.7373 24.125 54.3311 24.125ZM60.6396 26.375C60.1943 26.375 59.8115 26.3177 59.4912 26.2031C59.1709 26.0911 58.904 25.9427 58.6904 25.7578C58.4795 25.5755 58.3115 25.3802 58.1865 25.1719L58.9209 24.6563C59.0042 24.7656 59.1097 24.8906 59.2373 25.0312C59.3649 25.1745 59.5394 25.2982 59.7607 25.4023C59.9847 25.5091 60.2777 25.5625 60.6396 25.5625C61.124 25.5625 61.5238 25.4453 61.8389 25.2109C62.154 24.9766 62.3115 24.6094 62.3115 24.1094V22.8906H62.2334C62.1657 23 62.0693 23.1354 61.9443 23.2969C61.8219 23.4557 61.6449 23.5977 61.4131 23.7227C61.1839 23.8451 60.874 23.9062 60.4834 23.9062C59.999 23.9062 59.5641 23.7917 59.1787 23.5625C58.7959 23.3333 58.4925 23 58.2686 22.5625C58.0472 22.125 57.9365 21.5937 57.9365 20.9687C57.9365 20.3542 58.0446 19.819 58.2607 19.3633C58.4769 18.9049 58.7777 18.5508 59.1631 18.3008C59.5485 18.0482 59.9938 17.9219 60.499 17.9219C60.8896 17.9219 61.1995 17.987 61.4287 18.1172C61.6605 18.2448 61.8376 18.3906 61.96 18.5547C62.085 18.7161 62.1813 18.849 62.249 18.9531H62.3428V18H63.2334V24.1719C63.2334 24.6875 63.1162 25.1068 62.8818 25.4297C62.6501 25.7552 62.3376 25.9935 61.9443 26.1445C61.5537 26.2982 61.1188 26.375 60.6396 26.375ZM60.6084 23.0781C60.9782 23.0781 61.2907 22.9935 61.5459 22.8242C61.8011 22.6549 61.9951 22.4115 62.1279 22.0938C62.2607 21.776 62.3271 21.3958 62.3271 20.9531C62.3271 20.5208 62.262 20.1393 62.1318 19.8086C62.0016 19.4779 61.8089 19.2187 61.5537 19.0312C61.2985 18.8437 60.9834 18.75 60.6084 18.75C60.2178 18.75 59.8923 18.849 59.6318 19.0469C59.374 19.2448 59.18 19.5104 59.0498 19.8438C58.9222 20.1771 58.8584 20.5469 58.8584 20.9531C58.8584 21.3698 58.9235 21.7383 59.0537 22.0586C59.1865 22.3763 59.3818 22.6263 59.6396 22.8086C59.9001 22.9883 60.223 23.0781 60.6084 23.0781ZM64.9209 24V18H65.8428V24H64.9209ZM65.3896 17C65.21 17 65.055 16.9388 64.9248 16.8164C64.7972 16.694 64.7334 16.5469 64.7334 16.375C64.7334 16.2031 64.7972 16.056 64.9248 15.9336C65.055 15.8112 65.21 15.75 65.3896 15.75C65.5693 15.75 65.723 15.8112 65.8506 15.9336C65.9808 16.056 66.0459 16.2031 66.0459 16.375C66.0459 16.5469 65.9808 16.694 65.8506 16.8164C65.723 16.9388 65.5693 17 65.3896 17ZM71.7813 19.3437L70.9531 19.5781C70.901 19.4401 70.8242 19.306 70.7227 19.1758C70.6237 19.043 70.4883 18.9336 70.3164 18.8477C70.1445 18.7617 69.9245 18.7187 69.6563 18.7187C69.2891 18.7187 68.9831 18.8034 68.7383 18.9727C68.4961 19.1393 68.375 19.3516 68.375 19.6094C68.375 19.8385 68.4583 20.0195 68.625 20.1523C68.7917 20.2852 69.0521 20.3958 69.4063 20.4844L70.2969 20.7031C70.8333 20.8333 71.2331 21.0326 71.4961 21.3008C71.7591 21.5664 71.8906 21.9089 71.8906 22.3281C71.8906 22.6719 71.7917 22.9792 71.5938 23.25C71.3984 23.5208 71.125 23.7344 70.7734 23.8906C70.4219 24.0469 70.013 24.125 69.5469 24.125C68.9349 24.125 68.4284 23.9922 68.0273 23.7266C67.6263 23.4609 67.3724 23.0729 67.2656 22.5625L68.1406 22.3437C68.224 22.6667 68.3815 22.9089 68.6133 23.0703C68.8477 23.2318 69.1536 23.3125 69.5313 23.3125C69.9609 23.3125 70.3021 23.2214 70.5547 23.0391C70.8099 22.8542 70.9375 22.6328 70.9375 22.375C70.9375 22.1667 70.8646 21.9922 70.7188 21.8516C70.5729 21.7083 70.349 21.6016 70.0469 21.5312L69.0469 21.2969C68.4974 21.1667 68.0937 20.9648 67.8359 20.6914C67.5807 20.4154 67.4531 20.0703 67.4531 19.6562C67.4531 19.3177 67.5482 19.0182 67.7383 18.7578C67.931 18.4974 68.1927 18.293 68.5234 18.1445C68.8568 17.9961 69.2344 17.9219 69.6563 17.9219C70.25 17.9219 70.7161 18.0521 71.0547 18.3125C71.3958 18.5729 71.638 18.9167 71.7813 19.3437ZM75.8877 18V18.7812H72.7783V18H75.8877ZM73.6846 16.5625H74.6064V22.2812C74.6064 22.5417 74.6442 22.737 74.7197 22.8672C74.7979 22.9948 74.8968 23.0807 75.0166 23.125C75.139 23.1667 75.2679 23.1875 75.4033 23.1875C75.5049 23.1875 75.5882 23.1823 75.6533 23.1719C75.7184 23.1589 75.7705 23.1484 75.8096 23.1406L75.9971 23.9687C75.9346 23.9922 75.8473 24.0156 75.7354 24.0391C75.6234 24.0651 75.4814 24.0781 75.3096 24.0781C75.0492 24.0781 74.7939 24.0221 74.5439 23.9102C74.2965 23.7982 74.0908 23.6276 73.9268 23.3984C73.7653 23.1693 73.6846 22.8802 73.6846 22.5312V16.5625ZM79.7256 24.125C79.1475 24.125 78.6488 23.9974 78.2295 23.7422C77.8128 23.4844 77.4912 23.125 77.2646 22.6641C77.0407 22.2005 76.9287 21.6615 76.9287 21.0469C76.9287 20.4323 77.0407 19.8906 77.2646 19.4219C77.4912 18.9505 77.8063 18.5833 78.21 18.3203C78.6162 18.0547 79.0902 17.9219 79.6318 17.9219C79.9443 17.9219 80.2529 17.974 80.5576 18.0781C80.8623 18.1823 81.1396 18.3516 81.3896 18.5859C81.6396 18.8177 81.8389 19.125 81.9873 19.5078C82.1357 19.8906 82.21 20.362 82.21 20.9219V21.3125H77.585V20.5156H81.2725C81.2725 20.1771 81.2048 19.875 81.0693 19.6094C80.9365 19.3437 80.7464 19.1341 80.499 18.9805C80.2542 18.8268 79.9652 18.75 79.6318 18.75C79.2646 18.75 78.9469 18.8411 78.6787 19.0234C78.4131 19.2031 78.2087 19.4375 78.0654 19.7266C77.9222 20.0156 77.8506 20.3255 77.8506 20.6562V21.1875C77.8506 21.6406 77.9287 22.0247 78.085 22.3398C78.2438 22.6523 78.4639 22.8906 78.7451 23.0547C79.0264 23.2161 79.3532 23.2969 79.7256 23.2969C79.9678 23.2969 80.1865 23.263 80.3818 23.1953C80.5798 23.125 80.7503 23.0208 80.8936 22.8828C81.0368 22.7422 81.1475 22.5677 81.2256 22.3594L82.1162 22.6094C82.0225 22.9115 81.8649 23.1771 81.6436 23.4062C81.4222 23.6328 81.1488 23.8099 80.8232 23.9375C80.4977 24.0625 80.1318 24.125 79.7256 24.125ZM83.6123 24V18H84.5029V18.9062H84.5654C84.6748 18.6094 84.8727 18.3685 85.1592 18.1836C85.4456 17.9987 85.7686 17.9062 86.1279 17.9062C86.1956 17.9062 86.2803 17.9076 86.3818 17.9102C86.4834 17.9128 86.5602 17.9167 86.6123 17.9219V18.8594C86.5811 18.8516 86.5094 18.8398 86.3975 18.8242C86.2881 18.806 86.1722 18.7969 86.0498 18.7969C85.7581 18.7969 85.4977 18.8581 85.2686 18.9805C85.042 19.1003 84.8623 19.2669 84.7295 19.4805C84.5993 19.6914 84.5342 19.9323 84.5342 20.2031V24H83.6123Z" fill="white"/>
</svg>
