<svg width="703" height="755" viewBox="0 0 703 755" fill="none" xmlns="http://www.w3.org/2000/svg">
<g filter="url(#filter0_d_6_217)">
<rect x="7" width="695" height="746.077" fill="#393232"/>
<rect x="9.5" y="2.5" width="690" height="741.077" stroke="#AFAFAF" stroke-width="5"/>
</g>
<path d="M160.372 84.9273C159.255 84.9273 158.303 85.2885 157.514 86.0111C156.726 86.6679 156.332 87.5875 156.332 88.7699V111.53C156.332 112.712 156.792 113.73 157.712 114.584C158.631 115.372 159.649 115.767 160.766 115.767C161.751 115.767 162.474 115.537 162.934 115.077C163.393 114.551 163.755 114.026 164.017 113.5C164.28 112.909 164.543 112.384 164.806 111.924C165.134 111.399 165.627 111.136 166.283 111.136C167.269 111.136 168.188 111.333 169.042 111.727C169.896 112.121 170.717 112.581 171.505 113.106C172.359 113.566 173.213 113.993 174.067 114.387C174.921 114.781 175.808 114.978 176.727 114.978H186.383C187.5 114.978 188.452 114.683 189.241 114.092C190.094 113.435 190.948 112.844 191.802 112.318C191.868 112.252 192.065 112.154 192.393 112.023C192.788 111.825 193.215 111.628 193.674 111.431C194.134 111.169 194.528 110.939 194.857 110.742C195.251 110.545 195.514 110.413 195.645 110.348C197.024 109.362 198.174 108.18 199.093 106.801C200.013 105.421 200.736 103.943 201.261 102.367C201.852 100.725 202.279 99.0497 202.542 97.3418C202.805 95.634 202.936 93.9919 202.936 92.4154C202.936 90.3792 202.673 88.5728 202.148 86.9964C201.622 85.3542 200.867 83.8763 199.882 82.5626C198.962 81.2489 197.845 80.0009 196.532 78.8185C195.284 77.6362 193.937 76.4539 192.492 75.2715C192.426 75.2058 192.295 75.1401 192.098 75.0745C191.967 75.0088 191.868 74.9431 191.802 74.8774C190.226 74.4833 188.551 74.122 186.777 73.7936C185.07 73.3995 183.395 73.1367 181.752 73.0054C179.65 72.8083 177.516 72.6441 175.348 72.5127C173.246 72.3814 171.341 72.0201 169.633 71.4289C167.926 70.8377 166.546 69.8525 165.495 68.4731C164.444 67.0937 163.919 65.0246 163.919 62.2658C163.919 60.8207 164.247 59.507 164.904 58.3247C165.561 57.0766 166.415 55.9928 167.466 55.0732C168.582 54.1536 169.798 53.4311 171.111 52.9056C172.491 52.3801 173.903 52.1174 175.348 52.1174C177.516 52.1174 179.716 52.5772 181.949 53.4968C184.183 54.4164 186.186 55.533 187.96 56.8467C188.814 57.5036 189.372 58.5217 189.635 59.9011C189.963 61.2148 190.226 62.5614 190.423 63.9408C190.686 65.3202 191.08 66.5353 191.605 67.5863C192.196 68.6373 193.215 69.1628 194.66 69.1628C195.645 69.1628 196.499 68.7687 197.221 67.9804C197.944 67.1922 198.305 66.3054 198.305 65.3202V47.191C198.305 45.943 197.944 44.7278 197.221 43.5454C196.564 42.2974 195.579 41.6734 194.266 41.6734C193.543 41.6734 192.919 41.8705 192.393 42.2646C191.868 42.6587 191.441 43.1513 191.113 43.7425C190.784 44.3337 190.521 44.9905 190.324 45.7131C190.127 46.3699 189.963 46.9939 189.832 47.5851H189.438C188.649 47.5851 187.697 47.2238 186.58 46.5013C185.529 45.7131 184.675 45.1547 184.019 44.8263C183.69 44.6949 183.132 44.4979 182.344 44.2351C181.555 43.9067 180.701 43.5783 179.782 43.2499C178.928 42.9214 178.074 42.6258 177.22 42.3631C176.432 42.1004 175.874 41.9033 175.545 41.7719H174.658C173.542 41.7719 172.261 42.0347 170.816 42.5601C169.436 43.02 168.024 43.644 166.579 44.4322C165.2 45.1547 163.886 45.9758 162.638 46.8954C161.456 47.815 160.503 48.6689 159.781 49.4571C159.058 50.7708 158.434 51.9532 157.909 53.0041C157.383 54.0551 156.956 55.1061 156.628 56.157C156.299 57.208 156.037 58.2918 155.84 59.4085C155.642 60.5251 155.544 61.7732 155.544 63.1525C155.544 66.1084 156.102 68.6701 157.219 70.8377C158.401 73.0054 159.912 74.8774 161.751 76.4539C163.656 77.9646 165.824 79.1798 168.254 80.0994C170.75 80.9533 173.312 81.5445 175.939 81.8729C177.581 82.07 179.158 82.2013 180.669 82.267C182.245 82.267 183.723 82.3984 185.102 82.6611C186.547 82.8582 187.894 83.318 189.142 84.0405C190.39 84.6974 191.507 85.7812 192.492 87.292C192.689 87.5547 192.919 87.9816 193.182 88.5728C193.51 89.0983 193.674 89.4267 193.674 89.5581V96.4551C193.346 97.0462 193.05 97.7031 192.788 98.4256C192.525 99.1482 192.196 99.8379 191.802 100.495C191.474 101.152 191.047 101.776 190.521 102.367C190.062 102.892 189.438 103.254 188.649 103.451C187.73 103.713 186.843 103.91 185.989 104.042C185.201 104.107 184.446 104.403 183.723 104.928H176.333C175.874 104.666 175.512 104.502 175.25 104.436C174.987 104.304 174.691 104.206 174.363 104.14C174.1 104.075 173.804 104.009 173.476 103.943C173.148 103.812 172.688 103.648 172.097 103.451C170.586 102.859 169.239 101.907 168.057 100.593C166.94 99.2139 166.119 97.7359 165.594 96.1595C165.331 95.2399 165.167 94.1561 165.101 92.9081C165.035 91.5944 164.871 90.3463 164.609 89.164C164.346 87.9817 163.919 86.9964 163.328 86.2081C162.736 85.3542 161.751 84.9273 160.372 84.9273ZM207.067 90.839C207.067 94.0576 207.56 97.1448 208.545 100.101C209.53 102.991 210.943 105.553 212.782 107.786C214.621 110.019 216.887 111.793 219.58 113.106C222.273 114.42 225.295 115.077 228.645 115.077C232.061 115.077 235.378 114.453 238.596 113.205C241.815 111.957 244.409 109.888 246.38 106.998C247.168 105.815 247.891 104.633 248.548 103.451C249.204 102.203 249.533 100.823 249.533 99.3124C249.533 98.3928 249.204 97.6374 248.548 97.0462C247.956 96.4551 247.168 96.1595 246.183 96.1595C245.132 96.1595 244.245 96.4222 243.523 96.9477C242.8 97.4732 242.11 98.1301 241.454 98.9183C240.862 99.7065 240.271 100.528 239.68 101.381C239.155 102.235 238.563 102.958 237.907 103.549C237.053 104.272 236.035 104.797 234.852 105.126C233.67 105.388 232.619 105.881 231.699 106.603C231.502 106.603 231.042 106.636 230.32 106.702C229.663 106.702 229.236 106.702 229.039 106.702C227.068 106.702 225.262 106.341 223.62 105.618C221.978 104.83 220.533 103.812 219.285 102.564C218.102 101.25 217.15 99.7393 216.427 98.0315C215.771 96.3237 215.442 94.5174 215.442 92.6125C215.442 92.4811 215.442 92.2184 215.442 91.8242C215.508 91.4301 215.541 91.2002 215.541 91.1346L215.935 90.839C215.935 90.839 216.296 90.8061 217.019 90.7404C217.741 90.6748 218.595 90.6419 219.58 90.6419C220.566 90.5762 221.551 90.5434 222.536 90.5434C223.587 90.4777 224.474 90.4449 225.196 90.4449C225.919 90.4449 227.2 90.4449 229.039 90.4449C230.944 90.3792 232.914 90.3463 234.951 90.3463C237.053 90.3463 239.023 90.3792 240.862 90.4449C242.767 90.4449 244.081 90.4449 244.804 90.4449C245.855 90.2478 246.873 89.9851 247.858 89.6566C248.843 89.3282 249.631 88.6713 250.223 87.6861C250.223 87.5547 250.223 87.292 250.223 86.8978C250.288 86.438 250.321 86.1425 250.321 86.0111C250.321 85.4199 250.19 84.5332 249.927 83.3508C249.664 82.1028 249.336 80.8548 248.942 79.6068C248.613 78.293 248.219 77.1107 247.759 76.0597C247.365 74.9431 247.037 74.1877 246.774 73.7936C244.278 70.6407 241.585 68.079 238.695 66.1084C235.805 64.0721 232.258 63.054 228.054 63.054C227.331 63.054 226.576 63.054 225.788 63.054C225.065 62.9883 224.343 63.1197 223.62 63.4481C223.423 63.5138 223.062 63.678 222.536 63.9408C222.076 64.1378 221.551 64.4006 220.96 64.729C220.369 64.9917 219.81 65.2545 219.285 65.5172C218.759 65.78 218.398 65.977 218.201 66.1084C216.033 67.2907 214.227 68.8343 212.782 70.7392C211.402 72.5784 210.286 74.6147 209.432 76.848C208.578 79.0156 207.954 81.3146 207.56 83.7449C207.231 86.1753 207.067 88.54 207.067 90.839ZM216.329 81.7744C216.329 80.1322 216.723 78.72 217.511 77.5377C218.299 76.2896 219.285 75.2715 220.467 74.4833C221.649 73.6951 222.963 73.1367 224.408 72.8083C225.853 72.4142 227.266 72.2171 228.645 72.2171C229.893 72.2171 231.207 72.3814 232.586 72.7098C234.031 72.9725 235.345 73.4323 236.527 74.0892C237.71 74.6803 238.695 75.5343 239.483 76.6509C240.271 77.7019 240.665 79.0156 240.665 80.592C240.665 80.7234 240.665 80.9533 240.665 81.2817C240.665 81.6102 240.633 81.8401 240.567 81.9714C240.435 82.1028 240.238 82.267 239.976 82.4641C239.779 82.5954 239.614 82.6611 239.483 82.6611H216.723C216.46 82.6611 216.329 82.5626 216.329 82.3655C216.329 82.1028 216.329 81.9057 216.329 81.7744ZM269.038 94.9772C269.038 98.2614 269.432 101.152 270.22 103.648C271.074 106.144 272.847 108.443 275.54 110.545C275.606 110.61 275.803 110.709 276.132 110.84C276.46 110.972 276.789 111.136 277.117 111.333C277.445 111.464 277.774 111.628 278.102 111.825C278.431 111.957 278.628 112.023 278.693 112.023C279.416 112.548 279.974 112.975 280.368 113.303C280.828 113.566 281.255 113.796 281.649 113.993C282.109 114.124 282.602 114.223 283.127 114.289C283.653 114.354 284.408 114.387 285.393 114.387C287.889 114.387 290.09 113.796 291.995 112.614C293.9 111.366 295.476 109.822 296.724 107.983C298.038 106.078 299.023 103.976 299.68 101.677C300.337 99.3781 300.665 97.1119 300.665 94.8786C300.665 93.4992 300.337 92.2184 299.68 91.036C299.023 89.8537 297.874 89.2625 296.231 89.2625C295.115 89.2625 294.261 89.6566 293.67 90.4449C293.079 91.1674 292.619 92.087 292.29 93.2036C291.962 94.3203 291.633 95.5355 291.305 96.8492C291.042 98.0972 290.648 99.2796 290.123 100.396C289.663 101.513 288.973 102.465 288.054 103.254C287.134 103.976 285.886 104.337 284.309 104.337C283.718 104.337 283.094 104.14 282.437 103.746C281.781 103.286 281.157 102.761 280.565 102.17C280.04 101.579 279.58 100.955 279.186 100.298C278.858 99.6408 278.693 99.0497 278.693 98.5242V71.1333L279.876 70.0495C279.941 69.9838 280.336 69.951 281.058 69.951C281.846 69.8853 282.437 69.8525 282.832 69.8525C284.736 69.8525 286.379 70.0824 287.758 70.5422C289.203 70.9363 290.747 71.1333 292.389 71.1333C293.703 71.1333 294.753 70.6735 295.542 69.7539C296.396 68.7687 296.823 67.6192 296.823 66.3054C296.823 64.9261 296.33 63.6452 295.345 62.4628C294.359 61.2805 293.111 60.6893 291.601 60.6893C290.287 60.6893 288.973 60.7879 287.659 60.9849C286.411 61.1163 285.098 61.182 283.718 61.182C283.193 61.182 282.47 61.182 281.551 61.182C280.697 61.182 280.237 61.1491 280.171 61.0835L279.482 60.3938C279.416 60.3281 279.383 59.9011 279.383 59.1129C279.383 58.3247 279.383 57.7335 279.383 57.3394C279.383 55.7629 279.449 54.2522 279.58 52.8071C279.777 51.362 279.876 49.8841 279.876 48.3733C279.876 46.7969 279.646 45.4503 279.186 44.3337C278.792 43.1513 277.642 42.5601 275.738 42.5601C273.833 42.5601 272.585 43.1513 271.993 44.3337C271.402 45.4503 271.041 46.8297 270.91 48.4718C270.844 50.0483 270.811 51.6576 270.811 53.2997C270.811 54.9419 270.483 56.2556 269.826 57.2409C269.103 58.2918 268.217 58.9487 267.166 59.2114C266.18 59.4085 265.096 59.507 263.914 59.507C262.798 59.507 261.681 59.5398 260.564 59.6055C259.513 59.6712 258.594 60.0325 257.805 60.6893C257.017 61.4119 256.229 62.1673 255.441 62.9555C254.718 63.7437 254.357 64.729 254.357 65.9113C254.357 66.6996 254.62 67.5535 255.145 68.4731C255.736 69.3927 256.492 69.8525 257.411 69.8525H269.826V80.7891C269.038 82.9567 268.709 85.2885 268.841 87.7846C268.972 90.2806 269.038 92.6782 269.038 94.9772ZM319.503 94.9772C319.503 98.2614 319.897 101.152 320.685 103.648C321.539 106.144 323.312 108.443 326.005 110.545C326.071 110.61 326.268 110.709 326.597 110.84C326.925 110.972 327.253 111.136 327.582 111.333C327.91 111.464 328.239 111.628 328.567 111.825C328.896 111.957 329.093 112.023 329.158 112.023C329.881 112.548 330.439 112.975 330.833 113.303C331.293 113.566 331.72 113.796 332.114 113.993C332.574 114.124 333.067 114.223 333.592 114.289C334.118 114.354 334.873 114.387 335.858 114.387C338.354 114.387 340.555 113.796 342.46 112.614C344.364 111.366 345.941 109.822 347.189 107.983C348.503 106.078 349.488 103.976 350.145 101.677C350.802 99.3781 351.13 97.1119 351.13 94.8786C351.13 93.4992 350.802 92.2184 350.145 91.036C349.488 89.8537 348.338 89.2625 346.696 89.2625C345.58 89.2625 344.726 89.6566 344.135 90.4449C343.543 91.1674 343.084 92.087 342.755 93.2036C342.427 94.3203 342.098 95.5355 341.77 96.8492C341.507 98.0972 341.113 99.2796 340.588 100.396C340.128 101.513 339.438 102.465 338.518 103.254C337.599 103.976 336.351 104.337 334.774 104.337C334.183 104.337 333.559 104.14 332.902 103.746C332.246 103.286 331.622 102.761 331.03 102.17C330.505 101.579 330.045 100.955 329.651 100.298C329.323 99.6408 329.158 99.0497 329.158 98.5242V71.1333L330.341 70.0495C330.406 69.9838 330.8 69.951 331.523 69.951C332.311 69.8853 332.902 69.8525 333.296 69.8525C335.201 69.8525 336.843 70.0824 338.223 70.5422C339.668 70.9363 341.212 71.1333 342.854 71.1333C344.167 71.1333 345.218 70.6735 346.007 69.7539C346.861 68.7687 347.287 67.6192 347.287 66.3054C347.287 64.9261 346.795 63.6452 345.81 62.4628C344.824 61.2805 343.576 60.6893 342.065 60.6893C340.752 60.6893 339.438 60.7879 338.124 60.9849C336.876 61.1163 335.563 61.182 334.183 61.182C333.658 61.182 332.935 61.182 332.016 61.182C331.162 61.182 330.702 61.1491 330.636 61.0835L329.947 60.3938C329.881 60.3281 329.848 59.9011 329.848 59.1129C329.848 58.3247 329.848 57.7335 329.848 57.3394C329.848 55.7629 329.914 54.2522 330.045 52.8071C330.242 51.362 330.341 49.8841 330.341 48.3733C330.341 46.7969 330.111 45.4503 329.651 44.3337C329.257 43.1513 328.107 42.5601 326.202 42.5601C324.298 42.5601 323.05 43.1513 322.458 44.3337C321.867 45.4503 321.506 46.8297 321.375 48.4718C321.309 50.0483 321.276 51.6576 321.276 53.2997C321.276 54.9419 320.948 56.2556 320.291 57.2409C319.568 58.2918 318.681 58.9487 317.63 59.2114C316.645 59.4085 315.561 59.507 314.379 59.507C313.262 59.507 312.146 59.5398 311.029 59.6055C309.978 59.6712 309.059 60.0325 308.27 60.6893C307.482 61.4119 306.694 62.1673 305.906 62.9555C305.183 63.7437 304.822 64.729 304.822 65.9113C304.822 66.6996 305.085 67.5535 305.61 68.4731C306.201 69.3927 306.957 69.8525 307.876 69.8525H320.291V80.7891C319.503 82.9567 319.174 85.2885 319.305 87.7846C319.437 90.2806 319.503 92.6782 319.503 94.9772ZM355.287 110.348C355.287 111.464 355.615 112.417 356.272 113.205C356.995 113.993 357.947 114.387 359.129 114.387H392.727C393.844 114.387 394.632 113.927 395.092 113.008C395.618 112.088 395.88 111.169 395.88 110.249C395.88 109.789 395.782 109.231 395.585 108.574C395.453 107.917 395.191 107.293 394.797 106.702C394.468 106.111 394.041 105.618 393.516 105.224C393.056 104.764 392.53 104.534 391.939 104.534H381.495L380.904 103.943V67.2907C380.904 65.9113 380.28 64.8604 379.032 64.1378C377.85 63.4153 376.7 63.054 375.584 63.054C374.795 63.054 374.007 63.1197 373.219 63.2511C372.496 63.3824 371.741 63.4481 370.953 63.4481C369.836 63.4481 368.719 63.3824 367.603 63.2511C366.552 63.1197 365.468 63.054 364.351 63.054C363.629 63.054 362.808 63.1197 361.888 63.2511C361.034 63.3168 360.213 63.5138 359.425 63.8422C358.702 64.105 358.078 64.5319 357.553 65.1231C357.027 65.7143 356.765 66.5353 356.765 67.5863C356.765 68.1118 356.83 68.703 356.962 69.3598C357.159 69.951 357.422 70.5093 357.75 71.0348C358.078 71.5603 358.472 72.0201 358.932 72.4142C359.458 72.7426 360.049 72.9068 360.706 72.9068H372.234V94.6816C372.168 94.8129 372.102 95.1414 372.037 95.6668C371.971 96.1923 371.905 96.5208 371.839 96.6521C371.839 96.9149 371.807 97.3747 371.741 98.0315C371.741 98.6884 371.708 99.3781 371.642 100.101C371.577 100.823 371.511 101.513 371.445 102.17C371.445 102.827 371.445 103.286 371.445 103.549L370.756 104.534H359.918C358.341 104.534 357.159 105.191 356.371 106.505C355.648 107.753 355.287 109.034 355.287 110.348ZM368.391 50.935C368.391 53.1027 368.949 54.9747 370.066 56.5512C371.248 58.1276 372.956 58.9158 375.189 58.9158C377.029 58.9158 378.671 58.3575 380.116 57.2409C381.561 56.0585 382.283 54.4821 382.283 52.5115C382.283 51.5262 382.086 50.5409 381.692 49.5557C381.364 48.5704 380.871 47.6836 380.214 46.8954C379.623 46.0415 378.868 45.3846 377.948 44.9248C377.094 44.3993 376.142 44.1366 375.091 44.1366C373.12 44.1366 371.511 44.7935 370.263 46.1072C369.015 47.4209 368.391 49.0302 368.391 50.935ZM399.882 109.461C399.882 110.906 400.145 111.957 400.671 112.614C401.196 113.271 401.886 113.73 402.74 113.993C403.659 114.256 404.677 114.42 405.794 114.486C406.911 114.486 408.027 114.551 409.144 114.683C409.275 114.683 409.604 114.748 410.129 114.88C410.655 115.011 410.983 115.077 411.114 115.077H415.154H419.194C420.508 114.946 421.657 114.551 422.642 113.895C423.693 113.172 424.219 112.121 424.219 110.742C424.219 109.034 423.857 107.852 423.135 107.195C422.478 106.538 421.657 106.078 420.672 105.815C419.752 105.553 418.833 105.388 417.913 105.323C417.059 105.191 416.435 104.83 416.041 104.239V102.761C416.041 102.038 416.041 101.447 416.041 100.987C416.107 100.528 416.304 99.9692 416.632 99.3124V88.0802C416.632 88.0802 416.796 87.7846 417.125 87.1934C417.519 86.6023 417.814 86.1425 418.011 85.814C418.077 85.6827 418.209 85.4856 418.406 85.2229C418.603 84.8944 418.734 84.6974 418.8 84.6317C419.522 83.3837 420.343 82.07 421.263 80.6906C422.248 79.2455 423.332 77.9318 424.514 76.7494C425.697 75.5671 426.978 74.5818 428.357 73.7936C429.802 73.0054 431.346 72.6113 432.988 72.6113C433.973 72.6113 434.925 72.7098 435.845 72.9068C436.765 73.0382 437.52 73.5965 438.111 74.5818C438.111 74.7789 438.111 75.1401 438.111 75.6656C438.177 76.1911 438.21 76.7494 438.21 77.3406C438.275 77.8661 438.308 78.3916 438.308 78.9171C438.374 79.4425 438.407 79.8038 438.407 80.0009C438.472 80.1322 438.538 80.5264 438.604 81.1832C438.735 81.7744 438.801 82.1356 438.801 82.267V82.4641V82.6611C438.801 82.8582 438.702 83.2523 438.505 83.8435C438.374 84.4346 438.275 84.8287 438.21 85.0258V100.002L437.323 103.845L436.929 104.239C434.827 104.37 433.053 104.797 431.608 105.52C430.229 106.177 429.539 107.753 429.539 110.249C429.539 112.351 430.59 113.698 432.692 114.289C433.218 114.289 434.137 114.322 435.451 114.387C436.765 114.453 438.144 114.519 439.589 114.584C441.1 114.584 442.512 114.617 443.826 114.683C445.14 114.683 446.059 114.683 446.585 114.683H448.063C449.639 114.683 450.92 114.42 451.905 113.895C452.956 113.303 453.482 112.154 453.482 110.446C453.482 108.344 452.759 106.866 451.314 106.012C449.935 105.158 448.358 104.567 446.585 104.239L446.191 103.845C446.191 103.845 446.158 103.68 446.092 103.352C446.092 102.958 446.092 102.662 446.092 102.465C446.092 101.743 446.092 101.086 446.092 100.495C446.158 99.9036 446.322 99.2467 446.585 98.5242V74.1877C446.585 72.6769 446.223 71.199 445.501 69.7539C444.778 68.3089 443.826 67.028 442.644 65.9113C441.527 64.7947 440.213 63.9079 438.702 63.2511C437.257 62.5285 435.812 62.1673 434.367 62.1673C432.002 62.1673 429.769 62.8241 427.667 64.1378C425.631 65.3859 423.693 66.6667 421.854 67.9804C421.46 68.2432 421.066 68.6373 420.672 69.1628C420.278 69.6882 419.884 70.2137 419.489 70.7392C419.095 71.2647 418.701 71.7245 418.307 72.1186C417.979 72.5127 417.617 72.7098 417.223 72.7098C417.223 72.7098 417.158 72.7098 417.026 72.7098C416.961 72.7098 416.895 72.6769 416.829 72.6113C416.698 70.9034 416.501 69.4912 416.238 68.3745C415.975 67.2579 415.515 66.3711 414.859 65.7143C414.202 64.9917 413.282 64.4334 412.1 64.0393C410.983 63.6452 409.472 63.3168 407.567 63.054C407.567 62.9883 407.338 62.9555 406.878 62.9555C406.484 62.9555 406.188 62.9555 405.991 62.9555C404.546 62.9555 403.199 63.2839 401.951 63.9408C400.769 64.5319 400.178 65.6814 400.178 67.3893C400.178 68.9657 400.572 70.148 401.36 70.9363C402.214 71.6588 403.101 72.2171 404.02 72.6113C405.006 73.0054 405.893 73.3338 406.681 73.5965C407.535 73.7936 407.962 74.122 407.962 74.5818V97.3418C407.765 98.3271 407.6 99.4438 407.469 100.692C407.403 101.874 407.305 102.925 407.173 103.845L406.779 104.239C404.809 104.37 403.167 104.731 401.853 105.323C400.539 105.848 399.882 107.227 399.882 109.461ZM457.66 119.609C457.66 122.631 458.382 125.028 459.827 126.802C461.338 128.641 463.44 130.02 466.133 130.94C466.659 131.071 467.086 131.301 467.414 131.63C467.808 132.024 468.268 132.319 468.794 132.516C471.552 133.502 474.245 134.126 476.873 134.388C479.5 134.651 482.292 134.783 485.248 134.783C487.875 134.783 490.535 134.487 493.229 133.896C495.987 133.37 498.483 132.451 500.717 131.137C502.95 129.889 504.756 128.181 506.136 126.014C507.515 123.912 508.205 121.284 508.205 118.131C508.205 116.883 508.041 115.767 507.712 114.781C507.384 113.796 506.924 112.909 506.333 112.121C505.742 111.267 505.052 110.479 504.264 109.756C503.475 109.034 502.589 108.246 501.603 107.392C501.144 106.998 500.815 106.702 500.618 106.505C500.421 106.308 500.257 106.144 500.125 106.012C499.994 105.881 499.797 105.75 499.534 105.618C499.337 105.487 499.009 105.323 498.549 105.126C497.432 104.731 496.119 104.534 494.608 104.534C493.163 104.534 492.013 104.469 491.159 104.337C491.028 104.337 490.667 104.272 490.076 104.14C489.55 104.009 488.959 103.878 488.302 103.746C487.645 103.615 487.021 103.483 486.43 103.352C485.905 103.221 485.576 103.155 485.445 103.155H481.996C479.697 103.155 477.464 103.483 475.296 104.14C473.129 104.797 470.895 105.126 468.596 105.126C468.268 105.126 467.94 104.994 467.611 104.731C467.283 104.469 467.053 104.206 466.921 103.943V102.564C466.921 101.513 467.119 100.593 467.513 99.805C467.972 98.9511 468.826 98.5242 470.074 98.5242C471.125 98.5242 472.111 98.6884 473.03 99.0168C473.95 99.2796 474.837 99.5751 475.691 99.9036C476.61 100.232 477.53 100.56 478.449 100.889C479.369 101.152 480.354 101.283 481.405 101.283C482.193 101.283 482.817 101.25 483.277 101.184C483.803 101.053 484.262 100.889 484.657 100.692C485.116 100.495 485.576 100.298 486.036 100.101C486.496 99.8379 487.054 99.5751 487.711 99.3124C489.419 98.6555 490.864 97.7688 492.046 96.6521C493.294 95.4698 494.312 94.1561 495.101 92.711C495.889 91.2002 496.447 89.5909 496.776 87.8831C497.17 86.1753 497.367 84.4346 497.367 82.6611C497.367 81.019 497.137 79.4754 496.677 78.0303C496.217 76.5195 495.987 74.9431 495.987 73.3009C496.381 73.3009 496.743 73.6294 497.071 74.2862C497.465 74.9431 497.925 75.6985 498.451 76.5524C498.976 77.3406 499.666 78.0631 500.52 78.72C501.374 79.3769 502.523 79.7053 503.968 79.7053C506.004 79.7053 507.417 78.9827 508.205 77.5377C508.993 76.0269 509.387 74.3519 509.387 72.5127C509.387 71.0676 509.026 69.7539 508.303 68.5716C507.646 67.3893 506.76 66.404 505.643 65.6157C504.592 64.7618 503.377 64.1378 501.998 63.7437C500.618 63.2839 499.272 63.054 497.958 63.054C495.396 63.054 493.13 63.9736 491.159 65.8128H489.287C488.368 65.8128 487.481 65.6814 486.627 65.4187C485.773 65.0903 484.919 64.7618 484.065 64.4334C483.277 64.105 482.456 63.8094 481.602 63.5467C480.748 63.2182 479.894 63.054 479.04 63.054C478.843 63.054 478.548 63.1197 478.154 63.2511C477.76 63.3168 477.365 63.4153 476.971 63.5467C476.577 63.678 476.183 63.8094 475.789 63.9408C475.461 64.0721 475.198 64.1707 475.001 64.2364C471.257 65.8785 468.301 68.2432 466.133 71.3304C464.031 74.4176 462.98 78.0303 462.98 82.1685C462.98 83.6793 463.177 85.1243 463.572 86.5037C464.031 87.8831 464.261 89.3282 464.261 90.839C464.261 90.9703 464.261 91.1674 464.261 91.4301C464.261 91.6929 464.228 91.8899 464.163 92.0213C462.586 93.5321 461.273 95.1414 460.222 96.8492C459.236 98.4913 458.744 100.429 458.744 102.662C458.744 103.385 458.875 104.107 459.138 104.83C459.401 105.487 459.663 106.144 459.926 106.801C460.254 107.457 460.55 108.114 460.813 108.771C461.075 109.428 461.207 110.085 461.207 110.742L461.108 111.234C459.992 112.482 459.138 113.73 458.547 114.978C457.955 116.226 457.66 117.77 457.66 119.609ZM466.133 120.102V118.427C466.133 116.785 466.659 115.537 467.71 114.683C468.826 113.763 470.14 113.073 471.651 112.614C473.227 112.154 474.869 111.891 476.577 111.825C478.285 111.694 479.763 111.628 481.011 111.628C481.931 111.628 483.441 111.694 485.543 111.825C487.711 111.957 489.879 112.285 492.046 112.811C494.279 113.271 496.217 113.96 497.859 114.88C499.567 115.799 500.421 117.047 500.421 118.624C500.421 119.609 500.093 120.463 499.436 121.186C498.779 121.908 497.991 122.532 497.071 123.058C496.152 123.583 495.166 124.01 494.115 124.339C493.13 124.667 492.276 124.93 491.554 125.127C489.649 125.258 487.58 125.357 485.346 125.422C483.179 125.488 481.044 125.521 478.942 125.521C476.38 125.521 474.016 125.094 471.848 124.24C469.746 123.386 467.841 122.007 466.133 120.102ZM469.976 82.5626C469.976 81.1175 470.271 79.771 470.863 78.5229C471.454 77.2749 472.242 76.1911 473.227 75.2715C474.213 74.3519 475.329 73.6294 476.577 73.1039C477.891 72.5784 479.238 72.3157 480.617 72.3157C483.638 72.3157 485.905 73.3338 487.415 75.37C488.926 77.3406 489.682 79.8038 489.682 82.7597C489.682 84.2047 489.452 85.5841 488.992 86.8978C488.532 88.2116 487.875 89.361 487.021 90.3463C486.167 91.3316 485.116 92.1198 483.868 92.711C482.686 93.3022 481.339 93.5978 479.829 93.5978C478.449 93.5978 477.136 93.2693 475.888 92.6125C474.705 91.9556 473.654 91.1346 472.735 90.1493C471.881 89.0983 471.191 87.916 470.666 86.6023C470.206 85.2885 469.976 83.942 469.976 82.5626ZM513.417 110.15C513.417 111.333 513.647 112.515 514.106 113.698C514.632 114.814 515.617 115.372 517.062 115.372C518.245 115.372 519.099 115.11 519.624 114.584C520.215 114.059 520.609 113.468 520.806 112.811C521.069 112.088 521.266 111.431 521.398 110.84C521.595 110.183 521.89 109.756 522.284 109.559C523.401 110.15 524.419 110.939 525.339 111.924C526.258 112.844 527.309 113.468 528.492 113.796C528.689 113.862 529.017 113.96 529.477 114.092C529.937 114.223 530.396 114.354 530.856 114.486C531.382 114.617 531.842 114.748 532.236 114.88C532.695 114.946 532.991 114.978 533.122 114.978C533.188 114.978 533.549 115.011 534.206 115.077C534.863 115.077 535.389 115.077 535.783 115.077C538.147 115.077 540.414 114.65 542.581 113.796C544.814 112.942 546.785 111.76 548.493 110.249C550.266 108.673 551.679 106.833 552.73 104.731C553.781 102.63 554.306 100.331 554.306 97.8345C554.306 95.4041 553.682 93.1708 552.434 91.1346C551.252 89.0326 549.807 87.1934 548.099 85.617C544.749 84.2376 541.169 83.2195 537.359 82.5626C533.549 81.9057 529.805 81.643 526.127 81.7744C524.813 81.4459 523.762 80.8876 522.974 80.0994C522.251 79.3112 521.89 78.1617 521.89 76.6509C521.89 76.0597 522.022 75.4357 522.284 74.7789C522.613 74.122 523.007 73.5308 523.467 73.0054C523.992 72.4142 524.55 71.9216 525.142 71.5274C525.733 71.1333 526.324 70.8377 526.915 70.6407C527.244 70.6407 527.868 70.6407 528.787 70.6407C529.707 70.575 530.298 70.5422 530.561 70.5422C531.48 70.5422 532.203 70.5422 532.728 70.5422C533.254 70.5422 533.746 70.575 534.206 70.6407C534.666 70.7064 535.126 70.8049 535.586 70.9363C536.111 71.002 536.834 71.1662 537.753 71.4289C539.198 71.823 540.315 72.6441 541.103 73.8921C541.891 75.1401 542.581 76.4539 543.172 77.8332C543.763 79.147 544.387 80.3293 545.044 81.3803C545.767 82.4312 546.719 82.9567 547.902 82.9567C549.281 82.9567 550.299 82.3655 550.956 81.1832C551.679 79.9352 552.04 78.72 552.04 77.5377V76.3553C552.04 75.9612 552.007 75.2715 551.941 74.2862C551.876 73.2353 551.81 72.1515 551.744 71.0348C551.744 69.8525 551.711 68.7687 551.646 67.7834C551.646 66.7324 551.646 66.0099 551.646 65.6157C551.711 64.6962 551.35 63.9079 550.562 63.2511C549.839 62.5285 549.018 62.1673 548.099 62.1673C547.442 62.1673 546.916 62.2986 546.522 62.5614C546.128 62.8241 545.767 63.1525 545.438 63.5467C545.176 63.9408 544.88 64.3677 544.552 64.8275C544.289 65.2873 543.928 65.6814 543.468 66.0099C541.497 64.6305 539.264 63.6123 536.768 62.9555C534.338 62.2329 531.94 61.7075 529.575 61.379H528.689C527.835 61.379 526.981 61.5104 526.127 61.7732C525.339 61.9702 524.583 62.2329 523.861 62.5614C520.708 63.8751 518.278 65.5501 516.57 67.5863C514.928 69.6226 514.106 72.3814 514.106 75.8627C514.106 78.8842 514.533 81.3146 515.387 83.1538C516.307 84.993 517.489 86.438 518.934 87.489C520.445 88.54 522.186 89.2954 524.156 89.7552C526.193 90.215 528.295 90.5762 530.462 90.839C532.63 91.1017 534.83 91.3645 537.064 91.6272C539.297 91.8899 541.432 92.3497 543.468 93.0066C544.585 93.4664 545.307 94.0247 545.636 94.6816C546.03 95.3384 546.227 96.2252 546.227 97.3418C546.227 98.9183 545.833 100.265 545.044 101.381C544.322 102.432 543.369 103.286 542.187 103.943C541.07 104.6 539.79 105.093 538.344 105.421C536.965 105.684 535.586 105.815 534.206 105.815C532.63 105.815 531.218 105.585 529.97 105.126C528.787 104.6 527.703 103.943 526.718 103.155C525.733 102.301 524.813 101.349 523.959 100.298C523.171 99.181 522.35 98.0315 521.496 96.8492C521.102 96.3237 520.872 95.6997 520.806 94.9772C520.741 94.1889 520.478 93.5321 520.018 93.0066C519.69 92.6782 519.263 92.4811 518.737 92.4154C518.278 92.284 517.851 92.2184 517.456 92.2184C516.603 92.2184 515.814 92.5139 515.092 93.1051C514.369 93.6306 514.008 94.3531 514.008 95.2727V106.899C513.68 107.556 513.482 108.114 513.417 108.574C513.417 108.968 513.417 109.494 513.417 110.15Z" fill="white"/>
<path d="M154.559 127.393H555.488V132.319H154.559V127.393Z" fill="white"/>
<defs>
<filter id="filter0_d_6_217" x="0" y="0" width="703" height="754.077" filterUnits="userSpaceOnUse" color-interpolation-filters="sRGB">
<feFlood flood-opacity="0" result="BackgroundImageFix"/>
<feColorMatrix in="SourceAlpha" type="matrix" values="0 0 0 0 0 0 0 0 0 0 0 0 0 0 0 0 0 0 127 0" result="hardAlpha"/>
<feOffset dx="-3" dy="4"/>
<feGaussianBlur stdDeviation="2"/>
<feComposite in2="hardAlpha" operator="out"/>
<feColorMatrix type="matrix" values="0 0 0 0 0 0 0 0 0 0 0 0 0 0 0 0 0 0 0.25 0"/>
<feBlend mode="normal" in2="BackgroundImageFix" result="effect1_dropShadow_6_217"/>
<feBlend mode="normal" in="SourceGraphic" in2="effect1_dropShadow_6_217" result="shape"/>
</filter>
</defs>
</svg>
