<svg width="638" height="142" viewBox="0 0 638 142" fill="none" xmlns="http://www.w3.org/2000/svg">
<rect x="1.73274" y="1.73274" width="633.843" height="137.696" fill="#EAD89A" stroke="black" stroke-width="3.46549"/>
<path d="M176.546 85.399C176.949 86.2957 177.263 87.282 177.487 88.3579C177.756 89.4339 178.182 90.3754 178.765 91.1824C180.11 93.0653 181.769 94.5672 183.741 95.688C185.714 96.7639 187.888 97.3019 190.264 97.3019C191.878 97.3019 193.447 97.0329 194.972 96.4949C196.496 95.9569 197.953 95.2396 199.343 94.343C200.419 93.536 201.338 92.4376 202.1 91.0479C202.907 89.6132 203.557 88.2459 204.05 86.9457C204.319 86.2733 204.476 85.5784 204.521 84.8611C204.566 84.1438 204.723 83.4489 204.992 82.7764V62.4675C205.216 62.0192 205.328 61.6382 205.328 61.3243C205.373 60.9657 205.395 60.5398 205.395 60.0466C205.395 59.419 205.35 58.8362 205.261 58.2982C205.171 57.7602 205.126 57.1998 205.126 56.617C205.126 56.3928 205.126 56.1687 205.126 55.9445C205.126 55.6755 205.305 55.4962 205.664 55.4065C206.202 55.3617 206.762 55.3169 207.345 55.272C207.928 55.2272 208.466 55.1151 208.959 54.9358C209.452 54.7565 209.856 54.4651 210.17 54.0616C210.483 53.6581 210.64 53.0977 210.64 52.3804C210.64 51.2596 210.237 50.3629 209.43 49.6905C208.623 49.018 207.704 48.6369 206.673 48.5472C206.583 48.5472 206.381 48.5472 206.068 48.5472C205.799 48.5472 205.507 48.5472 205.193 48.5472C204.879 48.5024 204.566 48.48 204.252 48.48C203.983 48.48 203.781 48.48 203.647 48.48C202.84 48.48 202.055 48.5472 201.293 48.6817C200.531 48.7714 199.746 48.8162 198.939 48.8162C198.536 48.8162 198.132 48.7714 197.729 48.6817C197.37 48.5921 196.967 48.5472 196.518 48.5472C195.622 48.5472 194.837 48.8162 194.165 49.3542C193.537 49.8922 193.223 50.6319 193.223 51.5734C193.223 52.2459 193.38 52.8063 193.694 53.2546C194.053 53.7029 194.478 54.084 194.972 54.3978C195.465 54.6668 196.003 54.891 196.586 55.0703C197.168 55.2048 197.729 55.3169 198.267 55.4065C198.581 55.541 198.782 55.7876 198.872 56.1462C199.007 56.4601 199.074 56.7739 199.074 57.0877V57.2222C199.029 57.3567 198.984 57.6257 198.939 58.0292C198.894 58.4327 198.85 58.6792 198.805 58.7689C198.85 62.8486 198.827 67.1525 198.738 71.6805C198.693 76.1637 198.625 80.3779 198.536 84.3231C198.401 84.8611 198.132 85.4887 197.729 86.206C197.325 86.9233 196.832 87.5958 196.249 88.2235C195.667 88.8063 195.039 89.3218 194.366 89.7702C193.739 90.1736 193.111 90.3754 192.483 90.3754H187.776C187.328 90.3754 186.812 90.1288 186.229 89.6357C185.691 89.1425 185.153 88.5821 184.615 87.9545C184.122 87.282 183.696 86.6095 183.338 85.937C183.024 85.2645 182.867 84.7266 182.867 84.3231V68.7888C182.553 68.2957 182.396 67.6905 182.396 66.9731C182.441 66.2558 182.464 65.6282 182.464 65.0902C182.464 64.6867 182.464 63.9694 182.464 62.9383C182.508 61.8623 182.553 60.7863 182.598 59.7104C182.643 58.6344 182.71 57.6705 182.8 56.8187C182.934 55.9669 183.091 55.4962 183.271 55.4065C183.898 55.3617 184.548 55.3169 185.221 55.272C185.893 55.1824 186.498 55.0255 187.036 54.8013C187.574 54.5771 188 54.2409 188.314 53.7926C188.673 53.2994 188.852 52.6494 188.852 51.8424C188.852 50.9458 188.538 50.1836 187.911 49.556C187.328 48.8835 186.566 48.5472 185.624 48.5472H173.789C172.802 48.5472 172.063 48.9283 171.569 49.6905C171.121 50.4078 170.897 51.2147 170.897 52.1114C170.897 52.6045 170.964 53.1425 171.099 53.7253C171.233 54.3081 171.614 54.6892 172.242 54.8685L176.546 56.0118V85.399ZM213.484 94.074C213.484 94.881 213.641 95.688 213.954 96.4949C214.313 97.2571 214.986 97.6381 215.972 97.6381C216.779 97.6381 217.362 97.4588 217.72 97.1002C218.124 96.7415 218.393 96.338 218.527 95.8897C218.707 95.3966 218.841 94.9482 218.931 94.5447C219.065 94.0964 219.267 93.805 219.536 93.6705C220.298 94.074 220.993 94.612 221.621 95.2845C222.248 95.9121 222.966 96.338 223.773 96.5622C223.907 96.607 224.131 96.6743 224.445 96.7639C224.759 96.8536 225.073 96.9433 225.387 97.0329C225.745 97.1226 226.059 97.2122 226.328 97.3019C226.642 97.3467 226.844 97.3692 226.933 97.3692C226.978 97.3692 227.225 97.3916 227.673 97.4364C228.121 97.4364 228.48 97.4364 228.749 97.4364C230.363 97.4364 231.91 97.145 233.389 96.5622C234.913 95.9794 236.258 95.1724 237.424 94.1413C238.634 93.0653 239.598 91.81 240.316 90.3754C241.033 88.9408 241.392 87.3716 241.392 85.668C241.392 84.0093 240.966 82.485 240.114 81.0952C239.307 79.6606 238.321 78.4053 237.155 77.3293C234.869 76.3878 232.425 75.6929 229.825 75.2446C227.225 74.7963 224.669 74.617 222.159 74.7066C221.262 74.4825 220.545 74.1014 220.007 73.5634C219.514 73.0254 219.267 72.2409 219.267 71.2098C219.267 70.8063 219.357 70.3804 219.536 69.932C219.76 69.4837 220.029 69.0802 220.343 68.7216C220.702 68.3181 221.083 67.9819 221.486 67.7129C221.89 67.4439 222.293 67.2421 222.697 67.1076C222.921 67.1076 223.347 67.1076 223.974 67.1076C224.602 67.0628 225.006 67.0404 225.185 67.0404C225.812 67.0404 226.306 67.0404 226.664 67.0404C227.023 67.0404 227.359 67.0628 227.673 67.1076C227.987 67.1525 228.301 67.2197 228.614 67.3094C228.973 67.3542 229.466 67.4663 230.094 67.6456C231.08 67.9146 231.842 68.475 232.38 69.3268C232.918 70.1786 233.389 71.0753 233.793 72.0167C234.196 72.9134 234.622 73.7203 235.07 74.4377C235.563 75.155 236.213 75.5136 237.02 75.5136C237.962 75.5136 238.657 75.1101 239.105 74.3032C239.598 73.4514 239.845 72.622 239.845 71.815V71.008C239.845 70.739 239.822 70.2683 239.778 69.5958C239.733 68.8785 239.688 68.1388 239.643 67.3766C239.643 66.5697 239.621 65.8299 239.576 65.1575C239.576 64.4401 239.576 63.947 239.576 63.678C239.621 63.0504 239.374 62.5124 238.836 62.0641C238.343 61.5709 237.783 61.3243 237.155 61.3243C236.707 61.3243 236.348 61.414 236.079 61.5933C235.81 61.7726 235.563 61.9968 235.339 62.2658C235.16 62.5348 234.958 62.8262 234.734 63.14C234.555 63.4538 234.308 63.7228 233.994 63.947C232.649 63.0055 231.125 62.3106 229.421 61.8623C227.763 61.3692 226.126 61.0105 224.512 60.7863H223.907C223.324 60.7863 222.741 60.876 222.159 61.0553C221.621 61.1898 221.105 61.3692 220.612 61.5933C218.46 62.49 216.801 63.6332 215.636 65.023C214.515 66.4127 213.954 68.2957 213.954 70.6718C213.954 72.734 214.246 74.3928 214.829 75.6481C215.456 76.9034 216.263 77.8897 217.25 78.607C218.281 79.3243 219.469 79.8399 220.814 80.1537C222.204 80.4675 223.638 80.7141 225.118 80.8934C226.597 81.0728 228.099 81.2521 229.623 81.4314C231.147 81.6108 232.605 81.9246 233.994 82.3729C234.756 82.6867 235.25 83.0678 235.474 83.5161C235.743 83.9644 235.877 84.5697 235.877 85.3318C235.877 86.4078 235.608 87.3268 235.07 88.089C234.577 88.8063 233.927 89.3891 233.12 89.8374C232.358 90.2857 231.484 90.622 230.497 90.8461C229.556 91.0254 228.614 91.1151 227.673 91.1151C226.597 91.1151 225.633 90.9582 224.781 90.6444C223.974 90.2857 223.235 89.8374 222.562 89.2994C221.89 88.7166 221.262 88.0665 220.679 87.3492C220.141 86.5871 219.581 85.8025 218.998 84.9956C218.729 84.6369 218.572 84.211 218.527 83.7178C218.482 83.1799 218.303 82.7315 217.989 82.3729C217.765 82.1487 217.474 82.0142 217.115 81.9694C216.801 81.8797 216.51 81.8349 216.241 81.8349C215.658 81.8349 215.12 82.0367 214.627 82.4401C214.134 82.7988 213.887 83.2919 213.887 83.9196V91.8548C213.663 92.3032 213.529 92.6842 213.484 92.998C213.484 93.267 213.484 93.6257 213.484 94.074ZM244.184 80.8934C244.184 83.0902 244.52 85.1973 245.193 87.2147C245.865 89.1873 246.829 90.9358 248.084 92.4601C249.34 93.9843 250.886 95.1948 252.724 96.0914C254.562 96.9881 256.625 97.4364 258.911 97.4364C261.242 97.4364 263.506 97.0105 265.703 96.1587C267.9 95.3069 269.671 93.8947 271.016 91.9221C271.554 91.1151 272.047 90.3081 272.495 89.5012C272.944 88.6494 273.168 87.7079 273.168 86.6768C273.168 86.0491 272.944 85.5335 272.495 85.1301C272.092 84.7266 271.554 84.5248 270.881 84.5248C270.164 84.5248 269.559 84.7042 269.066 85.0628C268.572 85.4215 268.102 85.8698 267.653 86.4078C267.25 86.9457 266.846 87.5061 266.443 88.089C266.084 88.6718 265.681 89.1649 265.232 89.5684C264.65 90.0616 263.955 90.4202 263.148 90.6444C262.341 90.8237 261.624 91.1599 260.996 91.6531C260.861 91.6531 260.548 91.6755 260.054 91.7203C259.606 91.7203 259.315 91.7203 259.18 91.7203C257.835 91.7203 256.602 91.4738 255.482 90.9806C254.361 90.4426 253.374 89.7477 252.523 88.8959C251.716 87.9993 251.066 86.9682 250.572 85.8025C250.124 84.6369 249.9 83.404 249.9 82.1039C249.9 82.0142 249.9 81.8349 249.9 81.5659C249.945 81.2969 249.967 81.14 249.967 81.0952L250.236 80.8934C250.236 80.8934 250.483 80.871 250.976 80.8262C251.469 80.7814 252.052 80.7589 252.724 80.7589C253.397 80.7141 254.069 80.6917 254.742 80.6917C255.459 80.6469 256.064 80.6245 256.558 80.6245C257.051 80.6245 257.925 80.6245 259.18 80.6245C260.48 80.5796 261.825 80.5572 263.215 80.5572C264.65 80.5572 265.995 80.5796 267.25 80.6245C268.55 80.6245 269.447 80.6245 269.94 80.6245C270.657 80.49 271.352 80.3106 272.024 80.0865C272.697 79.8623 273.235 79.414 273.638 78.7415C273.638 78.6518 273.638 78.4725 273.638 78.2035C273.683 77.8897 273.706 77.688 273.706 77.5983C273.706 77.1948 273.616 76.5896 273.437 75.7826C273.257 74.9308 273.033 74.079 272.764 73.2272C272.54 72.3306 272.271 71.5236 271.957 70.8063C271.688 70.0441 271.464 69.5286 271.285 69.2596C269.581 67.1076 267.743 65.3592 265.77 64.0142C263.798 62.6245 261.377 61.9296 258.508 61.9296C258.015 61.9296 257.499 61.9296 256.961 61.9296C256.468 61.8847 255.975 61.9744 255.482 62.1985C255.347 62.2434 255.1 62.3555 254.742 62.5348C254.428 62.6693 254.069 62.8486 253.666 63.0728C253.262 63.2521 252.881 63.4314 252.523 63.6108C252.164 63.7901 251.917 63.9246 251.783 64.0142C250.303 64.8212 249.071 65.8748 248.084 67.1749C247.143 68.4302 246.381 69.82 245.798 71.3443C245.215 72.8237 244.789 74.3928 244.52 76.0516C244.296 77.7104 244.184 79.3243 244.184 80.8934ZM250.505 74.7066C250.505 73.5858 250.774 72.622 251.312 71.815C251.85 70.9632 252.523 70.2683 253.33 69.7303C254.137 69.1923 255.033 68.8113 256.02 68.5871C257.006 68.3181 257.97 68.1836 258.911 68.1836C259.763 68.1836 260.66 68.2957 261.601 68.5198C262.587 68.6992 263.484 69.013 264.291 69.4613C265.098 69.8648 265.77 70.4476 266.308 71.2098C266.846 71.9271 267.115 72.8237 267.115 73.8997C267.115 73.9893 267.115 74.1462 267.115 74.3704C267.115 74.5946 267.093 74.7515 267.048 74.8411C266.958 74.9308 266.824 75.0429 266.645 75.1774C266.51 75.267 266.398 75.3119 266.308 75.3119H250.774C250.595 75.3119 250.505 75.2446 250.505 75.1101C250.505 74.9308 250.505 74.7963 250.505 74.7066ZM276.931 93.6033C276.931 94.7241 277.357 95.6431 278.209 96.3604C279.105 97.0777 280.092 97.4364 281.168 97.4364H288.834C289.282 97.3019 289.618 97.2347 289.843 97.2347C290.112 97.1898 290.425 97.1674 290.784 97.1674C291.546 97.1674 292.286 97.2122 293.003 97.3019C293.765 97.3916 294.527 97.4364 295.29 97.4364C295.962 97.4364 296.679 97.414 297.442 97.3692C298.204 97.2795 298.899 97.1226 299.526 96.8984C300.199 96.6294 300.737 96.2484 301.14 95.7552C301.544 95.2172 301.745 94.4999 301.745 93.6033C301.745 92.5273 301.319 91.7203 300.468 91.1824C299.616 90.5995 298.674 90.3081 297.643 90.3081C297.15 90.3081 296.635 90.353 296.097 90.4426C295.603 90.5323 295.11 90.5771 294.617 90.5771C294.124 90.5771 293.698 90.5323 293.339 90.4426C292.981 90.353 292.712 90.0616 292.532 89.5684C292.532 89.3891 292.51 89.0977 292.465 88.6942C292.465 88.2907 292.443 87.8648 292.398 87.4165C292.398 86.9682 292.376 86.5423 292.331 86.1388C292.286 85.7353 292.263 85.4663 292.263 85.3318C292.263 85.2421 292.219 85.018 292.129 84.6593C292.084 84.3007 292.039 84.0765 291.994 83.9868V76.3878C291.994 76.1637 292.107 75.8274 292.331 75.3791C292.555 74.886 292.824 74.3928 293.138 73.8997C293.452 73.4065 293.765 72.9582 294.079 72.5547C294.438 72.1064 294.707 71.7926 294.886 71.6132C295.021 71.4787 295.29 71.2098 295.693 70.8063C296.097 70.4028 296.522 69.9769 296.971 69.5286C297.419 69.0802 297.845 68.6543 298.249 68.2509C298.652 67.8474 298.943 67.5784 299.123 67.4439C299.302 67.2646 299.481 67.1749 299.661 67.1749C299.885 67.1301 300.109 67.1076 300.333 67.1076C300.423 67.1076 300.58 67.1076 300.804 67.1076C301.028 67.1076 301.163 67.2197 301.207 67.4439C301.252 68.0715 301.319 68.8337 301.409 69.7303C301.544 70.5821 301.768 71.4115 302.082 72.2185C302.395 73.0254 302.821 73.7203 303.359 74.3032C303.897 74.8411 304.615 75.1101 305.511 75.1101C307.394 75.1101 308.717 74.5273 309.479 73.3617C310.286 72.1961 310.689 70.7839 310.689 69.1251C310.689 67.9594 310.443 66.9059 309.95 65.9644C309.501 64.9781 308.896 64.1487 308.134 63.4763C307.372 62.8038 306.453 62.2882 305.377 61.9296C304.346 61.5261 303.27 61.3243 302.149 61.3243C300.311 61.3243 298.585 61.7951 296.971 62.7365C295.402 63.678 293.922 64.7091 292.532 65.8299H292.398C292.219 65.8299 292.039 65.7179 291.86 65.4937C291.725 65.2695 291.591 65.0005 291.456 64.6867C291.367 64.3729 291.277 64.0815 291.187 63.8125C291.098 63.4987 291.008 63.2969 290.919 63.2073C290.425 62.5348 289.708 62.0865 288.767 61.8623C287.825 61.5933 286.816 61.4364 285.74 61.3916C284.664 61.3467 283.588 61.3692 282.513 61.4588C281.481 61.5037 280.607 61.4812 279.89 61.3916C279.89 61.3467 279.823 61.3243 279.688 61.3243C279.598 61.3243 279.531 61.3243 279.486 61.3243C278.545 61.3243 277.805 61.6606 277.267 62.333C276.729 62.9607 276.46 63.7228 276.46 64.6195C276.46 65.5161 276.752 66.2783 277.334 66.9059C277.962 67.4887 278.724 67.825 279.621 67.9146C279.845 67.9146 280.226 67.937 280.764 67.9819C281.302 68.0267 281.885 68.0715 282.513 68.1164C283.14 68.1164 283.723 68.1388 284.261 68.1836C284.799 68.1836 285.18 68.1836 285.404 68.1836L285.942 68.7216L286.346 76.6568V77.9345L286.48 84.5248C286.435 84.6145 286.368 84.8386 286.278 85.1973C286.234 85.556 286.211 85.7801 286.211 85.8698C286.211 86.0491 286.189 86.3629 286.144 86.8112C286.099 87.2147 286.054 87.6631 286.009 88.1562C286.009 88.6045 285.987 89.0304 285.942 89.4339C285.942 89.8374 285.942 90.1288 285.942 90.3081L285.673 90.5771C285.628 90.5771 285.427 90.5995 285.068 90.6444C284.754 90.6444 284.508 90.6444 284.328 90.6444C283.656 90.6444 283.006 90.5995 282.378 90.5099C281.795 90.3754 281.19 90.3081 280.562 90.3081C279.531 90.3081 278.657 90.5995 277.94 91.1824C277.267 91.7652 276.931 92.5721 276.931 93.6033ZM313.531 93.6033C313.531 94.5896 313.71 95.3069 314.069 95.7552C314.427 96.2035 314.898 96.5173 315.481 96.6967C316.108 96.876 316.803 96.9881 317.565 97.0329C318.328 97.0329 319.09 97.0777 319.852 97.1674C319.942 97.1674 320.166 97.2122 320.524 97.3019C320.883 97.3916 321.107 97.4364 321.197 97.4364H323.954H326.711C327.608 97.3467 328.392 97.0777 329.065 96.6294C329.782 96.1363 330.141 95.419 330.141 94.4775C330.141 93.3119 329.894 92.5049 329.401 92.0566C328.953 91.6083 328.392 91.2944 327.72 91.1151C327.092 90.9358 326.465 90.8237 325.837 90.7789C325.254 90.6892 324.828 90.4426 324.559 90.0391V89.0304C324.559 88.5373 324.559 88.1338 324.559 87.82C324.604 87.5061 324.739 87.1251 324.963 86.6768V79.0105C324.963 79.0105 325.075 78.8088 325.299 78.4053C325.568 78.0018 325.77 77.688 325.904 77.4638C325.949 77.3741 326.039 77.2396 326.173 77.0603C326.308 76.8362 326.397 76.7017 326.442 76.6568C326.935 75.805 327.496 74.9084 328.123 73.9669C328.796 72.9806 329.536 72.084 330.343 71.277C331.149 70.47 332.024 69.7976 332.965 69.2596C333.951 68.7216 335.005 68.4526 336.126 68.4526C336.798 68.4526 337.448 68.5198 338.076 68.6543C338.704 68.744 339.219 69.1251 339.623 69.7976C339.623 69.932 339.623 70.1786 339.623 70.5373C339.668 70.8959 339.69 71.277 339.69 71.6805C339.735 72.0391 339.757 72.3978 339.757 72.7565C339.802 73.1151 339.824 73.3617 339.824 73.4962C339.869 73.5858 339.914 73.8548 339.959 74.3032C340.049 74.7066 340.093 74.9532 340.093 75.0429V75.1774V75.3119C340.093 75.4464 340.026 75.7154 339.892 76.1188C339.802 76.5223 339.735 76.7913 339.69 76.9258V87.1475L339.085 89.7702L338.816 90.0391C337.381 90.1288 336.171 90.4202 335.184 90.9134C334.243 91.3617 333.772 92.4376 333.772 94.1413C333.772 95.5759 334.489 96.4949 335.924 96.8984C336.283 96.8984 336.91 96.9208 337.807 96.9657C338.704 97.0105 339.645 97.0553 340.631 97.1002C341.663 97.1002 342.626 97.1226 343.523 97.1674C344.42 97.1674 345.047 97.1674 345.406 97.1674H346.415C347.491 97.1674 348.365 96.9881 349.037 96.6294C349.755 96.2259 350.113 95.4414 350.113 94.2758C350.113 92.8411 349.62 91.8324 348.634 91.2496C347.692 90.6668 346.616 90.2633 345.406 90.0391L345.137 89.7702C345.137 89.7702 345.115 89.6581 345.07 89.4339C345.07 89.1649 345.07 88.9632 345.07 88.8287C345.07 88.3355 345.07 87.8872 345.07 87.4837C345.115 87.0802 345.227 86.6319 345.406 86.1388V69.5286C345.406 68.4974 345.159 67.4887 344.666 66.5024C344.173 65.5161 343.523 64.6419 342.716 63.8797C341.954 63.1176 341.057 62.5124 340.026 62.0641C339.04 61.5709 338.054 61.3243 337.067 61.3243C335.453 61.3243 333.929 61.7726 332.494 62.6693C331.105 63.5211 329.782 64.3953 328.527 65.292C328.258 65.4713 327.989 65.7403 327.72 66.0989C327.451 66.4576 327.182 66.8162 326.913 67.1749C326.644 67.5335 326.375 67.8474 326.106 68.1164C325.882 68.3853 325.635 68.5198 325.366 68.5198C325.366 68.5198 325.321 68.5198 325.232 68.5198C325.187 68.5198 325.142 68.4974 325.097 68.4526C325.008 67.287 324.873 66.3231 324.694 65.5609C324.514 64.7988 324.201 64.1936 323.752 63.7452C323.304 63.2521 322.676 62.871 321.869 62.602C321.107 62.333 320.076 62.1089 318.776 61.9296C318.776 61.8847 318.619 61.8623 318.305 61.8623C318.036 61.8623 317.834 61.8623 317.7 61.8623C316.714 61.8623 315.795 62.0865 314.943 62.5348C314.136 62.9383 313.732 63.7228 313.732 64.8885C313.732 65.9644 314.001 66.7714 314.539 67.3094C315.122 67.8025 315.727 68.1836 316.355 68.4526C317.027 68.7216 317.633 68.9457 318.171 69.1251C318.753 69.2596 319.045 69.4837 319.045 69.7976V85.3318C318.91 86.0043 318.798 86.7664 318.709 87.6182C318.664 88.4252 318.597 89.1425 318.507 89.7702L318.238 90.0391C316.893 90.1288 315.772 90.3754 314.876 90.7789C313.979 91.1375 313.531 92.079 313.531 93.6033ZM352.965 86.6095C352.965 88.7166 353.369 90.5771 354.176 92.1911C355.027 93.7602 356.372 95.0827 358.21 96.1587C358.569 96.3829 358.928 96.6294 359.286 96.8984C359.645 97.1226 360.071 97.2347 360.564 97.2347H366.616C367.379 97.2347 368.118 97.1002 368.836 96.8312C369.553 96.5173 370.248 96.1587 370.92 95.7552C371.593 95.3069 372.243 94.8586 372.87 94.4103C373.543 93.9619 374.193 93.5809 374.821 93.267H375.157C375.471 93.267 375.74 93.3791 375.964 93.6033C376.233 93.8274 376.457 94.0964 376.636 94.4103C376.86 94.6792 377.062 94.9706 377.242 95.2845C377.466 95.5535 377.712 95.7552 377.981 95.8897C378.743 96.3829 379.438 96.7415 380.066 96.9657C380.694 97.145 381.433 97.2347 382.285 97.2347C383.361 97.2347 384.303 96.9881 385.11 96.4949C385.961 96.0018 386.656 95.3741 387.194 94.612C387.777 93.805 388.225 92.9084 388.539 91.9221C388.853 90.9358 389.01 89.9495 389.01 88.9632C389.01 88.5149 388.965 88.0665 388.875 87.6182C388.786 87.1251 388.629 86.6768 388.405 86.2733C388.181 85.8698 387.889 85.5335 387.53 85.2645C387.172 84.9956 386.746 84.8611 386.253 84.8611C385.311 84.8611 384.684 85.1749 384.37 85.8025C384.101 86.4302 383.899 87.1475 383.765 87.9545C383.63 88.7166 383.473 89.4115 383.294 90.0391C383.115 90.6668 382.666 90.9806 381.949 90.9806C380.873 90.9806 380.335 90.353 380.335 89.0977V77.7328C380.559 77.1948 380.649 76.5896 380.604 75.9171C380.604 75.1998 380.604 74.5721 380.604 74.0342V71.9495C380.604 71.815 380.559 71.5908 380.469 71.277C380.425 70.9183 380.357 70.5597 380.268 70.201C380.178 69.7976 380.088 69.4165 379.999 69.0578C379.909 68.6992 379.842 68.4526 379.797 68.3181C379.662 67.7801 379.304 67.1301 378.721 66.3679C378.183 65.6058 377.533 64.8885 376.771 64.216C376.054 63.5435 375.291 62.9607 374.484 62.4675C373.722 61.9744 373.05 61.7278 372.467 61.7278H362.178C361.461 61.7278 360.833 61.952 360.295 62.4003C359.757 62.8038 359.242 63.1849 358.748 63.5435C358.166 63.947 357.583 64.3953 357 64.8885C356.417 65.3368 355.902 65.8299 355.453 66.3679C355.005 66.9059 354.646 67.4887 354.377 68.1164C354.108 68.744 353.974 69.4613 353.974 70.2683C353.974 71.6581 354.422 72.8237 355.319 73.7652C356.26 74.7066 357.448 75.1774 358.883 75.1774C359.824 75.1774 360.564 74.998 361.102 74.6394C361.685 74.2359 362.111 73.7652 362.38 73.2272C362.694 72.6444 362.918 72.0167 363.052 71.3443C363.187 70.6718 363.299 70.0665 363.389 69.5286C363.523 68.9457 363.658 68.475 363.792 68.1164C363.927 67.7129 364.173 67.5111 364.532 67.5111H370.853C370.898 67.5111 371.189 67.6456 371.727 67.9146C372.265 68.1836 372.669 68.3853 372.938 68.5198C373.655 68.9233 374.148 69.4613 374.417 70.1338C374.686 70.8063 374.821 71.5236 374.821 72.2857C374.821 73.3617 374.283 74.079 373.207 74.4377C372.131 74.7963 370.786 75.0429 369.172 75.1774C367.558 75.3119 365.787 75.4688 363.859 75.6481C361.976 75.7826 360.228 76.2085 358.614 76.9258C357 77.5983 355.655 78.6967 354.579 80.221C353.503 81.7004 352.965 83.8299 352.965 86.6095ZM358.21 86.5423C358.21 86.0491 358.367 85.4663 358.681 84.7938C359.04 84.1213 359.331 83.6282 359.555 83.3144C360.004 82.6419 360.519 82.2832 361.102 82.2384C362.223 82.0591 363.321 81.9246 364.397 81.8349C365.518 81.7452 366.616 81.6108 367.692 81.4314C367.827 81.4314 368.186 81.3866 368.768 81.2969C369.396 81.1624 370.046 81.0504 370.719 80.9607C371.391 80.8262 372.019 80.7141 372.601 80.6245C373.229 80.49 373.61 80.4227 373.745 80.4227L373.879 80.3555C373.924 80.3555 373.946 80.3779 373.946 80.4227C373.991 80.4227 374.014 80.4227 374.014 80.4227C374.059 80.4227 374.148 80.4675 374.283 80.5572C374.417 80.602 374.507 80.6245 374.552 80.6245V81.4314C374.552 83.3592 374.26 84.9283 373.677 86.1388C373.095 87.3492 371.974 88.5149 370.315 89.6357C370.225 89.6805 370.001 89.7926 369.643 89.9719C369.329 90.1512 369.127 90.2857 369.037 90.3754C368.858 90.465 368.634 90.5771 368.365 90.7116C368.141 90.8461 368.006 90.9134 367.961 90.9134H361.102C360.654 90.9134 360.25 90.7565 359.892 90.4426C359.533 90.1288 359.219 89.7477 358.95 89.2994C358.726 88.8063 358.547 88.3131 358.412 87.82C358.278 87.3268 358.21 86.9009 358.21 86.5423ZM421.333 96.5622C421.736 96.5622 422.118 96.6967 422.476 96.9657C422.88 97.1898 423.283 97.3243 423.687 97.3692C424.987 97.5933 426.22 97.8623 427.385 98.1761C428.551 98.5348 429.784 98.7141 431.084 98.7141C431.936 98.7141 432.631 98.3106 433.169 97.5036C433.707 96.6967 433.976 95.9121 433.976 95.15C433.976 94.612 433.864 94.2085 433.639 93.9395C433.46 93.6257 433.213 93.3567 432.9 93.1325C432.631 92.8636 432.339 92.617 432.025 92.3928C431.756 92.1238 431.532 91.7652 431.353 91.3169V88.2907C431.353 87.7975 431.331 87.1251 431.286 86.2733C431.286 85.3766 431.398 84.6145 431.622 83.9868V68.9906C431.622 68.9009 431.577 68.7216 431.487 68.4526C431.443 68.1836 431.398 68.0043 431.353 67.9146C431.039 67.1973 430.703 66.5248 430.344 65.8972C429.986 65.2247 429.56 64.6419 429.066 64.1487C428.573 63.6108 427.991 63.1849 427.318 62.871C426.69 62.5572 425.973 62.4003 425.166 62.4003C424.045 62.4003 423.149 62.5348 422.476 62.8038C421.849 63.0728 421.288 63.409 420.795 63.8125C420.302 64.216 419.809 64.6867 419.316 65.2247C418.867 65.7627 418.307 66.3007 417.634 66.8387C417.052 66.3903 416.536 65.8972 416.088 65.3592C415.639 64.8212 415.169 64.3281 414.675 63.8797C414.227 63.3866 413.689 62.9831 413.062 62.6693C412.434 62.3106 411.649 62.1313 410.708 62.1313C410.215 62.1313 409.677 62.2658 409.094 62.5348C408.511 62.8038 407.951 63.1176 407.413 63.4763C406.875 63.8349 406.382 64.2384 405.933 64.6867C405.485 65.135 405.104 65.5161 404.79 65.8299H404.656H404.521C404.387 65.7851 404.207 65.6506 403.983 65.4264C403.804 65.1575 403.602 64.9109 403.378 64.6867C403.154 64.4177 402.952 64.1712 402.773 63.947C402.593 63.7228 402.459 63.5659 402.369 63.4763C402.01 63.1176 401.54 62.9383 400.957 62.9383C400.374 62.8934 399.836 62.871 399.343 62.871C398.177 62.871 397.169 63.0728 396.317 63.4763C395.465 63.8797 395.039 64.754 395.039 66.0989C395.039 66.9507 395.241 67.5784 395.644 67.9819C396.048 68.3853 396.496 68.6768 396.989 68.8561C397.527 69.0354 397.998 69.1699 398.401 69.2596C398.805 69.3492 399.007 69.5061 399.007 69.7303V87.4165L398.469 91.0479C398.424 91.3617 398.177 91.5858 397.729 91.7203C397.326 91.81 396.877 91.9445 396.384 92.1238C395.936 92.3032 395.51 92.5721 395.106 92.9308C394.703 93.2895 394.501 93.8723 394.501 94.6792C394.501 95.1724 394.636 95.6655 394.905 96.1587C395.218 96.607 395.577 97.0105 395.981 97.3692C396.429 97.683 396.922 97.9296 397.46 98.1089C397.998 98.333 398.514 98.4451 399.007 98.4451H404.521C404.88 98.4451 405.238 98.3555 405.597 98.1761C406 97.9968 406.359 97.7726 406.673 97.5036C407.032 97.2795 407.345 97.0329 407.614 96.7639C407.928 96.4949 408.197 96.2708 408.421 96.0914H408.556C408.78 96.0914 409.139 96.2259 409.632 96.4949C410.125 96.7191 410.663 96.9881 411.246 97.3019C411.829 97.5709 412.389 97.8175 412.927 98.0416C413.465 98.3106 413.913 98.4451 414.272 98.4451H418.172C418.531 98.4451 418.822 98.333 419.047 98.1089C419.316 97.9296 419.562 97.7278 419.786 97.5036C420.01 97.2795 420.235 97.0777 420.459 96.8984C420.728 96.6743 421.019 96.5622 421.333 96.5622ZM410.304 68.7216C410.394 68.7216 410.529 68.7216 410.708 68.7216C410.887 68.6768 411.022 68.6543 411.111 68.6543C411.335 68.6543 411.649 68.6992 412.053 68.7888C412.456 68.8337 412.658 69.0802 412.658 69.5286V90.3081C412.658 90.5323 412.456 90.8237 412.053 91.1824C411.694 91.541 411.268 91.9221 410.775 92.3256C410.282 92.7291 409.789 93.1101 409.296 93.4688C408.847 93.7826 408.556 94.0292 408.421 94.2085H408.22C408.13 94.074 407.861 93.805 407.413 93.4015C407.009 92.998 406.74 92.7515 406.606 92.6618C406.516 92.617 406.247 92.5273 405.799 92.3928C405.395 92.2583 405.149 92.1687 405.059 92.1238C404.969 92.079 404.857 91.9893 404.723 91.8548C404.588 91.7203 404.521 91.6307 404.521 91.5858V78.9433C404.521 78.0466 404.678 77.1051 404.992 76.1188C405.306 75.0877 405.732 74.1014 406.269 73.1599C406.807 72.2185 407.413 71.3667 408.085 70.6045C408.802 69.7976 409.542 69.1699 410.304 68.7216ZM417.634 87.282C417.634 85.1749 417.724 83.0678 417.903 80.9607C418.083 78.8536 418.531 76.7913 419.248 74.7739C419.248 74.7291 419.316 74.5946 419.45 74.3704C419.629 74.1462 419.741 74.0117 419.786 73.9669C419.876 73.8324 420.01 73.5858 420.19 73.2272C420.414 72.8237 420.638 72.4202 420.862 72.0167C421.086 71.5684 421.288 71.1649 421.467 70.8063C421.647 70.4028 421.781 70.1338 421.871 69.9993C422.23 69.6406 422.588 69.3268 422.947 69.0578C423.306 68.7888 423.732 68.6543 424.225 68.6543C424.449 68.6543 424.763 68.6992 425.166 68.7888C425.614 68.8337 425.839 69.0802 425.839 69.5286V90.8461C425.839 91.2496 425.704 91.5634 425.435 91.7876C425.211 91.9669 424.92 92.1238 424.561 92.2583C424.202 92.348 423.844 92.4376 423.485 92.5273C423.126 92.5721 422.857 92.617 422.678 92.6618L421.602 93.1998H421.333H421.064C420.257 92.9308 419.607 92.6394 419.114 92.3256C418.666 91.9669 418.329 91.5634 418.105 91.1151C417.881 90.622 417.746 90.084 417.702 89.5012C417.657 88.8735 417.634 88.1338 417.634 87.282ZM436.825 80.8934C436.825 83.0902 437.161 85.1973 437.834 87.2147C438.506 89.1873 439.47 90.9358 440.726 92.4601C441.981 93.9843 443.528 95.1948 445.366 96.0914C447.204 96.9881 449.266 97.4364 451.552 97.4364C453.884 97.4364 456.148 97.0105 458.345 96.1587C460.541 95.3069 462.312 93.8947 463.657 91.9221C464.195 91.1151 464.688 90.3081 465.137 89.5012C465.585 88.6494 465.809 87.7079 465.809 86.6768C465.809 86.0491 465.585 85.5335 465.137 85.1301C464.733 84.7266 464.195 84.5248 463.523 84.5248C462.805 84.5248 462.2 84.7042 461.707 85.0628C461.214 85.4215 460.743 85.8698 460.295 86.4078C459.891 86.9457 459.488 87.5061 459.084 88.089C458.726 88.6718 458.322 89.1649 457.874 89.5684C457.291 90.0616 456.596 90.4202 455.789 90.6444C454.982 90.8237 454.265 91.1599 453.637 91.6531C453.503 91.6531 453.189 91.6755 452.696 91.7203C452.247 91.7203 451.956 91.7203 451.821 91.7203C450.477 91.7203 449.244 91.4738 448.123 90.9806C447.002 90.4426 446.016 89.7477 445.164 88.8959C444.357 87.9993 443.707 86.9682 443.214 85.8025C442.765 84.6369 442.541 83.404 442.541 82.1039C442.541 82.0142 442.541 81.8349 442.541 81.5659C442.586 81.2969 442.609 81.14 442.609 81.0952L442.878 80.8934C442.878 80.8934 443.124 80.871 443.617 80.8262C444.11 80.7814 444.693 80.7589 445.366 80.7589C446.038 80.7141 446.711 80.6917 447.383 80.6917C448.1 80.6469 448.706 80.6245 449.199 80.6245C449.692 80.6245 450.566 80.6245 451.821 80.6245C453.122 80.5796 454.467 80.5572 455.856 80.5572C457.291 80.5572 458.636 80.5796 459.891 80.6245C461.191 80.6245 462.088 80.6245 462.581 80.6245C463.298 80.49 463.993 80.3106 464.666 80.0865C465.338 79.8623 465.876 79.414 466.28 78.7415C466.28 78.6518 466.28 78.4725 466.28 78.2035C466.325 77.8897 466.347 77.688 466.347 77.5983C466.347 77.1948 466.257 76.5896 466.078 75.7826C465.899 74.9308 465.675 74.079 465.406 73.2272C465.181 72.3306 464.912 71.5236 464.599 70.8063C464.33 70.0441 464.105 69.5286 463.926 69.2596C462.222 67.1076 460.384 65.3592 458.412 64.0142C456.439 62.6245 454.018 61.9296 451.149 61.9296C450.656 61.9296 450.14 61.9296 449.602 61.9296C449.109 61.8847 448.616 61.9744 448.123 62.1985C447.988 62.2434 447.742 62.3555 447.383 62.5348C447.069 62.6693 446.711 62.8486 446.307 63.0728C445.904 63.2521 445.523 63.4314 445.164 63.6108C444.805 63.7901 444.559 63.9246 444.424 64.0142C442.945 64.8212 441.712 65.8748 440.726 67.1749C439.784 68.4302 439.022 69.82 438.439 71.3443C437.856 72.8237 437.43 74.3928 437.161 76.0516C436.937 77.7104 436.825 79.3243 436.825 80.8934ZM443.147 74.7066C443.147 73.5858 443.416 72.622 443.953 71.815C444.491 70.9632 445.164 70.2683 445.971 69.7303C446.778 69.1923 447.675 68.8113 448.661 68.5871C449.647 68.3181 450.611 68.1836 451.552 68.1836C452.404 68.1836 453.301 68.2957 454.242 68.5198C455.229 68.6992 456.125 69.013 456.932 69.4613C457.739 69.8648 458.412 70.4476 458.95 71.2098C459.488 71.9271 459.757 72.8237 459.757 73.8997C459.757 73.9893 459.757 74.1462 459.757 74.3704C459.757 74.5946 459.734 74.7515 459.689 74.8411C459.6 74.9308 459.465 75.0429 459.286 75.1774C459.151 75.267 459.039 75.3119 458.95 75.3119H443.416C443.236 75.3119 443.147 75.2446 443.147 75.1101C443.147 74.9308 443.147 74.7963 443.147 74.7066Z" fill="white"/>
</svg>
